<?xml version="1.0" ?>
<svg baseProfile="full" height="300" version="1.1" viewBox="[0, 0, 300, 300]" width="300" xmlns="http://www.w3.org/2000/svg" xmlns:ev="http://www.w3.org/2001/xml-events" xmlns:xlink="http://www.w3.org/1999/xlink">
	<defs/>
	<path d="M124,76c48.37416,0 69.87264,-26.67449 73,39c0.39637,8.32373 6.53195,31.46805 0,38c-6.59105,6.59105 -25.39459,2.87755 -33,2c-9.52864,-1.09946 -41.02323,3.96128 -47,-6c-7.0762,-11.79367 9,-55.64205 9,-74" fill="none" stroke="black" stroke-linecap="round" stroke-width="5"/>
	<path d="M102,153c27.94701,-13.9735 13.963,-93.4642 67,-97c5.12809,-0.34187 19.28236,-2.1451 24,1c9.078,6.052 10.73424,27.50677 12,37c4.98063,37.35473 8,77.3343 8,115c0,8.8709 1.74439,34.17041 -7,40c-15.42004,10.28003 -21.1727,-17.22284 -19,-27c0.7507,-3.37816 8.36928,-22.36928 7,-21" fill="none" stroke="black" stroke-linecap="round" stroke-width="5"/>
	<path d="M106,145c10.44129,20.88258 -35.15081,83.84919 -12,107c20.11916,20.11916 38.63555,-24.82224 35,-43c-0.2784,-1.392 -0.66215,-5 -2,-5" fill="none" stroke="black" stroke-linecap="round" stroke-width="5"/>
	<path d="M107,175c47.18909,0 112.18296,-31.73186 92,49c-0.40423,1.6169 -2.46809,2.34347 -4,3c-4.27978,1.83419 -69.40975,-3.20488 -75,-6c-0.66667,-0.33333 -1.66667,-0.33333 -2,-1c-4.19939,-8.39878 8.56648,-24.69945 11,-32c1.80616,-5.41847 3.28105,-12.24842 4,-18c0.13074,-1.04595 1,-4.05409 1,-3" fill="none" stroke="black" stroke-linecap="round" stroke-width="5"/>
	<path d="M135,226c0,7.86487 -2.22214,27.44446 8,30c15.34976,3.83744 15.57859,-28.73576 14,-24" fill="none" stroke="black" stroke-linecap="round" stroke-width="5"/>
	<path d="M170,228c3.12468,0 13.95887,44.60282 25,17c1.29248,-3.23119 2.24506,-6.60277 3,-10c1.65195,-7.43377 0,-7.59121 0,-14" fill="none" stroke="black" stroke-linecap="round" stroke-width="5"/>
</svg>
