<?xml version="1.0" ?>
<svg baseProfile="full" height="300" version="1.1" viewBox="[0, 0, 300, 300]" width="300" xmlns="http://www.w3.org/2000/svg" xmlns:ev="http://www.w3.org/2001/xml-events" xmlns:xlink="http://www.w3.org/1999/xlink">
	<defs/>
	<path d="M91,167c3.34211,-20.05269 0.65903,-47.90329 11,-66c12.74527,-22.30422 65.03712,-23.44432 80,-1c4.5543,6.83144 5.62533,12.87071 5,21c-1.35886,17.66512 -11,32.44876 -11,51c0,0.66667 0.4714,1.5286 0,2c-8.57692,8.57692 -37.23549,0.39493 -47,-1c-14.29846,-2.04264 -32.05915,7.47042 -45,1c-6.36993,-3.18496 3,-13.13038 3,-17" fill="none" stroke="black" stroke-linecap="round" stroke-width="5"/>
	<path d="M86,170c0,16.5258 -19.58644,66.20678 -2,75c17.00188,8.50094 12.14758,-30.14758 17,-35c0.70711,-0.70711 2,0 3,0c24.87242,0 2.7999,28.26663 11,31c0.44721,0.14907 0.66667,0.66667 1,1c1.50923,1.50923 3.63361,-2.36033 5,-4c10.50615,-12.60738 14.08151,-23.24453 19,-38c4.3716,-13.11481 31.99601,9 29,9" fill="none" stroke="black" stroke-linecap="round" stroke-width="5"/>
	<path d="M166,212c0,8.49329 -0.41259,19.52443 1,28c1.99101,11.94608 22.38534,6.03664 26,-3c0.74278,-1.85695 0,-4 0,-6c0,-7.50703 -6.37291,-7.49164 -8,-14c-2.88158,-11.52633 4.73455,-22.37452 0,-35c-2.24641,-5.99043 -11,-12.33934 -11,-19" fill="none" stroke="black" stroke-linecap="round" stroke-width="5"/>
	<path d="M100,176c0,43.38922 87.73561,22.58635 90,9c6.03397,-36.20383 -89.14073,-17.85927 -98,-9" fill="none" stroke="black" stroke-linecap="round" stroke-width="5"/>
	<path d="M107,137c34.07357,0 68.6979,5.86042 103,-1" fill="none" stroke="black" stroke-linecap="round" stroke-width="5"/>
</svg>
