<?xml version="1.0" ?>
<svg baseProfile="full" height="300" version="1.1" viewBox="[0, 0, 300, 300]" width="300" xmlns="http://www.w3.org/2000/svg" xmlns:ev="http://www.w3.org/2001/xml-events" xmlns:xlink="http://www.w3.org/1999/xlink">
	<defs/>
	<path d="M97,173c10.99184,0 12.20069,-55.36125 17,-64c11.11209,-20.00177 31.16351,-16 51,-16c6.33333,0 13.73035,-3.5131 19,0c13.22226,8.81484 8.64958,78.64102 -11,84c-23.50404,6.41019 -47.61148,-3 -70,-3" fill="none" stroke="black" stroke-linecap="round" stroke-width="5"/>
	<path d="M93,256c-15.80542,0 -3.06177,-42.50582 -2,-51c5.88979,-47.11829 10.89668,-110.89668 46,-146c12.43072,-12.43072 57.63154,25.63154 66,34c6.01788,6.01788 11.29227,12.8768 14,21c4.71417,14.14252 7.7098,113.87059 2,131c-5.0219,15.0657 -28.51784,5.16974 -31,-6c-1.99381,-8.97213 4.52163,-23.32572 7,-32c0.49057,-1.717 4.20442,-15.20442 2,-13" fill="none" stroke="black" stroke-linecap="round" stroke-width="5"/>
	<path d="M100,243c18.37264,9.18632 25,-11.23361 25,-27c0,-2.68483 -0.76752,-5.53822 3,-5c4.72502,0.675 9.31146,2.21858 14,3c28.56057,4.7601 -18.93928,35.64858 -6,46c18.23965,14.59172 18,-5.7162 18,-20c0,-1.57991 0.70575,-3 -1,-3" fill="none" stroke="black" stroke-linecap="round" stroke-width="5"/>
	<path d="M121,207c14.21152,0 29.08877,1.47781 43,-2c9.26441,-2.3161 56.1766,-25.20531 60,-8c2.416,10.87198 1.40042,19.24577 -7,27c-31.25161,28.84764 -64.65485,13.13806 -100,-1c-5.62158,-2.24863 1.37138,-18.37138 4,-21c5.58069,-5.58069 13.74914,-4.38162 21,-4c7.03869,0.37046 13.95657,2 21,2" fill="none" stroke="black" stroke-linecap="round" stroke-width="5"/>
</svg>
