<?xml version="1.0" ?>
<svg baseProfile="full" height="300" version="1.1" viewBox="[0, 0, 300, 300]" width="300" xmlns="http://www.w3.org/2000/svg" xmlns:ev="http://www.w3.org/2001/xml-events" xmlns:xlink="http://www.w3.org/1999/xlink">
	<defs/>
	<path d="M114,161c3.32792,-13.31168 5.52814,-54.52814 14,-63c19.34087,-19.34087 86.6134,-21.45358 76,21c-2.58559,10.34236 -8.87596,20.2054 -13,30c-1.87854,4.46153 -4.57024,10.99585 -6,16c-0.41165,1.44078 1.00322,7.33118 0,8c-11.36258,7.57505 -55.38978,-5 -70,-5" fill="none" stroke="black" stroke-linecap="round" stroke-width="5"/>
	<path d="M114,207c15.95726,15.95726 -12.95957,52.14151 -21,24c-5.96983,-20.89441 41.4723,-139.88505 53,-158c8.46189,-13.29725 30.20543,-33.08416 48,-28c17.69789,5.05654 30.30692,31.8415 33,48c6.89455,41.36733 -17.18322,71.46576 -22,110c-4.49519,35.96155 12.10531,71.22367 -31,82c-6.13864,1.53466 -5.89876,-5.59503 -7,-10c-6.1937,-24.77481 0.04094,-43.60236 9,-66c3.04502,-7.61255 8,-15.08509 8,-24c0,-0.33333 0.2357,-1.2357 0,-1c-0.52705,0.52705 -0.61652,1.36086 -1,2c-0.61835,1.03058 -1.52657,1.89533 -2,3c-3.85493,8.99483 -2,20.39852 -2,30c0,2.03662 -4.60478,11.39522 -5,11c-7.98221,-7.98221 3.91851,-31.16298 -1,-41c-1.37613,-2.75226 -21.87982,-4.63292 -25,-5c-22.68116,-2.66837 -34.22136,-5.2552 -47,13c-4.17431,5.96331 -10.17625,11.70499 -12,19c-1.10749,4.42997 3.04597,5.15373 6,7c10.8057,6.75356 98.31379,29.37242 105,16c2.6999,-5.39981 -5.2695,-19.04456 -7,-23c-2.75668,-6.30097 -9.20552,-32.10276 -15,-35c-7.80535,-3.90267 -26.05381,-4.66621 -35,-7c-5.86078,-1.5289 -17.63904,-7.36096 -23,-2" fill="none" stroke="black" stroke-linecap="round" stroke-width="5"/>
	<path d="M104,225c3.67116,0 3.60699,1.67693 4,6c1.10832,12.19153 -12.90042,47.84993 6,51c31.21981,5.2033 21,-46.87211 21,-59" fill="none" stroke="black" stroke-linecap="round" stroke-width="5"/>
</svg>
