<?xml version="1.0" ?>
<svg baseProfile="full" height="300" version="1.1" viewBox="[0, 0, 300, 300]" width="300" xmlns="http://www.w3.org/2000/svg" xmlns:ev="http://www.w3.org/2001/xml-events" xmlns:xlink="http://www.w3.org/1999/xlink">
	<defs/>
	<path d="M106,82c0,6.45 0.67605,30.67605 6,36c1.37437,1.37437 3.17337,-2.33577 5,-3c5.21666,-1.89697 13.3823,-3.33909 19,-4c22.83979,-2.68703 46.11042,-2.63497 69,-1c9.23637,0.65974 21.84872,8.29487 30,12c3.19268,1.45122 6.89124,2.44562 10,4c2,1 5.45767,5.1693 6,3c1.51683,-6.06731 -0.68514,-13.83374 0,-20c1.24408,-11.19668 13.15094,-33.84906 3,-44c-3.89185,-3.89185 -71.17728,1 -82,1c-21.99667,0 -43.97066,-1 -66,-1c-2.68742,0 -8,-1.68742 -8,1c0,2.67452 11.95541,16.91081 14,21" fill="none" stroke="black" stroke-linecap="round" stroke-width="5"/>
	<path d="M123,118c-3.42579,-3.42579 1.03504,-0.27221 2,6c1.52739,9.92802 1,19.97198 1,30c0,2.22589 0,12.98606 0,10" fill="none" stroke="black" stroke-linecap="round" stroke-width="5"/>
	<path d="M159,111c0,10.47286 -1.15664,21.59022 0,32c0.55704,5.0134 2,20.04425 2,15" fill="none" stroke="black" stroke-linecap="round" stroke-width="5"/>
	<path d="M206,116c6.92719,6.92719 2,33.79967 2,44" fill="none" stroke="black" stroke-linecap="round" stroke-width="5"/>
	<path d="M242,129c2.2835,6.8505 4.68825,28.43725 -3,31" fill="none" stroke="black" stroke-linecap="round" stroke-width="5"/>
	<path d="M104,170c21.71132,-4.82474 45.77914,-8.01241 68,-9c6.35419,-0.28241 64.10894,-2.89106 70,3c4.64583,4.64583 -3.52982,25.35785 -4,31c-1.15688,13.88251 4.48752,30.30749 -10,39c-14.43717,8.6623 -126.97277,18.04084 -141,-3c-3.05123,-4.57684 6.82921,-20.60954 8,-25c2.37276,-8.89785 0.05155,-26.05155 7,-33" fill="none" stroke="black" stroke-linecap="round" stroke-width="5"/>
	<path d="M105,245c11.40661,0 5.09405,29.22649 -6,32c-0.06804,0.01701 12.33287,-11.33426 16,-4c3.04122,6.08245 -13.59153,12.22542 -16,5c-3.3358,-10.00741 18.7915,-0.52766 12,4c-2.22752,1.48501 -8.58518,1.80494 -11,1c-2.40832,-0.80277 7,0.46141 7,3c0,4.02893 -10.18554,4 -2,4" fill="none" stroke="black" stroke-linecap="round" stroke-width="5"/>
	<path d="M221,234c0,6.2733 5.40847,42.29576 2,44c-1.25088,0.62544 -5.58203,-18 5,-18c7.10481,0 -11,10 -11,10c0,0 3.31741,-0.75963 5,-1c8.9587,-1.27981 6.38825,5.40294 0,7c-0.32338,0.08085 -1.33333,0 -1,0c4.30691,0 14.8586,13 6,13" fill="none" stroke="black" stroke-linecap="round" stroke-width="5"/>
</svg>
