<?xml version="1.0" ?>
<svg baseProfile="full" height="300" version="1.1" viewBox="[0, 0, 300, 300]" width="300" xmlns="http://www.w3.org/2000/svg" xmlns:ev="http://www.w3.org/2001/xml-events" xmlns:xlink="http://www.w3.org/1999/xlink">
	<defs/>
	<path d="M117,146c0,-18.42191 -3.34456,-69.65544 10,-83c15.97785,-15.97785 51.54792,-2.58449 67,6c8.47942,4.71079 19.49463,24.98925 24,34c6.94784,13.89568 15.91829,32.03374 20,47c2.22241,8.14885 1.38273,19.76546 5,27c0.86752,1.73503 -0.87834,8 3,8c1.52633,0 -11.2817,-7.57043 -13,-8c-11.41509,-2.85377 -24.16994,-2.21133 -36,-3c-23.77227,-1.58482 -47.2732,0 -71,0c-0.64249,0 -7.46714,0.53286 -8,0c-4.06533,-4.06533 -2,-21.39987 -2,-28" fill="none" stroke="black" stroke-linecap="round" stroke-width="5"/>
	<path d="M79,132c11.30185,0 28.82457,-7.78362 39,-1c24.89241,16.59494 20,92.6353 20,122" fill="none" stroke="black" stroke-linecap="round" stroke-width="5"/>
	<path d="M110,161c0,24.34357 -5,48.38144 -5,73c0,1.83457 -1.35728,7 1,7" fill="none" stroke="black" stroke-linecap="round" stroke-width="5"/>
	<path d="M197,142c5.7216,0 23.52444,-12.47556 29,-7c8.55997,8.55997 22.59778,19.39483 28,32c9.64318,22.50075 3,59.07036 3,84" fill="none" stroke="black" stroke-linecap="round" stroke-width="5"/>
	<path d="M241,168c0,4.18257 -4.67644,7.90192 -7,11c-21.809,29.07867 -69.90027,17.91105 -101,11c-8.61837,-1.91519 -33.34236,-2.36943 -36,-13c-1.4258,-5.70319 16.84777,-3.34602 21,-3c29.78876,2.4824 57.90126,5 88,5c0.78859,0 32,1.33735 32,-1" fill="none" stroke="black" stroke-linecap="round" stroke-width="5"/>
</svg>
