<?xml version="1.0" ?>
<svg baseProfile="full" height="300" version="1.1" viewBox="[0, 0, 300, 300]" width="300" xmlns="http://www.w3.org/2000/svg" xmlns:ev="http://www.w3.org/2001/xml-events" xmlns:xlink="http://www.w3.org/1999/xlink">
	<defs/>
	<path d="M67,198c0,-18.1165 -6.5574,-90.4426 5,-102c2.96057,-2.96057 6.41222,9.23666 7,11c0.56765,1.70294 1.19723,6.60555 2,5c0.4714,-0.94281 0.41529,-2.12294 1,-3c5.48132,-8.22198 8.2495,-30.2495 14,-36c0.97782,-0.97782 -2.07364,-4.37033 2,-4c9.44204,0.85837 18.58396,3.89223 28,5c20.71806,2.43742 40.27228,5 61,5c5.57474,0 26.69331,-5.30669 30,-2c5.26376,5.26376 -4.57669,26.42331 1,32c0.5711,0.5711 14.70682,-17 17,-17c0.42366,0 6.96534,-0.17328 7,0c6.00787,30.03937 -1,65.41396 -1,96c0,2.3943 0.41864,25.96194 0,26c-40.9192,3.71993 -76.78799,-5.46467 -116,-12c-18.03849,-3.00641 -38.80469,-9 -57,-9c-3.44707,0 -7,-1.48705 -7,2" fill="none" stroke="black" stroke-linecap="round" stroke-width="5"/>
</svg>
