<?xml version="1.0" ?>
<svg baseProfile="full" height="300" version="1.1" viewBox="[0, 0, 300, 300]" width="300" xmlns="http://www.w3.org/2000/svg" xmlns:ev="http://www.w3.org/2001/xml-events" xmlns:xlink="http://www.w3.org/1999/xlink">
	<defs/>
	<path d="M80,25c32.72236,16.36118 78.23809,4 113,4c12,0 24,0 36,0c0.33333,0 0.85093,-0.29814 1,0c1.53725,3.0745 8,56.49784 8,68c0,1.33333 1.19257,3.40372 0,4c-0.66667,0.33333 -1.30795,-0.72318 -2,-1c-12.84159,-5.13664 -24.30253,-7.28782 -38,-9c-40.31237,-5.03905 -89.73104,1.56724 -128,-8c-2.04524,-0.51131 -1.54267,-3.94202 -2,-6c-0.36871,-1.6592 -0.85885,-3.3062 -1,-5c-1.07587,-12.91039 2.03762,-30.88713 -2,-43c-0.31623,-0.94868 -0.70711,-2.29289 0,-3c2.22799,-2.22799 16.14379,2 20,2" fill="none" stroke="black" stroke-linecap="round" stroke-width="5"/>
	<path d="M91,92c2.92208,20.45455 3,40.3814 3,61c0,7.66667 0,30.66667 0,23" fill="none" stroke="black" stroke-linecap="round" stroke-width="5"/>
	<path d="M126,89c5.75423,0 1.80597,11.37102 3,17c1.35894,6.40642 3.65085,12.59152 5,19c3.6771,17.46622 2.33982,18.3739 5,35c0.30606,1.91289 2.52139,18.47861 4,17" fill="none" stroke="black" stroke-linecap="round" stroke-width="5"/>
	<path d="M166,101c0,-2.68742 0.82698,5.31816 1,8c0.53695,8.32269 0.79665,16.66248 1,25c0.4285,17.56859 2,35.61695 2,53" fill="none" stroke="black" stroke-linecap="round" stroke-width="5"/>
	<path d="M217,93c7.56794,-7.56794 7.61022,85.34812 8,91c0.79703,11.557 1.4653,19 1,19c-30.15228,0 -62.19902,-9.29458 -92,-14c-10.14793,-1.6023 -20.83612,0.3915 -31,-2c-3.51574,-0.82723 -39.04837,-8.18954 -40,-7c-1.06178,1.32722 -0.75963,3.31741 -1,5c-0.99502,6.96513 -10.14367,48.14178 -5,55c13.17005,17.56007 49.31841,15.81316 69,18c11.36305,1.26256 131.11632,7.88368 140,-1c5.21422,-5.21422 -10.3761,-48.12537 -16,-50c-7.31219,-2.4374 -17.44753,-1 -25,-1c-7.9812,0 -18.89696,-4.10304 -25,2" fill="none" stroke="black" stroke-linecap="round" stroke-width="5"/>
	<path d="M58,252c4.97546,0 -4,25.70742 -4,29" fill="none" stroke="black" stroke-linecap="round" stroke-width="5"/>
	<path d="M98,256c0,5.25521 -2.26827,27 2,27" fill="none" stroke="black" stroke-linecap="round" stroke-width="5"/>
	<path d="M223,273c0,3.94337 -1.19291,6 3,6" fill="none" stroke="black" stroke-linecap="round" stroke-width="5"/>
	<path d="M257,252c0,12.41944 3,24.80576 3,37" fill="none" stroke="black" stroke-linecap="round" stroke-width="5"/>
</svg>
