<?xml version="1.0" ?>
<svg baseProfile="full" height="300" version="1.1" viewBox="[0, 0, 300, 300]" width="300" xmlns="http://www.w3.org/2000/svg" xmlns:ev="http://www.w3.org/2001/xml-events" xmlns:xlink="http://www.w3.org/1999/xlink">
	<defs/>
	<path d="M67,161c0,-7.6117 1.0685,-83.03425 11,-88c2.95148,-1.47574 58.5554,11 69,11c21.16992,0 52.06126,-7.93874 65,5c0.02679,0.02679 2,33.17854 2,36c0,8.3002 4.07263,32.92737 -1,38c-1.71151,1.71151 -44.60554,-14.44222 -51,-17c-15.27098,-6.10839 -39.30804,-1.91351 -56,-4c-15.66226,-1.95778 -28.73201,4.48801 -40,12c-1.73602,1.15734 -5.78678,1.42644 -4,5c6.34092,12.68183 73.72546,9 88,9c18.44457,0 36.54034,-1 55,-1c1.69863,0 6,0.99505 6,-1" fill="none" stroke="black" stroke-linecap="round" stroke-width="5"/>
	<path d="M194,129c0,9.31989 45.90398,7.08196 55,23c13.26355,23.21121 6,40.26974 6,64" fill="none" stroke="black" stroke-linecap="round" stroke-width="5"/>
	<path d="M55,132c11.71433,0 23.3249,-4.93863 35,-6c9.53066,-0.86642 14.41452,2.60363 24,5c42.03943,10.50986 38,33.43431 38,71" fill="none" stroke="black" stroke-linecap="round" stroke-width="5"/>
</svg>
