<?xml version="1.0" ?>
<svg baseProfile="full" height="300" version="1.1" viewBox="[0, 0, 300, 300]" width="300" xmlns="http://www.w3.org/2000/svg" xmlns:ev="http://www.w3.org/2001/xml-events" xmlns:xlink="http://www.w3.org/1999/xlink">
	<defs/>
	<path d="M98,66c24.78035,-12.39017 63.44337,-14 90,-14c4,0 -3.57771,10.21115 0,12c2.81474,1.40737 8.18118,1.90591 9,6c4.17056,20.85282 -3,44.68878 -3,66c0,1.74825 -0.78914,7 1,7" fill="none" stroke="black" stroke-linecap="round" stroke-width="5"/>
	<path d="M100,68c4.03529,12.10588 6.10714,78.10714 12,84c2.7066,2.7066 40.38526,-6 47,-6c12.06737,0 27.92398,3.07602 36,-5" fill="none" stroke="black" stroke-linecap="round" stroke-width="5"/>
	<path d="M110,152c0,6.50453 11.89776,8.86368 15,13c7.54774,10.06365 11.38628,26.38628 20,35c6.32391,6.32391 29.84664,-2.61555 37,-5c11.1012,-3.7004 22.10333,-0.10333 31,-9c0.73136,-0.73136 -12.88693,-23.93216 -13,-24c-0.80845,-0.48507 -1.70186,-1.10557 -2,-2c-1.56884,-4.70652 -0.09336,-24 -6,-24" fill="none" stroke="black" stroke-linecap="round" stroke-width="5"/>
	<path d="M139,196c0,5.71782 -4.46499,52.53501 -4,53c1.87171,1.87171 3.69448,-3.08343 4,-4c1.41684,-4.25052 6.02632,-9.02632 9,-12c2.0274,-2.0274 0.47444,-13.84662 1,-17c0.97698,-5.86188 2,-10.72041 2,-17" fill="none" stroke="black" stroke-linecap="round" stroke-width="5"/>
	<path d="M108,159c0,11.02943 -14.59922,59.10117 -10,66c5.20219,7.80329 22,-57.09591 22,-67" fill="none" stroke="black" stroke-linecap="round" stroke-width="5"/>
	<path d="M195,195c3.3714,16.85699 2,31.87324 2,49c0,1.33333 -0.94281,3.05719 0,4c0.84748,0.84748 6.36119,-6.04178 7,-7c3.1765,-4.76476 10.8383,-5.19152 12,-11c2.72138,-13.60692 -7,-23.55478 -7,-35" fill="none" stroke="black" stroke-linecap="round" stroke-width="5"/>
	<path d="M106,122c12.6418,0 5.1018,11.52545 15,14c17.99916,4.49979 71,-16.04832 71,-35" fill="none" stroke="black" stroke-linecap="round" stroke-width="5"/>
</svg>
