<?xml version="1.0" ?>
<svg baseProfile="full" height="300" version="1.1" viewBox="[0, 0, 300, 300]" width="300" xmlns="http://www.w3.org/2000/svg" xmlns:ev="http://www.w3.org/2001/xml-events" xmlns:xlink="http://www.w3.org/1999/xlink">
	<defs/>
	<path d="M90,79c15.13931,-15.13931 87.08505,-6.08505 91,-10" fill="none" stroke="black" stroke-linecap="round" stroke-width="5"/>
	<path d="M92,80c0,10.78147 7.83973,19.55754 9,30c1.27257,11.45312 -13.03622,88.74094 4,93c8.88049,2.22012 1.87388,-48.87388 7,-54c1.49813,-1.49813 4.17255,1.58627 5,2c22.70713,11.35356 10.09977,50 24,50c1,0 2.29289,0.70711 3,0c6.00617,-6.00617 4,-24.28468 4,-32c0,-1.74406 -2.62509,-18.37491 -3,-18c-3.08406,3.08406 18.14178,6.96456 22,6c3.79833,-0.94958 33.79959,-19.20041 38,-15c4.74784,4.74784 -10.70063,64.85032 15,52c9.47428,-4.73714 16.04194,-46.47903 3,-53c-6.69783,-3.34892 -5.38436,-13.19218 -11,-16c-13.97105,-6.98553 -25.73037,-8.73037 -37,-20c-0.70711,-0.70711 0,2 0,3c0,6.27641 -23.62549,10.65637 -29,12c-2.91679,0.7292 -21.79079,0.79079 -24,3c-0.96213,0.96213 1.84099,4.68197 2,5c0.16978,0.33956 25,11.78266 25,25" fill="none" stroke="black" stroke-linecap="round" stroke-width="5"/>
	<path d="M187,153c0,5.66667 0,11.33333 0,17c0,4.71046 -2.39354,12.78708 1,6c3.74861,-7.49723 3,-29.01238 3,-38" fill="none" stroke="black" stroke-linecap="round" stroke-width="5"/>
	<path d="M173,71c0,14.70313 8,27.13169 8,42" fill="none" stroke="black" stroke-linecap="round" stroke-width="5"/>
	<path d="M102,106c17.22098,-8.61049 54.93389,-10 73,-10" fill="none" stroke="black" stroke-linecap="round" stroke-width="5"/>
</svg>
