<?xml version="1.0" ?>
<svg baseProfile="full" height="300" version="1.1" viewBox="[0, 0, 300, 300]" width="300" xmlns="http://www.w3.org/2000/svg" xmlns:ev="http://www.w3.org/2001/xml-events" xmlns:xlink="http://www.w3.org/1999/xlink">
	<defs/>
	<path d="M86,47c6.15985,0 78.64754,-5.32377 80,-6c3.92908,-1.96454 25.37126,-15.31437 30,-13c4.60682,2.30341 2.87433,21.93449 4,27c4.2652,19.19342 9,34.38142 9,55c0,2.69699 -1.22927,9.54146 0,12c1.15381,2.30762 4,6.36679 4,10" fill="none" stroke="black" stroke-linecap="round" stroke-width="5"/>
	<path d="M86,47c0,10.17771 7.23297,102.23297 12,107c3.81195,3.81195 24.03385,-1.75846 29,-3c13.02798,-3.257 54.273,-4.1365 64,-9c4.48217,-2.24109 8.30032,-6.65016 13,-9c2.78579,-1.39289 6.45237,1.54763 9,-1" fill="none" stroke="black" stroke-linecap="round" stroke-width="5"/>
	<path d="M97,154c0,10.85621 0.57204,71.71469 7,76c1.82158,1.21439 4.80142,-1.20095 6,-2c13.03678,-8.69118 -6.00889,-63.00445 20,-50c7.40114,3.70057 0.88814,50.33221 8,61c0.87201,1.30802 3.38275,3.21293 5,2c13.27,-9.9525 5,-44.82269 5,-59c0,-0.85676 -0.35202,-5.88266 0,-6c14.71002,-4.90334 31.6825,-2.2275 46,-7c4.00397,-1.33466 6.00184,2 9,2c1.3941,0 9.21646,-3.78354 11,-2c10.69061,10.69061 -3.77291,43.22709 9,56c0.78318,0.78318 2.12428,8.87572 5,6c3.59973,-3.59973 1.34717,-11.4302 2,-16c1.51709,-10.61963 8.81096,-23.56711 5,-35c-6.53142,-19.59427 -13.02398,-18.04797 -17,-26c-1.93799,-3.87598 -6.0528,-9.26401 -7,-14c-0.37437,-1.87183 -0.18377,-9 -2,-9" fill="none" stroke="black" stroke-linecap="round" stroke-width="5"/>
	<path d="M191,171c0,12.64457 -5.30643,34.15322 7,28c10.98315,-5.49157 8,-18.0131 8,-29" fill="none" stroke="black" stroke-linecap="round" stroke-width="5"/>
	<path d="M95,123c23.28024,-7.76008 50.87287,1.91163 74,-8c8.48855,-3.63795 20.63862,-12 30,-12" fill="none" stroke="black" stroke-linecap="round" stroke-width="5"/>
</svg>
