<?xml version="1.0" ?>
<svg baseProfile="full" height="300" version="1.1" viewBox="[0, 0, 300, 300]" width="300" xmlns="http://www.w3.org/2000/svg" xmlns:ev="http://www.w3.org/2001/xml-events" xmlns:xlink="http://www.w3.org/1999/xlink">
	<defs/>
	<path d="M104,66c6.77899,-3.3895 15.90388,-8.98627 23,-10c2.47477,-0.35354 76.28079,0.28079 77,1c8.83673,8.83673 13.96827,49.93654 21,64c8.81686,17.63372 29,33.78092 29,54" fill="none" stroke="black" stroke-linecap="round" stroke-width="5"/>
	<path d="M99,62c8.65269,8.65269 31.50484,24.2621 37,38c5.12582,12.81455 4.79804,23.78826 7,37c4.18436,25.10614 19.41364,48.24093 27,71" fill="none" stroke="black" stroke-linecap="round" stroke-width="5"/>
	<path d="M102,66c0,29.77145 2.49998,84.75005 -8,111c-1.57201,3.93002 3.08794,32 -2,32" fill="none" stroke="black" stroke-linecap="round" stroke-width="5"/>
	<path d="M102,135c5.91128,2.95564 5.30264,11.20176 11,15c12.14379,8.09586 28.24658,5.86986 37,19c0.96373,1.44559 4.31345,2.28109 6,2c16.86687,-2.81114 36.9961,-6.49708 51,-17c3.47739,-2.60804 4.06571,-5.35524 9,-7c7.94075,-2.64692 10.0922,0.9078 17,-6c0.2357,-0.2357 0.89459,0.31623 1,0c1.65142,-4.95427 -6.42401,-14.27202 -8,-19c-3.60329,-10.80988 -9.33577,-22.16789 -19,-27c-4.18916,-2.09458 -21.02287,11.51144 -26,14c-19.09514,9.54757 -48.9233,20 -70,20" fill="none" stroke="black" stroke-linecap="round" stroke-width="5"/>
	<path d="M180,60c20.74693,0 22,26.5398 22,41" fill="none" stroke="black" stroke-linecap="round" stroke-width="5"/>
</svg>
