<?xml version="1.0" ?>
<svg baseProfile="full" height="300" version="1.1" viewBox="[0, 0, 300, 300]" width="300" xmlns="http://www.w3.org/2000/svg" xmlns:ev="http://www.w3.org/2001/xml-events" xmlns:xlink="http://www.w3.org/1999/xlink">
	<defs/>
	<path d="M94,74c12.31076,0 20.46202,-9.6769 34,-9c16.65563,0.83278 22.19961,10.67202 39,10c6.74409,-0.26976 12.73326,-4.4933 19,-7c1.85695,-0.74278 5.36754,-1.89737 6,0c1.1595,3.47851 0,7.33333 0,11c0,20.84091 7,43.79487 7,62" fill="none" stroke="black" stroke-linecap="round" stroke-width="5"/>
	<path d="M92,78c0,8.02909 7.78393,15.24377 10,23c1.68921,5.91224 8.26741,49.26741 11,52c2.3214,2.3214 5.95186,-2.78074 9,-4c15.4123,-6.16492 36.50766,0.35605 53,-2c9.83967,-1.40567 18.92295,-9 29,-9" fill="none" stroke="black" stroke-linecap="round" stroke-width="5"/>
	<path d="M115,155c0,37.36957 19.84371,39.47323 53,30c5.66706,-1.61916 8.77184,-7.25728 14,-9c6.85983,-2.28661 22.6631,-3.6631 28,-9c2.04143,-2.04143 -0.17296,-25.72432 -1,-26c-3.06432,-1.02144 -7.73049,0 -11,0" fill="none" stroke="black" stroke-linecap="round" stroke-width="5"/>
	<path d="M118,186c0,8.7891 -0.31798,52.34101 5,55c2.15662,1.07831 4.54265,-2.93285 5,-4c7.9148,-18.46786 10,-33.10644 10,-54" fill="none" stroke="black" stroke-linecap="round" stroke-width="5"/>
	<path d="M192,178c0,15.63643 2,31.16006 2,47c0,2 -1.78885,5.10557 0,6c14.48861,7.24431 22.17214,-25.54924 23,-33c1.42226,-12.80032 -10,-22.9949 -10,-35" fill="none" stroke="black" stroke-linecap="round" stroke-width="5"/>
	<path d="M109,157c-6.48306,6.48306 -14.11385,15.67077 -19,23c-2.66129,3.99193 -7.47175,40.6855 -4,43c8.10893,5.40595 9.90121,-21.86828 13,-26c6.1049,-8.13987 2.04388,-12.08775 6,-20c2.27611,-4.55222 9,-7.728 9,-13" fill="none" stroke="black" stroke-linecap="round" stroke-width="5"/>
</svg>
