<?xml version="1.0" ?>
<svg baseProfile="full" height="300" version="1.1" viewBox="[0, 0, 300, 300]" width="300" xmlns="http://www.w3.org/2000/svg" xmlns:ev="http://www.w3.org/2001/xml-events" xmlns:xlink="http://www.w3.org/1999/xlink">
	<defs/>
	<path d="M104,163c0,-30.86266 -0.3763,-99.66919 45,-97c11.27,0.66294 21.62806,1.75204 31,8c20.63533,13.75689 31.6406,75.2396 11,89c-7.51706,5.01138 -24.01867,2 -33,2c-7.23284,0 -50,-5.78444 -50,-13" fill="none" stroke="black" stroke-linecap="round" stroke-width="5"/>
	<path d="M96,155c0,19.8395 15.53827,37.2321 12,62c-1.77586,12.43102 -12.35862,23.86208 -16,36c-1.44465,4.81552 -1.91399,17.45699 -7,20c-2.43519,1.2176 -6.96852,-3.97551 -7,-4c-7.69731,-5.98679 -12.66681,-49.26655 -3,-57c3.92497,-3.13997 13.41585,-1.73034 18,-2c12.98888,-0.76405 30.08091,-2.91909 40,7c9.30175,9.30175 12.25899,24.31079 22,36c6.45382,7.74458 26.62999,23.12143 38,15c26.85119,-19.17942 5,-94.06707 5,-122" fill="none" stroke="black" stroke-linecap="round" stroke-width="5"/>
	<path d="M112,160c-19.21174,38.42348 4.97615,47.45238 44,51c5.96377,0.54216 18.92457,5.03772 25,2c22.34128,-11.17064 11,-43.63283 11,-60" fill="none" stroke="black" stroke-linecap="round" stroke-width="5"/>
</svg>
