<?xml version="1.0" ?>
<svg baseProfile="full" height="300" version="1.1" viewBox="[0, 0, 300, 300]" width="300" xmlns="http://www.w3.org/2000/svg" xmlns:ev="http://www.w3.org/2001/xml-events" xmlns:xlink="http://www.w3.org/1999/xlink">
	<defs/>
	<path d="M90,51c5.35715,0 11.23189,-3.84638 17,-5c26.242,-5.2484 67.34965,-1 94,-1c0.66667,0 1.5286,-0.4714 2,0c10.74505,10.74505 -20.94586,70.97293 17,52c0.29814,-0.14907 0,-0.66667 0,-1c0,-20.41668 6.65973,-49.34027 -9,-65c-5.04992,-5.04992 -105.43895,-10.28052 -120,-3c-11.16893,5.58447 -13,32.86527 -13,46c0,0.55197 -0.1385,4.96043 0,5c6.48933,1.85409 17.23621,1.8727 24,3c0.6576,0.1096 2,0.66667 2,0c0,-2.92876 -7.00079,-23.00079 -9,-25c-3.43039,-3.43039 4,-6.40467 4,-7" fill="none" stroke="black" stroke-linecap="round" stroke-width="5"/>
	<path d="M103,44c0,10.77591 0,22.04644 0,33c0,6.33333 0,12.66667 0,19c0,7.95602 0.75698,13.54188 2,21c0.68664,4.11983 2.26429,9.13214 6,11c2.45578,1.22789 3.18128,0.27489 4,-3c4.64068,-18.56271 9.81511,-38.92444 6,-58c-1.94026,-9.7013 -8.89981,-14.34972 -14,-22" fill="none" stroke="black" stroke-linecap="round" stroke-width="5"/>
	<path d="M131,42c11.07522,0 6,54.93819 6,65c0,2.33333 -2.21359,6.26214 0,7c26.16595,8.72198 45.60191,-21.59554 36,-44c-3.96715,-9.25669 -22.62102,-12.43152 -29,-22" fill="none" stroke="black" stroke-linecap="round" stroke-width="5"/>
	<path d="M168,45c20.76447,10.38223 -2.19806,69.60388 3,80c1.04691,2.09383 7.88764,1.64794 10,2c3.43648,0.57275 7.56082,2.29279 11,0c19.90215,-13.2681 -20.91552,-59.91552 -32,-71" fill="none" stroke="black" stroke-linecap="round" stroke-width="5"/>
	<path d="M171,44c24.34818,24.34818 -12.37982,79.19712 24,74c3.92228,-0.56033 6.34571,-8.16407 8,-11c4.57442,-7.84187 6.11247,-8.11247 11,-13c1.17851,-1.17851 0,-3.33333 0,-5c0,-8.75884 -9.68068,-49 -20,-49" fill="none" stroke="black" stroke-linecap="round" stroke-width="5"/>
	<path d="M97,113c17.37892,-5.79297 84.07807,-13.3829 99,9c17.10967,25.6645 11.50577,62.21443 7,90c-0.10746,0.66266 -1.68646,19.34323 -3,20c-12.35581,6.1779 -42.43615,-1.62946 -55,-4c-4.70519,-0.88777 -79.24797,-15.15991 -81,-21c-3.25494,-10.8498 -3.44223,-25.8446 -4,-37c-1.60146,-32.02921 1.34733,-38.17366 29,-52c3.76072,-1.88036 14.26049,-11 17,-11" fill="none" stroke="black" stroke-linecap="round" stroke-width="5"/>
	<path d="M51,210c0,9.498 1.39192,25.21616 -3,34" fill="none" stroke="black" stroke-linecap="round" stroke-width="5"/>
	<path d="M85,202c1.98294,0 1.18941,4.48473 1,6c-1.57703,12.61626 -9.15718,24.92257 -13,37c-1.05518,3.31628 -3,13.4801 -3,10" fill="none" stroke="black" stroke-linecap="round" stroke-width="5"/>
	<path d="M192,230c8.49885,8.49885 17.6158,38 31,38" fill="none" stroke="black" stroke-linecap="round" stroke-width="5"/>
	<path d="M214,216c-3.20345,0 6.54519,29 13,29" fill="none" stroke="black" stroke-linecap="round" stroke-width="5"/>
</svg>
