<?xml version="1.0" ?>
<svg baseProfile="full" height="300" version="1.1" viewBox="[0, 0, 300, 300]" width="300" xmlns="http://www.w3.org/2000/svg" xmlns:ev="http://www.w3.org/2001/xml-events" xmlns:xlink="http://www.w3.org/1999/xlink">
	<defs/>
	<path d="M91,106c13.54512,0 48.47207,-6.52793 60,5c3.194,3.194 0.72156,34.43119 1,40c0.11652,2.33042 -0.10135,4.66887 0,7c0.14502,3.33551 3.29905,101.56698 -7,105c-10.29235,3.43078 -47.3799,-43.55024 -42,-57c6.05003,-15.12507 28.54879,-18.61952 42,-24c7.67238,-3.06895 24.36286,-9.87905 33,-7c12.53127,4.17709 1.8488,90.86048 39,76c14.48831,-5.79532 10.59327,-56.25384 9,-69c-5.34728,-42.77826 5.33474,-87.55509 -44,-104c-10.09814,-3.36605 -21.00201,-13 -32,-13" fill="none" stroke="black" stroke-linecap="round" stroke-width="5"/>
	<path d="M89,163c0,-4.85654 25.89496,-4 31,-4c21.30708,0 22.72913,16.90971 38,22c19.54022,6.51341 97.07619,-27.52789 63,-47" fill="none" stroke="black" stroke-linecap="round" stroke-width="5"/>
	<path d="M92,155c0,-17.04519 -21.81957,-89.18043 -9,-102c10.94779,-10.94779 36.63546,1.81773 47,7c10.99581,5.49791 15.04586,15.06552 22,25c15.78448,22.54926 54.27062,41.45103 66,61c1.23669,2.06116 4,3.5963 4,6" fill="none" stroke="black" stroke-linecap="round" stroke-width="5"/>
</svg>
