<?xml version="1.0" ?>
<svg baseProfile="full" height="300" version="1.1" viewBox="[0, 0, 300, 300]" width="300" xmlns="http://www.w3.org/2000/svg" xmlns:ev="http://www.w3.org/2001/xml-events" xmlns:xlink="http://www.w3.org/1999/xlink">
	<defs/>
	<path d="M97,106c9.49859,0 33.27159,-12 52,-12c7.43933,0 51.39315,1.85754 53,4c3.96535,5.28713 1.72049,23.60243 3,30c0.62369,3.11845 6.16989,21.66021 5,24c-1.15252,2.30504 -44.90751,3.61344 -48,4c-12.43313,1.55414 -57.93151,8.53424 -69,3c-2.31206,-1.15603 0.64571,-26.77143 0,-30c-1.35924,-6.79619 -6,-12.10779 -6,-19" fill="none" stroke="black" stroke-linecap="round" stroke-width="5"/>
	<path d="M86,146c0,23.23041 -2.92477,29.05016 18,43c0.29963,0.19975 10.47002,9.05995 12,6c8.4474,-16.89481 -28,-23.40311 -28,-44" fill="none" stroke="black" stroke-linecap="round" stroke-width="5"/>
	<path d="M209,136c0,4.11936 34.51166,24.97669 24,46c-2.16017,4.32034 -5.10803,4 -11,4c-22.10621,0 -16.72899,-28.08404 -13,-43c0.34442,-1.37766 0,-3.6295 0,-5" fill="none" stroke="black" stroke-linecap="round" stroke-width="5"/>
	<path d="M90,163c-8.06283,12.09424 -16.0138,29.0322 -22,43c-2.30497,5.37827 -9.29053,67.70947 -6,71c6.86478,6.86478 13.61937,-12.57433 14,-16c1.61487,-14.53383 5.33789,-71.33789 13,-79" fill="none" stroke="black" stroke-linecap="round" stroke-width="5"/>
	<path d="M198,148c0,10.49873 -37.52572,96 -12,96c3.16228,0 2.13126,-5.95939 3,-9c2.31674,-8.10859 5.97924,-17.91695 8,-26c4.68042,-18.72169 -2.63289,-36.73423 6,-54c0.77348,-1.54696 1.91687,-5 4,-5" fill="none" stroke="black" stroke-linecap="round" stroke-width="5"/>
	<path d="M90,221c-6.88797,0 13.97446,10.87229 15,16c1.42748,7.13739 -2.61972,28.19014 5,32c16.09033,8.04517 105.83248,-29.99489 108,-43c0.76803,-4.60816 -1.94367,-8.23007 -4,-12c-1.39513,-2.55775 -7.53845,-14.26923 -11,-16c-5.63143,-2.81572 -19.33095,3.66905 -24,-1c-2.78161,-2.78161 -3.71259,-8.3563 -7,-10c-8.53139,-4.26569 -38.00328,7.42904 -49,9c-15.51806,2.21687 -48.02862,2.94276 -37,25" fill="none" stroke="black" stroke-linecap="round" stroke-width="5"/>
	<path d="M199,164c0,32.01993 9,64.46626 9,97c0,6.274 -2.75126,1.49748 -4,-1" fill="none" stroke="black" stroke-linecap="round" stroke-width="5"/>
	<path d="M181,186c0,6.29367 -5.70726,12.95597 -8,18c-11.15839,24.54845 -23,52.50383 -23,80" fill="none" stroke="black" stroke-linecap="round" stroke-width="5"/>
</svg>
