<?xml version="1.0" ?>
<svg baseProfile="full" height="300" version="1.1" viewBox="[0, 0, 300, 300]" width="300" xmlns="http://www.w3.org/2000/svg" xmlns:ev="http://www.w3.org/2001/xml-events" xmlns:xlink="http://www.w3.org/1999/xlink">
	<defs/>
	<path d="M110,183c2.88668,-31.75353 5.88826,-61.8995 4,-94c-0.16842,-2.86309 -8.29487,-31.70513 -6,-34c2.63792,-2.63792 56.56422,-4.10895 65,-2c11.75909,2.93977 22.89623,9.29874 34,13c9.01898,3.00633 17.85347,-0.57327 27,4c15.39192,7.69596 5,95.08653 5,114c0,3.02813 -3.39282,34 3,34" fill="none" stroke="black" stroke-linecap="round" stroke-width="5"/>
	<path d="M114,132c43.72519,0 48.5131,170.6754 -5,135c-18.82139,-12.54759 -21.27669,-18.44662 -12,-37c3.2355,-6.471 4.58199,-12.37299 9,-19c5.41177,-8.11766 64.4104,-19.1474 77,-16c37.27247,9.31812 16.85697,86.85721 49,74c9.64018,-3.85607 6.08126,-27.43115 5,-35c-4.45211,-31.16476 24.9867,-66.0133 3,-88" fill="none" stroke="black" stroke-linecap="round" stroke-width="5"/>
	<path d="M110,176c10.87378,0 23.58956,-4.41044 32,4c3.21124,3.21124 4.76146,21.58715 6,22c9.50932,3.16977 23.88018,-4.17604 33,-6c14.24067,-2.84813 32.53948,3.73026 46,-3c5.28956,-2.64478 12.51026,-32.74487 4,-37c-7.38105,-3.69052 -13.86165,-11.43083 -23,-16c-2.21082,-1.10541 -2.29547,-1 -4,-1c-8.0449,0 -31.7366,6.7366 -37,12c-0.94281,0.94281 -2.66667,0 -4,0c-14.12498,0 -29.36366,-2 -44,-2" fill="none" stroke="black" stroke-linecap="round" stroke-width="5"/>
</svg>
