<?xml version="1.0" ?>
<svg baseProfile="full" height="300" version="1.1" viewBox="[0, 0, 300, 300]" width="300" xmlns="http://www.w3.org/2000/svg" xmlns:ev="http://www.w3.org/2001/xml-events" xmlns:xlink="http://www.w3.org/1999/xlink">
	<defs/>
	<path d="M72,37c-0.68903,3.44517 -6.14417,100.85583 0,107c3.40766,3.40766 84.1623,-3.1885 86,6c4.7328,23.66401 1,51.98669 1,76c0,9.20966 -0.70651,18.81537 0,28c0.01998,0.2597 1.07513,9.07513 1,9c-5.49747,-5.49747 -7.94593,-13.36607 -12,-20" fill="none" stroke="black" stroke-linecap="round" stroke-width="5"/>
	<path d="M72,134c-9.23143,0 -33,64.3977 -33,81" fill="none" stroke="black" stroke-linecap="round" stroke-width="5"/>
	<path d="M158,44c0,15.08774 1,30.70499 1,46c0,2 -1.78885,5.10557 0,6c15.12415,7.56208 34.14109,10.06339 51,11c2.35885,0.13105 5.53488,-1.25582 6,2c3.7927,26.54887 -5,55.29645 -5,82c0,10.12802 -0.77626,20.28311 2,30c1.33333,4.66667 4,18.85341 4,14c0,-3.80058 -1.04462,-7.74103 -3,-11" fill="none" stroke="black" stroke-linecap="round" stroke-width="5"/>
	<path d="M166,94c-4.26191,29.83338 -24.7848,75.25121 -40,101c-5.49114,9.29271 -14.06029,15.12058 -19,25c-1.76504,3.53008 -0.31061,10.31061 -3,13c-1.43372,1.43372 -1,-3.97241 -1,-6" fill="none" stroke="black" stroke-linecap="round" stroke-width="5"/>
	<path d="M145,149c0,12.70441 47.78753,13.48928 53,12c12.58088,-3.59454 25,-37.62781 25,-50" fill="none" stroke="black" stroke-linecap="round" stroke-width="5"/>
	<path d="M70,129c33.59277,0 87.0261,8.88254 97,-36c1.11544,-5.01949 7,-10.42885 7,-15" fill="none" stroke="black" stroke-linecap="round" stroke-width="5"/>
	<path d="M84,101c0,-20.00575 2.57948,-39.11277 4,-59c0.65718,-9.20048 0,-18.76806 0,-28c0,-1.33333 -1.33333,-4 0,-4c9.31629,0 19.83952,3.00859 29,5c6.715,1.45978 15.14087,0.14087 20,5c2.99358,2.99358 -0.26665,27.73358 0,32c0.60956,9.75303 5.88291,16.76582 10,25c1,2 4.86052,4.75965 3,6c-17.98341,11.98894 -50.2302,15 -71,15" fill="none" stroke="black" stroke-linecap="round" stroke-width="5"/>
</svg>
