<?xml version="1.0" ?>
<svg baseProfile="full" height="300" version="1.1" viewBox="[0, 0, 300, 300]" width="300" xmlns="http://www.w3.org/2000/svg" xmlns:ev="http://www.w3.org/2001/xml-events" xmlns:xlink="http://www.w3.org/1999/xlink">
	<defs/>
	<path d="M87,72c4.82682,0 11.62639,5.6566 17,7c24.81673,6.20418 11.02345,28.07034 17,46c1.58465,4.75395 9.99583,-0.73662 15,-1c11.67704,-0.61458 25.67301,-1.16825 37,-4c5.19293,-1.29823 9.88575,-4.72144 15,-6c11.0686,-2.76715 22.45132,0.81711 32,4c1.64587,0.54862 1.55889,-0.11777 2,-1c0.21082,-0.42164 0.88567,-0.54267 1,-1c3.33069,-13.32277 1.27124,-35.91505 -2,-49c-0.24254,-0.97014 0.89443,-2.55279 0,-3c-5.00994,-2.50497 -15.24873,0.43782 -21,-1c-26.16809,-6.54202 -90.35321,-13.64679 -111,7" fill="none" stroke="black" stroke-linecap="round" stroke-width="5"/>
	<path d="M53,132c0,-0.66667 0,-1.33333 0,-2" fill="none" stroke="black" stroke-linecap="round" stroke-width="5"/>
	<path d="M113,102c-21.36187,7.12062 -47.64072,29.74765 -28,55c2.17426,2.79548 15,14.17116 15,18" fill="none" stroke="black" stroke-linecap="round" stroke-width="5"/>
	<path d="M229,84c0,6.21632 15.85994,25.45939 17,38c0.67099,7.38093 -11,27.82349 -11,24" fill="none" stroke="black" stroke-linecap="round" stroke-width="5"/>
	<path d="M115,108c0,40.68605 -16,81.55647 -16,122" fill="none" stroke="black" stroke-linecap="round" stroke-width="5"/>
	<path d="M116,163c10.44536,10.44536 10.06763,27.13526 16,39c1.4747,2.9494 15.04948,-4.95052 18,-2c0.44489,0.44489 0.89812,7.96604 1,8c13.3043,4.43477 27.08423,-13.05054 37,-19c29.31725,-17.59035 49.90537,-12.28388 37,-51c-4.51685,-13.55054 -8.51315,-13 -22,-13c-10.79609,0 -21.3508,3.22513 -32,5c-14.38584,2.39764 -31.09861,0.3662 -45,5" fill="none" stroke="black" stroke-linecap="round" stroke-width="5"/>
	<path d="M149,196c3.88344,0 -5.04751,12.85691 -6,15c-4.53503,10.20382 -13,23.80691 -13,35" fill="none" stroke="black" stroke-linecap="round" stroke-width="5"/>
	<path d="M220,170c10.37825,13.83767 14.8189,29.10573 21,45c1.50494,3.86985 9,28.169 9,20" fill="none" stroke="black" stroke-linecap="round" stroke-width="5"/>
	<path d="M220,125c18.51121,7.40448 29.02404,23.32006 40,39c4.25537,6.07909 7.8734,10.74681 11,17c0.14907,0.29814 1.33333,0 1,0c-3.83093,0 -5.43358,-2.43358 -8,-5" fill="none" stroke="black" stroke-linecap="round" stroke-width="5"/>
</svg>
