<?xml version="1.0" ?>
<svg baseProfile="full" height="300" version="1.1" viewBox="[0, 0, 300, 300]" width="300" xmlns="http://www.w3.org/2000/svg" xmlns:ev="http://www.w3.org/2001/xml-events" xmlns:xlink="http://www.w3.org/1999/xlink">
	<defs/>
	<path d="M53,61c0,10.97834 -2.06526,76.93474 2,81c4.26803,4.26803 69.43088,-1.14228 82,2c3.88057,0.97014 0,8 0,12c0,9.33333 0,18.66667 0,28c0,23.02346 -0.16319,46.03985 -2,69c-0.69952,8.74401 -1,17.21546 -1,26c0,0.33333 0,1.33333 0,1c0,-1.79505 -1.00428,-3.50642 -2,-5" fill="none" stroke="black" stroke-linecap="round" stroke-width="5"/>
	<path d="M76,148c-11.7014,25.35304 -34.0078,45.24456 -48,70c-3.41305,6.03848 -16,36.75795 -16,27" fill="none" stroke="black" stroke-linecap="round" stroke-width="5"/>
	<path d="M193,53c2.55809,10.23237 -1.95131,43.68763 1,49c7.12557,12.82603 36.38753,11.38753 42,17c3.00643,3.00643 -0.60168,23.88398 -1,28c-1.93524,19.99751 -4.2595,39.848 -3,60c0.13574,2.17182 2,34.93526 2,21" fill="none" stroke="black" stroke-linecap="round" stroke-width="5"/>
	<path d="M207,107c-12.94221,25.88442 -79,88.39064 -79,118" fill="none" stroke="black" stroke-linecap="round" stroke-width="5"/>
	<path d="M138,145c29.99592,0 50.37444,28.89648 76,-1c9.50076,-11.08422 13,-12.25275 13,-26" fill="none" stroke="black" stroke-linecap="round" stroke-width="5"/>
	<path d="M68,129c36.75591,-18.37796 80.75403,-16.25134 119,-29c13.97767,-4.65922 25.47508,-12.59003 39,-18c2.8855,-1.1542 16.57057,-4 13,-4" fill="none" stroke="black" stroke-linecap="round" stroke-width="5"/>
	<path d="M61,49c0,-12.33333 0,-24.66667 0,-37c0,-0.66667 -0.59628,-1.70186 0,-2c3.29309,-1.64655 7.32013,-0.88129 11,-1c2.25638,-0.07279 100.86605,-5.37798 102,-5c3.16228,1.05409 -0.22173,6.67405 0,10c0.45224,6.78363 2.93966,13.2845 4,20c0.25994,1.64627 -0.29814,3.36022 0,5c0.80211,4.41161 15.21332,18.78668 12,22c-3.76676,3.76676 -28.20764,7.86229 -32,9c-4.09938,1.22982 -85.95045,26.03964 -91,22c-7.16774,-5.73419 -9.06818,-18.61359 -10,-27c-1.81267,-16.31402 -0.87941,-21.68088 8,-35" fill="none" stroke="black" stroke-linecap="round" stroke-width="5"/>
</svg>
