<?xml version="1.0" ?>
<svg baseProfile="full" height="300" version="1.1" viewBox="[0, 0, 300, 300]" width="300" xmlns="http://www.w3.org/2000/svg" xmlns:ev="http://www.w3.org/2001/xml-events" xmlns:xlink="http://www.w3.org/1999/xlink">
	<defs/>
	<path d="M79,70c4.75084,0 16.10545,-7.6901 22,-9c33.74975,-7.49994 78.34473,-13.9658 91,24" fill="none" stroke="black" stroke-linecap="round" stroke-width="5"/>
	<path d="M85,69c1.948,0 1.69982,1.49908 2,3c1.74122,8.70608 -0.56174,46.43826 2,49c1.37437,1.37437 3.41839,-1.87028 5,-3c9.38177,-6.70127 37.82495,-11 50,-11c12.85024,0 34.94124,4.47062 46,10c0.39473,0.19737 5.90132,0.19737 6,0c6.10553,-12.21105 -7,-35.96071 -7,-49" fill="none" stroke="black" stroke-linecap="round" stroke-width="5"/>
	<path d="M84,118c22.11655,0 35.17997,6.74018 32,29c-0.56177,3.93237 -0.57586,7.78793 -3,9c-21.96913,10.98456 -31,-40.90834 -31,-52" fill="none" stroke="black" stroke-linecap="round" stroke-width="5"/>
	<path d="M189,112c6.35179,0 12.30897,21.47177 13,27c0.42164,3.3731 -1.04047,11.52023 2,10c2.629,-1.3145 3.01028,-7.51285 5,-10c12.16463,-15.20578 1.7125,-22.2875 -14,-38" fill="none" stroke="black" stroke-linecap="round" stroke-width="5"/>
	<path d="M78,117c10.49705,0 -0.69699,30.78794 -2,36c-5.42679,21.70717 -8.78995,44.26482 -15,66c-1.51577,5.30521 -5,15.69083 -5,21c0,3.1002 -2,4.68143 -2,7c0,1.33333 0,5.33333 0,4c0,-4.13774 1.19275,-8.09637 5,-10" fill="none" stroke="black" stroke-linecap="round" stroke-width="5"/>
	<path d="M77,169c29.08459,0 29.99762,14.99523 40,35c0.97426,1.94852 -0.31414,7.68586 1,9c0.4714,0.4714 1.33333,0 2,0c8.95775,0 92.80585,-5.80585 97,-10c12.81514,-12.81514 -22.69546,-32.0432 -26,-37c-11.67415,-17.51123 -10,-36.95258 -10,-57" fill="none" stroke="black" stroke-linecap="round" stroke-width="5"/>
	<path d="M120,201c3.19319,0 2.2775,5.05751 2,7c-1.99783,13.9848 -15.96913,29.58435 -21,43c-1.65265,4.40706 -5.14053,40.70264 -2,25" fill="none" stroke="black" stroke-linecap="round" stroke-width="5"/>
	<path d="M171,147c0,34.52826 -2.85878,48.85878 -26,72" fill="none" stroke="black" stroke-linecap="round" stroke-width="5"/>
	<path d="M210,205c2.17591,0 1.87222,5.84997 2,7c2.02497,18.22471 2.72995,56.81015 -3,74c-0.38006,1.14018 -0.79815,3 -2,3" fill="none" stroke="black" stroke-linecap="round" stroke-width="5"/>
</svg>
