<?xml version="1.0" ?>
<svg baseProfile="full" height="300" version="1.1" viewBox="[0, 0, 300, 300]" width="300" xmlns="http://www.w3.org/2000/svg" xmlns:ev="http://www.w3.org/2001/xml-events" xmlns:xlink="http://www.w3.org/1999/xlink">
	<defs/>
	<path d="M55,59c0,8.56002 5.08562,58.54281 10,61c6.95715,3.47857 20.74328,-3.1937 28,-4c8.88115,-0.98679 99.84327,-2.84327 101,-4c0.94281,-0.94281 0,-2.66667 0,-4c0,-5.51499 -9.08073,-65.08073 -12,-68c-0.64103,-0.64103 -6.48496,0 -7,0c-21.14617,0 -49.31693,-0.59624 -70,4c-14.45776,3.21284 -46.01963,20.98037 -56,11" fill="none" stroke="black" stroke-linecap="round" stroke-width="5"/>
	<path d="M58,98c-14.65501,0 -47.63145,59.47338 -53,72c-0.26385,0.61566 -3.01656,5.98344 -2,7c1.17851,1.17851 3.39746,0.45787 5,0c17.63135,-5.03753 33.89848,-52.44924 55,-63" fill="none" stroke="black" stroke-linecap="round" stroke-width="5"/>
	<path d="M195,102c0,5.95458 -4.95145,28.02428 -1,30c0.57517,0.28758 7.66577,6.66845 8,6c4.97512,-9.95025 3.61094,-31.38906 -4,-39" fill="none" stroke="black" stroke-linecap="round" stroke-width="5"/>
</svg>
