<?xml version="1.0" ?>
<svg baseProfile="full" height="300" version="1.1" viewBox="[0, 0, 300, 300]" width="300" xmlns="http://www.w3.org/2000/svg" xmlns:ev="http://www.w3.org/2001/xml-events" xmlns:xlink="http://www.w3.org/1999/xlink">
	<defs/>
	<path d="M59,65c0,11.61825 -4.84937,49.30126 0,59c2.37437,4.74874 46.46409,0.26495 49,0c31.21379,-3.26114 44.97747,-5.765 74,-7c18.46937,-0.78593 38.56746,-1.41789 57,0c2.22413,0.17109 27.33821,7.97072 28,4c1.89386,-11.36314 -2.41544,-23.60478 -6,-34c-3.84589,-11.15309 -9.12143,-37.12143 -17,-45c-5.96815,-5.96815 -63.18014,10.30003 -71,12c-23.44772,5.09733 -47.34769,3.18059 -71,5c-10.92916,0.8407 -21.96983,5.65661 -32,9c-6.35567,2.11856 -11.85461,-2 -16,-2" fill="none" stroke="black" stroke-linecap="round" stroke-width="5"/>
	<path d="M47,75c0,14.04997 -1.28456,29.29265 1,43c0.49307,2.95841 3.98515,23 3,23" fill="none" stroke="black" stroke-linecap="round" stroke-width="5"/>
	<path d="M263,64c0,12.67334 -1.56727,26.46187 0,39c1.42643,11.41143 8,22.65425 8,34" fill="none" stroke="black" stroke-linecap="round" stroke-width="5"/>
</svg>
