<?xml version="1.0" ?>
<svg baseProfile="full" height="300" version="1.1" viewBox="[0, 0, 300, 300]" width="300" xmlns="http://www.w3.org/2000/svg" xmlns:ev="http://www.w3.org/2001/xml-events" xmlns:xlink="http://www.w3.org/1999/xlink">
	<defs/>
	<path d="M87,252c0,-19.40455 -16,-41.55871 -16,-58c0,-3.17648 8.35595,-4.53027 10,-5c23.65122,-6.75749 50.52955,-0.69409 74,4c13.81357,2.76271 26.8453,3 41,3c2.66667,0 6.11438,-1.88562 8,0c0.70711,0.70711 -0.1644,2.01361 0,3c2.31704,13.90226 7.47489,30.42466 12,44c0.90062,2.70185 3,8 3,8c0,0 0,-2.8 0,-3c0,-9.31397 0.03157,-17.85794 -2,-27c-7.28582,-32.78617 -5,-61.98565 -5,-93" fill="none" stroke="black" stroke-linecap="round" stroke-width="5"/>
	<path d="M84,247c0,-16.31404 2.89197,-35.09414 0,-51c-5.45962,-30.02791 -12,-54.35019 -12,-85" fill="none" stroke="black" stroke-linecap="round" stroke-width="5"/>
	<path d="M64,127c0,-11.76005 -2.80411,-26.78356 0,-38c9.45397,-37.8159 64.78577,-51 98,-51c15.66667,0 31.33333,0 47,0c1.35996,0 3.23073,-0.53854 4,1c5.30416,10.60832 5.41906,23.38128 6,35c0.90523,18.10458 3,35.92447 3,54c0,0.07708 0.23107,4.88447 0,5c-7.0141,3.50705 -23.44537,-0.35974 -31,0c-33.54951,1.5976 -67.02653,1.60926 -100,-6c-9.28441,-2.14256 -24.10689,-8 -33,-8" fill="none" stroke="black" stroke-linecap="round" stroke-width="5"/>
	<path d="M225,139c0,1 0,2 0,3c0,7.23606 -3.08289,15 6,15c1.66667,0 4.25464,1.49071 5,0c5.82082,-11.64164 -7,-26.12048 -7,-35" fill="none" stroke="black" stroke-linecap="round" stroke-width="5"/>
	<path d="M62,110c0,-5 0,10 0,15c0,9.05 -3.3091,28.65455 -12,33c-6.82451,3.41225 3.48066,-22.72099 5,-25" fill="none" stroke="black" stroke-linecap="round" stroke-width="5"/>
</svg>
