<?xml version="1.0" ?>
<svg baseProfile="full" height="300" version="1.1" viewBox="[0, 0, 300, 300]" width="300" xmlns="http://www.w3.org/2000/svg" xmlns:ev="http://www.w3.org/2001/xml-events" xmlns:xlink="http://www.w3.org/1999/xlink">
	<defs/>
	<path d="M77,104c0,-7.5897 -4.29382,-67.42371 0,-70c36.16882,-21.70129 75.82937,-13.90589 114,-3c6.87511,1.96432 32.98556,0.94226 35,9c2.6497,10.59881 3,20.58882 3,32c0,5.78911 7.34938,35.65062 2,41c-9.71631,9.71631 -80.17695,-13.86282 -93,-16c-28.6459,-4.77432 -29.55153,-0.61212 -56,6c-1.38744,0.34686 -6,-0.48504 -6,1c0,15.89099 39.21543,68.14362 51,76c8.30199,5.53466 37.4471,11 36,11" fill="none" stroke="black" stroke-linecap="round" stroke-width="5"/>
	<path d="M229,109c0.74536,0 1,1.25464 1,2c0,11.29163 -3.14735,27.7053 2,38c7.07342,14.14683 20.18988,25.75954 24,41c0.08147,0.32587 2.32004,4.83998 2,5c-9.2152,4.6076 -74.66338,-0.61056 -89,-3c-8.31389,-1.38565 -18.40947,-8 -26,-8" fill="none" stroke="black" stroke-linecap="round" stroke-width="5"/>
	<path d="M109,255c0,-19.47718 -1.78547,-40.71283 -5,-60c-0.03886,-0.23315 -0.32898,-4.67102 0,-5c13.99429,-13.99429 101.62876,-13.82852 123,-8c27.79095,7.57935 17.72995,27.55482 25,53c2.10397,7.3639 5.14409,14.57636 7,22c0.20052,0.80206 1,4.21245 1,2" fill="none" stroke="black" stroke-linecap="round" stroke-width="5"/>
</svg>
