<?xml version="1.0" ?>
<svg baseProfile="full" height="300" version="1.1" viewBox="[0, 0, 300, 300]" width="300" xmlns="http://www.w3.org/2000/svg" xmlns:ev="http://www.w3.org/2001/xml-events" xmlns:xlink="http://www.w3.org/1999/xlink">
	<defs/>
	<path d="M67,37c0,1.66667 0,3.33333 0,5c0,19.52038 -1.79914,40.00431 2,59c0.08946,0.4473 1,7 1,7c0,0 21.25947,-12.5973 25,-14c23.3799,-8.76746 48.27943,-11 73,-11c12.36761,0 33.76821,3.81457 44,12c3.71125,2.969 5.91937,6.83875 8,11c0.49424,0.98848 4.87688,8.36937 5,8c3.22283,-9.66849 0,-25.81789 0,-36c0,-14.028 1,-28.20455 1,-42c0,-0.35074 0.38257,-4.61743 0,-5c-6.6989,-6.6989 -35.22231,-3 -44,-3c-23.61896,0 -49.56053,-4.3485 -73,-1c-16.39316,2.34188 -35.57614,10 -51,10" fill="none" stroke="black" stroke-linecap="round" stroke-width="5"/>
	<path d="M64,46c-14.34879,0 -25.19324,19.57971 -29,31c-1.22137,3.66411 -1.36991,7.21947 -2,11c-0.33333,2 -2.92354,6.64118 -1,6c8.44829,-2.8161 40.06758,-43 42,-43" fill="none" stroke="black" stroke-linecap="round" stroke-width="5"/>
	<path d="M234,50c2.69803,0 43.58659,43.4311 17,39c-5.70486,-0.95081 -9.16839,-5.16839 -13,-9c-4.30733,-4.30733 -6.15519,-8.02158 -9,-13c-2.59578,-4.54261 -12,-10.69704 -12,-16" fill="none" stroke="black" stroke-linecap="round" stroke-width="5"/>
</svg>
