<?xml version="1.0" ?>
<svg baseProfile="full" height="300" version="1.1" viewBox="[0, 0, 300, 300]" width="300" xmlns="http://www.w3.org/2000/svg" xmlns:ev="http://www.w3.org/2001/xml-events" xmlns:xlink="http://www.w3.org/1999/xlink">
	<defs/>
	<path d="M67,155c0,-22.59517 -17.32099,-83.35801 -9,-100c4.34249,-8.68498 27.94976,-10.53632 36,-12c12.97004,-2.35819 113.13166,-8.86834 123,1c5.92201,5.92201 5.9915,56.92352 7,66c0.41469,3.73221 1.9792,50.0208 1,51c-3.19962,3.19962 -25.39834,0 -30,0c-24.67628,0 -109.37904,-28.62096 -126,-12" fill="none" stroke="black" stroke-linecap="round" stroke-width="5"/>
	<path d="M63,161c0,24.40645 2.42055,35.34811 19,54c5.9214,6.66158 11.77751,12.77751 18,19c1.4625,1.4625 3,3.37451 3,2" fill="none" stroke="black" stroke-linecap="round" stroke-width="5"/>
	<path d="M221,166c0,43.65823 33,44.71909 33,60c0,9.24036 -34.79847,13.34981 -40,14c-32.77683,4.0971 -59.76045,-5.75209 -91,-12c-13.04493,-2.60899 -17.21645,9 -26,9" fill="none" stroke="black" stroke-linecap="round" stroke-width="5"/>
	<path d="M111,299c0,0.61006 -2.75594,-31.16271 0,-33c16.88456,-11.25637 43.48331,-15.43867 63,-17c11.12547,-0.89004 80.0064,-7.9936 88,0c0.4714,0.4714 0,1.33333 0,2c0,12.5184 1.12531,26.37593 5,38c0.35391,1.06174 1.07076,3 2,3" fill="none" stroke="black" stroke-linecap="round" stroke-width="5"/>
</svg>
