<?xml version="1.0" ?>
<svg baseProfile="full" height="300" version="1.1" viewBox="[0, 0, 300, 300]" width="300" xmlns="http://www.w3.org/2000/svg" xmlns:ev="http://www.w3.org/2001/xml-events" xmlns:xlink="http://www.w3.org/1999/xlink">
	<defs/>
	<path d="M202,55c0,1.70575 -1.42009,1 -3,1c-12.5419,0 -25.52777,1.03935 -38,0c-27.81804,-2.31817 -72.17184,-31.2852 -94,-4c-4.88096,6.1012 -8.66285,12.68573 -7,21c4.61255,23.06275 105.59706,0.85481 126,-1c6.86689,-0.62426 37.07629,4.88556 41,-1c7.49032,-11.23547 -31.54084,-16.1662 -40,-21" fill="none" stroke="black" stroke-linecap="round" stroke-width="5"/>
	<path d="M96,86c0,23.41806 -2.85541,48.86751 1,72c1.21952,7.3171 4.04927,14.84732 6,22c0.53031,1.94446 2,9.41011 2,8" fill="none" stroke="black" stroke-linecap="round" stroke-width="5"/>
	<path d="M110,91c0,25.72132 -3,51.73352 -3,77" fill="none" stroke="black" stroke-linecap="round" stroke-width="5"/>
	<path d="M131,86c0,25.43804 5.9925,59.03 0,83" fill="none" stroke="black" stroke-linecap="round" stroke-width="5"/>
	<path d="M160,97c0,18.84367 -2.06139,38.81583 4,57c1.92986,5.78958 12.01348,35 10,35" fill="none" stroke="black" stroke-linecap="round" stroke-width="5"/>
	<path d="M85,178c-1.33333,0 -1.33333,0 0,0c11.66667,0 23.33333,0 35,0c17.95581,0 37.08875,-1.79112 55,0c9.48233,0.94823 15.71879,4.54687 25,3c1.3436,-0.22393 7,-0.01026 7,-2" fill="none" stroke="black" stroke-linecap="round" stroke-width="5"/>
	<path d="M205,179c0,2.89387 -2.16234,17.83766 0,20c4.18279,4.18279 9.86031,8.58093 12,15c1.25224,3.75673 0,10.11166 0,14c0,1.04938 1,6.36081 1,4" fill="none" stroke="black" stroke-linecap="round" stroke-width="5"/>
	<path d="M86,185c0,8.77649 -4.9437,31.88739 -9,40c-1.49707,2.99415 -8,15.31511 -8,14" fill="none" stroke="black" stroke-linecap="round" stroke-width="5"/>
	<path d="M134,63c-4.42629,0 -19.5125,-0.53749 -17,7c3.24801,9.74404 21.22338,-2 18,-2" fill="none" stroke="black" stroke-linecap="round" stroke-width="5"/>
</svg>
