<?xml version="1.0" ?>
<svg baseProfile="full" height="300" version="1.1" viewBox="[0, 0, 300, 300]" width="300" xmlns="http://www.w3.org/2000/svg" xmlns:ev="http://www.w3.org/2001/xml-events" xmlns:xlink="http://www.w3.org/1999/xlink">
	<defs/>
	<path d="M103,249c0,-1.49071 -1.23304,-2.72173 -2,-4c-1.23669,-2.06116 -2.43569,-4.17497 -4,-6c-1.08465,-1.26543 -1.97677,-2.68441 -3,-4c-1.31038,-1.68477 -2.74462,-3.27385 -4,-5c-13.47909,-18.53375 -20.20921,-34.62764 -27,-55c-0.26851,-0.80553 -3.13727,-3.86273 -2,-5c17.02292,-17.02292 85.51672,-24.83891 110,-33c1.07442,-0.35814 1.37708,1.16944 2,2c9.23718,12.31624 15.70365,26.96288 24,40c3.53522,5.55534 6.82729,11.28913 10,17c2.66082,4.78947 4.62419,11.24838 7,16c0.27033,0.54066 2.66298,6.67403 3,6c3.13913,-6.27827 0,-21.10209 0,-28c0,-1.66667 0,-3.33333 0,-5c0,-2.33333 0,-4.66667 0,-7c0,-1.66667 0,-3.33333 0,-5c0,-3 0,-6 0,-9c0,-22.77357 2,-42.47545 2,-64c0,-0.52864 0.61902,-7.38098 0,-8c-4.93469,-4.93469 -80.50358,24.70863 -96,26c-19.30059,1.60838 -41.19928,7 -60,7c-6.31321,0 -24.37471,2.62529 -29,-2c-0.52705,-0.52705 -1.87746,-1.73521 -2,-1c-4.17997,25.07983 -6.85556,50.8445 -10,76c-1.04792,8.3834 0.73023,17.59534 5,24c1.64146,2.46219 4.7494,8.7494 2,6" fill="none" stroke="black" stroke-linecap="round" stroke-width="5"/>
</svg>
