<?xml version="1.0" ?>
<svg baseProfile="full" height="300" version="1.1" viewBox="[0, 0, 300, 300]" width="300" xmlns="http://www.w3.org/2000/svg" xmlns:ev="http://www.w3.org/2001/xml-events" xmlns:xlink="http://www.w3.org/1999/xlink">
	<defs/>
	<path d="M109,146c10.41169,-7.80877 48.55609,-24.11098 61,-21c0.7231,0.18078 1.47295,0.47295 2,1c1.91989,1.91989 20.91116,29.08884 16,34c-5.83923,5.83923 -32.67284,-0.22119 -40,1c-7.46246,1.24374 -24.77808,16.57754 -33,10c-4.36831,-3.49465 -17.14109,-28 -3,-28" fill="none" stroke="black" stroke-linecap="round" stroke-width="5"/>
	<path d="M124,173c0,1 0,2 0,3c0,1 -0.1644,2.01361 0,3c3.87745,23.26468 5.60302,38.59547 -8,59c-1.01,1.51499 -2.90726,6.54637 -6,5c-2.0217,-1.01085 -3,-1.718 -3,-4c0,-21.93635 -6,-44.96417 -6,-67c0,-1.15435 -5.81575,-5.18425 -6,-5c-9.49714,9.49714 -12.38271,55.38271 -16,59c-1.68189,1.68189 -5.47592,-14.42777 -6,-16c-3.7753,-11.3259 -11.05389,-26.92814 -2,-39c14.01771,-18.69029 5.73915,-61.08678 3,-83c-0.43852,-3.50815 -3.83613,-12.4916 -3,-15c3.16274,-9.48821 82.6162,-31.3838 88,-26c14.96944,14.96944 8,46.55348 8,66" fill="none" stroke="black" stroke-linecap="round" stroke-width="5"/>
	<path d="M154,161c10.25925,10.25925 -0.62743,41.37257 9,51c0.97641,0.97641 1.19058,3.40471 4,2c5.72195,-2.86098 9.18742,-26.49934 10,-33c0.53436,-4.27491 0.14303,-7.71515 1,-12c0.05725,-0.28625 0.93001,-5.27996 1,-5c5.69407,22.77626 -1.33435,46.99694 6,69c1.01826,3.05477 2.30669,9.84666 8,7c2.32791,-1.16395 2.78733,-6.40496 3,-8c0.44274,-3.32057 0.52624,-6.68371 1,-10c1.14249,-7.99743 1.00904,-67 -10,-67" fill="none" stroke="black" stroke-linecap="round" stroke-width="5"/>
	<path d="M105,120c9.82499,-9.82499 25.36722,-15.94689 38,-21c2.28254,-0.91302 14,-1.61562 14,-3" fill="none" stroke="black" stroke-linecap="round" stroke-width="5"/>
</svg>
