<?xml version="1.0" ?>
<svg baseProfile="full" height="300" version="1.1" viewBox="[0, 0, 300, 300]" width="300" xmlns="http://www.w3.org/2000/svg" xmlns:ev="http://www.w3.org/2001/xml-events" xmlns:xlink="http://www.w3.org/1999/xlink">
	<defs/>
	<path d="M116,45c0,55.26335 -5.06171,90.57735 105,110c23.65531,4.17447 -1.65264,-48.01699 -3,-72c-0.32004,-5.69676 0.0913,-11.69132 -2,-17c-13.52118,-34.32299 -64.13189,-26 -93,-26" fill="none" stroke="black" stroke-linecap="round" stroke-width="5"/>
	<path d="M126,127c15.83162,31.66324 11.26738,79.14297 21,115c3.14825,11.59883 7.97368,22.67599 12,34c1.30706,3.67611 0.12984,10.50594 4,11c29.76033,3.79919 60.02031,2.15306 90,1c4.9517,-0.19045 12.46374,-0.28879 14,-5c4.23821,-12.99717 0.6204,-27.33454 1,-41c0.91532,-32.95137 -0.46548,-60.7868 -26,-84" fill="none" stroke="black" stroke-linecap="round" stroke-width="5"/>
	<path d="M110,64c0,20.88327 -17.74879,37.81593 -26,57c-21.30377,49.53125 -43.97873,85.28856 -16,136c5.40097,9.78926 4.20359,-21.96492 6,-33c1.24269,-7.63364 3.64774,-22.91819 10,-28c9.03669,-7.22935 2.93877,64.46647 5,68c1.07545,1.84363 3.22409,5.18394 5,4c39.78672,-26.52448 14.58986,-66 76,-66" fill="none" stroke="black" stroke-linecap="round" stroke-width="5"/>
</svg>
