<?xml version="1.0" ?>
<svg baseProfile="full" height="300" version="1.1" viewBox="[0, 0, 300, 300]" width="300" xmlns="http://www.w3.org/2000/svg" xmlns:ev="http://www.w3.org/2001/xml-events" xmlns:xlink="http://www.w3.org/1999/xlink">
	<defs/>
	<path d="M90,55c0,22.63724 11.60741,43.79303 16,66c2.98655,15.09866 1.32524,30.843 4,46c0.23885,1.35346 -0.37132,3.90858 1,4c19.62311,1.30821 39.34121,-0.55638 59,0c15.69227,0.44412 31.31564,2.33258 47,3c3.15587,0.13429 10.09679,-92.76477 -10,-107c-10.15212,-7.19108 -91.66791,-24.92989 -112,-26" fill="none" stroke="black" stroke-linecap="round" stroke-width="5"/>
	<path d="M103,172c-2.5887,20.7096 13.59709,69.98174 23,91c0.99098,2.21514 4.5733,2 7,2c25.67532,0 51.35671,-0.71784 77,-2c7.72196,-0.3861 20.3702,4.27062 23,-3c11.27868,-31.18223 -17,-50.0775 -17,-78" fill="none" stroke="black" stroke-linecap="round" stroke-width="5"/>
	<path d="M97,52c-24.11262,24.11262 -36.82354,17.04213 -41,60c-1.32286,13.60658 -0.95286,27.46947 1,41c8.22382,56.97935 53.24392,124.98047 1,172" fill="none" stroke="black" stroke-linecap="round" stroke-width="5"/>
	<path d="M224,76c39.53445,0 56.8093,66.28082 58,92c0.82872,17.9004 -4.36059,35.69142 -9,53c-4.07079,15.18719 -17.84867,28.29962 -17,44c1.84571,34.14565 34.97074,100.68085 58,127" fill="none" stroke="black" stroke-linecap="round" stroke-width="5"/>
</svg>
