<?xml version="1.0" ?>
<svg baseProfile="full" height="300" version="1.1" viewBox="[0, 0, 300, 300]" width="300" xmlns="http://www.w3.org/2000/svg" xmlns:ev="http://www.w3.org/2001/xml-events" xmlns:xlink="http://www.w3.org/1999/xlink">
	<defs/>
	<path d="M120,87c1.80054,17.28522 2.97791,62.24029 13,65c19.61423,5.40102 40.65722,1.75491 61,2c7.34037,0.08844 19.17657,5.77622 22,-1c44.61621,-107.0789 -73.99281,-79.00131 -129,-69" fill="none" stroke="black" stroke-linecap="round" stroke-width="5"/>
	<path d="M142,164c0,28.14977 9.55861,55.85462 19,82c0.4082,1.13041 0.81157,3.17908 2,3c23.85309,-3.5943 51.93006,0.77249 71,-14c10.80418,-8.36944 0.63992,-27.34832 0,-41c-0.43169,-9.20943 -0.46827,-19.62436 -6,-27" fill="none" stroke="black" stroke-linecap="round" stroke-width="5"/>
	<path d="M109,91c0,56.44266 -48.08938,102.72885 -37,165c1.98786,11.16261 2.71804,29.8718 14,31c9.82241,0.98224 4.75648,-19.20724 6,-29c2.07232,-16.31949 -5.04527,-80.27773 37,-70c40.63785,9.9337 -9.53008,59.36151 -1,75c0.97091,1.78001 4.14717,1.82348 6,1c17.14395,-7.61953 29.01135,-41.10217 31,-59" fill="none" stroke="black" stroke-linecap="round" stroke-width="5"/>
</svg>
