<?xml version="1.0" ?>
<svg baseProfile="full" height="300" version="1.1" viewBox="[0, 0, 300, 300]" width="300" xmlns="http://www.w3.org/2000/svg" xmlns:ev="http://www.w3.org/2001/xml-events" xmlns:xlink="http://www.w3.org/1999/xlink">
	<defs/>
	<path d="M68,52c7,16.66667 16.29502,32.54603 21,50c5.80502,21.53477 3.94703,44.84108 11,66c2.53421,7.60263 -0.75741,20.98882 7,23c15.44082,4.00318 31.17532,-6.99405 47,-9c21.23556,-2.69183 38.4497,0.14793 59,-7c3.58964,-1.24857 11,0.80058 11,-3c0,-22.96132 -6.45088,-45.49383 -11,-68c-4.66648,-23.08682 -4.63299,-25.40999 -21,-38c-33.64059,-25.87738 -75.51937,-16 -116,-16" fill="none" stroke="black" stroke-linecap="round" stroke-width="5"/>
	<path d="M109,195c1.79561,62.8465 -0.68673,69.14163 70,66c12.10324,-0.53792 25.88175,1.66324 36,-5c9.22252,-6.07337 6.22634,-59.34976 5,-71" fill="none" stroke="black" stroke-linecap="round" stroke-width="5"/>
	<path d="M198,68c7.72299,0 10.02291,-0.15525 20,10c59.67216,60.73773 46.25451,92.65103 60,172c1.35665,7.83155 10.8653,56.93265 25,64" fill="none" stroke="black" stroke-linecap="round" stroke-width="5"/>
	<path d="M65,67c58.36416,70.037 28.41678,180.17303 7,256c-6.40404,22.67376 -13.34,47.34 -30,64" fill="none" stroke="black" stroke-linecap="round" stroke-width="5"/>
</svg>
