<?xml version="1.0" ?>
<svg baseProfile="full" height="300" version="1.1" viewBox="[0, 0, 300, 300]" width="300" xmlns="http://www.w3.org/2000/svg" xmlns:ev="http://www.w3.org/2001/xml-events" xmlns:xlink="http://www.w3.org/1999/xlink">
	<defs/>
	<path d="M83,44c6.02839,28.13248 9.21861,56.81573 15,85c0.93617,4.56382 9.16846,28.7127 11,29c15.47741,2.42783 31.33629,0.30415 47,0c18.67505,-0.36262 37.91397,2.66736 56,-2c4.91612,-1.26868 5.3096,-8.96998 6,-14c1.43198,-10.43303 -0.03958,-85.76208 -17,-94c-38.87424,-18.88177 -97.67545,-8 -141,-8" fill="none" stroke="black" stroke-linecap="round" stroke-width="5"/>
	<path d="M113,162c5.90087,33.1924 13.86295,66.17985 25,98c0.88779,2.53654 1.31867,6.81924 4,7c28.27112,1.90592 59.95061,12.24451 85,-1c13.27361,-7.01823 2.75736,-30.00431 2,-45c-0.91553,-18.1275 -3.6038,-36.16996 -7,-54c-0.64215,-3.37126 -3.33333,-6 -5,-9" fill="none" stroke="black" stroke-linecap="round" stroke-width="5"/>
	<path d="M105,154c-19.59664,20.52981 -89.01726,81.42343 -53,116c17.95029,17.23227 23.98427,-23.8663 24,-24c1.20736,-10.26256 -0.55774,-20.68173 0,-31c0.11379,-2.10511 -0.10819,-6 2,-6c30.93627,0 -22.13611,87.50865 14,75c33.18514,-11.48716 16.99905,-53.49952 48,-69" fill="none" stroke="black" stroke-linecap="round" stroke-width="5"/>
</svg>
