<?xml version="1.0" ?>
<svg baseProfile="full" height="300" version="1.1" viewBox="[0, 0, 300, 300]" width="300" xmlns="http://www.w3.org/2000/svg" xmlns:ev="http://www.w3.org/2001/xml-events" xmlns:xlink="http://www.w3.org/1999/xlink">
	<defs/>
	<path d="M58,28c0,7.19785 4.02139,51.0107 8,53c6.59012,3.29506 23.29251,-0.76871 30,-1c19.52238,-0.67319 38.82711,0.73898 58,-2c12.57836,-1.79691 62.00313,4.99687 69,-2c0.64103,-0.64103 0,-6.48496 0,-7c0,-4.13442 0.10684,-49.44658 -3,-51c-10.34854,-5.17427 -35.13735,3.96546 -46,5c-38.34269,3.65169 -80.81321,2 -119,2" fill="none" stroke="black" stroke-linecap="round" stroke-width="5"/>
	<path d="M73,84c0,29.93648 8,58.94722 8,89" fill="none" stroke="black" stroke-linecap="round" stroke-width="5"/>
	<path d="M117,84c0,28.33333 0,56.66667 0,85" fill="none" stroke="black" stroke-linecap="round" stroke-width="5"/>
	<path d="M154,78c0,29.20894 2,60.19001 2,88" fill="none" stroke="black" stroke-linecap="round" stroke-width="5"/>
	<path d="M197,80c0,40.72787 -2,81.98261 -2,123" fill="none" stroke="black" stroke-linecap="round" stroke-width="5"/>
	<path d="M57,169c0,-3.11391 6.77233,0.91244 7,1c6.95675,2.67567 14.58601,3.23304 22,4c17.19451,1.77874 33.95819,5.81515 51,8c10.23482,1.31216 95.50007,-1.49993 98,1c0.49587,0.49587 0,4.29752 0,5c0,14.10469 4,27.32548 4,41c0,0.49617 0.17037,5.95741 0,6c-38.27791,9.56948 -83.51549,2 -123,2c-9.33594,0 -34.12219,5.15836 -41,0c-0.96148,-0.72111 -1.46252,-1.92503 -2,-3c-9.98105,-19.96211 -7.24343,-44.48685 -19,-68c-0.14907,-0.29814 0,-0.66667 0,-1" fill="none" stroke="black" stroke-linecap="round" stroke-width="5"/>
	<path d="M79,243c0,2 0,4 0,6c0,3.95957 14.04769,-1.67461 4,0c-0.43219,0.07203 -5.56962,1.56962 -6,2c-0.61576,0.61576 -1.98496,6.01504 -1,7c1.88562,1.88562 10.66667,0 8,0c-12.04607,0 3.23566,7.23566 0,4c-6.49297,-6.49297 -11.22642,15.32075 -10,19c1.05622,3.16866 5.20118,-0.79882 6,0c7.03175,7.03175 0.92143,-6.84286 0,-5c-3.68202,7.36405 2.87301,12 9,12" fill="none" stroke="black" stroke-linecap="round" stroke-width="5"/>
	<path d="M229,241c-2.05399,0 -15.09249,12.93834 -12,15c1.95766,1.30511 7.84887,-1.71704 7,-2c-1.56328,-0.52109 -10.04841,-0.14522 -9,3c2.83046,8.49138 13,-1.39804 13,8c0,2 -1.78885,5.10557 0,6c0.7487,0.37435 4.27337,-0.86332 4,-1c-4.16618,-2.08309 -8.15752,7.15752 -10,9" fill="none" stroke="black" stroke-linecap="round" stroke-width="5"/>
	<path d="M110,254c1.39608,1.39608 6.95,10.05 10,7c0.2357,-0.2357 0.33333,-1 0,-1c-11.59297,0 7,39.17563 7,27" fill="none" stroke="black" stroke-linecap="round" stroke-width="5"/>
	<path d="M169,246c-10.5969,10.5969 9.35954,24.56182 7,34c-0.9311,3.72439 -5.56197,6 2,6c2.02759,0 4.56628,-0.43372 6,1" fill="none" stroke="black" stroke-linecap="round" stroke-width="5"/>
</svg>
