<?xml version="1.0" ?>
<svg baseProfile="full" height="300" version="1.1" viewBox="[0, 0, 300, 300]" width="300" xmlns="http://www.w3.org/2000/svg" xmlns:ev="http://www.w3.org/2001/xml-events" xmlns:xlink="http://www.w3.org/1999/xlink">
	<defs/>
	<path d="M76,162c0,-23.71787 4.64355,-73.45968 25,-88c14.75677,-10.54055 32.67723,-9 50,-9c2.58657,0 22.19068,-2.85699 26,0c5.97309,4.47982 16.87821,30.31731 22,38c3.73122,5.59683 16.84509,15.07056 18,22c1.64048,9.8429 -2.57181,20.85638 2,30" fill="none" stroke="black" stroke-linecap="round" stroke-width="5"/>
	<path d="M213,155c0,-18.17569 -27.25954,-74.12977 -43,-82c-10.3112,-5.1556 -54.94309,2.97154 -65,8c-16.78255,8.39127 -26,57.92428 -26,77" fill="none" stroke="black" stroke-linecap="round" stroke-width="5"/>
	<path d="M79,158c28.5482,0 57.48975,1.42551 86,0c16.89766,-0.84488 32.50179,-5 48,-5" fill="none" stroke="black" stroke-linecap="round" stroke-width="5"/>
	<path d="M78,152c-4.66999,4.66999 6.83781,31.36817 8,35c3.97773,12.43041 17.79817,91.79817 26,100" fill="none" stroke="black" stroke-linecap="round" stroke-width="5"/>
	<path d="M210,149c0,47.74228 32,94.13864 32,140" fill="none" stroke="black" stroke-linecap="round" stroke-width="5"/>
	<path d="M86,200c-5.38997,16.16992 -12.60685,37.89234 -21,53c-2.35846,4.24522 -12,11.97705 -12,17" fill="none" stroke="black" stroke-linecap="round" stroke-width="5"/>
	<path d="M223,205c19.19742,9.59871 92.31327,69 99,69" fill="none" stroke="black" stroke-linecap="round" stroke-width="5"/>
	<path d="M70,245c9.66667,0 19.33333,0 29,0" fill="none" stroke="black" stroke-linecap="round" stroke-width="5"/>
	<path d="M96,211c21.35789,0 51.53923,6.13823 72,0c10.37867,-3.1136 40.44482,-10 51,-10" fill="none" stroke="black" stroke-linecap="round" stroke-width="5"/>
	<path d="M230,243c-6.23429,-6.23429 -32.10582,3.44411 -41,4c-17.46174,1.09136 -35.48447,0 -53,0c-33.70105,0 -39,-1.19896 -39,-37" fill="none" stroke="black" stroke-linecap="round" stroke-width="5"/>
</svg>
