<?xml version="1.0" ?>
<svg baseProfile="full" height="300" version="1.1" viewBox="[0, 0, 300, 300]" width="300" xmlns="http://www.w3.org/2000/svg" xmlns:ev="http://www.w3.org/2001/xml-events" xmlns:xlink="http://www.w3.org/1999/xlink">
	<defs/>
	<path d="M71,85c46.33333,0 92.66667,0 139,0" fill="none" stroke="black" stroke-linecap="round" stroke-width="5"/>
	<path d="M74,88c1.89878,0 1,31.1307 1,35c0,1.33333 0,2.66667 0,4c0,22.58408 -9.75178,101 -40,101" fill="none" stroke="black" stroke-linecap="round" stroke-width="5"/>
	<path d="M206,86c2.27208,0 0.47238,3.41715 1,5c5.72124,17.16372 5.95545,36.19813 7,55c0.11094,1.99692 -0.39223,4.03884 0,6c5.72134,28.6067 4.4189,79.2567 12,102c0.96191,2.88572 1.46381,9.69571 3,12c1.43165,2.14748 8,3.80542 8,5" fill="none" stroke="black" stroke-linecap="round" stroke-width="5"/>
	<path d="M73,177c36.5769,0 75.46223,3.65378 112,0c8.0134,-0.80134 14.794,-7 23,-7c0.22102,0 -5.76477,10.2943 -6,11c-2.64858,7.94574 -1,19.56211 -1,28c0,7.3379 -2.32791,19.01628 0,26c1.41814,4.25441 14.0111,6.99445 10,9c-14.1196,7.0598 -135,-0.62238 -135,-19" fill="none" stroke="black" stroke-linecap="round" stroke-width="5"/>
	<path d="M75,232c0,15.94096 -12.85449,33.27247 -16,49c-0.26041,1.30204 0,12.11146 0,0" fill="none" stroke="black" stroke-linecap="round" stroke-width="5"/>
	<path d="M73,179c-1.50338,0 -10.11604,9.88396 -8,12c3.92501,3.92501 18.04235,-9.16941 16,-1c-1.13538,4.54153 -7.55301,3.55301 -10,6c-6.65947,6.65947 7.14152,10 10,10c0.33333,0 -0.7643,-0.2357 -1,0c-4.47728,4.47728 -11.41638,16.16724 -8,23c1.32738,2.65475 24.92578,-1.07422 22,-4" fill="none" stroke="black" stroke-linecap="round" stroke-width="5"/>
	<path d="M213,179c-7.1808,0 -7.47841,15 1,15c0.66667,0 2,0 2,0c0,0 -20.98856,11.6743 -13,17c2.47046,1.64698 8.93803,-0.62536 11,-2c0.39223,-0.26149 1.39223,-1.26149 1,-1c-2.10051,1.40034 -11.56468,12.43532 -7,17c2.45356,2.45356 23.93589,-1 19,-1" fill="none" stroke="black" stroke-linecap="round" stroke-width="5"/>
	<path d="M73,229c0,3.0202 -23.47824,10.52176 -18,16c2.21261,2.21261 16.73386,0 20,0" fill="none" stroke="black" stroke-linecap="round" stroke-width="5"/>
	<path d="M221,238c10.65872,-10.65872 11.33131,5.2229 -6,11c-7.45552,2.48517 -17.10805,-6.89195 -11,-13" fill="none" stroke="black" stroke-linecap="round" stroke-width="5"/>
</svg>
