<?xml version="1.0" ?>
<svg baseProfile="full" height="300" version="1.1" viewBox="[0, 0, 300, 300]" width="300" xmlns="http://www.w3.org/2000/svg" xmlns:ev="http://www.w3.org/2001/xml-events" xmlns:xlink="http://www.w3.org/1999/xlink">
	<defs/>
	<path d="M69,95c11.18622,-2.23724 24.07819,-1 35,-1c29.5926,0 56.85612,0.16341 86,-4c3.93586,-0.56227 24.66693,-8.33307 26,-7c0.26471,0.26471 0,2.58824 0,3c0,12.74359 -1.14448,21.26625 0,35c2.65143,31.81711 10.12784,63.40624 13,95c0.21339,2.34734 0.6416,4.67039 1,7c0.30831,2.00401 0.83162,3.97942 1,6c1.22598,14.71175 -3.08437,31.7047 1,46c0.64752,2.26633 1,7 1,7c0,0 -0.60236,-4.01179 -1,-6" fill="none" stroke="black" stroke-linecap="round" stroke-width="5"/>
	<path d="M70,93c0,34.9786 -1.0218,73.89412 6,108c6.35761,30.87982 18,62.82614 18,94" fill="none" stroke="black" stroke-linecap="round" stroke-width="5"/>
	<path d="M67,147c5.65865,-5.65865 11.97319,-4.08044 14,2c1.75948,5.27845 0.90506,18.09494 -3,22c-0.52705,0.52705 -1.70711,1.7643 -1,2c10.56435,3.52145 20.03837,-0.1151 13,21c-0.29814,0.89443 -2.94281,2 -2,2c1.55786,0 8.32687,-2.67313 10,-1c8.9538,8.9538 -3.5363,31 -14,31" fill="none" stroke="black" stroke-linecap="round" stroke-width="5"/>
	<path d="M214,121c-10.24564,0 -36,6.85762 -36,20c0,1.13313 -0.88539,8.19198 1,9c4.93295,2.11412 19.87189,-1.12811 23,2c1.94891,1.94891 -2.08068,8.15159 1,10c9.55411,5.73246 19.21582,6.38237 30,8c2.71833,0.40775 8,-0.74874 8,2c0,0.74536 -0.55279,1.40372 -1,2c-6.09326,8.12434 -15.65911,16.65911 -23,24c-1.17851,1.17851 -4.58114,3.47295 -3,4c5.0706,1.6902 11.34937,-10.89156 0,-9c-10.39044,1.73174 -15.69436,20 -4,20" fill="none" stroke="black" stroke-linecap="round" stroke-width="5"/>
	<path d="M72,215c-9.81449,14.72173 -20.75981,29.34365 -29,45c-0.64209,1.21997 -12,30.16305 -12,19" fill="none" stroke="black" stroke-linecap="round" stroke-width="5"/>
	<path d="M85,236c-17.95948,0 -14.41708,24.41708 2,8" fill="none" stroke="black" stroke-linecap="round" stroke-width="5"/>
	<path d="M215,202c1.58471,0 2.19668,1 4,1" fill="none" stroke="black" stroke-linecap="round" stroke-width="5"/>
	<path d="M224,200c0,20.28266 65,51.54109 65,61" fill="none" stroke="black" stroke-linecap="round" stroke-width="5"/>
	<path d="M230,222c0,1.1364 4.06711,2.13421 5,4c3.00073,6.00146 -9.26699,13.86651 1,19c12.94778,6.47389 0.45268,-15.90536 -2,-11c-3.0613,6.1226 9,12.25303 9,1c0,-2.36036 0.54955,-3 -2,-3" fill="none" stroke="black" stroke-linecap="round" stroke-width="5"/>
</svg>
