<?xml version="1.0" ?>
<svg baseProfile="full" height="300" version="1.1" viewBox="[0, 0, 300, 300]" width="300" xmlns="http://www.w3.org/2000/svg" xmlns:ev="http://www.w3.org/2001/xml-events" xmlns:xlink="http://www.w3.org/1999/xlink">
	<defs/>
	<path d="M69,75c-3.3717,0 2.75049,1 3,1c4.87913,0 10.17978,0.45907 15,0c10.00461,-0.95282 19.994,-2.06194 30,-3c16.33449,-1.53136 78.46665,-11.26668 91,-5c6.14668,3.07334 8.15819,19.23729 12,25c7.80638,11.70957 19.79565,21.98551 24,36c6.81818,22.72728 17.30954,75.69046 -2,95c-10.98337,10.98337 -19.60911,-28.43642 -21,-34c-1.00671,-4.02684 -3,-5.7043 -3,-10c0,-0.37553 -0.69854,-6.5073 -1,-5c-0.32686,1.6343 0,3.33333 0,5c0,2 0,4 0,6c0,5.00942 15.92403,55.81519 5,58c-33.49127,6.69825 -12.93521,-53.93521 -22,-63c-0.94281,-0.94281 -2.67696,-0.16538 -4,0c-14.72095,1.84012 -29.2768,6.89669 -44,9c-2.14861,0.30694 -63.93965,-1.06035 -65,0c-11.8361,11.8361 24.86038,54.01745 -15,59c-3.46199,0.43275 -11.01133,1.79773 -15,1c-14.31003,-2.86201 -4.80631,-32.87159 -3,-41c0.84637,-3.80866 2.87889,-7.26298 4,-11c0.69731,-2.32436 0.91475,-9.17051 2,-7c2.18064,4.36127 0,15.1546 0,20c0,16.04614 5.56421,29.39144 -14,32c-3.04741,0.40632 -16.25625,1.4975 -20,0c-1.66667,-0.66667 -1.74614,-3.22299 -2,-5c-1.72184,-12.05285 -3.28733,-41.42534 2,-52c4.74663,-9.49326 27.38254,2.61746 33,-3c4.08846,-4.08846 -4.82893,-94.51322 0,-109c1.18225,-3.54676 10.37401,-2 13,-2" fill="none" stroke="black" stroke-linecap="round" stroke-width="5"/>
	<path d="M104,120c-3.86101,7.72203 -3,18.48282 -3,27c0,34.30021 22.43898,42 56,42c5.17014,0 14.74476,1.75175 20,0c13.58551,-4.5285 16.33795,-16.34488 21,-28c0.55168,-1.37921 0.73685,-4 2,-4" fill="none" stroke="black" stroke-linecap="round" stroke-width="5"/>
	<path d="M83,122c21.73778,8.69511 73.89375,0.98229 104,6c13.93192,2.32199 10.53157,26.59471 14,37c0.19785,0.59355 2.43175,4.28413 1,5c-26.59344,13.29672 -65.85401,10 -95,10c-3.69079,0 -27.85888,6.42336 -29,3c-6.1553,-18.46589 7,-39.38581 7,-57" fill="none" stroke="black" stroke-linecap="round" stroke-width="5"/>
</svg>
