<?xml version="1.0" ?>
<svg baseProfile="full" height="300" version="1.1" viewBox="[0, 0, 300, 300]" width="300" xmlns="http://www.w3.org/2000/svg" xmlns:ev="http://www.w3.org/2001/xml-events" xmlns:xlink="http://www.w3.org/1999/xlink">
	<defs/>
	<path d="M63,98c0,-34.46705 78.47197,-38.93258 106,-35c6.48059,0.9258 12.73072,5.89229 18,8c3.98747,1.59499 23.66941,27.33059 18,33c-3.70406,3.70406 -30.52936,0 -36,0c-1.66667,0 -3.33333,0 -5,0c-2.33333,0 -4.66667,0 -7,0c-1,0 -2,0 -3,0c-1.33333,0 -2.66667,0 -4,0c-1.66667,0 -3.33333,0 -5,0c-1.33333,0 -2.66667,0 -4,0c-2.02759,0 -4.07646,0.35882 -6,1c-7.55704,2.51901 -74,5.18387 -74,-7" fill="none" stroke="black" stroke-linecap="round" stroke-width="5"/>
	<path d="M61,98c5.73387,11.46774 17.31064,20.2766 22,32c9.72943,24.32357 13.2827,50.97888 17,77c1.3691,9.58369 8,20.99683 8,30" fill="none" stroke="black" stroke-linecap="round" stroke-width="5"/>
	<path d="M206,102c-4.65948,0 -4,30.7889 -4,35c0,17.22873 -3.18726,38.25095 1,55c2.73526,10.94106 9,26.4495 9,38" fill="none" stroke="black" stroke-linecap="round" stroke-width="5"/>
	<path d="M89,148c0,25.06379 -41.46311,85.46311 -61,105" fill="none" stroke="black" stroke-linecap="round" stroke-width="5"/>
	<path d="M169,151c0,-2.23607 2.41165,3.84272 3,6c1.54209,5.65432 3.3804,11.7608 6,17c5.72332,11.44665 18,24.60031 18,38" fill="none" stroke="black" stroke-linecap="round" stroke-width="5"/>
	<path d="M109,147c0,0.66667 0,1.33333 0,2c0,16.66667 0,33.33333 0,50c0,0.35405 -0.21019,6.94745 0,7c12.76246,3.19061 30.22925,0 43,0c13.33333,0 26.66667,0 40,0c1.66667,0 4.25464,1.49071 5,0c2.85886,-5.71772 -1.08744,-18.52463 -2,-24c-1.9037,-11.4222 1.02973,-31.97027 -7,-40c-9.00712,-9.00712 -42.80883,-4 -53,-4c-7.59328,0 -36.38122,-4.61878 -43,2c-1.28738,1.28738 6.98401,27.96801 8,30c4.41462,8.82925 -2.0765,31.9235 4,38c15.52551,15.52551 48.85837,9 69,9" fill="none" stroke="black" stroke-linecap="round" stroke-width="5"/>
	<path d="M206,219c11.63479,11.63479 26.75173,19.75173 37,30" fill="none" stroke="black" stroke-linecap="round" stroke-width="5"/>
</svg>
