<?xml version="1.0" ?>
<svg baseProfile="full" height="300" version="1.1" viewBox="[0, 0, 300, 300]" width="300" xmlns="http://www.w3.org/2000/svg" xmlns:ev="http://www.w3.org/2001/xml-events" xmlns:xlink="http://www.w3.org/1999/xlink">
	<defs/>
	<path d="M65,79c2.75803,0 4.55508,-8.77754 9,-11c8.7925,-4.39625 104.61254,-7.69373 116,-2c7.15739,3.57869 7.81399,73.88392 10,87c3.05311,18.31868 32.4916,45.34453 17,66c-7.41385,9.88514 -24.8367,1.48991 -28,-8c-0.31623,-0.94868 0.11043,-2.00612 0,-3c-1.72881,-15.55928 1.83089,-34.50733 -3,-49c-0.19888,-0.59665 0.82285,-4.91142 -1,-4c-21.81609,10.90804 23.00366,104.20146 -25,85c-14.42349,-5.7694 -2.75793,-75.12104 9,-81c2.98142,-1.49071 -2.83772,6.94591 -6,8c-8.13493,2.71164 -17.81979,2 -27,2c-18.85145,0 -36.66392,-7 -55,-7c-1.33333,0 -3.2,-1.06667 -4,0c-5.54342,7.39122 35.96625,114.24156 -17,101c-12.9569,-3.23922 -5.08055,-58.70465 -2,-70c1.91536,-7.02298 4.4545,-14.63624 7,-21c0.83045,-2.07614 1.41886,-7.58114 3,-6c1.53531,1.53531 -8.35255,23.89578 -9,26c-4.2086,13.67796 -7.87844,80.08104 -38,60c-16.33897,-10.89265 -18.99836,-51.5041 -12,-69c10.63307,-26.58268 53.72979,-13.45958 58,-22c15.24687,-30.49373 -18.18053,-64.81947 12,-95" fill="none" stroke="black" stroke-linecap="round" stroke-width="5"/>
	<path d="M91,152c0,11.08152 1.04429,18.11074 5,28c1.17517,2.93794 0.26694,19.13347 4,21c9.26094,4.63047 32.56596,-0.11319 42,-2c7.29416,-1.45883 20.35366,0.96951 25,-6c5.294,-7.941 22.33321,-48.66679 16,-55c-6.6299,-6.6299 -34.94864,-5 -44,-5c-20.84731,0 -47.29524,-4.35238 -66,5c-9.04756,4.52378 0.00039,50.00078 4,58c0.14907,0.29814 -0.32338,0.91915 0,1c9.86608,2.46652 25.93391,1 35,1c13.04079,0 28.06779,1.84746 41,0c4.84498,-0.69214 10.28516,-5 15,-5" fill="none" stroke="black" stroke-linecap="round" stroke-width="5"/>
</svg>
