<?xml version="1.0" ?>
<svg baseProfile="full" height="300" version="1.1" viewBox="[0, 0, 300, 300]" width="300" xmlns="http://www.w3.org/2000/svg" xmlns:ev="http://www.w3.org/2001/xml-events" xmlns:xlink="http://www.w3.org/1999/xlink">
	<defs/>
	<path d="M77,182c0,-22.6733 -10.36648,-53.90056 -3,-76c2.65749,-7.97247 7.70693,-20.13795 15,-25c14.65285,-9.76857 87.8099,-28.15842 100,-18c10.25895,8.54912 9.90187,28.92052 11,41c1.25225,13.77471 0.84986,35.12465 6,48c6.52926,16.32314 32.58722,72.82556 24,90c-4.53191,9.06383 -27.55381,9.15136 -32,1c-10.39261,-19.05312 -4.43241,-37.12174 -1,-56c0.4341,-2.38756 2,-7 2,-7c0,0 0.47295,5.36477 1,8c1.85267,9.26335 13.20654,48.51806 10,56c-2.95626,6.89795 -28.81771,25.90971 -37,15c-7.21985,-9.62646 -4.81484,-36.74064 -2,-48c0.26259,-1.05038 5.58286,-9.83428 5,-11c-1.22502,-2.45004 -24.00745,5.25186 -27,6c-17.7448,4.4362 -51.89691,13.3677 -71,7c-4.24264,-1.41421 6,7.52786 6,12c0,12.27017 2.89284,34.05358 -11,41c-17.44378,8.72189 -18.17969,-12.92188 -16,-26c0.65336,-3.92016 2.92463,-9.88694 5,-13c1.44412,-2.16617 3.83572,-8.32857 5,-6c5.13338,10.26676 -25.06799,35.58692 -41,24c-4.11159,-2.99025 -2.49915,-5.49802 -4,-9c-17.4974,-40.82726 45.64953,-47.64953 65,-67" fill="none" stroke="black" stroke-linecap="round" stroke-width="5"/>
</svg>
