<?xml version="1.0" ?>
<svg baseProfile="full" height="300" version="1.1" viewBox="[0, 0, 300, 300]" width="300" xmlns="http://www.w3.org/2000/svg" xmlns:ev="http://www.w3.org/2001/xml-events" xmlns:xlink="http://www.w3.org/1999/xlink">
	<defs/>
	<path d="M62,90c0,-3.38547 -2.03123,-18.96877 0,-21c13.87485,-13.87485 95.50112,-8 117,-8c5.20716,0 43.02318,-0.97682 44,0c5.05473,5.05473 -1.87067,30.5173 0,38c4.94097,19.76388 6.14966,40.59866 11,60c2.72617,10.90468 -1.71009,23.88444 0,35c2.09597,13.62379 8,25.89308 8,40c0,5.03866 0,20.78047 0,19" fill="none" stroke="black" stroke-linecap="round" stroke-width="5"/>
	<path d="M64,74c50.37572,0 104.44672,0 154,0" fill="none" stroke="black" stroke-linecap="round" stroke-width="5"/>
	<path d="M241,228c0,8.98226 2.85968,16.87743 4,26c4.02844,32.22752 -14.1465,42.276 -27,8c-8.95958,-23.8922 -4.47853,-56.95706 -16,-80c-1.31796,-2.63593 -9.15031,1 -12,1c-0.45864,0 -9.95542,-0.26749 -10,0c-3.99375,23.96248 6.34671,54.12042 9,78c0.62142,5.59282 -5.34516,25.65484 -14,17c-20.42838,-20.42838 -4.95046,-85.95046 -11,-92c-0.00951,-0.00951 -52.9846,0 -56,0c-2.10488,0 -30.33117,-2.66883 -34,1c-9.59865,9.59865 8.86423,56.27154 2,70c-2.39081,4.78162 -21.21063,11.78937 -25,8c-5.11237,-5.11237 1,-65.40193 1,-76c0,-0.2237 -8.77815,-4.47635 -10,-5c-2.81767,-1.20757 -8.55003,-4.72498 -12,-3c-0.29814,0.14907 0,0.66667 0,1c0,11.89382 2.81708,23.17077 4,35c0.9545,9.54495 5.05907,30.58819 -7,33c-0.20867,0.04173 -11.07639,0.92361 -12,0c-5.92619,-5.92619 -6,-21.06094 -6,-29c0,-10.04701 -5.71066,-48.64467 5,-54c13.19286,-6.59643 30.62045,-0.06863 42,-16c13.07294,-18.30212 9,-47.31405 9,-69" fill="none" stroke="black" stroke-linecap="round" stroke-width="5"/>
	<path d="M66,137c18.27867,6.09289 37.45247,0.35035 56,3c29.82165,4.26024 60.51837,9.54014 91,7c5.30661,-0.44222 12.65286,-4 17,-4" fill="none" stroke="black" stroke-linecap="round" stroke-width="5"/>
</svg>
