<?xml version="1.0" ?>
<svg baseProfile="full" height="300" version="1.1" viewBox="[0, 0, 300, 300]" width="300" xmlns="http://www.w3.org/2000/svg" xmlns:ev="http://www.w3.org/2001/xml-events" xmlns:xlink="http://www.w3.org/1999/xlink">
	<defs/>
	<path d="M78,66c27.70727,0 61.75829,5.44834 89,0c4.39865,-0.87973 26.29583,-7.85209 30,-6c2.087,1.0435 0,4.66667 0,7c0,14.82455 -2.08167,31.42828 0,46c1.43707,10.05947 3.87024,53.74048 8,62c7.72143,15.44286 14,27.00613 14,45c0,11.46006 0.42188,21.26564 4,32c0.28075,0.84226 0.51085,4 2,4c4.53382,0 -5.16774,-7.45968 -8,-11" fill="none" stroke="black" stroke-linecap="round" stroke-width="5"/>
	<path d="M85,67c-5.96271,5.96271 -5.96052,39.50558 -7,45c-9.68042,51.16793 -12,107.1853 -12,159" fill="none" stroke="black" stroke-linecap="round" stroke-width="5"/>
	<path d="M70,219c0,-4.5199 34.65227,-2 37,-2c30.35649,0 60.70058,0.51497 91,-1c12.64321,-0.63216 25.83635,-7 38,-7c1.46667,0 3,0.91111 3,-1" fill="none" stroke="black" stroke-linecap="round" stroke-width="5"/>
	<path d="M67,138c3.75668,3.75668 12.01057,-1.65962 16,1c4.66421,3.10947 -2.53543,13.35696 -5,15c-0.11941,0.07961 -5.08546,1.45727 -4,2c3.56955,1.78477 10.66563,3.49845 13,7c2.32988,3.49482 -1.35254,15.23503 -4,17c-1.86052,1.24035 -7.58114,4.58114 -6,3c1.56807,-1.56807 15.40017,-2.19966 16,-1c5.432,10.86399 -15.60541,26 -25,26" fill="none" stroke="black" stroke-linecap="round" stroke-width="5"/>
	<path d="M190,143c0,4.7912 -9.82134,17.768 -7,22c1.6154,2.42309 10.59978,4.59996 13,5c5.24231,0.87372 0.30123,-1.60246 -1,1c-0.14907,0.29814 0,0.66667 0,1c0,4.59659 -0.55969,26.55969 10,16c0.33333,-0.33333 1.33333,-0.66667 1,-1c-2.90511,-2.90511 -8.02651,9.29798 -6,12c5.63606,7.51475 22.25628,2 22,2" fill="none" stroke="black" stroke-linecap="round" stroke-width="5"/>
	<path d="M97,217c2.04568,0 1,3.31079 1,5c0,16.79029 -2.91385,33.54053 -6,50c-0.85282,4.54836 -4.57578,8 0,8" fill="none" stroke="black" stroke-linecap="round" stroke-width="5"/>
	<path d="M181,217c0,7 0,14 0,21c0,3 0,6 0,9c0,12.60658 3,24.78453 3,37c0,1.05409 -0.05409,3 1,3" fill="none" stroke="black" stroke-linecap="round" stroke-width="5"/>
	<path d="M220,245c0.66667,0 1.33333,0 2,0" fill="none" stroke="black" stroke-linecap="round" stroke-width="5"/>
	<path d="M197,220c0,7.96282 -13,11.57081 -13,8" fill="none" stroke="black" stroke-linecap="round" stroke-width="5"/>
	<path d="M90,214c0,-2.61181 -2,2.04552 -2,3c0,3.39407 -1.66647,12.66706 0,16c1.43435,2.8687 16,6.04601 16,3" fill="none" stroke="black" stroke-linecap="round" stroke-width="5"/>
</svg>
