<?xml version="1.0" ?>
<svg baseProfile="full" height="300" version="1.1" viewBox="[0, 0, 300, 300]" width="300" xmlns="http://www.w3.org/2000/svg" xmlns:ev="http://www.w3.org/2001/xml-events" xmlns:xlink="http://www.w3.org/1999/xlink">
	<defs/>
	<path d="M75,125c0,-29.08499 17.67942,-60.22647 47,-70c8.10451,-2.7015 29.0119,0 35,0c6.33333,0 12.99167,-2.00278 19,0c7.14154,2.38051 8.04966,8.73287 12,14c13.83748,18.44997 28,26.80056 28,52" fill="none" stroke="black" stroke-linecap="round" stroke-width="5"/>
	<path d="M210,118c-0.55745,0 -30.96225,-40.97169 -39,-47c-13.4642,-10.09815 -77.10194,12.6529 -86,26c-3.77464,5.66196 -1,19.65192 -1,27" fill="none" stroke="black" stroke-linecap="round" stroke-width="5"/>
	<path d="M72,122c26.84948,0 58.86835,5.22633 85,0c27.53994,-5.50799 52.76177,-7 81,-7c0.33333,0 -0.66667,0 -1,0c-8.42842,0 -15.70875,3 -25,3" fill="none" stroke="black" stroke-linecap="round" stroke-width="5"/>
	<path d="M72,118c7.24726,43.48358 25.51096,85.29931 35,128c1.86625,8.39811 8,16.77426 8,25" fill="none" stroke="black" stroke-linecap="round" stroke-width="5"/>
	<path d="M209,118c-3.68976,0 -2.92313,21.9246 -3,24c-1.32322,35.7269 6.93624,66.45412 17,100c0.77152,2.57173 2.59275,10 5,10" fill="none" stroke="black" stroke-linecap="round" stroke-width="5"/>
	<path d="M87,176c0,-2.0262 -5.08748,6.85935 -6,8c-3.97826,4.97283 -8.69677,9.30556 -13,14c-12.47231,13.60615 -18.29139,27.58278 -26,43" fill="none" stroke="black" stroke-linecap="round" stroke-width="5"/>
	<path d="M203,168c-1.76192,0 25.51943,22.94245 27,24c11.66902,8.33501 42.48451,41 55,41" fill="none" stroke="black" stroke-linecap="round" stroke-width="5"/>
	<path d="M90,198c22.73432,0 49.71326,4.72213 71,-2c1.13848,-0.35952 34.36588,-12.63412 36,-11c3.57019,3.57019 2.16534,11.41334 4,16c1.36414,3.41034 7.72386,6.82843 6,12c-2.51748,7.55245 -88.52419,14 -102,14" fill="none" stroke="black" stroke-linecap="round" stroke-width="5"/>
</svg>
