<?xml version="1.0" ?>
<svg baseProfile="full" height="300" version="1.1" viewBox="[0, 0, 300, 300]" width="300" xmlns="http://www.w3.org/2000/svg" xmlns:ev="http://www.w3.org/2001/xml-events" xmlns:xlink="http://www.w3.org/1999/xlink">
	<defs/>
	<path d="M56,214c0,9.00938 11.73374,22.08803 17,29c32.3076,42.40372 94.66804,86.44124 124,18c5.17699,-12.07965 -1.94006,-25.82208 -9,-35c-4.70976,-6.12268 -9.16388,-13.19665 -14,-19c-21.12432,-25.34919 -106.29289,-35.33055 -85,-84c8.10084,-18.5162 41.04956,-29.45743 58,-32c82.54984,-12.38248 108.53644,22.60933 134,99c4.66931,14.00794 -10.7061,31.98567 -17,43c-11.91324,20.84817 -8.32717,46.27726 -41,49c-12.44648,1.03721 -23.64294,-2.09529 -34,-9c-27.676,-18.45067 -48.24196,-77.74732 -76,-87c-9.51564,-3.17188 -58.31165,24 -61,24" fill="none" stroke="black" stroke-linecap="round" stroke-width="5"/>
</svg>
