<?xml version="1.0" ?>
<svg baseProfile="full" height="300" version="1.1" viewBox="[0, 0, 300, 300]" width="300" xmlns="http://www.w3.org/2000/svg" xmlns:ev="http://www.w3.org/2001/xml-events" xmlns:xlink="http://www.w3.org/1999/xlink">
	<defs/>
	<path d="M65,231c23.24935,0 46.09749,20.36281 81,16c17.08418,-2.13552 13.99769,-59.80647 10,-71c-10.39848,-29.11575 -27.35807,-34.94839 -55,-45c-3.73366,-1.35769 -12.08926,-3.08926 -15,-6c-6.79977,-6.79977 -6.20573,-50.94267 -5,-63c3.85954,-38.59543 106.99919,-52.00081 122,-37c32.15242,32.15242 1.75775,71.20494 11,92c3.834,8.62649 19.38473,31.15389 29,35c5.43621,2.17448 12.95972,0.63981 18,4c2.80796,1.87198 1.1848,20.924 2,25c6.83237,34.16185 12.03711,47.13086 -31,50c-38.27374,2.55158 -70.18284,-15.26822 -99,-39c-13.07853,-10.77055 -19.95144,-30.76214 -39,-26c-25.01017,6.25254 -20.61555,66.80778 -25,69" fill="none" stroke="black" stroke-linecap="round" stroke-width="5"/>
</svg>
