<?xml version="1.0" ?>
<svg baseProfile="full" height="300" version="1.1" viewBox="[0, 0, 300, 300]" width="300" xmlns="http://www.w3.org/2000/svg" xmlns:ev="http://www.w3.org/2001/xml-events" xmlns:xlink="http://www.w3.org/1999/xlink">
	<defs/>
	<path d="M76,106c0,6.97074 -3.53081,65.46919 -1,68c1.73724,1.73724 54.92192,-2.80469 60,-3c20.93093,-0.80504 42.0461,0 63,0c1.43973,0 3.70079,-0.10238 4,-1c2.94093,-8.82278 0.4579,-25.25258 -1,-34c-0.39306,-2.35836 -6.84596,-43.84596 -7,-44c-0.59631,-0.59631 -57.85151,1.54988 -65,1c-0.78001,-0.06 -55.91072,-2.08928 -57,-1c-4.69426,4.69426 -1,23.69565 -1,31" fill="none" stroke="black" stroke-linecap="round" stroke-width="5"/>
	<path d="M73,177c0,6.28046 -2.02915,15.91254 0,22c2.1493,6.44789 74.48758,26.79503 85,31c7.90883,3.16353 21.42816,16 28,16" fill="none" stroke="black" stroke-linecap="round" stroke-width="5"/>
	<path d="M202,170c4.20453,0 0.67081,22.44721 6,26c11.13238,7.42159 26.8812,12.7203 40,16c2.26367,0.56592 7,-2.33333 7,0c0,22.61907 -57.38223,21.69112 -68,27c-0.16602,0.08301 -1,4.78006 -1,5c0,15.29583 -3.2725,31.08999 -7,46c-1.69905,6.79618 -7,19.39759 -7,26" fill="none" stroke="black" stroke-linecap="round" stroke-width="5"/>
	<path d="M251,214c3.2946,6.5892 2.98385,17.88696 4,25c1.68681,11.80768 14,24.49575 14,36" fill="none" stroke="black" stroke-linecap="round" stroke-width="5"/>
	<path d="M186,269c0,-10.90942 48.54921,-9.81968 59,-14c1.48139,-0.59255 3,-0.64155 3,-2" fill="none" stroke="black" stroke-linecap="round" stroke-width="5"/>
</svg>
