<?xml version="1.0" ?>
<svg baseProfile="full" height="300" version="1.1" viewBox="[0, 0, 300, 300]" width="300" xmlns="http://www.w3.org/2000/svg" xmlns:ev="http://www.w3.org/2001/xml-events" xmlns:xlink="http://www.w3.org/1999/xlink">
	<defs/>
	<path d="M62,284c0,-31.8758 2,-61.0853 2,-93c0,-1.28305 -0.97692,-8.02308 0,-9c4.31927,-4.31927 37.83279,0.76849 42,1c32.09432,1.78302 64.16901,4.75587 96,9c31.48135,4.19751 63.29878,3 95,3c0.59959,0 26,0 26,0c0,0 -5.68212,0 -6,0c-13.42663,0 -27.46002,7 -43,7c-0.33333,0 -0.70186,-0.14907 -1,0c-11.17668,5.58834 2.93127,36.92239 -10,38c-22.86727,1.90561 -71.96155,5.50961 -94,0c-13.68101,-3.42025 -62.11547,-22.94227 -74,-17c-0.16514,0.08257 0,2.73394 0,3c0,20.13144 7,38.24615 7,58" fill="none" stroke="black" stroke-linecap="round" stroke-width="5"/>
	<path d="M241,241c0.33333,0 0.85093,-0.29814 1,0c3.05149,6.10298 10,53.23284 10,61" fill="none" stroke="black" stroke-linecap="round" stroke-width="5"/>
	<path d="M259,236c0,-2.19133 1.76305,13.21018 2,14c1.21157,4.03855 2.73032,7.97934 4,12c3.36453,10.65435 11,26.38237 11,37" fill="none" stroke="black" stroke-linecap="round" stroke-width="5"/>
</svg>
