<?xml version="1.0" ?>
<svg baseProfile="full" height="300" version="1.1" viewBox="[0, 0, 300, 300]" width="300" xmlns="http://www.w3.org/2000/svg" xmlns:ev="http://www.w3.org/2001/xml-events" xmlns:xlink="http://www.w3.org/1999/xlink">
	<defs/>
	<path d="M98,112c0,-17.16272 4,-33.79558 4,-52c0,-2.58978 -1.27443,-10.45115 0,-13c1.51567,-3.03133 14.73819,3.72961 16,4c12.5861,2.69702 24.23931,3 37,3c22.14516,0 43.90018,0 66,0c0.40728,0 3.87525,-0.2495 4,0c0.39357,0.78714 0.931,51.138 -1,55c-1.04139,2.08278 -26.58896,2 -30,2c-22.32272,0 -82.50998,4.74501 -102,-5" fill="none" stroke="black" stroke-linecap="round" stroke-width="5"/>
	<path d="M92,107c0,23.19789 -9.92589,48.43186 -13,72c-6.97928,53.50785 -6,108.16133 -6,162" fill="none" stroke="black" stroke-linecap="round" stroke-width="5"/>
	<path d="M224,112c-0.94281,0 -1.70186,1.10557 -2,2c-7.87835,23.63505 0,66.04461 0,93" fill="none" stroke="black" stroke-linecap="round" stroke-width="5"/>
	<path d="M82,240c36.89366,0 73.12376,-6 110,-6c13.66667,0 27.33333,0 41,0c6.33333,0 12.66667,0 19,0c0.66667,0 2,0.66667 2,0c0,-5.72638 -52,-59.09242 -52,-78" fill="none" stroke="black" stroke-linecap="round" stroke-width="5"/>
	<path d="M96,133c0,-10.4481 26.96938,-10 36,-10c5.53183,0 9.42564,-9.97864 13,-7c5.90611,4.92176 11.91271,18.38254 20,20c9.84582,1.96916 46.24551,-22.50898 52,-11c2.75095,5.5019 -24.57021,-0.85958 -26,2c-10.65542,21.31084 -43.61557,3.38443 -54,-7c-0.35365,-0.35365 -1.80002,2.65715 -3,3c-8.22872,2.35106 -16.55074,2 -25,2c-2.02759,0 -7.43372,0.43372 -6,-1c1.79592,-1.79592 29.0659,1 31,1c11.58524,0 15.83463,-7.16693 25,-9c7.05128,-1.41026 14.94872,1.41026 22,0c8.36001,-1.672 11.35101,-10 23,-10c4.00152,0 24.29351,13.70649 18,20c-7.66728,7.66728 -26.51877,-13.77816 -30,-19c-2.63067,-3.94601 -54.49625,8 -60,8c-13.78884,0 -25.54239,6.00942 -39,9c-0.94086,0.20908 -19.6656,1.6656 -17,-1c0.4714,-0.4714 1.33333,0 2,0c16.76489,0 27.8733,9.29476 46,8c23.3042,-1.66459 50.44734,-14 72,-14" fill="none" stroke="black" stroke-linecap="round" stroke-width="5"/>
</svg>
