<?xml version="1.0" ?>
<svg baseProfile="full" height="300" version="1.1" viewBox="[0, 0, 300, 300]" width="300" xmlns="http://www.w3.org/2000/svg" xmlns:ev="http://www.w3.org/2001/xml-events" xmlns:xlink="http://www.w3.org/1999/xlink">
	<defs/>
	<path d="M47,93c1.35673,0.25125 92.44381,15.55619 100,8c3.37651,-3.37651 1.83133,-20.95194 2,-25c0.03336,-0.80069 1.79508,-18.40985 0,-22c-7.07515,-14.15031 -64.29635,-22.70365 -77,-10c-23.46975,23.46975 -22,44.45672 -22,78c0,4.57448 -2.15668,28.68663 0,33c1.01938,2.03876 35.98921,-0.4278 44,-1c15.73914,-1.12422 41.75509,3.24491 53,-8c1.58046,-1.58046 1,-41.62434 1,-49" fill="none" stroke="black" stroke-linecap="round" stroke-width="5"/>
	<path d="M50,153c3.19498,12.77991 7.19213,26.74227 9,40c0.01557,0.11415 -0.20223,8.79777 1,10c5.5242,5.5242 43.85731,-1.56124 50,-2c10.07043,-0.71932 35.64454,1.94433 42,-6c5.37226,-6.71532 16.33859,-37.66141 8,-46c-2.52128,-2.52128 -7,-0.97906 -7,-6" fill="none" stroke="black" stroke-linecap="round" stroke-width="5"/>
	<path d="M69,199c-7.86957,18.36232 -17,42.4855 -17,62" fill="none" stroke="black" stroke-linecap="round" stroke-width="5"/>
	<path d="M149,198c4.61773,13.85318 13,36.5595 13,49" fill="none" stroke="black" stroke-linecap="round" stroke-width="5"/>
</svg>
