<?xml version="1.0" ?>
<svg baseProfile="full" height="300" version="1.1" viewBox="[0, 0, 300, 300]" width="300" xmlns="http://www.w3.org/2000/svg" xmlns:ev="http://www.w3.org/2001/xml-events" xmlns:xlink="http://www.w3.org/1999/xlink">
	<defs/>
	<path d="M80,132c0,-3 0,-6 0,-9c0,-25.27207 2.25243,-46.53407 4,-71c0.02928,-0.40992 -0.41288,-4.58712 0,-5c6.38148,-6.38148 61.60893,-5 74,-5c2.43729,0 45.8032,-0.1968 48,2c7.47102,7.47102 2,38.22306 2,47c0,2.12756 3.27228,31.45544 0,38c-2.848,5.696 -12.69007,1.13956 -19,2c-18.87618,2.57402 -36.78093,12 -56,12c-15.92738,0 -34.40549,2.1189 -50,-1c-2.64363,-0.52873 -14.56492,-5.43508 -9,-11c1.21287,-1.21287 2.75868,1.27605 3,2c3.90773,11.72318 4,26.3288 4,39c0,5.22804 0.34259,6.65741 1,6c4.24719,-4.24719 31.05085,0 38,0c62.84927,0 88,15.0815 88,-65" fill="none" stroke="black" stroke-linecap="round" stroke-width="5"/>
	<path d="M86,175c-5.06846,10.13692 -2.84166,25.99574 -4,37c-0.34711,3.29755 -0.45591,10.91182 -2,14c-0.58389,1.16778 -6.69798,17.34899 -10,19c-4.23369,2.11685 -7.51232,-10.02463 -8,-11c-10.11792,-20.23584 -1.00238,-42.99762 12,-56c1.21396,-1.21396 3.26864,-6 5,-6" fill="none" stroke="black" stroke-linecap="round" stroke-width="5"/>
	<path d="M171,181c0,1.4714 1,1.5286 1,3c0,5.71601 18.61114,62.38886 31,50c6.35348,-6.35348 -5,-26.27819 -5,-31" fill="none" stroke="black" stroke-linecap="round" stroke-width="5"/>
	<path d="M189,175c4.87008,12.1752 12,17.93228 12,31" fill="none" stroke="black" stroke-linecap="round" stroke-width="5"/>
</svg>
