<?xml version="1.0" ?>
<svg baseProfile="full" height="300" version="1.1" viewBox="[0, 0, 300, 300]" width="300" xmlns="http://www.w3.org/2000/svg" xmlns:ev="http://www.w3.org/2001/xml-events" xmlns:xlink="http://www.w3.org/1999/xlink">
	<defs/>
	<path d="M85,157c0,-13.02864 -4.45989,-108.54011 7,-120c1.46168,-1.46168 64.2262,-0.72398 74,0c13.59449,1.007 42.08033,2.08033 53,13c0.38257,0.38257 0,4.64926 0,5c0,12.30165 3.22568,107.77432 -1,112c-1.48217,1.48217 -3.15433,-1.85905 -4,-2c-24.30061,-4.0501 -46.30325,-2.35435 -70,-6c-7.65203,-1.17724 -14.33429,-3.97791 -22,-5c-2.65255,-0.35367 -34.36587,-4.73174 -34,-4c4.32134,8.64269 6,16.79809 6,28c0,3.33333 -3.16228,8.94591 0,10c4.51885,1.50628 14.05759,5.31436 18,6c4.26925,0.74248 8.66667,0 13,0c1.40752,0 90.66009,4.33991 93,2c5.03343,-5.03343 -2,-23.4634 -2,-29" fill="none" stroke="black" stroke-linecap="round" stroke-width="5"/>
	<path d="M103,193c-3.73044,11.19133 -4.95817,23.35358 -8,34c-16.65008,58.27529 -32.23805,-16.76195 -17,-32c4.04719,-4.04719 10.99743,-7.99743 15,-12" fill="none" stroke="black" stroke-linecap="round" stroke-width="5"/>
	<path d="M197,193c0.83677,2.7195 14.92188,67.03906 25,62c13.91581,-6.95791 6.2673,-59 -7,-59" fill="none" stroke="black" stroke-linecap="round" stroke-width="5"/>
</svg>
