<?xml version="1.0" ?>
<svg baseProfile="full" height="300" version="1.1" viewBox="[0, 0, 300, 300]" width="300" xmlns="http://www.w3.org/2000/svg" xmlns:ev="http://www.w3.org/2001/xml-events" xmlns:xlink="http://www.w3.org/1999/xlink">
	<defs/>
	<path d="M82,134c0,-26 0,-52 0,-78" fill="none" stroke="black" stroke-linecap="round" stroke-width="5"/>
	<path d="M105,64c1.15927,19.70765 5,42.86175 5,62" fill="none" stroke="black" stroke-linecap="round" stroke-width="5"/>
	<path d="M120,57c0,22.17058 13,48.27116 13,67" fill="none" stroke="black" stroke-linecap="round" stroke-width="5"/>
	<path d="M147,67c6.76158,18.93243 15,44.74701 15,64" fill="none" stroke="black" stroke-linecap="round" stroke-width="5"/>
	<path d="M82,59c26.69677,4.44946 46.56183,7 74,7c0.86036,0 2,2.32883 2,3" fill="none" stroke="black" stroke-linecap="round" stroke-width="5"/>
	<path d="M81,127c15.33333,0 30.66667,0 46,0c41.89017,0 61.82556,-13.47667 45,37c-1.3283,3.98489 -2.7115,14.7115 -5,17c-6.13129,6.13129 -58.25396,-0.85176 -67,-1c-3.72344,-0.06311 -50.76083,6.71752 -56,-9c-7.66507,-22.99522 36,-31.15542 36,-41" fill="none" stroke="black" stroke-linecap="round" stroke-width="5"/>
	<path d="M69,181c2.38874,19.10991 6,40.3819 6,59" fill="none" stroke="black" stroke-linecap="round" stroke-width="5"/>
	<path d="M151,183c6.53354,6.53354 7,29.73289 7,40c0,1.41126 -0.671,3 1,3" fill="none" stroke="black" stroke-linecap="round" stroke-width="5"/>
</svg>
