<?xml version="1.0" ?>
<svg baseProfile="full" height="300" version="1.1" viewBox="[0, 0, 300, 300]" width="300" xmlns="http://www.w3.org/2000/svg" xmlns:ev="http://www.w3.org/2001/xml-events" xmlns:xlink="http://www.w3.org/1999/xlink">
	<defs/>
	<path d="M75,40c0,28.98039 1.80022,59.20202 5,88c0.91625,8.24626 5,17.25924 5,25" fill="none" stroke="black" stroke-linecap="round" stroke-width="5"/>
	<path d="M106,60c3.00169,27.51549 3.59412,58.68089 12,86c1.11624,3.62777 4,10.43032 4,14" fill="none" stroke="black" stroke-linecap="round" stroke-width="5"/>
	<path d="M143,59c2.61743,23.55686 13,45.74178 13,69" fill="none" stroke="black" stroke-linecap="round" stroke-width="5"/>
	<path d="M176,51c5.74852,29.89232 16,69.27435 16,99" fill="none" stroke="black" stroke-linecap="round" stroke-width="5"/>
	<path d="M222,58c0,24.98897 13,46.79806 13,70" fill="none" stroke="black" stroke-linecap="round" stroke-width="5"/>
	<path d="M206,59c0,12.58599 -1.13458,31.59626 3,44c2.15814,6.47443 7,18.03311 7,24" fill="none" stroke="black" stroke-linecap="round" stroke-width="5"/>
	<path d="M163,62c0.76875,10.76243 -0.43958,47.12084 5,58c2.02697,4.05395 8,10.255 8,14" fill="none" stroke="black" stroke-linecap="round" stroke-width="5"/>
	<path d="M61,38c13.98716,3.22781 26.67589,10.66897 40,14c30.63553,7.65888 63.14959,6 95,6c10.56003,0 30.28706,4.42587 35,-5c6.42186,-12.84372 -19.2879,-15.45758 -27,-17c-34.71547,-6.94309 -72.63032,3.12323 -106,-8c-5.50951,-1.8365 -32,-4.65512 -32,4" fill="none" stroke="black" stroke-linecap="round" stroke-width="5"/>
	<path d="M80,148c40.01033,0 80.12644,-2 120,-2c2.35931,0 3.05465,-0.35155 5,-1c14.11316,-4.70439 20.5987,-9 36,-9c3,0 9,-3 9,0c0,16.76281 -5,38.41437 -5,58c0,9.33333 0,18.66667 0,28c0,1 1,3 0,3c-6.15429,0 -24.40261,-7.12751 -34,-8c-28.78837,-2.61712 -59.63091,2.05273 -88,-2c-2.46513,-0.35216 -26.77061,0.22939 -30,-3c-13.78244,-13.78244 -12,-49.2821 -12,-68" fill="none" stroke="black" stroke-linecap="round" stroke-width="5"/>
	<path d="M87,210c0,22.87217 4,47.43671 4,71" fill="none" stroke="black" stroke-linecap="round" stroke-width="5"/>
	<path d="M239,224c0,12 0,24 0,36c0,1.65427 -0.79096,7 1,7" fill="none" stroke="black" stroke-linecap="round" stroke-width="5"/>
</svg>
