<?xml version="1.0" ?>
<svg baseProfile="full" height="300" version="1.1" viewBox="[0, 0, 300, 300]" width="300" xmlns="http://www.w3.org/2000/svg" xmlns:ev="http://www.w3.org/2001/xml-events" xmlns:xlink="http://www.w3.org/1999/xlink">
	<defs/>
	<path d="M79,112c16.23453,-16.23453 98.0755,-18.50472 122,-20c1.12473,-0.0703 33.77747,-0.1099 35,-5c3.07007,-12.28026 -15.60317,-29.47089 -22,-38c-10.01758,-13.35678 -20.4801,-29.06468 -35,-38c-22.08616,-13.59148 -62.5037,-4.4963 -80,13c-14.97482,14.97482 -26.06768,30.74452 -28,52c-0.93717,10.30882 0.4635,16.01273 2,26c0.45617,2.96512 -2.12132,11.12132 0,9c2.4022,-2.4022 1.78001,-3.15336 3,-6c9.00436,-21.01018 23.38007,-43.17854 39,-60c2.73124,-2.94133 5.16177,-11.83823 8,-9c3.18989,3.18989 -15.78704,31.20524 -18,36c-0.88345,1.91415 -4.10819,6 -2,6c1.05409,0 2.10878,-0.43712 3,-1c21.69599,-13.70273 42.14655,-29.10468 63,-44c1.58161,-1.12972 5,-3 5,-3c0,0 -28.24379,20.64674 -25,32c6.22638,21.79234 63.0839,-26.3356 54,10" fill="none" stroke="black" stroke-linecap="round" stroke-width="5"/>
	<path d="M67,94c12.0773,24.15459 27.23722,48.71166 36,75c5.72013,17.1604 2.956,36.912 11,53" fill="none" stroke="black" stroke-linecap="round" stroke-width="5"/>
	<path d="M229,72c9.32923,37.31692 25.75012,81.24941 18,120" fill="none" stroke="black" stroke-linecap="round" stroke-width="5"/>
</svg>
