<?xml version="1.0" ?>
<svg baseProfile="full" height="300" version="1.1" viewBox="[0, 0, 300, 300]" width="300" xmlns="http://www.w3.org/2000/svg" xmlns:ev="http://www.w3.org/2001/xml-events" xmlns:xlink="http://www.w3.org/1999/xlink">
	<defs/>
	<path d="M84,35c0,37 0,74 0,111" fill="none" stroke="black" stroke-linecap="round" stroke-width="5"/>
	<path d="M114,42c0,30.76753 4,61.34698 4,92" fill="none" stroke="black" stroke-linecap="round" stroke-width="5"/>
	<path d="M144,46c0,35.78581 7,71.06929 7,107" fill="none" stroke="black" stroke-linecap="round" stroke-width="5"/>
	<path d="M176,45c0,25.2173 3,50.12225 3,75" fill="none" stroke="black" stroke-linecap="round" stroke-width="5"/>
	<path d="M56,39c45.57899,0 92.63217,-3 138,-3" fill="none" stroke="black" stroke-linecap="round" stroke-width="5"/>
	<path d="M81,160c0,17.33869 -3.98911,37.01089 9,50" fill="none" stroke="black" stroke-linecap="round" stroke-width="5"/>
	<path d="M90,160c0,6.81163 5.16349,14.65395 7,22c4.47932,17.91727 -3,41.49251 -3,57" fill="none" stroke="black" stroke-linecap="round" stroke-width="5"/>
	<path d="M85,203c0,8.69067 5,16.25355 5,25" fill="none" stroke="black" stroke-linecap="round" stroke-width="5"/>
</svg>
