<?xml version="1.0" ?>
<svg baseProfile="full" height="300" version="1.1" viewBox="[0, 0, 300, 300]" width="300" xmlns="http://www.w3.org/2000/svg" xmlns:ev="http://www.w3.org/2001/xml-events" xmlns:xlink="http://www.w3.org/1999/xlink">
	<defs/>
	<path d="M87,40c32.49243,0 64.7403,5 97,5c3.29335,0 33.04699,-2.90602 35,1c7.86259,15.72517 8,92.70743 8,118c0,3.10569 2.07606,33.23098 -1,34c-34.12588,8.53147 -65.42501,1 -99,1c-3.06066,0 -25.9697,1.0606 -27,-1c-3.52305,-7.04609 -1.72174,-98.74784 -6,-118c-1.7809,-8.01406 -4,-17.52191 -4,-26c0,-0.02737 -1,-6 -1,-6c0,0 -0.17738,5.33924 0,8c1.1977,17.96554 9.93051,36.50452 17,53c0.30245,0.70573 2,7 2,7c0,0 0,-0.66667 0,-1c0,-15 0,-30 0,-45c0,-5.66667 0,-11.33333 0,-17c0,-0.33333 -0.31623,-1.10541 0,-1c1.14018,0.38006 2.38165,0.96942 3,2c14.94613,24.91022 16.58294,62.22369 25,90c1.92612,6.35619 3.9676,12.67699 6,19c1.29025,4.0141 4,12 4,12c0,0 0.2192,-2.68481 0,-4c-2.77483,-16.649 -5.56429,-33.29802 -8,-50c-0.92527,-6.34468 -1.987,-12.66873 -3,-19c-0.63415,-3.96345 -4.59011,-13.79505 -1,-12c6.63084,3.31542 12.06971,17.122 16,24c2.4418,4.27315 4.58713,8.71045 7,13c1.31754,2.34229 3.34821,9.60718 4,7c4.68786,-18.75145 1,-40.70734 1,-60c0,-1.69967 0.48198,3.38119 1,5c2.24883,7.0276 5.03296,13.88838 7,21c3.14928,11.38585 6.26429,22.79286 10,34c1.33333,4 3.30683,16.159 4,12c2.02297,-12.13782 0,-35.29644 0,-44c0,-6.66667 0,-13.33333 0,-20c0,-0.76332 -1.34781,-11.67825 2,-9c16.8232,13.45856 13.06627,67.06627 21,75c0.4714,0.4714 0,-1.33333 0,-2c0,-11.33333 0,-22.66667 0,-34c0,-6.66667 0,-13.33333 0,-20c0,-1.33333 0,-5.33333 0,-4c0,13.40463 5.23475,24.45028 8,38c1.47994,7.25173 1.95331,14.67318 3,22c0.67495,4.72464 3,18.77261 3,14c0,-4.77261 -1.65333,-9.42133 -3,-14c-4.9642,-16.87828 -6.37407,11.5611 -10,17c-11.76224,17.64336 -31.69588,22.88807 -49,13c-4.80767,-2.74724 -11.58302,-4.32156 -17,-2c-2.20935,0.94686 -8.39177,3.76082 -6,4c28.87219,2.88722 58.94424,0 88,0c5.89539,0 -13.97882,0 -22,0c-16.40833,0 -35.91769,-2.92406 -52,0c-21.80554,3.96464 17.161,-12.5805 22,-15c0.29814,-0.14907 1.29814,-0.14907 1,0c-14.59779,7.2989 -32.90051,13.84826 -47,19c-4.58778,1.6763 -14.48569,5.06938 -21,6c-0.65997,0.09428 -2.19157,0.63855 -2,0c7.36574,-24.55246 38.71954,-52.03965 60,-68c1.83619,-1.37714 -11.51138,7.56024 -2,-1c2.10235,-1.89212 4.13747,-3.87139 6,-6c2.31258,-2.64294 4.06849,-3 0,-3c-0.33333,0 -1.2357,0.2357 -1,0c2.79247,-2.79247 26,-19.91794 26,-28c0,-0.66667 0.64676,-1.83831 0,-2c-6.67037,-1.66759 -17.83646,1.53458 -24,4c-1.11589,0.44636 -3,3.20185 -3,2c0,-1.48823 11.69655,-15.30345 11,-16c-0.1344,-0.1344 -5.96189,1.99456 -6,2c-3.85246,0.55035 -6.42437,-1 -10,-1" fill="none" stroke="black" stroke-linecap="round" stroke-width="5"/>
	<path d="M86,41c0,15.59375 3,31.86013 3,48c0,44.27029 3,84.92313 3,129c0,11.6248 -3.65616,32.34384 4,40c0.38964,0.38964 3.38976,0 4,0c1.50264,0 1.97218,-0.97218 3,-2c14.03305,-14.03305 -2.2872,-28.3564 21,-40c2.35021,-1.17511 8.29266,0 11,0c26.80685,0 -0.62315,40.45895 13,45c8.17516,2.72505 26.6955,-10.47748 28,-17c0.39027,-1.95134 0.94212,-27.47106 2,-28c1.5707,-0.78535 8.2219,-1 10,-1" fill="none" stroke="black" stroke-linecap="round" stroke-width="5"/>
</svg>
