<?xml version="1.0" ?>
<svg baseProfile="full" height="300" version="1.1" viewBox="[0, 0, 300, 300]" width="300" xmlns="http://www.w3.org/2000/svg" xmlns:ev="http://www.w3.org/2001/xml-events" xmlns:xlink="http://www.w3.org/1999/xlink">
	<defs/>
	<path d="M32,56c0,31.65887 -3.82712,126.17288 16,146c7.43377,7.43377 14.73825,-25.90603 15,-28c3.60166,-28.81327 10.16371,-61.85406 6,-91c-0.18459,-1.29214 -2.41033,-7.58967 -1,-9c0.2357,-0.2357 0.67662,-0.08085 1,0c12.00402,3.00101 23.98957,5.99826 36,8c8.9933,1.49888 40.50992,-9.23512 46,-1c4.94892,7.42338 -5.60926,118.80463 34,99c6.76937,-3.38469 4,-28.36668 4,-34c0,-43.53524 -15.91057,-81 40,-81" fill="none" stroke="black" stroke-linecap="round" stroke-width="5"/>
</svg>
