<?xml version="1.0" ?>
<svg baseProfile="full" height="300" version="1.1" viewBox="[0, 0, 300, 300]" width="300" xmlns="http://www.w3.org/2000/svg" xmlns:ev="http://www.w3.org/2001/xml-events" xmlns:xlink="http://www.w3.org/1999/xlink">
	<defs/>
	<path d="M81,30c0,36.46609 5,72.79953 5,109" fill="none" stroke="black" stroke-linecap="round" stroke-width="5"/>
	<path d="M111,40c0,30.69021 9,61.10892 9,92" fill="none" stroke="black" stroke-linecap="round" stroke-width="5"/>
	<path d="M157,24c0,13.98272 6.90953,32.62098 9,46c2.79401,17.88168 3,38.83594 3,57" fill="none" stroke="black" stroke-linecap="round" stroke-width="5"/>
	<path d="M202,35c5.28105,21.12421 16.65771,48.05372 13,70" fill="none" stroke="black" stroke-linecap="round" stroke-width="5"/>
	<path d="M55,56c49.29718,0 97.05483,-6.96062 146,-9c5.50209,-0.22925 18.58175,2.70912 24,0c3.73079,-1.8654 -10.44065,-17.32683 -12,-20c-3.26468,-5.59659 -7.18585,-13.72862 -14,-16c-11.6423,-3.88077 -97.9484,-1.00573 -116,1c-7.94475,0.88275 -28.61695,1.85086 -32,12c-0.5137,1.54111 11.65873,26.55291 13,27c11.14562,3.71521 47.64556,-31 64,-31c7.4562,0 -2.00526,14 8,14c11.85074,0 21.93097,-7.23274 33,-10c6.2422,-1.56055 13.76882,11.20891 32,6" fill="none" stroke="black" stroke-linecap="round" stroke-width="5"/>
	<path d="M75,155c0,2.58222 15.58482,21.50892 17,30c2.32161,13.92966 -16.98132,48.03736 -14,54c7.02247,14.04494 24.87299,4.19052 31,-5c2.9234,-4.3851 8.73024,-12.92097 10,-18c2.06222,-8.2489 -6.52857,-19.17139 -8,-28c-2.37908,-14.27449 4.24232,-28.27303 0,-41c-0.49333,-1.47999 -0.75754,-3.37877 -2,-4c-9.88495,-4.94247 -26.1005,6 -36,6" fill="none" stroke="black" stroke-linecap="round" stroke-width="5"/>
	<path d="M184,134c3.09996,0 6.7259,8.18072 9,10c33.89454,27.11563 -31.11412,89.56824 28,83c7.45645,-0.82849 11.91488,-4.55317 16,-10c5.27954,-7.03939 10.41352,-8.10539 9,-18c-1.88873,-13.22109 -21,-15.10907 -21,-29c0,-12.89096 15.90076,-35.09924 4,-47c-8.73368,-8.73368 -26.89163,5 -36,5" fill="none" stroke="black" stroke-linecap="round" stroke-width="5"/>
</svg>
