<?xml version="1.0" ?>
<svg baseProfile="full" height="300" version="1.1" viewBox="[0, 0, 300, 300]" width="300" xmlns="http://www.w3.org/2000/svg" xmlns:ev="http://www.w3.org/2001/xml-events" xmlns:xlink="http://www.w3.org/1999/xlink">
	<defs/>
	<path d="M72,83c0,-7.67479 -6.5545,-38.4455 0,-45c6.72447,-6.72447 11.81496,-4.27165 20,-7c31.45845,-10.48615 38.45205,15.90411 50,39c4.65095,9.30191 11,25.67879 11,35" fill="none" stroke="black" stroke-linecap="round" stroke-width="5"/>
	<path d="M72,82c0,9.53846 1,20.1498 1,29" fill="none" stroke="black" stroke-linecap="round" stroke-width="5"/>
	<path d="M73,68c18.16678,0 36.28251,-14 55,-14c0.19282,0 7,-2 7,-2c0,0 -4.06775,-2.06775 -5,-3c-12.19446,-12.19446 -24.41688,-16.79156 -40,-9c-2.41741,1.2087 -17.76964,8.46073 -16,12c0.7531,1.5062 23.36284,-10.27257 27,-11c3.59546,-0.71909 14.05085,-2.0339 11,0c-7.90633,5.27089 -15.48621,10.51906 -24,15c-2.63832,1.38859 -5.23182,2.89273 -8,4c-1.38409,0.55364 -5.38409,1.44636 -4,2c6.20373,2.48149 20.30002,-3.86251 26,-6c2.87911,-1.07966 4.87564,-2 8,-2c1.33333,0 5.33333,0 4,0c-6.4199,0 -20.83866,5.65356 -26,7c-3.67751,0.95935 -11,6.80058 -11,3c0,-2.68742 4.50479,-3.00192 7,-4c1.27607,-0.51043 2.65232,-0.73046 4,-1c1.98821,-0.39764 4.03295,-0.50824 6,-1c2.10063,-0.52516 34.60766,-5.39234 28,-12c-15.20279,-15.20279 -64.84821,-0.84821 -49,15c7.63911,7.63911 30.74155,-10.34831 39,-12c3.28437,-0.65687 8.65514,-1.88505 12,-3c2,-0.66667 8.10819,-2 6,-2c-13.32171,0 -42,-15.26312 -42,11" fill="none" stroke="black" stroke-linecap="round" stroke-width="5"/>
	<path d="M72,110c0,17.83324 3,37.91893 3,54" fill="none" stroke="black" stroke-linecap="round" stroke-width="5"/>
	<path d="M70,104c-6.29284,12.58568 -22,29.70996 -22,43" fill="none" stroke="black" stroke-linecap="round" stroke-width="5"/>
	<path d="M147,91c0,25.41553 -16,52.32165 -16,77" fill="none" stroke="black" stroke-linecap="round" stroke-width="5"/>
	<path d="M153,102c0,20.67778 27,50.86703 27,74" fill="none" stroke="black" stroke-linecap="round" stroke-width="5"/>
</svg>
