<?xml version="1.0" ?>
<svg baseProfile="full" height="300" version="1.1" viewBox="[0, 0, 300, 300]" width="300" xmlns="http://www.w3.org/2000/svg" xmlns:ev="http://www.w3.org/2001/xml-events" xmlns:xlink="http://www.w3.org/1999/xlink">
	<defs/>
	<path d="M31,26c21.6002,43.2004 24.89053,90.6716 40,136c7.98134,23.94401 21.70764,47.41528 33,70" fill="none" stroke="black" stroke-linecap="round" stroke-width="5"/>
	<path d="M209,38c0,33.44244 12.2323,63.34657 16,96c2.91585,25.27069 0.59207,58.18414 12,81" fill="none" stroke="black" stroke-linecap="round" stroke-width="5"/>
	<path d="M76,106c34.81119,0 70.0236,-9.62942 104,-16c3.32607,-0.62364 40.95562,-2.11096 37,-12c-8.94621,-22.36552 -6.77379,-39.81903 -27,-56c-8.66089,-6.92871 -20.83207,-6.87141 -31,-10c-45.68569,-14.05714 -134.25155,-18.51552 -127,54c0.57101,5.71007 3.87491,12.31236 7,17c11.75267,17.629 33.3516,-42.42192 43,-54c0.25913,-0.31095 21,-20.54444 21,-14c0,17.25093 -17.2083,32.25204 -26,45c-4.73032,6.85897 -7.98463,14.93853 -10,23c-0.08085,0.32338 -0.29814,1.14907 0,1c6.28274,-3.14137 28.00124,-27.22342 34,-33c6.62835,-6.38285 14.4565,-13.4565 21,-20c0.2357,-0.2357 0.2195,-1.25086 0,-1c-4.34487,4.96557 -34.06341,41.87317 -33,44c0.29814,0.59628 1.37777,0.23932 2,0c14.66271,-5.6395 25.69681,-15.77261 38,-25c5.17773,-3.8833 10.75315,-7.21061 16,-11c1.14647,-0.82801 3,-4.41421 3,-3c0,14.45215 -15.29021,26.91717 -23,38c-2.72547,3.91786 -6,8.22739 -6,13c0,0.33333 -0.32686,1.06537 0,1c16.73992,-3.34798 28.06766,-14.42152 42,-24c3.3529,-2.30512 6.74492,-4.55869 10,-7c0.59628,-0.44721 2.12254,-1.73521 2,-1c-0.00184,0.01102 -6.92344,12.83063 -4,14c10.31694,4.12678 20.93591,-9 31,-9" fill="none" stroke="black" stroke-linecap="round" stroke-width="5"/>
</svg>
