<?xml version="1.0" ?>
<svg baseProfile="full" height="300" version="1.1" viewBox="[0, 0, 300, 300]" width="300" xmlns="http://www.w3.org/2000/svg" xmlns:ev="http://www.w3.org/2001/xml-events" xmlns:xlink="http://www.w3.org/1999/xlink">
	<defs/>
	<path d="M85,128c16.13385,0 37.26274,-7.26309 53,-10c19.41386,-3.37632 81.40198,-2.55006 69,-37c-2.4031,-6.67529 -9.91881,-23.78755 -16,-29c-29.72385,-25.47758 -87.92389,-28.79492 -100,18c-1.58169,6.12906 -3.40692,61.29654 2,64c1.64197,0.82098 5.53763,-1.53763 6,-2c14.62805,-14.62805 22.38139,-37.43808 35,-54c3.47559,-4.56171 6.81886,-9.22829 10,-14c0.9245,-1.38675 3.40423,-5.6169 3,-4c-1.04858,4.19431 -14.20377,26 -12,26c12.69872,0 26.35373,-10.67687 37,-16c4,-2 10,-10 12,-6c0.94138,1.88276 -0.62807,6.48773 0,9" fill="none" stroke="black" stroke-linecap="round" stroke-width="5"/>
	<path d="M110,118c-4.92899,4.92899 22.84169,89.68338 29,102" fill="none" stroke="black" stroke-linecap="round" stroke-width="5"/>
	<path d="M240,93c4.17116,20.85578 1,61.85 1,85" fill="none" stroke="black" stroke-linecap="round" stroke-width="5"/>
</svg>
