<?xml version="1.0" ?>
<svg baseProfile="full" height="300" version="1.1" viewBox="[0, 0, 300, 300]" width="300" xmlns="http://www.w3.org/2000/svg" xmlns:ev="http://www.w3.org/2001/xml-events" xmlns:xlink="http://www.w3.org/1999/xlink">
	<defs/>
	<path d="M34,25c0,49.9904 -9.08756,98.77764 -3,149c0.89009,7.34321 3.18587,34.19764 14,36c18.18952,3.03159 33.86717,-42.82856 39,-54c4.07188,-8.86233 32.11369,-90.11369 33,-91c3.1798,-3.1798 21.57051,8.61483 26,9c11.89473,1.03432 27.44371,-2.44473 39,2c40.60888,15.6188 -8.26305,110 35,110c8.38071,0 11.65808,-4.69751 19,-10c38.36361,-27.70705 38.31189,-78.28719 44,-120c1.60298,-11.7552 8.28232,-28.58841 6,-40" fill="none" stroke="black" stroke-linecap="round" stroke-width="5"/>
</svg>
