<?xml version="1.0" ?>
<svg baseProfile="full" height="300" version="1.1" viewBox="[0, 0, 300, 300]" width="300" xmlns="http://www.w3.org/2000/svg" xmlns:ev="http://www.w3.org/2001/xml-events" xmlns:xlink="http://www.w3.org/1999/xlink">
	<defs/>
	<path d="M77,55c0,29.31347 -0.66594,58.69872 0,88c0.33363,14.67977 5,28.57214 5,43" fill="none" stroke="black" stroke-linecap="round" stroke-width="5"/>
	<path d="M96,66c0,50.86115 5.26039,100.69252 13,151c2.67484,17.38648 6.004,34.66598 9,52c2.01599,11.66392 3.43223,23.44502 6,35c0.18163,0.81735 1,7.88366 1,3" fill="none" stroke="black" stroke-linecap="round" stroke-width="5"/>
	<path d="M114,58c0,46.96998 17.2524,96.38341 30,141c3.56105,12.46368 7.91951,24.75854 12,37c0.5206,1.5618 -1.29775,4 1,4" fill="none" stroke="black" stroke-linecap="round" stroke-width="5"/>
	<path d="M158,76c0,36.03216 23.6229,101.15185 34,137c2.69906,9.32402 5.8943,18.52433 8,28c0.34288,1.54297 -1.00757,5 1,5" fill="none" stroke="black" stroke-linecap="round" stroke-width="5"/>
	<path d="M184,80c3.61948,28.95582 9.48433,58.49394 16,87c2.40428,10.51872 8,19.2985 8,29" fill="none" stroke="black" stroke-linecap="round" stroke-width="5"/>
	<path d="M206,81c0,46.82319 22,92.5019 22,137" fill="none" stroke="black" stroke-linecap="round" stroke-width="5"/>
	<path d="M225,89c0,41.96377 20,83.07368 20,125" fill="none" stroke="black" stroke-linecap="round" stroke-width="5"/>
	<path d="M82,195c0,-14.37492 10.22645,-61.88678 36,-49c12.76794,6.38397 25.1145,20.22137 42,16c14.03033,-3.50758 56.85834,-17.42778 68,-10c22.7583,15.1722 -19.61732,39.35381 -13,57c3.14798,8.39462 13.31891,19.43242 20,25c1.50812,1.25677 11.59067,9.70467 11,10c-23.7312,11.8656 -82.7284,2 -114,2c-5.00603,0 -33.17721,3.82279 -37,0c-12.66547,-12.66547 12.63811,-46.36189 -9,-68c-1.11137,-1.11137 -2,-4.65845 -2,-7" fill="none" stroke="black" stroke-linecap="round" stroke-width="5"/>
</svg>
