<?xml version="1.0" ?>
<svg baseProfile="full" height="300" version="1.1" viewBox="[0, 0, 300, 300]" width="300" xmlns="http://www.w3.org/2000/svg" xmlns:ev="http://www.w3.org/2001/xml-events" xmlns:xlink="http://www.w3.org/1999/xlink">
	<defs/>
	<path d="M139,51c-31.21049,0 -24.64921,9.77905 -44,33c-0.82195,0.98634 -7.9152,8.3616 -3,10c14.3743,4.79143 113.20523,-11.41045 122,-29c1.50001,-3.00002 -4.71115,-3.74223 -6,-4c-16.5249,-3.30498 -31.67091,-10 -49,-10c-7.10804,0 -17.45417,0 -23,0" fill="none" stroke="black" stroke-linecap="round" stroke-width="5"/>
	<path d="M126,64c3.95539,0 36,1.15047 36,-1" fill="none" stroke="black" stroke-linecap="round" stroke-width="5"/>
	<path d="M114,141c0,16.42722 1.58608,30.99956 6,47c4.70653,17.06117 9.0793,44.11895 19,59c0.26149,0.39223 0.5286,1 1,1c0.66667,0 0,-1.33333 0,-2c0,-10.92229 42.0061,-18.15525 50,-20c11.86241,-2.73748 46.90629,-7.90629 56,-17c1.71594,-1.71594 -1.06665,-4.75997 -2,-7c-10.10044,-24.24106 -15.85299,-58.85299 -34,-77c-6.60182,-6.60182 -65.86868,9.71717 -75,12c-1.8058,0.45145 -27,8.00326 -27,4" fill="none" stroke="black" stroke-linecap="round" stroke-width="5"/>
</svg>
