<?xml version="1.0" ?>
<svg baseProfile="full" height="300" version="1.1" viewBox="[0, 0, 300, 300]" width="300" xmlns="http://www.w3.org/2000/svg" xmlns:ev="http://www.w3.org/2001/xml-events" xmlns:xlink="http://www.w3.org/1999/xlink">
	<defs/>
	<path d="M131,50c-10.26532,0 -32.17476,23.94175 -23,27c10.67786,3.55929 51.11882,-13.03961 63,-17c1.61245,-0.53748 3.33333,-0.66667 5,-1c6.79869,-1.35974 16.40106,-2.26737 22,-6c0.43163,-0.28775 3.39582,-3.30209 2,-4c-21.48069,-10.74035 -52.19344,0 -74,0" fill="none" stroke="black" stroke-linecap="round" stroke-width="5"/>
	<path d="M128,74c0,15.15353 3.85823,32.85823 15,44" fill="none" stroke="black" stroke-linecap="round" stroke-width="5"/>
	<path d="M142,95c0,12.37542 1,24.69915 1,37" fill="none" stroke="black" stroke-linecap="round" stroke-width="5"/>
	<path d="M144,76c0,7.41545 2,13.84121 2,21" fill="none" stroke="black" stroke-linecap="round" stroke-width="5"/>
	<path d="M157,63c0,7.14803 1,15.49789 1,22" fill="none" stroke="black" stroke-linecap="round" stroke-width="5"/>
	<path d="M179,66c0,10.66667 0,21.33333 0,32" fill="none" stroke="black" stroke-linecap="round" stroke-width="5"/>
	<path d="M137,129c9.21736,0 37.96332,5.35779 46,0c6.73143,-4.48762 17.13071,-8 24,-8" fill="none" stroke="black" stroke-linecap="round" stroke-width="5"/>
	<path d="M140,129c0,9.66186 -5.68015,47.15992 6,53c1.33602,0.66801 2.48057,-1.65371 3,-2c10.99748,-7.33165 27.36864,-11.70486 40,-15c8.21049,-2.14187 32.46846,-2.46846 39,-9c0.97183,-0.97183 -0.38536,-2.77073 -1,-4c-4.41162,-8.82324 -16,-29.80295 -16,-38" fill="none" stroke="black" stroke-linecap="round" stroke-width="5"/>
	<path d="M144,179c0,10.66667 0,21.33333 0,32" fill="none" stroke="black" stroke-linecap="round" stroke-width="5"/>
	<path d="M223,153c0,14.33333 0,28.66667 0,43" fill="none" stroke="black" stroke-linecap="round" stroke-width="5"/>
	<path d="M203,164c0,7 0,14 0,21" fill="none" stroke="black" stroke-linecap="round" stroke-width="5"/>
	<path d="M204,174c9.42387,0 17.84086,1 27,1" fill="none" stroke="black" stroke-linecap="round" stroke-width="5"/>
</svg>
