<?xml version="1.0" ?>
<svg baseProfile="full" height="300" version="1.1" viewBox="[0, 0, 300, 300]" width="300" xmlns="http://www.w3.org/2000/svg" xmlns:ev="http://www.w3.org/2001/xml-events" xmlns:xlink="http://www.w3.org/1999/xlink">
	<defs/>
	<path d="M92,56c0,12.76144 6.02917,25.08751 10,37c2.97879,8.93638 5.89244,26.89244 13,34c4.92122,4.92122 20.4298,-5.92264 25,-8c4.69293,-2.13315 12.88855,-3.88855 16,-7c2.649,-2.649 -2.35406,-18.15784 -3,-21c-1.55162,-6.82711 -5.02658,-32.00886 -14,-35c-13.92701,-4.64234 -31.82506,6 -46,6" fill="none" stroke="black" stroke-linecap="round" stroke-width="5"/>
	<path d="M127,165c0,8.48045 3.99041,11.32055 9,18c2.78155,3.70874 4.4312,8.4312 7,11c0.08755,0.08755 25.66137,-6.77689 33,-8c4.10941,-0.6849 17.68819,-0.68819 21,-4c3.41663,-3.41663 -9.60429,-21.97596 -11,-25c-0.53804,-1.16575 -5.40432,-16.59568 -7,-15c-9.56215,9.56215 -34.51558,20 -49,20" fill="none" stroke="black" stroke-linecap="round" stroke-width="5"/>
	<path d="M100,45c-12.42573,0 -21.86304,9.20745 -32,15c-5.06146,2.89226 -12.33955,3.6791 -15,9c-4.15919,8.31838 7.64551,26.27289 10,33c6.99853,19.99581 14.04593,40.00705 21,60c11.33942,32.60082 20.35171,95.35171 45,120c0.89679,0.89679 4,0.04657 4,-1c0,-10.76455 -4,-21.27743 -4,-31c0,-19.88397 -25.39824,-45.60176 -8,-63c3.46715,-3.46715 6.11265,5.2253 7,7c1.9648,3.92959 41.31173,96.87037 35,59c-1.27057,-7.62344 -1.72939,-15.37635 -3,-23c-1.44649,-8.67894 -6,-18.83232 -6,-27" fill="none" stroke="black" stroke-linecap="round" stroke-width="5"/>
</svg>
