<?xml version="1.0" ?>
<svg baseProfile="full" height="300" version="1.1" viewBox="[0, 0, 300, 300]" width="300" xmlns="http://www.w3.org/2000/svg" xmlns:ev="http://www.w3.org/2001/xml-events" xmlns:xlink="http://www.w3.org/1999/xlink">
	<defs/>
	<path d="M96,58c0,23.84602 3.64875,45.54126 7,69c0.19947,1.39632 1,9 1,9c0,0 1.57614,-1.76269 3,-2c12.48109,-2.08018 24.16287,-3 37,-3c0.60678,0 40.63634,-1.63634 41,-2c3.15634,-3.15634 -7.53664,-29.21983 -8,-32c-4.35488,-26.12929 -1.28423,-43.42871 -28,-41c-18.17002,1.65182 -43.53225,6 -59,6" fill="none" stroke="black" stroke-linecap="round" stroke-width="5"/>
	<path d="M118,164c26.3566,0 51.95772,-7 78,-7" fill="none" stroke="black" stroke-linecap="round" stroke-width="5"/>
	<path d="M118,166c0,11.6367 19.89974,27.3219 27,36c1.20168,1.46871 31.57652,38 33,38c2.848,0 0.63032,-6.42021 3,-8c8.64383,-5.76256 22.17015,-10.08507 30,-14c6.05759,-3.02879 14.94412,-2.97206 21,-6c1.9239,-0.96195 7.5356,1.4644 9,0c0.84582,-0.84582 -0.80516,-5.41548 -1,-6c-2.66076,-7.98227 -44,-36.17095 -44,-49" fill="none" stroke="black" stroke-linecap="round" stroke-width="5"/>
	<path d="M88,61c0,27.13231 4.10181,88.30542 12,112c4.01694,12.05083 -1.79309,38.7587 0,54c0.19859,1.68803 0.85885,3.3062 1,5c0.19377,2.32527 -0.17896,4.67354 0,7c0.15551,2.02162 0.83162,3.97942 1,6c1.04349,12.52183 2,26.83443 2,39c0,0.41176 0.26471,2.73529 0,3c-1.50923,1.50923 2.86563,-4 5,-4c8.71472,0 7.62273,-4.73638 9,-13c3.30962,-19.85772 1,-42.48143 1,-61c0,-3.66667 0,-11 0,-11c0,0 2.61587,8.23174 3,9c3.2384,6.4768 5.86149,18.86149 11,24c3.02259,3.02259 11.94096,6.94096 15,10c2.9697,2.9697 1,17.13385 1,21c0,1.77595 8,23 8,23c0,0 -11.27117,-32 -2,-32" fill="none" stroke="black" stroke-linecap="round" stroke-width="5"/>
	<path d="M153,277c3.2289,3.2289 16.05964,0.94036 18,-1c6.0556,-6.0556 -6.44673,-19.10654 -4,-24c2.22202,-4.44405 4.59444,-8.18888 7,-13c0.76741,-1.53483 1.72605,-6 3,-6" fill="none" stroke="black" stroke-linecap="round" stroke-width="5"/>
	<path d="M228,210c0,8.2367 -1.35769,17.85387 0,26c1.29458,7.7675 4.54037,15.6211 7,23c11.41328,34.23983 18.69688,-47.30312 8,-58" fill="none" stroke="black" stroke-linecap="round" stroke-width="5"/>
	<path d="M90,54c21.083,0 87.60676,-19.7153 98,8c9.05705,24.15214 8.02587,54.05174 19,76c3.34558,6.69116 2,17.96492 2,26c0,4.34613 1,17.34613 1,13" fill="none" stroke="black" stroke-linecap="round" stroke-width="5"/>
	<path d="M214,218c0,4.43821 3.43889,28.56111 0,32c-1.25541,1.25541 -2.84416,-0.84416 -3,-1c-8.31666,-8.31666 -6.06434,-27 -9,-27" fill="none" stroke="black" stroke-linecap="round" stroke-width="5"/>
</svg>
