<?xml version="1.0" ?>
<svg baseProfile="full" height="300" version="1.1" viewBox="[0, 0, 300, 300]" width="300" xmlns="http://www.w3.org/2000/svg" xmlns:ev="http://www.w3.org/2001/xml-events" xmlns:xlink="http://www.w3.org/1999/xlink">
	<defs/>
	<path d="M87,33c0,3.60052 -3.44791,9.0312 -4,14c-0.52216,4.69942 0.93132,70.93132 6,76c1.08028,1.08028 51.33305,-11.69224 57,-13c2.48132,-0.57261 44.88134,-8.64401 46,-12c3.45823,-10.3747 -5.87778,-27.44999 -8,-37c-1.26078,-5.67353 0.13187,-22.86813 -4,-27c-2.81495,-2.81495 -16.74392,0 -21,0c-6.39823,0 -47,-1.90764 -47,3" fill="none" stroke="black" stroke-linecap="round" stroke-width="5"/>
	<path d="M157,136c-7.70351,0 -7.52017,52.23991 10,61c11.86719,5.9336 63.35327,-17.73891 75,-21c6.28059,-1.75857 30.76831,-0.60987 32,-8c1.83019,-10.98115 -0.64066,-24.12528 -2,-35c-3.65717,-29.25735 -9.86203,-21.65519 -39,-10c-23.92634,9.57054 -58.3854,21 -84,21" fill="none" stroke="black" stroke-linecap="round" stroke-width="5"/>
	<path d="M73,100c24.01321,0 55.96503,-12.63153 79,-2c37.28432,17.20815 31,111.79984 31,146" fill="none" stroke="black" stroke-linecap="round" stroke-width="5"/>
	<path d="M171,88c10.58471,0 22.05723,-7.06205 33,-8c18.79306,-1.61083 74.223,-8.06936 87,14c22.60821,39.05054 -15.47444,88.05113 5,129" fill="none" stroke="black" stroke-linecap="round" stroke-width="5"/>
</svg>
