<?xml version="1.0" ?>
<svg baseProfile="full" height="300" version="1.1" viewBox="[0, 0, 300, 300]" width="300" xmlns="http://www.w3.org/2000/svg" xmlns:ev="http://www.w3.org/2001/xml-events" xmlns:xlink="http://www.w3.org/1999/xlink">
	<defs/>
	<path d="M94,32c0,10.39058 0.73351,85.73351 6,91c7.28312,7.28312 57.27756,-10.39501 69,-13c6.08545,-1.35232 55.5455,-8.091 57,-11c3.30007,-6.60015 -8.4242,-26.90892 -10,-34c-0.81562,-3.67031 -6.71693,-54.35847 -10,-56c-7.82645,-3.91322 -24.5667,9.21251 -32,12c-23.89188,8.95946 -56.06661,17 -82,17" fill="none" stroke="black" stroke-linecap="round" stroke-width="5"/>
	<path d="M128,146c-5.73006,0 5.58545,13.57506 7,16c4.41458,7.56785 8.18655,25.36443 18,27c10.81034,1.80172 81.95074,-23.98768 102,-29c0.97014,-0.24254 2.29289,0.70711 3,0c2.28443,-2.28443 -1,-18.94314 -1,-22c0,-3.65419 2.65183,-21.34817 0,-24c-2.29236,-2.29236 -15.55246,5.46006 -22,8c-3.94225,1.55301 -99.45671,27.54329 -103,24" fill="none" stroke="black" stroke-linecap="round" stroke-width="5"/>
	<path d="M79,97c0,3.53232 28.33615,6.47659 32,7c25.06654,3.58093 58.53029,2.64814 76,24c17.89136,21.86721 6.39677,57.83395 4,83c-0.23438,2.46103 -0.0553,20 4,20" fill="none" stroke="black" stroke-linecap="round" stroke-width="5"/>
	<path d="M194,73c28.0077,0 63.70255,-15.34018 90,0c20.31794,11.85213 5,113.49287 5,137" fill="none" stroke="black" stroke-linecap="round" stroke-width="5"/>
	<path d="M293,209c-24.06704,0 -50.86673,-17.34451 -66,-35c-6.48853,-7.56996 -10.18414,-16.74731 -18,-23c-2.24336,-1.79468 -6,-0.16077 -6,3" fill="none" stroke="black" stroke-linecap="round" stroke-width="5"/>
	<path d="M210,154c-20.31354,0 -38.79495,12.15498 -58,18c-13.15712,4.00434 -46.08832,0.08832 -56,10c-0.16972,0.16972 -0.08716,2.73853 0,3c4.17027,12.51081 10.77962,24.81912 16,37c4.18596,9.76724 8.54305,19.23444 17,26" fill="none" stroke="black" stroke-linecap="round" stroke-width="5"/>
</svg>
