<?xml version="1.0" ?>
<svg baseProfile="full" height="300" version="1.1" viewBox="[0, 0, 300, 300]" width="300" xmlns="http://www.w3.org/2000/svg" xmlns:ev="http://www.w3.org/2001/xml-events" xmlns:xlink="http://www.w3.org/1999/xlink">
	<defs/>
	<path d="M107,67c-10.23244,-10.23244 -13.86168,-25.76288 -21,-38c-0.09521,-0.16322 -4.00922,-4.99078 -3,-6c0.94281,-0.94281 2.67836,-0.17622 4,0c16.48601,2.19813 32.28717,5 49,5c18.66667,0 37.33333,0 56,0c31.50837,0 26,8.48354 26,41" fill="none" stroke="black" stroke-linecap="round" stroke-width="5"/>
	<path d="M106,77c1.78812,0 1.57288,-1.28644 3,-2c1.1287,-0.56435 -14.0159,2 -20,2c-7.12214,0 -26.87964,-4.56018 -34,-1c-0.41906,0.20953 -2.93783,2.5648 -3,3c-1.30362,9.12536 -7.05983,68.94017 -4,72c3.52648,3.52648 54.19488,-13.01949 64,-14c46.35012,-4.63501 118.2074,11.59753 159,-2c3.76359,-1.25453 6.91197,-54.64789 9,-63c0.14378,-0.57514 1.98595,-5.01405 1,-6c-2.36878,-2.36878 -6.65004,1 -10,1c-15.33333,0 -30.66667,0 -46,0" fill="none" stroke="black" stroke-linecap="round" stroke-width="5"/>
	<path d="M118,136c0,12.17803 8.88536,22.56689 17,33c4.18572,5.38164 10.9846,26.3282 16,28c4.74349,1.58116 55.4568,-8 66,-8c12.09293,0 24.03996,1.15999 36,3c4.86718,0.7488 8.53229,2.51076 13,4c0.31623,0.10541 1,0.33333 1,0c0,-13.5976 -8.9817,-33.94054 -13,-47c-0.53826,-1.74935 -1.6833,-8 -3,-8" fill="none" stroke="black" stroke-linecap="round" stroke-width="5"/>
	<path d="M114,149c0,19.66729 -51.4091,58.4091 -66,73" fill="none" stroke="black" stroke-linecap="round" stroke-width="5"/>
	<path d="M152,184c0,21.98018 -16,41.56329 -16,63" fill="none" stroke="black" stroke-linecap="round" stroke-width="5"/>
	<path d="M232,204c-9.36029,9.36029 -13.38218,23.05744 -15,36" fill="none" stroke="black" stroke-linecap="round" stroke-width="5"/>
	<path d="M271,205c0,14.47186 3.49002,27.96008 7,42" fill="none" stroke="black" stroke-linecap="round" stroke-width="5"/>
</svg>
