<?xml version="1.0" ?>
<svg baseProfile="full" height="300" version="1.1" viewBox="[0, 0, 300, 300]" width="300" xmlns="http://www.w3.org/2000/svg" xmlns:ev="http://www.w3.org/2001/xml-events" xmlns:xlink="http://www.w3.org/1999/xlink">
	<defs/>
	<path d="M95,65c-4.14704,0 -17.43446,-31.04369 -13,-34c10.51401,-7.00934 35.13819,0.01256 46,1c40.58946,3.68995 53,-16.93561 53,30" fill="none" stroke="black" stroke-linecap="round" stroke-width="5"/>
	<path d="M96,82c0,1.61144 -22.26687,-2.80478 -25,-3c-7.24905,-0.51779 -28.44761,-6.55239 -34,-1c-4.83233,4.83233 5.68643,23.21607 8,29c3.08944,7.72359 5.36788,15.05182 10,22c10.54497,15.81745 49.34457,1.77134 64,1c27.73689,-1.45984 55.40208,-0.83986 83,1c4.65633,0.31042 10.70017,3.29983 14,0c9.25609,-9.25609 8.35747,-57.71495 16,-73c0.14907,-0.29814 0.2357,0.7643 0,1c-3.44323,3.44323 -13.6727,5.66817 -19,7c-11.3789,2.84473 -23.41728,4.34533 -35,6c-37.33728,5.3339 -78.80675,14 -116,14" fill="none" stroke="black" stroke-linecap="round" stroke-width="5"/>
	<path d="M117,134c-3.15133,0 -0.2368,24.39515 0,27c1.83325,20.16574 2.63026,46.97156 29,49c16.89937,1.29995 96.69758,-6.71613 105,-20c6.72054,-10.75286 -27,-43.60456 -27,-57" fill="none" stroke="black" stroke-linecap="round" stroke-width="5"/>
	<path d="M107,137c-6.6304,0 -13.54406,20.1249 -17,26c-12.81817,21.7909 -35.76716,41.9179 -45,65" fill="none" stroke="black" stroke-linecap="round" stroke-width="5"/>
	<path d="M147,212c-5.37262,5.37262 -4,15.25403 -4,22" fill="none" stroke="black" stroke-linecap="round" stroke-width="5"/>
	<path d="M240,204c-5.21186,10.42373 0.35952,23.43806 3,34" fill="none" stroke="black" stroke-linecap="round" stroke-width="5"/>
	<path d="M274,180c-3.23844,0 1.78436,4.79463 2,5c5.81318,5.53637 11.91972,10.75838 18,16c11.14832,9.61062 22.22433,19.16824 34,28" fill="none" stroke="black" stroke-linecap="round" stroke-width="5"/>
</svg>
