<?xml version="1.0" ?>
<svg baseProfile="full" height="300" version="1.1" viewBox="[0, 0, 300, 300]" width="300" xmlns="http://www.w3.org/2000/svg" xmlns:ev="http://www.w3.org/2001/xml-events" xmlns:xlink="http://www.w3.org/1999/xlink">
	<defs/>
	<path d="M94,27c-4.26905,4.26905 -5,7.91606 -5,16c0,1.66667 0,5 0,5c0,0 0.60236,-4.01179 1,-6c2.0204,-10.102 13.44517,-12.93835 23,-14c26.06995,-2.89666 51.10132,3.64557 77,6c34.43893,3.13081 59.86901,-3.34506 51,41c-0.82249,4.11246 -2.32592,14.16296 -6,16c-6.37099,3.18549 -80.28322,-4 -96,-4c-7.87204,0 -32.59967,9.80025 -39,5c-10.13393,-7.60045 -16.88696,-24.33913 -13,-36" fill="none" stroke="black" stroke-linecap="round" stroke-width="5"/>
	<path d="M114,100c-0.85917,0 -4.38956,-8.41566 -6,-6c-19.83999,29.75999 -31.49819,76.87184 -51,111c-5.22042,9.13574 -19,24.3494 -19,35" fill="none" stroke="black" stroke-linecap="round" stroke-width="5"/>
	<path d="M141,107c-5.35816,10.71631 -5.24086,25.4116 -8,37c-8.70806,36.57385 -22,72.13479 -22,110" fill="none" stroke="black" stroke-linecap="round" stroke-width="5"/>
	<path d="M220,94c-7.52772,7.52772 -10.66814,67.67255 -14,81c-0.47055,1.88221 -1.28179,10 -4,10" fill="none" stroke="black" stroke-linecap="round" stroke-width="5"/>
	<path d="M241,100c-8.26009,0 -2.70033,23.16388 -2,29c3.8079,31.73252 14,66.20832 14,98" fill="none" stroke="black" stroke-linecap="round" stroke-width="5"/>
	<path d="M248,85c0,0.74536 1.26214,0.89459 2,1c14.27207,2.03887 28.87376,4.17475 43,7c8.40984,1.68197 17.3471,5 26,5" fill="none" stroke="black" stroke-linecap="round" stroke-width="5"/>
	<path d="M74,75c0,2.62245 2.74773,2.60254 5,3c26.25091,4.63251 46.8445,6.2455 73,5" fill="none" stroke="black" stroke-linecap="round" stroke-width="5"/>
	<path d="M98,126c-4.57711,4.57711 10.16123,4.86756 11,5c4.00555,0.63246 7.97614,1.49702 12,2c15.63796,1.95475 19.93934,0.53511 39,1c13.21881,0.32241 107.03148,1.03148 114,8c1.38965,1.38965 -6.7013,20.31166 -7,23c-0.69918,6.29265 1.86994,14.26011 -1,20c-2.98994,5.97988 -64.85042,-5.82423 -77,-7c-28.34087,-2.74266 -56.76577,-4.31727 -85,-8c-47.22581,-6.15989 -47.1228,-12.8772 -11,-49" fill="none" stroke="black" stroke-linecap="round" stroke-width="5"/>
</svg>
