<?xml version="1.0" ?>
<svg baseProfile="full" height="300" version="1.1" viewBox="[0, 0, 300, 300]" width="300" xmlns="http://www.w3.org/2000/svg" xmlns:ev="http://www.w3.org/2001/xml-events" xmlns:xlink="http://www.w3.org/1999/xlink">
	<defs/>
	<path d="M106,94c-1.29186,0 -3.08234,-21.24701 -4,-24c-0.57776,-1.73328 -8.46097,-19.76951 -8,-20c7.85103,-3.92551 30.55021,5.53057 39,6c15.3083,0.85046 30.49945,-3.64984 45,-8c2.43153,-0.72946 5.20495,-4.79505 7,-3c0.4714,0.4714 0.09428,1.34003 0,2c-2.3625,16.53748 1,32.53285 1,49" fill="none" stroke="black" stroke-linecap="round" stroke-width="5"/>
	<path d="M119,116c-3.36073,0 -6.49902,-4.22201 -10,-5c-17.32574,-3.85017 -38.28587,2.10713 -56,1c-0.01206,-0.00075 -9.80836,-1.57492 -10,-1c-2.27259,6.81778 5.48101,24.78479 7,32c2.59466,12.32462 1.56971,34.13942 7,45c1.88562,3.77124 7.79948,3.63474 12,4c33.29246,2.895 74.24487,3.09439 107,-1c22.35219,-2.79402 82.36194,-8.68956 99,-22c9.74042,-7.79234 3.7306,-23.77156 3,-34c-0.55491,-7.76876 1.36732,-32.81634 -7,-37c-3.34303,-1.67151 -21.31153,4.55738 -25,5c-22.4698,2.69638 -46.01796,1.50449 -68,7" fill="none" stroke="black" stroke-linecap="round" stroke-width="5"/>
</svg>
