<?xml version="1.0" ?>
<svg baseProfile="full" height="300" version="1.1" viewBox="[0, 0, 300, 300]" width="300" xmlns="http://www.w3.org/2000/svg" xmlns:ev="http://www.w3.org/2001/xml-events" xmlns:xlink="http://www.w3.org/1999/xlink">
	<defs/>
	<path d="M69,29c0,10.07538 6.80589,22.25303 8,33c1.44407,12.99667 -5.11474,52.83789 11,60c17.94089,7.97373 47.41684,-8.31116 65,-13c10.78395,-2.87572 37.06261,-4.06261 45,-12c4.62635,-4.62635 -15.49924,-74.74962 -24,-79c-0.59628,-0.29814 -1.36754,-0.21082 -2,0c-25.8889,8.62963 -52.78425,11 -80,11" fill="none" stroke="black" stroke-linecap="round" stroke-width="5"/>
	<path d="M96,133c0,1.63495 5.91579,4.74738 7,8c2.28305,6.84915 2.33654,19.33654 8,25c8.77023,8.77023 108.61677,-22.30839 126,-31c3.76521,-1.88261 -5.18512,-29.59256 -10,-32c-10.67592,-5.33796 -34.52923,2.36394 -45,4c-15.61611,2.44002 -31.32496,4.04062 -47,6" fill="none" stroke="black" stroke-linecap="round" stroke-width="5"/>
	<path d="M138,177c0,-3.68179 1,7.31821 1,11c0,9.38843 3.32997,30.46801 -8,35c-15.1791,6.07164 -92,-3.61035 -92,-23" fill="none" stroke="black" stroke-linecap="round" stroke-width="5"/>
	<path d="M230,144c-4.21168,0 -2.5214,2.6498 -3,6c-1.34724,9.43065 1.19291,60.60236 -9,64c-24.21037,8.07012 -39.20064,-23.60032 -56,-32c-18.30014,-9.15007 -92.93078,21 -119,21" fill="none" stroke="black" stroke-linecap="round" stroke-width="5"/>
</svg>
