<?xml version="1.0" ?>
<svg baseProfile="full" height="300" version="1.1" viewBox="[0, 0, 300, 300]" width="300" xmlns="http://www.w3.org/2000/svg" xmlns:ev="http://www.w3.org/2001/xml-events" xmlns:xlink="http://www.w3.org/1999/xlink">
	<defs/>
	<path d="M97,78c-1.53698,0 -1.59113,-2.36454 -2,-4c-1.8275,-7.30998 -8.89139,-34.21723 -5,-42c1.28008,-2.56016 13.14822,-0.20575 15,0c19.01326,2.11258 55.96184,-7.34605 72,-2c3.2826,1.0942 4.93657,42.93657 11,49" fill="none" stroke="black" stroke-linecap="round" stroke-width="5"/>
	<path d="M98,100c-6.50669,0 -12.34393,-3 -19,-3c-16.86983,0 -33.20394,3.88026 -50,5c-0.4747,0.03165 -9,-0.86951 -9,1c0,7.64348 13.6554,25.09052 16,34c5.31845,20.21012 0.36298,60.78981 29,59c25.31698,-1.58231 49.66983,-8.50999 75,-10c39.96611,-2.35095 94.50901,2.2455 131,-16c0.88343,-0.44172 -2.90268,-6.74047 -3,-7c-3.57395,-9.53053 -7.28758,-17.92529 -10,-28c-3.7401,-13.89181 -5.49213,-43.49213 -17,-55c-1.28044,-1.28044 -5.72217,2.84124 -6,3c-14.24037,8.13736 -38.88203,12 -55,12" fill="none" stroke="black" stroke-linecap="round" stroke-width="5"/>
</svg>
