<?xml version="1.0" ?>
<svg baseProfile="full" height="300" version="1.1" viewBox="[0, 0, 300, 300]" width="300" xmlns="http://www.w3.org/2000/svg" xmlns:ev="http://www.w3.org/2001/xml-events" xmlns:xlink="http://www.w3.org/1999/xlink">
	<defs/>
	<path d="M39,92c0,11.26828 -2.82999,85.585 8,91c2.75523,1.37761 5.16853,-1.92132 6,-4c4.99787,-12.49467 -2.00027,-37.99973 6,-46c0.28866,-0.28866 26.37809,8.37809 27,9c4.9262,4.9262 -7.08954,31.91046 -1,38c4.37685,4.37685 10.88949,8.44204 14,-4c0.92355,-3.69418 2.11477,-6.45906 3,-10c1.47319,-5.89277 2,-10.68973 2,-17" fill="none" stroke="black" stroke-linecap="round" stroke-width="5"/>
	<path d="M58,128c10.15922,0 19.42263,0.16905 29,4c7.59149,3.03659 10.70947,13.35473 18,17c12.52276,6.26138 23.90193,-27.95097 30,-31c1.05038,-0.52519 1.35054,-1.94838 1,-3c-2.54065,-7.62196 -22.18891,-13.27556 -29,-16c-4.05928,-1.62371 -28.2735,-21.7265 -33,-17c-4.07743,4.07743 -6.24245,12.1743 -9,17c-4.1126,7.19705 -15,23.38053 -15,32" fill="none" stroke="black" stroke-linecap="round" stroke-width="5"/>
	<path d="M121,130c1.70575,0 1,1.42009 1,3c0,7.74413 -4.69107,36.34553 12,28c10.79096,-5.39548 7.11295,-45 0,-45" fill="none" stroke="black" stroke-linecap="round" stroke-width="5"/>
	<path d="M36,93c0,-20.46289 8.69509,-34.69509 21,-47c0.28958,-0.28958 3.44527,-3.55473 5,-2c1.39563,1.39563 -1.91909,6.81122 -2,7c-5.42219,12.65179 -24,25.80746 -24,39" fill="none" stroke="black" stroke-linecap="round" stroke-width="5"/>
	<path d="M62,51c0,5.13202 2.57852,20.26445 1,25c-0.2357,0.70711 -0.55279,1.40372 -1,2c-9.8417,13.12227 -16.10004,27.20008 -23,41c-0.54551,1.09102 -0.96358,2 -2,2" fill="none" stroke="black" stroke-linecap="round" stroke-width="5"/>
	<path d="M66,76c3.14597,3.14597 3.10177,9.10177 6,12" fill="none" stroke="black" stroke-linecap="round" stroke-width="5"/>
</svg>
