<?xml version="1.0" ?>
<svg baseProfile="full" height="300" version="1.1" viewBox="[0, 0, 300, 300]" width="300" xmlns="http://www.w3.org/2000/svg" xmlns:ev="http://www.w3.org/2001/xml-events" xmlns:xlink="http://www.w3.org/1999/xlink">
	<defs/>
	<path d="M89,121c0,1.41421 3,1.58579 3,3c0,28.05753 6,56.66264 6,85c0,1.11461 -0.69458,7.65271 0,8c3.4807,1.74035 11.58174,-0.79893 15,-1c21.09431,-1.24084 70.81191,-10.0627 92,-3c1.68465,0.56155 5.47156,5 7,5c1.49071,0 -1.44636,-2.61591 -2,-4c-1.65411,-4.13527 -2.84295,-8.75747 -4,-13c-2.9642,-10.86872 -6.81062,-22.0531 -9,-33c-3.57501,-17.87507 -2,-38.07652 -2,-57c0,-1.33333 1.19257,-3.40372 0,-4c-13.54665,-6.77333 -102,-11.37857 -102,9" fill="none" stroke="black" stroke-linecap="round" stroke-width="5"/>
	<path d="M92,117c0,5.44654 6.59729,10.38915 8,16c3.43107,13.7243 8.68084,76.95747 4,91c-4.89501,14.68504 -23,53.00147 -23,64" fill="none" stroke="black" stroke-linecap="round" stroke-width="5"/>
	<path d="M101,215c-1.92579,0 -23,-13 -23,-13c0,0 1.87475,3.62426 2,4c2.53113,7.5934 4.04325,19.88467 1,28c-7.09009,18.90692 -16.28847,36.28847 -30,50c-0.70975,0.70975 -3,4 -3,4c0,0 2.8837,-6.82555 3,-7c7.97313,-11.9597 16.86003,-26.20011 21,-40c9.06951,-30.2317 2.43861,-62.75442 10,-93c2.14122,-8.56489 14,-38.54733 14,-44" fill="none" stroke="black" stroke-linecap="round" stroke-width="5"/>
	<path d="M110,178c18.99866,0 42.2653,1.74694 61,-2c9.8418,-1.96836 18.8508,-7 29,-7c1.33333,0 1.33333,0 0,0" fill="none" stroke="black" stroke-linecap="round" stroke-width="5"/>
	<path d="M196,148c0,29.45861 15.20854,52.25124 20,81c3.16485,18.9891 -6,36.24916 -6,54c0,0.80124 -0.63848,5.36152 0,6c4.43061,4.43061 15.13821,7 21,7" fill="none" stroke="black" stroke-linecap="round" stroke-width="5"/>
	<path d="M180,205c0,19.50535 -3,38.9062 -3,58" fill="none" stroke="black" stroke-linecap="round" stroke-width="5"/>
	<path d="M133,180c-2.05703,0 -0.60805,-2.23622 -1,-4c-3.20344,-14.41546 -9,-28.05436 -9,-43" fill="none" stroke="black" stroke-linecap="round" stroke-width="5"/>
	<path d="M160,177c0,-1.66667 0,-3.33333 0,-5c0,-22.24339 -2,-44.34536 -2,-66c0,-1.5424 1.18577,-8 -1,-8" fill="none" stroke="black" stroke-linecap="round" stroke-width="5"/>
	<path d="M126,150c0,-12.55765 -2,-24.71002 -2,-37" fill="none" stroke="black" stroke-linecap="round" stroke-width="5"/>
</svg>
