<?xml version="1.0" ?>
<svg baseProfile="full" height="300" version="1.1" viewBox="[0, 0, 300, 300]" width="300" xmlns="http://www.w3.org/2000/svg" xmlns:ev="http://www.w3.org/2001/xml-events" xmlns:xlink="http://www.w3.org/1999/xlink">
	<defs/>
	<path d="M85,145c0,-12.18956 43.4065,-16.39838 53,-14c0.7231,0.18078 1.29289,0.7643 2,1c1.49362,0.49787 2.63243,1.31622 4,2c2.53875,1.26937 4.71033,1.42065 6,4c2.36642,4.73284 -8.18904,15.81096 -4,20c9.42585,9.42585 31.0286,25.94279 22,44c-10.91999,21.83998 -73.27663,3.08506 -84,-13c-5.69763,-8.54644 -0.27295,-14.4541 3,-21c2.37634,-4.75268 -3,-14.69187 -3,-21c0,-0.61024 -0.38964,-3.61036 0,-4c0.74019,-0.74019 3,-0.5795 3,-2" fill="none" stroke="black" stroke-linecap="round" stroke-width="5"/>
</svg>
