<?xml version="1.0" ?>
<svg baseProfile="full" height="300" version="1.1" viewBox="[0, 0, 300, 300]" width="300" xmlns="http://www.w3.org/2000/svg" xmlns:ev="http://www.w3.org/2001/xml-events" xmlns:xlink="http://www.w3.org/1999/xlink">
	<defs/>
	<path d="M100,159c0,-18.7099 -6.29588,-48.40824 2,-65c8.32442,-16.64885 56.97267,-31.05465 67,-11c1.13529,2.27058 2.19723,4.59168 3,7c6.81995,20.45986 6,42.5987 6,64c0,1.50836 0.7631,5 -1,5" fill="none" stroke="black" stroke-linecap="round" stroke-width="5"/>
	<path d="M105,133c25.08697,0 49.57917,-5 74,-5" fill="none" stroke="black" stroke-linecap="round" stroke-width="5"/>
	<path d="M98,156c10.71301,10.71301 11.65894,38.32947 25,45c0.69744,0.34872 60.91495,-12.91495 63,-15c2.89318,-2.89318 -0.46772,-20.80629 -1,-24c-0.63081,-3.78487 -1.6821,-15.84105 -6,-18c-17.06583,-8.53292 -61.22449,8 -79,8" fill="none" stroke="black" stroke-linecap="round" stroke-width="5"/>
</svg>
