<?xml version="1.0" ?>
<svg baseProfile="full" height="300" version="1.1" viewBox="[0, 0, 300, 300]" width="300" xmlns="http://www.w3.org/2000/svg" xmlns:ev="http://www.w3.org/2001/xml-events" xmlns:xlink="http://www.w3.org/1999/xlink">
	<defs/>
	<path d="M59,102c0,10.08143 9.4133,21.03324 13,30c5.67589,14.18973 2,35.47521 2,51" fill="none" stroke="black" stroke-linecap="round" stroke-width="5"/>
	<path d="M61,101c0,-2.3838 26.08395,-0.7349 29,-1c4.19132,-0.38103 53.42698,-2.57302 55,-1c32.7559,32.7559 22,74.61251 22,117" fill="none" stroke="black" stroke-linecap="round" stroke-width="5"/>
	<path d="M146,104c0,14.66667 0,29.33333 0,44c0,0.07708 -0.23107,4.88447 0,5c5.33203,2.66601 24,23.45288 24,30c0,0.4714 -0.55279,0.85093 -1,1c-22.24789,7.41596 -53.48555,9 -77,9c-1.84158,0 -4.73371,0.26629 -6,-1c-4.09925,-4.09925 -4.86192,-11.01116 -7,-16c-1.46381,-3.41555 -7.34055,-11.97836 -6,-16c1.66775,-5.00325 63.79135,-21.20865 75,-10c1.23108,1.23108 4,1.37912 4,3" fill="none" stroke="black" stroke-linecap="round" stroke-width="5"/>
	<path d="M74,153c0,12.01273 2.33099,26.34507 0,38c-2.87694,14.38468 -17.50596,24.01191 -23,35c-0.57199,1.14398 -0.90868,3 -2,3" fill="none" stroke="black" stroke-linecap="round" stroke-width="5"/>
	<path d="M88,184c0,13.00169 0.02353,25.9059 -3,38c-1.37771,5.51086 -6,10.11315 -6,16" fill="none" stroke="black" stroke-linecap="round" stroke-width="5"/>
	<path d="M147,188c0,12 0,24 0,36" fill="none" stroke="black" stroke-linecap="round" stroke-width="5"/>
	<path d="M86,105c0,15.42219 1,30.66356 1,46" fill="none" stroke="black" stroke-linecap="round" stroke-width="5"/>
	<path d="M107,100c0,14.92459 1,30.48201 1,45" fill="none" stroke="black" stroke-linecap="round" stroke-width="5"/>
	<path d="M118,104c0,18.07891 1,35.94847 1,54" fill="none" stroke="black" stroke-linecap="round" stroke-width="5"/>
</svg>
