<?xml version="1.0" ?>
<svg baseProfile="full" height="300" version="1.1" viewBox="[0, 0, 300, 300]" width="300" xmlns="http://www.w3.org/2000/svg" xmlns:ev="http://www.w3.org/2001/xml-events" xmlns:xlink="http://www.w3.org/1999/xlink">
	<defs/>
	<path d="M66,73c0,14.89138 -1.05948,30.16733 0,45c0.33855,4.73975 5.52911,37.84304 6,38c4.89915,1.63305 62.25288,-6.50575 63,-8c4.51894,-9.03788 2,-24.9704 2,-35c0,-11.9964 5.43483,-38.84776 -2,-50c-5.24229,-7.86343 -36.92377,-1.15375 -45,0c-9.16589,1.30941 -22.12925,-0.87075 -29,6" fill="none" stroke="black" stroke-linecap="round" stroke-width="5"/>
	<path d="M136,63c0,-6.2283 -40.92413,-14.01897 -49,-12c-4.7246,1.18115 -8.57437,8.57437 -11,11c-3.23085,3.23085 -13.38923,-0.61077 -16,2c-8.88114,8.88114 0.06593,31.32964 2,41c5.2597,26.29849 6.31736,63.41319 1,90c-1.1118,5.55902 -4.20521,30.89739 2,34c15.99325,7.99662 17.70284,-42.70284 25,-50c2.01266,-2.01266 15.79546,0 19,0c1.94874,0 14.25766,-1.74234 16,0c3.41301,3.41301 -8.9962,42.0038 -1,50c16.97315,16.97315 17.11911,-40.76178 13,-49c-0.08301,-0.16602 -4.78006,-1 -5,-1c-13.92523,0 -30.59148,-8 -45,-8c-1.56061,0 -8.73484,3.26516 -9,3c-1.62841,-1.62841 -0.06635,-15.40048 1,-17c0.78446,-1.1767 1.62801,-2.657 3,-3c9.05288,-2.26322 18.75524,0.15559 28,-1c22.97593,-2.87199 35.36837,-9.87721 59,-2c1.10244,0.36748 6,1.33239 6,2c0,1.13949 -4.23244,2.69297 -5,3c-4.60236,1.84094 -36,30.82422 -36,34" fill="none" stroke="black" stroke-linecap="round" stroke-width="5"/>
	<path d="M154,173c0,5.33333 0,10.66667 0,16c0,5.27507 -1.21593,11.71209 2,16c17.60878,23.47837 20.16735,-54 12,-54" fill="none" stroke="black" stroke-linecap="round" stroke-width="5"/>
	<path d="M106,180c0,17.31891 15,7.67702 15,-5" fill="none" stroke="black" stroke-linecap="round" stroke-width="5"/>
</svg>
