<?xml version="1.0" ?>
<svg baseProfile="full" height="300" version="1.1" viewBox="[0, 0, 300, 300]" width="300" xmlns="http://www.w3.org/2000/svg" xmlns:ev="http://www.w3.org/2001/xml-events" xmlns:xlink="http://www.w3.org/1999/xlink">
	<defs/>
	<path d="M108,167c0,8.2934 -7.91668,23.08332 0,31c0.4714,0.4714 -0.3698,-1.4453 0,-2c8.76105,-13.14157 20,-14.32284 20,-32" fill="none" stroke="black" stroke-linecap="round" stroke-width="5"/>
	<path d="M155,175c0,5.44015 0.689,10.93299 -1,16c-0.70198,2.10595 3.29196,7.41608 4,6c7.93439,-15.86877 -0.74439,-38.76682 5,-56" fill="none" stroke="black" stroke-linecap="round" stroke-width="5"/>
	<path d="M218,160c0,51.92016 25,29.72882 25,-2" fill="none" stroke="black" stroke-linecap="round" stroke-width="5"/>
	<path d="M249,159c1.10993,9.98933 1.71732,18.29862 4,28c1.27408,5.41484 -0.54662,7.45338 3,11c2.59272,2.59272 -0.76827,-7.41472 0,-11c2.41996,-11.29317 10.2652,-22.79561 14,-34" fill="none" stroke="black" stroke-linecap="round" stroke-width="5"/>
	<path d="M270,122c-43.26758,0 -89.28388,9.88065 -132,17c-6.32456,1.05409 -12.67544,1.94591 -19,3c-0.16709,0.02785 -24,2.39687 -24,5c0,3.16812 8.68543,22 11,22c9.69225,0 32.11204,-15.9408 48,-17c38.32166,-2.55478 75.25327,2.32402 113,-9c4.41235,-1.32371 3.71744,-31.28256 1,-34" fill="none" stroke="black" stroke-linecap="round" stroke-width="5"/>
	<path d="M151,83c0,6.32235 3,74.32897 3,53" fill="none" stroke="black" stroke-linecap="round" stroke-width="5"/>
	<path d="M179,73c4.47353,11.18383 4.17283,23.5185 8,35" fill="none" stroke="black" stroke-linecap="round" stroke-width="5"/>
	<path d="M203,80c2.95536,7.38841 22.4252,71.97639 18,41" fill="none" stroke="black" stroke-linecap="round" stroke-width="5"/>
	<path d="M224,75c0,11.43092 3.08013,24.48079 5,36c0.61268,3.67607 1.3132,7.33705 2,11c0.44721,2.38514 3.71594,8.71594 2,7c-1.84089,-1.84089 -3.33333,-4 -5,-6" fill="none" stroke="black" stroke-linecap="round" stroke-width="5"/>
	<path d="M96,39c7.52294,3.76147 0.86439,27.93219 7,31c9.34501,4.6725 56.55377,0 68,0c47.49668,0 76.20187,8.80747 62,-48c-7.68028,-30.72112 -104.47765,19.54761 -117,24c-8.02949,2.85493 -47.96407,5.01797 -40,9" fill="none" stroke="black" stroke-linecap="round" stroke-width="5"/>
</svg>
