<?xml version="1.0" ?>
<svg baseProfile="full" height="300" version="1.1" viewBox="[0, 0, 300, 300]" width="300" xmlns="http://www.w3.org/2000/svg" xmlns:ev="http://www.w3.org/2001/xml-events" xmlns:xlink="http://www.w3.org/1999/xlink">
	<defs/>
	<path d="M88,194c0,13.56054 -3.92226,18.84451 -9,29c-0.37175,0.74349 -2.11231,3.88769 -1,5c6.25386,6.25386 16.67136,-4.67136 21,-9c1.23074,-1.23074 -1,-17.30754 -1,-21" fill="none" stroke="black" stroke-linecap="round" stroke-width="5"/>
	<path d="M128,196c-2.9345,8.80351 -14,21.56681 -14,31c0,3.88168 -0.22079,8.88961 4,11c11.95754,5.97877 5.68219,-15.72877 6,-17c1.47824,-5.91295 4.52101,-19.76051 9,-22c1.2357,-0.61785 1,-0.96548 1,-2" fill="none" stroke="black" stroke-linecap="round" stroke-width="5"/>
	<path d="M172,183c-7.66311,11.49466 -15.77829,28.33488 -20,41c-0.38238,1.14715 -0.2491,3.37545 1,4c23.59117,11.79558 14.35267,-23.70533 18,-31c1.09753,-2.19505 4,0.25332 4,-3" fill="none" stroke="black" stroke-linecap="round" stroke-width="5"/>
	<path d="M200,188c0,8.89622 -6.82536,19.0634 -10,27c-0.73319,1.83297 -2.73841,9.38408 -3,12c-0.19838,1.98378 0.62244,25.37756 8,18c23.05798,-23.05798 -9.37958,-52.62042 3,-65" fill="none" stroke="black" stroke-linecap="round" stroke-width="5"/>
	<path d="M204,177c-27.92881,0 -59.33707,-3.95185 -87,0c-8.3322,1.19031 -30.88962,11.05519 -39,7c-0.89443,-0.44721 -0.14142,-2.01005 0,-3c1.89833,-13.28828 14.30349,-23.60697 20,-35c0.64968,-1.29937 0.46499,-5.48833 2,-6c9.21567,-3.07189 81.63793,-0.18104 88,3c5.39562,2.69781 9.15309,25.91853 10,31c0.53667,3.22005 6.89407,14.89407 3,11" fill="none" stroke="black" stroke-linecap="round" stroke-width="5"/>
	<path d="M107,98c0,8.37515 1.1058,17.70653 0,26c-0.0815,0.61125 -2,16.7562 -2,12" fill="none" stroke="black" stroke-linecap="round" stroke-width="5"/>
	<path d="M126,96c0,12.66667 0,25.33333 0,38c0,1.37437 -0.37437,4 1,4" fill="none" stroke="black" stroke-linecap="round" stroke-width="5"/>
	<path d="M141,103c7.41478,7.41478 4.48812,22.48812 12,30" fill="none" stroke="black" stroke-linecap="round" stroke-width="5"/>
	<path d="M167,98c2.01354,7.04738 19.07575,69.37873 15,49" fill="none" stroke="black" stroke-linecap="round" stroke-width="5"/>
	<path d="M182,71c-10.44719,0 -98.37454,-3.62546 -101,-1c-1.20185,1.20185 0.74155,3.32009 1,5c1.89556,12.32114 5.10829,23.43318 8,35c0.29654,1.18617 -0.32811,3.58203 2,3c41.42289,-10.35572 84.40398,-4.20075 126,-12c6.86797,-1.28775 2,-27.70545 2,-34c0,-1.33333 0.94281,-3.05719 0,-4c-0.2357,-0.2357 -0.66667,0 -1,0c-19.29041,0 -35.62458,12 -55,12" fill="none" stroke="black" stroke-linecap="round" stroke-width="5"/>
</svg>
