<?xml version="1.0" ?>
<svg baseProfile="full" height="300" version="1.1" viewBox="[0, 0, 300, 300]" width="300" xmlns="http://www.w3.org/2000/svg" xmlns:ev="http://www.w3.org/2001/xml-events" xmlns:xlink="http://www.w3.org/1999/xlink">
	<defs/>
	<path d="M85,132c0,7.31576 -8.87928,48.06036 -3,51c1.45252,0.72626 5.54753,-4.54753 6,-5c6.22142,-6.22142 17.3514,-44.8243 31,-38c17.20574,8.60287 -1.05693,43.91461 7,56c1.07132,1.60699 5.98665,5.01335 8,3c10.95491,-10.95491 7.36878,-35.10633 12,-49c0.60778,-1.82334 -0.98923,-4 2,-4" fill="none" stroke="black" stroke-linecap="round" stroke-width="5"/>
	<path d="M149,146c12.40076,0 42.58541,9.82918 50,-5c1.53385,-3.0677 -0.78021,-50.30495 -10,-48c-21.70757,5.42689 -45.61791,5.89083 -67,12c-7.90579,2.2588 -13.78943,5 -22,5c-3,0 -9,-3 -9,0c0,3.79679 9.66162,24.66162 12,27c0.6137,0.6137 4.13404,-0.17319 5,0c10.46492,2.09298 25.8326,17 35,17" fill="none" stroke="black" stroke-linecap="round" stroke-width="5"/>
	<path d="M194,137c7.48793,14.97585 16.67976,50.48036 7,65c-3.8632,5.7948 -14.65205,-3.82464 -15,-8c-1.0417,-12.50036 0,-25.42932 0,-38" fill="none" stroke="black" stroke-linecap="round" stroke-width="5"/>
	<path d="M92,97c0,-16.41179 5.01531,-29.63675 11,-44c3.09446,-7.42671 2.37556,-16.75111 6,-24c1.01565,-2.0313 26.54087,3.7021 40,6c15.33622,2.61838 33.1843,4.06143 48,9c1.26491,0.42164 0,2.66667 0,4c0,15.82367 -7.91888,27.83775 -15,42c-1.2525,2.50499 -7.07787,17.84425 -9,14" fill="none" stroke="black" stroke-linecap="round" stroke-width="5"/>
</svg>
