<?xml version="1.0" ?>
<svg baseProfile="full" height="300" version="1.1" viewBox="[0, 0, 300, 300]" width="300" xmlns="http://www.w3.org/2000/svg" xmlns:ev="http://www.w3.org/2001/xml-events" xmlns:xlink="http://www.w3.org/1999/xlink">
	<defs/>
	<path d="M97,148c0,20.21726 3.82693,43.69226 -1,63c-2.19754,8.79018 -3,1.02152 -3,-4" fill="none" stroke="black" stroke-linecap="round" stroke-width="5"/>
	<path d="M146,153c0,12.53801 -0.27538,24.7392 -3,37c-0.6289,2.83005 -0.77848,16.22152 -2,15" fill="none" stroke="black" stroke-linecap="round" stroke-width="5"/>
	<path d="M189,165c4.49734,8.99469 1.70538,41.70538 1,41" fill="none" stroke="black" stroke-linecap="round" stroke-width="5"/>
	<path d="M166,133c3.40191,3.40191 1,15.37447 1,20c0,2.52589 1,12.72669 1,11" fill="none" stroke="black" stroke-linecap="round" stroke-width="5"/>
	<path d="M103,144c0,2.29302 22.38458,1.19229 26,3c24.09707,12.04853 51.93824,25.06176 73,4c2.09415,-2.09415 -7.39006,-12.78011 -8,-14c-2.90996,-5.81992 1.86542,-18.13458 -3,-23c-0.4714,-0.4714 -1.40372,-0.29814 -2,0c-8.99028,4.49514 -21.83934,4.15261 -32,6c-6.30033,1.14551 -54.79806,3.59611 -58,10c-2.14943,4.29886 1,12.40209 1,17" fill="none" stroke="black" stroke-linecap="round" stroke-width="5"/>
	<path d="M111,89c0,5.45808 -5,58.3437 -5,40" fill="none" stroke="black" stroke-linecap="round" stroke-width="5"/>
	<path d="M140,80c0,14.63665 0.08294,27.41945 -2,42c-0.72478,5.07349 -2,4.69874 -2,0" fill="none" stroke="black" stroke-linecap="round" stroke-width="5"/>
	<path d="M164,85c0,3.56254 2.64436,32.64436 -2,28" fill="none" stroke="black" stroke-linecap="round" stroke-width="5"/>
	<path d="M193,80c0,5.69687 -1.27883,38.72117 -4,36" fill="none" stroke="black" stroke-linecap="round" stroke-width="5"/>
	<path d="M88,85c15.89563,0 31.10278,-3 47,-3c9.91656,0 18.6051,-3 29,-3c6.61973,0 16.85345,-0.85345 21,-5c2.86128,-2.86128 12.66219,2.33781 16,-1c1.25682,-1.25682 -0.79525,-7.97627 -1,-9c-0.28463,-1.42313 -0.48533,-13.49511 -2,-14c-30.22673,-10.07558 -58.9304,9 -88,9c-8.13333,0 -16.41275,2 -25,2c-1,0 -3,-1 -3,0c0,5.2225 7,12.33926 7,19" fill="none" stroke="black" stroke-linecap="round" stroke-width="5"/>
</svg>
