<?xml version="1.0" ?>
<svg baseProfile="full" height="300" version="1.1" viewBox="[0, 0, 300, 300]" width="300" xmlns="http://www.w3.org/2000/svg" xmlns:ev="http://www.w3.org/2001/xml-events" xmlns:xlink="http://www.w3.org/1999/xlink">
	<defs/>
	<path d="M46,245c41.61522,0 41,-95.11377 41,-123c0,-7.74531 -6.60555,-24.7889 -4,-30c0.08257,-0.16514 2.73394,0 3,0c10.55627,0 20.80878,-2.96176 31,-5c13.24001,-2.648 29.24394,1.03753 42,3c3.30646,0.50869 10.73402,-1.63299 14,0c10.58208,5.29104 27.08534,60.69202 33,74c5.44125,12.24282 6.81971,25.91828 9,39c0.91296,5.47774 1,10.47667 1,16c0,2.02759 2.92354,6.64118 1,6c-3.68782,-1.22927 -6.41172,-4.50488 -10,-6c-1.94602,-0.81084 0.10819,6 -2,6" fill="none" stroke="black" stroke-linecap="round" stroke-width="5"/>
	<path d="M109,230c0,-16.18134 9.31932,-32.6176 14,-49c6.85773,-24.00205 3.86314,-74.75791 -19,-90c-6.71731,-4.47821 -16.37708,-3 -24,-3" fill="none" stroke="black" stroke-linecap="round" stroke-width="5"/>
	<path d="M131,165c5.97077,0 8.92387,-4.78477 15,-6c15.871,-3.1742 36.4868,-6 52,-6" fill="none" stroke="black" stroke-linecap="round" stroke-width="5"/>
	<path d="M130,169c6.17031,6.17031 0.24426,25.12213 8,29c7.50157,3.75079 25.73115,0 34,0c11.30267,0 21.27001,-5.13501 31,-10c0.56728,-0.28364 17.6831,-3 12,-3" fill="none" stroke="black" stroke-linecap="round" stroke-width="5"/>
	<path d="M93,144c8.32266,0 16.07047,-3.03524 22,-6c12.16916,-6.08458 54.59728,7.70136 80,-5" fill="none" stroke="black" stroke-linecap="round" stroke-width="5"/>
	<path d="M97,100c0,-1.33333 0,-1.33333 0,0c0,11.66667 0,23.33333 0,35c0,1.69967 -0.69967,5 1,5c0.041,0 -0.05858,-9.41425 0,-10c0.85536,-8.55362 4.7617,-14.16596 7,-22c0.27472,-0.96152 -1,-3 0,-3c1.97429,0 5,25.03104 5,28c0,1 -0.44721,-2.10557 0,-3c1.40633,-2.81267 3.59367,-5.18733 5,-8c3.62284,-7.24568 4.4998,-16.2497 9,-23c0.1849,-0.27735 0,0.66667 0,1c0,7.44154 2.82585,20.73877 7,27c0.1849,0.27735 0,-0.66667 0,-1c0,-7.66667 0,-15.33333 0,-23c0,-1.66667 -0.19474,3.34475 0,5c1.42308,12.0962 4,29 4,29c0,0 3.44277,-15.55723 4,-15c2.82012,2.82012 1.72895,8.72895 5,12c1.88562,1.88562 0,-5.33333 0,-8c0,-1.89824 0,-23 0,-23c0,0 5,21.78446 5,22c0,1.33333 0,-2.66667 0,-4c0,-2.66667 0.27916,-5.34799 0,-8c-0.8496,-8.07125 -4,-15.86738 -4,-24c0,-0.33333 0,0.66667 0,1c0,9.29652 -8,17.29518 -8,26c0,3.4801 -4.55635,-13.1127 -3,-10c0.71704,1.43409 13.34999,34.65001 16,32c7.74574,-7.74574 1.59116,-30.38674 8,-40c1.49071,-2.23607 0.77682,5.32186 1,8c0.60672,7.28059 2.57397,15.86985 4,23c0.39223,1.96116 0.39223,-4.03884 0,-6c-1.02259,-5.11296 -1,-9.83163 -1,-15c0,-2.68742 0.15016,5.45049 1,8c1.37032,4.11096 5,12 5,12c0,0 1.76677,-15.53355 2,-16c1.08525,-2.17051 1.41144,4.64575 2,7c1.26202,5.04806 14,32 14,32c0,0 0.16743,-25.83257 -3,-29" fill="none" stroke="black" stroke-linecap="round" stroke-width="5"/>
</svg>
