<?xml version="1.0" ?>
<svg baseProfile="full" height="300" version="1.1" viewBox="[0, 0, 300, 300]" width="300" xmlns="http://www.w3.org/2000/svg" xmlns:ev="http://www.w3.org/2001/xml-events" xmlns:xlink="http://www.w3.org/1999/xlink">
	<defs/>
	<path d="M73,151c0,11.83204 -2,23.27184 -2,35" fill="none" stroke="black" stroke-linecap="round" stroke-width="5"/>
	<path d="M124,155c0,10.66667 0,21.33333 0,32" fill="none" stroke="black" stroke-linecap="round" stroke-width="5"/>
	<path d="M182,130c0,12.86131 1.29783,25.23371 3,38c0.18233,1.3675 1,14.58494 1,13" fill="none" stroke="black" stroke-linecap="round" stroke-width="5"/>
	<path d="M228,134c9.01398,9.01398 10,34.60314 10,47" fill="none" stroke="black" stroke-linecap="round" stroke-width="5"/>
	<path d="M168,152c25.66667,0 51.33333,0 77,0" fill="none" stroke="black" stroke-linecap="round" stroke-width="5"/>
	<path d="M71,166c18.66018,0 37.29674,1 56,1c0.4714,0 1,-0.5286 1,-1" fill="none" stroke="black" stroke-linecap="round" stroke-width="5"/>
	<path d="M83,95c0,10.01157 -3.46701,30.06599 1,39c1.97371,3.94742 31.8981,-2.77962 33,-3c19.91838,-3.98368 40.17646,-5.59477 60,-10c13.18729,-2.93051 26.51435,-6 40,-6c2.66667,0 6.11438,1.88562 8,0c1.74358,-1.74358 0,-17.07226 0,-18c0,-38.38509 -14.14632,-20.16523 -46,-14c-9.95322,1.92643 -20.00947,3.27749 -30,5c-18.81488,3.24394 -37.00826,4 -56,4" fill="none" stroke="black" stroke-linecap="round" stroke-width="5"/>
	<path d="M124,37c-4.70821,14.12462 -9,36.95054 -9,52" fill="none" stroke="black" stroke-linecap="round" stroke-width="5"/>
	<path d="M141,47c0,8 0,16 0,24c0,2.33333 0,9.33333 0,7" fill="none" stroke="black" stroke-linecap="round" stroke-width="5"/>
	<path d="M161,41c0,10.29273 5,19.77649 5,30" fill="none" stroke="black" stroke-linecap="round" stroke-width="5"/>
	<path d="M183,42c1.09763,5.48817 7,49.23475 7,30" fill="none" stroke="black" stroke-linecap="round" stroke-width="5"/>
	<path d="M197,43c4.96567,4.96567 11,30.2803 11,30" fill="none" stroke="black" stroke-linecap="round" stroke-width="5"/>
	<path d="M205,10c-15.47916,0 -31.50931,6 -48,6c-13.33333,0 -26.66667,0 -40,0c-11.31186,0 -36.11287,-7.56434 -33,8c0.63555,3.17776 0.83229,6.83229 3,9c2.07297,2.07297 93.4711,0 103,0c15.43286,0 42.77692,-1.44616 33,-21" fill="none" stroke="black" stroke-linecap="round" stroke-width="5"/>
</svg>
