<?xml version="1.0" ?>
<svg baseProfile="full" height="300" version="1.1" viewBox="[0, 0, 300, 300]" width="300" xmlns="http://www.w3.org/2000/svg" xmlns:ev="http://www.w3.org/2001/xml-events" xmlns:xlink="http://www.w3.org/1999/xlink">
	<defs/>
	<path d="M82,65c5.439,0 4,29.93525 4,33c0,30.68494 -19.25209,64.08775 -32,91c-8.21231,17.3371 -2.47867,2.43602 -1,-2" fill="none" stroke="black" stroke-linecap="round" stroke-width="5"/>
	<path d="M136,134c0,9.02891 -2.7775,75.445 -14,53" fill="none" stroke="black" stroke-linecap="round" stroke-width="5"/>
	<path d="M92,101c10.32117,0 39.93871,39 53,39c1.20185,0 0.84439,-2.66983 2,-3c4.1666,-1.19046 7.76286,-4.09204 12,-5c7.61689,-1.63219 22.9539,3.0461 29,-3c1.58449,-1.58449 0.99363,-19.95222 1,-20c0.33634,-2.52253 2.7324,-11.4014 1,-14c-5.01882,-7.52824 -55.69929,-11 -71,-11" fill="none" stroke="black" stroke-linecap="round" stroke-width="5"/>
	<path d="M163,48c0,3.90976 7.12319,14.87101 9,19c14.70242,32.34532 17.26973,70.27628 28,104c1.24029,3.89805 9.62336,30 15,30c3.60555,0 -5.12553,-5.5021 -6,-9" fill="none" stroke="black" stroke-linecap="round" stroke-width="5"/>
	<path d="M85,77c0,-18.11925 -39.237,-41.96164 -19,-53c16.84786,-9.18974 85.23723,-13.90511 100,-8c11.00827,4.40331 27.1219,11.31714 18,25c-1.03947,1.55921 -2.46592,5 -5,5" fill="none" stroke="black" stroke-linecap="round" stroke-width="5"/>
	<path d="M92,25c0,14.28194 -4,27.88796 -4,42c0,3.72678 0.43826,-7.61624 2,-11c3.60051,-7.8011 6.16381,-16.32762 10,-24c0.21082,-0.42164 0.78918,-1.42164 1,-1c0.28665,0.57329 1.13963,21.86037 3,20c4.77261,-4.77261 4.43013,-12.7589 7,-19c1.36693,-3.3197 2.39445,-13.21109 4,-10c2.85617,5.71235 0.00179,13.01073 1,19c0.50684,3.04105 3,-7.13932 3,-8c0,-1 0,2 0,3c0,3.40725 -1.27944,13.72056 2,17c4.00694,4.00694 2.93158,-17.53421 8,-15c5.01104,2.50552 1.42322,20.42322 6,25c0.12265,0.12265 10.30746,-24.61491 11,-26c1.20185,-2.4037 -0.49071,5.76393 1,8c0.49067,0.736 6,-16.89964 6,-3" fill="none" stroke="black" stroke-linecap="round" stroke-width="5"/>
</svg>
