<?xml version="1.0" ?>
<svg baseProfile="full" height="300" version="1.1" viewBox="[0, 0, 300, 300]" width="300" xmlns="http://www.w3.org/2000/svg" xmlns:ev="http://www.w3.org/2001/xml-events" xmlns:xlink="http://www.w3.org/1999/xlink">
	<defs/>
	<path d="M105,42c0,18.17314 -2,35.92873 -2,54c0,0.45364 -0.70711,3.71548 1,4c18.41907,3.06984 36.11224,-9.01247 54,-11c11.62229,-1.29137 27.00685,3.66438 38,0c1.58114,-0.52705 0,-3.33333 0,-5c0,-11.50716 -3.89057,-15.89057 -12,-24c-3.72049,-3.72049 -4.95405,-5.47702 -10,-8c-23.67587,-11.83794 -51.15072,-11 -77,-11" fill="none" stroke="black" stroke-linecap="round" stroke-width="5"/>
	<path d="M103,101c1.5245,15.245 6.75435,28.39456 10,43c0.51131,2.30089 -1.10819,5.94591 1,7c2.25845,1.12922 55.72613,-11.55116 61,-12c22.54581,-1.91879 45.38534,-1 68,-1c0.33333,0 -0.70186,0.14907 -1,0c-6.43184,-3.21592 -12.49805,-13.67952 -17,-19c-9.80408,-11.58664 -21.42049,-19.21025 -35,-26" fill="none" stroke="black" stroke-linecap="round" stroke-width="5"/>
</svg>
