<?xml version="1.0" ?>
<svg baseProfile="full" height="300" version="1.1" viewBox="[0, 0, 300, 300]" width="300" xmlns="http://www.w3.org/2000/svg" xmlns:ev="http://www.w3.org/2001/xml-events" xmlns:xlink="http://www.w3.org/1999/xlink">
	<defs/>
	<path d="M83,51c4.05936,16.23742 -3.49528,81.50472 4,89c2.4608,2.4608 6.8873,-1.44365 10,-3c15.94626,-7.97313 31.7035,-23.78023 50,-25c14.87754,-0.99184 65.03574,9.92852 73,-6c6.48875,-12.9775 -9.15748,-33.1311 -16,-41c-3.56305,-4.0975 -11.48625,-11.24313 -17,-14c-9.66201,-4.831 -94.00307,3 -116,3" fill="none" stroke="black" stroke-linecap="round" stroke-width="5"/>
	<path d="M89,143c0,-5.54777 6.17769,9.22378 9,14c6.33922,10.72791 14.43231,20.86462 20,32c0.00187,0.00373 0.76769,3.79461 2,4c10.27632,1.71272 24.88709,-2.3871 35,-3c26.06619,-1.57977 51.9035,-2 78,-2c2.9778,0 33.5913,3.4087 37,0c4.49343,-4.49343 -4.87856,-31.61138 -5,-32c-15.89087,-50.85077 -40.20985,-27.41969 -48,-43" fill="none" stroke="black" stroke-linecap="round" stroke-width="5"/>
</svg>
