<?xml version="1.0" ?>
<svg baseProfile="full" height="300" version="1.1" viewBox="[0, 0, 300, 300]" width="300" xmlns="http://www.w3.org/2000/svg" xmlns:ev="http://www.w3.org/2001/xml-events" xmlns:xlink="http://www.w3.org/1999/xlink">
	<defs/>
	<path d="M107,83c0,1.55673 0.31623,4.68377 -1,6c-0.33333,0.33333 -0.87597,-0.54521 -1,-1c-1.41702,-5.19573 -3.60976,-19.7074 -4,-24c-2.13312,-23.46429 -4.9858,-54.53318 26,-49c54.46557,9.72599 59.34827,21.70998 76,70c2.05188,5.95046 6.34227,23.19796 8,29c1.79914,6.29698 4.07384,12.51686 5,19c0.04714,0.32998 0.31623,1.10541 0,1c-24.65466,-8.21822 -26.61338,-15 -59,-15c-6.65082,0 -30.56997,10.25802 -36,7c-5.54951,-3.3297 -7.21121,-10.82082 -10,-16c-3.4889,-6.47939 -8,-13.32181 -8,-21" fill="none" stroke="black" stroke-linecap="round" stroke-width="5"/>
</svg>
