<?xml version="1.0" ?>
<svg baseProfile="full" height="300" version="1.1" viewBox="[0, 0, 300, 300]" width="300" xmlns="http://www.w3.org/2000/svg" xmlns:ev="http://www.w3.org/2001/xml-events" xmlns:xlink="http://www.w3.org/1999/xlink">
	<defs/>
	<path d="M94,100c8.73152,6.98522 26.56662,10.13323 32,21c10.61746,21.23492 6.62,48.63998 11,72c0.81397,4.3412 13.37767,40.62233 11,43c-12.35302,12.35302 -64,-8.63656 -64,-33" fill="none" stroke="black" stroke-linecap="round" stroke-width="5"/>
	<path d="M192,85c15.39882,15.39882 39.7516,23.33547 53,41c8.82497,11.76662 8.35164,58.4393 9,74c0.25039,6.00929 3.89902,42.03366 -5,45c-11.22897,3.74299 -50,-23.91281 -50,-43" fill="none" stroke="black" stroke-linecap="round" stroke-width="5"/>
	<path d="M92,200c27.3218,0 54.47731,2.83402 82,2c18.69204,-0.56643 36.34032,-4 55,-4" fill="none" stroke="black" stroke-linecap="round" stroke-width="5"/>
</svg>
