<?xml version="1.0" ?>
<svg baseProfile="full" height="300" version="1.1" viewBox="[0, 0, 300, 300]" width="300" xmlns="http://www.w3.org/2000/svg" xmlns:ev="http://www.w3.org/2001/xml-events" xmlns:xlink="http://www.w3.org/1999/xlink">
	<defs/>
	<path d="M54,13c0,34.06197 18.32251,67.76932 27,100c2.72713,10.12934 2.71192,20.69533 4,31c0.63246,5.05964 2,10 3,15c0.19875,0.99376 -0.8652,6.9326 1,6c12.88818,-6.44409 36.21706,-22.45294 45,-35c4.7959,-6.85129 9.74621,-17.16414 17,-22c10.95264,-7.30176 31.24848,-9.4497 44,-12c1.90422,-0.38084 5.46446,0.60661 6,-1c2.33503,-7.0051 -18.82534,-33.93261 -20,-36c-3.00111,-5.28196 -13.63664,-32.90916 -26,-36c-41.57092,-10.39273 -36.54906,11.38727 -71,20c-2.9611,0.74028 -5.72047,-2 -8,-2" fill="none" stroke="black" stroke-linecap="round" stroke-width="5"/>
	<path d="M80,182c11.33333,5 22.84194,9.62022 34,15c5.94437,2.86604 75.6541,50.3459 86,40c10.1019,-10.1019 63.57142,-89.21429 44,-99c-8.96138,-4.48069 -25.79325,11.88357 -33,15c-2.52041,1.08991 -85.66415,31 -96,31" fill="none" stroke="black" stroke-linecap="round" stroke-width="5"/>
	<path d="M83,146c24.89314,19.91452 51.21794,37.21794 74,60" fill="none" stroke="black" stroke-linecap="round" stroke-width="5"/>
	<path d="M210,68c16.50642,24.75963 43.44692,37.44692 64,58" fill="none" stroke="black" stroke-linecap="round" stroke-width="5"/>
</svg>
