<?xml version="1.0" ?>
<svg baseProfile="full" height="300" version="1.1" viewBox="[0, 0, 300, 300]" width="300" xmlns="http://www.w3.org/2000/svg" xmlns:ev="http://www.w3.org/2001/xml-events" xmlns:xlink="http://www.w3.org/1999/xlink">
	<defs/>
	<path d="M76,30c0,2.64153 -0.18834,5.36326 0,8c0.26232,3.67243 0.83282,7.32201 1,11c1.19488,26.28729 14,55.32049 14,79c0,0.3565 -0.17546,3.94151 0,4c19.92065,6.64022 67.64332,-2.24529 82,-4c23.34174,-2.85288 46.03262,-7.40652 69,-12c5.3209,-1.06418 12.16305,0.83695 16,-3c1.49071,-1.49071 -0.99049,-4.14923 -2,-6c-6.25022,-11.45873 -15.57636,-21.24878 -21,-33c-6.00194,-13.0042 -4.24798,-59.2496 -13,-61c-27.624,-5.5248 -54.30273,16.57568 -80,23c-11.26382,2.81595 -22.59307,-1.62956 -34,0c-8.76853,1.25265 -14.7018,7 -24,7" fill="none" stroke="black" stroke-linecap="round" stroke-width="5"/>
	<path d="M101,154c8.9962,8.9962 54.1712,44.27627 70,39c15.33596,-5.11199 53.06964,-62 55,-62" fill="none" stroke="black" stroke-linecap="round" stroke-width="5"/>
	<path d="M244,191c-36.50516,14.60206 -80.03054,22.99618 -120,18c-7.97622,-0.99703 -15.90788,-5 -24,-5" fill="none" stroke="black" stroke-linecap="round" stroke-width="5"/>
</svg>
