<?xml version="1.0" ?>
<svg baseProfile="full" height="300" version="1.1" viewBox="[0, 0, 300, 300]" width="300" xmlns="http://www.w3.org/2000/svg" xmlns:ev="http://www.w3.org/2001/xml-events" xmlns:xlink="http://www.w3.org/1999/xlink">
	<defs/>
	<path d="M60,117c0,-37.61905 36.7724,-76.93306 71,-87c13.72024,-4.03536 41.91604,1.39259 55,7c13.98622,5.99409 28.73489,56.63256 18,62c-18.22168,9.11084 -42.86243,10.83361 -63,15c-25.51182,5.27831 -45.99348,6 -71,6" fill="none" stroke="black" stroke-linecap="round" stroke-width="5"/>
	<path d="M85,158c24.23846,12.11923 60.4178,21.91047 88,16c15.94687,-3.41719 30.71287,-4.71287 43,-17c0.55333,-0.55333 1,-4 1,-4c0,0 0.69843,6.74066 0,10c-3.33841,15.57925 -10.9986,33 -29,33c-25.24592,0 -58.05954,-7.52977 -81,-19c-4.82254,-2.41127 -15.27171,-12 -20,-12" fill="none" stroke="black" stroke-linecap="round" stroke-width="5"/>
</svg>
