<?xml version="1.0" ?>
<svg baseProfile="full" height="300" version="1.1" viewBox="[0, 0, 300, 300]" width="300" xmlns="http://www.w3.org/2000/svg" xmlns:ev="http://www.w3.org/2001/xml-events" xmlns:xlink="http://www.w3.org/1999/xlink">
	<defs/>
	<path d="M72,14c0,15.40479 18.89455,125.89455 25,132c2.35702,2.35702 5.20519,-4.18337 8,-6c4.88892,-3.1778 10,-6 15,-9c15.17287,-9.10372 15.21925,-9.88102 38,-17c12.14362,-3.79488 44.57884,-14.73686 61,-12c5.81701,0.9695 19,16 19,16c0,0 -3.18663,-11.37856 -5,-17c-2.039,-6.32089 -3.84094,-12.71911 -6,-19c-1.02721,-2.98825 -19.35961,-73.35961 -22,-76c-4.48926,-4.48926 -34.01505,3.5867 -37,4c-16.67448,2.30877 -67.51015,8.05954 -86,12c-21.19204,4.51634 -48.88321,22 -70,22" fill="none" stroke="black" stroke-linecap="round" stroke-width="5"/>
	<path d="M91,134c10.30091,2.57523 19.66198,8.9324 30,11c30.32538,6.06508 62.19555,5.12444 93,3c8.34024,-0.57519 21.3524,0.6476 28,-6c4.052,-4.052 5,-5.30855 5,-11c0,-0.25812 -2.32662,-5.16331 0,-4c9.33581,4.66791 28,49.56818 28,61c0,0.64044 0.39034,5.80483 0,6c-5.96876,2.98438 -16.95948,0.71991 -24,2c-29.05035,5.28188 -76.52033,32.23984 -105,18c-5.28703,-2.64352 -32.63046,-62 -42,-62" fill="none" stroke="black" stroke-linecap="round" stroke-width="5"/>
	<path d="M152,230c30.20434,-6.04087 60.75351,-8.9507 91,-15c6.35986,-1.27197 32.55725,-8.44275 36,-5c9.14177,9.14177 4,31.07842 4,44c0,2.33333 2.33333,7 0,7c-1.50991,0 -20.39901,-11.43965 -22,-12c-27.44825,-9.60689 -57.01652,-14.80971 -85,-23c-5.41044,-1.58354 -22.91905,-12.04048 -29,-9c-10.11544,5.05772 8.53768,31.07535 11,36c1.11202,2.22405 3.08048,5.24145 4,8c0.33333,1 1.4714,3.94281 1,3c-2.87227,-5.74455 -13,-19.88777 -13,-25" fill="none" stroke="black" stroke-linecap="round" stroke-width="5"/>
</svg>
