<?xml version="1.0" ?>
<svg baseProfile="full" height="300" version="1.1" viewBox="[0, 0, 300, 300]" width="300" xmlns="http://www.w3.org/2000/svg" xmlns:ev="http://www.w3.org/2001/xml-events" xmlns:xlink="http://www.w3.org/1999/xlink">
	<defs/>
	<path d="M86,35c0,11.11502 2.78344,88.78344 7,93c0.70711,0.70711 2.03848,0.27472 3,0c14.3363,-4.09608 27.48787,-11.0778 42,-15c5.93347,-1.60364 11.973,-2.7946 18,-4c12.97408,-2.59482 26.21966,0 39,0c3.02389,0 10.23561,4.52878 11,3c6.38041,-12.76083 -8.47072,-43.11805 -12,-54c-3.09078,-9.52989 -8.01368,-34.01368 -15,-41c-0.96915,-0.96915 -2.50865,0.83622 -3,1c-15.58213,5.19404 -31.93221,8.98305 -48,13c-7.10917,1.77729 -25.63808,3.63808 -31,9" fill="none" stroke="black" stroke-linecap="round" stroke-width="5"/>
	<path d="M110,157c32.09573,6.41915 68.22108,9 101,9c8.70076,0 15.79801,-3.82829 24,-5c2.30988,-0.32998 7,0 7,0c0,0 -5.75329,-0.24671 -6,0c-3.31076,3.31076 7.4236,48.2708 9,53c0.08003,0.24008 2,8 2,8c0,0 -0.9315,-3.90867 -1,-4c-5.88594,-7.84792 -12.85215,-13.97043 -23,-16c-24.1991,-4.83982 -50.01921,-5.35918 -75,-11c-2.92321,-0.66008 -40.55123,-8.44877 -44,-5c-2,2 3.81092,4.20893 6,6c9.36986,7.66625 16.85799,17.76332 23,28c2.64998,4.41663 5.53854,8.84625 9,13c1.72044,2.06453 4,9.68742 4,7c0,-24.68781 -15.28084,-52.84253 -23,-76c-1.32201,-3.96602 -9,-8.85641 -9,-12" fill="none" stroke="black" stroke-linecap="round" stroke-width="5"/>
</svg>
