<?xml version="1.0" ?>
<svg baseProfile="full" height="300" version="1.1" viewBox="[0, 0, 300, 300]" width="300" xmlns="http://www.w3.org/2000/svg" xmlns:ev="http://www.w3.org/2001/xml-events" xmlns:xlink="http://www.w3.org/1999/xlink">
	<defs/>
	<path d="M84,22c0,13.1912 0.26758,26.8164 1,40c0.92093,16.57672 12.22616,31.48501 17,47c0.03181,0.10338 1.73605,16.73605 3,18c1.20185,1.20185 3.33806,-0.64387 5,-1c22.54579,-4.83124 44.80145,-11.55009 68,-13c8.4116,-0.52572 43.95281,-1.44619 56,-1c1.65132,0.06116 15.02393,2.95214 16,1c7.16432,-14.32864 -30.7076,-42.39311 -39,-47c-31.9542,-17.75233 -55.38714,-42.04839 -95,-47c-18.82222,-2.35278 -38.57363,0 -57,0" fill="none" stroke="black" stroke-linecap="round" stroke-width="5"/>
	<path d="M103,148c11.50945,5.75472 64.97841,46.2554 78,43c7.66939,-1.91735 23.34929,-8.69857 27,-16c0.61464,-1.22927 0.56539,-2.69616 1,-4c1.57743,-4.73229 6.69164,-50.23127 23,-38c6.1881,4.64107 8.04604,14.16115 10,21c1.77278,6.20473 3.94002,11.41984 3,18c-4.10861,28.76027 -18.77872,26.45658 -45,30c-36.88358,4.98427 -57.31953,16.35058 -80,-12c-6.46611,-8.08264 -14,-19.7891 -14,-29" fill="none" stroke="black" stroke-linecap="round" stroke-width="5"/>
	<path d="M119,219c45.56459,5.46775 80.75286,-1 125,-1" fill="none" stroke="black" stroke-linecap="round" stroke-width="5"/>
</svg>
