<?xml version="1.0" ?>
<svg baseProfile="full" height="300" version="1.1" viewBox="[0, 0, 300, 300]" width="300" xmlns="http://www.w3.org/2000/svg" xmlns:ev="http://www.w3.org/2001/xml-events" xmlns:xlink="http://www.w3.org/1999/xlink">
	<defs/>
	<path d="M72,59c-7.0802,35.401 -4.2507,52.64676 3,86c0.65935,3.033 4.84833,26 5,26c5.28558,0 17.34199,-11.54133 25,-13c23.68711,-4.51183 48.10593,-1.75854 72,-1c7.60514,0.24143 81.29335,1.70665 90,-7c1.07481,-1.07481 -0.92204,-7.68817 -1,-8c-6.40578,-25.62312 -17.31774,-55.63548 -29,-79c-0.40599,-0.81199 -0.98197,-2.49098 -2,-3c-30.62183,-15.31091 -72.01786,1.63072 -103,6c-38.56516,5.43868 -75.04313,5 -113,5" fill="none" stroke="black" stroke-linecap="round" stroke-width="5"/>
	<path d="M95,219c25.02801,5.17821 29.81322,10.68712 50,0c19.77605,-10.46967 43.92582,-41.73145 61,-46c1.85966,-0.46491 8.35029,-2.64971 10,-1c1.66685,1.66685 -6.59957,3.59957 -5,2c4.35123,-4.35123 13.81715,16.65093 14,17c3.35418,6.40343 8.5348,16.32601 7,24c-2.68211,13.41053 -20.57808,15.56954 -31,17c-30.67276,4.20999 -58.33534,5.83308 -89,2c-13.25709,-1.65714 -25.50429,-9 -39,-9" fill="none" stroke="black" stroke-linecap="round" stroke-width="5"/>
	<path d="M133,247c32.06063,-3.20606 69.03751,-1.47308 100,-11c9.52437,-2.93058 17.93466,-11 28,-11" fill="none" stroke="black" stroke-linecap="round" stroke-width="5"/>
</svg>
