<?xml version="1.0" ?>
<svg baseProfile="full" height="300" version="1.1" viewBox="[0, 0, 300, 300]" width="300" xmlns="http://www.w3.org/2000/svg" xmlns:ev="http://www.w3.org/2001/xml-events" xmlns:xlink="http://www.w3.org/1999/xlink">
	<defs/>
	<path d="M77,108c0,-29.15576 4.4789,-54.0422 -9,-81c-0.39738,-0.79477 -0.47517,-5.28724 0,-6c16.09455,-24.14182 120.09479,-26.45498 143,-29c8.25291,-0.91699 58.57341,4.57341 65,11c9.32269,9.32269 -17.76387,62.60645 -24,73c-1.78553,2.97588 -10.38182,13.23636 -9,16c0.57578,1.15156 6,4.15191 6,4c0,-0.4714 -0.55279,-0.85093 -1,-1c-13.02514,-4.34171 -30.46514,-2 -44,-2c-38.97423,0 -75.46613,18.26694 -112,0" fill="none" stroke="black" stroke-linecap="round" stroke-width="5"/>
	<path d="M70,112c21.07861,21.07861 39.8085,62.01126 74,60c25.80762,-1.5181 64.40974,-40.33875 89,-54c5.34913,-2.97174 11.67308,-13.32692 16,-9c4.68944,4.68944 10.78814,23.72882 12,31c1.30728,7.84368 1.31056,15.13666 0,23c-4.97713,29.86277 -45.69121,24.28394 -68,26c-29.20273,2.24636 -60.66933,4 -90,4c-5.39059,0 -32.81871,1.59065 -42,-3c-3.97937,-1.98968 -8.57367,-55.42633 -1,-63" fill="none" stroke="black" stroke-linecap="round" stroke-width="5"/>
	<path d="M113,220c12.73164,-0.9094 33.18026,-8.27325 46,-4c4.55574,1.51858 5.43369,5.18877 12,3c11.4992,-3.83307 27.06125,-5.37417 37,-12c0.30254,-0.20169 3.44098,-2.11803 4,-1c2.15327,4.30655 11.28033,50.71967 7,55c-0.78217,0.78217 -4.34033,-2.56022 -5,-3c-9.79108,-6.52739 -26.27683,-10.5346 -38,-12c-3.65336,-0.45667 -7.3233,-0.80649 -11,-1c-8.66109,-0.45585 -17.33116,-0.7291 -26,-1c-3.33277,-0.10415 -53.07096,-5.14192 -43,15c2.05712,4.11424 6.68805,12.61106 10,4c6.9691,-18.11967 2.56534,-38.73864 -2,-57c-0.38817,-1.5527 -1.41966,-6 -3,-6" fill="none" stroke="black" stroke-linecap="round" stroke-width="5"/>
</svg>
