<?xml version="1.0" ?>
<svg baseProfile="full" height="300" version="1.1" viewBox="[0, 0, 300, 300]" width="300" xmlns="http://www.w3.org/2000/svg" xmlns:ev="http://www.w3.org/2001/xml-events" xmlns:xlink="http://www.w3.org/1999/xlink">
	<defs/>
	<path d="M94,66c-8.21713,16.43427 -14,33.63467 -14,52c0,1.11225 -2.04413,18.95587 0,21c2.67686,2.67686 16.77195,1 18,1c17.2875,0 34.9154,-2.26646 52,-5c12.53485,-2.00558 57.36209,1.53006 60,-11c1.65599,-7.86595 2.40794,-14.24923 2,-22c-0.5648,-10.73117 -4.36999,-33.36999 -12,-41c-0.90698,-0.90698 -2.52523,0.68348 -3,1c-9.00241,6.0016 -21.56947,9.16556 -32,10c-32.51502,2.6012 -66.42853,1 -99,1" fill="none" stroke="black" stroke-linecap="round" stroke-width="5"/>
	<path d="M52,127c7.39789,3.69895 15.1728,9.1728 21,15" fill="none" stroke="black" stroke-linecap="round" stroke-width="5"/>
	<path d="M233,131c9.32259,0 21.49333,9.49333 27,15" fill="none" stroke="black" stroke-linecap="round" stroke-width="5"/>
	<path d="M172,144c-17.16712,1.07294 -30.78269,5.5771 -47,10c-5.3348,1.45495 -27.33579,1.67158 -30,7c-3.31174,6.62347 7.96364,19.61415 11,24c4.04672,5.84526 8.59856,20.59856 13,25c2.14834,2.14834 24.06035,-4.67069 29,-5c12.436,-0.82907 34.76316,-3.76316 43,-12c3.33991,-3.33991 0,-12.01482 0,-16c0,-22.46804 1.26112,-30 -27,-30" fill="none" stroke="black" stroke-linecap="round" stroke-width="5"/>
</svg>
