<?xml version="1.0" ?>
<svg baseProfile="full" height="300" version="1.1" viewBox="[0, 0, 300, 300]" width="300" xmlns="http://www.w3.org/2000/svg" xmlns:ev="http://www.w3.org/2001/xml-events" xmlns:xlink="http://www.w3.org/1999/xlink">
	<defs/>
	<path d="M86,32c18.76503,0 29.41059,16.92382 37,34c1.58636,3.56931 4.08747,28 8,28" fill="none" stroke="black" stroke-linecap="round" stroke-width="5"/>
	<path d="M151,21c6.46146,0 14.95786,-1.58949 21,1c17.08513,7.3222 23,51.08092 23,67" fill="none" stroke="black" stroke-linecap="round" stroke-width="5"/>
	<path d="M84,26c0,-15.62563 63.92349,-8 75,-8c3.14624,0 6,-0.90275 6,3" fill="none" stroke="black" stroke-linecap="round" stroke-width="5"/>
	<path d="M85,44c0,7.37906 -0.8573,45.1427 3,49c1.62472,1.62472 7.77271,-3.85794 8,-4c11.88555,-7.42847 49.8752,-9 66,-9" fill="none" stroke="black" stroke-linecap="round" stroke-width="5"/>
	<path d="M94,98c12.21986,0 26.22376,1.46713 38,5c4.50556,1.35167 13.08235,9 16,9" fill="none" stroke="black" stroke-linecap="round" stroke-width="5"/>
	<path d="M164,86c10.38129,0 25.06964,-2.83725 35,0c6.14228,1.75494 10.32399,8 17,8" fill="none" stroke="black" stroke-linecap="round" stroke-width="5"/>
	<path d="M159,27c0,11.66667 0,23.33333 0,35" fill="none" stroke="black" stroke-linecap="round" stroke-width="5"/>
	<path d="M144,113c9.02851,0 52.47376,3.52624 58,-2" fill="none" stroke="black" stroke-linecap="round" stroke-width="5"/>
	<path d="M93,106c28.02698,0 31.76164,15.1376 60,12c21.96615,-2.44068 43.37413,-18 65,-18" fill="none" stroke="black" stroke-linecap="round" stroke-width="5"/>
	<path d="M147,128c0,15.66667 0,31.33333 0,47" fill="none" stroke="black" stroke-linecap="round" stroke-width="5"/>
	<path d="M94,106c0,18.43433 -4.80432,42.65946 5,59" fill="none" stroke="black" stroke-linecap="round" stroke-width="5"/>
	<path d="M204,112c0,9.69778 1.60176,17.30088 11,22" fill="none" stroke="black" stroke-linecap="round" stroke-width="5"/>
</svg>
