<?xml version="1.0" ?>
<svg baseProfile="full" height="300" version="1.1" viewBox="[0, 0, 300, 300]" width="300" xmlns="http://www.w3.org/2000/svg" xmlns:ev="http://www.w3.org/2001/xml-events" xmlns:xlink="http://www.w3.org/1999/xlink">
	<defs/>
	<path d="M110,97c10.49519,0 23.58508,21.2644 29,29c5.00009,7.14299 15.0256,12.06828 18,20c8.40426,22.41136 25,87.32499 25,110" fill="none" stroke="black" stroke-linecap="round" stroke-width="5"/>
	<path d="M110,117c0,8.75166 23.58925,73.75355 24,74c7.59361,4.55617 17.73834,-4 25,-4c2,0 -4.00821,-0.18107 -6,0c-2.60769,0.23706 -9.45571,2.45571 -11,4c-2.8485,2.8485 -10.34311,38.01467 -17,48" fill="none" stroke="black" stroke-linecap="round" stroke-width="5"/>
	<path d="M145,191c20.26466,0 39.54636,-0.35244 59,-4c10.31128,-1.93337 22.94048,-8 33,-8c0.84322,0 6.30756,-2.69244 5,-4c-1.24441,-1.24441 -8.32253,1.35495 -9,0c-3.65068,-7.30136 -11.74058,-13.93515 -20,-16c-4.42091,-1.10523 -11.43164,-10.4481 -13,-10c-12.12099,3.46314 -42.3339,22.33474 -47,34c-1.05772,2.6443 -0.98616,5.98616 -3,8" fill="none" stroke="black" stroke-linecap="round" stroke-width="5"/>
	<path d="M254,234c0,-15.71865 9.1218,-36.8173 -1,-52c-6.83486,-10.25229 -16.08967,-23.37667 -26,-31c-3.0042,-2.31092 -14.87155,-6.02018 -17,-9c-7.65232,-10.71325 -14.95677,-28.30451 -25,-35c-4.85739,-3.23826 -30.28118,-8.28118 -32,-10c-1.2564,-1.2564 1.6153,-12.19235 0,-13c-16.61354,-8.30677 -33.73029,8.86514 -46,15" fill="none" stroke="black" stroke-linecap="round" stroke-width="5"/>
	<path d="M125,134c6.79123,0 32.35104,-14.58776 42,-17c0.64813,-0.16203 14.69311,-3.84134 15,-2c2.66295,15.97769 -26.86558,20.57705 -35,26c-2.56397,1.70931 16.79192,1.87515 17,2c0.85749,0.5145 0,2 0,3c0,8.21545 -11.26348,4.52695 -14,10c-1.13529,2.27058 7,0.46141 7,3c0,12.65086 5.89384,5 15,5" fill="none" stroke="black" stroke-linecap="round" stroke-width="5"/>
</svg>
