<?xml version="1.0" ?>
<svg baseProfile="full" height="300" version="1.1" viewBox="[0, 0, 300, 300]" width="300" xmlns="http://www.w3.org/2000/svg" xmlns:ev="http://www.w3.org/2001/xml-events" xmlns:xlink="http://www.w3.org/1999/xlink">
	<defs/>
	<path d="M95,155c3.53742,0 2,1.87082 2,6c0,20.04264 3.17632,35.88159 7,55c0.81082,4.0541 -2.98049,20.01951 0,23c18.70963,18.70963 51.59345,-47.43738 58,-50c3.66667,-1.46667 2,3 2,5c0,7.93192 4.56193,50.37462 10,54c16.86522,11.24348 30,-39.36479 30,-49c0,-0.66667 -0.5547,-1.6302 0,-2c8.92613,-5.95075 43.19286,-31.73095 53,-35c2.84605,-0.94868 0,6 0,9c0,5.66667 0,11.33333 0,17c0,7.8956 4.42789,38.17908 -2,43c-1.08165,0.81124 -9.33382,0 -10,0c-16.24407,0 1.25612,-18.69755 -12,-24c-4.23508,-1.69403 -10.69587,-5.30413 -15,-1c-2.35608,2.35608 -0.15182,8 -5,8" fill="none" stroke="black" stroke-linecap="round" stroke-width="5"/>
	<path d="M107,156c19.18526,0 82.97452,45.21529 95,38c12.79161,-7.67496 28.38336,-17.25557 40,-25c3.19914,-2.13276 3.65893,-10.26357 8,-12c1.9574,-0.78296 1.33333,-4 2,-6c0.4714,-1.41421 3.45521,-3.67662 2,-4c-15.52384,-3.44974 -31.12188,0.29271 -47,-5c-17.05861,-5.6862 -20.86208,-21.93104 -27,-25c-10.46316,-5.23158 -35.75459,21.00367 -42,26c-8.21128,6.56903 -31,12.83873 -31,23" fill="none" stroke="black" stroke-linecap="round" stroke-width="5"/>
	<path d="M102,164c0,-20.38878 2.02658,-41.73415 0,-62c-1.05961,-10.5961 -2.23025,-27.05041 -7,-35c-0.85749,-1.42915 -1.49071,-4.25464 0,-5c18.02655,-9.01328 40.25854,-23 62,-23c1.10106,0 4.02458,-3.95084 5,-2c3.19886,6.39772 -0.9983,16.50426 2,24" fill="none" stroke="black" stroke-linecap="round" stroke-width="5"/>
</svg>
