<?xml version="1.0" ?>
<svg baseProfile="full" height="300" version="1.1" viewBox="[0, 0, 300, 300]" width="300" xmlns="http://www.w3.org/2000/svg" xmlns:ev="http://www.w3.org/2001/xml-events" xmlns:xlink="http://www.w3.org/1999/xlink">
	<defs/>
	<path d="M85,59c0,-12.88296 17.63788,-13.31894 25,-17c21.49106,-10.74553 99.43383,-27.84926 114,-6c4.56098,6.84147 -2.04081,15.62449 -6,18c-3.39171,2.03502 -16.21491,0 -20,0c-16.0226,0 -47.98714,-6.00514 -63,0c-6.98049,2.7922 -15.09072,9.40902 -22,12c-5.33424,2.00034 -6.82428,-2.17572 -11,2c-3.28243,3.28243 -4.68831,8.18181 -4,13c0.45571,3.18994 4.04688,3.04688 6,5c11.62247,11.62247 17.46781,33.77968 26,48c3.43498,5.72497 1.01893,27 9,27" fill="none" stroke="black" stroke-linecap="round" stroke-width="5"/>
	<path d="M162,91c0,16.80742 2,33.15595 2,50" fill="none" stroke="black" stroke-linecap="round" stroke-width="5"/>
	<path d="M187,95c0,15.60846 12,33.83562 12,46" fill="none" stroke="black" stroke-linecap="round" stroke-width="5"/>
	<path d="M207,64c11.28424,26.32989 15,48.46461 15,77" fill="none" stroke="black" stroke-linecap="round" stroke-width="5"/>
	<path d="M133,167c11.81685,-5.90842 26.48097,-11.99391 39,-16c12.46742,-3.98957 28.22879,-1.11439 40,-7c1.47911,-0.73955 6.17228,-4.83446 7,-5c1.17851,-0.2357 2.30144,1.02201 3,2c1.04335,1.4607 1.35561,3.32459 2,5c1.02237,2.65817 2.44146,5.20731 3,8c2.55152,12.7576 -2.92336,27.33211 0,40c0.30982,1.34256 6.53621,12.46379 5,14c-2.85383,2.85383 -59.67335,-0.80401 -65,-4c-6.31104,-3.78662 -10.07496,14.21499 -14,15c-4.76371,0.95274 -2.83424,-7.55796 -3,-8c-6.65704,-17.75211 -12,-41.02655 -12,-62" fill="none" stroke="black" stroke-linecap="round" stroke-width="5"/>
	<path d="M134,175c0,10.78409 3.27218,31.03159 -1,41c-1.96247,4.5791 -6,10.82469 -6,15c0,3.33333 0,10 0,10c0,0 -0.66667,-2 3,-2" fill="none" stroke="black" stroke-linecap="round" stroke-width="5"/>
	<path d="M137,222c6.1044,3.0522 13.84489,14 17,14" fill="none" stroke="black" stroke-linecap="round" stroke-width="5"/>
	<path d="M159,222c0,10.66667 0,21.33333 0,32" fill="none" stroke="black" stroke-linecap="round" stroke-width="5"/>
</svg>
