<?xml version="1.0" ?>
<svg baseProfile="full" height="300" version="1.1" viewBox="[0, 0, 300, 300]" width="300" xmlns="http://www.w3.org/2000/svg" xmlns:ev="http://www.w3.org/2001/xml-events" xmlns:xlink="http://www.w3.org/1999/xlink">
	<defs/>
	<path d="M94,79c14.02018,-9.34679 65.47289,-22.84237 83,-17c1.41421,0.4714 0.94591,2.94591 2,4c0.84984,0.84984 2.578,0.87467 3,2c0.40197,1.07192 13.12395,24.58404 8,28c-18.25816,12.17211 -57.53873,15 -83,15c-4.81025,0 -7,3 -7,3c0,0 0,-4.44444 0,-5c0,-13.37805 -5,-18.63107 -5,-30" fill="none" stroke="black" stroke-linecap="round" stroke-width="5"/>
	<path d="M102,115c0,11.49325 41.98977,66.83523 50,84c2.33358,5.00053 6.56969,22 12,22" fill="none" stroke="black" stroke-linecap="round" stroke-width="5"/>
	<path d="M198,104c0,20.8938 21.76076,125.50717 39,137" fill="none" stroke="black" stroke-linecap="round" stroke-width="5"/>
	<path d="M122,162c0,17.13495 -19.78943,35.18414 -29,49" fill="none" stroke="black" stroke-linecap="round" stroke-width="5"/>
	<path d="M207,169c0,9.59229 -20.46845,42 -29,42" fill="none" stroke="black" stroke-linecap="round" stroke-width="5"/>
	<path d="M144,175c1,0 2.10557,0.44721 3,0c7.43447,-3.71723 45.64283,-2.64283 47,-4c6.95345,-6.95345 8,-16.72246 8,-27c0,-0.66667 0.65079,-1.85538 0,-2c-24.76414,-5.50314 -51.85481,-1 -77,-1" fill="none" stroke="black" stroke-linecap="round" stroke-width="5"/>
</svg>
