<?xml version="1.0" ?>
<svg baseProfile="full" height="300" version="1.1" viewBox="[0, 0, 300, 300]" width="300" xmlns="http://www.w3.org/2000/svg" xmlns:ev="http://www.w3.org/2001/xml-events" xmlns:xlink="http://www.w3.org/1999/xlink">
	<defs/>
	<path d="M81,62c0,13.87329 -1.15333,97.84667 7,106c0.88766,0.88766 5.81277,-0.92979 6,-1c19.96413,-7.48655 39.56291,-14.46878 61,-16c2.52554,-0.1804 56.20859,0.79141 57,0c1.50849,-1.50849 -0.73305,-46.72886 -1,-51c-0.33431,-5.34893 1.20296,-56.79704 0,-58c-0.26471,-0.26471 -2.58824,0 -3,0c-10.44575,0 -21.31675,1 -32,1c-32.01538,0 -63.77455,10 -94,10c-0.33333,0 -0.7643,-0.2357 -1,0c-2.65788,2.65788 2,13.14857 2,16" fill="none" stroke="black" stroke-linecap="round" stroke-width="5"/>
	<path d="M99,184c29.32777,0 65.43924,6.14019 94,-1c4.72789,-1.18197 29.78597,-14.21403 34,-10c0.90143,0.90143 -1,4.8698 -1,6c0,20.33333 0,40.66667 0,61c0,1.04588 1.42603,6.57397 1,7c-9.20936,9.20936 -91.19711,-6.03942 -106,-9c-4.91356,-0.98271 -26.20227,0.79773 -30,-3c-0.70681,-0.70681 0,-5.91627 0,-7c0,-16.87913 3,-33.77078 3,-51" fill="none" stroke="black" stroke-linecap="round" stroke-width="5"/>
	<path d="M93,234c0,16.66336 -10.45563,29.91125 -17,43" fill="none" stroke="black" stroke-linecap="round" stroke-width="5"/>
	<path d="M222,249c0,11.62541 8.1493,23.1493 16,31" fill="none" stroke="black" stroke-linecap="round" stroke-width="5"/>
	<path d="M87,255c29.81778,0 61.49181,-2.12705 90,5c7.64501,1.91125 16.09771,6 24,6c2.21684,0 24.2953,2.2953 21,-1" fill="none" stroke="black" stroke-linecap="round" stroke-width="5"/>
	<path d="M83,163c0,22.77661 -4.56495,40.91238 -13,62c-2.53181,6.32952 -5.84718,12.54153 -8,19c-0.76949,2.30847 -5,11.26942 -5,10" fill="none" stroke="black" stroke-linecap="round" stroke-width="5"/>
	<path d="M77,82c0,28.07124 7,54.0427 7,81" fill="none" stroke="black" stroke-linecap="round" stroke-width="5"/>
	<path d="M211,85c0,15.40779 9.88969,53.22061 4,65c-5.44208,10.88415 11,18.4977 11,17" fill="none" stroke="black" stroke-linecap="round" stroke-width="5"/>
</svg>
