<?xml version="1.0" ?>
<svg baseProfile="full" height="300" version="1.1" viewBox="[0, 0, 300, 300]" width="300" xmlns="http://www.w3.org/2000/svg" xmlns:ev="http://www.w3.org/2001/xml-events" xmlns:xlink="http://www.w3.org/1999/xlink">
	<defs/>
	<path d="M60,93c0,6.52138 -2.1267,69.8733 1,73c0.62216,0.62216 2.19438,-2.46292 3,-3c3.61011,-2.40674 7.52158,-6.50719 12,-8c19.22449,-6.40816 34.15435,-9 55,-9c12.36388,0 39.09735,-1.45132 50,4c6.61521,3.3076 11.6681,7.6681 16,12c0.2357,0.2357 0,1.33333 0,1c0,-20.30492 5.1031,-98.8969 -7,-111c-12.97945,-12.97945 -124.7346,-2.2654 -135,8c-0.4714,0.4714 0,1.33333 0,2c0,8.69836 -0.08726,17.82548 4,26c2.70189,5.40377 -3,11.99165 -3,17" fill="none" stroke="black" stroke-linecap="round" stroke-width="5"/>
	<path d="M55,127c0,13.44279 -2.74495,34.51011 3,46c5.63976,11.27951 18.38017,17.76034 24,29c3.45937,6.91875 0.83769,30.27923 9,33c27.41755,9.13918 61.44286,4.71143 90,-1c4.41809,-0.88362 22.23404,1.29788 24,-4c2.69513,-8.08538 3.72402,-21.82794 1,-30c-3.36728,-10.10183 -0.40367,-33.40367 -8,-41c-2.50763,-2.50763 -14.41568,0.89608 -18,0c-40.02498,-10.00625 -71.74922,14 -113,14" fill="none" stroke="black" stroke-linecap="round" stroke-width="5"/>
	<path d="M47,123c18.57511,0 24.74565,91.23695 31,110c0.94708,2.84125 6.74041,27.25959 5,29c-18.55805,18.55805 -59.39695,-17.20611 -51,-34c6.18277,-12.36554 25.1041,-15.05205 35,-20c1.26936,-0.63468 4,-1.81281 4,-3" fill="none" stroke="black" stroke-linecap="round" stroke-width="5"/>
	<path d="M201,94c42.88686,0 24,89.91636 24,118c0,10.57981 3.73225,38.26775 -3,45c-10.01881,10.01881 -26,-14.64842 -26,-23" fill="none" stroke="black" stroke-linecap="round" stroke-width="5"/>
</svg>
