<?xml version="1.0" ?>
<svg baseProfile="full" height="300" version="1.1" viewBox="[0, 0, 300, 300]" width="300" xmlns="http://www.w3.org/2000/svg" xmlns:ev="http://www.w3.org/2001/xml-events" xmlns:xlink="http://www.w3.org/1999/xlink">
	<defs/>
	<path d="M78,61c0,22.3833 1.76576,45.87393 -1,68c-0.88536,7.08286 -3,15.07548 -3,22c0,3.34996 -3.99629,11.49815 -1,10c22.88696,-11.44348 35.98528,-29.99673 63,-36c1.34164,-0.29814 2.65232,-0.73046 4,-1c9.46473,-1.89295 23.2133,-5.44667 33,-3c0.10218,0.02554 3.97626,1.02374 3,2c-1.33911,1.33911 -2,-20.04298 -2,-22c0,-7.76602 -0.45509,-45.45509 -5,-50c-27.9485,-27.9485 -65.9833,1.9833 -85,21" fill="none" stroke="black" stroke-linecap="round" stroke-width="5"/>
	<path d="M77,106c2.62349,0 17.0484,-1.9516 19,0c3.44716,3.44716 -0.48615,26.13847 0,31c0.16912,1.69124 0.83088,3.30876 1,5c0.16584,1.6584 -0.16584,3.3416 0,5c1.94174,19.41743 4,42.32094 4,61c0,0.41176 0.26471,2.73529 0,3c-2.4927,2.4927 -19.97821,3.3406 -24,2c-6.54788,-2.18263 -13.63398,-8.26797 -17,-15c-1.00412,-2.00824 -4.8385,-13.1615 -3,-15c2.70677,-2.70677 72.0813,-19.69377 82,-23c3.97427,-1.32476 21.39708,-9.60292 25,-6c0.2357,0.2357 0,0.66667 0,1c0,13.67832 16,32.09645 16,47c0,0.45697 2,6 2,6c0,0 0,-24.38012 0,-27c0,-7.21969 2.06471,-31.93529 -3,-37c-6.19851,-6.19851 -11,-19.68312 -11,-31" fill="none" stroke="black" stroke-linecap="round" stroke-width="5"/>
	<path d="M98,152c23.06372,0 47.6144,1.6928 67,-8c2.83252,-1.41626 8,0.67821 8,-3" fill="none" stroke="black" stroke-linecap="round" stroke-width="5"/>
	<path d="M165,85c19.41909,0 26.02004,30.94989 20,46c-2.22796,5.56989 -2,9.98945 -2,16c0,1.57604 0,8.65288 0,7" fill="none" stroke="black" stroke-linecap="round" stroke-width="5"/>
	<path d="M98,142c0,3.89634 5.05739,12.11478 7,16c1.84343,3.68686 0.60961,10.60961 3,13c3.89632,3.89632 29.35577,-10.60673 34,-12c6.20282,-1.86084 28.03089,-2.03089 32,-6c3.04325,-3.04325 -2.39328,-20.35969 -3,-24c-0.63506,-3.81038 -5.13887,-12.13887 -7,-14c-1.60853,-1.60853 -19.83197,7.472 -23,8c-12.44024,2.07337 -30.93064,0.96532 -41,6c-5.68956,2.84478 -11.88124,6.94062 -18,10c-0.88944,0.44472 -5,4.53486 -5,3" fill="none" stroke="black" stroke-linecap="round" stroke-width="5"/>
	<path d="M77,142c0.33333,0.33333 0.78918,0.57836 1,1c2.7382,5.47639 11.64251,15.64251 16,20c1.10957,1.10957 -0.31798,6.68202 1,8c2.30675,2.30675 12.25664,-1.56416 14,-2c3.19591,-0.79898 13,-2.72831 13,-6" fill="none" stroke="black" stroke-linecap="round" stroke-width="5"/>
</svg>
