<?xml version="1.0" ?>
<svg baseProfile="full" height="300" version="1.1" viewBox="[0, 0, 300, 300]" width="300" xmlns="http://www.w3.org/2000/svg" xmlns:ev="http://www.w3.org/2001/xml-events" xmlns:xlink="http://www.w3.org/1999/xlink">
	<defs/>
	<path d="M88,156c12.14189,0 106.71564,-2.71564 110,-6c8.60664,-8.60664 -8.95694,-72.95694 -19,-83c-35.88261,-35.88261 -83.60311,-7.98443 -92,34c-4.19968,20.99841 0,41.98657 0,63" fill="none" stroke="black" stroke-linecap="round" stroke-width="5"/>
	<path d="M95,183c30.83614,0 62.04851,-0.14319 91,-11c5.69366,-2.13512 29.72627,-9.27373 26,-13" fill="none" stroke="black" stroke-linecap="round" stroke-width="5"/>
	<path d="M96,188c0,8.42662 4.87975,40.87975 11,47c7.80435,7.80435 34.35457,6 45,6c49.79598,0 74.43318,-9.96775 67,-62c-1.00241,-7.01687 -2.82588,-21.82588 -8,-27" fill="none" stroke="black" stroke-linecap="round" stroke-width="5"/>
	<path d="M45,257c0,-32.47891 1.17664,-72.76496 20,-101c8.42262,-12.63393 34.88548,-13.34356 40,2c5.62208,16.86624 -6,94.17273 -6,118" fill="none" stroke="black" stroke-linecap="round" stroke-width="5"/>
	<path d="M188,250c0,-2.81311 0.99745,-8.00255 -1,-10" fill="none" stroke="black" stroke-linecap="round" stroke-width="5"/>
	<path d="M182,169c0,-6.27262 1,-12.19526 1,-18" fill="none" stroke="black" stroke-linecap="round" stroke-width="5"/>
	<path d="M199,121c0,-1.82731 3.56766,-1 5,-1c14.65858,0 25.31958,0.77964 37,11c23.0246,20.14652 27,57.76445 27,87c0,2.51112 1.17541,32 -1,32" fill="none" stroke="black" stroke-linecap="round" stroke-width="5"/>
</svg>
