<?xml version="1.0" ?>
<svg baseProfile="full" height="300" version="1.1" viewBox="[0, 0, 300, 300]" width="300" xmlns="http://www.w3.org/2000/svg" xmlns:ev="http://www.w3.org/2001/xml-events" xmlns:xlink="http://www.w3.org/1999/xlink">
	<defs/>
	<path d="M72,165c35.52049,0 76.60032,-5.59992 111,3c3.22961,0.8074 36.76732,4.23268 37,4c4.41352,-4.41352 -2,-29.80225 -2,-36c0,-5.54133 1.37391,-52.62609 1,-53c-0.2357,-0.2357 -0.7643,0.2357 -1,0c-0.1337,-0.1337 0,-4.92786 0,-2c0,1 0,4 0,3c0,-1.66667 0,-3.33333 0,-5" fill="none" stroke="black" stroke-linecap="round" stroke-width="5"/>
	<path d="M220,79c0,-4.28454 -1.14268,-15.14268 -4,-18c-9.01604,-9.01604 -128.18278,-11.40861 -143,-4c-20.19406,10.09703 -14,55.66425 -14,74c0,11.85615 6,21.73913 6,33c0,1.33333 0,1.33333 0,0" fill="none" stroke="black" stroke-linecap="round" stroke-width="5"/>
	<path d="M70,193c33.18031,0 67.23901,2.09512 100,-2c11.88514,-1.48564 37.08646,-9.95677 49,-4c0.91532,0.45766 1.7564,2.26921 2,3c2.15941,6.47822 5.42001,33.15998 2,40c-13.85252,27.70504 -79.38274,21 -109,21c-6.68894,0 -33.15198,6.84802 -38,2c-5.21272,-5.21272 -2.12332,-52.01344 -1,-61c0.19092,-1.52739 0.73923,-8 2,-8" fill="none" stroke="black" stroke-linecap="round" stroke-width="5"/>
	<path d="M46,110c8.47473,0 19.1508,-1.6164 27,1c23.99332,7.99777 10.74112,85.70558 15,107c2.49669,12.48344 8.25113,46.74887 -2,57c-23.38335,23.38335 -91.07842,-61 -13,-61" fill="none" stroke="black" stroke-linecap="round" stroke-width="5"/>
	<path d="M215,111c39.92822,0 53.94103,74.35379 48,110c-2.52939,15.17633 -9.24224,27.48447 -16,41c-12.44461,24.88921 -33,-25.82135 -33,-34" fill="none" stroke="black" stroke-linecap="round" stroke-width="5"/>
	<path d="M69,161c0,11.39396 -1.01028,20.98972 7,29" fill="none" stroke="black" stroke-linecap="round" stroke-width="5"/>
</svg>
