<?xml version="1.0" ?>
<svg baseProfile="full" height="300" version="1.1" viewBox="[0, 0, 300, 300]" width="300" xmlns="http://www.w3.org/2000/svg" xmlns:ev="http://www.w3.org/2001/xml-events" xmlns:xlink="http://www.w3.org/1999/xlink">
	<defs/>
	<path d="M68,60c0,30 0,60 0,90c0,3.39935 -4.4037,7.5963 -2,10c1.43372,1.43372 4.10151,-0.28807 6,-1c19.01003,-7.12876 37.97239,-6.77471 58,-9c8.0179,-0.89088 98.52367,-0.52367 100,-2c0.91975,-0.91975 -0.7226,-4.44521 -1,-5c-6.62398,-13.24796 -2,-35.40383 -2,-50c0,-9.21416 3.43047,-36.56953 -4,-44c-4.01832,-4.01832 -28.62411,0 -34,0c-25.86002,0 -50.80034,-0.19994 -76,4c-12.72953,2.12159 -25.82901,12 -38,12" fill="none" stroke="black" stroke-linecap="round" stroke-width="5"/>
	<path d="M71,192c13.13681,0 24.32526,3.5917 37,5c24.68618,2.74291 101.06764,-1.06764 118,-18" fill="none" stroke="black" stroke-linecap="round" stroke-width="5"/>
	<path d="M70,192c0,19.86737 -1,42.65535 -1,60c0,1.37212 -0.52498,3.23751 1,4c12.47378,6.23689 53.34859,0.76408 69,3c16.89356,2.41337 72.01937,16.96125 83,-5c3.8074,-7.6148 6.35435,-10.35435 11,-15c2.45149,-2.45149 -14,-66.39997 -14,-76" fill="none" stroke="black" stroke-linecap="round" stroke-width="5"/>
	<path d="M64,91c0,59.4769 1.32616,124.30464 15,179c2.33354,9.33415 -4.94745,28.05255 2,35" fill="none" stroke="black" stroke-linecap="round" stroke-width="5"/>
	<path d="M228,90c0,26.4971 0.88209,52.41045 6,78c3.76735,18.83673 -3.08502,39.74494 3,58c4.39484,13.18451 -0.41723,28.74831 4,42c0.93893,2.8168 7.27473,23 4,23" fill="none" stroke="black" stroke-linecap="round" stroke-width="5"/>
	<path d="M82,273c27.48519,0 56.68548,3.03495 84,0c16.68857,-1.85429 38.11902,-5.3762 55,-2c4.50628,0.90126 8.64047,4 13,4" fill="none" stroke="black" stroke-linecap="round" stroke-width="5"/>
	<path d="M64,188c0,22.41617 -11.24966,55.24966 -27,71" fill="none" stroke="black" stroke-linecap="round" stroke-width="5"/>
</svg>
