<?xml version="1.0" ?>
<svg baseProfile="full" height="300" version="1.1" viewBox="[0, 0, 300, 300]" width="300" xmlns="http://www.w3.org/2000/svg" xmlns:ev="http://www.w3.org/2001/xml-events" xmlns:xlink="http://www.w3.org/1999/xlink">
	<defs/>
	<path d="M70,62c0,5.02339 -0.28121,17.71879 3,21c1.19992,1.19992 8.1099,-3.55495 9,-4c17.45442,-8.72721 40.20691,-8.24138 59,-12c10.19735,-2.03947 20.8695,-5.73369 31,-7c0.82971,-0.10371 14.92127,-0.07873 14,-1c-3.45881,-3.45881 -8.94422,-8.94422 -12,-12c-1.18203,-1.18203 -20.28547,5 -23,5c-14.94996,0 -31.48198,7.49399 -45,12c-5.87403,1.95801 -12.98308,-0.50423 -19,1c-5.39125,1.34781 -13.24975,7 -19,7" fill="none" stroke="black" stroke-linecap="round" stroke-width="5"/>
	<path d="M92,77c0,14.18121 0.25154,27.25772 3,41c0.55194,2.7597 4,26.10461 4,19" fill="none" stroke="black" stroke-linecap="round" stroke-width="5"/>
	<path d="M115,72c0,11.27081 -1.59088,23.86385 0,35c0.46712,3.26984 1.57866,9.15732 3,12c0.65213,1.30425 1,5.57664 1,4" fill="none" stroke="black" stroke-linecap="round" stroke-width="5"/>
	<path d="M134,68c0,13.42562 0.60004,25.80021 3,39c0.51718,2.8445 1,6.07842 1,9c0,2.02759 1,8.02759 1,6c0,-1.66667 0,-3.33333 0,-5" fill="none" stroke="black" stroke-linecap="round" stroke-width="5"/>
	<path d="M155,69c0,1.33333 0,2.66667 0,4c0,15.39034 2,29.9212 2,45c0,1.69967 1,5 1,5c0,0 0,-2.66667 0,-4" fill="none" stroke="black" stroke-linecap="round" stroke-width="5"/>
	<path d="M82,140c25.1547,0 63.48537,1.51463 82,-17c1.97217,-1.97217 18,-1.60403 18,-3" fill="none" stroke="black" stroke-linecap="round" stroke-width="5"/>
	<path d="M84,141c0,11.32036 3.4035,61.4035 9,67c0.75104,0.75104 1.78304,-0.82643 2,-1c7.73729,-6.18983 15.93407,-12.87912 25,-17c15.93506,-7.24321 32.71537,-13.85734 50,-17c5.90296,-1.07326 12.08379,-2.01396 18,-3c2.32495,-0.38749 7,1.35702 7,-1c0,-8.38814 -5.58419,-35.77892 -11,-43c-1.31599,-1.75466 -6,-6.56909 -6,-8" fill="none" stroke="black" stroke-linecap="round" stroke-width="5"/>
	<path d="M95,204c0,12.6459 3,25.51527 3,37c0,1.41126 -0.671,3 1,3" fill="none" stroke="black" stroke-linecap="round" stroke-width="5"/>
	<path d="M188,171c0,14.44511 1,30.27395 1,44" fill="none" stroke="black" stroke-linecap="round" stroke-width="5"/>
	<path d="M79,151c0,17.47109 5,35.91794 5,52" fill="none" stroke="black" stroke-linecap="round" stroke-width="5"/>
	<path d="M179,132c0,10.10911 4,18.63448 4,28" fill="none" stroke="black" stroke-linecap="round" stroke-width="5"/>
	<path d="M95,211c0,4.86068 -4.087,28 6,28" fill="none" stroke="black" stroke-linecap="round" stroke-width="5"/>
	<path d="M96,211c0,11.6947 6,17.94708 6,30" fill="none" stroke="black" stroke-linecap="round" stroke-width="5"/>
	<path d="M185,179c0,7.2287 -6.8138,36 7,36" fill="none" stroke="black" stroke-linecap="round" stroke-width="5"/>
</svg>
