<?xml version="1.0" ?>
<svg baseProfile="full" height="300" version="1.1" viewBox="[0, 0, 300, 300]" width="300" xmlns="http://www.w3.org/2000/svg" xmlns:ev="http://www.w3.org/2001/xml-events" xmlns:xlink="http://www.w3.org/1999/xlink">
	<defs/>
	<path d="M86,158c24.89754,-16.59836 71.21083,-16.87892 100,-14c7.30589,0.73059 17.05172,1.68391 24,4c4.11096,1.37032 8.93587,8.06413 12,5c0.49587,-0.49587 0,-4.29752 0,-5c0,-13.67377 3,-26.37118 3,-40c0,-19.13194 -0.74448,-45.99558 -17,-59c-17.94771,-14.35817 -87.09823,-13.32141 -105,1c-9.4815,7.5852 -17.95251,20.81004 -21,33c-6.48521,25.94084 2,48.2918 2,73" fill="none" stroke="black" stroke-linecap="round" stroke-width="5"/>
	<path d="M86,185c31.63483,0 68.10004,5.17999 99,-1c4.92,-0.984 29.42622,-7.57378 33,-4c3.39454,3.39454 0,27.26735 0,32c0,5.4779 6.36293,28.63707 3,32c-12.54556,12.54556 -123.38343,17.84971 -128,4c-6.69908,-20.09723 2,-45.16559 2,-66" fill="none" stroke="black" stroke-linecap="round" stroke-width="5"/>
	<path d="M69,141c5.3864,0 25.73823,-2.78532 28,4c1.125,3.375 -1.84549,124.76824 -4,128c-14.75049,22.12574 -51.47376,-13.05248 -41,-34c6.02142,-12.04284 24.74099,-17 37,-17c1.56325,0 5,-0.69024 5,-2" fill="none" stroke="black" stroke-linecap="round" stroke-width="5"/>
	<path d="M215,213c29.75187,0 44.68449,65.34225 8,47c-7.76785,-3.88393 -5,-22.95108 -5,-30c0,-12.13071 -0.98328,-25.10035 1,-37c2.44966,-14.69793 23.72735,-50.5453 17,-64c-2.51689,-5.03377 -10.5164,-4 -16,-4" fill="none" stroke="black" stroke-linecap="round" stroke-width="5"/>
</svg>
