<?xml version="1.0" ?>
<svg baseProfile="full" height="300" version="1.1" viewBox="[0, 0, 300, 300]" width="300" xmlns="http://www.w3.org/2000/svg" xmlns:ev="http://www.w3.org/2001/xml-events" xmlns:xlink="http://www.w3.org/1999/xlink">
	<defs/>
	<path d="M80,155c29.80187,0 58.17389,-8 88,-8c2.60501,0 28.59534,4.40466 29,4c1.3867,-1.3867 -3.56582,-19.96073 -4,-23c-1.30532,-9.13723 -0.0586,-84.0293 -8,-88c-12.38268,-6.19134 -33.80382,-1.19936 -47,1c-8.29819,1.38303 -47.12393,1.12393 -51,5c-21.22909,21.22909 -11.48134,48.55598 -3,74c3.88005,11.64015 2,30.79069 2,43" fill="none" stroke="black" stroke-linecap="round" stroke-width="5"/>
	<path d="M54,110c7.13694,0 15.68096,-6.77301 24,-4c23.80393,7.93464 1.19513,55.19513 14,68c3.6367,3.6367 5,28.78113 5,34c0,0.97322 0.42827,2.64293 -1,3c-34.98187,8.74547 -55.05575,-42 -9,-42" fill="none" stroke="black" stroke-linecap="round" stroke-width="5"/>
	<path d="M90,168c17.26392,0 53.63565,-8.36435 67,5c9.19671,9.19671 -3.05004,73.70003 34,49c21.3216,-14.2144 5.54406,-75.73562 2,-97c-1.51541,-9.09248 -5,-20.23429 -5,-29c0,-2.18434 -1,-12.47179 -1,-9" fill="none" stroke="black" stroke-linecap="round" stroke-width="5"/>
	<path d="M83,156c0,53.16601 18.00403,57 67,57c9.49981,0 33.86663,-1.86663 41,-9c1.01491,-1.01491 -0.91243,-5.38701 -1,-6c-2.90201,-20.31407 -9,-42.18984 -9,-63" fill="none" stroke="black" stroke-linecap="round" stroke-width="5"/>
</svg>
