<?xml version="1.0" ?>
<svg baseProfile="full" height="300" version="1.1" viewBox="[0, 0, 300, 300]" width="300" xmlns="http://www.w3.org/2000/svg" xmlns:ev="http://www.w3.org/2001/xml-events" xmlns:xlink="http://www.w3.org/1999/xlink">
	<defs/>
	<path d="M82,116c32.06355,0 64.1367,-2 96,-2c11,0 22,0 33,0c3.66667,0 7.33333,0 11,0c1.37437,0 4,2.37437 4,1c0,-12.24835 -6.50532,-27.52659 -9,-40c-0.81116,-4.05581 0.48369,-26.51631 -2,-29c-3.77841,-3.77841 -24.42262,0.9828 -29,2c-24.34819,5.41071 -50.30653,12.47236 -75,16c-5.57338,0.7962 -28.0208,-3.9792 -32,0c-1.10234,1.10234 0,43.66044 0,51c0,1.33596 0.87329,3 2,3" fill="none" stroke="black" stroke-linecap="round" stroke-width="5"/>
	<path d="M88,158c35.79577,0 70.5953,-2.06614 106,-6c4.70937,-0.52326 30.73502,-6.26498 35,-2c0.94281,0.94281 0,2.66667 0,4c0,17.24919 9,30.95125 9,47" fill="none" stroke="black" stroke-linecap="round" stroke-width="5"/>
	<path d="M89,159c0,21.19026 2.98285,56.98285 17,71c26.96332,26.96332 102.16569,16.83431 126,-7c5.7269,-5.7269 2,-27.82945 2,-36" fill="none" stroke="black" stroke-linecap="round" stroke-width="5"/>
	<path d="M62,102c24.24264,0 26.62898,30.62898 40,44" fill="none" stroke="black" stroke-linecap="round" stroke-width="5"/>
	<path d="M66,102c0,34.68302 -1,69.68226 -1,104c0,11.14952 -3,21.83203 -3,33c0,4.5441 -1,15.06557 -1,15" fill="none" stroke="black" stroke-linecap="round" stroke-width="5"/>
	<path d="M112,236c0,0.66667 -0.21082,1.36754 0,2c4.63695,13.91085 2.31743,29.26973 6,44c0.13357,0.53428 1,7 1,7c0,0 -0.79492,-2.39746 -2,-3" fill="none" stroke="black" stroke-linecap="round" stroke-width="5"/>
	<path d="M213,232c0,7 0,14 0,21" fill="none" stroke="black" stroke-linecap="round" stroke-width="5"/>
	<path d="M226,110c13.66272,0 29.67477,1.67477 37,9" fill="none" stroke="black" stroke-linecap="round" stroke-width="5"/>
	<path d="M218,114c0,6.66667 0,13.33333 0,20" fill="none" stroke="black" stroke-linecap="round" stroke-width="5"/>
	<path d="M236,217c0,16.03442 0.73705,31.15934 3,47c0.8228,5.75959 1.4768,10.95361 4,16c0.48293,0.96586 4,7.35825 4,5" fill="none" stroke="black" stroke-linecap="round" stroke-width="5"/>
	<path d="M80,115c0,6.3846 -3.62105,27.37895 1,32c2.50409,2.50409 8,7.98267 8,14" fill="none" stroke="black" stroke-linecap="round" stroke-width="5"/>
</svg>
