<?xml version="1.0" ?>
<svg baseProfile="full" height="300" version="1.1" viewBox="[0, 0, 300, 300]" width="300" xmlns="http://www.w3.org/2000/svg" xmlns:ev="http://www.w3.org/2001/xml-events" xmlns:xlink="http://www.w3.org/1999/xlink">
	<defs/>
	<path d="M62,171c21.66667,0 43.33333,0 65,0c20.16361,0 47.22038,-4.25987 66,2c0.26147,0.08716 2.83028,0.16972 3,0c2.09334,-2.09334 -2,-47.00265 -2,-50c0,-1.16711 -0.88292,-2.44146 -2,-3c-24.61388,-12.30694 -117.58814,-3.41186 -137,16c-6.18999,6.18999 -1,26.1479 -1,34" fill="none" stroke="black" stroke-linecap="round" stroke-width="5"/>
	<path d="M58,208c24.10292,0 109.45315,-6.51562 129,0c9.12761,3.04254 12.7099,31.58019 9,39c-22.07599,44.15197 -46.39847,20.62835 -91,27c-15.69459,2.24208 -36.77228,10.22772 -49,-2c-6.37787,-6.37787 2,-54.84423 2,-66" fill="none" stroke="black" stroke-linecap="round" stroke-width="5"/>
	<path d="M42,281c0,-15.3064 2.10809,-107.55405 7,-110c11.72589,-5.86294 14.34966,29.69932 17,35c0.33333,0.66667 0.25464,2 1,2" fill="none" stroke="black" stroke-linecap="round" stroke-width="5"/>
	<path d="M199,279c0,-9.14551 0.14342,-89.85658 -2,-92c-0.81161,-0.81161 -5,-0.61124 -5,-2" fill="none" stroke="black" stroke-linecap="round" stroke-width="5"/>
	<path d="M195,189c0,-6.33333 0,-12.66667 0,-19c0,-6.40996 15.63263,0.89788 17,5c1.5694,4.70821 5.05355,30 12,30" fill="none" stroke="black" stroke-linecap="round" stroke-width="5"/>
	<path d="M62,274c0,5.81104 -1,11.46023 -1,17" fill="none" stroke="black" stroke-linecap="round" stroke-width="5"/>
	<path d="M179,262c0,9.29451 7.42021,17.36702 12,25c0.34155,0.56925 2,6.55034 2,3" fill="none" stroke="black" stroke-linecap="round" stroke-width="5"/>
</svg>
