<?xml version="1.0" ?>
<svg baseProfile="full" height="300" version="1.1" viewBox="[0, 0, 300, 300]" width="300" xmlns="http://www.w3.org/2000/svg" xmlns:ev="http://www.w3.org/2001/xml-events" xmlns:xlink="http://www.w3.org/1999/xlink">
	<defs/>
	<path d="M106,159c-3.52131,3.52131 -8.93906,6.89844 -12,12c-6.5449,10.90816 5.89055,46.36319 12,54c0.31072,0.38841 8.35327,0.17663 10,1c36.89496,18.44748 101.00958,15.98083 122,-26c4.07636,-8.15272 1.00132,-27.55497 -9,-32c-22.51703,-10.00757 -99.18894,-26.27035 -121,-19c-7.61435,2.53812 -27.65349,17.2693 -14,20" fill="none" stroke="black" stroke-linecap="round" stroke-width="5"/>
	<path d="M103,145c0,-17.3041 -1.30086,-34.90543 -4,-52c-0.88278,-5.59093 -5,-10.6524 -5,-15" fill="none" stroke="black" stroke-linecap="round" stroke-width="5"/>
	<path d="M147,144c0,-17.95416 -17,-35.45806 -17,-54" fill="none" stroke="black" stroke-linecap="round" stroke-width="5"/>
	<path d="M184,156c-6.46138,-19.38413 -9.90509,-41.81018 -19,-60" fill="none" stroke="black" stroke-linecap="round" stroke-width="5"/>
	<path d="M228,167c0,-13.80786 -12.59657,-33.79162 -18,-47c-5.27875,-12.90361 -8.71225,-33 -9,-33" fill="none" stroke="black" stroke-linecap="round" stroke-width="5"/>
	<path d="M88,110c1.26566,-2.53131 -0.12523,-5.06168 1,-9c8.42362,-29.48269 66.68013,-27.48799 89,-26c13.14743,0.8765 17.85133,2.92567 30,9c0.30423,0.15211 16,9.8922 16,6c0,-9.14856 -9.30234,-26.60467 -13,-34c-3.10392,-6.20783 2.55901,-18.66149 -1,-24c-0.9245,-1.38675 -3.33333,0 -5,0c-14.31738,0 -28.53385,-2 -43,-2c-7.7735,0 -72.50497,-2.74752 -78,0c-11.39666,5.69833 -36.55202,20.06935 -44,30c-1.01718,1.35624 0.38899,5.77797 1,7c7.65959,15.31917 16.8602,17 33,17" fill="none" stroke="black" stroke-linecap="round" stroke-width="5"/>
	<path d="M111,174c4.41221,6.61831 -5.06488,5.10813 -8,10c-3.56874,5.94789 -2.47805,25.2146 -3,32c-2.17272,28.24542 -0.24583,56.84369 -4,85c-1.06691,8.00185 -3,15.63174 -3,24c0,4.05518 -4.86744,14.86744 -2,12c2.73021,-2.73021 7,-5.8562 7,-10" fill="none" stroke="black" stroke-linecap="round" stroke-width="5"/>
	<path d="M132,249c2.02759,0 1,3.97241 1,6c0,20.26234 1,40.67329 1,61c0,3.24495 -2.20234,26.60702 0,20" fill="none" stroke="black" stroke-linecap="round" stroke-width="5"/>
	<path d="M214,209c0,8.64741 -9.09156,14.85637 -12,23c-10.01163,28.03257 -6,56.97599 -6,86c0,6.57439 -5.63971,34.58962 7,18c3.70849,-4.8674 6,-10.66667 9,-16" fill="none" stroke="black" stroke-linecap="round" stroke-width="5"/>
	<path d="M230,198c14.10614,21.15921 -9,121.83799 -9,151" fill="none" stroke="black" stroke-linecap="round" stroke-width="5"/>
</svg>
