<?xml version="1.0" ?>
<svg baseProfile="full" height="300" version="1.1" viewBox="[0, 0, 300, 300]" width="300" xmlns="http://www.w3.org/2000/svg" xmlns:ev="http://www.w3.org/2001/xml-events" xmlns:xlink="http://www.w3.org/1999/xlink">
	<defs/>
	<path d="M86,120c17.416,8.708 43.23835,-1.7056 62,0c13.4473,1.22248 52.67117,4.32883 60,-3c2.79344,-2.79344 7.13527,1.75685 9,3c3.16554,2.11036 9.58188,-3 13,-3c0.74536,0 2,1.74536 2,1c0,-24.3621 2.46328,-32.07343 -9,-55c-0.44721,-0.89443 -2.05132,0.31623 -3,0c-13.26079,-4.42026 -30.78059,0.57993 -45,-1c-4.31955,-0.47995 -8.66888,-1.36093 -13,-1c-8.77417,0.73118 -42.26956,-3.8203 -48,0c-10.56843,7.04562 -24.13673,9.37891 -35,13c-2.52982,0.84327 0,5.33333 0,8c0,12.86384 2.52146,28.39268 0,41c-0.19612,0.98058 1,3 0,3c-1,0 -2.60608,-0.91915 -3,0c-4.63398,10.81262 0,72.69841 0,88c0,3 -2.84605,8.05132 0,9c2.80123,0.93374 3.85128,-0.56752 6,-2" fill="none" stroke="black" stroke-linecap="round" stroke-width="5"/>
	<path d="M236,113c-14.67238,0 -12,76.72061 -12,94" fill="none" stroke="black" stroke-linecap="round" stroke-width="5"/>
	<path d="M156,128c-2.848,0 -2.40326,5.21522 -3,8c-3.88241,18.1179 -7.06383,38.7234 -12,56c-1.44049,5.04173 -2.12606,9.75637 -3,15c-0.4932,2.95918 -2.68328,10.34164 0,9c2.57883,-1.28941 1.42117,-2.71059 4,-4" fill="none" stroke="black" stroke-linecap="round" stroke-width="5"/>
	<path d="M77,222c19.22102,0 43.64364,5.37293 65,3c5.72959,-0.63662 80.36261,-17.54674 88,-8c3.86003,4.82504 0,26.0076 0,33c0,3.48409 0.82397,18.35205 0,20c-1.86981,3.73962 -11.9175,-4.86469 -29,-7c-10.5843,-1.32304 -21.34064,-0.39479 -32,0c-15.29513,0.56649 -95.53198,-5.46802 -105,4c-1.90029,1.90029 3.15016,-4.45049 4,-7c1.7118,-5.1354 1.74635,-9.6618 5,-14c4.09191,-5.45587 2,-29.91996 2,-37" fill="none" stroke="black" stroke-linecap="round" stroke-width="5"/>
	<path d="M67,262c0,4.96791 -1,24.25239 -1,22" fill="none" stroke="black" stroke-linecap="round" stroke-width="5"/>
	<path d="M80,260c2.35746,0 -4,22.9826 -4,28c0,6.06051 1.58344,-1.58344 4,-4" fill="none" stroke="black" stroke-linecap="round" stroke-width="5"/>
	<path d="M225,269c-2.55518,5.11036 -6,23.95555 -6,19" fill="none" stroke="black" stroke-linecap="round" stroke-width="5"/>
	<path d="M213,269c0,5.67528 -10.5432,25 -8,25" fill="none" stroke="black" stroke-linecap="round" stroke-width="5"/>
</svg>
