<?xml version="1.0" ?>
<svg baseProfile="full" height="300" version="1.1" viewBox="[0, 0, 300, 300]" width="300" xmlns="http://www.w3.org/2000/svg" xmlns:ev="http://www.w3.org/2001/xml-events" xmlns:xlink="http://www.w3.org/1999/xlink">
	<defs/>
	<path d="M70,87c13.25104,0 26.90891,-12.09087 40,-15c23.83826,-5.29739 52.73579,-7.38239 77,-9c9.9818,-0.66545 38.79497,-9.30754 45,0c2.4724,3.70861 0.90048,17.94785 0,22c-1.39439,6.27474 -2.97524,17.72178 -10,21c-22.74311,10.61345 -85.87339,16.41266 -110,14c-3.65557,-0.36556 -42.30075,-8.06766 -43,-9c-5.92628,-7.90171 -0.00494,-12.99258 4,-19c1.4423,-2.16345 -1,-10.06898 -1,-7" fill="none" stroke="black" stroke-linecap="round" stroke-width="5"/>
	<path d="M128,93c11.22967,0 20.13159,-6.71053 30,-10c11.01309,-3.67103 21.46385,-1.87651 24,7c0.28254,0.98889 2.23983,7.76017 1,9c-0.14556,0.14556 -53.47365,5.52635 -59,0" fill="none" stroke="black" stroke-linecap="round" stroke-width="5"/>
</svg>
