<?xml version="1.0" ?>
<svg baseProfile="full" height="300" version="1.1" viewBox="[0, 0, 300, 300]" width="300" xmlns="http://www.w3.org/2000/svg" xmlns:ev="http://www.w3.org/2001/xml-events" xmlns:xlink="http://www.w3.org/1999/xlink">
	<defs/>
	<path d="M92,178c2.53859,0 2.33205,4.55086 3,7c3.83906,14.07656 18.53107,41.02071 29,48c17.46767,11.64511 46.00071,-2.00035 66,-12c0.32766,-0.16383 21.91818,-6.59091 22,-7c2.03203,-10.16014 -2,-22.49011 -2,-33c0,-36.89996 -14.58279,-35.16115 -47,-33c-15.36211,1.02414 -34.67783,11.27113 -49,17c-7.10012,2.84005 -9.64247,6.23775 -15,11c-2.90541,2.58258 -13.8873,6 -10,6c6.52862,0 4,-43.46421 4,-52" fill="none" stroke="black" stroke-linecap="round" stroke-width="5"/>
	<path d="M144,140c4.07958,0 -0.2528,-19.2528 -3,-22" fill="none" stroke="black" stroke-linecap="round" stroke-width="5"/>
	<path d="M187,139c-5.38621,-3.5908 -2.7616,-27 -6,-27" fill="none" stroke="black" stroke-linecap="round" stroke-width="5"/>
	<path d="M91,142c1.4696,-7.34802 1.39121,-14.39121 7,-20c2.24005,-2.24005 6.35815,-0.47163 9,-1c2.06725,-0.41345 3.93861,-1.55827 6,-2c24.0555,-5.15475 53.40746,-6 78,-6c4,0 12,0 12,0c0,0 1.55128,1.44872 3,0c5.90627,-5.90627 -11.88696,-23.54785 -13,-28c-1.44789,-5.79157 0.23459,-21.76541 -4,-26c-22.60352,-22.60352 -104.12889,13.47555 -117,36c-6.50819,11.38933 -25.27381,19.45239 -17,36c0.46538,0.93076 22.3366,0.8317 24,0c4.33321,-2.16661 6.52029,-6.68019 10,-9c0.5547,-0.3698 1.33333,0 2,0" fill="none" stroke="black" stroke-linecap="round" stroke-width="5"/>
	<path d="M96,205c0,9.23947 1,18.64089 1,28" fill="none" stroke="black" stroke-linecap="round" stroke-width="5"/>
	<path d="M143,230c-6.87352,6.87352 -5.00745,15.93292 -4,25c0.25767,2.31906 0,9.33333 0,7" fill="none" stroke="black" stroke-linecap="round" stroke-width="5"/>
	<path d="M199,212c3.91975,0 13.0189,34 9,34" fill="none" stroke="black" stroke-linecap="round" stroke-width="5"/>
</svg>
