<?xml version="1.0" ?>
<svg baseProfile="full" height="300" version="1.1" viewBox="[0, 0, 300, 300]" width="300" xmlns="http://www.w3.org/2000/svg" xmlns:ev="http://www.w3.org/2001/xml-events" xmlns:xlink="http://www.w3.org/1999/xlink">
	<defs/>
	<path d="M73,150c0,4.12311 -2.13609,7.96842 -3,12c-2.83813,13.2446 1,28.7708 1,42c0,1.33333 -1.19257,3.40372 0,4c12.54126,6.27063 37.14432,-0.07629 51,-1c20.45328,-1.36355 40.05434,1.9837 60,-4c3.94922,-1.18477 12,-3 12,-3c0,0 4.68353,-24.31001 5,-27c0.82491,-7.01175 -3.08078,-51.54039 -6,-53c-0.29814,-0.14907 0.3288,-0.9452 0,-1c-21.57893,-3.59649 -115,-5.96021 -115,31" fill="none" stroke="black" stroke-linecap="round" stroke-width="5"/>
	<path d="M73,203c5.82143,0 -15.73049,37.73049 -2,24" fill="none" stroke="black" stroke-linecap="round" stroke-width="5"/>
	<path d="M69,159c2.86744,0 -2.97241,4.97241 -5,7c-5.36394,5.36394 -1.81665,9.61249 -9,15c-0.25305,0.18979 -8.97852,5 -5,5" fill="none" stroke="black" stroke-linecap="round" stroke-width="5"/>
	<path d="M184,203c0,5.01472 -9.7679,19.41975 -12,25c-1.68382,4.20955 -5.43372,17.30116 -4,13c0.56765,-1.70294 0.7307,-3.7307 2,-5" fill="none" stroke="black" stroke-linecap="round" stroke-width="5"/>
	<path d="M147,204c0,1.80115 -1.96598,13 -3,13" fill="none" stroke="black" stroke-linecap="round" stroke-width="5"/>
	<path d="M101,137c0,3.80058 -5.79815,-5.39445 -7,-9c-2.36185,-7.08554 -3,-13.63305 -3,-21" fill="none" stroke="black" stroke-linecap="round" stroke-width="5"/>
	<path d="M128,108c6.20175,0 9,-25.46863 9,-31" fill="none" stroke="black" stroke-linecap="round" stroke-width="5"/>
	<path d="M169,114c11.99405,-3.99802 9.49887,-27.52149 9,-37c-0.13288,-2.52471 -2.75179,-24 -4,-24" fill="none" stroke="black" stroke-linecap="round" stroke-width="5"/>
	<path d="M105,124c0.10507,0 -6.8262,-4.39144 -9,-7c-5.72847,-6.87416 -5,-13.71508 -5,-22" fill="none" stroke="black" stroke-linecap="round" stroke-width="5"/>
	<path d="M76,81c39.35272,0 75.23125,-13.01779 114,-16c10.04676,-0.77283 35.49566,6.97399 33,-8c-0.62481,-3.74887 -6.08031,-4.56692 -9,-7c-6.47743,-5.39786 -10.95316,-15.97658 -19,-20c-14.24872,-7.12436 -57.65796,-4 -74,-4c-14.26104,0 -40.09745,-1.90255 -50,8c-0.2357,0.2357 -1.14907,-0.29814 -1,0c2.07388,4.14776 -22.61083,41 18,41" fill="none" stroke="black" stroke-linecap="round" stroke-width="5"/>
</svg>
