<?xml version="1.0" ?>
<svg baseProfile="full" height="300" version="1.1" viewBox="[0, 0, 300, 300]" width="300" xmlns="http://www.w3.org/2000/svg" xmlns:ev="http://www.w3.org/2001/xml-events" xmlns:xlink="http://www.w3.org/1999/xlink">
	<defs/>
	<path d="M82,172c0,10.51957 1.32125,51.32125 9,59c1.66667,1.66667 4.73367,-0.35248 7,-1c8.13315,-2.32376 16.8872,-9.57744 24,-11c11.37396,-2.27479 24.47801,-2.354 36,-4c14.62428,-2.08918 48.24309,2.75691 59,-8c6.768,-6.768 -5.59939,-53.91988 -21,-57c-13.2753,-2.65506 -55.26376,0.895 -69,7c-5.62156,2.49847 -8.65532,9.41383 -15,11c-8.37519,2.0938 -18.00406,0 -27,0c-0.33333,0 0.7643,0.2357 1,0c3.90402,-3.90402 2.43158,-12.88426 3,-18c1.00329,-9.0296 0,-22.05654 0,-33" fill="none" stroke="black" stroke-linecap="round" stroke-width="5"/>
	<path d="M138,147c0,1.4127 -2.00598,-5.68658 -3,-9c-2.87932,-9.59772 0,-18.5672 0,-28" fill="none" stroke="black" stroke-linecap="round" stroke-width="5"/>
	<path d="M169,144c-2.56142,-7.68425 -4.61053,-10.97685 -9,-18c-3.30199,-5.28319 1.60378,-13.39622 -3,-18" fill="none" stroke="black" stroke-linecap="round" stroke-width="5"/>
	<path d="M187,159c0,-3.07318 2,-5.92682 2,-9" fill="none" stroke="black" stroke-linecap="round" stroke-width="5"/>
	<path d="M190,141c0,-7.47386 -3.98855,-27.98855 -9,-33" fill="none" stroke="black" stroke-linecap="round" stroke-width="5"/>
	<path d="M68,112c1.3853,0 17.68148,-24.5208 26,-29c32.27885,-17.38092 70.12188,-27.15125 103,-14c10.68685,4.27474 25.82426,3.82426 35,13c1.8097,1.8097 -3,12.08324 -3,17c0,2.02759 0.43372,7.43372 -1,6c-7.03705,-7.03705 -66.49853,-16.81268 -81,-15c-5.12753,0.64094 1.63806,4.18097 -2,6c-3.85934,1.92967 -12.83304,0.98466 -16,3c-16.42743,10.45382 -30.66551,22.11034 -47,33c-2.96196,1.97464 -3,-5.91121 -3,-7c0,-6.41172 -5.34841,-18 -6,-18" fill="none" stroke="black" stroke-linecap="round" stroke-width="5"/>
	<path d="M90,227c3.14201,0 -0.70774,33.58452 1,37c0.41829,0.83657 3.33371,-5.16713 4,-6c1.04116,-1.30145 1.50929,-3.25464 3,-4c2.54733,-1.27366 6.53472,-0.55786 8,-3c3.80527,-6.34212 2,-19.65185 2,-26c0,-2.80302 1.23031,-6 -2,-6" fill="none" stroke="black" stroke-linecap="round" stroke-width="5"/>
	<path d="M85,192c-10.77377,0 -16.57459,34.28361 -14,36c1.83468,1.22312 6.71971,-2.57324 8,-3c6.73306,-2.24435 3,-13.98066 3,-19" fill="none" stroke="black" stroke-linecap="round" stroke-width="5"/>
	<path d="M83,219c-0.76012,2.28035 -2.92503,3.85006 -4,6c-0.58702,1.17405 9.02739,2.75685 10,3c2.5619,0.64048 3,3.22894 3,0" fill="none" stroke="black" stroke-linecap="round" stroke-width="5"/>
	<path d="M73,224c0,9.82427 10.21366,19 18,19" fill="none" stroke="black" stroke-linecap="round" stroke-width="5"/>
</svg>
