<?xml version="1.0" ?>
<svg baseProfile="full" height="300" version="1.1" viewBox="[0, 0, 300, 300]" width="300" xmlns="http://www.w3.org/2000/svg" xmlns:ev="http://www.w3.org/2001/xml-events" xmlns:xlink="http://www.w3.org/1999/xlink">
	<defs/>
	<path d="M62,81c13.65462,0 28.59909,1.68018 42,-1c32.80711,-6.56142 55.25752,-16.62375 89,-11c7.98627,1.33105 33.15853,6.58527 34,15c1.87695,18.76951 -0.28851,44.35173 -10,61c-8.78416,15.05856 -99.82448,6.80318 -115,-5c-12.86799,-10.00844 -42,-12.34516 -42,-33c0,-21.73158 26.46678,-14 40,-14" fill="none" stroke="black" stroke-linecap="round" stroke-width="5"/>
	<path d="M127,106c8.18253,0 47.47674,-35.66279 52,-4c3.06621,21.46349 -17.69515,23.71748 -34,21c-6.58659,-1.09777 -2.02759,-8.20552 -6,-9c-3.24376,-0.64875 -4.1744,3.25972 -6,-1c-0.17594,-0.41053 -4.81775,-10.81775 -2,-8" fill="none" stroke="black" stroke-linecap="round" stroke-width="5"/>
</svg>
