<?xml version="1.0" ?>
<svg baseProfile="full" height="300" version="1.1" viewBox="[0, 0, 300, 300]" width="300" xmlns="http://www.w3.org/2000/svg" xmlns:ev="http://www.w3.org/2001/xml-events" xmlns:xlink="http://www.w3.org/1999/xlink">
	<defs/>
	<path d="M95,155c6.34043,0 6,32.60394 6,38c0,1.88188 2.23875,10.61938 -1,9c-1.42496,-0.71248 11.79591,-4.89795 12,-5c11.25705,-5.62852 14.86706,-3.97784 27,-6c16.80495,-2.80083 36.94782,-9 54,-9c0.42366,0 6.96534,0.17328 7,0c1.04736,-5.2368 0.5648,-13.1296 3,-18c3.54289,-7.08579 6.05423,-6.56619 5,-15c-0.27416,-2.19332 -6.44485,-12.66544 -6,-14c0.52705,-1.58114 3,-4 3,-4c0,0 -26.58108,1 -30,1c-11.11373,0 -25.00226,-0.46637 -36,1c-10.73382,1.43118 -42.49767,17 -51,17" fill="none" stroke="black" stroke-linecap="round" stroke-width="5"/>
	<path d="M97,148c0,-11.85987 -8.34871,-37.02307 -15,-47" fill="none" stroke="black" stroke-linecap="round" stroke-width="5"/>
	<path d="M121,135c2.59005,-10.36019 -7,-21.99712 -7,-34" fill="none" stroke="black" stroke-linecap="round" stroke-width="5"/>
	<path d="M146,126c0,-2.74158 2,-12.9849 2,-19c0,-1.57991 0.70575,-3 -1,-3" fill="none" stroke="black" stroke-linecap="round" stroke-width="5"/>
	<path d="M170,133c3.59541,0 2,-6.87622 2,-10c0,-7.73879 -4.01802,-24.11196 0,-31c1.915,-3.28286 5.79815,-5.39445 7,-9" fill="none" stroke="black" stroke-linecap="round" stroke-width="5"/>
	<path d="M190,124c1.94879,0 1,-3.53404 1,-5c0,-13.06772 -1,-25.84445 -1,-39" fill="none" stroke="black" stroke-linecap="round" stroke-width="5"/>
	<path d="M61,114c8.62341,0 14.55911,-10.02364 22,-13c16.66601,-6.6664 39.38865,-13.02159 57,-14c16.1426,-0.89681 33.59365,-1 50,-1c5,0 10,0 15,0c2.02759,0 6,3.02759 6,1c0,-11.34133 6.32974,-22.35128 4,-34c-0.20672,-1.03362 0,-2.66667 -1,-3c-13.93234,-4.64411 -110.78147,-0.34363 -124,7c-14.15386,7.86326 -35,16.98794 -35,37c0,2.5896 -2.28323,9 1,9" fill="none" stroke="black" stroke-linecap="round" stroke-width="5"/>
	<path d="M93,207c0,11.19898 -2,22.11057 -2,33" fill="none" stroke="black" stroke-linecap="round" stroke-width="5"/>
	<path d="M94,159c-4.62474,0 -15.08187,19.62281 -18,24c-2.43785,3.65678 -12.30775,14 -9,14" fill="none" stroke="black" stroke-linecap="round" stroke-width="5"/>
	<path d="M76,180c8.47144,0 2.90629,15.93753 6,18c5.63439,3.75626 12,0.93113 12,10" fill="none" stroke="black" stroke-linecap="round" stroke-width="5"/>
</svg>
