<?xml version="1.0" ?>
<svg baseProfile="full" height="300" version="1.1" viewBox="[0, 0, 300, 300]" width="300" xmlns="http://www.w3.org/2000/svg" xmlns:ev="http://www.w3.org/2001/xml-events" xmlns:xlink="http://www.w3.org/1999/xlink">
	<defs/>
	<path d="M85,181c5.46238,27.31192 40.21183,31.07165 63,29c48.31887,-4.39262 71.13618,-23.79371 76,-70c0.59424,-5.64527 2.79505,-11.61484 1,-17c-5.49069,-16.47208 -39.1529,-19 -54,-19c-41.13967,0 -83.78221,-7.08781 -105,38c-3.67595,7.8114 -12.06202,35.93798 -4,44c6.32101,6.32101 41,12.4846 41,3" fill="none" stroke="black" stroke-linecap="round" stroke-width="5"/>
	<path d="M95,110c0,-11.66667 0,-23.33333 0,-35c0,-1.3075 -1,-20.12412 -1,-12" fill="none" stroke="black" stroke-linecap="round" stroke-width="5"/>
	<path d="M133,91c-2.06378,0 -1,-30.04014 -1,-34" fill="none" stroke="black" stroke-linecap="round" stroke-width="5"/>
	<path d="M168,86c0,-15.72283 -3,-31.86401 -3,-48c0,-3.44901 -1.86514,-8.93257 2,-7" fill="none" stroke="black" stroke-linecap="round" stroke-width="5"/>
	<path d="M192,94c-1.94365,0 -4.27815,4.80463 -5,3c-0.47312,-1.18279 2,-69.21076 2,-82" fill="none" stroke="black" stroke-linecap="round" stroke-width="5"/>
	<path d="M77,47c38.55401,0 83.24844,1.25052 120,-11c8.59442,-2.86481 39.89081,1.67244 36,-10c-17.90209,-53.70626 -85.04377,-20.99125 -125,-13c-14.40179,2.88036 -25.23636,9.19338 -36,18c-2.43383,1.99132 -5.38348,3.25566 -8,5c-1.86052,1.24035 -8.1693,3.54233 -6,3c5.96886,-1.49222 16.27007,-1.68467 21,-2" fill="none" stroke="black" stroke-linecap="round" stroke-width="5"/>
	<path d="M79,194c5.75423,0 2.63345,11.25746 3,17c2.10867,33.03587 7.00162,65.01781 10,98c1.70415,18.7456 5.35809,39 -1,39" fill="none" stroke="black" stroke-linecap="round" stroke-width="5"/>
	<path d="M131,197c0,-0.80924 1.35805,23.00846 2,29c2.33487,21.7921 6.29068,43.32547 9,65c0.6111,4.88878 -1.0365,34 1,34c3,0 4.66667,-6.33333 5,-7" fill="none" stroke="black" stroke-linecap="round" stroke-width="5"/>
	<path d="M169,183c14.48979,14.48979 13,57.54733 13,76c0,2.71779 3.07106,53.42638 0,35" fill="none" stroke="black" stroke-linecap="round" stroke-width="5"/>
	<path d="M191,186c3.33815,0 16.11418,43.66933 17,48c4.51667,22.08151 2.68545,44.65262 4,67c2.6788,45.53957 17.0896,85.6344 42,123" fill="none" stroke="black" stroke-linecap="round" stroke-width="5"/>
</svg>
