<?xml version="1.0" ?>
<svg baseProfile="full" height="300" version="1.1" viewBox="[0, 0, 300, 300]" width="300" xmlns="http://www.w3.org/2000/svg" xmlns:ev="http://www.w3.org/2001/xml-events" xmlns:xlink="http://www.w3.org/1999/xlink">
	<defs/>
	<path d="M100,231c0,-6.09433 -7.25353,-10.50707 -10,-16c-6.14575,-12.29149 -11.97901,-20.96852 -18,-30c-0.7619,-1.14286 -3.90476,1.80952 -2,-2c1.16006,-2.32013 9.74362,-2.87181 12,-4c1.75168,-0.87584 2.55409,-7.1847 8,-9c23.95995,-7.98665 81.67267,-26.08183 106,-20c0.61842,0.15461 12.72035,17.32207 13,19c1.26294,7.57764 -2.83593,15.65627 -1,23c2.81948,11.2779 12,25.05523 12,36" fill="none" stroke="black" stroke-linecap="round" stroke-width="5"/>
	<path d="M58,159c0,-12.10846 -8.47026,-66.35316 0,-72c17.66448,-11.77632 71.88244,6 93,6c6.33333,0 12.91035,1.7399 19,0c1.76961,-0.5056 31.34826,-20.86899 38,-12c3.36935,4.49247 -4.61376,15.2064 -5,21c-0.496,7.44002 2.68608,22.62783 -1,30c-0.44721,0.89443 -2,0 -3,0c-7.1448,0 -17.3433,3.98508 -25,6c-23.5278,6.19153 -47.26899,12.72644 -71,18c-9.10503,2.02334 -23.01058,3 -31,3c-6,0 -12,0 -18,0c-1.88889,0 -2.88889,0 -1,0" fill="none" stroke="black" stroke-linecap="round" stroke-width="5"/>
	<path d="M64,99c0,3.49592 -6.65611,-16.96832 -7,-18c-2.95755,-8.87266 -10.70625,-35.58749 -6,-45c3.66554,-7.33108 36.24738,-11.22085 43,-12c15.04193,-1.73561 99.22842,-5.51438 109,1c1.10881,0.73921 9.27394,8.41091 11,11c3.31873,4.97809 -2.70343,15.59313 0,21c3.73708,7.47416 6,11.72742 6,22c0,1 0.31623,2.05132 0,3c-0.08527,0.25581 -10.953,-1.11633 -12,-1c-10.4002,1.15558 -19.4342,4 -30,4" fill="none" stroke="black" stroke-linecap="round" stroke-width="5"/>
	<path d="M57,68c-6.33565,0 13.32224,1 17,1c11,0 22,0 33,0c38.27622,0 70.67166,-4 108,-4" fill="none" stroke="black" stroke-linecap="round" stroke-width="5"/>
	<path d="M62,142c3.26485,0 -3.90464,0 -4,0c-3.67124,0 -9.35619,-2.8219 -13,-1c-13.6365,6.81825 -23.18848,16.94238 -26,31c-1.85925,9.29627 -7.79859,42.54468 -2,50c3.75433,4.82699 29.75583,7.75583 23,1" fill="none" stroke="black" stroke-linecap="round" stroke-width="5"/>
	<path d="M202,104c4.16568,0 21.79697,13.85282 24,17c1.01397,1.44853 18,59.55293 18,63" fill="none" stroke="black" stroke-linecap="round" stroke-width="5"/>
	<path d="M95,231c-1.66667,0 -2.82149,-1.82149 -4,-3c-1.58114,-1.58114 -2.51493,-3.81718 -3,-6c-3.52953,-15.8829 1.99464,-32.0429 0,-48c-1.24189,-9.9351 -10,-18.70379 -10,-28" fill="none" stroke="black" stroke-linecap="round" stroke-width="5"/>
	<path d="M218,210c0,3.87054 -0.93733,-6.32017 -4,-9c-6.03946,-5.28452 -16.79707,-4.79707 -24,-12c-8.30625,-8.30625 -28,-53.35558 -28,-69" fill="none" stroke="black" stroke-linecap="round" stroke-width="5"/>
</svg>
