<?xml version="1.0" ?>
<svg baseProfile="full" height="300" version="1.1" viewBox="[0, 0, 300, 300]" width="300" xmlns="http://www.w3.org/2000/svg" xmlns:ev="http://www.w3.org/2001/xml-events" xmlns:xlink="http://www.w3.org/1999/xlink">
	<defs/>
	<path d="M68,52c20.4035,0 38.3146,-19 66,-19c25.3856,0 49.06946,-11.07197 75,-4c3.85003,1.05001 28.74129,6.77614 26,15c-1.20844,3.62533 -2.63371,15.63371 -5,18c-1.47491,1.47491 -22.81645,-14.63562 -26,-16c-8.38635,-3.59415 -61.39164,-7.81603 -72,-7c-14.73549,1.1335 -47.35431,37.64569 -56,29c-9.01804,-9.01804 -4.08824,-24.08824 -13,-33" fill="none" stroke="black" stroke-linecap="round" stroke-width="5"/>
	<path d="M76,58c0,7.51137 14.20102,44.20102 9,39" fill="none" stroke="black" stroke-linecap="round" stroke-width="5"/>
	<path d="M104,51c5.41825,0 27,41.0748 27,48c0,1.37437 -1,-2.62563 -1,-4" fill="none" stroke="black" stroke-linecap="round" stroke-width="5"/>
	<path d="M146,50c8.5363,8.5363 32.72239,56 28,56" fill="none" stroke="black" stroke-linecap="round" stroke-width="5"/>
	<path d="M200,48c8.49146,8.49146 14.24294,50.49529 9,47" fill="none" stroke="black" stroke-linecap="round" stroke-width="5"/>
	<path d="M234,57c14.40232,0 32.92864,48 20,48" fill="none" stroke="black" stroke-linecap="round" stroke-width="5"/>
	<path d="M253,107c-33.9616,0 -65.62743,16 -99,16c-15.32236,0 -29.14793,3 -44,3c-4.66667,0 -9.33333,0 -14,0c-1.66667,0 -5,-1.66667 -5,0c0,10.60219 49.77285,78.92428 56,81c9.88614,3.29538 50.29507,-15.60655 65,-19c7.86284,-1.8145 25.55968,3.29355 32,-1c4.81422,-3.20948 7.91806,-7.69673 14,-9c4.66006,-0.99858 10.32503,-0.32503 14,-4c17.2,-17.2 -17.10631,-46.21262 -24,-60c-2.50757,-5.01513 -1.98897,-9.97241 -4,-15c-0.72513,-1.81282 -1.82278,-4 -4,-4" fill="none" stroke="black" stroke-linecap="round" stroke-width="5"/>
	<path d="M85,129c0.33333,0.33333 0.78918,0.57836 1,1c2.34359,4.68717 -2.41919,9.31144 -4,13c-6.38725,14.90359 -3,40.4304 -3,56c0,1.76597 -0.55784,3.83162 1,5c1.89032,1.41774 9.93304,9 12,9c3.39935,0 0.66093,-6.87551 2,-10c3.52163,-8.21714 9,-15.64885 9,-25c0,-0.4714 0.66667,-1.33333 1,-1c5.92782,5.92782 11.77891,18.33674 14,25c5.07688,15.23063 -20.25824,18.4945 3,34c1.55218,1.03479 5.92342,6 7,6c0.17647,0 -0.29412,-3.60784 0,-4c4.01625,-5.355 27.16356,-32 22,-32" fill="none" stroke="black" stroke-linecap="round" stroke-width="5"/>
	<path d="M84,148c15.25052,0 33.16958,30.40349 42,41c2.55468,3.06562 20.29765,20 16,20" fill="none" stroke="black" stroke-linecap="round" stroke-width="5"/>
	<path d="M219,186c5.88352,5.88352 23.90555,8.54723 31,5c0.82729,-0.41364 -4.51085,-2.48915 -8,1" fill="none" stroke="black" stroke-linecap="round" stroke-width="5"/>
	<path d="M249,183c4.74515,4.74515 -14.09018,30.90982 -10,35c2.3214,2.3214 7.53182,6.93636 9,4c1.97348,-3.94697 8,-23.54653 8,-28" fill="none" stroke="black" stroke-linecap="round" stroke-width="5"/>
	<path d="M276,164c1.20185,0 1.46252,1.92503 2,3c3.66206,7.32413 14.13384,46.86616 7,54c-1.88562,1.88562 -5.34657,-0.26534 -8,0c-3.70828,0.37083 -9.33333,5.33333 -11,2c-2.948,-5.89599 -6,-25.67349 -6,-32c0,-3.84412 -11,-9.57118 -11,-9" fill="none" stroke="black" stroke-linecap="round" stroke-width="5"/>
</svg>
