<?xml version="1.0" ?>
<svg baseProfile="full" height="300" version="1.1" viewBox="[0, 0, 300, 300]" width="300" xmlns="http://www.w3.org/2000/svg" xmlns:ev="http://www.w3.org/2001/xml-events" xmlns:xlink="http://www.w3.org/1999/xlink">
	<defs/>
	<path d="M53,79c0,5.21621 18.5332,34 18,34" fill="none" stroke="black" stroke-linecap="round" stroke-width="5"/>
	<path d="M46,76c7.07721,-7.07721 17.34878,-8.67439 26,-13c29.47004,-14.73502 30.0678,-40.4887 75,-33c21.20432,3.53405 62.77141,12.60015 59,39c-0.59863,4.19043 0.47204,11.52796 -2,14c-1.38434,1.38434 -20.72147,-11.46518 -25,-12c-23.23268,-2.90409 -46.28156,-2.23948 -68,5c-9.96767,3.32256 -42.20856,35 -43,35" fill="none" stroke="black" stroke-linecap="round" stroke-width="5"/>
	<path d="M67,107c1.3165,0 1.5199,2.55971 2,4c1.8861,5.6583 0.99127,11.476 3,17c2.9121,8.00829 6,12.67777 6,21c0,2.79175 -0.95474,7.04526 -4,4" fill="none" stroke="black" stroke-linecap="round" stroke-width="5"/>
	<path d="M93,95c3.4619,0 18,40.68895 18,50" fill="none" stroke="black" stroke-linecap="round" stroke-width="5"/>
	<path d="M126,78c5.61042,11.22083 15.46326,22.65814 20,34c2.07316,5.18289 5,19.33481 5,18" fill="none" stroke="black" stroke-linecap="round" stroke-width="5"/>
	<path d="M164,73c0,10.9427 18,65.48103 18,55" fill="none" stroke="black" stroke-linecap="round" stroke-width="5"/>
	<path d="M202,82c0,19.17181 11.31499,32.94496 17,50c1.65651,4.96954 7,20.34333 7,20" fill="none" stroke="black" stroke-linecap="round" stroke-width="5"/>
	<path d="M75,181c6.18986,-2.06329 9.04297,-7.18512 16,-9c30.00356,-7.82702 59.06279,-11.16205 88,-23c14.0721,-5.75677 21.67613,-9.46761 37,-11c3.99394,-0.39939 8.06408,-0.21282 12,-1c0.73088,-0.14618 2.74536,-1 2,-1c-5.42875,0 -7.26673,2.26673 -11,6" fill="none" stroke="black" stroke-linecap="round" stroke-width="5"/>
	<path d="M74,181c19.6967,9.84835 41.75702,20.90842 56,38c2.45489,2.94586 27.68884,21 22,21" fill="none" stroke="black" stroke-linecap="round" stroke-width="5"/>
	<path d="M218,137c16.42299,8.2115 47.00092,17.00139 57,32c2.57536,3.86304 -8.52438,3.76535 -13,5c-12.39264,3.41866 -25.6241,7.79496 -37,14c-26.57431,14.49508 -54.09361,38.09361 -74,58" fill="none" stroke="black" stroke-linecap="round" stroke-width="5"/>
	<path d="M66,187c0,21.97227 4,45.9636 4,69c0,0.98329 1.79758,2.93253 2,3c15.33373,5.11124 13,-24.81528 13,-33c0,-1.33333 -1.19257,-3.40372 0,-4c9.04003,-4.52001 18.66311,3.83155 25,7c1.49071,0.74536 0,3.33333 0,5c0,10.06433 -1.11618,22.65147 2,32c0.10541,0.31623 -0.29814,0.85093 0,1c21.46269,10.73134 23.9939,-9.99268 34,-22c2.02444,-2.42933 5.82843,-7.58579 3,-9c-2.5432,-1.2716 -3.87889,2.93944 -6,4" fill="none" stroke="black" stroke-linecap="round" stroke-width="5"/>
	<path d="M83,197c4.70418,-4.70418 0.38661,4.77321 2,8c1.63398,3.26796 20.54136,13 24,13c3.01846,0 1,-5.98154 1,-9c0,-3.04091 -19.4521,-18 -27,-18" fill="none" stroke="black" stroke-linecap="round" stroke-width="5"/>
</svg>
