<?xml version="1.0" ?>
<svg baseProfile="full" height="300" version="1.1" viewBox="[0, 0, 300, 300]" width="300" xmlns="http://www.w3.org/2000/svg" xmlns:ev="http://www.w3.org/2001/xml-events" xmlns:xlink="http://www.w3.org/1999/xlink">
	<defs/>
	<path d="M62,47c0,-1.59148 28.08355,-7.66676 36,-11c38.56974,-16.23989 88.90883,-24.54558 128,-5c2.14994,1.07497 -2.30033,4.30033 -4,6c-0.74536,0.74536 -1.94591,1 -3,1c-15.59955,0 -24.66852,-5.4663 -42,-2c-1.30744,0.26149 -2.68007,-0.18856 -4,0c-25.90199,3.70028 -52.18713,2.54678 -78,9c-12.30466,3.07617 -24.68083,-4 -36,-4" fill="none" stroke="black" stroke-linecap="round" stroke-width="5"/>
	<path d="M90,47c0,-6.20165 -1.47804,11.6951 -2,13c-3.54483,8.86209 -9.34322,17.37287 -12,28c-4.45751,17.83005 -40.5422,71.4578 -22,90c0.97183,0.97183 2.85646,-0.23764 4,-1c6.59166,-4.39444 6.26495,-18.05979 8,-25c3.33557,-13.34229 16.43321,-16.54151 24,-26c2.38623,-2.98279 0.3139,-8.62781 2,-12c0.39274,-0.78549 10.39448,0 12,0" fill="none" stroke="black" stroke-linecap="round" stroke-width="5"/>
	<path d="M103,114c0,25.44368 -25.12429,27.50283 -15,68c0.20062,0.80249 2.27309,10 3,10c1.94365,0 1.96987,-3.35179 3,-5c10.98178,-17.57084 22,-45.97477 22,-67" fill="none" stroke="black" stroke-linecap="round" stroke-width="5"/>
	<path d="M213,33c8.48934,8.48934 4.18475,29.09561 11,40c20.15253,32.24405 52.31641,58.41796 44,100c-0.23111,1.15553 0.92997,7.07003 0,8c-2.70595,2.70595 -6.2333,-2.84995 -7,-4c-13.43077,-20.14616 -20.19181,-42.28772 -34,-63c-2,-3 -3.45049,-11.54951 -6,-9c-0.83623,0.83623 1,4.825 1,6c0,25.58461 -16,51.31725 -16,73c0,2.98047 1.1362,6.03405 -3,5c-2.77108,-0.69277 -2.66408,-1.97673 -3,-5c-2.68026,-24.12236 -1,-59.11371 -1,-78" fill="none" stroke="black" stroke-linecap="round" stroke-width="5"/>
	<path d="M197,68c-7.25255,0 -13.94561,4.82427 -21,6c-7.45121,1.24187 -15.53305,-1.12004 -23,0c-14.63593,2.19539 -29.3074,13.37354 -42,17c-12.57828,3.59379 -14.42778,9.21389 -24,14c-0.30802,0.15401 -3.98148,2.01852 -3,3c17.60777,17.60777 103.20403,16.19731 126,1c28.89696,-19.26464 15.47927,-41.96745 -16,-40c-12.07096,0.75444 -26.29013,9 -37,9" fill="none" stroke="black" stroke-linecap="round" stroke-width="5"/>
	<path d="M98,47c0,-1.21256 -2.85909,7.71818 -4,10c-1.0667,2.13339 -4.17606,4.94014 -5,7c-6.01248,15.03121 -3.56199,24.43801 7,35" fill="none" stroke="black" stroke-linecap="round" stroke-width="5"/>
	<path d="M181,35c12.96678,0 14.54323,26.54323 21,33" fill="none" stroke="black" stroke-linecap="round" stroke-width="5"/>
</svg>
