<?xml version="1.0" ?>
<svg baseProfile="full" height="300" version="1.1" viewBox="[0, 0, 300, 300]" width="300" xmlns="http://www.w3.org/2000/svg" xmlns:ev="http://www.w3.org/2001/xml-events" xmlns:xlink="http://www.w3.org/1999/xlink">
	<defs/>
	<path d="M68,53c0,-37.1312 126,-49.80193 126,-18" fill="none" stroke="black" stroke-linecap="round" stroke-width="5"/>
	<path d="M66,53c0,-2.02522 7.63845,19.68078 9,19c7.60801,-3.80401 18.83466,-18.91733 31,-25c9.45796,-4.72898 54.19282,-0.73094 67,-5c6.22691,-2.07564 16,9.5048 16,15c0,0.85294 1.10784,1.89216 2,1c8.3368,-8.3368 19.46028,-25.76986 7,-32" fill="none" stroke="black" stroke-linecap="round" stroke-width="5"/>
	<path d="M92,53c7.96299,7.96299 15.16133,23.96799 17,35c0.66905,4.01431 -2,23.09849 -2,15" fill="none" stroke="black" stroke-linecap="round" stroke-width="5"/>
	<path d="M113,42c7.37366,7.37366 11.55455,25.88186 13,36c0.45564,3.18946 0,19.29021 0,16" fill="none" stroke="black" stroke-linecap="round" stroke-width="5"/>
	<path d="M145,41c7.45501,7.45501 2,40.6195 2,38" fill="none" stroke="black" stroke-linecap="round" stroke-width="5"/>
	<path d="M167,33c1.70575,0 1,1.42009 1,3" fill="none" stroke="black" stroke-linecap="round" stroke-width="5"/>
	<path d="M167,41c4.10886,8.21773 7.11258,56.05629 -3,51" fill="none" stroke="black" stroke-linecap="round" stroke-width="5"/>
	<path d="M148,76c1.73429,5.20288 3.79761,18.40478 1,24" fill="none" stroke="black" stroke-linecap="round" stroke-width="5"/>
	<path d="M169,90c0,-2.03046 -8.1449,-1 -10,-1c-10.30981,0 -86.08427,21.8736 -70,46c18.5331,27.79965 50.39184,35.94286 80,20c2.59697,-1.39837 24.0808,-6.3232 25,-10c1.99443,-7.9777 6.92529,-13.70118 9,-22c4.46002,-17.84009 -29.99986,-40 -43,-40" fill="none" stroke="black" stroke-linecap="round" stroke-width="5"/>
	<path d="M88,129c0,9.7373 6.66456,16.65824 9,26c2.93623,11.74493 1,25.73606 1,38" fill="none" stroke="black" stroke-linecap="round" stroke-width="5"/>
	<path d="M127,168c0,4.04061 0.9719,25 -2,25" fill="none" stroke="black" stroke-linecap="round" stroke-width="5"/>
	<path d="M211,116c0,5.72872 -8.7807,51.89035 -9,52" fill="none" stroke="black" stroke-linecap="round" stroke-width="5"/>
	<path d="M180,154c8.01314,0 7.16541,30 6,30" fill="none" stroke="black" stroke-linecap="round" stroke-width="5"/>
</svg>
