<?xml version="1.0" ?>
<svg baseProfile="full" height="300" version="1.1" viewBox="[0, 0, 300, 300]" width="300" xmlns="http://www.w3.org/2000/svg" xmlns:ev="http://www.w3.org/2001/xml-events" xmlns:xlink="http://www.w3.org/1999/xlink">
	<defs/>
	<path d="M68,262c-5.10857,-5.10857 -0.406,-27.466 -1,-34c-1.08007,-11.88072 -4.99351,-28.02596 -2,-40c3.60813,-14.43252 13.14785,-27.73925 16,-42c3.25002,-16.25012 1.34322,-32.05929 4,-48c2.13971,-12.83824 0.53005,-25.34976 -2,-38c-0.26954,-1.34768 -1.97183,-3.02817 -1,-4c14.31953,-14.31953 34.99494,-5.89848 52,-11c16.32232,-4.8967 51.07943,-19.92057 66,-5c9.54675,9.54675 -3,95.95262 -3,113c0,22.20829 11,43.4279 11,66c0,1.20185 -0.79815,3 -2,3" fill="none" stroke="black" stroke-linecap="round" stroke-width="5"/>
	<path d="M65,257c6.31162,0 11.57733,9.94845 19,5c10.96488,-7.30992 6.39764,-26.19291 10,-37c4.23926,-12.71777 6.98903,-23.97806 13,-36c0.37107,-0.74214 1.38374,-3.80813 3,-3c11.3948,5.6974 16.47793,62.91173 20,77c0.54384,2.17537 12.71253,17.17248 13,17c16.01288,-9.60773 15,-56.28067 15,-74c0,-1.2878 -2.2015,-6 -3,-6" fill="none" stroke="black" stroke-linecap="round" stroke-width="5"/>
	<path d="M80,164c-4.04335,4.04335 35.9263,13.36194 38,14c5.21631,1.60502 60.4492,24.7754 66,22c7.91727,-3.95864 13.3982,-16.57014 21,-22c2.43782,-1.7413 18.18436,-10.72345 16,-14c-5.76945,-8.65417 -18.71263,-11.71263 -25,-18c-1.74198,-1.74198 -12.90029,-10.80057 -11,-7" fill="none" stroke="black" stroke-linecap="round" stroke-width="5"/>
	<path d="M86,153c27.3692,0 55.11593,-12.73254 83,-14c7.61163,-0.34598 15.38837,-0.65402 23,-1c4.32886,-0.19677 17.33333,0 13,0" fill="none" stroke="black" stroke-linecap="round" stroke-width="5"/>
	<path d="M208,179c-9.5431,19.08621 17.27054,62.74589 -14,69c-14.49449,2.8989 -2.70544,-33.76738 -2,-38c0.3288,-1.97279 0,-6 0,-6c0,0 -1.24214,5.24214 -2,6c-7.38269,7.38269 -7.9933,24.98326 -12,35c-0.16927,0.42317 0.48739,4 -1,4c-3.14663,0 -5.65126,-6.95377 -6,-8c-6.05385,-18.16155 -4,-43.76346 -4,-63" fill="none" stroke="black" stroke-linecap="round" stroke-width="5"/>
	<path d="M95,65c0,-1.33333 0,2.66667 0,4" fill="none" stroke="black" stroke-linecap="round" stroke-width="5"/>
	<path d="M92,61c0,34.59459 20.35929,70 57,70c8.2217,0 17.12511,-4.68767 22,-12c5.93415,-8.90123 25.0231,-44.18152 14,-53c-18.5736,-14.85888 -53.96863,-7.00896 -75,-1c-1.56547,0.44728 -5,-1.2309 -5,1" fill="none" stroke="black" stroke-linecap="round" stroke-width="5"/>
</svg>
