<?xml version="1.0" ?>
<svg baseProfile="full" height="300" version="1.1" viewBox="[0, 0, 300, 300]" width="300" xmlns="http://www.w3.org/2000/svg" xmlns:ev="http://www.w3.org/2001/xml-events" xmlns:xlink="http://www.w3.org/1999/xlink">
	<defs/>
	<path d="M57,67c0,-4.27851 -0.93808,-11.12384 1,-15c0.84327,-1.68655 4,-5.88562 4,-4c0,4.19433 -4.77586,9.03448 -7,12c-1.63158,2.17544 2.56265,13.56265 -3,8" fill="none" stroke="black" stroke-linecap="round" stroke-width="5"/>
	<path d="M54,43c15.06008,0 27.25167,-9.31292 42,-13c25.08834,-6.27209 44.71806,-5 70,-5c11.28668,0 20.43053,3.84305 32,5c0.99504,0.0995 2.85858,-0.98995 3,0c0.49239,3.44674 1.36492,16.90523 0,21c-0.34011,1.02034 -9.62666,-0.90666 -10,-1c-11.81737,-2.95434 -24.48775,-2 -37,-2c-30.77922,0 -65.32671,2.32671 -87,24c-2.25177,2.25177 -6.69447,-0.30553 -9,2" fill="none" stroke="black" stroke-linecap="round" stroke-width="5"/>
	<path d="M58,76c0,19.39236 10,36.18534 10,54" fill="none" stroke="black" stroke-linecap="round" stroke-width="5"/>
	<path d="M88,63c0,18.99327 12,41.20697 12,60" fill="none" stroke="black" stroke-linecap="round" stroke-width="5"/>
	<path d="M125,52c0,11.11422 16.77246,82.38623 8,78" fill="none" stroke="black" stroke-linecap="round" stroke-width="5"/>
	<path d="M168,52c2.37738,0 1,7.04525 1,9c0,13.95775 -1,27.88911 -1,42c0,4.3445 0,23.49471 0,17" fill="none" stroke="black" stroke-linecap="round" stroke-width="5"/>
	<path d="M200,51c0,27.4434 -3,52.96628 -3,78" fill="none" stroke="black" stroke-linecap="round" stroke-width="5"/>
	<path d="M64,132c0,13.03258 12,20.35402 12,32" fill="none" stroke="black" stroke-linecap="round" stroke-width="5"/>
	<path d="M70,126c22.52373,0 46.67434,3.67908 69,1c11.08735,-1.33048 25.52776,-6.91204 37,-5c4.58532,0.76422 20.01086,-1.49457 23,0c1.6435,0.82175 1.07869,2.61803 2,4c2.31159,3.46739 12.59019,46.60421 7,49c-27.41207,11.74803 -68.30004,12.3 -98,15c-4.26132,0.38739 -30.80681,7.19319 -35,3c-7.66276,-7.66276 -18.30386,-27.4807 -16,-39c1.23375,-6.16877 7.47576,-23 0,-23" fill="none" stroke="black" stroke-linecap="round" stroke-width="5"/>
	<path d="M53,145c1.35789,0 2.60921,7.04607 3,9c4.44185,22.20925 -12.15503,52.84497 4,69c4.45373,4.45373 4,-2.57972 4,-5c0,-13.94044 -1.71175,-20.42942 12,-25c1.92817,-0.64272 -3.46356,28.26822 4,32c13.26111,6.63056 7.5533,-30 12,-30" fill="none" stroke="black" stroke-linecap="round" stroke-width="5"/>
	<path d="M204,124c0,5.76146 8.23972,13.39954 11,18c13.32914,22.21523 11.71,48.29 -5,65c-0.04413,0.04413 -1.97363,-18.61582 -3,-18c-9.74637,5.84782 -7.22889,16.45779 -11,24c-0.42307,0.84615 -9,2.1162 -9,0c0,-2.78171 11.37088,-45.11264 6,-29" fill="none" stroke="black" stroke-linecap="round" stroke-width="5"/>
</svg>
