<?xml version="1.0" ?>
<svg baseProfile="full" height="300" version="1.1" viewBox="[0, 0, 300, 300]" width="300" xmlns="http://www.w3.org/2000/svg" xmlns:ev="http://www.w3.org/2001/xml-events" xmlns:xlink="http://www.w3.org/1999/xlink">
	<defs/>
	<path d="M60,32c0,-2.13321 -0.77405,5.64427 -1,7c-0.77004,4.62026 -1.57559,10.33147 -2,15c-1.84855,20.33403 2,42.06169 2,63c0,10.26971 -3,4.05531 -3,-3" fill="none" stroke="black" stroke-linecap="round" stroke-width="5"/>
	<path d="M60,26c10.25146,5.12573 83.19612,2.19612 88,7c1.64992,1.64992 0.23218,4.67825 0,7c-1.84201,18.42014 3.12132,37.27209 0,56c-4.6396,27.83758 -36.40641,38.43226 -63,34c-6.26989,-1.04498 -32,-6.25912 -32,-12" fill="none" stroke="black" stroke-linecap="round" stroke-width="5"/>
	<path d="M55,44c15.6789,0 31.2961,8.34078 48,5c6.72217,-1.34443 26.79521,-5.65359 33,-1c7.90192,5.92644 7.49033,14.05805 6,23c-0.74368,4.46206 0.53331,16.46669 -3,20c-3.50946,3.50946 -11.84444,11.18039 -17,13c-7.93298,2.79987 -54.81679,11.63868 -60,3c-6.2251,-10.37517 -15.97463,-37.05073 -10,-49c1.82292,-3.64584 7.43269,-5.57692 10,-9c1.15226,-1.53634 3.44006,-6 5,-6" fill="none" stroke="black" stroke-linecap="round" stroke-width="5"/>
	<path d="M53,120c0,21.36177 2.09735,65.09735 18,81c1.09639,1.09639 6.16352,-0.16352 7,-1c9.14121,-9.14121 12.77345,-50.19336 20,-52c5.48477,-1.37119 5,20.27193 5,24c0,9.85 8.27254,32.27254 15,39c2.63523,2.63523 0.69144,-7.51051 2,-11c2.0721,-5.52561 2.08806,-23.08806 6,-27" fill="none" stroke="black" stroke-linecap="round" stroke-width="5"/>
	<path d="M58,134c0,-2.76664 5.6291,0.31455 7,1c9.41556,4.70778 59.74599,54.25401 71,43c9.61447,-9.61447 28.99344,-14.98033 34,-30c2.41195,-7.23586 -6.95389,-13.86167 -9,-20c-3.05303,-9.1591 -6.05824,-17.05824 -13,-24" fill="none" stroke="black" stroke-linecap="round" stroke-width="5"/>
	<path d="M154,123c0,17.40834 34.11186,72.94407 12,84c-7.05732,3.52866 -15.98203,-20.03594 -13,-26c1.00479,-2.00958 0.79636,15.59272 -1,12c-1.48793,-2.97585 1.35067,-30 -3,-30" fill="none" stroke="black" stroke-linecap="round" stroke-width="5"/>
</svg>
