<?xml version="1.0" ?>
<svg baseProfile="full" height="300" version="1.1" viewBox="[0, 0, 300, 300]" width="300" xmlns="http://www.w3.org/2000/svg" xmlns:ev="http://www.w3.org/2001/xml-events" xmlns:xlink="http://www.w3.org/1999/xlink">
	<defs/>
	<path d="M73,127c5.60776,0 14.27369,3.72631 19,-1c2.63191,-2.63191 0.70777,-12.70777 3,-15c12.73361,-12.73361 27.52477,-10.49505 45,-7c4.09961,0.81992 11.28322,-1.85839 15,0c7.03427,3.51714 -2.84286,20.57857 6,25c12.20602,6.10301 41.00332,-9.00996 32,18c-2.40783,7.2235 -26.25869,6.32587 -33,7c-15.31897,1.5319 -73.80017,8.09991 -88,1c-4.34861,-2.17431 -9.4845,-25.5155 -6,-29c2.85028,-2.85028 9.3298,-2.3298 12,-5" fill="none" stroke="black" stroke-linecap="round" stroke-width="5"/>
</svg>
