<?xml version="1.0" ?>
<svg baseProfile="full" height="300" version="1.1" viewBox="[0, 0, 300, 300]" width="300" xmlns="http://www.w3.org/2000/svg" xmlns:ev="http://www.w3.org/2001/xml-events" xmlns:xlink="http://www.w3.org/1999/xlink">
	<defs/>
	<path d="M77,83c-2.05675,0 -1,25.41432 -1,27c0,11.42011 -7.64649,34.70701 -2,46c0.85355,1.70711 2.33926,1 4,1c16.09474,0 38.9093,5.03023 54,0c5.81319,-1.93773 2,-33.93199 2,-37c0,-1.98306 2.66303,-27.33697 0,-30c-6.59216,-6.59216 -27.5577,-9.39932 -33,-11c-9.88535,-2.90746 -21.86705,-7 -32,-7" fill="none" stroke="black" stroke-linecap="round" stroke-width="5"/>
	<path d="M48,69c0,44.52084 4,87.17932 4,131c0,15.89701 -5.52484,38.48936 12,46c39.16379,16.78448 0.34749,-80.32626 31,-65c4.31321,2.15661 12.79013,2.95067 14,9c2.87602,14.38009 -7.48618,86.24309 25,70c6.02673,-3.01337 5.79704,-50.01482 4,-59c-0.3868,-1.93401 -5.3154,-17 -2,-17" fill="none" stroke="black" stroke-linecap="round" stroke-width="5"/>
	<path d="M103,168c19.46918,0 46.60853,0.4564 62,12c1.09949,0.82462 3.02817,-0.02817 4,-1c4.69064,-4.69064 6.74089,-20.22268 9,-27c0.84327,-2.52982 -5.33333,0 -8,0c-5.66667,0 -11.33868,0.24614 -17,0c-3.59568,-0.15633 -41,-6.1736 -41,3" fill="none" stroke="black" stroke-linecap="round" stroke-width="5"/>
	<path d="M190,192c0,14.91099 5.53895,49.46105 -5,60c-5.31525,5.31525 -17.44749,-10.67124 -19,-13c-12.08346,-18.1252 -9,-37.6021 -9,-59" fill="none" stroke="black" stroke-linecap="round" stroke-width="5"/>
	<path d="M40,61c27.29211,0 60.97762,-10.94776 88,-3c9.34347,2.74808 17.84469,10.71117 27,13c2.22303,0.55576 6.11952,0.23904 7,2c3.3866,6.77321 2,16.29302 2,24c0,13.19967 0.18283,28.45152 -4,41" fill="none" stroke="black" stroke-linecap="round" stroke-width="5"/>
</svg>
