<?xml version="1.0" ?>
<svg baseProfile="full" height="300" version="1.1" viewBox="[0, 0, 300, 300]" width="300" xmlns="http://www.w3.org/2000/svg" xmlns:ev="http://www.w3.org/2001/xml-events" xmlns:xlink="http://www.w3.org/1999/xlink">
	<defs/>
	<path d="M67,121c0,-10.03022 21.8472,-15.13888 29,-18c17.38151,-6.9526 46.25823,-16.58059 66,-10c15.1798,5.05993 25.2807,19.14035 39,26" fill="none" stroke="black" stroke-linecap="round" stroke-width="5"/>
	<path d="M57,192c18.36208,0 36.86908,-10.13722 55,-13c12.86929,-2.03199 51,-8.55848 51,14c0,5.53478 0.4186,11.21396 -3,16c-18.30708,25.62991 -91.79343,9.41313 -104,-15" fill="none" stroke="black" stroke-linecap="round" stroke-width="5"/>
	<path d="M78,216c-3.59011,0 -6.55577,2.98699 -10,4c-31.19356,9.17458 -6,29.34135 -6,56" fill="none" stroke="black" stroke-linecap="round" stroke-width="5"/>
	<path d="M162,210c18.26354,9.13177 19,15.2566 19,36" fill="none" stroke="black" stroke-linecap="round" stroke-width="5"/>
	<path d="M163,178c1.09002,0 10.64765,-1.23965 12,0c19.64379,18.00681 28.29201,67 -7,67" fill="none" stroke="black" stroke-linecap="round" stroke-width="5"/>
	<path d="M49,192c-13.229,0 -13,25.54483 -13,35" fill="none" stroke="black" stroke-linecap="round" stroke-width="5"/>
	<path d="M80,182c0,-27.70748 -2.62246,-56.46419 0,-84c0.40939,-4.29863 0.85191,-7 4,-7" fill="none" stroke="black" stroke-linecap="round" stroke-width="5"/>
	<path d="M147,184c2.4037,0 3.5286,-3.64298 4,-6c2.19265,-10.96323 4.69368,-21.89624 6,-33c3.05907,-26.00206 4,-53.83492 4,-80c0,-2.33333 0,4.66667 0,7" fill="none" stroke="black" stroke-linecap="round" stroke-width="5"/>
</svg>
