<?xml version="1.0" ?>
<svg baseProfile="full" height="300" version="1.1" viewBox="[0, 0, 300, 300]" width="300" xmlns="http://www.w3.org/2000/svg" xmlns:ev="http://www.w3.org/2001/xml-events" xmlns:xlink="http://www.w3.org/1999/xlink">
	<defs/>
	<path d="M74,290c-10.71744,0 -23.07463,-57.41047 -25,-68c-1.97861,-10.88238 -18.47191,-123.58428 -16,-131c5.03597,-15.10792 57.92145,-23.47346 71,-16c15.27813,8.73036 27.3623,17.17869 35,35c10.61304,24.76376 15.91972,51.83943 28,76c8.87084,17.74168 32,80.09137 32,99" fill="none" stroke="black" stroke-linecap="round" stroke-width="5"/>
	<path d="M47,141c17.53299,0 38.6867,3.46266 56,0c12.47993,-2.49599 23.12082,-6 36,-6" fill="none" stroke="black" stroke-linecap="round" stroke-width="5"/>
	<path d="M57,222c27.83406,-13.91703 64.09589,-9.43835 93,-21c0.48838,-0.19535 5.99442,-2.00558 7,-1c4.52956,4.52956 15.60999,10.82998 18,18c0.82936,2.48809 2.19325,9.19325 4,11c2.38167,2.38167 16.82947,12.34107 16,14c-1.68488,3.36977 -26.43778,2.23963 -31,3c-9.17191,1.52865 -87.07576,14.96212 -97,10c-6.06211,-3.03105 -13.56929,-22 -21,-22" fill="none" stroke="black" stroke-linecap="round" stroke-width="5"/>
	<path d="M26,218c0,8.34105 -8.62684,50.62684 -14,56" fill="none" stroke="black" stroke-linecap="round" stroke-width="5"/>
	<path d="M21,262c16.04324,0 31.81968,-1 49,-1" fill="none" stroke="black" stroke-linecap="round" stroke-width="5"/>
	<path d="M102,264c17.52247,0 34.80643,-5 48,-5" fill="none" stroke="black" stroke-linecap="round" stroke-width="5"/>
</svg>
