<?xml version="1.0" ?>
<svg baseProfile="full" height="300" version="1.1" viewBox="[0, 0, 300, 300]" width="300" xmlns="http://www.w3.org/2000/svg" xmlns:ev="http://www.w3.org/2001/xml-events" xmlns:xlink="http://www.w3.org/1999/xlink">
	<defs/>
	<path d="M58,73c-0.99086,0 -3,7.59701 -3,9c0,22.53403 -2.94218,59.11563 7,79c1.453,2.906 54.69616,7.5359 60,4c6.70387,-4.46925 2,-32.00143 2,-39c0,-3.25263 0.60805,-43.39195 0,-44c-5.24846,-5.24846 -54.19345,-6 -68,-6" fill="none" stroke="black" stroke-linecap="round" stroke-width="5"/>
	<path d="M38,58c8.81821,8.81821 8,119.76479 8,136c0,11.39536 -6.58886,36.27409 5,44c3.49678,2.33119 6.08917,-1.17833 7,-3c5.92005,-11.84011 1,-32.4726 1,-46c0,-0.22094 -0.21947,-5.92684 0,-6c5.40137,-1.80046 12.61826,1 18,1c4.71896,0 8.42987,2.42873 13,3c44.20568,5.52571 -21.09115,49.22721 14,58c13.90349,3.47587 7.07067,-24.14135 10,-30c2.66393,-5.32785 10.5091,-30 6,-30" fill="none" stroke="black" stroke-linecap="round" stroke-width="5"/>
	<path d="M42,63c0,-28.36705 66.82238,0.82238 76,10c3.70585,3.70585 14.1299,-0.80516 18,5c9.44685,14.17028 5,41.78852 5,59c0,10.1594 4.32071,43 -8,43" fill="none" stroke="black" stroke-linecap="round" stroke-width="5"/>
	<path d="M78,180c0,-0.66667 0,-1.33333 0,-2" fill="none" stroke="black" stroke-linecap="round" stroke-width="5"/>
	<path d="M78,178c0,-2.14692 18.28211,-1 22,-1c8.40692,0 26.55877,-8.72062 34,-5c5.97573,2.98786 9.26343,7.39515 13,13c0.44086,0.66129 13.70688,16.76437 13,17c-35.8113,11.9371 -55.42989,-18 -60,-18" fill="none" stroke="black" stroke-linecap="round" stroke-width="5"/>
	<path d="M155,211c0,9.18291 13.32107,38.23857 6,48c-2.9139,3.8852 -6.8901,5 -12,5c-18.17946,0 -14,-15.73259 -14,-31c0,-7.66667 0,-15.33333 0,-23" fill="none" stroke="black" stroke-linecap="round" stroke-width="5"/>
	<path d="M146,226c0,1.62243 3.19516,21.89637 -6,15c-6.94359,-5.20769 1.3341,-37 -4,-37" fill="none" stroke="black" stroke-linecap="round" stroke-width="5"/>
	<path d="M106,207c0,8.93446 0.78031,13.43938 -3,21c-0.4,0.8 0.4,2.2 0,3c-2.29366,4.58732 -4,-5.01994 -4,-6c0,-9.95604 10,-13.80109 10,-23" fill="none" stroke="black" stroke-linecap="round" stroke-width="5"/>
	<path d="M53,196c0,8.24318 7.2207,16.5586 3,25c-0.51728,1.03457 -3.88413,3.11587 -5,2c-8.4306,-8.4306 -4.14962,-39.55115 -1,-49c0.91718,-2.75153 2,-18.91851 2,-17" fill="none" stroke="black" stroke-linecap="round" stroke-width="5"/>
	<path d="M87,191c10.41951,0 4.39026,39.47736 -9,28c-8.10052,-6.9433 -9.67424,-27.95458 -8,-38c0.15862,-0.95172 1.21591,-3 2,-3" fill="none" stroke="black" stroke-linecap="round" stroke-width="5"/>
	<path d="M78,190c0,4.89882 -1,9.52028 -1,14c0,1.33333 -1.33333,4 0,4c5.15416,0 7,-6.85362 7,-11" fill="none" stroke="black" stroke-linecap="round" stroke-width="5"/>
</svg>
