<?xml version="1.0" ?>
<svg baseProfile="full" height="300" version="1.1" viewBox="[0, 0, 300, 300]" width="300" xmlns="http://www.w3.org/2000/svg" xmlns:ev="http://www.w3.org/2001/xml-events" xmlns:xlink="http://www.w3.org/1999/xlink">
	<defs/>
	<path d="M74,165c0,9.72824 -6.46058,18.68879 -9,28c-3.90837,14.33071 -7.75253,76.87121 -1,87c5.96267,8.944 15.8024,-15.27546 16,-16c5.24216,-19.22127 1.313,-47.6565 22,-58c4.44069,-2.22035 7.61532,2.76907 9,6c5.78546,13.49942 -0.9561,62.34797 13,67c29.06677,9.68892 31,-65.0261 31,-80" fill="none" stroke="black" stroke-linecap="round" stroke-width="5"/>
	<path d="M96,178c0,-3.59011 -2.9442,6.56865 -4,10c-2.03055,6.59929 -3,12.13248 -3,19c0,19.23988 -6.04868,37.85396 0,56c0.21082,0.63246 1.33333,0 2,0c8.82187,0 22.65336,-10.6334 26,-19c3.38331,-8.45827 -0.45209,-37.18264 11,-41c5.1809,-1.72697 5.26748,1.33741 6,5c4.17552,20.87761 -2.25021,51.78565 23,59c23.58658,6.73902 36,-47.35226 36,-64" fill="none" stroke="black" stroke-linecap="round" stroke-width="5"/>
</svg>
