<?xml version="1.0" ?>
<svg baseProfile="full" height="300" version="1.1" viewBox="[0, 0, 300, 300]" width="300" xmlns="http://www.w3.org/2000/svg" xmlns:ev="http://www.w3.org/2001/xml-events" xmlns:xlink="http://www.w3.org/1999/xlink">
	<defs/>
	<path d="M64,130c0,12.85427 -5.75332,51.24668 4,61c2.28737,2.28737 5.66206,-1.32412 6,-2c3.45214,-6.90429 13.55701,-57.22149 28,-50c17.15726,8.57863 1.85445,50.85445 15,64c3.00447,3.00447 4.46151,-5.32689 5,-6c10.30753,-12.88441 -0.64658,-40.35342 9,-50c0.2357,-0.2357 0,-0.66667 0,-1c0,-1 0,-2 0,-3" fill="none" stroke="black" stroke-linecap="round" stroke-width="5"/>
	<path d="M131,143c6.78345,0 58.40533,-1.62133 60,-8c2.75702,-11.02807 -15.95761,-23.59602 -21,-32c-2.72797,-4.54662 -4.75561,-11.37781 -10,-14c-1.30454,-0.65227 -4.61232,0 -6,0c-28.27618,0 -52.56286,35 -81,35c-0.66667,0 -1.5286,-0.4714 -2,0c-0.26055,0.26055 10.10856,3.15936 12,4c5.43577,2.4159 35,13.66382 35,20" fill="none" stroke="black" stroke-linecap="round" stroke-width="5"/>
	<path d="M169,147c-9.05672,0 -1.29541,44.88622 5,26c0.71434,-2.14301 2.40181,-4.90632 3,-7c1.09833,-3.84415 1,-7.17159 1,-11" fill="none" stroke="black" stroke-linecap="round" stroke-width="5"/>
	<path d="M183,142c1.58464,0 9.42458,28.42458 13,32c0.11341,0.11341 2.41138,-16 -2,-16" fill="none" stroke="black" stroke-linecap="round" stroke-width="5"/>
	<path d="M70,118c-16.47616,-10.98411 -9.27413,-55.0888 0,-69c13.63998,-20.45997 73.9545,-9.0455 89,6c7.43754,7.43754 9,22.57101 9,33" fill="none" stroke="black" stroke-linecap="round" stroke-width="5"/>
</svg>
