<?xml version="1.0" ?>
<svg baseProfile="full" height="300" version="1.1" viewBox="[0, 0, 300, 300]" width="300" xmlns="http://www.w3.org/2000/svg" xmlns:ev="http://www.w3.org/2001/xml-events" xmlns:xlink="http://www.w3.org/1999/xlink">
	<defs/>
	<path d="M78,68c11.82807,0 36.78121,-15.27812 54,-17c26.81538,-2.68154 42.2617,12 45,12" fill="none" stroke="black" stroke-linecap="round" stroke-width="5"/>
	<path d="M78,71c4.57321,0 4.59259,5.33331 5,9c3.34999,30.14987 4,61.93936 4,92" fill="none" stroke="black" stroke-linecap="round" stroke-width="5"/>
	<path d="M178,63c0,19.66205 14,32.87963 14,50" fill="none" stroke="black" stroke-linecap="round" stroke-width="5"/>
	<path d="M79,72c28.54623,0 35,73.50555 35,98" fill="none" stroke="black" stroke-linecap="round" stroke-width="5"/>
	<path d="M175,66c0,2.29467 24.87743,20.50972 27,29c6.11725,24.46898 5,52.4297 5,78" fill="none" stroke="black" stroke-linecap="round" stroke-width="5"/>
	<path d="M86,155c0,18.81144 -8.58455,53.86152 -27,60c-0.44721,0.14907 -1,0.5286 -1,1" fill="none" stroke="black" stroke-linecap="round" stroke-width="5"/>
	<path d="M96,145c45.46695,0 61.14705,-44.08826 90,4c3.57843,5.96406 18,17.14176 18,23" fill="none" stroke="black" stroke-linecap="round" stroke-width="5"/>
	<path d="M94,147c5.93962,0 18.36046,33.36046 24,39c0.80821,0.80821 7.63145,-5.63145 8,-6c4.14603,-4.14603 11.94259,-5.62839 17,-9c14.80719,-9.87146 32.29049,-10.64524 47,-18" fill="none" stroke="black" stroke-linecap="round" stroke-width="5"/>
	<path d="M110,150c9.14442,9.14442 2,65.92036 2,80" fill="none" stroke="black" stroke-linecap="round" stroke-width="5"/>
	<path d="M206,167c0,13.75088 9,33.2851 9,50" fill="none" stroke="black" stroke-linecap="round" stroke-width="5"/>
	<path d="M162,65c0,19.70499 11,38.81852 11,57" fill="none" stroke="black" stroke-linecap="round" stroke-width="5"/>
	<path d="M85,87c0.33333,0 0.7643,-0.2357 1,0c4.03734,4.03734 4.18298,18.0979 5,23c2.0364,12.21841 11,25.03385 11,37" fill="none" stroke="black" stroke-linecap="round" stroke-width="5"/>
	<path d="M94,148c-2.81656,0 16,19.02876 16,21" fill="none" stroke="black" stroke-linecap="round" stroke-width="5"/>
</svg>
