<?xml version="1.0" ?>
<svg baseProfile="full" height="300" version="1.1" viewBox="[0, 0, 300, 300]" width="300" xmlns="http://www.w3.org/2000/svg" xmlns:ev="http://www.w3.org/2001/xml-events" xmlns:xlink="http://www.w3.org/1999/xlink">
	<defs/>
	<path d="M100,162c0,28.53207 -9,55.77446 -9,84c0,9.66667 0,19.33333 0,29c0,3.33333 0,6.66667 0,10c0,1.66667 0,6.66667 0,5c0,-17.98841 -10.10765,-34.26912 -16,-49c-2.25376,-5.6344 -25.25742,-16.48515 -24,-19c3.92569,-7.85138 30.2799,4 32,4c2.23607,0 3.78641,-2.68377 6,-3c0.73786,-0.10541 0.58655,1.37983 1,2c3.2822,4.92331 14.51704,10.38778 18,13c4.00067,3.00051 77.36987,-16.63013 87,-7c3.3723,3.3723 1.80269,11.80269 5,15c2.25941,2.25941 9.96024,4.26044 12,8c7.06095,12.94508 9.70629,21.45105 25,24c2.27009,0.37835 6.46487,6.53513 9,4c3.49936,-3.49936 -2.22224,-46.55571 -3,-52c-2.14208,-14.99455 -1,-32.21428 -1,-47c0,-1 0.89443,-2.55279 0,-3c-12.34316,-6.17158 -33.57162,-1 -47,-1c-13.39675,0 -25.67388,-9.22102 -39,-7c-20.39984,3.39997 -36.29969,9 -57,9" fill="none" stroke="black" stroke-linecap="round" stroke-width="5"/>
</svg>
