<?xml version="1.0" ?>
<svg baseProfile="full" height="300" version="1.1" viewBox="[0, 0, 300, 300]" width="300" xmlns="http://www.w3.org/2000/svg" xmlns:ev="http://www.w3.org/2001/xml-events" xmlns:xlink="http://www.w3.org/1999/xlink">
	<defs/>
	<path d="M72,148c0,29.52809 -3,58.63292 -3,88c0,9.2642 0.44839,17.37902 -3,26c-1.24254,3.10634 -1,3.98175 -1,7c0,1.66667 0.74536,6.49071 0,5c-15.64195,-31.2839 -8.53111,-71.06223 -24,-102" fill="none" stroke="black" stroke-linecap="round" stroke-width="5"/>
	<path d="M39,172c13.82434,3.45608 25.51951,11.75975 38,18c7.74334,3.87167 91.45598,4 103,4c1.77571,0 54.37101,-0.62899 55,0c15.76753,15.76753 16.37308,42.74616 26,62c1.7127,3.42539 22.03299,16.90104 23,14c3.91319,-11.73957 -2,-28.0899 -2,-40c0,-3.41678 0.92329,-59.07671 0,-60c-7.65859,-7.65859 -110.50787,-4 -129,-4c-14.55729,0 -79,3.59267 -79,-14" fill="none" stroke="black" stroke-linecap="round" stroke-width="5"/>
	<path d="M43,50c2.93265,-5.86529 8.04822,-19.69881 13,-23c47.48502,-31.65668 115.32309,-23.55022 171,-17c6.22741,0.73264 16.07585,-2.22156 22,0c11.87024,4.45134 14.59529,8 28,8c0.11163,0 6.86659,-0.26682 7,0c9.99595,19.9919 5,65.61878 5,90" fill="none" stroke="black" stroke-linecap="round" stroke-width="5"/>
	<path d="M45,51c0,11.66667 0,23.33333 0,35c0,1.33333 -1.19257,3.40372 0,4c5.18403,2.59201 29.85091,-6.26442 35,-7c20.9081,-2.98687 42.90934,-1.37764 64,-3c10.14794,-0.78061 37.40507,-5.79747 47,-1c5.47317,2.73658 9.91118,8.39112 16,9c24.9513,2.49513 53.68872,4 78,4" fill="none" stroke="black" stroke-linecap="round" stroke-width="5"/>
</svg>
