<?xml version="1.0" ?>
<svg baseProfile="full" height="300" version="1.1" viewBox="[0, 0, 300, 300]" width="300" xmlns="http://www.w3.org/2000/svg" xmlns:ev="http://www.w3.org/2001/xml-events" xmlns:xlink="http://www.w3.org/1999/xlink">
	<defs/>
	<path d="M54,107c0,-8.53566 7.27926,-20.55852 11,-28c20.11852,-40.23705 67.56816,-55.34741 112,-49c8.94162,1.27737 16.62078,13.78064 23,19c22.78281,18.64048 45,34.57897 45,67" fill="none" stroke="black" stroke-linecap="round" stroke-width="5"/>
	<path d="M55,109c5.38516,0 9.75799,-4.76659 15,-6c14.51792,-3.41598 32.23141,-3.29673 47,-4c43.00537,-2.04787 87.45125,5 130,5" fill="none" stroke="black" stroke-linecap="round" stroke-width="5"/>
	<path d="M66,160c5.81697,5.81697 102.8769,7.78077 110,6c8.27146,-2.06787 23.99838,-9.33064 25,-11c0.02532,-0.0422 1.29526,-5.14763 3,-6c1.61541,-0.8077 20.57846,0.57846 16,-4c-1.69967,-1.69967 -2.66667,4 -4,6c-2.21798,3.32697 -5.11691,6.3403 -9,11c-6.96611,8.35933 -19.13395,8 -29,8c-35.17868,0 -69.10235,0.67641 -104,4c-3.30081,0.31436 -12.50909,2.74545 -16,1c-3.01795,-1.50897 -19.64393,-16 -20,-16" fill="none" stroke="black" stroke-linecap="round" stroke-width="5"/>
	<path d="M37,198c21.90695,0 39.52683,8.53479 60,15c12.75311,4.0273 68.72901,6.09033 81,2c24.47453,-8.15818 40.69922,-16.98682 59,-33c5.32668,-4.66084 5.47756,-22.07463 -1,-23c-7.38353,-1.05479 -12.42442,-9 -20,-9c-2.74874,0 5.44786,0.97914 8,2c1.21888,0.48755 21.48484,11 14,11" fill="none" stroke="black" stroke-linecap="round" stroke-width="5"/>
	<path d="M39,171c9.20508,0 19.52224,13.95717 25,21c0.32248,0.41462 9.10156,6.89844 9,7c-9.91888,9.91888 -32.1985,-24.79776 -35,-29c-2.28709,-3.43063 -3.80861,-16.04304 -3,-12c1.08801,5.44004 5.63001,9.59308 9,14c2.19019,2.8641 3.77241,6.16489 6,9c3.97031,5.05312 6.16908,6.33816 9,12" fill="none" stroke="black" stroke-linecap="round" stroke-width="5"/>
	<path d="M30,219c-3.66667,3.66667 -11,16.18545 -11,11c0,-4.44147 4.62686,-3.88057 6,-8" fill="none" stroke="black" stroke-linecap="round" stroke-width="5"/>
	<path d="M26,219c0,-0.66667 0,-1.33333 0,-2" fill="none" stroke="black" stroke-linecap="round" stroke-width="5"/>
	<path d="M54,159c0,2.25445 -3.41391,3.48343 -4,7c-1.51822,9.10933 -9.74644,13.87957 -14,22c-4.97222,9.49243 -4.96209,20.19364 -9,30c-3.56431,8.65619 -6.49672,13.98033 -8,23c-0.47722,2.86334 -5.18458,7.27687 -7,10c-0.1849,0.27735 -0.2357,1.2357 0,1c12.60279,-12.60279 19.71557,-29.76521 26,-46c2.54978,-6.58692 4.51994,-13.38651 7,-20c0.11704,-0.31211 1.09157,-0.32051 1,0c-5.51108,19.2888 -14.97748,35.94933 -23,54c-1.31199,2.95198 -7.26902,18.22229 -8,21c-0.85254,3.23966 -1.41551,13.32409 -1,10c2.25408,-18.03267 8.79706,-40.6956 19,-56" fill="none" stroke="black" stroke-linecap="round" stroke-width="5"/>
	<path d="M206,105c-11.31364,7.54243 -22,35.98147 -22,51" fill="none" stroke="black" stroke-linecap="round" stroke-width="5"/>
	<path d="M184,214c0,1.68642 -1,23 -1,23c0,0 0,-38.34735 0,-28c0,2 0,4 0,6" fill="none" stroke="black" stroke-linecap="round" stroke-width="5"/>
	<path d="M242,177c0,8.29455 7.96872,17.7498 9,26c2.54833,20.3866 0,43.37189 0,64c0,6.00925 0.71417,-11.99755 1,-18c0.70114,-14.72392 -0.70936,-29.83744 -4,-43c-1.46738,-5.86951 -1,-12.97149 -1,-19c0,-1.66667 0,-6.66667 0,-5c0,14.41997 8,28.01726 8,43c0,3 0,6 0,9c0,2.33333 0,9.33333 0,7c0,-12.1511 4.14772,-32.27842 -3,-43c-1.1094,-1.6641 0,4 0,6c0,4.66667 0.8348,9.40861 0,14c-1.60284,8.81561 -4,16.35642 -4,26c0,3 -0.17617,-6.00518 0,-9c0.57809,-9.82757 2,-19.12809 2,-29" fill="none" stroke="black" stroke-linecap="round" stroke-width="5"/>
</svg>
