<?xml version="1.0" ?>
<svg baseProfile="full" height="300" version="1.1" viewBox="[0, 0, 300, 300]" width="300" xmlns="http://www.w3.org/2000/svg" xmlns:ev="http://www.w3.org/2001/xml-events" xmlns:xlink="http://www.w3.org/1999/xlink">
	<defs/>
	<path d="M83,145c0,25.37213 1,50.87461 1,77c0,12.33333 0,24.66667 0,37c0,1.05409 2.05409,3 1,3c-10.08598,0 -25.54183,-20.92364 -38,-23c-5.30623,-0.88437 -13.25556,-7.51112 -15,-11c-1.28236,-2.56472 -7.86744,-7 -5,-7c34.72129,0 74.00303,-1.20061 108,-8c13.37861,-2.67572 27.81242,-11 42,-11c0.96863,0 4.54015,18.0803 6,21c6.76222,13.52445 15.44246,23.44246 23,31c1.17851,1.17851 3.25464,4.49071 4,3c4.09463,-8.18926 -0.44487,-28.33461 -3,-36c-3.42392,-10.27176 0,-27.86594 0,-39c0,-0.3565 0.17546,-3.94151 0,-4c-11.97091,-3.9903 -28.91542,2.61443 -40,4c-28.19204,3.524 -66.49893,0 -90,0" fill="none" stroke="black" stroke-linecap="round" stroke-width="5"/>
	<path d="M63,59c0,-42.06377 119.36654,-33 147,-33c10.55163,0 49,-0.24171 49,11" fill="none" stroke="black" stroke-linecap="round" stroke-width="5"/>
	<path d="M60,58c0,4.30332 -0.71388,43.28612 0,44c3.64424,3.64424 41.02161,-3.77371 46,-4c50.04679,-2.27485 102.63274,0 151,0" fill="none" stroke="black" stroke-linecap="round" stroke-width="5"/>
	<path d="M257,38c0,17.60947 0.99856,35.37842 -6,52c-1.15696,2.74779 -4,8 -4,8c0,0 0,-4 0,-6c0,-3.92778 0,-48 0,-48c0,0 0,7.33333 0,11c0,1.85563 3,76.05925 3,39c0,-5 0,-10 0,-15" fill="none" stroke="black" stroke-linecap="round" stroke-width="5"/>
</svg>
