<?xml version="1.0" ?>
<svg baseProfile="full" height="300" version="1.1" viewBox="[0, 0, 300, 300]" width="300" xmlns="http://www.w3.org/2000/svg" xmlns:ev="http://www.w3.org/2001/xml-events" xmlns:xlink="http://www.w3.org/1999/xlink">
	<defs/>
	<path d="M31,46c25.90374,0 55.98366,8.20327 82,3c15.54811,-3.10962 32.8258,-4 49,-4" fill="none" stroke="black" stroke-linecap="round" stroke-width="5"/>
	<path d="M31,61c8.74124,0 17.94691,-5.9941 27,-7c21.70411,-2.41157 45.16288,0 67,0c9.33333,0 18.66667,0 28,0c3.33333,0 13.33333,0 10,0c-31.02712,0 -59.33677,-0.38046 -90,4c-11.15666,1.59381 -22.67848,2 -34,2c-5,0 -10,0 -15,0c-0.33333,0 -1.33333,0 -1,0c26.01401,0 50.58378,-10 76,-10c5.33333,0 -10.66667,0 -16,0c-16.34724,0 -28.42556,3.10639 -44,7c-2.58705,0.64676 -8,-2.66667 -8,0c0,1.37437 2.63624,0.82953 4,1c9.05545,1.13193 18.85317,0 28,0" fill="none" stroke="black" stroke-linecap="round" stroke-width="5"/>
	<path d="M37,82c0,24.30265 2,48.60942 2,73c0,8.66667 0,17.33333 0,26c0,3.66667 -0.71909,7.40454 0,11c0.41345,2.06725 2.66667,8 2,6c-6.01349,-18.04048 -5,-111.03072 -5,-142" fill="none" stroke="black" stroke-linecap="round" stroke-width="5"/>
	<path d="M72,66c0,12.58317 -0.73902,25.4366 0,38c0.59581,10.1287 2.08697,19.95668 3,30c0.8355,9.19051 -0.03875,15.1654 2,24c0.75327,3.26417 2.05935,13.17805 1,10c-8.90402,-26.71205 -5.95818,-73.62731 -4,-103c0.62543,-9.38144 1,-18.49637 1,-28c0,-1 0,-3 0,-3c0,0 0,2 0,3c0,12 0,24 0,36c0,30.66271 9.19303,68.03487 3,99c-2.71056,13.55281 -7,25.13019 -7,39c0,2 0,-4 0,-6c0,-3 0,-6 0,-9" fill="none" stroke="black" stroke-linecap="round" stroke-width="5"/>
	<path d="M102,58c3.43188,0 5,5.56812 5,9c0,36.33333 0,72.66667 0,109c0,9.12659 0.08858,16.39862 2,25c0.43386,1.95237 0,6 0,6c0,0 -0.09988,-4.0025 0,-6c0.26718,-5.34365 1.84793,-25.98184 2,-31c1.05987,-34.97567 1.32858,-70.68568 -7,-104c-0.67635,-2.70542 -1,-26 -1,-26c0,0 -0.76346,6.75528 0,10c4.40679,18.72886 19.0876,40.64961 14,61c-4.28055,17.12221 -8,32.21837 -8,50" fill="none" stroke="black" stroke-linecap="round" stroke-width="5"/>
	<path d="M155,53c0,35.84338 -1.99257,71.06685 2,107c1.40142,12.6128 0,26.30574 0,39c0,5 0,10 0,15c0,1 0.31623,3.94868 0,3c-3.65412,-10.96237 -1.29949,-23.79187 -2,-35c-2.81676,-45.06809 -6,-93.37555 -6,-138" fill="none" stroke="black" stroke-linecap="round" stroke-width="5"/>
	<path d="M38,215c1.66667,0 3.33333,0 5,0" fill="none" stroke="black" stroke-linecap="round" stroke-width="5"/>
	<path d="M160,214c-30.73121,0 -61.25246,-1 -92,-1c-2.86257,0 -30.98873,-1.02817 -31,-1c-4.14867,10.37167 2.07964,82.19911 8,97c1.9267,4.81675 5.10278,11.61667 6,17c0.07963,0.47775 -0.27777,6.93056 0,7c16.67567,4.16892 37.26163,-4.16308 54,-5c6.87895,-0.34395 61.21699,-0.43398 64,-6c0.95452,-1.90904 -4.32505,-1.97515 -5,-4c-3.20708,-9.62125 -7.58075,-23.06523 -9,-33c-4.04678,-28.32745 -4,-56.15529 -4,-85" fill="none" stroke="black" stroke-linecap="round" stroke-width="5"/>
</svg>
