<?xml version="1.0" ?>
<svg baseProfile="full" height="300" version="1.1" viewBox="[0, 0, 300, 300]" width="300" xmlns="http://www.w3.org/2000/svg" xmlns:ev="http://www.w3.org/2001/xml-events" xmlns:xlink="http://www.w3.org/1999/xlink">
	<defs/>
	<path d="M52,106c1.94365,0 1.96987,-3.35179 3,-5c4.30784,-6.89254 12.5037,-16.00247 20,-21c21.92774,-14.61849 39.68293,-31.84146 64,-44c56.48538,-28.24269 98.94772,35.89543 120,78c5.13361,10.26722 -2,30.61236 -2,41" fill="none" stroke="black" stroke-linecap="round" stroke-width="5"/>
	<path d="M52,103c0,-2.90657 0,7.30525 0,8c0,7.66667 0,15.33333 0,23c0,2.66667 -2.66667,8 0,8c8.52222,0 16.80066,-3.46262 25,-5c26.66029,-4.9988 65.63396,1 94,1c22,0 44,0 66,0c6.66667,0 13.33333,0 20,0c2.79567,0 11.6046,0 11,0" fill="none" stroke="black" stroke-linecap="round" stroke-width="5"/>
	<path d="M59,153c-11.29683,22.59366 -20.12159,46.36476 -28,70c-0.05659,0.16976 -4.58264,22 -4,22c4.2425,0 17.62082,-43.65552 20,-50c0.78514,-2.0937 0.76393,-6 3,-6c0.05931,0 -2.07015,10.60522 -3,12c-4.52375,6.78562 -11.12559,11.89896 -15,20c-1.81918,3.80373 -2.87151,7.93745 -4,12c-1.0548,3.79728 -1,8.44377 -1,5c0,-0.94281 1.33333,-1.33333 2,-2" fill="none" stroke="black" stroke-linecap="round" stroke-width="5"/>
	<path d="M111,203c0,2.66667 0,5.33333 0,8c0,24.31094 4,48.22341 4,72c0,3.33333 0,10 0,10c0,0 0,-10.66667 0,-16c0,-22.66667 0,-45.33333 0,-68c0,-1.66667 0,3.33333 0,5c0,5 -0.32191,10.01037 0,15c1.31634,20.40329 2,40.48609 2,61c0,2.68742 -0.30755,-5.40332 -1,-8c-2.1728,-8.14801 -6.77309,-15.65699 -8,-24c-0.10443,-0.7101 -3,-62.9889 -3,-35c0,4 0,8 0,12" fill="none" stroke="black" stroke-linecap="round" stroke-width="5"/>
	<path d="M255,201c-0.16536,0 -6.96812,0.90437 -7,1c-1.94431,5.83293 3.99938,14.4966 5,20c2.91511,16.03308 2,32.61465 2,49c0,6.33333 0,12.66667 0,19c0,1.33333 0,2.66667 0,4c0,2.66667 0,10.66667 0,8c0,-21.31026 4,-42.47081 4,-64c0,-7 0,-14 0,-21c0,-3 0,-6 0,-9c0,-1.66667 0,-6.66667 0,-5c0,12.94641 3.03739,25.00482 4,38c0.58491,7.89622 0,16.07346 0,24c0,0.33333 0,1.33333 0,1c0,-12.23339 -8,-22.66187 -8,-34" fill="none" stroke="black" stroke-linecap="round" stroke-width="5"/>
	<path d="M287,213c0,-3.32637 -3.21637,-3.2573 -4,-6c-3.20602,-11.22107 0,-27.96996 0,-40c0,-0.66667 0.3698,-1.4453 0,-2c-11.44326,-17.16489 -55.14524,-21.56428 -63,2c-2.08057,6.24171 9.96228,-2.96647 10,-3c9.45641,-8.4057 24.60224,-17.26517 37,-9c20.78326,13.85551 28,34.88451 28,60c0,3.88675 1.58479,7 -3,7" fill="none" stroke="black" stroke-linecap="round" stroke-width="5"/>
	<path d="M54,150c19.37022,0 45,12.01888 45,35c0,9.66667 0,19.33333 0,29c0,4.05518 -2,16.05518 -2,12c0,-12.26671 6.6137,-36.66356 -2,-47c-5.85736,-7.02883 -20.0867,-3.39113 -27,-8c-2.38586,-1.59057 -2.79717,-5.16431 -5,-7c-1.28037,-1.06697 -4,-3 -4,-3c0,0 16.75339,11.37669 20,13c1.49071,0.74536 0,3.33333 0,5c0,21.22441 2,41.28455 2,62c0,2 0,-4 0,-6c0,-5.34374 0.44059,-10.68562 1,-16c1.48056,-14.06535 8.79877,-28.60988 7,-43c-0.17671,-1.41364 -19.9787,-8.55082 -22,-9c-2.30089,-0.51131 -8.05409,-3.10819 -7,-1c9.50797,19.01594 26.67248,5.79966 37,20c9.59151,13.18832 10,27.26091 10,43c0,1.33333 0,-2.66667 0,-4" fill="none" stroke="black" stroke-linecap="round" stroke-width="5"/>
</svg>
