<?xml version="1.0" ?>
<svg baseProfile="full" height="300" version="1.1" viewBox="[0, 0, 300, 300]" width="300" xmlns="http://www.w3.org/2000/svg" xmlns:ev="http://www.w3.org/2001/xml-events" xmlns:xlink="http://www.w3.org/1999/xlink">
	<defs/>
	<path d="M91,87c0,-5.18163 -3.05069,-26.94931 0,-30c0.4714,-0.4714 1.33333,0 2,0c23.57195,0 54.08313,0 83,0c15.35356,0 31.94282,-1.50953 47,1c1.31519,0.2192 3.57836,-1.26491 4,0c2.65308,7.95925 0,20.34349 0,29" fill="none" stroke="black" stroke-linecap="round" stroke-width="5"/>
	<path d="M232,86c0,9.33333 0,18.66667 0,28c0,2.66667 0,-5.33333 0,-8c0,-2.10308 1,-21 1,-21c0,0 1,15.50228 1,17c0,5 0,-20 0,-15c0,7.33333 0,14.66667 0,22c0,2.66667 0,5.33333 0,8c0,1.66667 0,6.66667 0,5c0,-9 0,-18 0,-27c0,-0.33333 0,-1.33333 0,-1c0,23.34753 0,52.03604 0,72" fill="none" stroke="black" stroke-linecap="round" stroke-width="5"/>
	<path d="M87,85c0,1.33333 0,9.77778 0,4c0,-1.66667 1.66667,-5 0,-5c-1.01846,0 -7.84075,9.71335 -8,10c-0.91574,1.64833 -5.17794,5.47242 -4,4c4.90218,-6.12773 10.37368,-12.37368 16,-18c0.2357,-0.2357 1.26667,-0.2 1,0c-6.16643,4.62482 -9.0216,10.0216 -14,15" fill="none" stroke="black" stroke-linecap="round" stroke-width="5"/>
	<path d="M78,85c-4.87208,0 -3.24211,5 0,5" fill="none" stroke="black" stroke-linecap="round" stroke-width="5"/>
	<path d="M86,88c0,9.46262 0,33.79317 0,50c0,1 0,2 0,3c0,2.14572 0,29 0,29c0,0 0.69965,-5.99652 1,-9c1.73291,-17.32914 -1,-34.73494 -1,-52c0,-4.33333 0,-8.66667 0,-13c0,-3 0,-12 0,-9c0,26.29034 1,53.33559 1,79c0,2.33333 0,-4.66667 0,-7c0,-5.33333 0,-10.66667 0,-16" fill="none" stroke="black" stroke-linecap="round" stroke-width="5"/>
	<path d="M89,115c0,0.66667 0,1.33333 0,2" fill="none" stroke="black" stroke-linecap="round" stroke-width="5"/>
	<path d="M89,133c0.66667,0 1.33333,0 2,0" fill="none" stroke="black" stroke-linecap="round" stroke-width="5"/>
	<path d="M219,111c1.66667,0 3.33333,0 5,0" fill="none" stroke="black" stroke-linecap="round" stroke-width="5"/>
	<path d="M225,132c0.66667,0 1.33333,0 2,0" fill="none" stroke="black" stroke-linecap="round" stroke-width="5"/>
</svg>
