<?xml version="1.0" ?>
<svg baseProfile="full" height="300" version="1.1" viewBox="[0, 0, 300, 300]" width="300" xmlns="http://www.w3.org/2000/svg" xmlns:ev="http://www.w3.org/2001/xml-events" xmlns:xlink="http://www.w3.org/1999/xlink">
	<defs/>
	<path d="M103,148c-5.55404,2.77702 -2.55892,6.23569 -4,12c-2.93125,11.72499 -7.71987,23.51955 -11,35c-7.27658,25.46803 -1,61.14305 -1,88" fill="none" stroke="black" stroke-linecap="round" stroke-width="5"/>
	<path d="M144,193c5.78163,17.3449 0,57.53946 0,78c0,2.1228 1.10276,10 -1,10" fill="none" stroke="black" stroke-linecap="round" stroke-width="5"/>
	<path d="M215,174c0,0.66667 0,1.33333 0,2c0,12.22151 -4,28.0299 -4,42c0,1.66667 0,5 0,5c0,0 0,-3.33333 0,-5c0,-14.21336 2,-27.62775 2,-42" fill="none" stroke="black" stroke-linecap="round" stroke-width="5"/>
	<path d="M255,166c0,31.85425 4.48229,66.62394 0,98c-0.03628,0.25393 -4,30 -4,30c0,0 0,-32.76986 0,-36c0,-32.6969 2,-64.64431 2,-96" fill="none" stroke="black" stroke-linecap="round" stroke-width="5"/>
	<path d="M263,102c-46.78589,0 -93.255,2.28187 -139,8c-8.01515,1.00189 -17.24331,-0.93917 -25,1c-8.45687,2.11422 2.65677,17.9703 4,22c2.788,8.36401 0,21.03492 0,30c0,1 -0.89443,2.55279 0,3c13.65589,6.82795 83.00715,-2 106,-2c22.66667,0 45.33333,0 68,0c1.66667,0 4.25464,1.49071 5,0c1.3558,-2.7116 -2.32698,-1.83174 -3,-2c-4.93918,-1.2348 -7.76657,-5.76657 -10,-8c-3.00154,-3.00154 -0.4815,-16.85202 -1,-21c-1.78182,-14.25452 -8,-25.49555 -8,-39" fill="none" stroke="black" stroke-linecap="round" stroke-width="5"/>
</svg>
