<?xml version="1.0" ?>
<svg baseProfile="full" height="300" version="1.1" viewBox="[0, 0, 300, 300]" width="300" xmlns="http://www.w3.org/2000/svg" xmlns:ev="http://www.w3.org/2001/xml-events" xmlns:xlink="http://www.w3.org/1999/xlink">
	<defs/>
	<path d="M47,86c7.39412,0 25.76263,-1.87879 32,1c8.16212,3.76713 7.23912,6.20356 16,7c34.65615,3.15056 73.27736,-3 108,-3" fill="none" stroke="black" stroke-linecap="round" stroke-width="5"/>
	<path d="M51,83c0,6.57172 -2.46108,47.30839 0,51c1.4792,2.2188 5.33333,0 8,0c30.38655,0 60.98053,0 92,0c2.4037,0 4.30033,2.30033 6,4c0.72865,0.72865 46.72846,0 50,0c0.31903,0 5.92645,0.18387 6,0c0.825,-2.0625 1.68561,-47.62878 0,-51c-2.79233,-5.58467 -6,-8.54532 -6,-15" fill="none" stroke="black" stroke-linecap="round" stroke-width="5"/>
	<path d="M47,215c28.07293,0 45.83937,-16.39415 72,-22c21.65636,-4.64065 45.0355,1.4405 67,-1c22.91411,-2.54601 45.13503,-5 69,-5" fill="none" stroke="black" stroke-linecap="round" stroke-width="5"/>
	<path d="M47,219c0,11.47962 24.00915,26.00915 32,34c1.20298,1.20298 26,52.6764 26,53" fill="none" stroke="black" stroke-linecap="round" stroke-width="5"/>
	<path d="M248,193c-3.56236,0 2.61034,1.09078 3,2c3.5602,8.30713 7.92096,62.94731 8,63c3.51524,2.3435 6,6.93739 6,12c0,1.46638 1.05248,7.94752 0,9c-1.17851,1.17851 -3.33333,0 -5,0c-19.11911,0 -31.45044,0.52517 -51,8c-42.66401,16.31271 -78.83944,54.21169 -122,67c-2.57711,0.76359 -15.87648,-8.95449 -16,-9c-4.37702,-1.61259 -11.07182,-1 -16,-1" fill="none" stroke="black" stroke-linecap="round" stroke-width="5"/>
	<path d="M215,134c8.09826,4.04913 15.89153,9.66865 23,15c3.82865,2.87148 20,-0.0987 20,4" fill="none" stroke="black" stroke-linecap="round" stroke-width="5"/>
	<path d="M259,153c0,6.17221 -5.28617,15.57233 -8,21c-1.20185,2.4037 -1.50479,-6.00192 -4,-7c-4.46356,-1.78542 -8.60065,-4.60065 -12,-8c-5.81443,-5.81443 -24,-2.57638 -24,-21" fill="none" stroke="black" stroke-linecap="round" stroke-width="5"/>
	<path d="M55,137c0,4.95088 17.82059,6.46177 20,13c0.42164,1.26491 1.19257,3.40372 0,4c-4.13025,2.06513 -18.0717,-21.2151 -20,-27c-0.10541,-0.31623 -0.1238,-1.30949 0,-1c4.20528,10.51319 7.74929,16.54084 15,25c0.48507,0.56592 1.70711,2.2357 1,2c-5.30234,-1.76745 -12.03564,-9.03564 -16,-13c-0.2357,-0.2357 0,-1.33333 0,-1c0,2.59145 -5.12948,24.28237 0,23c7.03731,-1.75933 3.40655,-26 -4,-26c-4.33333,0 0,8.66667 0,13c0,5.37484 -2.8074,18.4037 2,16c1.78885,-0.89443 0,-4 0,-6c0,-11.69393 -1,-23.39172 -1,-35c0,-3.66667 0,7.33333 0,11c0,7.80313 1.09624,15.38497 3,23c0.24254,0.97014 -0.6,-3.8 0,-3c7.52739,10.03652 18,34.36221 18,46c0,3.68179 -0.10704,-7.42814 -1,-11c-3.09568,-12.38271 -3.74276,-25.74276 -13,-35c-4.67356,-4.67356 -2.30054,-8.4508 -6,-14c-0.09537,-0.14305 5,20.52682 5,18c0,-5.7346 -1.82382,-11.23573 -5,-16" fill="none" stroke="black" stroke-linecap="round" stroke-width="5"/>
	<path d="M59,161c0,15.51521 -2.304,29.73598 -4,45c-0.71055,6.39497 0,13.61847 0,20c0,1.33333 0,5.33333 0,4c0,-2 0,-4 0,-6" fill="none" stroke="black" stroke-linecap="round" stroke-width="5"/>
</svg>
