<?xml version="1.0" ?>
<svg baseProfile="full" height="300" version="1.1" viewBox="[0, 0, 300, 300]" width="300" xmlns="http://www.w3.org/2000/svg" xmlns:ev="http://www.w3.org/2001/xml-events" xmlns:xlink="http://www.w3.org/1999/xlink">
	<defs/>
	<path d="M44,70c9.95622,0 18.98721,-4.33248 29,-5c17.81705,-1.1878 36.15076,0 54,0c12.38481,0 83.9523,-4.52385 93,0c1.38804,0.69402 1,1.77932 1,3c0,15.60731 4.91012,39.26964 0,54c-0.94868,2.84605 -6,0 -9,0c-21.78513,0 -43.07042,3 -65,3c-1.33333,0 -2.66667,0 -4,0c-2.66667,0 -5.33333,0 -8,0c-30.33333,0 -60.66667,0 -91,0c-0.57036,0 -3.88239,0.17641 -4,0c-1.88562,-2.82843 1.17554,-6.70215 2,-10c3.09571,-12.38285 3,-24.39362 3,-37" fill="none" stroke="black" stroke-linecap="round" stroke-width="5"/>
	<path d="M39,166c5.83359,0 4,1.38695 4,8c0,20.62653 13.83898,54.78531 26,71c2.96591,3.95454 0.42598,14.42598 3,17c8.41578,8.41578 38.05809,4.91183 49,4c43.44713,-3.62059 84.1228,-7 128,-7c3.53261,0 17.47479,1.76261 21,0c2.3719,-1.18595 -1.39331,-10.58438 -2,-12c-6.2784,-14.64961 -7.64695,-30.19593 -18,-44c-4.38231,-5.84308 -19.45856,-6.83425 -23,-21c-2.05914,-8.23657 -5,-19.40023 -5,-28c0,-1.33333 1.19257,-3.40372 0,-4c-10.96794,-5.48397 -38.66632,0 -50,0c-35.44673,0 -73.97514,-1.18887 -109,4c-12.91654,1.91356 -26.92601,7 -40,7" fill="none" stroke="black" stroke-linecap="round" stroke-width="5"/>
	<path d="M43,126c0,54.64868 -4,107.58501 -4,162" fill="none" stroke="black" stroke-linecap="round" stroke-width="5"/>
	<path d="M76,257c0,18 0,36 0,54" fill="none" stroke="black" stroke-linecap="round" stroke-width="5"/>
	<path d="M219,122c0,10.83222 -1,21.20867 -1,32" fill="none" stroke="black" stroke-linecap="round" stroke-width="5"/>
	<path d="M214,262c0,9.00168 -3,15.80035 -3,25" fill="none" stroke="black" stroke-linecap="round" stroke-width="5"/>
	<path d="M267,258c0,56.14079 1,112.13811 1,168" fill="none" stroke="black" stroke-linecap="round" stroke-width="5"/>
	<path d="M223,117c9.27489,0 19.42426,1 28,1" fill="none" stroke="black" stroke-linecap="round" stroke-width="5"/>
	<path d="M217,126c-3.3376,0 12.39908,2 16,2c9.33333,0 18.66667,0 28,0c0.33333,0 1.33333,0 1,0c-3.18127,0 -7.41361,-2.1034 -11,-3c-0.51282,-0.12821 -4,0.07692 -4,0c0,-1.39485 4,-7 4,-7c0,0 -10.21647,-0.59451 -12,0" fill="none" stroke="black" stroke-linecap="round" stroke-width="5"/>
</svg>
