<?xml version="1.0" ?>
<svg baseProfile="full" height="300" version="1.1" viewBox="[0, 0, 300, 300]" width="300" xmlns="http://www.w3.org/2000/svg" xmlns:ev="http://www.w3.org/2001/xml-events" xmlns:xlink="http://www.w3.org/1999/xlink">
	<defs/>
	<path d="M83,150c0,27.66667 0,55.33333 0,83c0,9.33333 0,18.66667 0,28c0,3.27659 3,6.74116 3,11c0,0.66667 0.4714,2.4714 0,2c-4.81308,-4.81308 -4.6626,-14.04298 -9,-19c-9.80921,-11.21053 -34.27809,-16.55617 -42,-32c-0.27236,-0.54472 -7,-7 -7,-7c0,0 3.37302,0.36155 5,0c12.25145,-2.72254 23.36087,-4.29783 36,-5c39.11184,-2.17288 76.34245,-3.11415 112,-15c6.80416,-2.26805 11.12731,26.50926 12,30c3.64106,14.56424 13.50769,30.50769 22,39c1.46294,1.46294 11.75632,19.24368 14,17c1.27697,-1.27697 0,-10.39752 0,-12c0,-29.84193 2,-58.45682 2,-88c0,-1.8931 1.52691,-27.23654 0,-28c-9.93072,-4.96536 -29.38621,4 -40,4c-37.07603,0 -74.07812,1 -111,1" fill="none" stroke="black" stroke-linecap="round" stroke-width="5"/>
	<path d="M83,158c0,-6.53526 2,-12.86813 2,-20" fill="none" stroke="black" stroke-linecap="round" stroke-width="5"/>
</svg>
