<?xml version="1.0" ?>
<svg baseProfile="full" height="300" version="1.1" viewBox="[0, 0, 300, 300]" width="300" xmlns="http://www.w3.org/2000/svg" xmlns:ev="http://www.w3.org/2001/xml-events" xmlns:xlink="http://www.w3.org/1999/xlink">
	<defs/>
	<path d="M79,139c0,32.99958 4,65.61042 4,99c0,1.94553 0,27 0,27c0,0 -1.97663,-4.97663 -3,-6c-7.17493,-7.17493 -37.87427,-28.62282 -40,-35c-0.33538,-1.00613 -5.91408,-7.54296 -5,-8c11.60404,-5.80202 95.03388,-1 116,-1c9.33333,0 18.66667,0 28,0c1.33333,0 3.57836,-1.26491 4,0c4.78009,14.34028 8.54739,31.48163 15,46c1.02128,2.29788 16.85346,11.47128 21,17c0.0797,0.10626 6.89001,1.54996 7,1c0.32686,-1.6343 0,-3.33333 0,-5c0,-32.33333 0,-64.66667 0,-97c0,-1.53952 0.97043,-10.02957 0,-11c-1.66667,-1.66667 -4.89181,0.05409 -7,-1c-19.16809,-9.58405 -87.1781,-5.41095 -106,4c-4.71035,2.35517 -13.08745,0.02186 -17,1c-1.72441,0.4311 -22.878,-13.061 -33,-8" fill="none" stroke="black" stroke-linecap="round" stroke-width="5"/>
</svg>
