<?xml version="1.0" ?>
<svg baseProfile="full" height="300" version="1.1" viewBox="[0, 0, 300, 300]" width="300" xmlns="http://www.w3.org/2000/svg" xmlns:ev="http://www.w3.org/2001/xml-events" xmlns:xlink="http://www.w3.org/1999/xlink">
	<defs/>
	<path d="M43,25c10.1163,0 17.01707,2.36674 26,4c4.35061,0.79102 17.00685,-3.64335 22,-4c31.47542,-2.24824 62.19207,-3 94,-3c11.33333,0 22.66667,0 34,0c1.66667,0 4.59577,-1.6169 5,0c1.37714,5.50856 1.28496,16.86018 0,22c-0.05776,0.23103 -8.48851,0 -9,0c-15.66667,0 -31.33333,0 -47,0c-27.23884,0 -55.02026,-0.99775 -82,2c-2.34261,0.26029 -5.58579,2.88562 -7,1c-1,-1.33333 1.04116,-3.69855 0,-5c-1.67882,-2.09852 -5.79815,-1.5963 -7,-4c-0.08657,-0.17313 -26.78545,6.21455 -30,3c-3.76728,-3.76728 3,-16.61079 3,-20" fill="none" stroke="black" stroke-linecap="round" stroke-width="5"/>
	<path d="M47,42c0,42.1144 2,83.17828 2,125" fill="none" stroke="black" stroke-linecap="round" stroke-width="5"/>
	<path d="M48,37c4.47214,2.23607 9.76393,4.52786 12,9c0.90676,1.81353 4.01742,-0.57516 6,-1c8.93667,-1.915 16.93122,-3 26,-3c18.1957,0 47.44224,5.85259 65,0c9.86749,-3.28916 16.59587,-10.95752 25,-16c0.5246,-0.31476 42.65455,-2.34545 47,2c2.74874,2.74874 -7.03249,3.48903 -10,6c-10.8528,9.18314 -26.59022,6 -41,6c-10.11879,0 -96.11875,-0.74583 -98,-2c-2.23607,-1.49071 -0.83236,-5.31781 -1,-8c-0.79539,-12.7262 -8,-23.63665 -8,-34c0,-2 1.75579,-5.0423 0,-6c-4.68211,-2.55388 -10.66667,0 -16,0" fill="none" stroke="black" stroke-linecap="round" stroke-width="5"/>
	<path d="M91,50c0,6.79738 10.78501,16.45602 13,20c6.49695,10.39511 6.33761,34.07689 7,46c0.38724,6.97029 -1,65.56915 -1,41" fill="none" stroke="black" stroke-linecap="round" stroke-width="5"/>
	<path d="M163,46c0,27.96474 1,55.96996 1,84c0,8.66667 0,17.33333 0,26c0,2.9791 0,18.14221 0,14" fill="none" stroke="black" stroke-linecap="round" stroke-width="5"/>
	<path d="M221,42c-5.85241,0 -2,37.08573 -2,38c0,25.33333 0,50.66667 0,76" fill="none" stroke="black" stroke-linecap="round" stroke-width="5"/>
	<path d="M47,35c21.96325,0 43.63109,-5.43852 65,-9c10.36545,-1.72758 14.90487,3 24,3c32.78431,0 65.22487,-1 98,-1" fill="none" stroke="black" stroke-linecap="round" stroke-width="5"/>
	<path d="M46,169c0,-6.53299 17.71681,-2.47168 33,-4c29.26123,-2.92612 57.20677,-9.35427 86,-15c19.49625,-3.82279 40,-5.59914 40,-6c0,-3.01846 -5.98416,0.87434 -9,1c-5.66175,0.23591 -11.37451,-0.68188 -17,0c-27.53212,3.33723 -56.71572,7.67332 -83,17c-8.13842,2.88783 -23.75345,13.62327 -33,9c-2.27058,-1.13529 4.53287,-2.40191 7,-3c8.96002,-2.17212 17.88449,-4.61886 27,-6c12.92073,-1.95769 25.96424,-3.07983 39,-4c44.32533,-3.12885 92.72087,-5.9199 137,-1c2.80236,0.31137 -3.95073,-1.07625 -22,-5c-10.28488,-2.23584 -20.56899,-4.59582 -31,-6c-45.73824,-6.15707 -100.43558,-11.92638 -145,2" fill="none" stroke="black" stroke-linecap="round" stroke-width="5"/>
</svg>
