<?xml version="1.0" ?>
<svg baseProfile="full" height="300" version="1.1" viewBox="[0, 0, 300, 300]" width="300" xmlns="http://www.w3.org/2000/svg" xmlns:ev="http://www.w3.org/2001/xml-events" xmlns:xlink="http://www.w3.org/1999/xlink">
	<defs/>
	<path d="M78,71c0,15.64345 7,32.4094 7,48" fill="none" stroke="black" stroke-linecap="round" stroke-width="5"/>
	<path d="M94,61c3.04682,14.2185 7.47773,27.9109 11,42" fill="none" stroke="black" stroke-linecap="round" stroke-width="5"/>
	<path d="M107,55c0,14.14106 7.65839,30.07662 11,44c1.43439,5.97665 2.66667,12 4,18c0.36871,1.6592 1,6.69967 1,5c0,-2.98738 -1,-4.45584 -1,-7" fill="none" stroke="black" stroke-linecap="round" stroke-width="5"/>
	<path d="M116,88c9.29241,0 15.74606,41.88266 16,43c0.16519,0.72682 1,2.74536 1,2c0,-3.97743 -2.0702,-7.9649 2,-10" fill="none" stroke="black" stroke-linecap="round" stroke-width="5"/>
	<path d="M122,56c0,6.37684 4.74794,35.74794 3,34" fill="none" stroke="black" stroke-linecap="round" stroke-width="5"/>
	<path d="M136,49c2.63801,15.82805 8.81656,30.08282 12,46c0.72206,3.61029 -0.08276,7.48103 1,11c0.35345,1.1487 3,3.20185 3,2c0,-4.28557 -2.13205,-8.2641 -4,-12" fill="none" stroke="black" stroke-linecap="round" stroke-width="5"/>
	<path d="M150,57c3.64241,7.28482 17,58.49865 17,37" fill="none" stroke="black" stroke-linecap="round" stroke-width="5"/>
	<path d="M68,50c-2.63776,1.31888 7.99244,5.00756 14,-1c8.33526,-8.33526 13.40861,-22.40861 23,-32c0.4714,-0.4714 1.5286,0.4714 2,0c5.65762,-5.65762 12.46129,1.08979 19,0c4.3971,-0.73285 7.63956,-4.12791 12,-5c1.23224,-0.24645 11.28799,18.95886 18,18c9.24529,-1.32076 10.28469,-7.35766 21,-2c4.22344,2.11172 -0.45202,17.17803 -3,21c-3.85008,5.77512 -34.30525,7.76842 -41,10c-15.46551,5.15517 -39.05183,25.98272 -57,20c-1.30384,-0.43461 -0.44182,-2.74409 -1,-4c-4.35928,-9.80838 -5.09235,-17.1847 -10,-27" fill="none" stroke="black" stroke-linecap="round" stroke-width="5"/>
	<path d="M105,111c0,2.36325 -15.70004,4.10012 -18,11c-0.31623,0.94868 -0.81373,2.41876 0,3c11.80392,8.43137 25.05147,11.81434 34,23c7.66071,9.57589 3.84298,23.84298 14,34c5.70088,5.70088 16.02479,1.81849 24,3c6.01709,0.89142 12.88331,6.2893 18,3c23.1576,-14.88703 43.70707,-34.94948 48,-65c1.12143,-7.85002 -1.4297,-14.36944 -5,-21c-12.61545,-23.4287 -35.05878,-3.98041 -53,2c-1.34338,0.44779 6.92437,-16.30672 6,-17c-9.96844,-7.47633 -25.95665,-6.23916 -37,-9c-3.79471,-0.94868 -39,27.86978 -39,13" fill="none" stroke="black" stroke-linecap="round" stroke-width="5"/>
	<path d="M155,185c0,8.51798 -3.97497,11.18919 -6,19c-1.6918,6.52551 0.01478,13.97044 -3,20c-0.93659,1.87318 -5.79534,-5.45425 -6,-6c-1.48047,-3.94791 -2.33909,-8.12454 -4,-12" fill="none" stroke="black" stroke-linecap="round" stroke-width="5"/>
	<path d="M88,112c0,23.67974 -6.40745,52.22235 -14,75c-0.12761,0.38284 -3.71454,-3.71454 -4,-4" fill="none" stroke="black" stroke-linecap="round" stroke-width="5"/>
	<path d="M81,157c0.33333,0 0.85093,-0.29814 1,0c6.80135,13.6027 21.55983,24.44609 36,30c9.47402,3.64385 37.52704,13.10815 35,3" fill="none" stroke="black" stroke-linecap="round" stroke-width="5"/>
</svg>
