<?xml version="1.0" ?>
<svg baseProfile="full" height="300" version="1.1" viewBox="[0, 0, 300, 300]" width="300" xmlns="http://www.w3.org/2000/svg" xmlns:ev="http://www.w3.org/2001/xml-events" xmlns:xlink="http://www.w3.org/1999/xlink">
	<defs/>
	<path d="M121,196c-4.44543,-17.78173 -13.98374,-45.31166 -25,-60c-21.82555,-29.10074 -60.19241,-63.77552 -30,-99c14.32765,-16.71559 32.76304,-24.75261 54,-29c1.36661,-0.27332 14,-1 14,-1c0,0 1.07645,3.46075 2,5c4.36133,7.26888 10.19189,14.22387 16,21c20.75522,24.21442 44.58642,62.1502 53,93c4.59829,16.86039 16.25739,30.26725 23,46c2.9977,6.99464 2.2112,6.42239 -1,0" fill="none" stroke="black" stroke-linecap="round" stroke-width="5"/>
	<path d="M97,116c0,7.73755 18.56781,22.45977 23,28c5.8823,7.35288 14.06343,30.17724 25,32c14.35785,2.39298 52.375,-31.24997 55,-47c1.31782,-7.90694 -7.59176,-17.3196 -11,-23c-4.67183,-7.78639 -26.42663,-43.8587 -40,-33c-6.27739,5.02192 -44.00455,41.49772 -49,39c-4.56494,-2.28247 -7.32201,-8.98302 -10,-13" fill="none" stroke="black" stroke-linecap="round" stroke-width="5"/>
	<path d="M75,45c0,12.24489 -13.71658,31.09447 4,37c16.78545,5.59515 39.90898,-22.90898 50,-33c0.24709,-0.24709 4.97485,-3.02515 3,-5c-3.55505,-3.55505 -13.67854,-25.37055 -20,-23c-12.8043,4.80161 -31.83846,29.44102 -43,22" fill="none" stroke="black" stroke-linecap="round" stroke-width="5"/>
	<path d="M134,165c10.54948,10.54948 15.74344,28.74344 26,39" fill="none" stroke="black" stroke-linecap="round" stroke-width="5"/>
</svg>
