<?xml version="1.0" ?>
<svg baseProfile="full" height="300" version="1.1" viewBox="[0, 0, 300, 300]" width="300" xmlns="http://www.w3.org/2000/svg" xmlns:ev="http://www.w3.org/2001/xml-events" xmlns:xlink="http://www.w3.org/1999/xlink">
	<defs/>
	<path d="M85,50c0,30.98768 -1.71853,64.50117 4,95c2.01317,10.73691 2.2951,7.52449 4,-1" fill="none" stroke="black" stroke-linecap="round" stroke-width="5"/>
	<path d="M115,39c-5.67875,28.39376 -14,58.91386 -14,88c0,1.1112 0.99673,8.00655 1,8c1.22927,-2.45855 0.97914,-5.44786 2,-8" fill="none" stroke="black" stroke-linecap="round" stroke-width="5"/>
	<path d="M137,25c0,22.22873 5,44.44936 5,67c0,6.05966 0,39.49047 0,34" fill="none" stroke="black" stroke-linecap="round" stroke-width="5"/>
	<path d="M165,30c0,22.26646 3.2102,46.20865 7,68c1.5728,9.04361 0.50864,18.05184 2,27c0.60528,3.63169 0.10704,14.57186 1,11c0.64676,-2.58705 0,-5.33333 0,-8" fill="none" stroke="black" stroke-linecap="round" stroke-width="5"/>
	<path d="M83,49c4.0747,8.1494 86.86121,-17.24606 100,-21c4.14712,-1.18489 6.81234,-1.56299 5,-7c-10.96537,-32.89612 -42.57276,-8.91264 -62,-3c-12.82347,3.90279 -56.67868,14.67868 -65,23c-7.16407,7.16407 8.57585,17.43189 12,20c2.8528,2.1396 31.56114,-8.40286 33,-12c1.31833,-3.29582 1.39011,-6.78023 3,-10" fill="none" stroke="black" stroke-linecap="round" stroke-width="5"/>
	<path d="M88,144c9.96326,9.96326 20.72995,45.91391 28,59c2.30076,4.14137 5.91684,-7.40298 9,-11c5.73206,-6.6874 23.22325,-11.46356 31,-16c6.48061,-3.78036 46.08313,-2.4181 44,-17c-2.27935,-15.95547 -15.75486,-41.75486 -27,-53c-1.37437,-1.37437 -3.26155,-3.86923 -5,-3c-17.32077,8.66038 -35.82913,22.52261 -55,28c-9.4439,2.69826 -18.20544,1.50454 -26,8c-4.46606,3.72172 -17.27389,14 -23,14c-3.16228,0 1.58579,-6.17157 3,-9" fill="none" stroke="black" stroke-linecap="round" stroke-width="5"/>
	<path d="M119,193c5.44107,5.44107 2.32534,19.45548 7,26c1.24058,1.73681 2.09096,-4.04548 4,-5" fill="none" stroke="black" stroke-linecap="round" stroke-width="5"/>
	<path d="M195,157c3.09017,6.18034 14,40 14,40c0,0 0.48624,-5 -2,-5" fill="none" stroke="black" stroke-linecap="round" stroke-width="5"/>
	<path d="M161,106c0,13.26065 10.82574,31.30294 14,44c0.51131,2.04524 2,6 2,6c0,0 -1.81803,-3.81803 -2,-4" fill="none" stroke="black" stroke-linecap="round" stroke-width="5"/>
</svg>
