<?xml version="1.0" ?>
<svg baseProfile="full" height="300" version="1.1" viewBox="[0, 0, 300, 300]" width="300" xmlns="http://www.w3.org/2000/svg" xmlns:ev="http://www.w3.org/2001/xml-events" xmlns:xlink="http://www.w3.org/1999/xlink">
	<defs/>
	<path d="M67,78c0,11.53073 6.57716,25.49149 9,37c0.22722,1.0793 4.09184,22.90816 7,20" fill="none" stroke="black" stroke-linecap="round" stroke-width="5"/>
	<path d="M81,67c0,15.83792 14,29.22416 14,44" fill="none" stroke="black" stroke-linecap="round" stroke-width="5"/>
	<path d="M89,62c0,7.97055 13.61761,51.76478 15,49" fill="none" stroke="black" stroke-linecap="round" stroke-width="5"/>
	<path d="M104,51c0,6.95076 10,84.07551 10,54" fill="none" stroke="black" stroke-linecap="round" stroke-width="5"/>
	<path d="M116,59c0,12.27867 10.59163,30.07071 14,42c1.44791,5.06768 3.85668,9.85504 5,15c0.22866,1.02899 0.5286,3.94281 1,3c1.94365,-3.8873 -0.46093,-8.68743 -1,-13" fill="none" stroke="black" stroke-linecap="round" stroke-width="5"/>
	<path d="M124,54c4.35523,11.97688 9.98083,23.94248 14,36c0.2357,0.70711 0.25464,2 1,2" fill="none" stroke="black" stroke-linecap="round" stroke-width="5"/>
	<path d="M136,39c0,16.11073 8.93958,35.94327 14,50" fill="none" stroke="black" stroke-linecap="round" stroke-width="5"/>
	<path d="M50,67c22.10129,0 6.00205,-33.66803 20,-43c6.29378,-4.19585 15.13077,7.54769 24,4c5.51599,-2.20639 9.62377,-6.31189 15,-9c11.60156,-5.80078 38.15084,-7 51,-7c1.03452,0 1.38215,-0.2357 2,1c3.04327,6.08654 -0.76361,14.50908 -6,18c-4.18183,2.78789 -11.30288,0.0643 -16,3c-17.14122,10.71326 -66.64009,56.41999 -86,54c-17.29702,-2.16213 5.6553,-19.3447 -2,-27" fill="none" stroke="black" stroke-linecap="round" stroke-width="5"/>
	<path d="M78,124c0,4.66577 -4.67945,12.80138 -3,17c1.40478,3.51195 5.35728,6.42848 9,4c6.18419,-4.12279 25.26137,30.60877 42,33c4.36679,0.62383 7.22048,-3.8189 11,-5c29.08199,-9.08812 53.37556,-21.97737 61,-54c0.70181,-2.9476 6.53587,-15.62444 5,-21c-1.49668,-5.23837 -22.17079,-21.05693 -28,-23c-3.57069,-1.19023 -9.47222,4.84259 -12,4c-7.86599,-2.622 -8.48386,-9.74212 -8,-17c0.24491,-3.67363 4.68179,-11 1,-11c-18.96367,0 -63.84662,61.84662 -79,77c-0.00716,0.00716 -1.23421,3 -2,3c-0.25578,0 -5.52133,-3.84044 -6,-4" fill="none" stroke="black" stroke-linecap="round" stroke-width="5"/>
	<path d="M132,176c2.35702,0 0.93071,4.644 1,7c0.23657,8.04348 -3.00716,45.98568 1,54" fill="none" stroke="black" stroke-linecap="round" stroke-width="5"/>
	<path d="M76,141c-2.62212,26.22121 -4.73529,37.83328 -9,62c-1.10216,6.2456 2.04263,12.74419 1,19c-0.34658,2.0795 -1.73851,-3.90809 -2,-6c-1.07814,-8.62515 -1.33333,-17.33333 -2,-26" fill="none" stroke="black" stroke-linecap="round" stroke-width="5"/>
	<path d="M62,172c17.85448,17.85448 46.21555,-3.12426 67,9c2.07627,1.21116 3.81175,4.99466 6,4c11.77906,-5.35412 22.74345,-15.57517 8,-24" fill="none" stroke="black" stroke-linecap="round" stroke-width="5"/>
	<path d="M197,97c0,6.86117 14.31385,33.26708 16,39c2.0542,6.98429 3.82853,14.05128 6,21c1.70257,5.44823 3,13.69 3,7" fill="none" stroke="black" stroke-linecap="round" stroke-width="5"/>
	<path d="M132,194c15.77967,15.77967 71.1765,-34.34846 82,-51c2.12631,-3.27124 1.56271,-7.95339 4,-11c1.83484,-2.29356 5.91635,-4.08365 3,-7" fill="none" stroke="black" stroke-linecap="round" stroke-width="5"/>
</svg>
