<?xml version="1.0" ?>
<svg baseProfile="full" height="300" version="1.1" viewBox="[0, 0, 300, 300]" width="300" xmlns="http://www.w3.org/2000/svg" xmlns:ev="http://www.w3.org/2001/xml-events" xmlns:xlink="http://www.w3.org/1999/xlink">
	<defs/>
	<path d="M97,49c0,13.23317 -6.97563,23.90252 -10,36c-5.06753,20.27012 -8.25656,86.14481 -2,107c2.4241,8.08032 13.35767,37 25,37c3.39935,0 7.11736,-0.19835 10,-2c8.49482,-5.30926 19.45077,-55.90155 26,-69c2.51448,-5.02896 9.18053,-9.54395 13,-14c2,-2.33333 2.92682,-7 6,-7c7.15051,0 4.38796,26.89631 4,30c-1.94785,15.58282 -32.72776,83.37871 1,89c10.45593,1.74266 33.25691,-10.77073 36,-19c3.16375,-9.49126 4.80203,-58.38579 3,-71c-0.514,-3.59802 -5.6356,-12.72881 -4,-16c7.85162,-15.70325 23.65826,-32.55275 40,-38c11.34983,-3.78328 21.30183,-2.03809 23,9c7.15084,46.48045 -4.97398,49.94796 -23,86c-0.23084,0.46168 -6.52241,0.49253 -8,0c-5.61638,-1.87213 -10.30339,-18.75847 -12,-23c-12.37415,-30.93537 2.69053,-62.30947 -23,-88c-2.59873,-2.59873 -8.54119,4.65589 -9,5c-15.96254,11.9719 -8.14964,30.2494 -17,45c-3.30234,5.5039 -7.20943,9.41887 -10,15c-1.43064,2.86129 -4.03015,7.70137 -8,6c-11.5512,-4.95052 -6,-84.47661 -6,-103c0,-7.80968 0.05328,-15.42623 1,-23c0.33333,-2.66667 3.4037,-6.79815 1,-8c-11.95214,-5.97607 -17.35435,-15.32569 -32,-10c-18.42859,6.70131 -23.13378,29.16555 -34,2" fill="none" stroke="black" stroke-linecap="round" stroke-width="5"/>
	<path d="M127,34c2.00707,2.00707 0.7152,2.4272 -1,5c-8.33846,12.50769 -24.34131,19.23551 -32,32c-8.19555,13.65926 0.29767,43.4465 8,55c1.33333,2 1.61486,6.29814 4,6c15.81775,-1.97722 39.7263,-3.54384 49,-19c8.27533,-13.79221 -6.67715,-26.74425 -5,-41c1.52548,-12.96661 8.9425,-24.20126 5,-38c-6.08709,-21.3048 -41.85332,7 -47,7c-2.00946,0 -2,-7.37485 -2,-9" fill="none" stroke="black" stroke-linecap="round" stroke-width="5"/>
	<path d="M215,103c-0.75449,0 -45.54451,35.80786 -48,39c-1.87375,2.43588 -7.43461,2.95771 -7,6c0.88372,6.18604 2.83934,9.24496 7,14c5.0533,5.77521 15.34428,0.47202 23,1c34.54909,2.3827 39.6213,22.91914 74,0c5,-3.33333 12.31258,-4.62516 15,-10c1.95628,-3.91256 11.90101,-45.09899 9,-48c-22.92829,-22.92829 -47.96279,-22.00744 -78,-16c-9.37986,1.87597 -21.23944,31.80278 -25,13" fill="none" stroke="black" stroke-linecap="round" stroke-width="5"/>
</svg>
