<?xml version="1.0" ?>
<svg baseProfile="full" height="300" version="1.1" viewBox="[0, 0, 300, 300]" width="300" xmlns="http://www.w3.org/2000/svg" xmlns:ev="http://www.w3.org/2001/xml-events" xmlns:xlink="http://www.w3.org/1999/xlink">
	<defs/>
	<path d="M89,163c0,11.79491 1.95147,23.29116 0,35c-0.69076,4.14456 -13,27.57042 -13,17" fill="none" stroke="black" stroke-linecap="round" stroke-width="5"/>
	<path d="M82,169c9.69993,-9.69993 42.98904,26.99452 53,32c2.49968,1.24984 2.0771,-2.71807 4,-4c19.1848,-12.78987 37.55098,-23.55098 54,-40c1.84089,-1.84089 6.44412,-3.83383 5,-6c-4.56896,-6.85344 -21.49509,-17.99607 -29,-24c-2.94159,-2.35327 -14.30531,-19.68418 -17,-18c-15.26773,9.54233 -45.33634,43.11211 -60,48c-3.25576,1.08525 -7.23431,7.94281 -9,5c-2.54726,-4.24544 -3.76998,-9.53996 -6,-14" fill="none" stroke="black" stroke-linecap="round" stroke-width="5"/>
	<path d="M86,155c-7.17453,3.58727 -14.93728,-15.84321 -17,-21c-3.21749,-8.04373 -9.09231,-14.27692 -12,-23c-2.92858,-8.78574 11.38998,-27.34108 16,-34c12.18293,-17.59757 20.50977,-17.17992 37,-23c7.55701,-2.66718 15.09516,-5.68253 23,-7c2,-0.33333 6,1.02759 6,-1" fill="none" stroke="black" stroke-linecap="round" stroke-width="5"/>
	<path d="M138,45c0,12.06052 7.01958,28.07832 10,40c1.24384,4.97537 6,20.60573 6,19" fill="none" stroke="black" stroke-linecap="round" stroke-width="5"/>
	<path d="M139,46c0,9.97828 11.58502,18.96237 18,25c9.46577,8.90896 20.07725,21.43633 28,32c10.40398,13.87197 15,41.60037 15,58c0,1.37437 0.37437,-4 -1,-4" fill="none" stroke="black" stroke-linecap="round" stroke-width="5"/>
	<path d="M58,107c18.03498,24.04663 40.2241,46.2241 61,67c6.47882,6.47882 10.7614,12.20912 18,18c2.03293,1.62634 3.96707,3.37366 6,5c1.16405,0.93124 3.05409,5.05409 2,4c-1.69967,-1.69967 -2.66667,-4 -4,-6" fill="none" stroke="black" stroke-linecap="round" stroke-width="5"/>
	<path d="M136,193c0,17.44227 4.31941,31.28255 0,50c-1.61081,6.98018 -13.60883,30.86119 -2,3" fill="none" stroke="black" stroke-linecap="round" stroke-width="5"/>
	<path d="M201,163c0,12.80265 22.97564,25.72767 32,34c2.46687,2.26129 13,15.97714 13,8" fill="none" stroke="black" stroke-linecap="round" stroke-width="5"/>
</svg>
