<?xml version="1.0" ?>
<svg baseProfile="full" height="300" version="1.1" viewBox="[0, 0, 300, 300]" width="300" xmlns="http://www.w3.org/2000/svg" xmlns:ev="http://www.w3.org/2001/xml-events" xmlns:xlink="http://www.w3.org/1999/xlink">
	<defs/>
	<path d="M69,58c0,5.7743 14,91.33685 14,63" fill="none" stroke="black" stroke-linecap="round" stroke-width="5"/>
	<path d="M83,58c0,16.61481 4.5023,40.0046 12,55c1.3477,2.69541 1,-3.49271 1,-4" fill="none" stroke="black" stroke-linecap="round" stroke-width="5"/>
	<path d="M97,53c0,11.86135 6.43136,27.58036 10,39c1.72092,5.50693 2.93121,10.82804 5,16c0.24759,0.61898 0,2.66667 0,2c0,-1.33333 0,-2.66667 0,-4" fill="none" stroke="black" stroke-linecap="round" stroke-width="5"/>
	<path d="M109,29c0,9.76247 23.8759,85.62769 16,62" fill="none" stroke="black" stroke-linecap="round" stroke-width="5"/>
	<path d="M118,34c5.28145,10.5629 17,68.12987 17,58" fill="none" stroke="black" stroke-linecap="round" stroke-width="5"/>
	<path d="M132,33c6.83385,10.25078 11.02756,26.11024 14,38c0.4099,1.63959 4,26.60026 4,15" fill="none" stroke="black" stroke-linecap="round" stroke-width="5"/>
	<path d="M145,25c4.0046,11.12389 9.15666,21.81937 13,33c3.49786,10.1756 4.86154,21.06768 9,31c0.46225,1.1094 3,3.20185 3,2" fill="none" stroke="black" stroke-linecap="round" stroke-width="5"/>
	<path d="M52,51c11.93174,0 9.59396,-18.55638 17,-23c3.52832,-2.11699 7.44631,-5.22315 11,-7c5.41142,-2.70571 18.09709,6.12899 26,5c14.54843,-2.07835 23.95859,-15 39,-15c1.95994,0 7.7993,-1.2007 9,0c4.84393,4.84393 -15.34089,18.66941 -19,20c-6.01322,2.18662 -10.71138,-0.39747 -17,1c-13.72751,3.05056 -38.49652,11.66435 -51,20c-4.47586,2.9839 -21.58389,24.41611 -29,17c-1.32961,-1.32961 0.46877,-2.33597 1,-3c3.21592,-4.01991 21,-15.36132 21,-18" fill="none" stroke="black" stroke-linecap="round" stroke-width="5"/>
	<path d="M84,127c34.92154,34.92154 101,-63.10942 101,-19c0,6.2262 3.95174,13.16891 2,20c-14.55264,50.93425 -99.80032,24.99841 -102,14c-1.71298,-8.56489 -5,-21.14661 -5,-30" fill="none" stroke="black" stroke-linecap="round" stroke-width="5"/>
	<path d="M106,151c9.83473,19.66945 9.03416,35.75161 10,57c0.32936,7.24582 1.74954,14.91408 3,22c0.29538,1.67381 1,6.69967 1,5c0,-9.67241 -5.83943,-22.16057 1,-29" fill="none" stroke="black" stroke-linecap="round" stroke-width="5"/>
	<path d="M179,145c2.4267,-2.4267 2.5733,-11.4267 5,-9c2.4037,2.4037 1.10557,6.72043 2,10c6.14607,22.53558 12.86544,47.86544 30,65c4.50309,4.50309 -9.32053,-8.68049 -14,-13" fill="none" stroke="black" stroke-linecap="round" stroke-width="5"/>
	<path d="M80,134c0,27.5246 -0.1106,34.96159 -11,64c-1.44175,3.84468 -15.8225,29.46749 -12,18" fill="none" stroke="black" stroke-linecap="round" stroke-width="5"/>
	<path d="M68,191c16.36338,4.09084 50.94586,7.79061 64,-2c2.68048,-2.01036 7.07194,-0.85612 5,-5" fill="none" stroke="black" stroke-linecap="round" stroke-width="5"/>
	<path d="M122,182c13.93072,27.86144 59.03688,-3.00922 79,-8c2.04524,-0.51131 -0.83059,-4.24588 -2,-6" fill="none" stroke="black" stroke-linecap="round" stroke-width="5"/>
</svg>
