<?xml version="1.0" ?>
<svg baseProfile="full" height="300" version="1.1" viewBox="[0, 0, 300, 300]" width="300" xmlns="http://www.w3.org/2000/svg" xmlns:ev="http://www.w3.org/2001/xml-events" xmlns:xlink="http://www.w3.org/1999/xlink">
	<defs/>
	<path d="M57,56c-0.91749,7.56925 -15.94817,147.30793 9,158c1.29987,0.55709 2.27239,-1.78732 3,-3c8.85042,-14.75069 19.46133,-56.46133 30,-67c0.84905,-0.84905 5.02766,-6.29645 6,-5c3.14534,4.19379 12.95255,14.14234 11,20c-8.98404,26.95213 -19.03894,43.30737 9,62c5.54524,3.69683 12.51466,3.65689 18,0c19.5327,-13.0218 26.48153,-47.58218 33,-69c2.6296,-8.64013 -3.1887,-27.44904 5,-34c3.59642,-2.87714 7.23705,2.94223 9,4c14.17125,8.50275 41.84748,-16.37272 47,30c0.51296,4.61666 4.23244,17.45402 3,23c-5.0339,22.65255 -35.40641,40.57758 -45,7c-0.45787,-1.60254 -0.0876,-3.33564 0,-5c1.84803,-35.11262 11.10249,-45.34627 -8,-74c-2.1314,-3.19709 -7.29763,-11.04497 -12,-10c-27.27726,6.06161 -49.46706,83.87427 -67,51c-15.50299,-29.0681 16.70455,-53.77272 12,-82c-0.38749,-2.32495 -0.25464,-4.76393 -1,-7c-3.36407,-10.09221 -11.25301,-17.25781 -15,-27c-1.44585,-3.75922 -1.28214,-12.54911 -5,-11c-32.74139,13.64225 -37.86935,15.17092 -40,45c-0.78695,11.01729 -2.19396,21.98409 -3,33c-0.24325,3.32445 -2.35702,7.64298 0,10c5.61873,5.61873 23.00579,-3.38506 31,-4c50.74849,-3.90373 32.48703,-54.02594 17,-85c-8.09012,-16.18024 -29.80056,2.80056 -38,11c-7.01933,7.01933 0,-0.14619 0,-3" fill="none" stroke="black" stroke-linecap="round" stroke-width="5"/>
</svg>
