<?xml version="1.0" ?>
<svg baseProfile="full" height="300" version="1.1" viewBox="[0, 0, 300, 300]" width="300" xmlns="http://www.w3.org/2000/svg" xmlns:ev="http://www.w3.org/2001/xml-events" xmlns:xlink="http://www.w3.org/1999/xlink">
	<defs/>
	<path d="M205,234c0,-8.09744 3.12231,-13.48926 5,-21c3.41463,-13.65852 -4.3461,-33.52576 1,-46c3.62418,-8.45642 7,-24.49664 7,-34" fill="none" stroke="black" stroke-linecap="round" stroke-width="5"/>
	<path d="M53,259c0,-23.72945 9.5526,-52.39459 15,-76c2.50579,-10.85841 0.76979,-22.92807 2,-34c0.33236,-2.99122 6.53083,-26 9,-26" fill="none" stroke="black" stroke-linecap="round" stroke-width="5"/>
	<path d="M79,123c22.46591,0 45.21354,3.64271 67,8c22.14496,4.42899 50.52206,0 73,0c13.74827,0 27.82016,1.87194 40,-3c1.64413,-0.65765 8.16387,0.65547 7,-4c-0.0975,-0.39 -40.18179,-24.24674 -45,-27c-27.03537,-15.44878 -122.66921,-19.76045 -152,-3c-3.13203,1.78973 -23.30316,18.8181 -18,22c4.92315,2.95389 12.30598,-0.35287 17,3c5.27679,3.76914 7.34884,9 15,9" fill="none" stroke="black" stroke-linecap="round" stroke-width="5"/>
	<path d="M194,82c0,-16.33333 0,-32.66667 0,-49" fill="none" stroke="black" stroke-linecap="round" stroke-width="5"/>
	<path d="M123,73c0,-11.66667 0,-23.33333 0,-35" fill="none" stroke="black" stroke-linecap="round" stroke-width="5"/>
	<path d="M75,43c61.7213,-15.43033 99.55532,-6 161,-6c5.98073,0 27.90746,4.04627 34,1c0.53235,-0.26617 1.02837,-17.97163 0,-19c-0.27943,-0.27943 -50.08632,0 -51,0c-10.33333,0 -20.66667,0 -31,0c-10.74772,0 -106.15787,-4.13159 -117,4c-4.4009,3.30068 -3,9.28966 -3,14" fill="none" stroke="black" stroke-linecap="round" stroke-width="5"/>
	<path d="M81,49c-6.27316,18.81947 -25.74017,33.96068 -31,55c-5.32676,21.30703 -8.54975,44.29851 -12,65c-1.49515,8.97088 1.97197,19.12613 0,28c-3.94674,17.76033 -12,35.72396 -12,54" fill="none" stroke="black" stroke-linecap="round" stroke-width="5"/>
	<path d="M275,39c-10.1965,20.39299 -16,39.1644 -16,62c0,2.75185 0.70108,14.44839 -1,17c-0.41345,0.62017 -1.33333,0.66667 -2,1" fill="none" stroke="black" stroke-linecap="round" stroke-width="5"/>
</svg>
