<?xml version="1.0" ?>
<svg baseProfile="full" height="300" version="1.1" viewBox="[0, 0, 300, 300]" width="300" xmlns="http://www.w3.org/2000/svg" xmlns:ev="http://www.w3.org/2001/xml-events" xmlns:xlink="http://www.w3.org/1999/xlink">
	<defs/>
	<path d="M56,243c6.43882,-15.02391 10.74724,-30.99337 17,-46c3.23914,-7.77394 18,-30 18,-30c0,0 1.20049,-4.99918 0,-7c-5.36413,-8.94021 -3.71212,-30.28283 -11,-40c-7.06693,-9.42257 -1.29674,-15.12465 -5,-25c-1,-2.66667 -5.81938,-7.59723 -3,-8c23.98913,-3.42702 52.56246,0 77,0c9.21123,0 21.06109,1.98643 30,0c0.10875,-0.02417 5.33565,-4.99304 6,-3c4.58209,13.74626 0.35406,32.44734 3,47c7.31686,40.24274 23,75.27837 23,116" fill="none" stroke="black" stroke-linecap="round" stroke-width="5"/>
	<path d="M91,171c-9.28003,0 -15.45483,9 -23,9c-0.33333,0 -1.32686,0.06537 -1,0c20.79502,-4.159 43.39249,3.1215 64,-1c22.12888,-4.42578 64.57532,-16 85,-16" fill="none" stroke="black" stroke-linecap="round" stroke-width="5"/>
	<path d="M108,97c19.25092,-7.70037 -3.89361,3.47194 -12,16c-3.68461,5.6944 -6.1882,13.1882 -11,18" fill="none" stroke="black" stroke-linecap="round" stroke-width="5"/>
	<path d="M133,111c0,21.16752 -30.45035,36.35106 -37,56" fill="none" stroke="black" stroke-linecap="round" stroke-width="5"/>
	<path d="M169,101c0,25.26083 -47.99369,71.58864 -61,95c-9.81359,17.66446 7.272,-3.272 12,-8" fill="none" stroke="black" stroke-linecap="round" stroke-width="5"/>
	<path d="M193,101c0,23.4362 -28,42.07224 -28,63" fill="none" stroke="black" stroke-linecap="round" stroke-width="5"/>
	<path d="M71,219c29.43839,0 58.60077,2 88,2c14.43876,0 30.20561,-1.24112 44,-4c1.7602,-0.35204 5,-0.20495 5,-2c0,-9.59297 -5.76404,-15.58651 -9,-24c-0.25197,-0.65511 0.37705,-9.94614 0,-10c-17.47701,-2.49672 -34.92839,3.86605 -52,6c-16.67484,2.08436 -34.18861,-0.40095 -51,1c-2.83295,0.23608 -24.47688,-1.52312 -27,1c-0.4714,0.4714 -0.343,1.42834 0,2c6.18502,10.30837 15.14097,20.42291 19,32" fill="none" stroke="black" stroke-linecap="round" stroke-width="5"/>
</svg>
