<?xml version="1.0" ?>
<svg baseProfile="full" height="300" version="1.1" viewBox="[0, 0, 300, 300]" width="300" xmlns="http://www.w3.org/2000/svg" xmlns:ev="http://www.w3.org/2001/xml-events" xmlns:xlink="http://www.w3.org/1999/xlink">
	<defs/>
	<path d="M41,132c0,34.7307 -2,69.6512 -2,104c0,4.34302 -2.3641,27.5453 2,29c6.88192,2.29397 17.74925,0.25075 22,-4c2.86744,-2.86744 7.97614,-1.49702 12,-2c1.44248,-0.18031 0.88023,-5.5209 1,-6c4.14051,-16.56204 1,-32.87413 1,-50c0,-9.61618 11.12781,-13.09586 19,-19c0.32752,-0.24564 3.97123,-0.08631 4,0c5.86046,17.58137 1,46.12577 1,65c0,0.97466 -0.29894,6.90035 0,7c0.94737,0.31579 5.83798,0.29051 7,0c12.12817,-3.03204 8.11838,-48.67757 13,-56c0.6819,-1.02285 17.78889,0 19,0c1.83384,0 15.78016,-0.65951 16,0c0.58457,1.75372 -0.83317,23.83317 8,15c3.54336,-3.54336 8.12558,-5.87906 9,-12c0.30704,-2.14927 -0.52961,-11.49408 2,-12c9.64622,-1.92924 22.1604,0 32,0c0.77137,0 12.60351,-0.79297 13,0c0.89217,1.78435 -23.7097,66.38726 -25,78c-2.38612,21.47507 12.7599,33.36015 25,15c9.88088,-14.82132 12,-31.26512 12,-49c0,-21.55228 4.40555,-43.21664 11,-63c0.31623,-0.94868 0.70711,-2.29289 0,-3c-2.48837,-2.48837 -11.76537,0.42597 -15,-2c-13.41953,-10.06465 -39.79888,-18.51086 -60,-23c-5.13927,-1.14206 -31.01387,1.9792 -33,-1c-4.71415,-7.07123 0.41324,-75.05784 -4,-78c-3.94374,-2.62916 -22.91469,0 -27,0c-10.45082,0 -18.44448,4.05984 -28,7c-3.33297,1.02553 -10.0155,-0.98967 -13,1c-19.85288,13.23526 -18,43.29508 -18,64" fill="none" stroke="black" stroke-linecap="round" stroke-width="5"/>
	<path d="M88,193c10.62369,-10.62369 25.09529,-18.2699 35,-29c11.53196,-12.49296 22.22228,-28.22228 34,-40" fill="none" stroke="black" stroke-linecap="round" stroke-width="5"/>
</svg>
