<?xml version="1.0" ?>
<svg baseProfile="full" height="300" version="1.1" viewBox="[0, 0, 300, 300]" width="300" xmlns="http://www.w3.org/2000/svg" xmlns:ev="http://www.w3.org/2001/xml-events" xmlns:xlink="http://www.w3.org/1999/xlink">
	<defs/>
	<path d="M92,219c-8.85233,8.85233 -29.66329,68.65317 -33,82" fill="none" stroke="black" stroke-linecap="round" stroke-width="5"/>
	<path d="M109,223c14.6515,19.53533 15,41.66906 15,65" fill="none" stroke="black" stroke-linecap="round" stroke-width="5"/>
	<path d="M71,209c3.10844,9.32531 38.93802,4 48,4c25.33333,0 50.66667,0 76,0c0.66667,0 1.657,0.57166 2,0c4.67001,-7.78335 2,-21.34279 2,-30c0,-3.74214 2.49971,-23.50029 0,-26c-2.66613,-2.66613 -36.42349,-1.4745 -44,-4c-17.28176,-5.76059 -37.08082,-5.5909 -52,4c-0.33857,0.21765 -12.9493,4.9493 -14,6c-11.66797,11.66797 -8,37.38631 -8,52" fill="none" stroke="black" stroke-linecap="round" stroke-width="5"/>
	<path d="M104,144c0,-14.60511 -0.69448,-29.41596 0,-44c0.4379,-9.19593 5,-18.20337 5,-27" fill="none" stroke="black" stroke-linecap="round" stroke-width="5"/>
	<path d="M121,141c4.7759,4.7759 7,-35.42411 7,-45c0,-1.69967 0.69967,-5 -1,-5" fill="none" stroke="black" stroke-linecap="round" stroke-width="5"/>
	<path d="M144,137c8.32141,-22.19042 -0.48676,-68.51324 17,-86" fill="none" stroke="black" stroke-linecap="round" stroke-width="5"/>
	<path d="M164,145c4.95696,0 4.67844,-10.71377 5,-12c6.2005,-24.80202 16,-55.19795 16,-81" fill="none" stroke="black" stroke-linecap="round" stroke-width="5"/>
	<path d="M205,53c-24.94246,0 -49.2573,2 -74,2c-12.98786,0 -26.19146,1 -39,1c-1,0 -3.14142,0.98995 -3,0c0.42438,-2.97068 4.99333,-16.745 8,-19c5.57257,-4.17943 103.71351,0 126,0c2.53859,0 -4.88776,1.59184 -7,3c-2.41598,1.61065 -6.37562,8 -9,8" fill="none" stroke="black" stroke-linecap="round" stroke-width="5"/>
	<path d="M188,220c0,12.53452 3,24.41513 3,37" fill="none" stroke="black" stroke-linecap="round" stroke-width="5"/>
	<path d="M103,264c15.21817,0 26.09334,-13 40,-13" fill="none" stroke="black" stroke-linecap="round" stroke-width="5"/>
</svg>
