<?xml version="1.0" ?>
<svg baseProfile="full" height="300" version="1.1" viewBox="[0, 0, 300, 300]" width="300" xmlns="http://www.w3.org/2000/svg" xmlns:ev="http://www.w3.org/2001/xml-events" xmlns:xlink="http://www.w3.org/1999/xlink">
	<defs/>
	<path d="M169,233c-18.95055,-3.15842 -32.05066,-29.08444 -41,-44c-4.21217,-7.02029 -17,-19.2311 -17,-28c0,-0.66667 0.59628,-1.70186 0,-2c-5.77371,-2.88685 -19.72202,-17.44405 -23,-24c-6.17074,-12.34149 5.18335,-55.27502 11,-64c3.69819,-5.54728 0.31375,-21.085 4,-26c6.43721,-8.58295 45.49976,14.99951 48,20c4.70082,9.40164 8.95739,25.35086 12,36c1.94488,6.80707 -1.26652,15.46697 2,22c8.6775,17.35499 25.28089,37.12357 30,56c3.46377,13.85507 9.32209,26.87015 16,38c2.66514,4.4419 2.30489,12.91468 4,18c4.35219,13.05658 23.35243,43.67621 36,50" fill="none" stroke="black" stroke-linecap="round" stroke-width="5"/>
	<path d="M133,199c7.68738,0 49.16919,-0.66811 55,-4c1.62596,-0.92912 22.32564,-16.33718 15,-20c-5.00999,-2.505 -20.29381,-2.58763 -23,-8c-7.70786,-15.41573 -4.00531,-42.99867 -32,-36c-11.37715,2.84429 -39.60569,36.78863 -33,50c1.72285,3.4457 9.36431,0.89145 12,3c1.86836,1.49469 7.43211,5 10,5" fill="none" stroke="black" stroke-linecap="round" stroke-width="5"/>
	<path d="M103,157c-7.21809,10.82713 -8.37069,23.90229 -12,36c-8.08345,26.94484 -14,38.05128 -14,66" fill="none" stroke="black" stroke-linecap="round" stroke-width="5"/>
</svg>
