<?xml version="1.0" ?>
<svg baseProfile="full" height="300" version="1.1" viewBox="[0, 0, 300, 300]" width="300" xmlns="http://www.w3.org/2000/svg" xmlns:ev="http://www.w3.org/2001/xml-events" xmlns:xlink="http://www.w3.org/1999/xlink">
	<defs/>
	<path d="M219,46c-9.68174,9.68174 -99.03499,-3.96501 -114,11c-8.99055,8.99055 6,55.99598 6,71c0,2.7831 1,25 1,25c0,0 14.57278,-11.14319 18,-12c16.52973,-4.13243 45.55728,-8.36068 63,-4c3.69516,0.92379 30,14 30,14c0,0 -1.74562,-23.96496 -2,-26c-2.30875,-18.46998 2,-35.90915 2,-53c0,-4.71239 -0.83496,-28.83496 1,-27" fill="none" stroke="black" stroke-linecap="round" stroke-width="5"/>
	<path d="M226,114c2.64165,0 8.22088,4.11044 12,6c6.16389,3.08195 13.5218,4.5218 19,10c7.95119,7.95119 -3.59343,27.81314 1,37c11.95067,23.90134 -9.93338,76.19987 -1,103" fill="none" stroke="black" stroke-linecap="round" stroke-width="5"/>
	<path d="M255,261c0,9.17678 -17.00966,2.99034 -21,-1c-21.10554,-21.10554 -13.12377,-47 -52,-47c-2.62985,0 -11.59008,-1.40992 -13,0c-4.81279,4.81279 -33.39836,4.39836 -42,13c-10.31256,10.31256 11.1037,19.31111 13,25c3.23185,9.69556 4,18.54485 4,28c0,1.57669 -0.2506,6 1,6c7.65434,0 10,-21.44075 10,-26c0,-13.46765 -6.49677,-20.48383 -9,-33c-3.69759,-18.48794 -1,-37.40035 -1,-56c0,-3.82393 -0.02231,-6.00744 -3,-7c-11.53101,-3.84367 -33.18365,-11.18365 -42,-20c-0.4714,-0.4714 -1.5286,-0.4714 -2,0" fill="none" stroke="black" stroke-linecap="round" stroke-width="5"/>
	<path d="M209,153c-14.2179,0 -24.82413,11.67485 -38,14c-13.47786,2.37845 -27.50371,1.77306 -41,3c-2.78614,0.25329 -23.42583,-2.14834 -25,1c-0.87393,1.74786 14.30188,11.65094 21,15c7.27999,3.64 5.05578,14.82231 18,20c1.32509,0.53004 8,3 8,3c0,0 1.73333,-1.73333 2,-2c5.79825,-5.79825 13.25902,-2.074 20,-4c4.74141,-1.35469 6.40321,-5.80107 10,-7c8.03299,-2.67766 19.55982,0.9378 28,0c6.44717,-0.71635 18.44626,-6.38843 24,-5c6.41596,1.60399 15.61111,5 22,5c2.848,0 -5.45267,-1.72634 -8,-3c-3.64503,-1.82251 -13.11766,-4.23532 -15,-8c-2.36993,-4.73987 -17.18464,-42 -21,-42" fill="none" stroke="black" stroke-linecap="round" stroke-width="5"/>
</svg>
