<?xml version="1.0" ?>
<svg baseProfile="full" height="300" version="1.1" viewBox="[0, 0, 300, 300]" width="300" xmlns="http://www.w3.org/2000/svg" xmlns:ev="http://www.w3.org/2001/xml-events" xmlns:xlink="http://www.w3.org/1999/xlink">
	<defs/>
	<path d="M199,52c-18.78895,-9.39448 -98,-27.00435 -98,9c0,3.37207 -1.46802,11.06396 0,14c1.25296,2.50591 13,10 13,10c0,0 0.44667,-3.44667 1,-4c9.6491,-9.6491 18.30545,-11.04364 32,-13c8.2991,-1.18559 22.93616,-2.22554 31,1c1.63285,0.65314 12.24597,10.75403 14,9c5.42312,-5.42312 0,-24.95889 0,-31" fill="none" stroke="black" stroke-linecap="round" stroke-width="5"/>
	<path d="M170,71c0,16.95663 -8.54022,50.14945 -3,64c2.70885,6.77212 7,10.0996 7,18" fill="none" stroke="black" stroke-linecap="round" stroke-width="5"/>
	<path d="M156,74c-3.83043,7.66087 -1.43442,71.26233 1,81c0.41223,1.64893 1,-3.30033 1,-5" fill="none" stroke="black" stroke-linecap="round" stroke-width="5"/>
	<path d="M143,72c0,10.07933 -3.78186,19.79984 -1,30c2.83715,10.40289 6,20.06694 6,31c0,7.15782 1.40468,11.51171 4,18c1.09337,2.73341 1,4.73675 1,8c0,0.33333 0,5.33333 0,5c0,-2.66667 0,-5.33333 0,-8" fill="none" stroke="black" stroke-linecap="round" stroke-width="5"/>
	<path d="M136,72c0,10.55225 -12.19731,79 3,79" fill="none" stroke="black" stroke-linecap="round" stroke-width="5"/>
	<path d="M122,73c0,10.31921 -3.87487,102.31231 9,83" fill="none" stroke="black" stroke-linecap="round" stroke-width="5"/>
	<path d="M195,170c0,-16.18242 -75,-47.95874 -75,-1c0,6.5924 -1.91147,17.17707 1,23c11.3607,22.7214 42.69543,20.65228 62,11c5.72951,-2.86475 8.8048,-12.2072 12,-17c4.27248,-6.40872 5.57029,-31 -4,-31" fill="none" stroke="black" stroke-linecap="round" stroke-width="5"/>
	<path d="M197,189c0,18.97093 2.67788,36.4903 4,55c0.21088,2.95232 1,32.89003 1,23" fill="none" stroke="black" stroke-linecap="round" stroke-width="5"/>
	<path d="M175,211c0,7.50444 -1,15.20988 -1,23c0,1.86102 0,11.66681 0,7" fill="none" stroke="black" stroke-linecap="round" stroke-width="5"/>
	<path d="M143,206c0,14.14133 2.44591,35.66226 -2,49c-4.04525,12.13576 -12,25.58833 -12,39" fill="none" stroke="black" stroke-linecap="round" stroke-width="5"/>
	<path d="M124,186c-1.32036,0 -2.68944,3.4472 -3,5c-3.33688,16.68438 -1.08723,36.30217 1,53c0.18164,1.45313 0.80618,4 -1,4" fill="none" stroke="black" stroke-linecap="round" stroke-width="5"/>
	<path d="M175,237c0,5.33645 5.04367,23.04367 0,18" fill="none" stroke="black" stroke-linecap="round" stroke-width="5"/>
</svg>
