<?xml version="1.0" ?>
<svg baseProfile="full" height="300" version="1.1" viewBox="[0, 0, 300, 300]" width="300" xmlns="http://www.w3.org/2000/svg" xmlns:ev="http://www.w3.org/2001/xml-events" xmlns:xlink="http://www.w3.org/1999/xlink">
	<defs/>
	<path d="M193,71c-22.9042,-11.4521 -65.71847,-8.85631 -90,-4c-8.59003,1.71801 -25.03519,24.96481 -16,34c10.93538,10.93538 103.85694,3.28612 112,-13c4.89274,-9.78548 -19,-22.32426 -19,-29" fill="none" stroke="black" stroke-linecap="round" stroke-width="5"/>
	<path d="M179,101c0,12.37746 12.50011,52.99978 8,62c-0.68491,1.36981 -0.54245,4 -2,4" fill="none" stroke="black" stroke-linecap="round" stroke-width="5"/>
	<path d="M150,104c0,13.12534 -3.49178,36.76233 4,48c2.27013,3.4052 10,20.04353 10,17" fill="none" stroke="black" stroke-linecap="round" stroke-width="5"/>
	<path d="M132,111c-4.49047,13.47142 -3.40814,30.91862 -2,45c0.4203,4.20296 3,23.77591 3,17" fill="none" stroke="black" stroke-linecap="round" stroke-width="5"/>
	<path d="M110,108c0,15.56492 0,32.83593 0,49c0,5.59539 2,22.68448 2,21" fill="none" stroke="black" stroke-linecap="round" stroke-width="5"/>
	<path d="M200,188c0,-14.60393 -84.42789,-22.57211 -99,-8c-6.63633,6.63633 5.24029,20.96117 8,32c1.89691,7.58765 2.0689,21.0689 8,27c1.65062,1.65062 3.30601,0.34699 6,-1c18.41616,-9.20808 72.35548,2.64452 83,-8c0.4714,-0.4714 0,-1.33333 0,-2c0,-11.04275 -7,-20.87345 -7,-33c0,-4.66667 0,-9.33333 0,-14c0,-1.69224 1,-8.0697 1,-6" fill="none" stroke="black" stroke-linecap="round" stroke-width="5"/>
	<path d="M209,235c0,8.99491 0.79166,19.62503 -2,28c-0.43348,1.30043 -1,14.45312 -1,9" fill="none" stroke="black" stroke-linecap="round" stroke-width="5"/>
	<path d="M188,235c0,4.89465 -1.00617,17 -2,17" fill="none" stroke="black" stroke-linecap="round" stroke-width="5"/>
	<path d="M116,239c1.56667,0 1,0.66667 1,2c0,4.74174 -5,59.60695 -5,27" fill="none" stroke="black" stroke-linecap="round" stroke-width="5"/>
	<path d="M98,189c0,6.32558 -3,16.17018 -3,24c0,1.66667 0,5 0,5c0,0 -0.77448,-4.54896 -1,-5" fill="none" stroke="black" stroke-linecap="round" stroke-width="5"/>
	<path d="M188,162c0,4.03269 -1,6.96731 -1,11" fill="none" stroke="black" stroke-linecap="round" stroke-width="5"/>
</svg>
