<?xml version="1.0" ?>
<svg baseProfile="full" height="300" version="1.1" viewBox="[0, 0, 300, 300]" width="300" xmlns="http://www.w3.org/2000/svg" xmlns:ev="http://www.w3.org/2001/xml-events" xmlns:xlink="http://www.w3.org/1999/xlink">
	<defs/>
	<path d="M207,67c-2.75659,0 -23.38422,-12.04269 -32,-13c-15.61603,-1.73511 -45.26333,-4.86834 -59,2c-13.20406,6.60203 -2.49099,13.98199 -8,25c-1.51094,3.02188 -4.07933,14.92067 -1,18c0.93863,0.93863 2.51111,-0.75556 3,-1c10.99312,-5.49656 22.5008,-14.16693 34,-18c27.21608,-9.07203 95.79708,27.79708 52,-16" fill="none" stroke="black" stroke-linecap="round" stroke-width="5"/>
	<path d="M191,87c0,31.82449 4,63.20827 4,95c0,2.95685 1.07324,7.03662 -3,5" fill="none" stroke="black" stroke-linecap="round" stroke-width="5"/>
	<path d="M181,91c-4.10581,4.10581 -3,76.37012 -3,86" fill="none" stroke="black" stroke-linecap="round" stroke-width="5"/>
	<path d="M163,85c0,21.85307 2,43.91602 2,66c0,9.71148 -1,3.12366 -1,-2" fill="none" stroke="black" stroke-linecap="round" stroke-width="5"/>
	<path d="M149,86c0,19.10188 -0.80881,37.94093 -2,57c-0.48032,7.68512 0.75774,14.27321 3,21c0.9961,2.9883 -2,9.09168 -2,8" fill="none" stroke="black" stroke-linecap="round" stroke-width="5"/>
	<path d="M129,88c0,15.3539 -2.02189,30.67166 -1,46c0.60317,9.04749 7,17.07717 7,24" fill="none" stroke="black" stroke-linecap="round" stroke-width="5"/>
	<path d="M136,94c0,25.19222 0,49.85723 0,75c0,2.64906 0.84982,4 1,4" fill="none" stroke="black" stroke-linecap="round" stroke-width="5"/>
	<path d="M213,185c-9.91183,-9.91183 -88.63963,-47.08112 -98,-19c-18.2918,54.87541 64.06035,58.97988 97,48c18.31167,-6.10389 1.40437,-43 -26,-43" fill="none" stroke="black" stroke-linecap="round" stroke-width="5"/>
	<path d="M209,217c0,9.35431 -7.67573,83.32427 1,92" fill="none" stroke="black" stroke-linecap="round" stroke-width="5"/>
	<path d="M179,225c0,12.01419 -4,23.79488 -4,35" fill="none" stroke="black" stroke-linecap="round" stroke-width="5"/>
	<path d="M138,219c0,24.32555 -4,46.86988 -4,71" fill="none" stroke="black" stroke-linecap="round" stroke-width="5"/>
	<path d="M111,186c-1.05409,0 -1,1.94591 -1,3c0,14.28787 -2,28.90596 -2,43c0,2.59953 -1,3.60113 -1,6" fill="none" stroke="black" stroke-linecap="round" stroke-width="5"/>
</svg>
