<?xml version="1.0" ?>
<svg baseProfile="full" height="300" version="1.1" viewBox="[0, 0, 300, 300]" width="300" xmlns="http://www.w3.org/2000/svg" xmlns:ev="http://www.w3.org/2001/xml-events" xmlns:xlink="http://www.w3.org/1999/xlink">
	<defs/>
	<path d="M206,165c0,-16.32324 -9.20798,-36.2479 -12,-53c-1.26411,-7.58468 4.88009,-32.11991 1,-36c-4.98946,-4.98946 -51.33099,1.4662 -59,3c-3.3915,0.6783 -38.60356,1.60356 -39,2c-1.31741,1.31741 2.37107,45.22639 3,49c1.85595,11.13569 2.43259,23.29778 6,34c0.64643,1.93929 0.05268,16 1,16c5.32202,0 9.87098,-10.29033 15,-12c8.44056,-2.81352 21.17029,-3.19151 31,-6c10.50578,-3.00165 27.83691,-6.79077 39,-4c1.97181,0.49295 26.94436,3.47218 18,-1" fill="none" stroke="black" stroke-linecap="round" stroke-width="5"/>
	<path d="M206,155c0,-0.74536 -1.47295,-0.47295 -2,-1" fill="none" stroke="black" stroke-linecap="round" stroke-width="5"/>
	<path d="M191,125c6.92918,0 34.49701,9.74552 38,15c4.3996,6.59941 6.17137,92.82863 0,99c-10.04974,10.04974 -15.05332,-19.10663 -17,-23c-1.84873,-3.69747 -4.79896,-8.79896 -7,-11c-5.02387,-5.02387 -87.93114,6.93114 -90,9c-11.53652,11.53652 26.7694,48 30,48c2.68742,0 -1,-5.31258 -1,-8c0,-6.33333 0,-12.66667 0,-19c0,-14.36584 1,-28.65795 1,-43c0,-13.18488 3.87118,-50.06441 -10,-57c-11.17569,-5.58785 -30.30679,1.3466 -41,-4c-3.56889,-1.78445 -11.32271,-6 -15,-6" fill="none" stroke="black" stroke-linecap="round" stroke-width="5"/>
</svg>
