<?xml version="1.0" ?>
<svg baseProfile="full" height="300" version="1.1" viewBox="[0, 0, 300, 300]" width="300" xmlns="http://www.w3.org/2000/svg" xmlns:ev="http://www.w3.org/2001/xml-events" xmlns:xlink="http://www.w3.org/1999/xlink">
	<defs/>
	<path d="M201,92c-11.36176,0 -22.51594,-2 -34,-2c-6.29667,0 -56.24164,-1.75836 -59,1c-8.75112,8.75112 -43.78677,15.6397 -37,36c6.16461,18.49383 35.59176,17.33008 51,18c34.36501,1.49413 67.24388,8.25204 101,-3c7.95676,-2.65225 24.73729,-13.77118 18,-25c-1.78564,-2.97607 -7.49285,-4.13469 -10,-7c-5.06904,-5.79319 -10.10371,-13.74392 -18,-16c-10.88226,-3.10922 -26.0461,-3 -37,-3" fill="none" stroke="black" stroke-linecap="round" stroke-width="5"/>
	<path d="M174,119c-8.86007,-2.21502 -15.48799,-5.13527 -25,-6c-46.74985,-4.24999 7.09973,25.90027 26,7" fill="none" stroke="black" stroke-linecap="round" stroke-width="5"/>
</svg>
