<?xml version="1.0" ?>
<svg baseProfile="full" height="300" version="1.1" viewBox="[0, 0, 300, 300]" width="300" xmlns="http://www.w3.org/2000/svg" xmlns:ev="http://www.w3.org/2001/xml-events" xmlns:xlink="http://www.w3.org/1999/xlink">
	<defs/>
	<path d="M48,158c0,9.48447 -8.08169,79.91831 -7,81c0.45818,0.45818 18.17922,-1 19,-1c6.10078,0 17.96669,2.0111 24,0c1.61245,-0.53748 -0.8123,-3.31072 -1,-5c-0.78645,-7.07802 -1,-13.8098 -1,-21c0,-7.57058 0.79693,-55.13538 -8,-61c-4.53581,-3.02387 -23.89807,1 -29,1c-3.68179,0 -11,-2.68179 -11,1" fill="none" stroke="black" stroke-linecap="round" stroke-width="5"/>
	<path d="M70,176c9.90413,0 61.42069,-1.57931 65,2c1.47903,1.47903 -0.19556,11.8488 0,14c0.28396,3.12359 4.68231,16.31769 2,19c-3.32219,3.32219 -25.63869,-3.99354 -30,-5c-9.38074,-2.16479 -22.30243,1.34878 -31,-3c-2.81267,-1.40633 4.06203,-4.99848 5,-8c3.06916,-9.82132 3,-20.82547 3,-31" fill="none" stroke="black" stroke-linecap="round" stroke-width="5"/>
	<path d="M126,141c11.49827,22.99654 5.20517,54.6155 14,81c0.47506,1.42517 -1.8915,7.77713 -1,8c9.92494,2.48124 20.8787,1.73484 31,3c10.21525,1.27691 4.57241,0.12183 1,-10c-4.32633,-12.25792 -6.70336,-24.7239 -11,-37c-1.768,-5.05142 -7.61741,-39.61741 -9,-41c-2.92493,-2.92493 -49.97649,-6 -56,-6" fill="none" stroke="black" stroke-linecap="round" stroke-width="5"/>
	<path d="M38,144c33.72658,0 69.11744,-7.74116 103,-10c5.68616,-0.37908 38.13245,4.93378 40,4c7.10138,-3.55069 11.56663,-18.56243 15,-25c3.18723,-5.97606 5.53409,-12.22349 9,-18c0.54233,-0.90388 2.02262,-2.74435 1,-3c-13.37829,-3.34457 -84.09271,-5.83065 -94,-3c-12.88721,3.68206 -24.46691,12.12602 -37,17c-10.44326,4.06127 -21.20493,7.55829 -31,13c-1.03771,0.5765 -16.23965,16 -11,16" fill="none" stroke="black" stroke-linecap="round" stroke-width="5"/>
</svg>
