<?xml version="1.0" ?>
<svg baseProfile="full" height="300" version="1.1" viewBox="[0, 0, 300, 300]" width="300" xmlns="http://www.w3.org/2000/svg" xmlns:ev="http://www.w3.org/2001/xml-events" xmlns:xlink="http://www.w3.org/1999/xlink">
	<defs/>
	<path d="M170,45c-33.25042,0 -59.87364,0.57473 -92,7c-5.45122,1.09024 -26.93702,10.12596 -23,18c16.13254,32.26509 106.35882,14.70229 137,13c8.59827,-0.47768 18.51235,1.54321 27,0c5.11646,-0.93026 7.29911,-4.03928 11,-7c18.08802,-14.47041 -28.01577,-27.00394 -40,-30c-9.3421,-2.33552 -23.38882,-3 -33,-3" fill="none" stroke="black" stroke-linecap="round" stroke-width="5"/>
	<path d="M155,56c-5.33333,0 -10.66667,0 -16,0c-8.46374,0 -14.60941,0.3047 -22,4c-2.25124,1.12562 5.54759,4.78966 7,6c13.40924,11.17437 34.55486,3 51,3c3.33333,0 10,0 10,0c0,0 -2.66667,-0.66667 -4,-1c-8.05944,-2.01486 -23.24643,-11 -30,-11c-4.46708,0 -10.40266,3.23378 -15,4" fill="none" stroke="black" stroke-linecap="round" stroke-width="5"/>
</svg>
