<?xml version="1.0" ?>
<svg baseProfile="full" height="300" version="1.1" viewBox="[0, 0, 300, 300]" width="300" xmlns="http://www.w3.org/2000/svg" xmlns:ev="http://www.w3.org/2001/xml-events" xmlns:xlink="http://www.w3.org/1999/xlink">
	<defs/>
	<path d="M91,83c-3.81316,3.81316 -7.31337,8.31337 -11,12c-15.05123,15.05123 17.49877,-14.61743 31,-17c28.17934,-4.97282 69.80905,11 95,11" fill="none" stroke="black" stroke-linecap="round" stroke-width="5"/>
	<path d="M103,81c2.93213,17.59281 8.1989,33.98898 10,52c0.33501,3.35006 -0.49714,25.98855 2,16" fill="none" stroke="black" stroke-linecap="round" stroke-width="5"/>
	<path d="M145,71c4.99377,9.98755 12,64.71539 12,78" fill="none" stroke="black" stroke-linecap="round" stroke-width="5"/>
	<path d="M96,154c10.79353,-5.39677 32.03746,-4 44,-4c8.05319,0 34.34072,-3.99446 41,1c11.60128,8.70096 18.35736,24.3931 28,35c4.04752,4.45228 13,9.37237 13,17c0,1.33333 -2.66667,0 -4,0c-10.40304,0 -20.61869,-1 -31,-1c-9.33333,0 -18.66667,0 -28,0c-3.34996,0 -10,4.34996 -10,1c0,-2.02759 1.71193,-4.10151 1,-6c-1.02288,-2.72767 -43.08193,-45 -51,-45" fill="none" stroke="black" stroke-linecap="round" stroke-width="5"/>
	<path d="M93,157c-0.33333,1 -0.79328,1.96638 -1,3c-0.46225,2.31125 -0.68849,4.66365 -1,7c-0.35518,2.66384 -0.53297,5.35347 -1,8c-5.43589,30.80336 -14.49488,33.92386 12,38c2.32961,0.3584 5.33333,2.66667 7,1c1.66667,-1.66667 -0.25464,-4.76393 -1,-7c-5.8402,-17.5206 -6,-33.86203 -6,-52" fill="none" stroke="black" stroke-linecap="round" stroke-width="5"/>
	<path d="M103,180c2.16824,-2.16824 31.07127,8.78618 27,21c-1.66339,4.99017 -21.11357,-8 -25,-8" fill="none" stroke="black" stroke-linecap="round" stroke-width="5"/>
	<path d="M125,184c4.47416,8.94832 2.25252,30.97983 1,41c-0.25149,2.01193 -1,6 -1,6c0,0 7.97971,-2.44895 10,-2c1.83555,0.4079 9.93248,5.03376 12,4c0.42164,-0.21082 0.85093,-0.55279 1,-1c2.27235,-6.81705 -2,-16.13591 -2,-23c0,-3.79395 2.58626,-18.55166 0,-22c-4.38786,-5.85048 -13.40536,-8.11582 -20,-10c-3.98503,-1.13858 -6,-2.57494 -6,1" fill="none" stroke="black" stroke-linecap="round" stroke-width="5"/>
</svg>
