<?xml version="1.0" ?>
<svg baseProfile="full" height="300" version="1.1" viewBox="[0, 0, 300, 300]" width="300" xmlns="http://www.w3.org/2000/svg" xmlns:ev="http://www.w3.org/2001/xml-events" xmlns:xlink="http://www.w3.org/1999/xlink">
	<defs/>
	<path d="M107,157c0,26.07024 -14.09738,50.45131 9,62c8.59049,4.29525 -8.58204,25.25387 -8,27c2.85769,8.57307 13.70091,20.67523 23,23c1.96705,0.49176 5.35882,2.92354 6,1c2.39162,-7.17486 -3.34566,-18.30868 0,-25c1.13348,-2.26697 7.48781,-11.02438 6,-14c-1.49125,-2.9825 -6,-4.31751 -6,-7c0,-0.94832 -0.60389,-5.39611 0,-6c10.21045,-10.21045 6,-32.25298 6,-50c0,-4.09355 2.42085,-16.15829 1,-19c-0.23493,-0.46986 -5.92464,1.98923 -6,2c-14.94356,2.13479 -30.8247,2 -46,2" fill="none" stroke="black" stroke-linecap="round" stroke-width="5"/>
	<path d="M57,113c0,4.85346 14.00633,13.73418 17,17c6.46523,7.05298 13.77425,14.77425 20,21c2.70786,2.70786 72.061,2.74147 89,5c7.89365,1.05249 45.29341,7.70659 48,5c3.59917,-3.59917 -18.69287,-16.12858 -20,-17c-10.16048,-6.77365 -18.69775,-14.49626 -25,-25c-6.12397,-10.20661 -10.91977,-30.27985 -21,-37c-4.09338,-2.72892 -24.76951,5.38465 -30,6c-10.31289,1.21328 -58.60232,5.86744 -65,8c-5.08774,1.69591 -10.55031,5 -16,5" fill="none" stroke="black" stroke-linecap="round" stroke-width="5"/>
</svg>
