<?xml version="1.0" ?>
<svg baseProfile="full" height="300" version="1.1" viewBox="[0, 0, 300, 300]" width="300" xmlns="http://www.w3.org/2000/svg" xmlns:ev="http://www.w3.org/2001/xml-events" xmlns:xlink="http://www.w3.org/1999/xlink">
	<defs/>
	<path d="M73,141c6.86259,0 95.50397,-0.49603 96,0c5.88193,5.88193 12.62632,12.64929 18,19c7.17982,8.48524 14.14737,18.14737 22,26c0.66667,0.66667 2.66667,1.33333 2,2c-5.20943,5.20943 -31.34766,1 -38,1c-11.2481,0 -56.10471,2.9651 -65,0c-13.63073,-4.54358 -33.19156,-36.38313 -40,-50" fill="none" stroke="black" stroke-linecap="round" stroke-width="5"/>
	<path d="M103,193c0,13.45853 -7.30603,29.77588 -4,43c0.48507,1.94029 4,0 6,0c5.0111,0 10.02322,0.4145 15,1c4.64651,0.54665 14,5.67856 14,1c0,-12.60002 -7.34021,-27.58765 -10,-40c-0.48262,-2.25224 -5,-28.46077 -5,-19" fill="none" stroke="black" stroke-linecap="round" stroke-width="5"/>
	<path d="M68,143c0,11.74685 0.38508,23.31648 1,35c0.62421,11.85999 0.68551,23.16961 2,35c0.15142,1.3628 1,4 1,4c0,0 -12.15768,-0.10529 -13,0c-6.30712,0.78839 -14.98675,3.00662 -21,0c-1.07497,-0.53748 1.52657,-1.89533 2,-3c4.22501,-9.85835 5.08199,-20.44287 6,-31c0.18072,-2.07833 5.45009,-44 11,-44" fill="none" stroke="black" stroke-linecap="round" stroke-width="5"/>
	<path d="M73,178c5.39388,2.69694 7.89464,6.28651 14,9c6.65135,2.95616 17.67201,5.67201 23,11c3.43862,3.43862 -3.67185,19.32815 -4,19c-5.11639,-5.11639 -30.59002,-18 -40,-18" fill="none" stroke="black" stroke-linecap="round" stroke-width="5"/>
	<path d="M83,130c10.26444,-30.79332 6,-66.22251 6,-98" fill="none" stroke="black" stroke-linecap="round" stroke-width="5"/>
	<path d="M157,132c13.20452,-6.60226 -3,-62.01547 -3,-78" fill="none" stroke="black" stroke-linecap="round" stroke-width="5"/>
	<path d="M181,46c-13.00111,-13.00111 -81.64302,-24.21419 -97,-15c-10.20392,6.12235 -18.4015,14.13383 -30,18c-4.16569,1.38856 -7.91569,3.63856 -12,5c-0.44721,0.14907 -1.43769,1.17508 -1,1c34.94423,-13.97769 109.13526,-34.86474 140,-4" fill="none" stroke="black" stroke-linecap="round" stroke-width="5"/>
</svg>
