<?xml version="1.0" ?>
<svg baseProfile="full" height="300" version="1.1" viewBox="[0, 0, 300, 300]" width="300" xmlns="http://www.w3.org/2000/svg" xmlns:ev="http://www.w3.org/2001/xml-events" xmlns:xlink="http://www.w3.org/1999/xlink">
	<defs/>
	<path d="M87,70c0,50.94606 1.94484,84.01839 65,63c7.05691,-2.3523 21.6097,0.3903 27,-5c5.35127,-5.35127 -6.35935,-31.23419 -7,-37c-1.27885,-11.50968 -0.07299,-32.07299 -9,-41c-3.10478,-3.10478 -11.13636,-0.71212 -15,-2c-6.36837,-2.12279 -15.72514,-1.50995 -22,1c-14.77534,5.91014 -29.56944,7.87698 -44,12c-0.43507,0.12431 -7,2 -7,2c0,0 2.58979,1.58979 3,2c4.86482,4.86482 8,9.20361 8,16" fill="none" stroke="black" stroke-linecap="round" stroke-width="5"/>
	<path d="M172,40c0,4.49472 -4.00356,13.02135 -5,19c-1.04426,6.26557 3,27.78663 3,20" fill="none" stroke="black" stroke-linecap="round" stroke-width="5"/>
	<path d="M168,38c-11.31116,0 -21.9586,-5.40828 -34,-3c-15.672,3.1344 -35.30613,9.46123 -53,13c-3.54189,0.70838 -11.39315,0.39315 -14,3c-1.31807,1.31807 10.80881,22.61761 13,27c8.62922,17.25844 6.13985,41.69927 10,61c3.07852,15.39261 3.60435,40.37388 1,56c-2.58363,15.50176 -15.95217,28.03188 2,40c28.71469,19.14313 2.72756,-70 29,-70c1.3085,0 6.24226,0.24226 7,1c13.76211,13.76211 -7.97981,85.9899 16,74c5.05565,-2.52783 3,-62.14289 3,-75" fill="none" stroke="black" stroke-linecap="round" stroke-width="5"/>
</svg>
