<?xml version="1.0" ?>
<svg baseProfile="full" height="300" version="1.1" viewBox="[0, 0, 300, 300]" width="300" xmlns="http://www.w3.org/2000/svg" xmlns:ev="http://www.w3.org/2001/xml-events" xmlns:xlink="http://www.w3.org/1999/xlink">
	<defs/>
	<path d="M106,159c0,12.64453 2.37733,29.24534 -3,40c-0.29814,0.59628 -0.29814,1.40372 0,2c0.50187,1.00374 20.3607,10.6393 15,16c-4.4485,4.4485 -10.68386,11.02579 -14,16c-1.33333,2 -6.58298,1.66807 -6,4c1.37778,5.51113 35.86232,23.71256 44,21c0.82107,-0.27369 4.54312,-15.62936 5,-17c2.70288,-8.10865 15,-16.34013 15,-25c0,-2 -4,0 -6,0c-4.2188,0 -18.18274,-0.18274 -21,-3c-0.60483,-0.60483 1.88059,-3.52237 2,-4c2.80018,-11.20071 3.76308,-38.85538 -3,-49c-3.19924,-4.79886 -28.83719,0 -37,0c-0.4714,0 -1,0.5286 -1,1" fill="none" stroke="black" stroke-linecap="round" stroke-width="5"/>
	<path d="M69,132c12.39554,12.39554 28.98541,29.74635 46,34c11.84429,2.96107 30.20782,-7 43,-7c8.79789,0 34.75699,4.82867 42,0c1.53685,-1.02456 -2.49006,-6.10761 -3,-7c-12.92659,-22.62153 -35.84751,-37.94168 -53,-57c-1.60799,-1.78666 -2.30033,-4.30033 -4,-6c-3.53553,-3.53553 -7.73359,6.39275 -12,9c-14.46521,8.83985 -41.32995,30 -59,30" fill="none" stroke="black" stroke-linecap="round" stroke-width="5"/>
</svg>
