<?xml version="1.0" ?>
<svg baseProfile="full" height="300" version="1.1" viewBox="[0, 0, 300, 300]" width="300" xmlns="http://www.w3.org/2000/svg" xmlns:ev="http://www.w3.org/2001/xml-events" xmlns:xlink="http://www.w3.org/1999/xlink">
	<defs/>
	<path d="M62,188c13.60916,13.60916 33.47405,34.23702 51,43c1.33333,0.66667 2.8548,-1.04567 4,-2c14.98093,-12.48411 42.51887,-11.83962 61,-18c5.25229,-1.75076 32.37912,-2.75824 34,-6c4.07546,-8.15092 -20.0833,-21.7222 -25,-25c-12.77315,-8.51544 -20.68637,-21.68637 -31,-32c-1.20185,-1.20185 -3.44682,0.3097 -5,1c-11.61346,5.16154 -24.63027,5.7014 -37,9c-16.77561,4.4735 -31.55846,15.88961 -48,20c-5.32279,1.3307 -10.80406,2.26802 -16,4c-0.59185,0.19728 -9.40427,2.79787 -9,3c1.62658,0.81329 5.7242,0.2758 7,-1" fill="none" stroke="black" stroke-linecap="round" stroke-width="5"/>
	<path d="M50,185c0,17.38654 -23.68816,69.62368 -15,87c0.44566,0.89133 11.11846,-2.26879 13,-2c1.79944,0.25706 10.06281,4.40579 11,3c0.5547,-0.83205 0,-2 0,-3c0,-27.10855 6,-53.3455 6,-80" fill="none" stroke="black" stroke-linecap="round" stroke-width="5"/>
	<path d="M68,227c11.21689,0 29.68681,8.22894 41,12c2.30217,0.76739 -1.41144,4.64575 -2,7c-0.82446,3.29785 1.2249,8.92503 -2,10c-0.94868,0.31623 -2.02381,0.21693 -3,0c-9.12738,-2.02831 -16.28197,-8.82981 -25,-12c-1.79437,-0.6525 -32.40757,-4 -18,-4" fill="none" stroke="black" stroke-linecap="round" stroke-width="5"/>
	<path d="M113,226c-5.16614,0 -5,25.27198 -5,29c0,8.24883 -4.07817,30.09218 5,31c1.28615,0.12861 11.74321,3.25679 13,2c7.67984,-7.67984 -7,-54.67053 -7,-67" fill="none" stroke="black" stroke-linecap="round" stroke-width="5"/>
	<path d="M205,209c0,18.83743 -2.28893,39.17827 -4,58c-0.24331,2.67638 -1.54951,8.84984 1,8c19.03326,-6.34442 7.67755,-26.86941 6,-47c-0.45224,-5.42689 -3,-25.44024 -3,-24" fill="none" stroke="black" stroke-linecap="round" stroke-width="5"/>
	<path d="M210,98c-24.06293,-24.06293 -72.85154,-41.50722 -107,-31c-13.94201,4.28985 -24.3741,14.9513 -36,23c-0.31608,0.21882 -19.10765,12.05382 -11,8" fill="none" stroke="black" stroke-linecap="round" stroke-width="5"/>
	<path d="M80,82c-3.77091,18.85456 -2.26421,38.86936 -3,58c-0.31467,8.18138 -0.94974,11.64816 -2,19c-0.61464,4.30245 -1.85235,17.26174 -1,13c0.46225,-2.31125 0.66667,-4.66667 1,-7" fill="none" stroke="black" stroke-linecap="round" stroke-width="5"/>
	<path d="M98,82c0,19.80616 -2,39.99446 -2,60c0,1.61138 1,40.01057 1,29" fill="none" stroke="black" stroke-linecap="round" stroke-width="5"/>
	<path d="M130,88c-1.33333,0.66667 -1.83538,2.51841 -2,4c-1.15224,10.37017 10.22085,147.32509 -3,68" fill="none" stroke="black" stroke-linecap="round" stroke-width="5"/>
	<path d="M141,70c6.93444,20.80332 8.54489,45.17333 10,67c0.45186,6.77794 -1.52204,11.59549 -3,18c-0.61808,2.67835 -2,10.74874 -2,8c0,-8.81394 4.5446,-18.4061 7,-27" fill="none" stroke="black" stroke-linecap="round" stroke-width="5"/>
	<path d="M181,84c0,22.08021 -4,43.89488 -4,66c0,2.36011 7,38.18474 7,24" fill="none" stroke="black" stroke-linecap="round" stroke-width="5"/>
</svg>
