<?xml version="1.0" ?>
<svg baseProfile="full" height="300" version="1.1" viewBox="[0, 0, 300, 300]" width="300" xmlns="http://www.w3.org/2000/svg" xmlns:ev="http://www.w3.org/2001/xml-events" xmlns:xlink="http://www.w3.org/1999/xlink">
	<defs/>
	<path d="M69,158c10.4223,0 12.22,1.61 19,5c0.16912,0.08456 -3.02269,13.32577 8,17c18.71165,6.23722 106.78652,-0.78652 119,-13c0.66445,-0.66445 -4.43122,-4.86244 -5,-6c-4.3411,-8.6822 -11.24028,-11.24028 -16,-16c-1.48757,-1.48757 -1.59736,-7.59736 -3,-9c-9.12643,-9.12643 -45.21587,5 -57,5c-16.7464,0 -34.16548,0.58274 -49,8c-2.27534,1.13767 -3.13233,-3.43384 -6,-2c-2.80066,1.40033 0,4.66581 0,6c0,0.15536 -5.10326,-2.55163 -6,-3c-1.57492,-0.78746 -1,1.29664 -1,2" fill="none" stroke="black" stroke-linecap="round" stroke-width="5"/>
	<path d="M72,154c-3.71891,9.29727 -11.68688,60.31312 -7,65c2.14629,2.14629 3.4289,-2.14334 4,-3c6.95698,-10.43547 7.01488,-51 18,-51" fill="none" stroke="black" stroke-linecap="round" stroke-width="5"/>
	<path d="M102,182c0,7.77917 5.65896,22.02312 3,30c-0.68164,2.04491 -5.69845,22.15077 -4,23c9.61408,4.80704 18,-18.50417 18,-25c0,-14.33532 2.74663,-53.25337 -5,-61c-2.50275,-2.50275 -6.04556,-3.03417 -10,-6c-4.17464,-3.13098 -31.6622,-25.3378 -37,-20c-1.30103,1.30103 -2.36863,15.63137 -1,17c7.24635,7.24635 22.51829,4.51829 31,13c2.80446,2.80446 9,45.5429 9,50" fill="none" stroke="black" stroke-linecap="round" stroke-width="5"/>
	<path d="M162,123c15.68785,15.68785 26.80803,40.84816 31,66c1.21447,7.28684 -7.40166,26.59834 -1,33c1.17232,1.17232 2.78312,-0.56623 3,-1c4.59139,-9.18279 8.39635,-14.7927 13,-24c3.96971,-7.93942 -0.82795,-58.6559 -5,-67c-5.86,-11.72001 -24.46004,-27.63499 -39,-24c-10.67842,2.66961 -2,13.82305 -2,13" fill="none" stroke="black" stroke-linecap="round" stroke-width="5"/>
	<path d="M83,122c25.74853,0 53.13455,-15.14424 78,-11c0.02491,0.00415 6.07259,1.92741 7,1c0.4714,-0.4714 0.29814,-1.40372 0,-2c-4.45979,-8.91958 2.63341,-28.36659 -5,-36c-10.83395,-10.83395 -35.09088,-26.22728 -52,-22c-0.15465,0.03866 0.08165,2.75505 0,3c-4.17515,12.52544 -18.72976,15.45953 -25,28c-1.51927,3.03855 -11,43.18978 -11,46c0,1.66667 1.17851,-3.82149 0,-5c-1.97915,-1.97915 -1,-9.27767 -1,-13" fill="none" stroke="black" stroke-linecap="round" stroke-width="5"/>
	<path d="M144,114c0,6.50483 3,31.48015 3,22" fill="none" stroke="black" stroke-linecap="round" stroke-width="5"/>
	<path d="M151,183c0,6.82416 -3.1374,23.1374 3,17c6.14361,-6.14361 8,-18.60681 8,-27" fill="none" stroke="black" stroke-linecap="round" stroke-width="5"/>
</svg>
