<?xml version="1.0" ?>
<svg baseProfile="full" height="300" version="1.1" viewBox="[0, 0, 300, 300]" width="300" xmlns="http://www.w3.org/2000/svg" xmlns:ev="http://www.w3.org/2001/xml-events" xmlns:xlink="http://www.w3.org/1999/xlink">
	<defs/>
	<path d="M89,138c-11.08145,0 -13.69536,14.15232 -4,19c6.14299,3.07149 14.14969,-13.85031 25,-3c8.79833,8.79833 -5.43687,33.56313 5,44c4.04366,4.04366 46.10851,-1.70284 53,-4c5.24143,-1.74714 28.52809,-20.05618 32,-27c13.50664,-27.01327 -35.10023,-17.10023 -39,-21c-4.1883,-4.1883 -0.98301,-13.98301 -3,-16c-9.91106,-9.91106 -32.2421,-5.93947 -44,-3c-11.70165,2.92541 -21.30678,6.30678 -28,13c-0.5948,0.5948 -18.12776,5.87224 -17,7c1.20009,1.20009 1,-5.23793 1,-6c0,-5.33333 0,-10.66667 0,-16c0,-13.87228 1.15381,-27.15431 0,-41c-0.2234,-2.68079 0,-13.59514 0,-13" fill="none" stroke="black" stroke-linecap="round" stroke-width="5"/>
	<path d="M82,72c0,22.65279 8,44.53976 8,67" fill="none" stroke="black" stroke-linecap="round" stroke-width="5"/>
	<path d="M102,73c0,15.68059 0,34.29883 0,48" fill="none" stroke="black" stroke-linecap="round" stroke-width="5"/>
	<path d="M120,80c0,11.66667 0,23.33333 0,35c0,3.51337 2,17.98668 2,14" fill="none" stroke="black" stroke-linecap="round" stroke-width="5"/>
	<path d="M134,76c0,13.6162 -2,33.20654 -2,49c0,8.79577 1,5.38965 1,-1" fill="none" stroke="black" stroke-linecap="round" stroke-width="5"/>
	<path d="M143,74c0,2.64645 -1,8.82556 -1,13c0,4.39967 -0.97733,34 1,34" fill="none" stroke="black" stroke-linecap="round" stroke-width="5"/>
	<path d="M156,82c0,-0.57969 0.4205,10.05647 0,13c-1.31936,9.23549 -7.01,44.99 -8,44" fill="none" stroke="black" stroke-linecap="round" stroke-width="5"/>
	<path d="M109,80c0,15.01527 3,31.32063 3,46" fill="none" stroke="black" stroke-linecap="round" stroke-width="5"/>
	<path d="M89,76c0,9.20877 6.38298,17.46806 4,27c-3.718,14.87202 -5,29.44346 -5,45" fill="none" stroke="black" stroke-linecap="round" stroke-width="5"/>
	<path d="M107,190c0,6.99071 2.44579,19.32527 1,28c-1.50685,9.04111 -6.83776,16.70205 -8,26c-0.00824,0.0659 -1,11 -1,11c0,0 2.75329,-2.75329 3,-3c15.14935,-15.14935 8.96129,-34.88386 15,-53c0.59209,-1.77626 2.7843,-5 1,-5" fill="none" stroke="black" stroke-linecap="round" stroke-width="5"/>
	<path d="M105,219c-3.16848,0 -14.49445,-14.76919 -18,-17c-1.5912,-1.01258 -17.25702,-8.22895 -17,-9c2.70718,-8.12155 14.21075,-2 23,-2c1.94439,0 4,0.55152 4,-2" fill="none" stroke="black" stroke-linecap="round" stroke-width="5"/>
	<path d="M70,143c0,22.19525 -6.05157,47.4126 -9,71c-0.62072,4.96579 -6,7.63527 -6,12c0,1.029 -0.71802,7.28198 0,8c1.7901,1.7901 7.79732,-0.79732 9,-2c4.92089,-4.92089 5.62851,-36.46653 11,-49c3.52676,-8.2291 -3,-19.78715 -3,-28" fill="none" stroke="black" stroke-linecap="round" stroke-width="5"/>
	<path d="M112,219c20.12959,0 34.87007,-10.43503 52,-19c0.30234,-0.15117 5.76481,-1.23519 6,-1c8.57865,8.57865 -0.88261,11.82614 -2,23c-0.44252,4.42515 -0.14466,16.14466 3,13c6.44355,-6.44355 -1.52797,-20.45338 3,-28c2.27597,-3.79329 13.18213,-31 7,-31" fill="none" stroke="black" stroke-linecap="round" stroke-width="5"/>
	<path d="M74,74c0,-9.67172 36.11387,5.01898 42,6c9.97489,1.66248 36.39263,7.21474 41,-2c1.50768,-3.01535 20.55354,1.48215 25,0c3.80789,-1.2693 -5.66026,-5.77351 -9,-8c-4.09369,-2.72912 -14.91303,-10.559 -18,-11c-1.10025,-0.15718 -8.8721,1.1279 -10,0c-3.52776,-3.52776 -12.31649,-5.47474 -16,-11c-2.7406,-4.1109 7.24154,-20.08051 -2,-17c-12.25155,4.08385 -28.00824,-1.99725 -40,2c-0.11538,0.03846 0,2.76923 0,3c0,5.11159 -3.63504,6.45982 -2,13c0.40423,1.6169 4.17851,2.82149 3,4c-0.4714,0.4714 -1.5286,0.4714 -2,0c-3.34719,-3.34719 -17.12997,4.12997 -20,7c-1.08021,1.08021 1.9435,2.9435 2,3c0.44503,0.44503 -4.80234,6.86042 -4,9c2.6051,6.94694 5.73226,9 13,9" fill="none" stroke="black" stroke-linecap="round" stroke-width="5"/>
</svg>
