<?xml version="1.0" ?>
<svg baseProfile="full" height="300" version="1.1" viewBox="[0, 0, 300, 300]" width="300" xmlns="http://www.w3.org/2000/svg" xmlns:ev="http://www.w3.org/2001/xml-events" xmlns:xlink="http://www.w3.org/1999/xlink">
	<defs/>
	<path d="M93,179c0,6.68252 7.36004,6.90669 12,10c8.65379,5.7692 10.306,11.153 20,16c7.82054,3.91027 16.83121,-3.9156 23,-7c5.15509,-2.57755 14.86067,0.04644 21,-2c8.35306,-2.78435 26,3.74094 26,-4c0,-1.05409 0.5286,-2.05719 1,-3c0.29814,-0.59628 0.3698,-1.4453 0,-2c-11.86214,-17.7932 -15.17447,-13.72482 -34,-20c-5.10952,-1.70317 -7.46754,-7.23377 -13,-10c-1.36132,-0.68066 -21.34751,4 -26,4c-6.4546,0 -37,-0.90758 -37,9" fill="none" stroke="black" stroke-linecap="round" stroke-width="5"/>
	<path d="M86,170c0,12.70137 -1,25.46707 -1,38c0,1.24095 1,6 1,6c0,0 -2.24242,18.75758 0,21c0.50225,0.50225 2,7 2,7c0,0 1.33333,-3.33333 2,-5c0.24759,-0.61898 -0.29814,-1.40372 0,-2c6.51932,-13.03865 7.82608,-25.3043 11,-38c0.2812,-1.12479 0.7986,-6 -1,-6" fill="none" stroke="black" stroke-linecap="round" stroke-width="5"/>
	<path d="M128,205c0,8.03368 -0.42199,15.10994 -2,23c-0.59197,2.95985 -0.3499,6.30021 1,9c6.16508,12.33015 10,-24.07352 10,-33" fill="none" stroke="black" stroke-linecap="round" stroke-width="5"/>
	<path d="M191,196c0,14.90479 -5,27.38352 -5,41c0,0.55344 -0.57116,4.57116 -1,5c-9.48583,9.48583 -5,-31.30972 -5,-39" fill="none" stroke="black" stroke-linecap="round" stroke-width="5"/>
	<path d="M84,166c0,-11.14084 10.11062,-27.66815 6,-40c-2.9394,-8.81821 0,-16.99642 0,-24c0,-1.66667 -1.66667,-5 0,-5c1.97673,0 1.9846,4.9846 3,6" fill="none" stroke="black" stroke-linecap="round" stroke-width="5"/>
	<path d="M99,96c0,12.00127 3.46034,29.61897 0,40c-2.28908,6.86725 -6,14.71705 -6,23" fill="none" stroke="black" stroke-linecap="round" stroke-width="5"/>
	<path d="M140,105c5.34311,5.34311 3.05708,27.88584 0,34c-1.00527,2.01053 0,16.39713 0,12" fill="none" stroke="black" stroke-linecap="round" stroke-width="5"/>
	<path d="M133,105c0,14.2998 2.05124,39.89751 -4,52" fill="none" stroke="black" stroke-linecap="round" stroke-width="5"/>
	<path d="M121,104c0,17.80504 -1,36.96342 -1,54c0,8.97278 -3,-1.98081 -3,-6" fill="none" stroke="black" stroke-linecap="round" stroke-width="5"/>
	<path d="M111,103c0,14 0,28 0,42c0,1.3557 2.28097,5.71903 1,7c-2.38148,2.38148 -5,10.42313 -5,15c0,1.79505 -1.19723,-3.39445 -2,-5" fill="none" stroke="black" stroke-linecap="round" stroke-width="5"/>
	<path d="M88,93c16.36541,0 24.76306,-4 42,-4c9.06607,0 15.80567,6.19433 19,3c1.15317,-1.15317 4.42724,-12.57276 2,-15c-0.70711,-0.70711 -5.88924,0 -7,0c-18.99779,0 -34.49407,5.94941 -55,8c-3.64847,0.36485 -7.33333,0 -11,0c-1.20202,0 -5.02203,0.02203 -6,1c-0.63633,0.63633 2.75329,2.75329 3,3c2.35031,2.35031 8.40493,8.80164 12,10c9.71745,3.23915 8,-6.40169 8,-6" fill="none" stroke="black" stroke-linecap="round" stroke-width="5"/>
</svg>
