<?xml version="1.0" ?>
<svg baseProfile="full" height="300" version="1.1" viewBox="[0, 0, 300, 300]" width="300" xmlns="http://www.w3.org/2000/svg" xmlns:ev="http://www.w3.org/2001/xml-events" xmlns:xlink="http://www.w3.org/1999/xlink">
	<defs/>
	<path d="M78,151c1.69622,0 4.09305,9.18609 5,11c1.13985,2.27971 10.34883,5.34883 12,7c4.77222,4.77222 -9.89787,24.51065 -8,34c0.68879,3.44394 22.45988,3.18816 25,3c24.11022,-1.78594 26.35229,-1.90153 43,-13c3.62466,-2.41644 13.09154,1.90846 16,-1c3.58371,-3.58371 5.828,-8.828 9,-12c10.58673,-10.58673 -23.30894,-16.30894 -26,-19c-2.87326,-2.87326 7.87234,-19.12766 4,-23c-2.5161,-2.5161 -9.07203,-6.03602 -13,-8c-4.57436,-2.28718 -37.83669,-0.32661 -41,6c-1.30234,2.60468 -1.00749,9.50375 -4,11c-4.89215,2.44608 -21.27238,1.72762 -20,3c1.32617,1.32617 -2.03205,-4.03205 -3,-5c-0.0122,-0.0122 -0.61257,-11.90057 -1,-15c-1.32295,-10.58358 3,-29.22699 3,-35" fill="none" stroke="black" stroke-linecap="round" stroke-width="5"/>
	<path d="M90,99c0.68998,8.96975 3.32668,22.12884 0,31c-0.13661,0.36431 -4.18014,9 -1,9" fill="none" stroke="black" stroke-linecap="round" stroke-width="5"/>
	<path d="M100,92c0,14.44404 1,29.88537 1,45c0,1.28465 0.0109,6 2,6c0.91835,0 -3,-8.41608 -3,-9" fill="none" stroke="black" stroke-linecap="round" stroke-width="5"/>
	<path d="M105,95c0,10.2758 13.68531,25.42655 16,37c0.27055,1.35276 2,6 2,6c0,0 -0.75655,-5 1,-5" fill="none" stroke="black" stroke-linecap="round" stroke-width="5"/>
	<path d="M128,91c0,13.39616 -2,23.76229 -2,36" fill="none" stroke="black" stroke-linecap="round" stroke-width="5"/>
	<path d="M136,92c0,-5.04425 2,9.95575 2,15c0,4.33051 -2.4821,29.4821 -5,32" fill="none" stroke="black" stroke-linecap="round" stroke-width="5"/>
	<path d="M91,202c0,19.35366 -5,39.62331 -5,59c0,0.33333 0,-0.66667 0,-1c0,-3.91106 8.26732,-12.2244 10,-18c0.66353,-2.21177 3.31532,-34 4,-34" fill="none" stroke="black" stroke-linecap="round" stroke-width="5"/>
	<path d="M86,222c-5.40004,0 -12.78536,-20 -21,-20" fill="none" stroke="black" stroke-linecap="round" stroke-width="5"/>
	<path d="M74,158c0,23.89535 -13,45.38617 -13,69c0,1.02612 -3,8 -3,8c0,0 0,-9.91757 0,-11c0,-7.67281 8.11185,-10.22371 11,-16c1.86667,-3.73333 -1.86667,-10.26667 0,-14c4.93859,-9.87718 8.36539,-22.36539 17,-31" fill="none" stroke="black" stroke-linecap="round" stroke-width="5"/>
	<path d="M171,192c2.12695,0 1,4.19664 1,6c0,6.24523 -3.71765,75.84705 -12,51c-1.55711,-4.67134 -1.47927,-11.72805 -1,-17c0.55071,-6.05778 2.28928,-11.9589 3,-18c0.89836,-7.63606 -3.15292,-13.69417 0,-20" fill="none" stroke="black" stroke-linecap="round" stroke-width="5"/>
	<path d="M159,215c-8.4476,0 -12.97361,-20 -18,-20" fill="none" stroke="black" stroke-linecap="round" stroke-width="5"/>
	<path d="M101,223c3.89963,0 12.90477,-5.96826 16,-7c6.03607,-2.01202 34,0.1693 34,-7" fill="none" stroke="black" stroke-linecap="round" stroke-width="5"/>
	<path d="M66,92c25.90793,0 51.43079,-4 76,-4c2.9535,0 7.34866,-0.65134 5,-3c-2.36933,-2.36933 3.94251,-5.05749 3,-6c-5.86836,-5.86836 -23.07895,-0.07895 -29,-6c-4.60709,-4.60709 -1.38113,-8.38113 -6,-13c-5.58827,-5.58827 -16.56689,2.14172 -20,3c-6.90069,1.72517 -15.01769,-1.39646 -22,0c-0.19945,0.03989 0,6.39085 0,7c0,9.4062 -4.75783,5.75783 -10,11c-4.60454,4.60454 7.03313,11.98343 13,9" fill="none" stroke="black" stroke-linecap="round" stroke-width="5"/>
</svg>
