<?xml version="1.0" ?>
<svg baseProfile="full" height="300" version="1.1" viewBox="[0, 0, 300, 300]" width="300" xmlns="http://www.w3.org/2000/svg" xmlns:ev="http://www.w3.org/2001/xml-events" xmlns:xlink="http://www.w3.org/1999/xlink">
	<defs/>
	<path d="M81,136c0,2.54961 -17.10862,8.89138 -10,16c8.11321,8.11321 13.51867,10.03734 19,21c1.64033,3.28065 -9.69564,20.30436 -4,26c20.10228,20.10228 95.06733,-12.13467 104,-30c6.44397,-12.88793 -35.75958,-15.75958 -38,-18c-6.19601,-6.19601 3.92887,-17.07113 -2,-23c-1.90467,-1.90467 -15.31151,0 -18,0c-5.04425,0 -11.43318,-5.56682 -15,-2c-1.53803,1.53803 -6.96213,3.8608 -10,5c-7.1239,2.67146 -15.18475,3.18475 -20,8c-2.06086,2.06086 -14,-1.08111 -14,2" fill="none" stroke="black" stroke-linecap="round" stroke-width="5"/>
	<path d="M90,204c0,10.58863 -9.69682,64.30318 -6,68c1.62385,1.62385 5.17334,-2.17334 6,-3c10.30421,-10.30421 20.83248,-52.00514 19,-63c-0.40077,-2.4046 -1,-2.87267 -1,-5" fill="none" stroke="black" stroke-linecap="round" stroke-width="5"/>
	<path d="M186,176c0,8.39174 -4.83826,24.16367 -7,32c-3.41578,12.3822 -5.98873,24.95492 -9,37c-0.16992,0.67969 -2.78189,18.43623 -7,10c-2.86101,-5.72202 -0.39196,-17.04022 1,-24c1.17603,-5.88017 -4.47791,-15.04418 -2,-20c1.43535,-2.8707 3.91406,-5.74219 5,-9c1.23164,-3.69493 -4,-6.82101 -4,-10" fill="none" stroke="black" stroke-linecap="round" stroke-width="5"/>
	<path d="M160,220c-0.98701,0 -2,-1.01299 -2,-2c0,-12.41704 -15.28076,-17.28076 -23,-25" fill="none" stroke="black" stroke-linecap="round" stroke-width="5"/>
	<path d="M106,228c3.88692,0 5.4074,-2.80247 9,-4c12.9293,-4.30977 25.63518,-11.13611 39,-14c9.86352,-2.11361 21.51421,-0.83807 31,-4c2.28035,-0.76012 -3.85006,-2.92503 -6,-4" fill="none" stroke="black" stroke-linecap="round" stroke-width="5"/>
	<path d="M68,153c0,13.4252 -23.68324,77.65838 -11,84c0.79321,0.3966 2.43499,-3.86997 3,-5c3.25166,-6.50332 2.28195,-15.81953 3,-23c1.58387,-15.83874 9.25263,-32.73686 6,-49c-0.28277,-1.41383 -0.82378,-3 -2,-3" fill="none" stroke="black" stroke-linecap="round" stroke-width="5"/>
	<path d="M64,206c0,4.3982 24,24.89515 24,13" fill="none" stroke="black" stroke-linecap="round" stroke-width="5"/>
	<path d="M71,137c0,-8.40433 2.48188,-29.96376 6,-37c0.8723,-1.7446 9.93871,-16 6,-16" fill="none" stroke="black" stroke-linecap="round" stroke-width="5"/>
	<path d="M92,80c0,16.22434 -5,31.658 -5,47c0,7.07751 0,4.05528 0,-1" fill="none" stroke="black" stroke-linecap="round" stroke-width="5"/>
	<path d="M99,84c0,14.01109 -3,29.73837 -3,44c0,1.4955 -0.72523,4 1,4" fill="none" stroke="black" stroke-linecap="round" stroke-width="5"/>
	<path d="M109,84c0,9.12113 2,22.16637 2,33c0,2.96202 -3,21.82657 -3,14" fill="none" stroke="black" stroke-linecap="round" stroke-width="5"/>
	<path d="M119,77c-8.35972,8.35972 6.03002,33.96998 -3,43" fill="none" stroke="black" stroke-linecap="round" stroke-width="5"/>
	<path d="M133,78c0,16.88065 -3,36.88994 -3,52" fill="none" stroke="black" stroke-linecap="round" stroke-width="5"/>
	<path d="M140,86c0,20.60434 -10,38.554 -10,50" fill="none" stroke="black" stroke-linecap="round" stroke-width="5"/>
	<path d="M84,86c0,14.09984 -3.95829,25.70802 -6,40c-0.54613,3.82292 0,8.11592 0,12c0,1.69967 1,6.69967 1,5c0,-1.37437 -1,-2.62563 -1,-4" fill="none" stroke="black" stroke-linecap="round" stroke-width="5"/>
	<path d="M77,77c0,2.64935 2.8414,3 5,3c29.32009,0 59.32288,-4 89,-4c3.8873,0 -7.25126,-3.25126 -10,-6c-6.36605,-6.36605 -25.92117,1.07883 -31,-4c-2.76558,-2.76558 -2.85588,-13.85588 -4,-15c-3.47496,-3.47496 -9.7501,-1.24998 -16,0c-1.57378,0.31476 -7.83862,-1.16138 -9,0c-3.44032,3.44032 -10.62029,2.62029 -14,6c-1.01736,1.01736 -6,12 -6,12c0,0 -7.00392,-0.99608 -9,1c-1.86724,1.86724 -0.69472,4.69472 -2,6c-0.24671,0.24671 -2.33333,3.66667 -1,5c4.66152,4.66152 23.53626,2.92747 26,-2" fill="none" stroke="black" stroke-linecap="round" stroke-width="5"/>
</svg>
