<?xml version="1.0" ?>
<svg baseProfile="full" height="300" version="1.1" viewBox="[0, 0, 300, 300]" width="300" xmlns="http://www.w3.org/2000/svg" xmlns:ev="http://www.w3.org/2001/xml-events" xmlns:xlink="http://www.w3.org/1999/xlink">
	<defs/>
	<path d="M84,62c0,19.79888 -6,32.47468 -6,51c0,0.33333 -0.2357,0.7643 0,1c5.11743,5.11743 74.94381,0.48595 89,4c4.47214,1.11803 25.41195,4.58805 29,1c3.88812,-3.88812 -1,-28.81751 -1,-35c0,-9.62877 6.96304,-29.03696 -1,-37c-3.29076,-3.29076 -92.2461,-11.87695 -106,-5c-2.12995,1.06497 -5.6686,20.3372 -7,23c-1.44925,2.8985 1,6.04711 1,9" fill="none" stroke="black" stroke-linecap="round" stroke-width="5"/>
	<path d="M80,115c0,3.90959 -3.64744,24.35256 0,28c9.905,9.905 57.49081,11 73,11c5.85259,0 42.40286,0.19427 45,-5c1.73151,-3.46303 -1,-24.17193 -1,-31" fill="none" stroke="black" stroke-linecap="round" stroke-width="5"/>
	<path d="M77,143c0,2.88609 5.55244,6.55244 7,8c33.01824,33.01824 73.49058,48.16981 119,33c22.48479,-7.49493 -2.78067,-32 -6,-32" fill="none" stroke="black" stroke-linecap="round" stroke-width="5"/>
	<path d="M77,152c-13.43661,0 -5.45459,65.45459 -11,71c-0.55333,0.55333 -1.91886,3.08114 -1,4c1.30129,1.30129 0.59624,-3 2,-3c2.68742,0 5.09971,5.90029 7,4c2.58813,-2.58813 12,-52.12612 12,-61c0,-0.75158 -2.12777,-1.87223 -1,-3c1.2738,-1.2738 3.45496,1 4,1c4.46028,0 39.3277,12.65541 41,16c1.95158,3.90316 -5.99101,55.00899 -3,58c0.55159,0.55159 3.75329,-1.75329 4,-2c5.29725,-5.29725 9,-22.57019 9,-33c0,-6.72843 1,-12.28845 1,-19" fill="none" stroke="black" stroke-linecap="round" stroke-width="5"/>
	<path d="M146,211c16.54174,0 34.81922,1 51,1c1.05409,0 2.25464,-0.25464 3,-1c1.36477,-1.36477 6,-0.03823 6,-2" fill="none" stroke="black" stroke-linecap="round" stroke-width="5"/>
	<path d="M144,201c4.98213,0 46.69979,0.30021 48,-1c1.35873,-1.35873 6,1.93687 6,-1" fill="none" stroke="black" stroke-linecap="round" stroke-width="5"/>
	<path d="M199,185c2.00462,2.00462 13,46.59169 13,52c0,0.76697 -1,8 -1,8c0,0 2.71042,-3.71042 3,-4c8.29147,-8.29147 -6,-55.26906 -6,-70" fill="none" stroke="black" stroke-linecap="round" stroke-width="5"/>
	<path d="M163,189c0,4.42681 2,7.80667 2,11" fill="none" stroke="black" stroke-linecap="round" stroke-width="5"/>
	<path d="M170,190c0,5.04406 1,9.13236 1,13" fill="none" stroke="black" stroke-linecap="round" stroke-width="5"/>
</svg>
