<?xml version="1.0" ?>
<svg baseProfile="full" height="300" version="1.1" viewBox="[0, 0, 300, 300]" width="300" xmlns="http://www.w3.org/2000/svg" xmlns:ev="http://www.w3.org/2001/xml-events" xmlns:xlink="http://www.w3.org/1999/xlink">
	<defs/>
	<path d="M68,66c0,0.33333 -0.2357,0.7643 0,1c2.53859,2.53859 3.29592,6.47961 4,10c0.76866,3.84329 3.96179,9.96179 6,12c0.15584,0.15584 0.15584,3.84416 0,4c-6.70507,6.70507 -10.83728,37.16272 -3,45c2.08154,2.08154 36.90148,1.72677 41,2c14.30057,0.95337 99.26951,5.36525 110,0c1.07497,-0.53748 -1.15016,-2.15016 -2,-3c-2.4178,-2.4178 -5.20721,-9.58558 -3,-14c4.94828,-9.89657 4.27503,-28.5374 1,-40c-2.76238,-9.66834 -9.18292,-17.18292 -15,-23c-8.34257,-8.34257 -83.49835,-9.50165 -94,1c-1.87622,1.87622 -41.72221,0 -49,0c-0.74536,0 -2,0.25464 -2,1" fill="none" stroke="black" stroke-linecap="round" stroke-width="5"/>
	<path d="M74,142c7.18982,0 1.77148,26.77148 5,30c2.23507,2.23507 47.05112,0 54,0c17.35105,0 33.81067,4.67774 51,6c10.68901,0.82223 27.37346,-0.54668 39,-2c1.11216,-0.13902 3.45413,-1.90827 4,-3c0.55325,-1.1065 1,-17.83364 1,-23" fill="none" stroke="black" stroke-linecap="round" stroke-width="5"/>
	<path d="M80,176c25.77844,0 36.67339,19.51008 49,38c1.24968,1.87452 -6.77103,16.22897 -5,18c1.11753,1.11753 22.70634,-2 27,-2c26.46942,0 62.64159,4.35841 80,-13c5.16109,-5.16109 7.58428,-22.41572 2,-28c-1.69631,-1.69631 -12,-2.77516 -12,-5" fill="none" stroke="black" stroke-linecap="round" stroke-width="5"/>
	<path d="M121,233c0,4.42263 -4.73118,29.26882 -1,33c1.16667,1.16667 -0.16667,4.83333 1,6c4.83565,4.83565 4.45263,-15.45263 5,-16c5.27879,-5.27879 3.00283,-19.00283 8,-24c0.4714,-0.4714 0,-1.33333 0,-2" fill="none" stroke="black" stroke-linecap="round" stroke-width="5"/>
	<path d="M216,225c0,0.33333 0.2357,0.7643 0,1c-4.06483,4.06483 -1,28.90275 -1,35c0,0.28846 0,5 0,5c0,0 0,-2.8 0,-3c0,-1.49071 2.50929,-2 4,-2c9.21975,0 11,-30.01195 11,-39" fill="none" stroke="black" stroke-linecap="round" stroke-width="5"/>
	<path d="M227,138c10.29868,0 35.09628,12.49891 47,16c2.73227,0.80361 8,3 8,3c0,0 -2.54282,-0.08565 -3,-1c-0.87763,-1.75525 -4.78182,-0.56364 -6,-3c-1.72461,-3.44921 -4.60873,-13.60873 -7,-16c-7.52878,-7.52878 -32.80133,4.09934 -43,-1c-0.44346,-0.22173 -4,-3 -4,-3c0,0 5.83058,4.83058 7,6" fill="none" stroke="black" stroke-linecap="round" stroke-width="5"/>
	<path d="M69,139c0,3.49996 38.04299,32.681 42,34c5.28768,1.76256 6.9441,-13.83229 8,-17c0.75934,-2.27803 7,-5.24111 7,-6c0,-1.60177 -4.10637,-1 -5,-1c-1.33333,0 -2.66667,0 -4,0c-8.00525,0 -11.44501,-9.97801 -19,-13c-3.52673,-1.41069 -7.20939,2 -12,2c-2.51733,0 -11,-1.11186 -11,2" fill="none" stroke="black" stroke-linecap="round" stroke-width="5"/>
	<path d="M77,154c0,-2.57513 6.14005,16.57986 4,23c-0.4714,1.41421 -1.47658,2.6042 -2,4c-0.48257,1.28686 -0.73046,2.65232 -1,4c-2.53411,12.67053 -12,45.37511 -12,56c0,0.84553 -0.52033,3.47967 0,4c0.38137,0.38137 4,-9.20984 4,-3c0,4.93422 3.04109,1.95891 4,1c7.18611,-7.18611 5.82672,-14.89352 9,-26c4.40911,-15.43188 14,-44.0613 14,-56" fill="none" stroke="black" stroke-linecap="round" stroke-width="5"/>
</svg>
