<?xml version="1.0" ?>
<svg baseProfile="full" height="300" version="1.1" viewBox="[0, 0, 300, 300]" width="300" xmlns="http://www.w3.org/2000/svg" xmlns:ev="http://www.w3.org/2001/xml-events" xmlns:xlink="http://www.w3.org/1999/xlink">
	<defs/>
	<path d="M55,121c0,13.67367 39.71906,20.71906 41,22c8.32108,8.32108 8.83528,16.50583 13,29c0.58669,1.76006 -1.22348,6.77652 0,8c0.62846,0.62846 6.14617,0 7,0c12.99342,0 82.78102,1.21898 86,-2c1.16667,-1.16667 3.83333,-0.83333 5,-2c0.84984,-0.84984 2.46252,-0.92503 3,-2c2.35255,-4.7051 -0.15923,-16.31846 -2,-20c-20.03083,-40.06166 -38.77805,-20.77805 -52,-34c-4.37167,-4.37167 -4.70407,-14.70407 -9,-19c-1.09233,-1.09233 -3.37761,0.8444 -4,1c-18.19608,4.54902 -39.80392,-4.54902 -58,0c-6.45312,1.61328 -7.91134,7 -18,7c-2.78802,0 -8.9368,-0.9368 -6,2c0.2357,0.2357 0.2357,0.7643 0,1c-0.15584,0.15584 -3.84416,0.15584 -4,0c-7.9071,-7.9071 7.35032,-41.71337 10,-49c4.62599,-12.72146 -0.04518,-31.95482 8,-40c2.59916,-2.59916 49.3026,-3 53,-3c7.71008,0 20.35597,-5.64403 26,0c4.19618,4.19618 -6.81834,18.0917 -8,24c-2.80941,14.04703 4.31492,27.11046 2,41c-0.32732,1.96391 -4.38918,28 0,28" fill="none" stroke="black" stroke-linecap="round" stroke-width="5"/>
	<path d="M139,92c-5.9653,-7.15836 -52.73753,-8.26247 -63,2c-1.29279,1.29279 1,4 1,4c0,0 -10.59365,-2.40635 -12,-1c-1.61786,1.61786 -5,13.33408 -5,16" fill="none" stroke="black" stroke-linecap="round" stroke-width="5"/>
	<path d="M67,135c0,-0.3212 13.71821,2.46883 17,2c2.37526,-0.33932 8.32585,-5.00561 11,-3c7.94289,5.95716 21.35861,12 28,12c0.66667,0 1.5286,0.4714 2,0c1.60976,-1.60976 -0.75448,-8.73656 0,-11c0.61544,-1.84633 5.47407,-9.52593 5,-10c-0.4714,-0.4714 -1.33333,0 -2,0c-11.26314,0 -17.71345,-5.57115 -28,-9c-6.02384,-2.00795 -12.95686,3.01438 -19,1c-3.40993,-1.13664 -1.40419,-3.40419 -3,-5c-0.52705,-0.52705 -2,-0.25464 -2,-1" fill="none" stroke="black" stroke-linecap="round" stroke-width="5"/>
	<path d="M165,116c1.77126,-1.77126 5.58011,4.79006 8,6c4.3185,2.15925 12.21596,-0.95681 17,0c4.45592,0.89118 8.5548,4.8887 13,6c0.60383,0.15096 24.47908,0.52092 22,3c-1.42,1.42 -5.04525,-18.0905 -6,-20c-1.3476,-2.69521 -17.20938,-3 -20,-3c-9.96867,0 -31.86732,4.56634 -41,0c-5.25554,-2.62777 -6.90804,-6.1908 -15,-7c-5.23692,-0.52369 -12.58091,-1.67638 -14,4c-0.32903,1.31612 0,7.3961 0,5" fill="none" stroke="black" stroke-linecap="round" stroke-width="5"/>
	<path d="M92,147c0,3.59174 1.59415,6.71969 3,10c6.70247,15.63909 1.04459,33.17837 5,49c0.41273,1.6509 7.56686,11.43314 5,14c-2.51373,2.51373 -5.31656,5.86933 -8,9c-0.8486,0.99004 -3.73669,7 -6,7c-2.68742,0 2.20185,-5.5963 1,-8c-0.74536,-1.49071 -2.25464,2.50929 -3,4c-0.40113,0.80226 -3.45002,-6.30001 -6,-8c-3.62077,-2.41384 -25.98084,-5.03832 -23,-11c2.38311,-4.76621 7.47848,-15.47848 11,-19c2.32624,-2.32624 25,16.85442 25,5" fill="none" stroke="black" stroke-linecap="round" stroke-width="5"/>
	<path d="M114,201c0,-1.33333 -1,-2 -1,-2c0,0 8.4558,-1.94558 9,-2c6.42146,-0.64215 53.61619,-2.38381 57,1c3.53941,3.53941 13.68503,12.37005 16,17c3.6786,7.3572 -8.20097,20 -3,20c0.59891,0 7.40978,2.18045 8,1c2.51923,-5.03847 -1.82699,-10.17301 3,-15c3.48725,-3.48725 11.00729,-1.02186 13,-7c2.80342,-8.41027 -3.58172,-11.74515 -5,-16c-5.10515,-15.31545 -2.11681,-28 -22,-28" fill="none" stroke="black" stroke-linecap="round" stroke-width="5"/>
</svg>
