<?xml version="1.0" ?>
<svg baseProfile="full" height="300" version="1.1" viewBox="[0, 0, 300, 300]" width="300" xmlns="http://www.w3.org/2000/svg" xmlns:ev="http://www.w3.org/2001/xml-events" xmlns:xlink="http://www.w3.org/1999/xlink">
	<defs/>
	<path d="M90,172c9.92975,0 18.29688,17.29688 25,24c0.66317,0.66317 6.19775,0 7,0c4.187,0 8.89805,-0.68366 13,0c6.46254,1.07709 12.72109,3.43027 19,5c10.81902,2.70475 21.69597,1 32,1c0.33333,0 0.7643,0.2357 1,0c2.84371,-2.84371 5.63963,-5.63963 8,-8c0.89216,-0.89216 -0.14706,-2 -1,-2c-0.24172,0 -2.65604,-2.96812 -3,-4c-4.57864,-13.73592 -15.42666,-25.42666 -24,-34c-1.23333,-1.23333 -1.9,0.9 -2,1c-0.38964,0.38964 -3.38976,0 -4,0c-8.93979,0 -18.96588,-2.80682 -28,-1c-12.45821,2.49164 -29.1308,8 -42,8" fill="none" stroke="black" stroke-linecap="round" stroke-width="5"/>
	<path d="M88,167c-3.33333,17.66667 -6.78393,35.31161 -10,53c-0.56209,3.09147 -0.48057,9.51943 1,11c5.85008,5.85008 2.63503,-17.27005 3,-18c2.04074,-4.08149 8.3472,-29.3472 9,-30c1.20725,-1.20725 6,-4.84624 6,-8" fill="none" stroke="black" stroke-linecap="round" stroke-width="5"/>
	<path d="M114,198c0,16.39628 1.06898,35.79305 -3,48c-0.08716,0.26147 -0.16972,2.83028 0,3c0.96705,0.96705 4.15908,-2.36931 5,-3c8.4908,-6.3681 12,-41.55097 12,-51" fill="none" stroke="black" stroke-linecap="round" stroke-width="5"/>
	<path d="M192,200c0,13.63912 -3.83058,32.66115 -10,45c-0.33333,0.66667 -0.25464,2 -1,2c-0.75158,0 -1.87223,2.12777 -3,1c-3.3184,-3.3184 2,-39.97097 2,-49" fill="none" stroke="black" stroke-linecap="round" stroke-width="5"/>
	<path d="M86,162c0,-7.94912 4.94426,-17.22295 3,-25c-2.24299,-8.97196 -7,-18.3174 -7,-28c0,-0.72829 -0.60547,-5.39453 0,-6c1.40574,-1.40574 5,-25.6373 5,-27" fill="none" stroke="black" stroke-linecap="round" stroke-width="5"/>
	<path d="M95,77c0,12.08731 4.68803,45.31197 -3,53c-0.26471,0.26471 0,2.58824 0,3c0,11.02075 8.31405,16.3719 2,29" fill="none" stroke="black" stroke-linecap="round" stroke-width="5"/>
	<path d="M162,153c0,-17.41715 6.36258,-39.54967 2,-57c-1.87794,-7.51175 -5,-14.41869 -5,-20" fill="none" stroke="black" stroke-linecap="round" stroke-width="5"/>
	<path d="M147,76c0,7.38398 5.17742,12.70966 7,20c3.0007,12.0028 -2.19127,31.38254 -7,41c-2.72673,5.45346 3,12.15769 3,17" fill="none" stroke="black" stroke-linecap="round" stroke-width="5"/>
	<path d="M131,148c0,-7.8993 9.03704,-70.92592 9,-71c-0.35586,-0.71173 -0.95387,-5 -2,-5" fill="none" stroke="black" stroke-linecap="round" stroke-width="5"/>
	<path d="M122,74c0,9.59914 5.01169,18.94153 3,29c-2.86912,14.34561 -5,30.35545 -5,45" fill="none" stroke="black" stroke-linecap="round" stroke-width="5"/>
	<path d="M89,75c21.52959,0 53.63243,-8.45586 76,-1c0.52998,0.17666 4,3 4,3c0,0 -1,-16.82917 -1,-16" fill="none" stroke="black" stroke-linecap="round" stroke-width="5"/>
	<path d="M171,59c-10.74759,0 -69.77377,-6.61312 -79,-2c-10.1376,5.0688 -9,28.21112 -9,19" fill="none" stroke="black" stroke-linecap="round" stroke-width="5"/>
	<path d="M77,68c0,-5.55166 6.42052,-19.42052 9,-22c1.21193,-1.21193 9.25866,0 11,0c20.99689,0 40.80223,-2 62,-2c6.80244,0 17.9172,-0.0414 24,3c0.59628,0.29814 -1.5286,-0.4714 -2,0c-5.70444,5.70444 -14.60833,19 -17,19" fill="none" stroke="black" stroke-linecap="round" stroke-width="5"/>
</svg>
