<?xml version="1.0" ?>
<svg baseProfile="full" height="300" version="1.1" viewBox="[0, 0, 300, 300]" width="300" xmlns="http://www.w3.org/2000/svg" xmlns:ev="http://www.w3.org/2001/xml-events" xmlns:xlink="http://www.w3.org/1999/xlink">
	<defs/>
	<path d="M89,167c10.0179,0 19.66733,10.66733 25,16c0.5629,0.5629 9.36553,-2 12,-2c11.71193,0 17.10076,-5 29,-5c13.43191,0 24.54159,-2 36,-2c24.05036,0 -23.68687,-30.68687 -28,-35c-0.38964,-0.38964 -3.38976,0 -4,0c-9.35341,0 -31.47169,5.36792 -42,8c-11.37366,2.84341 -32,10.1802 -32,12" fill="none" stroke="black" stroke-linecap="round" stroke-width="5"/>
	<path d="M82,166c0,3.07838 -6.07774,57.92226 -4,60c1.33437,1.33437 4.50446,-1.50446 5,-2c0.98742,-0.98742 8,-53.24568 8,-58" fill="none" stroke="black" stroke-linecap="round" stroke-width="5"/>
	<path d="M116,182c0,5.14901 -10.50733,51.49267 -7,55c2.35702,2.35702 2.66667,-8 6,-8c10.18521,0 12,-36.63325 12,-48" fill="none" stroke="black" stroke-linecap="round" stroke-width="5"/>
	<path d="M193,175c0,4.57708 -3,12.67844 -3,19c0,4.53051 1.06099,10.87801 -1,15c-1.90778,3.81556 -1.67817,19 -7,19c-1.66667,0 0,-3.33333 0,-5c0,-9.89497 -8.91016,-36.08984 -1,-44c0.2357,-0.2357 0,-0.66667 0,-1c0,-0.66667 0,-1.33333 0,-2c0,-1.41126 -0.671,-3 1,-3" fill="none" stroke="black" stroke-linecap="round" stroke-width="5"/>
	<path d="M157,180c0,9.72549 -4,17.89782 -4,28c0,0.4714 -0.66667,1.33333 -1,1c-8.19521,-8.19521 1,-19.42751 1,-30" fill="none" stroke="black" stroke-linecap="round" stroke-width="5"/>
	<path d="M79,157c1.58089,0 0.76928,-1.76928 2,-3c3.0708,-3.0708 12,-48.54909 12,-55c0,-1.66428 -0.77613,-6 1,-6" fill="none" stroke="black" stroke-linecap="round" stroke-width="5"/>
	<path d="M94,148c-1.03452,0 -1.38215,0.2357 -2,-1c-1.15849,-2.31699 3.6958,-11.56642 4,-14c1.50553,-12.04421 6.7005,-31.599 1,-43" fill="none" stroke="black" stroke-linecap="round" stroke-width="5"/>
	<path d="M154,138c0,-15.55255 6,-31.0559 6,-46c0,-1.41126 -0.671,-3 1,-3" fill="none" stroke="black" stroke-linecap="round" stroke-width="5"/>
	<path d="M163,128c-4.77718,0 2.08266,-10.57862 3,-17c0.45193,-3.16353 0.80887,-29 1,-29" fill="none" stroke="black" stroke-linecap="round" stroke-width="5"/>
	<path d="M111,142c0,-18.65381 5,-39.1485 5,-52" fill="none" stroke="black" stroke-linecap="round" stroke-width="5"/>
	<path d="M118,139c0,-0.66667 0,-1.33333 0,-2" fill="none" stroke="black" stroke-linecap="round" stroke-width="5"/>
	<path d="M118,137c2.76573,-2.76573 9.13049,-42.30426 8,-44c-3.14334,-4.71501 -5.31781,-5.68219 -2,-9c1.38842,-1.38842 1.2361,-8.52781 5,-1" fill="none" stroke="black" stroke-linecap="round" stroke-width="5"/>
	<path d="M130,139c0,-12.33333 0,-24.66667 0,-37c0,-1.33333 -0.94281,-3.05719 0,-4c1.27878,-1.27878 4,-1.60832 4,-5c0,-1.59295 -0.84676,-4 1,-4" fill="none" stroke="black" stroke-linecap="round" stroke-width="5"/>
	<path d="M144,130c0,-2.49751 -0.21188,-3.63563 -1,-6c-0.43461,-1.30384 -0.70186,-2.65836 -1,-4c-3.07395,-13.83279 1,-25.93624 1,-39c0,-1.33333 -0.56667,-2 1,-2" fill="none" stroke="black" stroke-linecap="round" stroke-width="5"/>
	<path d="M99,91c15.08817,0 28.6831,-4.5948 43,-9c17.73302,-5.45631 20.37922,-0.33006 39,1c5.40432,0.38602 12.58423,0.77368 18,0c0.33463,-0.0478 3.61839,-2.61839 2,-1c-8.79468,8.79468 -10,-22 -10,-22c0,0 -1.76489,4.76489 -2,5c-0.2357,0.2357 0,-0.66667 0,-1c0,-3.51609 -21.91633,-7.80156 -24,-8c-0.25418,-0.02421 -56.76389,3.88195 -59,5c-4.15027,2.07514 -10.30897,16.15448 -16,19c-1.51723,0.75862 -3.36863,-2.63137 -5,-1c-0.00558,0.00558 0.90176,13.29473 0,16" fill="none" stroke="black" stroke-linecap="round" stroke-width="5"/>
</svg>
