<?xml version="1.0" ?>
<svg baseProfile="full" height="300" version="1.1" viewBox="[0, 0, 300, 300]" width="300" xmlns="http://www.w3.org/2000/svg" xmlns:ev="http://www.w3.org/2001/xml-events" xmlns:xlink="http://www.w3.org/1999/xlink">
	<defs/>
	<path d="M66,143c5.38465,0 10.79123,11.39561 16,14c5.72111,2.86055 10.61714,6.72343 17,8c2.285,0.457 8.11545,-2.88455 9,-2c7.98,7.98 1.09515,24.09515 9,32c1.36455,1.36455 20.25691,-7 24,-7c26.6449,0 66.91952,1.08048 82,-14c1.21976,-1.21976 -2.07646,-11.15292 -3,-13c-8.52249,-17.04498 -27.32535,-11.16267 -43,-19c-17.3693,-8.68465 -10.18728,-16.18728 -15,-21c-8.72157,-8.72157 -95.94605,15.94605 -101,21c-0.61077,0.61077 3.25625,2.62813 4,3c1.33333,0.66667 0.94591,2.94591 2,4c2.88427,2.88427 -2.19078,20.80922 3,26c6.53079,6.53079 56.38893,10.38893 61,15c7.55588,7.55588 -5.98756,97.01244 -43,60c-2.05004,-2.05004 -1.63425,-8.26851 -3,-11c-1.05824,-2.11648 -9.91155,-10.08845 -7,-13c9.6959,-9.6959 52.06967,-2.26742 67,-6c9.6419,-2.41048 20.1735,-10.60883 31,-7c16.28324,5.42775 33.94698,7.94698 49,23c0.4714,0.4714 -1.33333,0 -2,0c-7.43697,0 -9.5088,21.4912 -22,9c-1.87015,-1.87015 2.22097,-4.22097 3,-5c7.3268,-7.3268 4.75195,-65.24805 -2,-72" fill="none" stroke="black" stroke-linecap="round" stroke-width="5"/>
	<path d="M127,211c24.16501,-6.04125 48.0216,-13.25607 72,-20" fill="none" stroke="black" stroke-linecap="round" stroke-width="5"/>
	<path d="M150,116c0,2.87514 -2.13966,-0.56983 -3,-1c-4.30607,-2.15303 -6,-18.26095 -6,-25c0,-7.54769 6.59126,-28.40874 0,-35c-4.04021,-4.04021 -12.34331,-10.24522 -19,-15c-4.86376,-3.47412 -9.07124,-7.96438 -15,-5c-2.61209,1.30605 -3.44885,6.44885 -6,9c-5.31773,5.31773 -15.55261,5.32892 -20,12c-8.98784,13.48176 -1.67463,25.34927 -8,38c-2.57487,5.14974 -5.99775,8.98651 -7,15c-3.59076,21.54455 6.58414,50.83171 -2,68" fill="none" stroke="black" stroke-linecap="round" stroke-width="5"/>
</svg>
