<?xml version="1.0" ?>
<svg baseProfile="full" height="300" version="1.1" viewBox="[0, 0, 300, 300]" width="300" xmlns="http://www.w3.org/2000/svg" xmlns:ev="http://www.w3.org/2001/xml-events" xmlns:xlink="http://www.w3.org/1999/xlink">
	<defs/>
	<path d="M130,185c0,24.74362 -0.34109,39.0758 27,33c5.89114,-1.30914 24.17226,-0.10335 29,-3c1.17851,-0.70711 -0.30384,-3.56539 1,-4c5.74416,-1.91472 23.96251,4.03749 28,0c2.06703,-2.06703 0,-18.65643 0,-22c0,-1.60872 0.98949,-14.50525 0,-15c-10.97116,-5.48558 -45.62131,3 -59,3c-5.03651,0 -17.7883,-1.10585 -22,1c-0.94013,0.47006 -8.59796,7 -5,7" fill="none" stroke="black" stroke-linecap="round" stroke-width="5"/>
	<path d="M132,183c-3.74112,0 -5.18253,1.36506 -7,5c-1.27724,2.55448 -7.37578,72.87266 -6,77c0.52705,1.58114 3.41886,0.52705 5,0c1.59562,-0.53187 1,-21.37152 1,-23c0,-6.33333 0,-12.66667 0,-19c0,-4.03066 -1.90621,-3.85931 -4,-7c-3.35979,-5.03968 3,-12.66203 3,-16" fill="none" stroke="black" stroke-linecap="round" stroke-width="5"/>
	<path d="M138,211c0,8.92574 2,14.59705 2,24c0,5 0,10 0,15c0,5.33333 0,10.66667 0,16c0,6.68014 2.13788,9.86212 7,5c2.94265,-2.94265 -2.33931,-42.49103 2,-49c0.7396,-1.1094 0,-2.66667 0,-4c0,-1.20185 1.33333,-2 2,-3c0.66667,-1 0.79815,-3 2,-3" fill="none" stroke="black" stroke-linecap="round" stroke-width="5"/>
	<path d="M195,207c0,8.66667 0,17.33333 0,26c0,8 0,16 0,24c0,15.15582 8.35344,15.96983 17,3c1.06007,-1.5901 10.24511,-50.75489 8,-53c-2.58278,-2.58278 -2.8501,3 -5,3" fill="none" stroke="black" stroke-linecap="round" stroke-width="5"/>
	<path d="M198,211c0,13.47808 -0.59167,29.11249 6,39c1.27994,1.91991 0,23.87906 0,17" fill="none" stroke="black" stroke-linecap="round" stroke-width="5"/>
	<path d="M209,261c0,-6.88048 1.98941,-10.96823 4,-17c3.36996,-10.10988 -2,-24.49777 -2,-33" fill="none" stroke="black" stroke-linecap="round" stroke-width="5"/>
	<path d="M136,177c0,-27.66667 0,-55.33333 0,-83" fill="none" stroke="black" stroke-linecap="round" stroke-width="5"/>
	<path d="M154,172c0,-21.67236 3,-42.69035 3,-64c0,-6 0,-12 0,-18c0,-3 0,-12 0,-9" fill="none" stroke="black" stroke-linecap="round" stroke-width="5"/>
	<path d="M173,165c0,-22.66667 0,-45.33333 0,-68" fill="none" stroke="black" stroke-linecap="round" stroke-width="5"/>
	<path d="M186,160c0,-4.93679 1.34064,-4.45419 4,-8c2.15722,-2.8763 0,-16.48335 0,-20c0,-12.83109 5,-24.76868 5,-38" fill="none" stroke="black" stroke-linecap="round" stroke-width="5"/>
	<path d="M204,90c0,6.05194 -30.1344,4 -35,4c-9.90189,0 -20.95435,1.82739 -29,-3c-4.60987,-2.76592 -17.2646,2.24513 -24,0c-2.99455,-0.99818 1.58878,-29.17756 2,-30c2.26468,-4.52937 -3.4257,-17.5743 0,-21c1.20545,-1.20545 9.80981,1.8918 11,2c8.50613,0.77328 14.9362,3 24,3c22.13876,0 41.72737,8 64,8c0.66667,0 1.70186,-0.59628 2,0c4.46809,8.93617 -5.45878,41 -10,41" fill="none" stroke="black" stroke-linecap="round" stroke-width="5"/>
</svg>
