<?xml version="1.0" ?>
<svg baseProfile="full" height="300" version="1.1" viewBox="[0, 0, 300, 300]" width="300" xmlns="http://www.w3.org/2000/svg" xmlns:ev="http://www.w3.org/2001/xml-events" xmlns:xlink="http://www.w3.org/1999/xlink">
	<defs/>
	<path d="M124,139c9.16747,0 16.88912,26 29,26" fill="none" stroke="black" stroke-linecap="round" stroke-width="5"/>
	<path d="M130,139c0,12.14428 -3,23.8438 -3,37c0,1 -0.89443,2.55279 0,3c3.47543,1.73772 2.35049,2.70098 4,6c2.89992,5.79985 11.56366,2.42274 15,5c9.18249,6.88687 20.3369,8 34,8c5.51601,0 27.43673,3.70884 33,0c7.76065,-5.17377 4.03619,-20.02413 10,-24c0.5547,-0.3698 0,-1.33333 0,-2c0,-1.20185 -1.79815,-2 -3,-2c-13.33333,0 -26.66667,0 -40,0c-8.27174,0 -21.18172,-2.60609 -29,0c-6.35063,2.11688 -10.33871,8 -19,8" fill="none" stroke="black" stroke-linecap="round" stroke-width="5"/>
	<path d="M207,135c0,10.15552 19.72859,18.79645 28,25" fill="none" stroke="black" stroke-linecap="round" stroke-width="5"/>
	<path d="M136,152c0,-12.25516 -2.57355,-49.80882 7,-53c12.0258,-4.0086 31.33081,0 44,0c1.75312,0 15.565,-0.565 17,-2c0.4714,-0.4714 0,-2.66667 0,-2c0,12.90133 -6,22.43178 -6,37c0,1.52564 1.58968,24.20516 0,25c-17.52015,8.76008 -35.59223,-9 -51,-9" fill="none" stroke="black" stroke-linecap="round" stroke-width="5"/>
	<path d="M168,190c0,21.20934 3.45833,59.08335 -5,76c-0.14907,0.29814 -0.67314,0.06537 -1,0c-12.7659,-2.55318 -28.39813,-19.20375 -21,-34c0.3232,-0.6464 5.30616,0.23128 6,0c16.90198,-5.63399 37.5756,-5 57,-5c0.42553,0 4.84043,-0.31915 5,0c3.05572,6.11144 2.68028,26.92007 11,29c5.61567,1.40392 2.76209,-2.52417 4,-5c7.23679,-14.47358 8.50275,-47.3978 -6,-59c-0.58203,-0.46562 -0.66667,-1.33333 -1,-2" fill="none" stroke="black" stroke-linecap="round" stroke-width="5"/>
</svg>
