<?xml version="1.0" ?>
<svg baseProfile="full" height="300" version="1.1" viewBox="[0, 0, 300, 300]" width="300" xmlns="http://www.w3.org/2000/svg" xmlns:ev="http://www.w3.org/2001/xml-events" xmlns:xlink="http://www.w3.org/1999/xlink">
	<defs/>
	<path d="M204,114c0,-11.55562 4.06575,-50.8685 0,-59c-4.6859,-9.37179 -94.02991,-15.97009 -107,-3c-0.7123,0.7123 0,40.39809 0,45c0,3.83927 -0.26414,36.73586 0,37c5.84508,5.84508 91.69272,2.53818 103,-5c1.68124,-1.12083 5,-2.02448 5,-4" fill="none" stroke="black" stroke-linecap="round" stroke-width="5"/>
	<path d="M103,158c0,-3.02222 -0.2,0.51111 3,3c4.37915,3.406 9.38397,5.92265 14,9c5.64405,3.7627 10.89948,6.25928 15,12c3.56038,4.98453 1,18.26791 1,24c0,3.07318 -5.07318,9 -2,9c2.02759,0 4.01179,-0.60236 6,-1c26.51034,-5.30207 49.98469,-13 77,-13c1.84344,0 6.91539,1.16922 8,-1c2.84011,-5.68023 0,-19.50447 0,-26c0,-45.18134 -51.37835,-25.47666 -76,-21c-3.6054,0.65553 -33,5.37773 -33,0" fill="none" stroke="black" stroke-linecap="round" stroke-width="5"/>
	<path d="M100,97c13.6154,0 23.63743,13.63743 32,22c0.88812,0.88812 0,7.90096 0,9c0,26.7227 1.50258,48.45617 0,74c-0.13702,2.32931 0.16624,4.6726 0,7c-0.16793,2.35103 -0.70765,4.66118 -1,7c-0.49039,3.92316 -5.58132,48.79066 -10,51c-0.59628,0.29814 -1.5286,0.4714 -2,0c-6.90611,-6.90611 -13.26426,-17.03423 -17,-26c-1.53021,-3.6725 -2.22574,-7.45148 -4,-11c-0.66667,-1.33333 -3.49071,-4 -2,-4c4.55385,0 8.28659,0.44548 13,1c14.42509,1.69707 28.66114,3.79402 43,6c6.32928,0.97374 35.70495,-3.29505 41,2c4.82865,4.82865 8.35583,18.35583 14,24c1.77002,1.77002 13.89229,-4.89229 15,-6c4.03079,-4.03079 0.02347,-31.65256 1,-38c1.5511,-10.08218 12.76016,-101.23984 1,-113c-1.48611,-1.48611 -16.37507,-6 -19,-6" fill="none" stroke="black" stroke-linecap="round" stroke-width="5"/>
</svg>
