<?xml version="1.0" ?>
<svg baseProfile="full" height="300" version="1.1" viewBox="[0, 0, 300, 300]" width="300" xmlns="http://www.w3.org/2000/svg" xmlns:ev="http://www.w3.org/2001/xml-events" xmlns:xlink="http://www.w3.org/1999/xlink">
	<defs/>
	<path d="M202,118c0,-21 0,-42 0,-63c0,-7 0,-14 0,-21c0,-3 3,-9 0,-9c-7.42238,0 -25.83186,8.41593 -33,12c-0.94281,0.4714 -2.25464,1.74536 -3,1c-2.99146,-2.99146 2.39343,-14.60657 -1,-18c-1.08324,-1.08324 -4.12304,0.78076 -5,1c-12.31931,3.07983 -49.1679,-19.8321 -58,-11c-3.86506,3.86506 3.35817,18.64183 -1,23c-0.90064,0.90064 -32.37946,0 -37,0c-1.66667,0 -4.59577,-1.6169 -5,0c-2.62205,10.48822 0,25.21708 0,36c0,3.2142 -2.78041,23.21959 0,26c8.03526,8.03526 29.90672,13.17151 40,17c27.40424,10.39471 54.30488,13 83,13" fill="none" stroke="black" stroke-linecap="round" stroke-width="5"/>
	<path d="M82,129c0,23.65011 74.79153,18 92,18c3.06639,0 6,-5 6,-5c0,0 0,4 0,6c0,13.59358 5.00532,24.02126 8,36c0.25565,1.02262 2,2.66667 1,3c-10.08744,3.36248 -94.98017,1.6931 -106,-13c-4.19609,-5.59479 -5,-23.5854 -5,-31" fill="none" stroke="black" stroke-linecap="round" stroke-width="5"/>
	<path d="M177,194c0,16.2799 14.75707,29.51414 22,44" fill="none" stroke="black" stroke-linecap="round" stroke-width="5"/>
	<path d="M95,182c0,13.02834 -8.48092,24.40458 -11,37c-0.30462,1.52311 -0.51457,3 1,3" fill="none" stroke="black" stroke-linecap="round" stroke-width="5"/>
	<path d="M187,220c-32.50013,0 -62.91004,-8.22471 -95,-12c-5.80537,-0.68299 -12.23053,1.34579 -8,-5" fill="none" stroke="black" stroke-linecap="round" stroke-width="5"/>
	<path d="M75,144c-4.91587,0 -39.02109,56.34036 -29,53" fill="none" stroke="black" stroke-linecap="round" stroke-width="5"/>
</svg>
