<?xml version="1.0" ?>
<svg baseProfile="full" height="300" version="1.1" viewBox="[0, 0, 300, 300]" width="300" xmlns="http://www.w3.org/2000/svg" xmlns:ev="http://www.w3.org/2001/xml-events" xmlns:xlink="http://www.w3.org/1999/xlink">
	<defs/>
	<path d="M213,114c0,-12.66667 0,-25.33333 0,-38c0,-3.85085 3.20664,-30.79336 0,-34c-2.56178,-2.56178 -19.64754,4.35246 -22,2c-3.16153,-3.16153 0.59138,-13.40862 -2,-16c-0.97183,-0.97183 -2.66667,-0.66667 -4,-1c-2.32866,-0.58216 -77.37916,-2.62084 -80,0c-2.85127,2.85127 1.76253,15.23747 -1,18c-2.34871,2.34871 -16.95056,-4.19774 -18,0c-1.83281,7.33122 0,17.43013 0,25c0,3.17012 -1.92339,15.15323 0,19c2.2345,4.469 18.07131,7.47218 22,9c19.44361,7.5614 36.57554,13.09813 57,18c8.93788,2.14509 37.27901,13.72099 46,5" fill="none" stroke="black" stroke-linecap="round" stroke-width="5"/>
	<path d="M85,120c0,10.7326 42.53107,50.65802 52,54c13.81349,4.87535 29.68923,3 44,3c7.72231,0 32.2627,4.10596 37,-3c27.71597,-41.57395 -60.13956,-32.32696 -80,-37c-10.82458,-2.54696 -20.87414,-9.49962 -31,-14c-2.2945,-1.01978 -11.58441,-4 -11,-4" fill="none" stroke="black" stroke-linecap="round" stroke-width="5"/>
	<path d="M90,88c0,31.66667 0,63.33333 0,95c0,5.57082 -8.58379,38 -7,38" fill="none" stroke="black" stroke-linecap="round" stroke-width="5"/>
	<path d="M116,177c0,11.05991 0.29546,21.98859 -1,33c-0.32723,2.78143 -2.69902,18.69902 -1,17" fill="none" stroke="black" stroke-linecap="round" stroke-width="5"/>
	<path d="M217,188c0,3.7531 -3.41355,30 5,30" fill="none" stroke="black" stroke-linecap="round" stroke-width="5"/>
	<path d="M204,197c-35.81248,0 -72.95746,0 -108,0" fill="none" stroke="black" stroke-linecap="round" stroke-width="5"/>
</svg>
