<?xml version="1.0" ?>
<svg baseProfile="full" height="300" version="1.1" viewBox="[0, 0, 300, 300]" width="300" xmlns="http://www.w3.org/2000/svg" xmlns:ev="http://www.w3.org/2001/xml-events" xmlns:xlink="http://www.w3.org/1999/xlink">
	<defs/>
	<path d="M216,24c0,3.09753 0.63488,43.36512 0,44c-3.75319,3.75319 -20.71901,0.82163 -25,1c-10.02284,0.41762 -72.48481,13.51519 -82,4c-3.74645,-3.74645 3.7867,-16.63991 2,-22c-0.77193,-2.3158 -5,-7.96907 -5,-10c0,-3 6.04839,0.53666 9,0c7.41567,-1.3483 14.58195,-4.4383 22,-6c18.38114,-3.86971 56.87279,-16.5636 74,-8c1.90904,0.95452 5,1.86563 5,4" fill="none" stroke="black" stroke-linecap="round" stroke-width="5"/>
	<path d="M200,70c0,18 0,36 0,54" fill="none" stroke="black" stroke-linecap="round" stroke-width="5"/>
	<path d="M182,79c0,13.33333 0,26.66667 0,40c0,1.78543 2,18.20712 2,14" fill="none" stroke="black" stroke-linecap="round" stroke-width="5"/>
	<path d="M162,81c0,11.25821 0.62386,22.77046 0,34c-0.14701,2.6461 -4.38225,16.7645 -2,12" fill="none" stroke="black" stroke-linecap="round" stroke-width="5"/>
	<path d="M134,81c0,4.76765 -0.90721,38.4536 2,37" fill="none" stroke="black" stroke-linecap="round" stroke-width="5"/>
	<path d="M205,125c0,5.63322 22.83723,42.32553 21,46c-2.1283,4.25659 -13.25804,5.19815 -17,6c-34.0061,7.28702 -58.49488,10.01024 -74,-21c-1.72392,-3.44783 -14.83981,-33.16019 -12,-36c4.82249,-4.82249 62.36548,9.63452 68,4" fill="none" stroke="black" stroke-linecap="round" stroke-width="5"/>
	<path d="M222,172c0,2.75349 3.56882,12.43118 2,14c-1.48091,1.48091 -4,2.1108 -4,5c0,0.33333 -0.10541,0.68377 0,1c3.00402,9.01205 9.72274,14.27726 2,22" fill="none" stroke="black" stroke-linecap="round" stroke-width="5"/>
	<path d="M154,176c0,4.17649 1,9.56828 1,13c0,3.60555 -7.38755,2.7751 -9,6c-0.62066,1.24132 6,11.94044 6,10" fill="none" stroke="black" stroke-linecap="round" stroke-width="5"/>
	<path d="M120,135c-13.92723,0 -1.6929,16.6142 1,22c1.16035,2.3207 -6.6682,12.3341 -2,10" fill="none" stroke="black" stroke-linecap="round" stroke-width="5"/>
	<path d="M196,183c0,4.68167 -4.32596,11.34807 -3,14c1.27813,2.55627 4,3.14311 4,7" fill="none" stroke="black" stroke-linecap="round" stroke-width="5"/>
</svg>
