<?xml version="1.0" ?>
<svg baseProfile="full" height="300" version="1.1" viewBox="[0, 0, 300, 300]" width="300" xmlns="http://www.w3.org/2000/svg" xmlns:ev="http://www.w3.org/2001/xml-events" xmlns:xlink="http://www.w3.org/1999/xlink">
	<defs/>
	<path d="M211,113c0,-29.11043 9.96257,-56.73033 -21,-70c-11.45203,-4.90801 -84.69094,4.21844 -86,16c-0.91788,8.26095 5.35285,47.70569 10,57c2.24289,4.48578 69.79643,-1 82,-1c1.60651,0 8,0.84261 8,-1" fill="none" stroke="black" stroke-linecap="round" stroke-width="5"/>
	<path d="M219,147c-21,0 -42,0 -63,0c-3.96966,0 -33.82946,0.17054 -31,3c10.89742,10.89742 23.65732,18.31464 31,33c3.50635,7.0127 4,15.34518 4,23c0,0.33333 -0.31623,1.10541 0,1c21.35688,-7.11896 38.13291,-13 61,-13c1.12396,0 7.10379,0.89621 8,0c1.89361,-1.89361 -11,-37.44535 -11,-47" fill="none" stroke="black" stroke-linecap="round" stroke-width="5"/>
	<path d="M116,104c31.73343,0 44,-9.31639 44,25c0,24 0,48 0,72c0,9.66667 0,19.33333 0,29c0,0.60598 -0.833,5.611 1,5c0.70711,-0.2357 2,-1.74536 2,-1c0,4.3811 -9.97912,14.22389 -13,18c-1.78903,2.23628 -6.60913,9.11929 -10,7c-10.8359,-6.77244 -31.6016,-18.60959 -34,-33c-0.07876,-0.47253 -0.32784,-6.83608 0,-7c5.13346,-2.56673 18.0904,-2 24,-2c20.9903,0 40.94607,4 62,4c1.53372,0 9.97479,-1.02521 11,0c8.79099,8.79099 -5.46903,20.38274 9,24c1.64893,0.41223 3.31072,0.8123 5,1c2.82907,0.31434 9.22497,0.92501 12,0c6.07857,-2.02619 9.49311,-46.17076 10,-52c3.40737,-39.18473 23.36545,-64.16754 -10,-88c-5.82217,-4.1587 -13.66167,-11 -21,-11" fill="none" stroke="black" stroke-linecap="round" stroke-width="5"/>
</svg>
