<?xml version="1.0" ?>
<svg baseProfile="full" height="300" version="1.1" viewBox="[0, 0, 300, 300]" width="300" xmlns="http://www.w3.org/2000/svg" xmlns:ev="http://www.w3.org/2001/xml-events" xmlns:xlink="http://www.w3.org/1999/xlink">
	<defs/>
	<path d="M211,108c0,-10.83006 3.34822,-60.32589 -4,-64c-20.39719,-10.1986 -51.19907,-5 -73,-5c-6.66667,0 -13.33333,0 -20,0c-0.31698,0 -4.97224,-0.13882 -5,0c-2.22987,11.14935 -0.56529,25.69426 0,37c0.42087,8.41743 2.30177,16.62118 3,25c0.11319,1.35828 -1.19474,9.80526 0,11c4.54432,4.54432 77.62528,2 90,2" fill="none" stroke="black" stroke-linecap="round" stroke-width="5"/>
	<path d="M104,139c19.91115,0 37.00646,16.04522 40,37c1.05479,7.38352 -0.72999,14.72999 -6,20c-0.52705,0.52705 -2.52705,0.47295 -2,1c0.97661,0.97661 3.38123,-0.79374 4,-1c12.05295,-4.01765 24.3248,-5 37,-5c3,0 6,0 9,0c1.09196,0 33.88069,-0.52277 34,-1c2.04174,-8.16696 -1.65378,-17.73112 0,-26c0.2473,-1.23648 5,-17 5,-17c0,0 -16.13644,-10.56822 -17,-11c-12.20906,-6.10453 -26.74009,-6 -40,-6c-9.18347,0 -41.31847,-4.68153 -47,1c-0.33333,0.33333 -1,0.5286 -1,1" fill="none" stroke="black" stroke-linecap="round" stroke-width="5"/>
	<path d="M117,86c11.67316,9.33853 29.30857,17.20227 35,32c10.26848,26.69804 -4.77842,47.11369 -11,72c-1.56063,6.24252 -2.31069,50.42233 -12,48c-6.43685,-1.60921 -24.45698,-25.77151 -16,-30c2.61949,-1.30974 9.76665,0.68095 12,1c14.98277,2.1404 29.99994,6.63636 45,8c3.81992,0.34727 21.37169,-2.62831 24,0c8.34417,8.34417 -0.08819,28.68626 21,24c27.79522,-6.17672 23,-46.68127 23,-67c0,-6.49007 6.09988,-70.90012 4,-73c-1.7711,-1.7711 -14.08022,-2.93826 -17,-4c-6.10077,-2.21846 -15.5075,-8 -22,-8" fill="none" stroke="black" stroke-linecap="round" stroke-width="5"/>
</svg>
