<?xml version="1.0" ?>
<svg baseProfile="full" height="300" version="1.1" viewBox="[0, 0, 300, 300]" width="300" xmlns="http://www.w3.org/2000/svg" xmlns:ev="http://www.w3.org/2001/xml-events" xmlns:xlink="http://www.w3.org/1999/xlink">
	<defs/>
	<path d="M203,91c0,-12.47289 5.68377,-42.14528 -3,-53c-17.42032,-21.7754 -37.25096,-6.79151 -60,-3c-3.19979,0.5333 -27.74171,-1.51658 -28,-1c-0.59628,1.19257 0,2.66667 0,4c0,2.64848 -3.07162,62.85676 -2,65c3.22551,6.45102 83.94343,-1.94343 87,-5c0.75588,-0.75588 2,-0.43381 2,-2" fill="none" stroke="black" stroke-linecap="round" stroke-width="5"/>
	<path d="M201,104c0,11.283 37,14.90235 37,52c0,1.12687 0.92767,8.07233 0,9c-5.56214,5.56214 -23.63542,-2.36354 -30,-3c-12.3774,-1.23774 -77.78372,8.21628 -83,3c-4.02489,-4.02489 2.69164,-18.61672 0,-24c-4.95828,-9.91656 -11.70595,-10.70595 -18,-17c-4.96259,-4.96259 20.65734,-11.76573 23,-12c25.07812,-2.50781 48.69814,-3 74,-3" fill="none" stroke="black" stroke-linecap="round" stroke-width="5"/>
	<path d="M114,76c38.6284,0 35.4558,13.53038 33,43c-1.37328,16.47939 -0.73656,31.6828 -4,48c-1.54754,7.73771 -3.83237,35.75144 1,43c0.58471,0.87706 1.74536,2.25464 1,3c-2.66146,2.66146 -51.17635,2.82365 -52,2c-2.53959,-2.53959 0.87338,-38.87338 6,-44c1.6338,-1.6338 40.47236,6 47,6c16.92611,0 34.44503,-1 51,-1c0.61024,0 3.61036,-0.38964 4,0c6.46401,6.46401 7.81215,21.90608 18,27c0.29245,0.14622 11.14454,13.56638 12,11c5.21174,-15.63521 -1.09332,-35.72004 4,-51c8.78644,-26.35931 14.4531,-42.18759 7,-72c-0.38365,-1.5346 1.06441,-6.93559 0,-8c-2.63918,-2.63918 -18.28904,-2.42968 -23,-4c-6.67637,-2.22546 -10.02125,-9 -17,-9" fill="none" stroke="black" stroke-linecap="round" stroke-width="5"/>
</svg>
