<?xml version="1.0" ?>
<svg baseProfile="full" height="300" version="1.1" viewBox="[0, 0, 300, 300]" width="300" xmlns="http://www.w3.org/2000/svg" xmlns:ev="http://www.w3.org/2001/xml-events" xmlns:xlink="http://www.w3.org/1999/xlink">
	<defs/>
	<path d="M195,30c-23.91761,0 -71.17124,-29.45033 -88,0c-1.65444,2.89526 -6,7.6541 -6,11" fill="none" stroke="black" stroke-linecap="round" stroke-width="5"/>
	<path d="M175,33c0,23.66667 0,47.33333 0,71c0,2.66667 0,8 0,8c0,0 0.40427,-9.35088 0,-14c-1.69452,-19.48698 -15,-43.374 -15,-61" fill="none" stroke="black" stroke-linecap="round" stroke-width="5"/>
	<path d="M158,27c0,14 0,28 0,42c0,5.56752 1.36092,13.55633 0,19c-0.11665,0.46659 -1,3.19143 -1,1" fill="none" stroke="black" stroke-linecap="round" stroke-width="5"/>
	<path d="M144,24c0,19.17115 -4.47164,38.03733 -7,57c-1.12489,8.43669 -1.98818,15.95273 -4,24c-0.08085,0.32338 -0.2357,1.2357 0,1c1.17851,-1.17851 2,-2.66667 3,-4" fill="none" stroke="black" stroke-linecap="round" stroke-width="5"/>
	<path d="M126,35c0,18.66667 0,37.33333 0,56c0,7.48259 2.46387,19.60839 0,27c-0.2357,0.70711 -1.74536,2 -1,2c1.66667,0 2.61325,-2.0755 4,-3" fill="none" stroke="black" stroke-linecap="round" stroke-width="5"/>
	<path d="M135,110c19.87299,0 51.32297,-9.36962 58,14c1.19779,4.19227 3.47199,9.58402 2,14c-5.44342,16.33027 -104.24071,24.30857 -88,-19c3.52689,-9.40505 11.2962,-13.05924 21,-15c10.03596,-2.00719 14.9104,7 23,7" fill="none" stroke="black" stroke-linecap="round" stroke-width="5"/>
	<path d="M181,151c0,6.18221 -2.62731,54.94097 2,48" fill="none" stroke="black" stroke-linecap="round" stroke-width="5"/>
	<path d="M165,160c0,10.14118 -2.55868,18.23473 -5,28c-2.15286,8.61143 -2.88461,15.21152 -6,23c-0.1238,0.30949 -0.2357,1.2357 0,1c0.52705,-0.52705 0.66667,-1.33333 1,-2" fill="none" stroke="black" stroke-linecap="round" stroke-width="5"/>
	<path d="M138,161c0,5.57257 -5.67853,34.03558 -4,29" fill="none" stroke="black" stroke-linecap="round" stroke-width="5"/>
	<path d="M113,149c0,6.75254 -4.24607,41.37696 3,45" fill="none" stroke="black" stroke-linecap="round" stroke-width="5"/>
</svg>
