<?xml version="1.0" ?>
<svg baseProfile="full" height="300" version="1.1" viewBox="[0, 0, 300, 300]" width="300" xmlns="http://www.w3.org/2000/svg" xmlns:ev="http://www.w3.org/2001/xml-events" xmlns:xlink="http://www.w3.org/1999/xlink">
	<defs/>
	<path d="M104,23c23.17093,0 48.31209,-2.8617 71,2c8.62429,1.84806 17.81984,10.22454 26,14c13.50845,6.23467 40.86344,11.62921 31,33c-5.56623,12.06016 -26.17905,12 -37,12c-16.23771,0 -94.76208,-7.28625 -102,-29c-7.09182,-21.27545 22.70813,-32.29187 33,-22" fill="none" stroke="black" stroke-linecap="round" stroke-width="5"/>
	<path d="M168,50c-8.44393,0 -16.57005,-1 -25,-1" fill="none" stroke="black" stroke-linecap="round" stroke-width="5"/>
	<path d="M208,95c0,17.42646 0.57881,33.26358 -5,50" fill="none" stroke="black" stroke-linecap="round" stroke-width="5"/>
	<path d="M187,86c0,18.33333 0,36.66667 0,55" fill="none" stroke="black" stroke-linecap="round" stroke-width="5"/>
	<path d="M171,94c0,8.33333 0,16.66667 0,25c0,4.34613 -1,17.34613 -1,13" fill="none" stroke="black" stroke-linecap="round" stroke-width="5"/>
	<path d="M137,85c0,15.91749 -1.97261,33.21911 0,49c0.15446,1.2357 1.29315,1 2,1" fill="none" stroke="black" stroke-linecap="round" stroke-width="5"/>
	<path d="M211,143c0,1.21018 25.12998,25.35598 29,30c0.3724,0.44688 6.10489,4.89511 4,7c-14.75851,14.75851 -29.38095,-23 -37,-23" fill="none" stroke="black" stroke-linecap="round" stroke-width="5"/>
	<path d="M125,142c0,1.89407 16.76478,42.88239 -5,32c-10.6814,-5.3407 -9.1274,-30.61779 -6,-40c0.53781,-1.61344 -1.04327,-3 1,-3" fill="none" stroke="black" stroke-linecap="round" stroke-width="5"/>
	<path d="M135,142c0,19.42993 56.1695,26.8305 63,20c4.23004,-4.23004 -28.85121,-22.1942 -31,-23c-2.89984,-1.08744 -17,1.38952 -17,0" fill="none" stroke="black" stroke-linecap="round" stroke-width="5"/>
	<path d="M193,171c0,9.33333 0,18.66667 0,28" fill="none" stroke="black" stroke-linecap="round" stroke-width="5"/>
	<path d="M150,164c0,5.32849 -13.40504,39 -9,39" fill="none" stroke="black" stroke-linecap="round" stroke-width="5"/>
	<path d="M167,168c0,6 0,12 0,18" fill="none" stroke="black" stroke-linecap="round" stroke-width="5"/>
</svg>
