<?xml version="1.0" ?>
<svg baseProfile="full" height="300" version="1.1" viewBox="[0, 0, 300, 300]" width="300" xmlns="http://www.w3.org/2000/svg" xmlns:ev="http://www.w3.org/2001/xml-events" xmlns:xlink="http://www.w3.org/1999/xlink">
	<defs/>
	<path d="M83,13c0,10.26159 -5,18.75193 -5,29c0,0.66667 -0.6576,2.1096 0,2c31.71633,-5.28605 59.82038,-9.68662 93,-6c2.20393,0.24488 29.93506,4.12987 31,2c2.34497,-4.68994 -2.25327,-27.41776 -7,-29c-7.09712,-2.36571 -18.29262,1.29396 -25,2c-33.05629,3.47961 -68.48585,-1 -102,-1" fill="none" stroke="black" stroke-linecap="round" stroke-width="5"/>
	<path d="M87,42c0,16.38856 -0.35367,119.70734 -6,131" fill="none" stroke="black" stroke-linecap="round" stroke-width="5"/>
	<path d="M127,33c0,44.2628 -6,88.14061 -6,132" fill="none" stroke="black" stroke-linecap="round" stroke-width="5"/>
	<path d="M163,40c2.53155,-2.53155 0.5022,-0.9736 1,5c0.72026,8.64312 1,17.32693 1,26c0,19.33604 3.80171,44.79314 -1,64c-1.65536,6.62142 -5,14.77614 -5,22c0,3.66667 -2.59272,13.59272 0,11c0.40372,-0.40372 3.59628,-5.59628 4,-6" fill="none" stroke="black" stroke-linecap="round" stroke-width="5"/>
	<path d="M194,44c7.08283,24.7899 2,56.83343 2,83c0,9.33333 0,18.66667 0,28c0,2.78484 0,13.9562 0,10" fill="none" stroke="black" stroke-linecap="round" stroke-width="5"/>
	<path d="M85,169c0,-0.74536 1.28332,-0.79523 2,-1c12.53368,-3.58105 25.11233,-0.56804 38,-2c11.45723,-1.27303 65.52415,-6.23792 76,-1c5.26431,2.63216 9.12202,13.15253 13,18c2.36677,2.95846 10,11.00204 10,15" fill="none" stroke="black" stroke-linecap="round" stroke-width="5"/>
	<path d="M82,172c14.98192,0 14.42961,27.21481 26,33c13.07495,6.53748 42.30173,4 57,4c9.55742,0 47.91245,2.54377 53,0c3.17724,-1.58862 20.21298,-7 10,-7" fill="none" stroke="black" stroke-linecap="round" stroke-width="5"/>
	<path d="M223,199c-2.44444,0 0.19444,2.20833 -1,4c-0.88548,1.32822 -8.28709,4.56936 -6,8c4.64345,6.96518 13,11.97433 13,22c0,4.81177 -9.07433,6.4892 -12,10c-0.6281,0.75372 -0.02727,2.74318 1,3c13.03574,3.25894 -6.11829,6.58781 -1,10c2.55704,1.70469 7,2.92682 7,6" fill="none" stroke="black" stroke-linecap="round" stroke-width="5"/>
	<path d="M110,203c-0.57473,1.14947 -7.9239,12.42559 -5,14c4.48584,2.41545 15.76589,7 22,7c0.33333,0 1.2357,-0.2357 1,0c-2.26167,2.26167 -7.93798,0.81284 -11,3c-6.45849,4.61321 -1.75836,7.75836 -6,12c-2.4267,2.4267 -7.46522,1.93044 -9,5c-0.54616,1.09233 11,6.75531 11,14c0,1.41126 0.671,3 -1,3" fill="none" stroke="black" stroke-linecap="round" stroke-width="5"/>
	<path d="M81,172c0,7.0532 0.09454,12.71639 -2,19c-1.37032,4.11096 8.88904,-1.37032 13,0c3.96232,1.32077 -11,1.82335 -11,6c0,2.88126 2.43733,8.12535 1,11c-1.16428,2.32857 -5.17673,2.53018 -6,5c-2.01014,6.03042 2.64906,19.35094 -2,24" fill="none" stroke="black" stroke-linecap="round" stroke-width="5"/>
</svg>
