<?xml version="1.0" ?>
<svg baseProfile="full" height="300" version="1.1" viewBox="[0, 0, 300, 300]" width="300" xmlns="http://www.w3.org/2000/svg" xmlns:ev="http://www.w3.org/2001/xml-events" xmlns:xlink="http://www.w3.org/1999/xlink">
	<defs/>
	<path d="M63,10c0,3.5097 -2.63562,30.67288 4,32c10.81015,2.16203 24.07421,-0.40466 35,0c24.57759,0.91028 45.35655,1.94058 69,-2c14.16434,-2.36072 31.12301,-4 45,-4c0.58645,0 3.91148,0.26556 4,0c0.92196,-2.76588 1.49902,-27.66732 -2,-30c-1.69122,-1.12748 -5.13182,1 -7,1c-11.66667,0 -23.33333,0 -35,0c-40.13101,0 -80.15751,1 -120,1" fill="none" stroke="black" stroke-linecap="round" stroke-width="5"/>
	<path d="M76,42c0,15.49053 1,31.35016 1,47" fill="none" stroke="black" stroke-linecap="round" stroke-width="5"/>
	<path d="M101,46c0,16.73876 -4,33.83129 -4,50" fill="none" stroke="black" stroke-linecap="round" stroke-width="5"/>
	<path d="M132,45c10.80975,0 -4,40.11515 -4,47" fill="none" stroke="black" stroke-linecap="round" stroke-width="5"/>
	<path d="M154,45c2.65667,-2.65667 2,12.01985 2,14c0,9 0,18 0,27c0,1.33333 -0.56667,2 1,2" fill="none" stroke="black" stroke-linecap="round" stroke-width="5"/>
	<path d="M184,49c0,-18.47731 0.6362,24.27424 0,30c-0.0542,0.48777 -3.04592,11 -3,11c1.37437,0 2.66667,-0.66667 4,-1" fill="none" stroke="black" stroke-linecap="round" stroke-width="5"/>
	<path d="M212,41c1.49071,0 1.8762,2.51444 2,4c0.90637,10.87643 -3.38057,41.61943 5,50" fill="none" stroke="black" stroke-linecap="round" stroke-width="5"/>
	<path d="M119,47c-5.14899,10.29798 0,29.42499 0,41" fill="none" stroke="black" stroke-linecap="round" stroke-width="5"/>
	<path d="M77,94c0,-3.23783 49.68376,-2.75193 56,-2c30.98975,3.68926 57.97771,5 89,5c1.03673,0 9.45607,-0.77197 11,0c3.33333,1.66667 3.90401,6.43802 5,10c5.41781,17.60788 11.09038,26.09038 23,38" fill="none" stroke="black" stroke-linecap="round" stroke-width="5"/>
	<path d="M75,91c20.48386,0 30.68337,64.56112 41,68c8.43215,2.81072 89.4707,2.65879 105,-2c10.10209,-3.03063 24.9869,-12 34,-12c1.69967,0 1,3.30033 1,5c0,16.42428 -1,32.55515 -1,49" fill="none" stroke="black" stroke-linecap="round" stroke-width="5"/>
	<path d="M124,158c4.28824,8.57648 5.2749,43.7251 -3,52" fill="none" stroke="black" stroke-linecap="round" stroke-width="5"/>
	<path d="M74,90c5.1483,0 4.35208,5.46458 5,10c3.04928,21.34494 -4.2461,54.5078 5,73" fill="none" stroke="black" stroke-linecap="round" stroke-width="5"/>
	<path d="M228,152c-1.20185,0 -2,1.79815 -2,3c0,14.06564 -2,27.93026 -2,42" fill="none" stroke="black" stroke-linecap="round" stroke-width="5"/>
</svg>
