<?xml version="1.0" ?>
<svg baseProfile="full" height="300" version="1.1" viewBox="[0, 0, 300, 300]" width="300" xmlns="http://www.w3.org/2000/svg" xmlns:ev="http://www.w3.org/2001/xml-events" xmlns:xlink="http://www.w3.org/1999/xlink">
	<defs/>
	<path d="M80,32c29.16387,0 56.2989,5.39081 85,8c22.79624,2.07239 47.13158,0 70,0" fill="none" stroke="black" stroke-linecap="round" stroke-width="5"/>
	<path d="M102,37c0,24.24768 -1,47.95542 -1,72" fill="none" stroke="black" stroke-linecap="round" stroke-width="5"/>
	<path d="M135,43c0,26.52692 -3,52.51812 -3,79" fill="none" stroke="black" stroke-linecap="round" stroke-width="5"/>
	<path d="M164,46c4.01163,20.05817 1,42.48852 1,63" fill="none" stroke="black" stroke-linecap="round" stroke-width="5"/>
	<path d="M201,45c0,17.25622 5.50003,34.8748 3,53c-1.5479,11.2223 -5,18.12916 -5,29" fill="none" stroke="black" stroke-linecap="round" stroke-width="5"/>
	<path d="M163,107c0,5.33333 0,10.66667 0,16" fill="none" stroke="black" stroke-linecap="round" stroke-width="5"/>
	<path d="M102,105c-3.38031,0 -7.5883,22.06862 -2,23c31.17994,5.19666 63.46167,7.49452 95,12c5.69997,0.81428 17.68097,-7.31903 22,-3c7.61027,7.61027 11.79044,17.58885 19,26c5.43213,6.33749 23,12.12813 23,21" fill="none" stroke="black" stroke-linecap="round" stroke-width="5"/>
	<path d="M99,124c0,11.94015 15.82204,68.91102 28,75c3.84177,1.92089 75.09575,1.39042 89,0c7.12001,-0.712 42.34611,-17.65389 45,-15c0.25343,0.25343 -11.69062,8.69062 -13,10c-0.76809,0.76809 10.01275,13.98725 5,19c-1.79629,1.79629 -10.13167,2.60498 -9,6c0.28373,0.85119 4.29075,14.57445 5,15c7.34462,4.40677 15.85438,-0.14562 23,7c1,1 -1.622,2.682 -3,3c-3.5875,0.82788 -11,-2.68179 -11,1c0,1.51464 3,2.61219 3,5" fill="none" stroke="black" stroke-linecap="round" stroke-width="5"/>
	<path d="M134,198c-6.98497,0 -12.94786,0.94786 -18,6c-0.94815,0.94815 15.77799,1.88804 15,5c-0.44387,1.77547 -14.71752,12.04331 -11,17c1.28513,1.7135 7.11263,10.19113 9,11c1.93773,0.83045 6,-0.10819 6,2c0,1.45642 -3,4.87039 -3,7" fill="none" stroke="black" stroke-linecap="round" stroke-width="5"/>
	<path d="M91,128c0,-0.8467 14.03569,-3.14275 12,5c-2.40829,9.63317 -32.55513,12.73385 -19,29c14.22913,17.07496 -15.76268,6.47464 -12,14c1.60555,3.21109 11.60555,0.78891 10,4c-1.08243,2.16485 -9.10271,6.5982 -4,10c1,0.66667 3.84984,1.15016 3,2c-3.34043,3.34043 -7.24576,1.96606 -8,8c-0.46225,3.698 5,6.27322 5,10c0,7.11522 -4.17708,7.35417 -7,13" fill="none" stroke="black" stroke-linecap="round" stroke-width="5"/>
	<path d="M222,198c-2.4552,0.6138 -5.75753,1.25251 -8,2c-1.16326,0.38775 6.51525,2.48475 4,5c-6.33178,6.33178 -3.83806,17.64777 -2,25c0.41093,1.6437 -1.11654,6 1,6" fill="none" stroke="black" stroke-linecap="round" stroke-width="5"/>
</svg>
