<?xml version="1.0" ?>
<svg baseProfile="full" height="300" version="1.1" viewBox="[0, 0, 300, 300]" width="300" xmlns="http://www.w3.org/2000/svg" xmlns:ev="http://www.w3.org/2001/xml-events" xmlns:xlink="http://www.w3.org/1999/xlink">
	<defs/>
	<path d="M62,8c5.43384,0 -5.40976,27.45902 0,28c26.42108,2.64211 54.97943,-4.87886 81,0c12.31356,2.30879 23.19434,7.71943 36,9c24.28501,2.4285 43,5.59876 43,-20c0,-3.60766 1.61574,-11.76851 0,-15c-1.41421,-2.82843 -5.84167,2.84208 -9,3c-10.98628,0.54931 -22,0 -33,0c-23.84896,0 -54.05432,-2.99321 -78,0c-6.49494,0.81187 -33.62266,8.37734 -40,2" fill="none" stroke="black" stroke-linecap="round" stroke-width="5"/>
	<path d="M86,39c1.69967,0 1,3.30033 1,5c0,11.691 2.39972,26.20055 -3,37" fill="none" stroke="black" stroke-linecap="round" stroke-width="5"/>
	<path d="M119,42c0,16.53494 -2,32.63567 -2,49" fill="none" stroke="black" stroke-linecap="round" stroke-width="5"/>
	<path d="M152,44c0,3.99632 -2.80307,36 3,36" fill="none" stroke="black" stroke-linecap="round" stroke-width="5"/>
	<path d="M175,51c3.85045,7.7009 8.52316,35 14,35" fill="none" stroke="black" stroke-linecap="round" stroke-width="5"/>
	<path d="M206,46c0,16.72563 4,32.55848 4,49" fill="none" stroke="black" stroke-linecap="round" stroke-width="5"/>
	<path d="M66,45c0,16.33333 0,32.66667 0,49" fill="none" stroke="black" stroke-linecap="round" stroke-width="5"/>
	<path d="M104,39c0,18.33333 0,36.66667 0,55" fill="none" stroke="black" stroke-linecap="round" stroke-width="5"/>
	<path d="M67,93c42.33333,0 84.66667,0 127,0c3.37749,0 13.33165,-1.83417 15,-1c9.10847,4.55423 10.01297,39 29,39" fill="none" stroke="black" stroke-linecap="round" stroke-width="5"/>
	<path d="M57,92c29.75505,0 23.39247,57.19623 39,65c7.14726,3.57363 24.51219,-0.3941 32,0c47.12915,2.48048 62.59458,4.20271 105,-17c2.27901,-1.1395 6.13807,-0.13807 8,-2" fill="none" stroke="black" stroke-linecap="round" stroke-width="5"/>
	<path d="M58,95c7.12128,7.12128 -2,81.27826 -2,97" fill="none" stroke="black" stroke-linecap="round" stroke-width="5"/>
	<path d="M92,157c7.58101,2.527 0,37.78594 0,48" fill="none" stroke="black" stroke-linecap="round" stroke-width="5"/>
	<path d="M239,134c-2.2,0 -1,10.26126 -1,12c0,25.6394 -1,51.49676 -1,77" fill="none" stroke="black" stroke-linecap="round" stroke-width="5"/>
	<path d="M204,155c3.85609,0 7.74772,30.50455 4,38" fill="none" stroke="black" stroke-linecap="round" stroke-width="5"/>
</svg>
