<?xml version="1.0" ?>
<svg baseProfile="full" height="300" version="1.1" viewBox="[0, 0, 300, 300]" width="300" xmlns="http://www.w3.org/2000/svg" xmlns:ev="http://www.w3.org/2001/xml-events" xmlns:xlink="http://www.w3.org/1999/xlink">
	<defs/>
	<path d="M154,82c-14.07336,14.07336 -49.53492,3.53492 -63,17c-3.13943,3.13943 13.3139,54.26278 17,55c11.04966,2.20993 34.7169,-13.08854 43,-17c4.14914,-1.95932 30.40234,-10.40234 35,-15c2.61223,-2.61223 -3.47714,-9.30285 -4,-10c-8.08905,-10.7854 -21.48307,-42.51693 -34,-30c-0.2357,0.2357 -0.66667,0 -1,0" fill="none" stroke="black" stroke-linecap="round" stroke-width="5"/>
	<path d="M105,88c0,-8.86523 -6.23608,-20.71937 -10,-29c-1.42012,-3.12427 -7.7455,-11.05913 -5,-9c1.7075,1.28062 3.33333,2.66667 5,4" fill="none" stroke="black" stroke-linecap="round" stroke-width="5"/>
	<path d="M119,75c0,1 0.24254,-2.02986 0,-3c-1.02262,-4.09048 -2.75027,-7.9731 -4,-12c-3.29772,-10.626 -7.57711,-19.73134 -11,-30c0,0 0,-2.66667 0,0" fill="none" stroke="black" stroke-linecap="round" stroke-width="5"/>
	<path d="M148,88c0,-13.3645 -10,-24.21119 -10,-36" fill="none" stroke="black" stroke-linecap="round" stroke-width="5"/>
	<path d="M165,79c0,1 0.27472,-2.03848 0,-3c-1.03576,-3.62515 -4.63783,-10.27565 -6,-13c-4.48362,-8.96724 -8.12963,-25.12963 -15,-32" fill="none" stroke="black" stroke-linecap="round" stroke-width="5"/>
	<path d="M144,27c-4.47214,0 -8,4 -12,6c-16.01679,8.0084 -31.42425,16.17469 -48,23c-2.45913,1.01258 -19.72147,13.27853 -24,9c-5.83647,-5.83647 -9.28406,-20.27827 -11,-28c-5.14609,-23.15741 35.99652,-20.90814 51,-25c10.29712,-2.80831 23.23594,-2.09438 33,-6c1.57811,-0.63124 4.46252,-2.61245 5,-1c2.27094,6.81281 3,16.94644 3,24" fill="none" stroke="black" stroke-linecap="round" stroke-width="5"/>
	<path d="M119,155c18.9866,0 0.48833,13.2675 -6,23c-0.31652,0.47477 -1.90698,2.09302 -1,3c1.08284,1.08284 4.32661,-0.67339 6,1c2.7194,2.7194 0.08209,6.54104 5,9c1.44152,0.72076 4.23729,4.43583 5,4c10.99769,-6.28439 16.99288,-17.98983 24,-28c0.1608,-0.22972 1.76007,-1.23993 1,-2c-7.50018,-7.50018 -18,-6.21908 -18,-21" fill="none" stroke="black" stroke-linecap="round" stroke-width="5"/>
</svg>
