<?xml version="1.0" ?>
<svg baseProfile="full" height="300" version="1.1" viewBox="[0, 0, 300, 300]" width="300" xmlns="http://www.w3.org/2000/svg" xmlns:ev="http://www.w3.org/2001/xml-events" xmlns:xlink="http://www.w3.org/1999/xlink">
	<defs/>
	<path d="M126,150c25.44306,0 50.55372,-31 76,-31c2.02759,0 1,3.97241 1,6c0,17.91043 0.51732,35.20782 2,53c0.30182,3.62182 6.2579,28.7421 3,32c-6.63864,6.63864 -22.90098,7.52745 -31,9c-5.15037,0.93643 -48.49171,7.50829 -53,3c-0.96492,-0.96492 -21.69205,-71.30795 -14,-79c2.04798,-2.04798 13.49419,0 17,0" fill="none" stroke="black" stroke-linecap="round" stroke-width="5"/>
	<path d="M133,137c2.68742,0 1,-5.31258 1,-8c0,-23.70563 -4,-47.93494 -4,-71" fill="none" stroke="black" stroke-linecap="round" stroke-width="5"/>
	<path d="M150,128c0,-20.33333 0,-40.66667 0,-61" fill="none" stroke="black" stroke-linecap="round" stroke-width="5"/>
	<path d="M168,126c0,-11 0,-22 0,-33" fill="none" stroke="black" stroke-linecap="round" stroke-width="5"/>
	<path d="M185,143c0.62155,-4.9724 0.80741,-9.9926 1,-15c0.83492,-21.70803 1,-43.28827 1,-65c0,-0.78301 0.49898,-4.50102 0,-5c-6.2119,-6.2119 -95.87992,33.96066 -100,1c-0.27225,-2.17797 -1.46032,-29.51323 0,-30c12.06786,-4.02262 32.74578,0.40847 45,0c36.4835,-1.21612 53,-15.11437 53,27" fill="none" stroke="black" stroke-linecap="round" stroke-width="5"/>
	<path d="M136,224c0,-1.25493 8.6535,-2.307 4,7c-3.51544,7.03087 -9.86358,9.72716 -13,16c-0.95452,1.90904 4,2.86563 4,5c0,1.89418 -2.52196,10.47804 -2,11c2.98398,2.98398 10.47294,-0.52706 13,2c0.62986,0.62986 -0.8107,3.59465 0,4c1.14056,0.57028 4.59745,-2.69809 5,-3c16.22897,-12.17172 0.95781,-20.87343 3,-27c1.65915,-4.97746 13.47381,-18 -1,-18" fill="none" stroke="black" stroke-linecap="round" stroke-width="5"/>
</svg>
