<?xml version="1.0" ?>
<svg baseProfile="full" height="300" version="1.1" viewBox="[0, 0, 300, 300]" width="300" xmlns="http://www.w3.org/2000/svg" xmlns:ev="http://www.w3.org/2001/xml-events" xmlns:xlink="http://www.w3.org/1999/xlink">
	<defs/>
	<path d="M100,117c-9.82102,7.36576 -75.30422,66.69578 -59,83c10.29259,10.29259 52.9968,-4.0032 56,-1c8.43058,8.43058 -12.53079,43.23461 -5,47c11.30111,5.65055 38.91921,-9.88597 44,-13c32.42929,-19.87602 141.69684,-102.5837 123,-154c-3.06797,-8.43691 -42.81452,-9.67009 -52,-8c-10.56829,1.92151 -16.32639,9.6632 -25,14c-1.72592,0.86296 -4.07012,-8.32578 -7,-10c-5.79552,-3.31172 -13.42098,-2.12783 -20,-1c-11.76313,2.01654 -70,34.12863 -70,53" fill="none" stroke="black" stroke-linecap="round" stroke-width="5"/>
</svg>
