<?xml version="1.0" ?>
<svg baseProfile="full" height="300" version="1.1" viewBox="[0, 0, 300, 300]" width="300" xmlns="http://www.w3.org/2000/svg" xmlns:ev="http://www.w3.org/2001/xml-events" xmlns:xlink="http://www.w3.org/1999/xlink">
	<defs/>
	<path d="M89,138c-7.5142,0 -13.06759,4.02897 -20,7c-4.94975,2.12132 -10.06634,3.84152 -15,6c-30.99083,13.55849 1.48742,29 21,29c1.59918,0 4.12545,-0.7491 5,1c7.04036,14.08073 -24.8067,27.5799 -20,42c2.66924,8.00773 31.4253,5.46456 37,5c7.92216,-0.66018 93.82814,-18.82814 100,-25c15.37924,-15.37924 -23.03564,-35.16915 -32,-38c-0.66263,-0.20925 -29.41379,-0.82758 -30,-2c-4.69215,-9.38431 13.47386,-18.16442 -2,-23c-17.79962,-5.56238 -32.46194,-1 -46,-1" fill="none" stroke="black" stroke-linecap="round" stroke-width="5"/>
</svg>
