<?xml version="1.0" ?>
<svg baseProfile="full" height="300" version="1.1" viewBox="[0, 0, 300, 300]" width="300" xmlns="http://www.w3.org/2000/svg" xmlns:ev="http://www.w3.org/2001/xml-events" xmlns:xlink="http://www.w3.org/1999/xlink">
	<defs/>
	<path d="M105,147c0,-14.28657 24.68241,-10.68241 31,-17c0.78541,-0.78541 -0.85634,-3.71268 -1,-4c-0.33333,-0.66667 -0.58655,-1.37983 -1,-2c-0.9245,-1.38675 -1.89273,-2.75432 -3,-4c-7.94574,-8.93896 -11.73313,-19.56596 -15,-31c-0.37757,-1.32149 -2.22927,-3.38536 -1,-4c14.90667,-7.45334 34.71586,-3.90529 50,-9c0.21153,-0.07051 2.91243,-0.13136 3,0c5.10556,7.65834 3.90436,20.80873 8,29c0.72795,1.45589 24.86819,-8.52725 25,-8c2.03419,8.13676 1.27889,18.70722 2,27c0.55545,6.38769 1.74254,12.71272 3,19c0.4576,2.28802 -0.3836,4.69841 0,7c1.37831,8.26984 -4.31378,-8.78444 -6,-13c-4.67208,-11.6802 -10,-25.10929 -10,-38" fill="none" stroke="black" stroke-linecap="round" stroke-width="5"/>
	<path d="M113,133c0,9.16429 2.03185,15.56769 6,24c2.92601,6.21777 5.20908,12.72043 8,19c18.02004,40.54508 8.63964,-28.36036 -4,-41" fill="none" stroke="black" stroke-linecap="round" stroke-width="5"/>
	<path d="M129,137c15.4472,0 35.95397,52.95397 41,58c1.4354,1.4354 39.47343,-12.75533 43,-14c5.12872,-1.81014 15.02047,-4.02047 18,-7c5.31744,-5.31744 -11.99464,-18.99464 -15,-22c-10.59564,-10.59564 -29.48095,-8 -45,-8c-1.07735,0 -24,-1.30515 -24,1" fill="none" stroke="black" stroke-linecap="round" stroke-width="5"/>
	<path d="M185,199c4.42871,13.28614 15,30.88178 15,45" fill="none" stroke="black" stroke-linecap="round" stroke-width="5"/>
	<path d="M232,181c0,11.51912 10,22.34572 10,33" fill="none" stroke="black" stroke-linecap="round" stroke-width="5"/>
</svg>
