<?xml version="1.0" ?>
<svg baseProfile="full" height="300" version="1.1" viewBox="[0, 0, 300, 300]" width="300" xmlns="http://www.w3.org/2000/svg" xmlns:ev="http://www.w3.org/2001/xml-events" xmlns:xlink="http://www.w3.org/1999/xlink">
	<defs/>
	<path d="M99,65c3.96024,-1.32008 82.39588,-11.60412 87,-7c2.03344,2.03344 0,18.99922 0,21c0,2.94706 2.36762,18.63238 0,21c-4.53001,4.53001 -41.46688,0.95491 -43,1c-4.06414,0.11953 -52.06311,3.93689 -54,2c-15.37404,-15.37404 -6.24909,-37 14,-37" fill="none" stroke="black" stroke-linecap="round" stroke-width="5"/>
	<path d="M103,98c0,24.56089 16,50.37845 16,74" fill="none" stroke="black" stroke-linecap="round" stroke-width="5"/>
	<path d="M124,103c0,16.53818 8.56243,43.12487 16,58" fill="none" stroke="black" stroke-linecap="round" stroke-width="5"/>
	<path d="M147,103c11.75766,11.75766 8.64494,39.28989 16,54" fill="none" stroke="black" stroke-linecap="round" stroke-width="5"/>
	<path d="M173,107c0,-4.71405 1.03855,9.38504 2,14c2.54221,12.20261 8,27.52205 8,40" fill="none" stroke="black" stroke-linecap="round" stroke-width="5"/>
	<path d="M105,175c3.30386,0 18.66416,-7.33584 23,-3c1.13403,1.13403 -2.89243,7.77689 -2,8c3.67512,0.91878 11.85287,-2.09809 15,0c2.85199,1.90132 -4.58394,6.58394 -5,7c-1.94365,1.94365 0.05635,6.05635 2,8c1.92826,1.92826 5.83535,0.91768 8,2c2.61367,1.30683 -0.52618,8.47382 1,10c1,1 5,-1 6,0c1.01987,1.01987 0,11.06892 0,12c0,1.10942 -0.56796,6 -3,6c-8.03708,0 -14.14014,-6.51893 -20,-11c-3.49151,-2.66998 -16.25691,-9.51383 -19,-15c-2.78956,-5.57911 7.12519,-9.12519 10,-12c1.2693,-1.2693 -5,-0.20495 -5,-2c0,-1.38415 -6,-10.28389 -6,-15" fill="none" stroke="black" stroke-linecap="round" stroke-width="5"/>
</svg>
