<?xml version="1.0" ?>
<svg baseProfile="full" height="300" version="1.1" viewBox="[0, 0, 300, 300]" width="300" xmlns="http://www.w3.org/2000/svg" xmlns:ev="http://www.w3.org/2001/xml-events" xmlns:xlink="http://www.w3.org/1999/xlink">
	<defs/>
	<path d="M84,94c0,18.80784 -31.11098,56.22256 -24,74c4.76722,11.91805 38.27823,3.29752 49,1c2.3047,-0.49386 6.73971,-3.34261 7,-1c1.74251,15.68258 -18.86328,37.319 -13,51c6.33029,14.77067 47.76336,-10.17323 53,-14c30.12752,-22.01626 59.1867,-51.49363 64,-90c6.42547,-51.40377 -79.66503,-20.66503 -91,-32c-1.94766,-1.94766 13.78474,-19.74684 11,-20c-37.45705,-3.40519 -48.14719,-7.42134 -67,24c-3.66429,6.10715 -7,13.81485 -7,21" fill="none" stroke="black" stroke-linecap="round" stroke-width="5"/>
</svg>
