<?xml version="1.0" ?>
<svg baseProfile="full" height="300" version="1.1" viewBox="[0, 0, 300, 300]" width="300" xmlns="http://www.w3.org/2000/svg" xmlns:ev="http://www.w3.org/2001/xml-events" xmlns:xlink="http://www.w3.org/1999/xlink">
	<defs/>
	<path d="M78,92c0,-1.80328 -0.51465,-2.46115 2,-3c27.29255,-5.8484 54.59702,-10.7302 82,-16c1.35876,-0.2613 24.3429,-2.97129 25,-1c1.85169,5.55506 -0.97385,11.86926 -2,17c-0.62832,3.14158 1.04048,7.87856 0,11c-0.49047,1.4714 -1.91585,1 -3,1c-15.74154,0 -31.29061,-0.4583 -47,-1c-26.17419,-0.90256 -54,12.15603 -54,-20" fill="none" stroke="black" stroke-linecap="round" stroke-width="5"/>
	<path d="M92,100c0,-1.66667 0,3.33333 0,5c0,4.80557 0.45955,9.37865 2,14c3.10843,9.3253 9.92305,20.92305 16,27c2.30866,2.30866 0.53213,8.06427 2,11c0.14907,0.29814 -0.2357,0.7643 0,1c2.88427,2.88427 21.04051,-5.76972 22,-6c8.97165,-2.1532 77.99604,-9.99604 83,-15c1.7805,-1.7805 -1.6666,-6.1665 -2,-7c-3.3539,-8.38475 -8.8715,-22.8715 -15,-29c-3.98959,-3.98959 -12.17219,-4.17219 -15,-7c-0.2357,-0.2357 0,-0.66667 0,-1" fill="none" stroke="black" stroke-linecap="round" stroke-width="5"/>
	<path d="M122,150c8.5122,0 28.44787,3.76065 26,16c-1.67091,8.35456 -8.81227,15.88086 -13,23c-1.97094,3.3506 -3.66762,6.89016 -6,10c-0.72111,0.96148 -3.16597,2.70851 -2,3c4.93238,1.23309 22.45617,-3.54383 25,-1c2.17699,2.17699 -2.82036,7.17964 -1,9c2.3214,2.3214 4.4072,5.7424 4,9c-0.13822,1.10573 -3.14776,10.64433 -1,10c11.10723,-3.33217 20.84472,-9.835 30,-17c4.10041,-3.20901 7.76303,-6.97359 12,-10c16.10863,-11.50616 -26.66483,-16.66483 -29,-19c-2.98991,-2.98991 5.27578,-18.72422 2,-22c-2.73806,-2.73806 -10.88867,-1.88867 -13,-4c-2.79063,-2.79063 -2,-6.6608 -2,-11" fill="none" stroke="black" stroke-linecap="round" stroke-width="5"/>
</svg>
