<?xml version="1.0" ?>
<svg baseProfile="full" height="300" version="1.1" viewBox="[0, 0, 300, 300]" width="300" xmlns="http://www.w3.org/2000/svg" xmlns:ev="http://www.w3.org/2001/xml-events" xmlns:xlink="http://www.w3.org/1999/xlink">
	<defs/>
	<path d="M182,60c-16.50597,0 -98.09264,-8.81472 -103,1c-2.07117,4.14233 7.79827,22.39482 9,26c1.71549,5.14648 4.20029,21.20029 8,25c0.90288,0.90288 39.86465,2 41,2c31.28144,0 79.34068,10.02203 63,-39c-3.40645,-10.21936 -23.09981,-15.09981 -29,-21" fill="none" stroke="black" stroke-linecap="round" stroke-width="5"/>
	<path d="M200,71c0,7.07388 31.72869,35.82173 37,49c0.60486,1.51216 3.54861,6.45139 3,7c-2.68847,2.68847 -16.24959,-14.14239 -17,-15c-9.8135,-11.21543 -16.02475,-17.02475 -25,-26" fill="none" stroke="black" stroke-linecap="round" stroke-width="5"/>
	<path d="M80,85c-17.86891,0 15.41,54.47 23,57c0.20869,0.06956 6.29315,1.70685 7,1c2.48107,-2.48107 -8.69618,-13.39236 -10,-16c-4.41231,-8.82462 -7,-25.22144 -7,-35" fill="none" stroke="black" stroke-linecap="round" stroke-width="5"/>
	<path d="M106,113c0,-2 0.10512,4.00276 0,6c-0.10499,1.99472 -1.45545,19.73271 -2,23c-1.97988,11.87926 -16.67345,45.66328 -2,53c4.01784,2.00892 4.27056,-2.44697 5,-5c6.77387,-23.70853 1,-46.37201 1,-69" fill="none" stroke="black" stroke-linecap="round" stroke-width="5"/>
	<path d="M178,113c0,12.00282 -4.08724,60.91276 2,67c0.97183,0.97183 3.38536,2.22927 4,1c6.55412,-13.10825 -5,-49.09987 -5,-65" fill="none" stroke="black" stroke-linecap="round" stroke-width="5"/>
	<path d="M178,116c-9.93685,0 -18.42381,4.60595 -28,7c-6.41166,1.60292 -14.34551,2.21712 -21,3c-5.27593,0.6207 -11.65398,2 -17,2c-23.68113,0 27.78517,29.10741 60,13c3.69213,-1.84607 7,-0.65914 7,-5" fill="none" stroke="black" stroke-linecap="round" stroke-width="5"/>
</svg>
