<?xml version="1.0" ?>
<svg baseProfile="full" height="300" version="1.1" viewBox="[0, 0, 300, 300]" width="300" xmlns="http://www.w3.org/2000/svg" xmlns:ev="http://www.w3.org/2001/xml-events" xmlns:xlink="http://www.w3.org/1999/xlink">
	<defs/>
	<path d="M86,152c-2.39164,0 -0.92715,-12.12581 -1,-13c-2.01838,-24.2205 -3,-48.60205 -3,-73c0,-3 0,-9 0,-9c0,0 -18,11.57581 -18,2c0,-1.33783 -0.85684,-8.14316 0,-9c6.07414,-6.07414 100.56283,-5.21858 111,0c3.39935,1.69967 -2.07822,7.31289 -3,11c-0.53502,2.14008 0.16859,11.83141 -1,13c-0.70711,0.70711 -2,0 -3,0c-14.78187,0 -31.42494,-6 -48,-6c-13.73802,0 -24.92727,-10 -37,-10" fill="none" stroke="black" stroke-linecap="round" stroke-width="5"/>
	<path d="M90,65c0,31.46509 6,64.97286 6,96" fill="none" stroke="black" stroke-linecap="round" stroke-width="5"/>
	<path d="M107,70c0,10.66667 0,21.33333 0,32c0,8.34 0.58352,16.67041 1,25c0.33292,6.65835 0,13.33333 0,20c0,2.66667 0,5.33333 0,8c0,4.54757 5.16789,5.99266 6,1c1.26246,-7.57478 0,-17.41086 0,-25c0,-21 0,-42 0,-63" fill="none" stroke="black" stroke-linecap="round" stroke-width="5"/>
	<path d="M133,66c0,12.89728 -4.87045,106.12955 -2,109c1.33805,1.33805 2.84454,-1.37815 3,-2c3.07792,-12.31166 2,-26.48483 2,-39c0,-21 0,-42 0,-63" fill="none" stroke="black" stroke-linecap="round" stroke-width="5"/>
	<path d="M157,72c0,12.48774 -6.84576,70.15424 -1,76c1.05303,1.05303 3.84159,-0.20793 4,-1c4.77498,-23.87489 3,-48.59662 3,-73" fill="none" stroke="black" stroke-linecap="round" stroke-width="5"/>
	<path d="M160,147c-14.02246,0 -27.91428,-1 -42,-1c-11,0 -22,0 -33,0c-5.803,0 -11.26921,0.14616 -17,-1c-2.69536,-0.53907 -8.86923,-4.60768 -8,-2c2.6897,8.0691 20.80849,21.04679 27,26c33.82559,27.06047 115.39917,17.39917 75,-23" fill="none" stroke="black" stroke-linecap="round" stroke-width="5"/>
	<path d="M168,181c0,2.27531 1.35998,12.64002 0,14c-1.9919,1.9919 -7.76783,6.53566 -9,9c-0.49867,0.99735 3,1.55979 3,4c0,3.27018 5.59059,2.18118 7,5c1.59272,3.18544 -1.22268,7.77732 1,10c3.8658,3.8658 -12.44495,8.1101 -10,13c1.3348,2.6696 13.2712,7.9096 16,7c3.07841,-1.02614 1.89961,-7.89572 2,-9c1.36547,-15.02017 2.54285,-27.82858 -1,-42c-2.54387,-10.17549 -8,-12.3667 -8,-23" fill="none" stroke="black" stroke-linecap="round" stroke-width="5"/>
	<path d="M129,186c0,2.99867 4.6571,11.3429 3,13c-5.21223,5.21223 -20,16.8926 -20,29c0,0.22245 16.10698,14 19,14c0.23077,0 2.96154,0.11538 3,0c4.85093,-14.55279 8.20957,-39.95213 5,-56c-0.26022,-1.30109 -0.97837,-5 -2,-5" fill="none" stroke="black" stroke-linecap="round" stroke-width="5"/>
	<path d="M68,151c0,21.26552 -1.49962,40.99774 -5,62c-0.33333,2 -2.81353,5.09324 -1,6c5.06177,2.53088 17.70118,-0.80472 19,-6c1.07384,-4.29536 2.22912,-18.54176 0,-23c-1.79505,-3.59011 -9,-3.98614 -9,-8c0,-1.05089 -0.57347,-5.23537 0,-6c3.86116,-5.14821 27.21467,-16 12,-16" fill="none" stroke="black" stroke-linecap="round" stroke-width="5"/>
	<path d="M82,200c0,-11.24913 -1.79634,45.00457 3,51c0.41646,0.52058 1.33333,0 2,0c5.26934,0 3.367,-29.93599 4,-35" fill="none" stroke="black" stroke-linecap="round" stroke-width="5"/>
</svg>
