<?xml version="1.0" ?>
<svg baseProfile="full" height="300" version="1.1" viewBox="[0, 0, 300, 300]" width="300" xmlns="http://www.w3.org/2000/svg" xmlns:ev="http://www.w3.org/2001/xml-events" xmlns:xlink="http://www.w3.org/1999/xlink">
	<defs/>
	<path d="M106,72c0,5.64758 -54.969,37.031 -42,50c10.21215,10.21215 40.37114,3.64292 52,1c0.43981,-0.09996 14.49204,-5.03182 15,-3c3.85269,15.41075 -22.48508,51.51492 -16,58c38.38484,38.38484 108.98705,-59.97411 123,-88c2.92393,-5.84787 -7.51949,-7.46076 -10,-8c-18.18082,-3.95235 -35.89318,-3.4911 -54,-5c-13.85181,-1.15432 -23.65705,-2.94231 -26,-17c-0.03058,-0.18348 -1.2194,-2.88849 -2,-3c-14.04049,-2.00578 -27.61521,3.17186 -40,9c-10.39015,4.88948 -10,8.44646 -10,19" fill="none" stroke="black" stroke-linecap="round" stroke-width="5"/>
</svg>
