<?xml version="1.0" ?>
<svg baseProfile="full" height="300" version="1.1" viewBox="[0, 0, 300, 300]" width="300" xmlns="http://www.w3.org/2000/svg" xmlns:ev="http://www.w3.org/2001/xml-events" xmlns:xlink="http://www.w3.org/1999/xlink">
	<defs/>
	<path d="M192,63c-26.29924,0 -52.93248,0 -79,0c-3.59922,0 -5.49022,7.50978 -3,10c4.2062,4.2062 71.28646,9.71354 74,7c4.19811,-4.19811 5,-7.39424 5,-14" fill="none" stroke="black" stroke-linecap="round" stroke-width="5"/>
	<path d="M118,73c0,15.86694 1.2238,32.43337 -1,48c-0.34053,2.38372 -2.95629,12.04371 -1,14c1.90029,1.90029 0.75669,-5.32362 1,-8c0.48662,-5.35277 1.18272,-10.68766 2,-16c1.9449,-12.64187 6,-24.59274 6,-37" fill="none" stroke="black" stroke-linecap="round" stroke-width="5"/>
	<path d="M140,77c0,19.08768 -3,37.86689 -3,57" fill="none" stroke="black" stroke-linecap="round" stroke-width="5"/>
	<path d="M155,81c0,21.79714 2,48.60491 2,68" fill="none" stroke="black" stroke-linecap="round" stroke-width="5"/>
	<path d="M183,73c0,18.03693 -1,35.89187 -1,54" fill="none" stroke="black" stroke-linecap="round" stroke-width="5"/>
	<path d="M182,126c-5.25628,0 -77.98576,-2.01424 -78,-2c-0.49241,0.49241 -0.15843,5.5247 0,6c7.79937,23.39812 22.35429,19.14172 42,27c9.76228,3.90491 26.78762,27.42476 40,1c2.1978,-4.39559 11.92261,-17.15477 8,-25c-2.89236,-5.78473 -10,-10.7011 -10,-15" fill="none" stroke="black" stroke-linecap="round" stroke-width="5"/>
	<path d="M112,144c0,3.45167 -9.35269,11.35269 -11,13c-0.33333,0.33333 0.5286,1 1,1c5.38514,0 6,7.48123 6,11c0,1.4727 -4.24985,6.75015 -4,7c0.51811,0.51811 14.4487,-0.4487 13,1c-4.95452,4.95452 -14.24749,10.24749 -18,14c-2.45053,2.45053 9.89169,21.05415 14,19c8.5531,-4.27655 8,-49.94129 8,-61" fill="none" stroke="black" stroke-linecap="round" stroke-width="5"/>
	<path d="M152,166c0,-3.0439 -6.5385,15.46175 -7,18c-0.8939,4.91646 2.72998,27.91991 4,33c1.32468,5.29874 18.7658,11.4684 21,7c1.25573,-2.51146 -7,-48.00861 -7,-58" fill="none" stroke="black" stroke-linecap="round" stroke-width="5"/>
	<path d="M184,162c0,-3.38294 8.56255,13.12509 10,16c5.91136,11.82272 3.74732,40.12634 24,30c15.57908,-7.78954 -22,-41.71073 -22,-51c0,-1.68468 -0.46396,-3 -2,-3" fill="none" stroke="black" stroke-linecap="round" stroke-width="5"/>
	<path d="M194,138c6.1865,0 16.33107,-0.83446 22,2c2.38453,1.19226 0.54859,7.54859 2,9c7.33333,7.33333 36.66667,-7.33333 44,0c1.3291,1.3291 1,5.22333 1,7c0,15.0802 -11.10469,11 -24,11c-6.57394,0 -41.50971,-17.50971 -48,-24" fill="none" stroke="black" stroke-linecap="round" stroke-width="5"/>
</svg>
