<?xml version="1.0" ?>
<svg baseProfile="full" height="300" version="1.1" viewBox="[0, 0, 300, 300]" width="300" xmlns="http://www.w3.org/2000/svg" xmlns:ev="http://www.w3.org/2001/xml-events" xmlns:xlink="http://www.w3.org/1999/xlink">
	<defs/>
	<path d="M82,78c0,24.98753 7,49.67709 7,75" fill="none" stroke="black" stroke-linecap="round" stroke-width="5"/>
	<path d="M83,75c25.86616,0 53.2851,-4.42851 79,-7c1.76022,-0.17602 21.30724,-5.38551 22,-4c5.21633,10.43267 8,51.42077 8,63c0,3.01846 3.69979,7.6501 1,9c-6.56654,3.28327 -13.10198,2.23355 -20,3c-17.12574,1.90286 -39.74042,-2.41986 -56,3c-10.44619,3.48206 -21.03153,9 -32,9" fill="none" stroke="black" stroke-linecap="round" stroke-width="5"/>
	<path d="M88,154c0,8.54445 0.55257,16.06599 -2,25c-3.76311,13.17088 -22.8469,48.8469 -31,57c-0.52705,0.52705 -0.25464,2 -1,2" fill="none" stroke="black" stroke-linecap="round" stroke-width="5"/>
	<path d="M86,178c6.39266,6.39266 5.64205,19.11364 13,25c13.039,10.4312 42.36026,20 59,20" fill="none" stroke="black" stroke-linecap="round" stroke-width="5"/>
	<path d="M189,142c0,14.29097 -2.09387,26.1796 11,36c1.9457,1.45928 24,8.9222 24,9c0,23.19735 -64.82422,42.79395 -84,38c-5.47207,-1.36802 -11.2921,-6.8614 -16,-10" fill="none" stroke="black" stroke-linecap="round" stroke-width="5"/>
	<path d="M102,176c-1.66667,0 3.33333,0 5,0c10.25183,0 19.89229,3 30,3c5.78092,0 28.99275,5.00725 33,1c0.86401,-0.86401 18.15912,-13 20,-13" fill="none" stroke="black" stroke-linecap="round" stroke-width="5"/>
	<path d="M121,213c2.21174,0 1,2.12732 1,7c0,22.32324 -3,45.61994 -3,67" fill="none" stroke="black" stroke-linecap="round" stroke-width="5"/>
	<path d="M222,198c0,24.33865 4.37264,58.37264 20,74" fill="none" stroke="black" stroke-linecap="round" stroke-width="5"/>
	<path d="M124,239c0,21.13266 86.93731,3.06269 99,-9" fill="none" stroke="black" stroke-linecap="round" stroke-width="5"/>
	<path d="M124,255c14.02876,0 105,11.76706 105,-18" fill="none" stroke="black" stroke-linecap="round" stroke-width="5"/>
	<path d="M210,204c0,15.46677 4.65422,32.07469 2,48c-1.47012,8.82073 -4,18.30623 -4,27" fill="none" stroke="black" stroke-linecap="round" stroke-width="5"/>
	<path d="M86,97c0,-4.75257 -2.50414,-4.24793 -5,-3c-8.08102,4.04051 -8.65641,18.06151 -7,28c3.01151,18.06909 0.56808,40.27233 5,58c0.6087,2.43479 2.52634,9.76317 5,11c1.3863,0.69315 7,0.37847 7,2" fill="none" stroke="black" stroke-linecap="round" stroke-width="5"/>
</svg>
