<?xml version="1.0" ?>
<svg baseProfile="full" height="300" version="1.1" viewBox="[0, 0, 300, 300]" width="300" xmlns="http://www.w3.org/2000/svg" xmlns:ev="http://www.w3.org/2001/xml-events" xmlns:xlink="http://www.w3.org/1999/xlink">
	<defs/>
	<path d="M44,38c0,30.53239 13.74447,58.97788 21,88c0.62517,2.50068 5.3269,23 7,23c2.10819,0 1.21704,-4.0426 2,-6c1.39507,-3.48768 3.97819,-5.96728 6,-9c5.65146,-8.4772 22.63146,-14.87715 32,-18c14.35017,-4.78339 37.56137,5 53,5c2.12109,0 21,3.38426 21,3c0,-23.6493 -3.39296,-47.11826 0,-72c0.26828,-1.9674 5.85976,-26.07012 2,-28c-14.92352,-7.46176 -80.07338,20.91101 -94,23c-12.32204,1.84831 -24.68725,3.24104 -37,5c-4.90555,0.70079 -14,-9.95536 -14,-5" fill="none" stroke="black" stroke-linecap="round" stroke-width="5"/>
	<path d="M59,146c0,19.30192 20.82032,91.17968 6,106c-0.6503,0.6503 -16.20138,-16.94444 -18,-19c-4.94402,-5.65031 -29.65247,-21.95605 -24,-31c12.32984,-19.72774 45.57185,-20.08169 66,-23c28.82471,-4.11782 59.02853,-5.67618 87,-15c0.55482,-0.18494 6.54663,-2.30224 7,-2c12.81429,8.54286 40,57.87832 40,73c0,4.12311 -2.10557,-7.97508 -3,-12c-1.32162,-5.94728 -2.2867,-11.93693 -3,-18c-2.13985,-18.1887 -3.11602,-44.45304 -12,-60c-4.23282,-7.40743 -10.08155,-11.16309 -13,-17c-0.9653,-1.9306 -7,-7.04375 -7,-6" fill="none" stroke="black" stroke-linecap="round" stroke-width="5"/>
	<path d="M197,142c-33.71828,0 -71.34533,6.52518 -101,23c-3.20397,1.77998 -26,12.25276 -26,14" fill="none" stroke="black" stroke-linecap="round" stroke-width="5"/>
</svg>
