<?xml version="1.0" ?>
<svg baseProfile="full" height="300" version="1.1" viewBox="[0, 0, 300, 300]" width="300" xmlns="http://www.w3.org/2000/svg" xmlns:ev="http://www.w3.org/2001/xml-events" xmlns:xlink="http://www.w3.org/1999/xlink">
	<defs/>
	<path d="M39,45c0,18.57927 -3.80646,37.96771 0,57c3.77592,18.87962 12.40047,35.60189 17,54c0.44699,1.78794 6.55782,30 8,30c1.07676,0 1.85038,-5.55115 2,-6c3.34553,-10.03658 5.1785,-25.1785 13,-33c10.28842,-10.28842 36.45828,-7.69271 50,-6c20.76527,2.59566 44.89275,10.16957 62,23c2.51192,1.88394 10.79592,11 13,11c6.68521,0 0.50025,-28.74887 0,-31c-4.33598,-19.51189 -15.34309,-98.34309 -25,-108c-16.64361,-16.64361 -50.81739,-0.72754 -68,5c-8.99759,2.9992 -32.14471,10.2851 -42,7c-4.9622,-1.65407 -17.50392,-4.37402 -23,-3c-5.82063,1.45516 -13.93835,4 -20,4" fill="none" stroke="black" stroke-linecap="round" stroke-width="5"/>
	<path d="M70,182c0,13.3794 22.98246,89.01754 16,96c-0.55445,0.55445 -9.16394,-8.23994 -10,-9c-19.59636,-17.81487 -38.12025,-36.827 -54,-58c-0.1939,-0.25854 -5,-9 -5,-9c0,0 1.81383,1.70346 3,2c13.29229,3.32307 26.22691,3 40,3c31.37222,0 60.88182,-2.11023 92,-6c9.73868,-1.21734 30.10009,-11.93995 40,-6c19.23861,11.54316 26.54434,35.36084 34,54c0.52783,1.31958 6,23 6,23c0,0 -9.76957,-28.15653 -10,-30c-3.85656,-30.8525 -34,-63.14495 -34,-92" fill="none" stroke="black" stroke-linecap="round" stroke-width="5"/>
</svg>
