<?xml version="1.0" ?>
<svg baseProfile="full" height="300" version="1.1" viewBox="[0, 0, 300, 300]" width="300" xmlns="http://www.w3.org/2000/svg" xmlns:ev="http://www.w3.org/2001/xml-events" xmlns:xlink="http://www.w3.org/1999/xlink">
	<defs/>
	<path d="M69,73c29.96186,0 61.74393,-1.85121 91,4c0.32117,0.06423 3.18128,1.81872 4,1c5.58579,-5.58579 10.97204,-13.92543 14,-22c1.45575,-3.882 4.12647,-13.74706 2,-18c-3.56195,-7.12391 -25.12549,-1.85931 -32,-1c-30.98627,3.87328 -67,4.36263 -67,43" fill="none" stroke="black" stroke-linecap="round" stroke-width="5"/>
	<path d="M92,72c0,29.43332 -15,57.45592 -15,86" fill="none" stroke="black" stroke-linecap="round" stroke-width="5"/>
	<path d="M118,82c-10.50394,21.00787 -14,53.57768 -14,77" fill="none" stroke="black" stroke-linecap="round" stroke-width="5"/>
	<path d="M127,86c0,27.38538 2,54.77374 2,82" fill="none" stroke="black" stroke-linecap="round" stroke-width="5"/>
	<path d="M154,79c0,21.74739 -3,43.89854 -3,66c0,11.28294 -1,22.81957 -1,20" fill="none" stroke="black" stroke-linecap="round" stroke-width="5"/>
	<path d="M179,79c0,18.40696 -3.862,37.27599 5,55" fill="none" stroke="black" stroke-linecap="round" stroke-width="5"/>
	<path d="M88,173c2.44171,9.76686 8.89235,19.89235 16,27c11.26388,11.26388 24.17765,23.70659 38,32c0.71992,0.43195 2.43833,2.28084 3,2c7.7787,-3.88935 10.48672,-14.19469 20,-18c8.79781,-3.51912 25.02756,-1.16534 27,-13c2.06737,-12.4042 -6.59071,-27.29173 -11,-38c-15.42756,-37.46692 -25.88554,-26.55723 -61,-9c-12.76618,6.38309 -34.91055,11.91055 -45,22" fill="none" stroke="black" stroke-linecap="round" stroke-width="5"/>
</svg>
