<?xml version="1.0" ?>
<svg baseProfile="full" height="300" version="1.1" viewBox="[0, 0, 300, 300]" width="300" xmlns="http://www.w3.org/2000/svg" xmlns:ev="http://www.w3.org/2001/xml-events" xmlns:xlink="http://www.w3.org/1999/xlink">
	<defs/>
	<path d="M66,43c11.86402,35.59206 21.04321,71.08643 38,105c4.5841,9.16821 4.84014,18.52041 8,28c0.2357,0.70711 0.25464,2 1,2c2.13437,0 2.66667,-3.33333 4,-5c14.51048,-18.1381 51.04975,-21.69207 72,-25c13.10155,-2.06867 45.30016,0.69984 56,-10c2.43461,-2.43461 -9.44654,-27.27169 -11,-31c-11.37346,-27.29629 -48.80288,-75.40144 -76,-89c-6.12627,-3.06314 -71.09273,34 -90,34" fill="none" stroke="black" stroke-linecap="round" stroke-width="5"/>
	<path d="M74,80c6.33877,6.33877 1.9314,27.4512 3,36c3.3015,26.41203 14.75729,50.02916 21,75c1.98359,7.93436 11,18.43252 11,26" fill="none" stroke="black" stroke-linecap="round" stroke-width="5"/>
	<path d="M208,65c8.62505,8.62505 43.20935,76.04673 46,90c1.80315,9.01573 7.96615,25.96615 13,31c2.146,2.146 12.61271,7.61271 11,6" fill="none" stroke="black" stroke-linecap="round" stroke-width="5"/>
	<path d="M105,212c4.22104,4.22104 34.9251,32 40,32" fill="none" stroke="black" stroke-linecap="round" stroke-width="5"/>
	<path d="M112,212c0,-2.37682 2.59406,-2.59901 5,-3c24.578,-4.09633 48.64374,-8.94062 73,-13c21.33045,-3.55508 39.35849,-11.58962 61,-17c1.56499,-0.39125 5.17715,-2.91142 7,-2c8.06831,4.03415 15.53018,14.53018 22,21c1.42164,1.42164 11,7.80259 11,10c0,0.33333 -0.7643,-0.2357 -1,0c-11.56388,11.56388 -39.66048,13.66578 -56,16c-23.95174,3.42168 -56.69953,18 -79,18c-1.4612,0 -7.17298,0.82702 -8,0c-6.82875,-6.82875 -15.90665,-12.90665 -23,-20c-3.15699,-3.15699 -3.06365,-9.06365 -6,-12" fill="none" stroke="black" stroke-linecap="round" stroke-width="5"/>
	<path d="M109,214c0,8.30407 -19.84507,44.15493 -10,54" fill="none" stroke="black" stroke-linecap="round" stroke-width="5"/>
	<path d="M131,237c8.7053,8.7053 9,38.92115 9,51" fill="none" stroke="black" stroke-linecap="round" stroke-width="5"/>
	<path d="M135,266c0,-0.94281 1.0755,-1.8151 2,-2c11.4088,-2.28176 25.41888,2 37,2c26.87333,0 63.44042,10.70639 87,-5c2.67263,-1.78175 21.29195,-15.41611 20,-18c-1.14672,-2.29344 -3.22117,-8.11059 -5,-9c-9.46637,-4.73318 -110.95816,10.95816 -124,24" fill="none" stroke="black" stroke-linecap="round" stroke-width="5"/>
	<path d="M275,219c0,-2.33333 -0.21125,4.67625 0,7c0.47569,5.23259 2.05945,10.82698 3,16c2.51164,13.81403 14,37.96955 14,50" fill="none" stroke="black" stroke-linecap="round" stroke-width="5"/>
</svg>
