<?xml version="1.0" ?>
<svg baseProfile="full" height="300" version="1.1" viewBox="[0, 0, 300, 300]" width="300" xmlns="http://www.w3.org/2000/svg" xmlns:ev="http://www.w3.org/2001/xml-events" xmlns:xlink="http://www.w3.org/1999/xlink">
	<defs/>
	<path d="M102,164c1.90817,0 2.51906,5.31672 3,7c7.88635,27.60221 9.85364,57.68279 13,86c0.36811,3.31295 2.98142,8.50929 0,10c-1.73845,0.86923 -3.30094,-2.05608 -5,-3c-14.01927,-7.78848 -27.24279,-16.74567 -41,-25c-13.46623,-8.07974 -26.50442,-16.90265 -40,-25c-0.71635,-0.42981 -3.61835,-0.76329 -3,-2c7.30931,-14.61862 47.5498,-13.39442 62,-15c32.27463,-3.58607 59.78527,-16.92842 90,-27c1.27831,-0.4261 8.98448,-4.50776 10,-4c12.60898,6.30449 23.23225,19.13244 34,28c3.75258,3.09036 54.49952,50.00095 51,57c-1.54814,3.09629 -3.30621,-1.07495 -4,-2c-9.29682,-12.39576 -17.51204,-24.34938 -27,-37c-1.32089,-1.76119 -1.71985,-4.20779 -3,-6c-5.63294,-7.88611 -56.72181,-81 -63,-81c-2.47528,0 -15.33185,16.24889 -19,19c-4.21924,3.16443 -13.33613,-1.55742 -17,-4c-1.15763,-0.77175 -4,-4.09612 -4,-2" fill="none" stroke="black" stroke-linecap="round" stroke-width="5"/>
	<path d="M193,139c-7.28891,0 -85,34.77516 -85,39" fill="none" stroke="black" stroke-linecap="round" stroke-width="5"/>
</svg>
