<?xml version="1.0" ?>
<svg baseProfile="full" height="300" version="1.1" viewBox="[0, 0, 300, 300]" width="300" xmlns="http://www.w3.org/2000/svg" xmlns:ev="http://www.w3.org/2001/xml-events" xmlns:xlink="http://www.w3.org/1999/xlink">
	<defs/>
	<path d="M60,62c0,20.71867 14.19443,55.29164 26,73c2.74874,4.12311 9.29894,-3.43298 14,-5c7.51665,-2.50555 15.1623,-4.83886 23,-6c22.96148,-3.4017 58.69689,-3.34845 80,-14c0.29814,-0.14907 0,-0.66667 0,-1c0,-11.15932 -18.45004,-27.45004 -26,-35c-36.69532,-36.69532 -38.16162,-53.2298 -96,-46c-14.41251,1.80156 -33.1318,18.47281 -29,35c0.81212,3.24848 5,3.55535 5,7" fill="none" stroke="black" stroke-linecap="round" stroke-width="5"/>
	<path d="M65,85c8.33565,25.00695 18.60833,113 50,113" fill="none" stroke="black" stroke-linecap="round" stroke-width="5"/>
	<path d="M178,76c0,1.05409 0.45767,2.09612 1,3c13.59985,22.66642 29.54403,46.43003 46,67c5.06822,6.33527 6.47317,16.47317 12,22c4.36654,4.36654 14.15946,2.15946 20,8" fill="none" stroke="black" stroke-linecap="round" stroke-width="5"/>
	<path d="M113,200c0,29.65188 14,59.00924 14,88c0,1.74783 0.88488,9 -1,9" fill="none" stroke="black" stroke-linecap="round" stroke-width="5"/>
	<path d="M117,223c15.90646,0 36.88335,3.01458 53,1c15.68685,-1.96086 31.02475,-6.40248 47,-8c13.55532,-1.35553 24.12594,-11.25038 36,-16c0.21925,-0.0877 5.48845,-2.51155 6,-2c3.46677,3.46677 3.83731,23.18654 5,29c5.21413,26.07064 -69.85985,1 -87,1c-13.79946,0 -28.71784,-0.65643 -42,2c-4.29891,0.85978 -17.39453,13.18358 -15,6" fill="none" stroke="black" stroke-linecap="round" stroke-width="5"/>
	<path d="M258,178c-6.89859,20.69577 -4.54363,58.82549 1,81c1.40564,5.62257 9,15.02044 9,20" fill="none" stroke="black" stroke-linecap="round" stroke-width="5"/>
</svg>
