<?xml version="1.0" ?>
<svg baseProfile="full" height="300" version="1.1" viewBox="[0, 0, 300, 300]" width="300" xmlns="http://www.w3.org/2000/svg" xmlns:ev="http://www.w3.org/2001/xml-events" xmlns:xlink="http://www.w3.org/1999/xlink">
	<defs/>
	<path d="M59,38c0,8.93057 7.98459,78.3282 13,80c11.51927,3.83976 31.50253,-4.92821 45,-3c10.72664,1.53238 53.5076,5.48733 58,-2c13.46437,-22.44061 -6.51967,-68.17322 -30,-76c-15.47632,-5.15877 -35.39932,2.77133 -51,5c-2.76101,0.39443 -44.14318,4.85682 -37,12" fill="none" stroke="black" stroke-linecap="round" stroke-width="5"/>
	<path d="M171,91c3.79449,0 26.72092,16.27908 24,19c-7.8687,7.8687 -17.28595,-2.28595 -22,-7c-1.63952,-1.63952 -5,-5.5735 -5,-4" fill="none" stroke="black" stroke-linecap="round" stroke-width="5"/>
	<path d="M62,95c-29.13243,0 -13.92035,10.1593 -4,30c0.08527,0.17055 4,6 4,6c0,0 4.07323,-9.07323 5,-10c4.86426,-4.86426 -4,-14.16902 -4,-21" fill="none" stroke="black" stroke-linecap="round" stroke-width="5"/>
	<path d="M84,167c0,-6.10006 32.85973,-7.48597 38,-8c15.87839,-1.58784 58.7522,-13.2478 73,1c9.07923,9.07923 19.10042,21.5007 26,33c1.15045,1.91741 5.12132,5.29289 3,6c-23.15671,7.7189 -74.95415,22.01528 -99,14c-7.91683,-2.63894 -11.66062,-11.66062 -17,-17c-9.28109,-9.28109 -15,-20.09729 -15,-33" fill="none" stroke="black" stroke-linecap="round" stroke-width="5"/>
</svg>
