<?xml version="1.0" ?>
<svg baseProfile="full" height="300" version="1.1" viewBox="[0, 0, 300, 300]" width="300" xmlns="http://www.w3.org/2000/svg" xmlns:ev="http://www.w3.org/2001/xml-events" xmlns:xlink="http://www.w3.org/1999/xlink">
	<defs/>
	<path d="M88,162c-7.76302,-7.76302 -33.56883,-125.95411 -17,-137c2.61652,-1.74434 5.23932,3.49417 8,5c21.69286,11.83247 50.06307,11.00788 74,14c15.50641,1.9383 30.87016,0.89123 46,-1c1.98456,-0.24807 4.75061,-1.56174 6,0c5.82258,7.27822 1.14166,44.86672 0,54c-4.05234,32.41871 -4,63.34394 -4,94c0,16.72266 8.46942,31.46942 20,43c3.40289,3.40289 22.45434,21.45434 15,14" fill="none" stroke="black" stroke-linecap="round" stroke-width="5"/>
	<path d="M86,153c0,26.1836 14.90815,59.90815 33,78c0.66961,0.66961 4.36315,6.81843 6,6c4.5511,-2.27555 6.89215,-6.47304 13,-8c8.27028,-2.06757 17.21933,3.46345 26,2c13.28169,-2.21362 27.08093,-13 40,-13" fill="none" stroke="black" stroke-linecap="round" stroke-width="5"/>
	<path d="M199,142c9.90515,9.90515 24.45866,14.30577 36,22c6.66665,4.44444 12.91103,8.92586 19,14c7.49145,6.24287 24.30754,11.92328 16,23c-0.87434,1.16579 -8.41455,10.19515 -9,10c-23.75527,-7.91842 -64,-37.99796 -64,-67" fill="none" stroke="black" stroke-linecap="round" stroke-width="5"/>
	<path d="M78,153c18.72637,9.36318 39.89714,23.58095 56,37c1.08643,0.90536 1.91357,2.09464 3,3c3.87122,3.22602 17.96565,10.0687 14,18c-0.39037,0.78074 -1.95485,4.01129 -2,4c-28.54565,-7.13641 -55.32233,-38.32233 -75,-58" fill="none" stroke="black" stroke-linecap="round" stroke-width="5"/>
	<path d="M123,234c6.48371,12.96742 4.90207,28.51036 8,44c0.17844,0.89222 -1,6 -1,6c0,0 -9.1473,-10.1473 -11,-12c-6.54926,-6.54926 -16.41034,-11.48025 -24,-17c-2.85067,-2.07321 -6.68233,-5.34116 -10,-7c-0.16151,-0.08076 -4.29102,-1.70898 -3,-3c5.23674,-5.23674 18.03587,-13.00897 26,-15c27.94268,-6.98567 58.49484,-8.37371 85,-15c0.7231,-0.18078 1.30795,-1.27682 2,-1c7.35405,2.94162 16.64753,19.9426 19,27c1.35193,4.05578 10,7.2549 10,9" fill="none" stroke="black" stroke-linecap="round" stroke-width="5"/>
	<path d="M213,236c0,-2.03427 -8.41602,-1.144 -10,-1c-24.44233,2.22203 -49.41027,9 -74,9" fill="none" stroke="black" stroke-linecap="round" stroke-width="5"/>
</svg>
