<?xml version="1.0" ?>
<svg baseProfile="full" height="300" version="1.1" viewBox="[0, 0, 300, 300]" width="300" xmlns="http://www.w3.org/2000/svg" xmlns:ev="http://www.w3.org/2001/xml-events" xmlns:xlink="http://www.w3.org/1999/xlink">
	<defs/>
	<path d="M44,46c1.30682,0 1.772,3.63202 2,5c1.77398,10.64391 11.80232,55.80232 18,62c2.68742,2.68742 7.21502,-2.65591 11,-3c6.5222,-0.59293 13.46195,0 20,0c34.86851,0 63.27475,-4.72772 96,-12c4.71171,-1.04705 26.01385,-0.0277 28,-4c4.22907,-8.45815 -13.9892,-26.58272 -18,-33c-8.38146,-13.41034 -20.10868,-30.10868 -31,-41c-0.42703,-0.42703 -4.56868,-0.17253 -5,0c-15.44647,6.17859 -29.06641,21.8833 -46,24c-9.95565,1.24446 -54,-3.53278 -54,2" fill="none" stroke="black" stroke-linecap="round" stroke-width="5"/>
	<path d="M210,73c11.10443,0 93.28367,20.43267 81,45c-6.93602,13.87205 -72,-7.83296 -72,-37" fill="none" stroke="black" stroke-linecap="round" stroke-width="5"/>
	<path d="M50,89c-29.32416,0 -5.76143,46.11929 10,54c1.52381,0.7619 0.80952,-0.42857 1,-1c4.77298,-14.31895 16.65434,-23.17283 -1,-32c-2.17527,-1.08764 -6.62292,-7 -8,-7" fill="none" stroke="black" stroke-linecap="round" stroke-width="5"/>
	<path d="M62,143c15.01854,0 36.67018,22.68074 40,36c1.20635,4.82542 0.23607,27.19098 5,26c21.21281,-5.3032 42.54852,-19.6165 64,-22c12.40943,-1.37883 75.85904,-0.85904 83,-8c14.08084,-14.08084 -6.78761,-34.14513 -15,-44c-5.84686,-7.01623 -15.83591,-25.61197 -26,-29c-27.27524,-9.09175 -59.90688,9 -85,9" fill="none" stroke="black" stroke-linecap="round" stroke-width="5"/>
	<path d="M107,196c13.07755,26.1551 3,63.18747 3,91" fill="none" stroke="black" stroke-linecap="round" stroke-width="5"/>
	<path d="M249,175c7.27192,36.35958 4.81861,74.35809 2,111c-0.5547,7.21106 -5.60081,26.39919 1,33" fill="none" stroke="black" stroke-linecap="round" stroke-width="5"/>
</svg>
