<?xml version="1.0" ?>
<svg baseProfile="full" height="300" version="1.1" viewBox="[0, 0, 300, 300]" width="300" xmlns="http://www.w3.org/2000/svg" xmlns:ev="http://www.w3.org/2001/xml-events" xmlns:xlink="http://www.w3.org/1999/xlink">
	<defs/>
	<path d="M62,135c0,-7.05779 -14.14827,-61.85173 -10,-66c1.66667,-1.66667 4.64298,1 7,1c14.63692,0 29.36656,2 44,2c14.98136,0 34.17273,0.47121 49,-2c2.46037,-0.41006 28.79811,-9.80283 30,-8c10.17371,15.26057 12.69345,40.77379 17,58c4.15624,16.62498 -23.93076,7 -33,7c-1.66667,0 -3.33333,0 -5,0c-1,0 -2.02986,0.24254 -3,0c-2.98092,-0.74523 -5.19608,-1.29261 -9,-1c-2.6795,0.20612 -5.31941,0.80853 -8,1c-1.99492,0.14249 -4.00508,0.14249 -6,0c-8.06491,-0.57607 -84,-14.51047 -84,8" fill="none" stroke="black" stroke-linecap="round" stroke-width="5"/>
	<path d="M191,101c9.08361,9.08361 52.20419,7.40838 57,17c0.44021,0.88041 -13.88917,14.33312 -17,12c-11.87913,-8.90935 -21.3805,-15.3805 -29,-23" fill="none" stroke="black" stroke-linecap="round" stroke-width="5"/>
	<path d="M51,112c2.15697,2.15697 22.81897,16.18103 22,17c-1.15184,1.15184 -3.11838,-1.70613 -4,-2c-12.57999,-4.19333 -13.42535,-14.57465 -24,-4c-3.63729,3.63729 -9.36173,9.08518 -11,14c-3.40835,10.22506 22.82436,16.45609 29,18c1.03313,0.25828 12.41972,7.16056 13,6c8.98207,-17.96414 7.50673,-33.37332 -11,-38" fill="none" stroke="black" stroke-linecap="round" stroke-width="5"/>
	<path d="M62,156c11.74578,11.74578 31.50766,20.03063 36,38c0.97314,3.89256 0.86192,29.93096 3,31c2.43102,1.21551 66.42711,-12.06102 80,-14c6.66722,-0.95246 58.47627,-5.19066 60,-9c17.69437,-44.23593 -76.91804,-90.52049 -107,-83c-26.6905,6.67263 -37.13424,28.13424 -55,46" fill="none" stroke="black" stroke-linecap="round" stroke-width="5"/>
</svg>
