<?xml version="1.0" ?>
<svg baseProfile="full" height="300" version="1.1" viewBox="[0, 0, 300, 300]" width="300" xmlns="http://www.w3.org/2000/svg" xmlns:ev="http://www.w3.org/2001/xml-events" xmlns:xlink="http://www.w3.org/1999/xlink">
	<defs/>
	<path d="M96,38c0,12.54197 -8.85874,31.42379 -5,43c0.42164,1.26491 2.66667,0 4,0c16.73752,0 33.26963,1.61976 50,2c4.75505,0.10807 51.44167,2.39583 54,-4c1.66751,-4.16877 -4,-21.84856 -4,-27c0,-1.07697 0.75166,-22.81208 0,-23c-10.39229,-2.59807 -79.90146,5 -104,5" fill="none" stroke="black" stroke-linecap="round" stroke-width="5"/>
	<path d="M88,105c5.61185,5.61185 -0.30977,27.80249 -2,34c-0.62017,2.27397 -3.18844,6.12462 -1,7c9.75158,3.90063 99.53187,6.28088 110,0c5.2711,-3.16266 22.51068,-41.48932 17,-47c-0.81049,-0.81049 -21.8361,8.03538 -31,9c-29.73679,3.13019 -60.09634,3 -90,3" fill="none" stroke="black" stroke-linecap="round" stroke-width="5"/>
	<path d="M94,39c0,29.21484 -61.65211,118.02184 -47,140c11.66766,17.50148 30,-15.53648 30,-27c0,-3.4801 -2.08432,6.64252 -3,10c-0.60834,2.23057 -7.01885,17.98743 -4,20c6.79347,4.52898 19.61376,-11.22753 22,-16c0.80277,-1.60555 -1.27096,3.35966 -2,5c-0.73506,1.65388 -5.93994,10.61749 -1,10c21.41921,-2.6774 13.32084,-21.32084 23,-31c0.95455,-0.95455 8.51651,-0.5055 10,-1c16.94382,-5.64794 65.05639,0 86,0c1.94365,0 -3.5473,1.70871 -5,3c-4.0211,3.57431 -5.11131,4.95583 -8,9c-4.7407,6.63698 -2.12566,19.47906 7,21c10.20276,1.70046 20.99262,-1.5808 25,-12c1.92945,-5.01658 2,-21.37484 2,-16c0,4.2652 -1.67868,19.66066 3,22c5.83271,2.91636 13.4415,-12.88299 15,-16c0.94281,-1.88562 1.48869,3.95476 2,6c1.67327,6.69308 4.82182,3.10545 6,-2c1.73072,-7.49979 1.72063,-15.74498 -1,-23c-3.54103,-9.44275 -11.38376,-10.30626 -16,-18c-14.62873,-24.38121 -18.48646,-57.13869 -31,-83c-2.32853,-4.8123 -18,-27.3397 -18,-33" fill="none" stroke="black" stroke-linecap="round" stroke-width="5"/>
</svg>
