<?xml version="1.0" ?>
<svg baseProfile="full" height="300" version="1.1" viewBox="[0, 0, 300, 300]" width="300" xmlns="http://www.w3.org/2000/svg" xmlns:ev="http://www.w3.org/2001/xml-events" xmlns:xlink="http://www.w3.org/1999/xlink">
	<defs/>
	<path d="M92,39c0,16.81006 -10.01083,47.97834 -2,64c0.61785,1.2357 0.96548,1 2,1c22.15638,0 43.93176,0.73659 66,3c4.73212,0.48535 55.50224,5.49776 57,4c2.98635,-2.98635 -0.22075,-24.02653 0,-28c0.16743,-3.01381 0.81171,-5.98742 1,-9c0.58467,-9.35465 1,-18.58758 1,-28c0,-1.33333 1.31519,-3.7808 0,-4c-42.97651,-7.16275 -91.97458,1 -135,1" fill="none" stroke="black" stroke-linecap="round" stroke-width="5"/>
	<path d="M92,40c0,18.88687 -15.18309,99.77464 -24,113c-5.088,7.632 -35.92981,30.07019 -46,20" fill="none" stroke="black" stroke-linecap="round" stroke-width="5"/>
	<path d="M95,48c0,13.58473 9.86935,27.86682 11,42c1.93187,24.14834 2,48.7482 2,73c0,4.20052 0.25503,39 -8,39" fill="none" stroke="black" stroke-linecap="round" stroke-width="5"/>
	<path d="M87,102c0,10.05547 -2.08519,32.91481 5,40c7.06514,7.06514 31.14196,5.41065 39,6c15.32287,1.14922 30.63757,2.67314 46,3c7.90523,0.1682 53.4219,3.78905 61,0c1.19257,-0.59628 0.2192,-2.68481 0,-4c-1.19884,-7.19307 -0.02102,-26.02102 -5,-31c-2.09604,-2.09604 -27.68679,-1.05302 -34,-2c-15.83085,-2.37463 -33.91036,-11 -50,-11" fill="none" stroke="black" stroke-linecap="round" stroke-width="5"/>
	<path d="M212,45c5.73473,0 13.91763,25.48821 16,30c15.34397,33.24527 30,71.06345 30,108c0,6.3223 -2.28949,45 -6,45" fill="none" stroke="black" stroke-linecap="round" stroke-width="5"/>
	<path d="M209,148c2.75935,0 0.86765,30 -3,30" fill="none" stroke="black" stroke-linecap="round" stroke-width="5"/>
	<path d="M145,57c-14.33009,3.18446 -28.38345,5.46142 -43,7c-6.6631,0.70138 -13.33821,1.28624 -20,2c-2.73309,0.29283 -10.72111,1.61127 -8,2c28.32063,4.0458 58.19042,-5.32144 87,-1c1.47422,0.22113 3.70765,0.53824 4,2c0.27735,1.38675 -1.68694,2.47477 -3,3c-16.67542,6.67017 -38.36451,0.18226 -54,8c-0.89443,0.44721 2.00612,0.11043 3,0c5.0134,-0.55704 9.99886,-1.34196 15,-2c15.58894,-2.05118 31.28391,-3.52375 47,-4c2.99862,-0.09087 8.27239,-2.91043 9,0c0.76503,3.06012 -35.80399,12.02575 -41,13c-5.01168,0.93969 -19.37237,0.37658 -15,3c10.33468,6.20081 36.06055,5.87801 47,7c5.97789,0.61312 22.8074,-2.60555 18,1c-12.57029,9.42772 -58.19285,9.3857 -64,21c-2.46757,4.93513 9.62365,5.7593 15,7c16.71995,3.85845 33.89674,5.61325 51,7c4.00074,0.32438 12,-3.01386 12,1c0,4 -8,0 -12,0c-17.01438,0 -37.94898,-2.29592 -54,5c-0.60691,0.27587 -0.63855,1.80843 0,2c13.06459,3.91938 31.75161,2.44161 45,2c4.01164,-0.13372 14.22649,2.33974 12,-1c-5.61014,-8.41521 -37.59215,-10.18919 -45,-12c-8.01036,-1.95809 -15.98592,-4.05719 -24,-6c-2.98667,-0.72404 -11.39975,-0.0802 -9,-2c13.00183,-10.40146 59.12665,-0.01914 69,-21c9.84123,-20.9126 -63,-31 -63,-31c0,0 53.69515,-0.05427 60,-1c11.18677,-1.67802 -3.03739,-5.88675 -4,-6c-3.3105,-0.38947 -6.66667,0 -10,0c-4.66667,0 -9.33333,0 -14,0" fill="none" stroke="black" stroke-linecap="round" stroke-width="5"/>
</svg>
