<?xml version="1.0" ?>
<svg baseProfile="full" height="300" version="1.1" viewBox="[0, 0, 300, 300]" width="300" xmlns="http://www.w3.org/2000/svg" xmlns:ev="http://www.w3.org/2001/xml-events" xmlns:xlink="http://www.w3.org/1999/xlink">
	<defs/>
	<path d="M82,41c-9.75652,39.02607 -4.7511,86.03511 -6,126c-0.35579,11.38522 -1,22.58528 -1,34c0,5.33333 0,21.33333 0,16" fill="none" stroke="black" stroke-linecap="round" stroke-width="5"/>
	<path d="M84,40c2.79211,0 5.81934,-3.60242 9,-4c14.86369,-1.85796 66.46101,-6.53899 77,4c37.50398,37.50398 15,177.09444 15,228" fill="none" stroke="black" stroke-linecap="round" stroke-width="5"/>
	<path d="M87,85c39.19091,0 78.57818,3 118,3" fill="none" stroke="black" stroke-linecap="round" stroke-width="5"/>
	<path d="M143,50c4.85623,-2.42811 2.04926,-0.65195 -7,-1c-12.0327,-0.4628 -24.00786,-1.90981 -36,-3c-4.65934,-0.42358 -9.32865,-0.74048 -14,-1c-1.33128,-0.07396 -5.33333,0 -4,0c8,0 16,0 24,0c6,0 12.00479,0.23981 18,0c22.82509,-0.913 -49.33615,12.78153 -51,15c-3.82099,5.09466 12.63855,1.70412 19,2c17.90486,0.83278 36.06658,2 54,2c1.33333,0 -2.69256,-0.26149 -4,0c-1.71239,0.34248 -15.29508,4.40983 -15,5c1.28905,2.5781 39,2 39,2c0,0 -22.49537,5.09722 -24,6c-0.90388,0.54233 1.95816,0.83972 3,1c3.311,0.50939 6.66513,0.68239 10,1c6.64493,0.63285 13.32501,1 20,1c5,0 -10,0 -15,0" fill="none" stroke="black" stroke-linecap="round" stroke-width="5"/>
	<path d="M82,136c16.89935,0 33.22081,3.76277 50,6c13.31922,1.7759 26.68612,3.18447 40,5c10.89837,1.48614 7.90891,35.1802 9,45c0.11955,1.07593 1.7456,8.6272 1,9c-11.83227,5.91614 -44.059,-0.38635 -56,-2c-6.42616,-0.8684 -33,0.91308 -33,-9" fill="none" stroke="black" stroke-linecap="round" stroke-width="5"/>
	<path d="M98,140c-10.27502,0 -20.74423,-0.51279 -31,0c-2.02506,0.10125 -6,-1.02759 -6,1c0,2 4.00691,-0.16609 6,0c6.01607,0.50134 12.02375,1.14625 18,2c11.55961,1.65137 34.74,2.37 46,8c3.1127,1.55635 -6.58748,2.3175 -10,3c-13.81483,2.76297 -29.03801,2.519 -42,9c-3.97772,1.98886 8.60609,2.31345 13,3c14.5841,2.27877 29.28722,3.80707 44,5c4.66325,0.3781 18.01183,-1.4071 14,1c-10.02963,6.01778 -22.90677,7.76448 -34,11c-3.7455,1.09244 -14.86235,3.44824 -11,4c18.85319,2.69331 39.93745,0 59,0c0.33333,0 1,-0.33333 1,0c0,0.4714 -0.54267,0.88567 -1,1c-10.39419,2.59855 -25.89358,0.92905 -35,7c-0.39223,0.26149 0.53775,0.90755 1,1c9.41298,1.8826 19.43544,2 29,2c3.39935,0 -6.60065,2 -10,2" fill="none" stroke="black" stroke-linecap="round" stroke-width="5"/>
	<path d="M72,134c0,19.63417 -54.36914,44.27686 -70,56" fill="none" stroke="black" stroke-linecap="round" stroke-width="5"/>
	<path d="M158,201c1.45567,2.91133 2.4896,13.5104 0,16" fill="none" stroke="black" stroke-linecap="round" stroke-width="5"/>
</svg>
