<?xml version="1.0" ?>
<svg baseProfile="full" height="300" version="1.1" viewBox="[0, 0, 300, 300]" width="300" xmlns="http://www.w3.org/2000/svg" xmlns:ev="http://www.w3.org/2001/xml-events" xmlns:xlink="http://www.w3.org/1999/xlink">
	<defs/>
	<path d="M80,24c6.16823,18.50468 -2,38.255 -2,57c0,3 -2.84605,8.05132 0,9c21.45273,7.15091 48.63133,7.61081 71,11c12.5188,1.89679 25.71075,4.157 26,3c3.04396,-12.17583 1,-28.51146 1,-41c0,-8.71396 2.86906,-24.39281 0,-33c-0.1359,-0.40771 -20.76467,0 -29,0c-27.04311,0 -53.97298,-1 -81,-1" fill="none" stroke="black" stroke-linecap="round" stroke-width="5"/>
	<path d="M76,25c-3.48455,6.96909 -0.54356,18.23233 -2,26c-5.12874,27.35329 -12.57628,54.08476 -22,80c-1.73724,4.77742 -8.52062,26.31959 -3,30c19.91902,13.27934 45.75128,-20.75128 57,-32c2.60342,-2.60342 -0.54333,7.34664 -1,11c-1.09026,8.72208 -5.67031,28.63297 8,30c27.96378,2.79638 34.43391,-9.43391 51,-26c0.4714,-0.4714 0,1.33333 0,2c0,4.01386 -0.74962,7.99395 -1,12c-0.32338,5.17405 -3.79343,25.53443 5,27c10.79981,1.79997 21.6251,-21.92533 24,-30c1.42332,-4.83928 2,-20.04425 2,-15c0,7.57837 1.14317,16.7555 6,23c14.69844,18.898 50.30595,-8.485 54,-24c2.61577,-10.98623 0.27219,-23.20709 -2,-34c-1.71708,-8.15614 -3.39028,-18.78057 -7,-26c-14.78672,-29.57344 -88,-33.79973 -88,-88" fill="none" stroke="black" stroke-linecap="round" stroke-width="5"/>
	<path d="M116,59c-6.03692,0 -12.0197,-1.17513 -18,-2c-4.66983,-0.64411 -9.32918,-1.36307 -14,-2c-33.31812,-4.54338 39.85204,-11.57398 41,-11c0.94281,0.4714 -1.96195,0.81681 -3,1c-4.64231,0.81923 -9.32236,1.41529 -14,2c-10.99495,1.37437 -21.99538,2.70534 -33,4c-0.6621,0.07789 -2.4714,-0.4714 -2,0c7.34741,7.34741 64.89871,-5.10129 71,1c1.58114,1.58114 -3.93236,2.14862 -6,3c-0.54193,0.22315 -25.00022,10.42851 -23,11c21.24324,6.0695 35.64645,-0.2929 33,5c-1.44777,2.89554 -18.00446,4.53046 -20,5c-2.47111,0.58144 -9.40832,2.19723 -7,3c2.20446,0.73482 28,3 28,3c0,0 -10.33438,1.33752 -11,4c-0.93264,3.73057 23.26035,14.5069 27,17" fill="none" stroke="black" stroke-linecap="round" stroke-width="5"/>
</svg>
