<?xml version="1.0" ?>
<svg baseProfile="full" height="300" version="1.1" viewBox="[0, 0, 300, 300]" width="300" xmlns="http://www.w3.org/2000/svg" xmlns:ev="http://www.w3.org/2001/xml-events" xmlns:xlink="http://www.w3.org/1999/xlink">
	<defs/>
	<path d="M90,43c0,1.37437 0.66667,2.66667 1,4c0.53414,2.13657 7.69169,58.69169 9,60c4.39812,4.39812 37.78792,-0.62771 43,-1c48.45598,-3.46114 69.48776,7.85311 65,-46c-0.42833,-5.13992 -0.09688,-19.09688 -4,-23c-1.51119,-1.51119 -51.55641,1.77318 -57,2c-19.05617,0.79401 -37.938,3 -57,3" fill="none" stroke="black" stroke-linecap="round" stroke-width="5"/>
	<path d="M90,42c0,4.3554 8.50551,10.67401 11,14c8.7591,11.6788 16.2425,28.56582 22,42c11.64863,27.18014 10,58.78224 10,88" fill="none" stroke="black" stroke-linecap="round" stroke-width="5"/>
	<path d="M205,40c10.03283,10.03283 11.85897,39.38887 15,53c10.70326,46.38081 21,89.20979 21,137" fill="none" stroke="black" stroke-linecap="round" stroke-width="5"/>
	<path d="M102,112c0,48.07591 20.28372,43 67,43c22.31104,0 43.84593,0.61628 50,-24c1.1111,-4.4444 3.24068,-16.51864 1,-21c-4.29603,-8.59206 -72.06322,-3.62825 -84,-3c-0.62434,0.03286 -26,5 -26,5c0,0 6,0 9,0c11.19351,0 23.00023,0.74994 34,-2c2.04524,-0.51131 -3.96873,1.43576 -6,2c-4.28498,1.19027 -8.58934,2.43088 -13,3c-11.12822,1.4359 -31.07701,-2.61533 -41,4c-0.83205,0.5547 2,0 3,0c3.66667,0 7.33333,0 11,0c17.6957,0 35.31061,-1 53,-1c0.33333,0 1,0 1,0c0,0 -32.77116,9.81923 -31,11c10.63,7.08667 29.13139,2.25821 41,3c1.37169,0.08573 3.56539,-0.30384 4,1c0.57141,1.71424 -22.02773,9.31485 -21,10c6.1094,4.07293 25.06571,-1.22952 32,-2c0.33129,-0.03681 1.33333,0 1,0c-19.07547,0 -34.89386,6 -3,6" fill="none" stroke="black" stroke-linecap="round" stroke-width="5"/>
	<path d="M95,51c0,7.40418 -4.16063,14.44567 -5,22c-3.28359,29.5523 5.521,61.43699 -4,90c-4.74963,14.24888 -14.37827,28.12609 -29,33c-1.46173,0.48724 -3,0.7035 -3,2" fill="none" stroke="black" stroke-linecap="round" stroke-width="5"/>
	<path d="M198,159c-1.15154,1.15154 -0.51851,2 -2,2" fill="none" stroke="black" stroke-linecap="round" stroke-width="5"/>
	<path d="M197,157c1.50415,0 2,6.05105 2,8c0,10.0323 -2,-15.56239 -2,-1c0,1.66667 0,3.33333 0,5" fill="none" stroke="black" stroke-linecap="round" stroke-width="5"/>
	<path d="M130,187c0,4.37822 0.07425,30 -2,30" fill="none" stroke="black" stroke-linecap="round" stroke-width="5"/>
	<path d="M145,61c-2.73457,0 -29,1 -29,1c0,0 5.32902,-0.70322 8,-1c14.99356,-1.66595 30.03328,-3.06881 45,-5c4.34827,-0.56107 8.69078,-1.19202 13,-2c1.03604,-0.19426 4,-0.66667 3,-1c-11.16457,-3.72152 -33.61915,4.10319 -45,6c-6.06274,1.01046 -12,2.66667 -18,4c-0.65079,0.14462 -2.64676,0.16169 -2,0c9.61327,-2.40332 19.37758,-4.4898 29,-7c41.79887,-10.90405 -37.80374,1 -44,1c-2.35702,0 4.72897,-0.36916 7,-1c3.75923,-1.04423 7.23259,-2.9857 11,-4c9.58494,-2.58056 16.43874,-3.36258 26,-4c1.66298,-0.11087 5,-1.66667 5,0c0,6.09235 -48.20136,34.94198 -31,46c15.77266,10.13957 56.43163,5.70511 63,-14c7.13355,-21.40066 -32.96584,-22.04934 -42,-9c-12.00715,17.34366 41.49923,28.51003 43,9c1.65648,-21.53429 -47,-14.61909 -47,8c0,23.41188 52.37141,25.94252 51,4c-1.55705,-24.91281 -68,-21.22428 -68,8c0,21.59301 43.82903,26.85485 48,6c5.41673,-27.08367 -29.72509,-5.02522 -22,13c4.22228,9.85198 33.39716,18.31563 36,4c4.36528,-24.00906 -33.19654,-8.68127 -21,7c7.33358,9.42889 38.24066,4.78505 29,-10c-5.46321,-8.74113 -26.62575,-3.97138 -32,2c-6.9637,7.73745 12.66814,16.65932 14,10c0.57394,-2.86972 0.82344,-5 -2,-5" fill="none" stroke="black" stroke-linecap="round" stroke-width="5"/>
</svg>
