<?xml version="1.0" ?>
<svg baseProfile="full" height="300" version="1.1" viewBox="[0, 0, 300, 300]" width="300" xmlns="http://www.w3.org/2000/svg" xmlns:ev="http://www.w3.org/2001/xml-events" xmlns:xlink="http://www.w3.org/1999/xlink">
	<defs/>
	<path d="M84,35c0,14.08354 -2,27.91662 -2,42c0,1 -0.85749,2.4855 0,3c4.5206,2.71236 52.90755,0.68757 59,1c1.12888,0.05789 33.1847,4.72295 35,2c0.5547,-0.83205 -0.14142,-2.01005 0,-3c2.29724,-16.08066 5,-32.72585 5,-49c0,-2 1.85695,-5.25722 0,-6c-4.30598,-1.72239 -37.51927,3.64121 -45,3c-2.25823,-0.19356 -44.29239,-6.41522 -46,-3c-3.46533,6.93066 2.13806,22.86194 -3,28" fill="none" stroke="black" stroke-linecap="round" stroke-width="5"/>
	<path d="M82,105c0,9.26028 0.23163,59.23163 4,63c0.94281,0.94281 2.67328,0.13267 4,0c18.29814,-1.82981 35.52836,-2.90106 54,-2c12.656,0.61737 25.32895,1 38,1c3,0 7.3359,2.49615 9,0c5.09399,-7.64099 4,-22.63684 4,-31c0,-0.62733 0.81643,-18.72786 0,-19c-20.56797,-6.85599 -88.3807,-9 -114,-9" fill="none" stroke="black" stroke-linecap="round" stroke-width="5"/>
	<path d="M85,27c2.56068,0 2,1.81753 2,4c0,13.20661 -3.80789,24.42366 -8,37c-5.93625,17.80875 -39.52385,124.47615 -27,137c10.13434,10.13434 27,-8.74912 27,-19c0,-0.12821 0,-5 0,-5c0,0 0.45787,3.39746 0,5c-2.80961,9.83363 -7,17.469 -7,28c0,0.33333 -0.29814,0.85093 0,1c32.76467,16.38234 34.74315,-35.74315 45,-46c4.57053,-4.57053 54.47771,-3 66,-3c0.33333,0 0.85093,-0.29814 1,0c4.85015,9.70029 -3.68314,27.31686 4,35c1.58027,1.58027 4.25691,-1.38076 5,-2c8.327,-6.93916 13.25422,-12.01688 16,-23c0.32338,-1.29352 0,-4 0,-4c0,0 0,7.33333 0,11c0,8.58517 -5.18981,47.79745 14,43c19.43813,-4.85953 20,-26.76788 20,-43c0,-12.3076 -6.07563,-56.07563 -15,-65c-12.34165,-12.34165 -34.40331,-9.93554 -48,-19c-1.1094,-0.7396 0,-2.66667 0,-4c0,-15.69212 3.49777,-29.76448 1,-46c-0.85511,-5.55825 -2,-11.43969 -2,-17" fill="none" stroke="black" stroke-linecap="round" stroke-width="5"/>
</svg>
