<?xml version="1.0" ?>
<svg baseProfile="full" height="300" version="1.1" viewBox="[0, 0, 300, 300]" width="300" xmlns="http://www.w3.org/2000/svg" xmlns:ev="http://www.w3.org/2001/xml-events" xmlns:xlink="http://www.w3.org/1999/xlink">
	<defs/>
	<path d="M87,209c0,-43.69415 -16.70402,-91.31194 0,-134c15.2315,-38.92494 114.5752,-34.04972 137,-3c18.09686,25.0572 20,59.37147 20,89c0,13.19441 -8.67352,39.32648 2,50" fill="none" stroke="black" stroke-linecap="round" stroke-width="5"/>
	<path d="M90,106c44.34624,-11.08656 89.53737,-9 135,-9c11.33333,0 22.66667,0 34,0c6.03692,0 24.03692,-2 18,-2" fill="none" stroke="black" stroke-linecap="round" stroke-width="5"/>
	<path d="M140,73c-4.50484,-2.25242 -17.68217,-1.81227 -22,-2c-3.66321,-0.15927 -7.33333,0 -11,0c-1,0 -3.94868,0.31623 -3,0c13.32741,-4.44247 32.02544,-6 46,-6c2.02759,0 -4,0.66667 -6,1c-6,1 -11.96662,2.22649 -18,3c-6.97459,0.89418 -13.98802,1.4741 -21,2c-6.32434,0.47433 -12.68395,0.42581 -19,1c-1.04976,0.09543 -3.94281,0.5286 -3,1c11.8358,5.9179 66.04294,-1.58453 81,-2c16.68688,-0.46352 5.79753,0.63804 -5,3c-6.32266,1.38308 -12.63493,2.82749 -19,4c-8.62354,1.58855 -17.35068,2.55845 -26,4c-4.60317,0.7672 9.33333,0 14,0c16,0 32,0 48,0c5.04425,0 -10.02909,1.14295 -15,2c-8.64918,1.49124 -17.99472,2.99736 -26,7c-5.10338,2.55169 11.29623,1.8499 17,2c15.19767,0.39994 36.11927,-3.72018 51,0c1.64893,0.41223 -2.61245,4.46252 -1,5c5.42222,1.80741 15.44719,1.57286 21,2c0.99705,0.0767 3.70711,0.70711 3,0c-5.30653,-5.30653 -75.43621,-8.92953 -84,-10c-8.04772,-1.00597 -16.02524,-2.52319 -24,-4c-1.03647,-0.19194 -3.94281,-0.5286 -3,-1c7.75743,-3.87872 17.32693,-1 26,-1c9.33333,0 18.66667,0 28,0" fill="none" stroke="black" stroke-linecap="round" stroke-width="5"/>
	<path d="M71,137c8.80496,0 9.7987,24.39935 19,29c22.45609,11.22805 98.53857,17.03549 125,15c12.9709,-0.99776 11.08713,-41.08713 17,-47c0.72303,-0.72303 -12.2022,0 -14,0c-15.0037,0 -30.0125,-0.30291 -45,-1c-29.66957,-1.37998 -58.39292,-1 -88,-1" fill="none" stroke="black" stroke-linecap="round" stroke-width="5"/>
	<path d="M117,141c-6.68094,0 -52.56023,4.12046 -55,9c-0.44721,0.89443 2,0 3,0c5.66667,0 11.33846,0.24092 17,0c28.33501,-1.20575 32.47919,-2.5727 61,-5c5.32449,-0.45315 10.68562,-0.44059 16,-1c1.0483,-0.11035 4.05409,-1 3,-1c-15.29583,0 -31.77772,3.79824 -47,5c-5.32716,0.42057 -10.68894,0.40988 -16,1c-0.7408,0.08231 -2.73521,0.87746 -2,1c19.61451,3.26908 46.37047,-1 66,-1c8,0 16,0 24,0c1.66667,0 6.66667,0 5,0c-24.88051,0 -51.22764,3.24752 -76,6c-3.31295,0.36811 6.66667,0 10,0c15,0 30.00469,0.37488 45,0c5.70397,-0.1426 22.70575,-2 17,-2c-7.82358,0 -41.25412,9.25412 -46,14c-0.74536,0.74536 1.94824,0.92988 3,1c3.99114,0.26608 8,0 12,0c14.38831,0 28.62854,-1 43,-1" fill="none" stroke="black" stroke-linecap="round" stroke-width="5"/>
	<path d="M82,152c-3.60481,0 -31.72718,43.27282 -28,47" fill="none" stroke="black" stroke-linecap="round" stroke-width="5"/>
	<path d="M200,181c0,9.25279 -1,19.03143 -1,28" fill="none" stroke="black" stroke-linecap="round" stroke-width="5"/>
</svg>
