<?xml version="1.0" ?>
<svg baseProfile="full" height="300" version="1.1" viewBox="[0, 0, 300, 300]" width="300" xmlns="http://www.w3.org/2000/svg" xmlns:ev="http://www.w3.org/2001/xml-events" xmlns:xlink="http://www.w3.org/1999/xlink">
	<defs/>
	<path d="M72,147c0,-26.52351 -11.7417,-100.56293 9,-119c12.06828,-10.72736 38.42782,-8 53,-8c88.37087,0 104,51.07 104,130" fill="none" stroke="black" stroke-linecap="round" stroke-width="5"/>
	<path d="M76,56c28.24036,0 57.65305,-2.90973 86,-4c4.51189,-0.17353 65.36592,-1 38,-1" fill="none" stroke="black" stroke-linecap="round" stroke-width="5"/>
	<path d="M82,34c15.40372,0 30.60753,-0.23038 46,-1" fill="none" stroke="black" stroke-linecap="round" stroke-width="5"/>
	<path d="M149,31c-28.64029,0 -60.85991,1.30998 -89,6c-0.73521,0.12254 1.25557,0.96278 2,1c5.99251,0.29963 12,0 18,0c19,0 38.00412,0.39575 57,0c6.34072,-0.1321 25.25581,-2.04263 19,-1c-28.708,4.78467 -57.13851,7.39231 -86,11c-0.66152,0.08269 1.33333,0 2,0c6,0 12,0 18,0c23.66901,0 47.33439,0.59889 71,1c6.99899,0.11863 14,0 21,0c0.66667,0 2.66667,0 2,0c-12.41716,0 -24.5795,0.22372 -37,1c-5.33333,0.33333 -21.34374,1 -16,1c6.85518,0 14.66418,1.16791 21,-2" fill="none" stroke="black" stroke-linecap="round" stroke-width="5"/>
	<path d="M75,88c0,6.78359 -6.79383,14.82469 -5,22c1.43522,5.74087 33.5853,5.86943 48,7c30.34492,2.37999 64.89797,13.32838 93,-2c10.38112,-5.66243 29.88138,-34.11862 19,-45c-4.40328,-4.40328 -11.82402,4.2031 -18,5c-15.62355,2.01594 -32.51794,0.2259 -48,1c-25.42958,1.27148 -50.64376,9 -76,9" fill="none" stroke="black" stroke-linecap="round" stroke-width="5"/>
	<path d="M60,90c-4.61227,0 -9.01283,-0.99038 -13,2c-0.37712,0.28284 0.53775,0.90755 1,1c7.15652,1.4313 30.06136,1.92684 32,2c9.99844,0.3773 20.00105,0.6364 30,1c8.33449,0.30307 16.66322,0.76842 25,1c3.66525,0.10181 11,-3.66667 11,0c0,1.68989 -45.25705,0.8271 -52,1c-5.6746,0.1455 -11.33138,0.70165 -17,1c-0.66575,0.03504 -2.66667,0 -2,0c19.80734,0 79.8724,8.4184 94,-1c1.6641,-1.1094 -4.00308,-0.11094 -6,0c-10.62922,0.59051 -15.15362,1.37304 -26,3c-2.00515,0.30077 -7.98821,0.60236 -6,1c16.99685,3.39937 38.75289,0 56,0c5.66667,0 22.66667,0 17,0c-13.32657,0 -25.63582,0.09083 -39,2c-12.36503,1.76643 -19.95231,2.41795 -30,8c-0.29139,0.16188 -0.33235,0.97443 0,1c20.01555,1.53966 46.6968,3.11224 64,-9c0.54615,-0.38231 0.4,-1.46667 0,-2c-3.82862,-5.10483 -17.2859,-2.35705 -22,0" fill="none" stroke="black" stroke-linecap="round" stroke-width="5"/>
	<path d="M69,82c-8.13626,16.27252 -60,68.67938 -60,77" fill="none" stroke="black" stroke-linecap="round" stroke-width="5"/>
	<path d="M199,121c0,6.26175 -2,11.90151 -2,18" fill="none" stroke="black" stroke-linecap="round" stroke-width="5"/>
</svg>
