<?xml version="1.0" ?>
<svg baseProfile="full" height="300" version="1.1" viewBox="[0, 0, 300, 300]" width="300" xmlns="http://www.w3.org/2000/svg" xmlns:ev="http://www.w3.org/2001/xml-events" xmlns:xlink="http://www.w3.org/1999/xlink">
	<defs/>
	<path d="M94,191c-8.05954,-40.29771 -23.24661,-98.89819 1,-137c24.95626,-39.21699 104.29807,-21.10303 126,13c20.72668,32.5705 15,116.51894 15,157" fill="none" stroke="black" stroke-linecap="round" stroke-width="5"/>
	<path d="M94,75c44.91328,0 89.22722,7 134,7" fill="none" stroke="black" stroke-linecap="round" stroke-width="5"/>
	<path d="M84,122c5.83904,0 3.35016,28.70033 6,34c0.70627,1.41254 25.64485,2.95101 26,3c28.87839,3.98323 64.4929,13.91785 94,9c7.66433,-1.27739 12.65043,-11.85911 16,-18c1.29954,-2.3825 12.44984,-28.18339 10,-29c-9.32456,-3.10819 -30.82265,1.44768 -40,1c-37.02128,-1.80592 -74.14387,-1 -111,-1" fill="none" stroke="black" stroke-linecap="round" stroke-width="5"/>
	<path d="M78,106c0,20.73464 -59,70.81619 -59,98" fill="none" stroke="black" stroke-linecap="round" stroke-width="5"/>
	<path d="M192,169c0,7.74229 -0.79822,23.79822 -6,29" fill="none" stroke="black" stroke-linecap="round" stroke-width="5"/>
	<path d="M152,48c-7.84598,-2.61533 -18.89316,-1 -27,-1c-4.66667,0 -9.33333,0 -14,0c-3,0 -11.96985,0.42426 -9,0c14.56056,-2.08008 30.37496,-1.65178 45,-2c6.66478,-0.15869 13.33333,0 20,0c4.33333,0 16.06413,-3.06413 13,0c-7.3122,7.3122 -35.09218,7.10922 -44,8c-4.69065,0.46907 -18.47214,0.50929 -14,2c9.54053,3.18018 43.36487,-4.63513 49,1c2.4267,2.4267 -5.7586,3.87256 -9,5c-6.4409,2.24031 -32.6036,2.6036 -37,7c-1.43372,1.43372 3.99101,0.72605 6,1c5.32555,0.72621 10.6448,1.54098 16,2c15.55018,1.33287 22.41879,1 38,1c3.01846,0 11.99515,0.62561 9,1c-5.63263,0.70408 -11.34685,0.48608 -17,1c-0.66393,0.06036 -2.66667,0 -2,0c13,0 26,0 39,0" fill="none" stroke="black" stroke-linecap="round" stroke-width="5"/>
	<path d="M126,128c-46.52504,0 44.69682,1.94208 46,2c6.33584,0.28159 12.68174,0.45059 19,1c1.3692,0.11906 5.30384,0.56539 4,1c-18.8405,6.28017 -45.31411,3 -65,3c-4.33333,0 8.66865,-0.13125 13,0c7.65956,0.23211 35.37895,-1.81053 43,2c0.94281,0.4714 -1.96291,0.81144 -3,1c-7.36247,1.33863 -17.5207,0.68047 -24,5c-0.83205,0.5547 2,0 3,0c6,0 12,0 18,0c0.66667,0 2,0 2,0c0,0 -16.12644,4.18391 -15,7c2.71401,6.78503 51.68396,15 60,15c4,0 -8,0 -12,0c-11,0 -22,0 -33,0c-1.37437,0 2.66667,-0.66667 4,-1c1.6169,-0.40423 -2.47698,-2.3231 -4,-3c-4.24264,-1.88562 -8.5708,-3.60797 -13,-5c-13.03791,-4.09763 -26.58234,-6.40303 -40,-9c-4.68565,-0.9069 -18.77261,-3 -14,-3c0.91928,0 8,0 8,0c0,0 -16.7735,1.2265 -7,11" fill="none" stroke="black" stroke-linecap="round" stroke-width="5"/>
</svg>
