<?xml version="1.0" ?>
<svg baseProfile="full" height="300" version="1.1" viewBox="[0, 0, 300, 300]" width="300" xmlns="http://www.w3.org/2000/svg" xmlns:ev="http://www.w3.org/2001/xml-events" xmlns:xlink="http://www.w3.org/1999/xlink">
	<defs/>
	<path d="M72,32c6.63425,6.63425 -5.14338,49.85662 -5,50c5.30262,5.30262 34.79175,0.79973 41,1c6.20457,0.20015 72.91321,5.08679 77,1c2.10607,-2.10607 0,-19.6943 0,-22c0,-4.22399 0.05195,-33.97403 -4,-36c-1.80337,-0.90169 -39.33172,3.69431 -43,4c-20.60084,1.71674 -41.33629,1 -62,1" fill="none" stroke="black" stroke-linecap="round" stroke-width="5"/>
	<path d="M73,27c0,34.99103 -40.03284,81.96716 -10,112c13.15576,13.15576 35.34326,-37.34326 39,-41c0.28958,-0.28958 4.6253,-2.3747 6,-1c8.93123,8.93123 1.85289,49.92644 6,52c18.30401,9.15201 22.73967,-36.47935 26,-43c5.66624,-11.33248 24.06791,-6.86419 28,1c0.68058,1.36116 -1.19248,3 1,3" fill="none" stroke="black" stroke-linecap="round" stroke-width="5"/>
	<path d="M72,30c0,-0.74536 0.47295,-1.47295 1,-2" fill="none" stroke="black" stroke-linecap="round" stroke-width="5"/>
	<path d="M73,28c0,-31.65491 -7.6266,-21 -42,-21" fill="none" stroke="black" stroke-linecap="round" stroke-width="5"/>
	<path d="M168,108c8.21608,8.21608 1.76193,45.35373 17,41c22.18958,-6.33988 0.52003,-41.7943 15,-48c2.74036,-1.17444 5.89181,-6.10819 8,-4c7.95179,7.95179 7.4335,36.03447 9,47c0.27888,1.95216 -0.2121,5.0707 3,4c28.24394,-9.41465 26.65668,-52.45776 12,-72c-8.04943,-10.73258 -21.14186,-14.14186 -30,-23c-7.48634,-7.48634 -1.51785,-32.86224 -9,-35c-31.64185,-9.04053 -65.36139,-10.09035 -97,-18" fill="none" stroke="black" stroke-linecap="round" stroke-width="5"/>
</svg>
