<?xml version="1.0" ?>
<svg baseProfile="full" height="300" version="1.1" viewBox="[0, 0, 300, 300]" width="300" xmlns="http://www.w3.org/2000/svg" xmlns:ev="http://www.w3.org/2001/xml-events" xmlns:xlink="http://www.w3.org/1999/xlink">
	<defs/>
	<path d="M168,135c-13.28401,0 -26.62025,-2.16346 -40,-1c-11.00881,0.95729 -60.05704,19.70722 -37,37c24.87776,18.65832 129.80993,33.96688 143,-10c9.90189,-33.00632 -62.6795,-34.24359 -82,-36c-2.6059,-0.2369 -25,-4.00289 -25,2" fill="none" stroke="black" stroke-linecap="round" stroke-width="5"/>
	<path d="M95,108c-1.41251,1.41251 -16.88052,56.58701 2,44" fill="none" stroke="black" stroke-linecap="round" stroke-width="5"/>
	<path d="M228,86c0,19.08355 -2,38.66744 -2,58c0,3.18646 1.05609,4 -2,4" fill="none" stroke="black" stroke-linecap="round" stroke-width="5"/>
	<path d="M100,94c0,14.99821 -4,29.3732 -4,44" fill="none" stroke="black" stroke-linecap="round" stroke-width="5"/>
	<path d="M119,81c31.66204,0 63.25439,3 95,3c8.66667,0 17.33333,0 26,0c8.33333,0 16.66667,0 25,0c0.33333,0 1.33333,0 1,0c-41.50383,0 -129.71115,-12.64443 -165,5c-2.68328,1.34164 6.00762,0.21374 9,0c6.68289,-0.47735 13.31369,-1.57321 20,-2c17.65901,-1.12717 35.34796,-1.76846 53,-3c5.6627,-0.39507 11.35171,-0.43517 17,-1c1.04886,-0.10489 3.94281,-0.5286 3,-1c-14.3538,-7.1769 -106.11749,-3 -128,-3c-2.66667,0 5.33333,0 8,0c5.66667,0 11.34707,-0.39439 17,0c8.70301,0.60719 17.30807,2.2507 26,3c37.14252,3.20194 75.69929,6 113,6c1.33333,0 -2.66667,0 -4,0c-4,0 -8,0 -12,0c-8,0 -16,0 -24,0c-26.69806,0 -53.30969,-1 -80,-1c-10.14836,0 -19.94383,-1 -30,-1c-0.33333,0 -1.33333,0 -1,0c21.36701,0 42.65771,3 64,3" fill="none" stroke="black" stroke-linecap="round" stroke-width="5"/>
	<path d="M86,162c0,37.87247 -24.06213,75.80768 -27,114c-0.20452,2.65881 -1.19257,10.38514 0,8c1.08525,-2.17051 1.23261,-4.69783 2,-7" fill="none" stroke="black" stroke-linecap="round" stroke-width="5"/>
	<path d="M120,189c0,14.43255 -3.94472,29.61304 -6,44c-1.08458,7.59205 -2,15.33102 -2,23c0,1.33333 0,1.33333 0,0" fill="none" stroke="black" stroke-linecap="round" stroke-width="5"/>
	<path d="M199,185c0,5.58236 -2.06027,36 4,36" fill="none" stroke="black" stroke-linecap="round" stroke-width="5"/>
	<path d="M228,183c0,36.81083 13,72.56344 13,109" fill="none" stroke="black" stroke-linecap="round" stroke-width="5"/>
</svg>
