<?xml version="1.0" ?>
<svg baseProfile="full" height="300" version="1.1" viewBox="[0, 0, 300, 300]" width="300" xmlns="http://www.w3.org/2000/svg" xmlns:ev="http://www.w3.org/2001/xml-events" xmlns:xlink="http://www.w3.org/1999/xlink">
	<defs/>
	<path d="M90,39c0,6.11274 -1.39827,58.60173 0,60c4.40618,4.40618 26.27545,0.48924 31,1c16.47122,1.78067 77.75525,17.24475 91,4c4.20527,-4.20527 1,-28.48021 1,-33c0,-2.94016 3.3022,-27.6978 0,-31c-5.31769,-5.31769 -14.60653,-3.62447 -22,-5c-13.74189,-2.55663 -48.20942,-8.74191 -61,-10c-11.49816,-1.13097 -35.15075,-3.21231 -48,0" fill="none" stroke="black" stroke-linecap="round" stroke-width="5"/>
	<path d="M88,95c0,23.46361 0.16957,46.13473 -2,70c-0.39232,4.31554 -3.60555,10.5963 0,13c3.43063,2.28709 7.92868,-2.34859 12,-3c21.4296,-3.42874 43.39533,-3.76365 65,-2c15.69982,1.28162 37.72825,8.5145 52,-1c15.13561,-10.09041 13.23203,-47.40856 14,-62c0.15865,-3.01429 2.01846,-9 -1,-9" fill="none" stroke="black" stroke-linecap="round" stroke-width="5"/>
	<path d="M96,37c29.63672,49.39453 78.76281,87.14474 67,151c-4.13844,22.4658 -12.64203,44.82646 -21,66c-2.84669,7.21162 -10,28.75314 -10,21" fill="none" stroke="black" stroke-linecap="round" stroke-width="5"/>
	<path d="M212,52c14.43157,0 25.15368,26.98427 30,37c24.22707,50.06928 29,101.88782 29,157c0,9.27924 1.23142,49 -17,49" fill="none" stroke="black" stroke-linecap="round" stroke-width="5"/>
	<path d="M90,164c0,24.58134 -36.2762,37 -56,37" fill="none" stroke="black" stroke-linecap="round" stroke-width="5"/>
	<path d="M211,180c0,6.97542 5,13.63918 5,21" fill="none" stroke="black" stroke-linecap="round" stroke-width="5"/>
	<path d="M118,46c11.7347,0 23.28532,-1.49067 35,-2c4.01008,-0.17435 15.72678,-0.49071 12,1c-12.21205,4.88482 -33.56657,1.96388 -46,3c-4.69776,0.39148 -18.71405,2 -14,2c20.99859,0 42.22212,3.7738 63,6c8.01638,0.8589 29.70088,-2.70088 24,3c-14.58224,14.58224 -63.13418,14.20127 -71,26c-2.96769,4.45154 18.40307,6.44301 49,11c6.99392,1.04165 27.93375,1.61325 21,3c-17.16175,3.43235 -34.76847,5.86699 -52,9c-6.30837,1.14698 -12.76257,1.5149 -19,3c-0.91717,0.21837 -2.84327,1.57836 -2,2c20.74779,10.3739 49.57523,5.59292 72,12c5.45805,1.55944 -11.34685,0.48608 -17,1c-13.21136,1.20103 -36.5636,-1.62427 -48,6c-10.50346,7.00231 48.81872,17.44673 52,18c1.67454,0.29122 3.58579,0.05719 5,1c3.92232,2.61488 -9.30654,1.55999 -14,2c-7.05712,0.6616 -42.09287,-0.54285 -47,6c-1.07703,1.43604 3.22749,1.7164 5,2c11.95862,1.91338 31.26267,2.68277 43,3c4.99817,0.13509 20,0 15,0c-5.49616,0 -8.70238,0.23413 -14,2" fill="none" stroke="black" stroke-linecap="round" stroke-width="5"/>
</svg>
