<?xml version="1.0" ?>
<svg baseProfile="full" height="300" version="1.1" viewBox="[0, 0, 300, 300]" width="300" xmlns="http://www.w3.org/2000/svg" xmlns:ev="http://www.w3.org/2001/xml-events" xmlns:xlink="http://www.w3.org/1999/xlink">
	<defs/>
	<path d="M158,101c-31.31241,-10.43747 -83.97149,12.20366 -31,31c13.81917,4.90358 26.43227,4.68331 41,5c12.4773,0.27125 40.18817,4.64719 48,-10c11.2904,-21.16949 -40.23632,-27.76368 -47,-21" fill="none" stroke="black" stroke-linecap="round" stroke-width="5"/>
	<path d="M112,76c0,7.92812 -4.43373,24 5,24" fill="none" stroke="black" stroke-linecap="round" stroke-width="5"/>
	<path d="M208,72c2.66766,5.33532 5.66876,31.33124 0,37" fill="none" stroke="black" stroke-linecap="round" stroke-width="5"/>
	<path d="M178,68c-18.47426,-4.61856 -41.25278,0.5834 -60,1c-12.99679,0.28882 -26,0 -39,0c-2.68742,0 -10.62342,0.41702 -8,1c27.83497,6.18555 60.74616,2.52112 89,3c9.33199,0.15817 18.66861,0.19044 28,0c7.00647,-0.14299 13.99868,-0.69559 21,-1c0.66604,-0.02896 2.66667,0 2,0c-28,0 -56,0 -84,0c-1,0 2.0045,-0.09481 3,0c6.00973,0.57236 11.9696,1.71952 18,2c17.6547,0.82115 35.45957,-1.50578 53,1" fill="none" stroke="black" stroke-linecap="round" stroke-width="5"/>
	<path d="M95,119c2.72624,0 1.78262,3.26098 2,5c2.23887,17.91095 -2.50101,36.01216 -4,54c-0.50515,6.06175 -1.52471,12.09885 -3,18c-1.08085,4.32338 -1,5.37437 -1,3" fill="none" stroke="black" stroke-linecap="round" stroke-width="5"/>
	<path d="M123,133c0,14.18568 -4.41553,28.84475 -3,43c0.14455,1.44548 0.05605,6 2,6" fill="none" stroke="black" stroke-linecap="round" stroke-width="5"/>
	<path d="M155,145c0,5.60944 -3.83788,30.91894 0,29" fill="none" stroke="black" stroke-linecap="round" stroke-width="5"/>
	<path d="M195,144c14.07884,14.07884 14,92.1583 14,113" fill="none" stroke="black" stroke-linecap="round" stroke-width="5"/>
</svg>
