<?xml version="1.0" ?>
<svg baseProfile="full" height="300" version="1.1" viewBox="[0, 0, 300, 300]" width="300" xmlns="http://www.w3.org/2000/svg" xmlns:ev="http://www.w3.org/2001/xml-events" xmlns:xlink="http://www.w3.org/1999/xlink">
	<defs/>
	<path d="M99,154c11.43497,11.43497 20.66568,49.66568 23,52c0.19941,0.19941 26.11331,-4 28,-4c11.55144,0 37.0527,4.47365 48,-1c6.99141,-3.49571 2.63115,-47.65983 1,-55c-0.29814,-1.34164 0.30384,-3.56539 -1,-4c-14.92747,-4.97582 -43.31685,-1.62733 -59,-1c-11.54163,0.46167 -29.4892,1.7446 -40,7" fill="none" stroke="black" stroke-linecap="round" stroke-width="5"/>
	<path d="M98,156c0,8.14954 -13.51445,23.9711 -10,31c3.33921,6.67842 6.70304,12.86149 11,19c3.30403,4.72004 7.77262,16.77262 11,20c5.37724,5.37724 25.12813,-4.8078 19,-14c-1.61878,-2.42816 -4.11263,-4.11263 -6,-6c-4.80535,-4.80535 0.93409,1.19774 -2,10c-0.21082,0.63246 -0.4714,1.5286 0,2c0.2357,0.2357 0.66667,0 1,0c4.7415,0 70.44814,2.82779 75,-4c3.18361,-4.77542 1,-15.41018 1,-21" fill="none" stroke="black" stroke-linecap="round" stroke-width="5"/>
	<path d="M88,189c0,17.15533 -3,33.98334 -3,51" fill="none" stroke="black" stroke-linecap="round" stroke-width="5"/>
	<path d="M110,229c0,5.60569 -2.39363,34.78726 2,26" fill="none" stroke="black" stroke-linecap="round" stroke-width="5"/>
	<path d="M178,221c0,4.88903 -2.89112,14 3,14" fill="none" stroke="black" stroke-linecap="round" stroke-width="5"/>
	<path d="M197,218c0,12.88749 -2.62483,36.75034 3,48" fill="none" stroke="black" stroke-linecap="round" stroke-width="5"/>
	<path d="M113,116c0,8.02623 -9.32117,48.32117 4,35" fill="none" stroke="black" stroke-linecap="round" stroke-width="5"/>
	<path d="M140,112c0,10.99784 -5.22314,25 9,25" fill="none" stroke="black" stroke-linecap="round" stroke-width="5"/>
	<path d="M171,116c0,10.86764 -5.46281,25.78512 9,20" fill="none" stroke="black" stroke-linecap="round" stroke-width="5"/>
	<path d="M200,118c0,6.51473 1,28.68552 1,27" fill="none" stroke="black" stroke-linecap="round" stroke-width="5"/>
	<path d="M119,115c12.45171,0 102.35794,4.64206 107,0c3.92675,-3.92675 4.35826,-27.56695 3,-33c-3.43234,-13.72937 -24.14222,-6.30293 -35,-5c-15.50755,1.86091 -93.89177,-1.10823 -103,8c-0.96952,0.96952 -1.58917,9.35669 -2,11c-3.94835,15.79341 15.54449,12.96204 28,14c1.28964,0.10747 13.52337,2 6,2" fill="none" stroke="black" stroke-linecap="round" stroke-width="5"/>
	<path d="M133,97c-1.36615,0 -10,0 -10,0c0,0 7.13872,-1.19708 24,-2c3.99547,-0.19026 15.88057,-0.97014 12,0c-12.0639,3.01598 -24.61235,4 -37,4c-1.66667,0 3.33621,0.09787 5,0c4.00694,-0.2357 7.98852,-0.86167 12,-1c11.70965,-0.40378 28.37823,-3.32435 40,-1c3.33333,0.66667 -6.60727,1.78795 -10,2c-4.99026,0.31189 -10.52786,2.23607 -15,0c-1.22927,-0.61464 2.65836,-0.70186 4,-1c5.08063,-1.12903 9.83202,-1 15,-1" fill="none" stroke="black" stroke-linecap="round" stroke-width="5"/>
	<path d="M208,95c-16.23685,0 -32.68586,2.57068 -49,3c-10.00209,0.26321 -19.99445,1 -30,1c-0.33333,0 -1.33333,0 -1,0c28.60195,0 57.06116,-9 86,-9c8.30851,0 -16.41552,0.55324 -22,1c-9.64161,0.77133 -19.32759,1 -29,1c-4,0 -8,0 -12,0c-1,0 -3.89443,0.44721 -3,0c7.04975,-3.52488 17.42694,-2.73782 25,-4c0.73521,-0.12254 2.74536,-1 2,-1c-5.84269,0 -70.97592,7.97592 -71,8c-1.17851,1.17851 3.33541,0.08323 5,0c5.00485,-0.25024 9.99706,-0.71412 15,-1c7.59708,-0.43412 28.98432,1.00784 37,-3c2.74874,-1.37437 -6,1.33333 -9,2c-6.58072,1.46238 -13.33714,1.97494 -20,3c-1.04184,0.16028 -4.05409,1 -3,1c14.79311,0 30.03426,-6.49429 45,-4c2.82843,0.4714 -7,2.13256 -7,5c0,2.10819 3.89648,1.85977 6,2c10.62909,0.70861 18.9984,3 24,3c3.66667,0 7.35153,-0.36485 11,0c1.69124,0.16912 6.69967,1 5,1c-5.79061,0 -11.24948,1.36105 -17,2c-0.66259,0.07362 -2.66667,0 -2,0c9.60454,0 19.47801,-0.80975 29,-2c0.33076,-0.04134 1.32686,-0.06537 1,0c-7.06935,1.41387 -14.4709,2.73545 -21,6c-2.087,1.0435 4.68713,0.30838 7,0c1.26323,-0.16843 21.09565,-2.85652 17,-9c-2.49845,-3.74767 -53,-3.78282 -53,-7c0,-2.71851 20.32991,-5.66496 23,-7c2.4037,-1.20185 -5.31941,-1.19147 -8,-1c-8.74123,0.62437 -17.21803,1 -26,1c-0.33333,0 0.66667,0 1,0c5.46643,0 10.65243,-0.93049 16,-2" fill="none" stroke="black" stroke-linecap="round" stroke-width="5"/>
</svg>
