<?xml version="1.0" ?>
<svg baseProfile="full" height="300" version="1.1" viewBox="[0, 0, 300, 300]" width="300" xmlns="http://www.w3.org/2000/svg" xmlns:ev="http://www.w3.org/2001/xml-events" xmlns:xlink="http://www.w3.org/1999/xlink">
	<defs/>
	<path d="M81,28c0,28.97313 0,57.9485 0,87c0,0.62828 -1.4041,21 -1,21c0.4314,0 14.29386,-7.85289 15,-8c15.2665,-3.18052 30.56711,-2.44883 46,-3c10.4945,-0.3748 21.41837,-3.17574 32,-2c2.27076,0.25231 20.92333,5.61501 22,4c5.02473,-7.5371 1,-32.22912 1,-41c0,-4.53856 0.7757,-52.2243 -2,-55c-2.87209,-2.87209 -28.71405,0 -32,0c-30.06645,0 -60.19297,-4 -90,-4" fill="none" stroke="black" stroke-linecap="round" stroke-width="5"/>
	<path d="M78,27c17.65758,17.65758 39.85406,98.18707 46,124c5.36611,22.53765 11.64401,47.77995 7,71c-0.48,2.39999 -1.10208,3.89792 -3,2" fill="none" stroke="black" stroke-linecap="round" stroke-width="5"/>
	<path d="M79,138c0,-1.33333 0,2.66667 0,4c0,4.54887 -0.78228,8.93418 -3,13c-2.2805,4.18092 -28.69645,37 -33,37" fill="none" stroke="black" stroke-linecap="round" stroke-width="5"/>
	<path d="M82,136c7.46772,0 1.5218,19.5218 5,23c3.53553,3.53553 10.02481,-0.49752 15,0c18.45757,1.84576 58.70027,11.09991 77,5c20.24057,-6.74686 25.61613,-6.08066 30,-28c0.6027,-3.0135 4.74874,-7.62563 2,-9c-2.27058,-1.13529 -4.51776,2.46809 -7,3c-29.37127,6.29384 -62.26311,-1 -92,-1" fill="none" stroke="black" stroke-linecap="round" stroke-width="5"/>
	<path d="M195,37c14.39237,43.17712 23.07989,87.39463 36,131c6.56857,22.16893 14,42.646 14,66" fill="none" stroke="black" stroke-linecap="round" stroke-width="5"/>
	<path d="M189,163c0,4.68259 2,10.56842 2,16" fill="none" stroke="black" stroke-linecap="round" stroke-width="5"/>
	<path d="M124,53c-7.66667,0 -15.33333,0 -23,0c-5,0 -10.00433,0.20815 -15,0c-30.91339,-1.28806 51.70275,-8.37835 54,-7c4.22024,2.53215 -8.18764,5.96878 -13,7c-2.79601,0.59914 -34.23819,3.79671 -36,4c-2.34149,0.27017 -8.66667,-0.66667 -7,1c1.88562,1.88562 5.35779,0.3603 8,0c12.05397,-1.64372 23.89196,-4.81873 36,-6c6.31213,-0.61582 12.66194,-0.77364 19,-1c3.39718,-0.12133 12.17621,-0.61145 10,2c-7.36545,8.83854 -29.16502,9.68589 -39,12c-5.35134,1.25914 -10.73437,2.42031 -16,4c-1.42784,0.42835 -5.24035,1.1731 -4,2c7.89783,5.26522 35.49884,-1.43326 44,-2c3.99114,-0.26608 14.4,-3.2 12,0c-11.49791,15.33055 -37.20261,18.32418 -47,34c-0.55867,0.89387 0.00937,2.63977 1,3c17.33543,6.30379 40.66331,-4.53468 57,2c1.66667,0.66667 -3.30728,1.40257 -5,2c-3.976,1.40329 -7.9731,2.75027 -12,4c-1.93842,0.60158 -36,8.27515 -36,11c0,1.05409 1.95405,0.86926 3,1c5.15263,0.64408 45,2 45,2c0,0 -29.18433,5.36866 -31,9c-0.83209,1.66417 24.45528,5.72764 27,7c3.48967,1.74483 -7.24855,2.92816 -11,4c-0.3765,0.10757 -20.71125,4.969 -22,6c-1.32722,1.06178 3.30033,1 5,1c7.1929,0 34.31641,-7.94923 31,2" fill="none" stroke="black" stroke-linecap="round" stroke-width="5"/>
</svg>
