<?xml version="1.0" ?>
<svg baseProfile="full" height="300" version="1.1" viewBox="[0, 0, 300, 300]" width="300" xmlns="http://www.w3.org/2000/svg" xmlns:ev="http://www.w3.org/2001/xml-events" xmlns:xlink="http://www.w3.org/1999/xlink">
	<defs/>
	<path d="M107,54c0,11.85295 -3.27036,49.45928 1,58c1.0435,2.087 4.66958,0.11652 7,0c16.70466,-0.83523 33.29168,-1.49369 50,-2c5.34129,-0.16186 10.7002,-0.31615 16,-1c5.05709,-0.65253 10.05322,-1.76331 15,-3c3.90743,-0.97686 10.02314,-1.09257 11,-5c3.9118,-15.64722 -1,-39.8132 -1,-56c0,-2.74874 -5.31022,1.43373 -8,2c-12.40201,2.61095 -15.22693,2.21297 -29,3c-25.70979,1.46913 -51.24355,3 -77,3" fill="none" stroke="black" stroke-linecap="round" stroke-width="5"/>
	<path d="M96,126c1.78218,0 2.45293,3.35879 3,5c2.6259,7.8777 6.01627,44.01627 8,46c0.70711,0.70711 2,0 3,0c14.65533,0 28.41555,2.30413 43,4c29.76962,3.46158 42.94021,2.80598 71,0c2.76309,-0.27631 16.5509,-0.32636 19,-4c1.20675,-1.81012 0,-12.46422 0,-14c0,-2.53208 0.74142,-30.31465 -2,-31c-24.59646,-6.14912 -77.79456,-4.87351 -104,-4c-10.74019,0.35801 -32.78294,8.21706 -42,-1" fill="none" stroke="black" stroke-linecap="round" stroke-width="5"/>
	<path d="M95,61c9.81889,0 -5.87555,38.04296 -8,43c-7.98637,18.63487 -52.64476,111.35524 -36,128c8.33595,8.33595 47.902,-11.19178 54,-20c4.43817,-6.4107 6,-12.22093 6,-20c0,-0.33333 0.2357,-1.2357 0,-1c-2.8799,2.8799 -9.50649,25.12013 -7,27c3.01441,2.26081 22.28813,-17.15645 24,-19c1.95115,-2.10124 3.35563,-4.6509 5,-7c0.85487,-1.22124 2,-5.49071 2,-4c0,2.52174 -5.69356,26.10215 -3,27c15.77131,5.2571 14.89937,-31.29979 23,-34c2.91284,-0.97095 72.33465,9 88,9c1.15906,0 5.53739,-3.46261 6,-3c3.86015,3.86015 -24.68025,39 7,39c3.01846,0 6.13644,-0.04548 9,-1c10.98367,-3.66122 20.24097,-17.51569 23,-28c1.59863,-6.0748 1,-12.785 1,-19c0,-0.33333 0.2357,-1.2357 0,-1c-3.38117,3.38117 -2,14.25858 -2,18c0,33.05637 25.78507,-5.42986 14,-29c-25.08886,-50.17772 -98,-58.74433 -98,-129" fill="none" stroke="black" stroke-linecap="round" stroke-width="5"/>
</svg>
