<?xml version="1.0" ?>
<svg baseProfile="full" height="300" version="1.1" viewBox="[0, 0, 300, 300]" width="300" xmlns="http://www.w3.org/2000/svg" xmlns:ev="http://www.w3.org/2001/xml-events" xmlns:xlink="http://www.w3.org/1999/xlink">
	<defs/>
	<path d="M94,41c6.56484,13.12967 1,32.92416 1,47c0,1.33333 -1.19257,3.40372 0,4c15.12111,7.56056 47.13069,6.80232 63,8c19.17909,1.44748 44.03583,4.32139 63,-2c1.84391,-0.61464 -2.5286,-3.11438 -3,-5c-1.43477,-5.73909 -2.54757,-12.11835 -3,-18c-0.45406,-5.90282 7.62164,-29.37836 3,-34c-7.94112,-7.94112 -39.73949,-2.86817 -49,-2c-18.86008,1.76813 -38.33039,2.8884 -57,6" fill="none" stroke="black" stroke-linecap="round" stroke-width="5"/>
	<path d="M96,96c0,-2.86744 4.30454,4.21817 5,7c1.6326,6.53038 0.31896,17.73496 -1,24c-0.53078,2.52118 -7.95747,23.0319 -4,26c6.89853,5.1739 25.18188,5.97728 32,7c23.08668,3.463 58.94545,12.68485 82,5c0.21113,-0.07038 29.97241,-59 17,-59" fill="none" stroke="black" stroke-linecap="round" stroke-width="5"/>
	<path d="M101,49c14.99746,19.99662 50.42771,81.71085 56,104c4.16106,16.64425 -1,34.24082 -1,51" fill="none" stroke="black" stroke-linecap="round" stroke-width="5"/>
	<path d="M213,42c5.05265,0 15.23873,32.30133 17,36c17.70664,37.18395 27.55176,73.37991 30,115c0.37553,6.38398 -7.07591,42 -14,42" fill="none" stroke="black" stroke-linecap="round" stroke-width="5"/>
	<path d="M101,118c0,20.59026 -2.64625,58.30781 -16,75c-5.73525,7.16906 -19.63661,10.86373 -28,14c-1.68031,0.63012 -4,0.36029 -4,2" fill="none" stroke="black" stroke-linecap="round" stroke-width="5"/>
	<path d="M206,167c0,9.4105 1.17858,17.46427 -2,27" fill="none" stroke="black" stroke-linecap="round" stroke-width="5"/>
	<path d="M181,64c-8.28147,0 -16.74644,-0.31744 -25,0c-42.74045,1.64386 22.47222,-0.94722 33,-2c5.39934,-0.53993 -10.64013,2.1537 -16,3c-20.61158,3.25446 -25.97099,3.4871 -47,4c-5.99822,0.1463 -24,0 -18,0c15.7551,0 33.47194,-2.80553 49,-4c8.33533,-0.64118 16.68598,-1.12484 25,-2c4.68814,-0.49349 18.53267,-3.29505 14,-2c-14.70086,4.20025 -31.05576,7.34325 -46,10c-7.61225,1.35329 -15.31568,2.14619 -23,3c-4.68521,0.52058 -18.70016,1.63845 -14,2c23.07048,1.77465 46.84394,0.05485 70,1c6.69434,0.27324 24.36025,-3.08696 20,2c-11.43632,13.34237 -71,36.43408 -71,48c0,1.66667 2.35601,2.726 4,3c16.12452,2.68742 32.65307,2 49,2c7.00793,0 14.01439,-0.44115 21,-1c1.36999,-0.1096 4.61464,0.22927 4,-1c-0.76012,-1.52023 -3.30168,-0.93207 -5,-1c-23.05201,-0.92208 -47.14105,-0.15296 -70,3c-2.08841,0.28806 -5.33333,0 -6,2c-0.53748,1.61245 3.3062,0.85885 5,1c6.32019,0.52668 12.66543,0.691 19,1c7.33219,0.35767 14.66317,0.75544 22,1c2.66519,0.08884 10.52982,0.84327 8,0c-3.49285,-1.16428 -7.32906,-0.71762 -11,-1c-12.70865,-0.97759 -29.73025,-4.11239 -42,1c-0.97301,0.40542 -1.58471,2.12294 -1,3c2.75411,4.13116 27,6 27,6c0,0 -17.50774,4.17956 -18,5c-1.21268,2.02113 4.64298,1 7,1c10.23068,0 25.43123,-3.44986 27,-16c1.00121,-8.00968 -44.42336,-12.20406 -49,-13c-7.34333,-1.2771 -14.70311,-2.47981 -22,-4c-0.72969,-0.15202 -2.66667,-0.66667 -2,-1c14.62776,-7.31388 82.9238,-4.05394 87,-19c0.56159,-2.05917 -2.01238,-4.22224 -4,-5c-20.00422,-7.82774 -45.99452,-7.29685 -67,-9c-4.00074,-0.32438 -12,3.01386 -12,-1c0,-4 8.0186,0.3853 12,0c6.38198,-0.61761 12.66667,-2 19,-3c10.07325,-1.59051 19.80196,-6 30,-6c1.66667,0 -2.82149,1.82149 -4,3c-2.83823,2.83823 -5.51283,5.84959 -8,9c-7.9853,10.11471 -7.34949,10.75723 -13,23" fill="none" stroke="black" stroke-linecap="round" stroke-width="5"/>
</svg>
