<?xml version="1.0" ?>
<svg baseProfile="full" height="300" version="1.1" viewBox="[0, 0, 300, 300]" width="300" xmlns="http://www.w3.org/2000/svg" xmlns:ev="http://www.w3.org/2001/xml-events" xmlns:xlink="http://www.w3.org/1999/xlink">
	<defs/>
	<path d="M94,48c0,7.77139 1.1126,44.7042 5,46c6.7266,2.2422 30.82684,-4 38,-4c12.13801,0 35.2935,2.5652 46,-6c3.40001,-2.72001 4.6638,-14.30175 5,-18c0.13013,-1.43148 2.6799,-22.84891 2,-23c-7.81627,-1.73695 -16.0479,-0.06446 -24,-1c-32.00265,-3.76502 -62.52922,-12 -95,-12" fill="none" stroke="black" stroke-linecap="round" stroke-width="5"/>
	<path d="M97,99c0,19.39298 -3,39.41008 -3,59c0,1.33333 -1.14332,3.31401 0,4c16.43852,9.86311 49.85483,9.26111 68,12c16.96308,2.56046 48.5948,11.45937 66,4c1.59628,-0.68412 1,-5.74189 1,-6c0,-16.90065 -0.14249,-34.28238 -2,-51c-0.18405,-1.65647 1.49071,-4.25464 0,-5c-4.16891,-2.08445 -22.1435,-1.74009 -24,-2c-29.33131,-4.10638 -58.92169,-10.18434 -88,-16" fill="none" stroke="black" stroke-linecap="round" stroke-width="5"/>
	<path d="M99,46c-7.46305,0 -14.9799,28.51088 -17,33c-7.33437,16.29859 -49.32887,104.86097 -34,118c12.07016,10.34585 27.21915,3.69867 35,-7c0.31273,-0.43 6.52977,-6.47023 4,-9c-2.94084,-2.94084 -14.71911,22 -13,22c10.39278,0 21.11396,-18 30,-18c0.56839,0 -4.59932,22.10017 3,24c8.08287,2.02072 18.19352,0.60216 26,-2c5.82807,-1.94269 13.11838,-6.23676 16,-12c2.0572,-4.1144 0.72787,-14.72787 4,-18c0.92347,-0.92347 6.99213,0.99803 7,1c4.82612,1.20653 63.64276,8.64276 64,9c3.61769,3.61769 -2.08384,16.91616 3,22c4.38528,4.38528 24.47966,-12.22762 27,-15c1.75125,-1.92637 3.83572,-8.32857 5,-6c0.85522,1.71044 -3.0765,22 0,22c9.64482,0 17.67536,-23.02608 20,-30c10.30347,-30.91041 -84,-93.54215 -84,-126" fill="none" stroke="black" stroke-linecap="round" stroke-width="5"/>
</svg>
