<?xml version="1.0" ?>
<svg baseProfile="full" height="300" version="1.1" viewBox="[0, 0, 300, 300]" width="300" xmlns="http://www.w3.org/2000/svg" xmlns:ev="http://www.w3.org/2001/xml-events" xmlns:xlink="http://www.w3.org/1999/xlink">
	<defs/>
	<path d="M43,59c11.64499,11.64499 41.77739,-6.9258 54,-11c44.56094,-14.85365 61.98713,-19.55699 112,-14c5.36731,0.59637 17.08858,-0.45571 22,2c10.28494,5.14247 11.40213,14.6032 17,23c2.27517,3.41276 18,12.31523 18,14c0,1.69967 -3.30033,1 -5,1c-10.19527,0 -21.73317,4.59165 -33,6c-1.6538,0.20672 -3.33333,0 -5,0c-2,0 -4,0 -6,0c-42.38726,0 -84.59695,-1 -127,-1c-18.37958,0 -47,7.97289 -47,-16" fill="none" stroke="black" stroke-linecap="round" stroke-width="5"/>
	<path d="M67,80c0,14.7108 2.37888,30.58382 5,45c1.49356,8.2146 8,17.77254 8,26" fill="none" stroke="black" stroke-linecap="round" stroke-width="5"/>
	<path d="M103,80c8.75204,26.25611 1.01744,56.03488 14,82" fill="none" stroke="black" stroke-linecap="round" stroke-width="5"/>
	<path d="M135,87c0,20.23677 9,41.00767 9,61" fill="none" stroke="black" stroke-linecap="round" stroke-width="5"/>
	<path d="M167,80c0,28.11788 11,60.67652 11,85" fill="none" stroke="black" stroke-linecap="round" stroke-width="5"/>
	<path d="M205,86c0,9.99068 1.67334,20.05006 3,30c0.79786,5.98397 1.33333,12 2,18c1.71695,15.45253 3.79586,31.28551 8,46c0.28958,1.01354 -0.05409,3 1,3" fill="none" stroke="black" stroke-linecap="round" stroke-width="5"/>
	<path d="M247,82c0,24.0492 -4,49.08649 -4,73" fill="none" stroke="black" stroke-linecap="round" stroke-width="5"/>
	<path d="M63,178c10.21237,0 23.27658,-5.65957 34,-7c34.06487,-4.25811 68.73368,-8.57337 103,-12c13.07408,-1.30741 28.1835,-5 41,-5c1,0 2.29289,-0.70711 3,0c6.51465,6.51465 8.49878,20.49878 13,25c1.78818,1.78818 -13.31714,11.15857 -15,12c-11.52652,5.76326 -19.23457,13.08642 -24,25c-8.71349,21.78373 16.85936,34.28128 12,44c-3.73623,7.47246 -25.3957,1.80061 -31,1c-19.03985,-2.71998 -99.31638,-0.15819 -107,-4c-22.47358,-11.23679 9.29982,-49.70018 -20,-79" fill="none" stroke="black" stroke-linecap="round" stroke-width="5"/>
	<path d="M85,253c0,5.2618 -9.65047,31.65047 -14,36" fill="none" stroke="black" stroke-linecap="round" stroke-width="5"/>
	<path d="M106,261c0,14.26467 -3,27.84578 -3,42" fill="none" stroke="black" stroke-linecap="round" stroke-width="5"/>
	<path d="M81,274c4.55392,0 8.62692,1 13,1" fill="none" stroke="black" stroke-linecap="round" stroke-width="5"/>
	<path d="M107,279c32.1646,0 63.97498,-2 96,-2" fill="none" stroke="black" stroke-linecap="round" stroke-width="5"/>
	<path d="M220,260c-3.60995,10.82984 1,22.09146 1,33" fill="none" stroke="black" stroke-linecap="round" stroke-width="5"/>
	<path d="M228,261c0.1859,0 34.47478,39.21216 39,46" fill="none" stroke="black" stroke-linecap="round" stroke-width="5"/>
	<path d="M198,275c18.93205,-3.78641 42.79612,-9 62,-9" fill="none" stroke="black" stroke-linecap="round" stroke-width="5"/>
</svg>
