<?xml version="1.0" ?>
<svg baseProfile="full" height="300" version="1.1" viewBox="[0, 0, 300, 300]" width="300" xmlns="http://www.w3.org/2000/svg" xmlns:ev="http://www.w3.org/2001/xml-events" xmlns:xlink="http://www.w3.org/1999/xlink">
	<defs/>
	<path d="M66,163c12.89051,0 57.52962,-23.32087 76,-25c31.74645,-2.88604 62.73374,1.70881 94,5c1.80481,0.18998 26.22684,4.77316 27,4c0.016,-0.016 -5.69549,-26.0207 -6,-28c-3.10303,-20.16968 -9.85255,-60.55766 -16,-79c-6.09282,-18.27846 -37.61148,-11 -50,-11c-41.01251,0 -115.18766,5.6889 -121,58c-0.86796,7.81165 0.4825,83.4825 4,87c0.31235,0.31235 4.33291,0.4443 6,1c7.25837,2.41946 13.70125,15.62075 21,20c7.52729,4.51638 53.19995,12.60011 57,5c0.08873,-0.17747 6,-3 6,-3c0,0 0,7.49424 0,8c0,19.39793 4,38.25093 4,58c0,1.33333 0,2.66667 0,4c0,0.66667 0,1.33333 0,2c0,0.22466 0,8 0,8c0,0 0.29814,-1.40372 0,-2c-3.73591,-7.47182 -18.44421,-6.72211 -25,-10c-0.94281,-0.4714 -2.25464,-0.25464 -3,-1c-0.3766,-0.3766 4.48508,-18.54475 3,-23c-1.38213,-4.14639 -10.04779,-25.3174 -2,-28c6.44562,-2.14854 98.17422,-22.82578 102,-19c19.94461,19.94461 1.17414,78.58707 28,92c2.32902,1.16451 2.08234,-1.77645 3,-3c7.90108,-10.53477 9,-24.10602 9,-37c0,-23.36205 -9.8445,-95.8445 -28,-114" fill="none" stroke="black" stroke-linecap="round" stroke-width="5"/>
	<path d="M106,180c17.78422,0 35.95873,-9.49656 54,-11c27.26859,-2.27238 55.59951,0 83,0c5.08259,0 26.74756,0.74756 29,3c1.15375,1.15375 -0.40557,7.37772 0,9c0.27143,1.08571 2.82928,9.17072 2,10c-6.39548,6.39548 -33.07149,-6.73213 -44,-4c-19.0597,4.76493 -93.38607,20.30696 -106,14c-1.24438,-0.62219 -3.1926,-16.2889 -5,-19c-1.75252,-2.62878 -8,-6.1544 -8,-9" fill="none" stroke="black" stroke-linecap="round" stroke-width="5"/>
	<path d="M68,159c31.71039,0 47.4026,7.20779 57,36c1.77444,5.32333 6,10.54397 6,16" fill="none" stroke="black" stroke-linecap="round" stroke-width="5"/>
</svg>
