<?xml version="1.0" ?>
<svg baseProfile="full" height="300" version="1.1" viewBox="[0, 0, 300, 300]" width="300" xmlns="http://www.w3.org/2000/svg" xmlns:ev="http://www.w3.org/2001/xml-events" xmlns:xlink="http://www.w3.org/1999/xlink">
	<defs/>
	<path d="M65,129c26.06009,-26.06009 76.8488,-34.25308 113,-30c15.08149,1.77429 31.83024,8.47442 45,16c1.29715,0.74123 7.94885,6.05115 9,5c0.70711,-0.70711 0,-2 0,-3c0,-12.16339 -3.23688,-99.23688 -7,-103c-2.48353,-2.48353 -44.7926,-4 -52,-4c-62.86034,0 -78.69388,8.77554 -93,66c-4.17368,16.69471 -17,33.69669 -17,51" fill="none" stroke="black" stroke-linecap="round" stroke-width="5"/>
	<path d="M50,112c9.67652,9.67652 39.31176,64 47,64" fill="none" stroke="black" stroke-linecap="round" stroke-width="5"/>
	<path d="M223,112c1.49071,0 1.5286,2.58579 2,4c5.24917,15.74752 33.97151,50.97151 47,64" fill="none" stroke="black" stroke-linecap="round" stroke-width="5"/>
	<path d="M102,162c8.90793,-8.90793 29.64973,-6.63797 41,-8c13.83025,-1.65963 39.07219,-15.6426 53,-11c9.48969,3.16323 15.69366,28.57112 21,36c3.07502,4.30503 24,21.52111 24,27c0,1.42331 -22.64645,-2.94697 -23,-3c-9.3398,-1.40097 -18.58479,-2 -28,-2c-12.7639,0 -69.47098,5.52902 -78,-3c-3.12134,-3.12134 -6.02957,-18.70055 -7,-22c-2.12264,-7.21697 -7,-14.75869 -7,-22" fill="none" stroke="black" stroke-linecap="round" stroke-width="5"/>
	<path d="M97,177c0,8.7112 2.34102,16.70511 4,25c3.29349,16.46745 -3,33.95856 -3,50c0,1.8569 -3,24 -3,24c0,0 1.94428,-6.60993 2,-7c0.91863,-6.43043 -2.77153,-36.45693 -1,-40c5.73842,-11.47683 60.61338,-10.76952 73,-9c6.4066,0.91523 63.06069,4.06069 65,6c12.46651,12.46651 6.45687,41.45687 20,55c0.43609,0.43609 3.52523,4.47477 5,3c4.19615,-4.19615 1,-23.6069 1,-30c0,-16.66619 15.49872,-64.00257 9,-77" fill="none" stroke="black" stroke-linecap="round" stroke-width="5"/>
</svg>
