<?xml version="1.0" ?>
<svg baseProfile="full" height="300" version="1.1" viewBox="[0, 0, 300, 300]" width="300" xmlns="http://www.w3.org/2000/svg" xmlns:ev="http://www.w3.org/2001/xml-events" xmlns:xlink="http://www.w3.org/1999/xlink">
	<defs/>
	<path d="M54,41c11.40437,22.80875 12.06844,50.34221 17,75c0.80488,4.02438 -2.46665,15.0667 -1,18c0.31739,0.63479 25.80208,-5.81086 27,-6c18.43166,-2.91026 37.4779,-0.14779 56,-2c13.89108,-1.38911 75.15076,4.69849 80,-5c4.6888,-9.3776 -8.79645,-28.31148 -12,-36c-2.64828,-6.35587 -6.08215,-30.04107 -12,-33c-7.27976,-3.63988 -23.70823,0.43641 -32,0c-10.42734,-0.54881 -18.95026,-3.99005 -29,-6c-14.15138,-2.83028 -30.67571,1.10187 -45,0c-10.28964,-0.79151 -19.86051,-4.64807 -30,-6c-10.20528,-1.3607 -17.21148,4 -26,4" fill="none" stroke="black" stroke-linecap="round" stroke-width="5"/>
	<path d="M69,134c5.39527,0 51.47176,45 63,45" fill="none" stroke="black" stroke-linecap="round" stroke-width="5"/>
	<path d="M72,133c-13.20159,13.20159 4,93.96509 4,111c0,13.13274 -4,26.17728 -4,39" fill="none" stroke="black" stroke-linecap="round" stroke-width="5"/>
	<path d="M125,176c0,14.33715 -1,28.89041 -1,43c0,0.13989 -1,5 -1,5c0,0 2.22871,-1.69148 3,-2c7.6237,-3.04948 15.07761,-7.2306 24,-5c14.91651,3.72913 81.38379,18.23243 91,-1c5.94819,-11.89637 -6.64803,-26.70395 -2,-36c3.76981,-7.53962 22.62928,-2.74144 15,-18c-5.15094,-10.30189 -25,-26.66121 -25,-37" fill="none" stroke="black" stroke-linecap="round" stroke-width="5"/>
	<path d="M230,120c12.21549,0 25.58318,22.19439 37,26c0.31623,0.10541 0.7643,0.2357 1,0c1.2693,-1.2693 -1.00428,-3.50642 -2,-5c-4.79769,-7.19654 -21.55423,-27 -32,-27" fill="none" stroke="black" stroke-linecap="round" stroke-width="5"/>
	<path d="M70,126c0,1.3133 -1.069,3.069 -2,4c-10.63027,10.63027 -16.55016,27.65047 -21,41c-0.14585,0.43756 -2,7 -2,7c0,0 1.54421,-4.92031 3,-7c4.68116,-6.68738 29,-39.07281 29,-45" fill="none" stroke="black" stroke-linecap="round" stroke-width="5"/>
	<path d="M122,220c6.09665,12.19331 2,34.18506 2,48" fill="none" stroke="black" stroke-linecap="round" stroke-width="5"/>
	<path d="M252,175c0,1.66667 0,3.33333 0,5c0,25.64567 1.93126,53.65629 7,79c0.2525,1.2625 0.50012,6 2,6" fill="none" stroke="black" stroke-linecap="round" stroke-width="5"/>
	<path d="M239,216c0,16.6578 2,34.13998 2,50" fill="none" stroke="black" stroke-linecap="round" stroke-width="5"/>
</svg>
