<?xml version="1.0" ?>
<svg baseProfile="full" height="300" version="1.1" viewBox="[0, 0, 300, 300]" width="300" xmlns="http://www.w3.org/2000/svg" xmlns:ev="http://www.w3.org/2001/xml-events" xmlns:xlink="http://www.w3.org/1999/xlink">
	<defs/>
	<path d="M51,59c2.06608,0 10.56157,-7.52639 14,-9c17.23678,-7.38719 36.69611,-11.93247 55,-16c49.4029,-10.97842 96.69528,1.34764 138,22c1.19257,0.59628 0,2.66667 0,4c0,16.15591 0.52665,34.79313 2,51c0.36976,4.0674 4.44523,71.55477 2,74c-0.48607,0.48607 -18.38947,-10.50827 -21,-12c-20.56558,-11.75176 -51.92178,-18.70594 -75,-25c-20.41265,-5.56709 -47.4539,-9.13652 -68,-4c-7.51314,1.87829 -20.10535,10.10535 -24,14c-0.19659,0.19659 -2.44015,3.55985 -3,3c-2.93327,-2.93327 0.48626,-21.10994 0,-25c-2.90034,-23.20268 -12,-56.08388 -12,-77" fill="none" stroke="black" stroke-linecap="round" stroke-width="5"/>
	<path d="M67,157c0,28.87075 0.00157,63.40031 33,70c5.42796,1.08559 10.49586,-6 16,-6c0.27564,0 -0.9134,12.3072 -1,13c-1.06589,8.52711 -2,16.25109 -2,25c0,12.36346 -1.38583,26.07085 1,38c0.20672,1.03362 2.05409,3 1,3c-0.73827,0 -26.53916,-28.53916 -29,-31c-3.18188,-3.18188 -26.07206,-20.85588 -25,-23c10.74475,-21.48951 113.16426,-24 136,-24c2.09639,0 39.44413,-2.55587 40,-2c10.81541,10.81541 12.41071,34.23213 17,48c1.26617,3.79852 2,10.18519 2,14c0,0.76207 -0.20009,7.20009 1,6c8.57593,-8.57593 2.20361,-43.38917 -1,-53c-2.72342,-8.17025 3.34052,-25.65948 -3,-32c-4.27292,-4.27292 -30.11147,0 -37,0c-37.06072,0 -70.18626,17 -107,17" fill="none" stroke="black" stroke-linecap="round" stroke-width="5"/>
	<path d="M67,151c0,8.90588 21.86639,25.35491 26,35c1.7495,4.08217 6.89414,29 11,29" fill="none" stroke="black" stroke-linecap="round" stroke-width="5"/>
	<path d="M256,171c8.43885,8.43885 20,37.60821 20,48" fill="none" stroke="black" stroke-linecap="round" stroke-width="5"/>
	<path d="M101,176c36.58794,0 70.99306,4.49913 107,9c9.36353,1.17044 19.99694,-1.00102 29,2c2.74485,0.91495 3.04441,20.08882 5,24c0.42164,0.84327 2,2 2,2c0,0 -28.41445,-4.97454 -29,-5c-33.60258,-1.46098 -71.40609,-6.10152 -103,-14c-5.64537,-1.41134 -15.91859,-23 -20,-23" fill="none" stroke="black" stroke-linecap="round" stroke-width="5"/>
</svg>
