<?xml version="1.0" ?>
<svg baseProfile="full" height="300" version="1.1" viewBox="[0, 0, 300, 300]" width="300" xmlns="http://www.w3.org/2000/svg" xmlns:ev="http://www.w3.org/2001/xml-events" xmlns:xlink="http://www.w3.org/1999/xlink">
	<defs/>
	<path d="M43,57c0,10.24278 7.38706,91.38706 9,93c0.70686,0.70686 3.52655,-4.28983 4,-5c4.44732,-6.67099 11.88592,-10.15437 19,-13c22.99921,-9.19968 41.18204,-17.38638 67,-19c19.4704,-1.2169 53.91957,-6.81032 71,6c10.11245,7.58434 18.92941,18.35765 30,25c1.21268,0.72761 3,3 3,3c0,0 0.33129,-6.01835 0,-9c-1.95985,-17.63869 -1.5136,-35.59522 -4,-53c-6.57853,-46.04969 -22.86298,-70.01246 -78,-65c-33.91908,3.08355 -98.70686,45 -116,45" fill="none" stroke="black" stroke-linecap="round" stroke-width="5"/>
	<path d="M53,146c0,13.23086 4.26316,61.63158 17,68c7.05674,3.52837 24.96531,3.55204 30,-4c2.89647,-4.34471 4.80617,-8.61233 7,-13c1.08525,-2.17051 0.91475,-9.17051 2,-7c3.33873,6.67747 0.64313,17.42748 -1,24c-3.32371,13.29485 -3,28.10058 -3,42c0,11.20712 -0.62319,2.56521 -5,-4c-4.66015,-6.99022 -17.15694,-9.31388 -21,-17c-1.88311,-3.76621 17.65342,-8 20,-8c27.37128,0 57.0335,-9.67225 83,-14c21.9305,-3.65508 52.82413,-16.29311 65,4c5.79881,9.66469 7.57484,24.72451 11,35c0.82753,2.48258 1.28642,10.28642 3,12c1.20185,1.20185 1,6.69967 1,5c0,-9.09997 -15.60645,-93.60645 -19,-97c-2.95085,-2.95085 1.25699,-32 -1,-32" fill="none" stroke="black" stroke-linecap="round" stroke-width="5"/>
	<path d="M108,190c14.85241,0 40.4328,-2.37814 53,6c1.98108,1.32072 52.79191,-3 60,-3c11.33333,0 22.66667,0 34,0c0.53333,0 4,0 4,0c0,0 -4.43624,-0.28188 -5,0c-7.87346,3.93673 -17.33337,-4.77783 -22,-11c-7.82411,-10.43215 -20,-49.77066 -20,-61" fill="none" stroke="black" stroke-linecap="round" stroke-width="5"/>
	<path d="M61,141c0,1.88708 5.53141,2.63285 7,3c15.78497,3.94624 42,24.55204 42,43" fill="none" stroke="black" stroke-linecap="round" stroke-width="5"/>
</svg>
