<?xml version="1.0" ?>
<svg baseProfile="full" height="300" version="1.1" viewBox="[0, 0, 300, 300]" width="300" xmlns="http://www.w3.org/2000/svg" xmlns:ev="http://www.w3.org/2001/xml-events" xmlns:xlink="http://www.w3.org/1999/xlink">
	<defs/>
	<path d="M66,147c25.12296,6.28074 52.39463,7.50836 78,11c54.44908,7.42487 52.57649,3.11753 63,-49c2.26031,-11.30157 9.75062,-27.74896 3,-39c-4.81986,-8.03309 -10.38076,-18.38076 -17,-25c-11.81061,-11.81061 -73.39171,3.47006 -83,15c-13.3397,16.00765 -26,68.85549 -26,90" fill="none" stroke="black" stroke-linecap="round" stroke-width="5"/>
	<path d="M48,137c29.2686,0 68.53103,34.88963 75,64c2.11722,9.5275 6.06621,18.33106 8,28c0.40341,2.01705 6,20.93212 6,20" fill="none" stroke="black" stroke-linecap="round" stroke-width="5"/>
	<path d="M193,151c42.37109,0 45,83.43745 45,113" fill="none" stroke="black" stroke-linecap="round" stroke-width="5"/>
	<path d="M113,192c0.88166,0 2.14793,-0.21302 3,0c2.04524,0.51131 4,1.33333 6,2c1.6,0.53333 3.4,1.46667 5,2c1.30384,0.43461 2.63944,0.80563 4,1c0.98995,0.14142 2.01005,-0.14142 3,0c1.36056,0.19437 2.65232,0.73046 4,1c1.98821,0.39764 3.97942,0.83162 6,1c1.99309,0.16609 4.00508,-0.14249 6,0c7.2033,0.51452 88.32148,12.64296 74,-16c-8.23333,-16.46666 -86.56258,-13.21871 -107,-3c-3.45085,1.72543 -3,14.06232 -3,18" fill="none" stroke="black" stroke-linecap="round" stroke-width="5"/>
	<path d="M79,146c-1.11981,0 -2.7655,10.82749 -3,12c-6.01739,30.08693 -20.75063,59.37278 -12,90c0.50681,1.77384 1.85675,8 4,8" fill="none" stroke="black" stroke-linecap="round" stroke-width="5"/>
	<path d="M193,152c-11.89369,11.89369 -25.83731,82.16269 -15,93" fill="none" stroke="black" stroke-linecap="round" stroke-width="5"/>
</svg>
