<?xml version="1.0" ?>
<svg baseProfile="full" height="300" version="1.1" viewBox="[0, 0, 300, 300]" width="300" xmlns="http://www.w3.org/2000/svg" xmlns:ev="http://www.w3.org/2001/xml-events" xmlns:xlink="http://www.w3.org/1999/xlink">
	<defs/>
	<path d="M68,131c42.66756,0 86.06023,-1 129,-1c4.02047,0 42.32173,-0.32173 43,-1c1.97124,-1.97124 0.17799,-19.04212 0,-21c-2.44334,-26.87679 -12.71969,-54.71969 -31,-73c-4.64191,-4.64191 -14.05165,-0.52583 -13,0c2.44183,1.22091 -0.82761,-1.91381 -1,-2c-5.05362,-2.52681 -17.31574,2.60964 -22,3c-11.37561,0.94797 -26.33495,-0.26602 -37,4c-21.61589,8.64635 -61,62.00334 -61,86" fill="none" stroke="black" stroke-linecap="round" stroke-width="5"/>
	<path d="M54,133c11.8864,0 24.23642,-6.38179 37,0c45.68178,22.84089 50,144.82909 50,192" fill="none" stroke="black" stroke-linecap="round" stroke-width="5"/>
	<path d="M237,124c10.40271,0 14.75386,21.50772 18,28c16.8745,33.749 12,70.12736 12,106" fill="none" stroke="black" stroke-linecap="round" stroke-width="5"/>
	<path d="M91,170c0,5.30604 22.81305,9.47747 27,11c24.88891,9.05051 69.84829,16.80689 96,7c10.82502,-4.05938 21.68474,-5.68474 30,-14c3.7427,-3.7427 8.77974,-4.18649 13,-7c1.38675,-0.9245 3,-5.66667 3,-4c0,7.98598 16.43164,50.56836 11,56c-0.94281,0.94281 -2.68007,0.18856 -4,0c-10.89338,-1.5562 -22.41283,-1.97019 -33,2c-11.88826,4.4581 -25.53667,12.92278 -38,15c-16.11265,2.68544 -32.9346,-3.48038 -48,-8c-28.33499,-8.5005 -40.71065,-9.84261 -48,-39c-1.30659,-5.22635 -5,-9.34371 -5,-15" fill="none" stroke="black" stroke-linecap="round" stroke-width="5"/>
	<path d="M80,129c-12.77812,0 -34.08301,98.19922 -39,110c-2.29316,5.5036 -15.24368,58.24368 -10,53" fill="none" stroke="black" stroke-linecap="round" stroke-width="5"/>
	<path d="M57,201c20.21843,0 39.74567,4 60,4" fill="none" stroke="black" stroke-linecap="round" stroke-width="5"/>
	<path d="M225,130c0,8.94093 19,29.29352 19,49" fill="none" stroke="black" stroke-linecap="round" stroke-width="5"/>
</svg>
