<?xml version="1.0" ?>
<svg baseProfile="full" height="300" version="1.1" viewBox="[0, 0, 300, 300]" width="300" xmlns="http://www.w3.org/2000/svg" xmlns:ev="http://www.w3.org/2001/xml-events" xmlns:xlink="http://www.w3.org/1999/xlink">
	<defs/>
	<path d="M68,146c0,-16.40982 1,-32.73028 1,-49c0,-6.41207 -3.24743,-19.24743 -1,-17c1.6858,1.6858 1.44128,-0.77936 1,-1c-3.31162,-1.65581 -2.06691,-8.73234 -1,-13c1.09874,-4.39497 3.65548,-8.96645 5,-13c5.68306,-17.04918 87.96094,-34.00976 104,-30c12.41802,3.10451 25.9633,12.44494 33,23c5.91112,8.86668 10.59469,17.78407 14,28c5.68516,17.05547 9,33.45398 9,49c0,0.59763 0.2357,2 -1,2c-4.05518,0 -7.94482,-2 -12,-2c-28.46666,0 -58.6728,-2.83272 -87,0c-23.21517,2.32152 -41.57406,15 -65,15" fill="none" stroke="black" stroke-linecap="round" stroke-width="5"/>
	<path d="M44,124c30.50936,-30.50936 76.63698,44.78993 83,66c3.17991,10.59971 2.01592,22.17515 3,33c0.47184,5.19021 1,9.77351 1,15c0,0.33333 0,3.66667 0,1" fill="none" stroke="black" stroke-linecap="round" stroke-width="5"/>
	<path d="M50,117c3.00132,0 -0.71604,12.15428 -1,14c-1.48013,9.62084 -1,19.28867 -1,29c0,28.8033 -3,56.8522 -3,85" fill="none" stroke="black" stroke-linecap="round" stroke-width="5"/>
	<path d="M192,217c0,-13.81731 10.58136,-33.74407 15,-47c6.70348,-20.11044 13.14658,-40.36644 21,-60c0.55364,-1.38409 0.50929,-4 2,-4c6.74126,0 12.81207,26.24827 14,31c6.06198,24.24793 6.88209,50.29253 11,75c1.58263,9.49575 8,18.77192 8,27" fill="none" stroke="black" stroke-linecap="round" stroke-width="5"/>
	<path d="M82,165c28.45305,0 57.76065,20.3541 87,12c33.41872,-9.54821 31.64865,-18.58919 54,-32c1.10854,-0.66512 7,-5 7,-5c0,0 1.94303,4.71517 2,5c0.65384,3.26922 4.35241,39.64759 4,40c-7.50697,7.50697 -24.88344,6.59509 -35,6c-25.779,-1.51641 -51.88768,-4.72687 -77,3c-5.70753,1.75616 -31.7755,13.2245 -38,7c-6.48466,-6.48466 -9.7833,-36.2167 -3,-43" fill="none" stroke="black" stroke-linecap="round" stroke-width="5"/>
</svg>
