<?xml version="1.0" ?>
<svg baseProfile="full" height="300" version="1.1" viewBox="[0, 0, 300, 300]" width="300" xmlns="http://www.w3.org/2000/svg" xmlns:ev="http://www.w3.org/2001/xml-events" xmlns:xlink="http://www.w3.org/1999/xlink">
	<defs/>
	<path d="M58,145c11.32921,-22.65842 -5.76024,-55.63937 3,-79c19.2602,-51.36052 52.913,-48.87922 99,-54c10.87482,-1.20831 27.94245,-6.68585 39,-3c18.7079,6.23597 38.53552,13.76776 57,23c21.15446,10.57723 10.21042,73.63194 5,91c-3.02747,10.09158 -6,19.61335 -6,30c0,1.10863 2.99448,11.66851 2,12c-7.67411,2.55804 -41.31649,-6 -52,-6c-36.63922,0 -70.74153,8 -107,8c-12.10703,0 -26.32346,3.94609 -38,2c-1.67655,-0.27942 -4.23988,0.52023 -5,-1c-6.67992,-13.35983 7,-38.56223 7,-53c0,-10.00487 1.4188,-22.32481 -1,-32c-4.95122,-19.80488 -18.48546,-39.51454 -1,-57c3.76547,-3.76547 33.84367,-1.98046 42,-3c43.02639,-5.3783 78.56517,-27.61493 122,-9c12.12945,5.19834 24.777,8 38,8c1.19094,0 3.48129,-0.55613 4,1c5.57811,16.73432 -1,37.18973 -1,54" fill="none" stroke="black" stroke-linecap="round" stroke-width="5"/>
	<path d="M69,180c34.15921,0 69.36038,-1.20495 103,3c9.82889,1.22861 26.78797,6.40401 37,3c12.71386,-4.23795 31.58509,-19.60373 46,-16c9.00703,2.25176 26.4071,43.38934 20,53c-8.76444,13.14665 -9.07978,48.98005 -29,44c-27.48422,-6.87106 -10.10027,-33.70009 -44,-45c-25.42364,-8.47455 -51.36799,18 -74,18c-13.11471,0 -44.6215,-13.58567 -56,-6c-4.45447,2.96965 -6.20114,8.80171 -9,13c-1.26779,1.90169 -10.27551,13.72449 -8,16c12.12924,12.12924 46.55527,27.29649 65,15c2.87462,-1.91641 2.44295,-5.89936 2,-9c-1.45247,-10.16732 -8.12426,-17.37279 -11,-26c-5.28068,-15.84205 -3,-41.35315 -3,-58" fill="none" stroke="black" stroke-linecap="round" stroke-width="5"/>
</svg>
