<?xml version="1.0" ?>
<svg baseProfile="full" height="300" version="1.1" viewBox="[0, 0, 300, 300]" width="300" xmlns="http://www.w3.org/2000/svg" xmlns:ev="http://www.w3.org/2001/xml-events" xmlns:xlink="http://www.w3.org/1999/xlink">
	<defs/>
	<path d="M64,132c0,-9.67346 6.47221,-21.58337 3,-32c-7.70052,-23.10155 -19.75192,-23.99231 -12,-55c0.4237,-1.69479 -1.10117,-7.89883 0,-9c1.63478,-1.63478 10.82887,0 14,0c13.48081,0 25.80354,2.35044 39,4c17.42705,2.17838 37.68087,-3.26809 55,-5c19.25575,-1.92558 38.80139,-1.86682 58,-4c10.73735,-1.19304 21.36246,-1.22708 32,-3c0.73521,-0.12254 2,-1.74536 2,-1c0,28.19232 -13,55.82446 -13,84c0,21.92285 15.21109,35.57782 4,58c-1.30531,2.61061 -37.79774,-1.65318 -43,-2c-24.78047,-1.65203 -136.45412,21.09176 -147,0" fill="none" stroke="black" stroke-linecap="round" stroke-width="5"/>
	<path d="M62,125c0,13.78337 -2,27.86484 -2,41" fill="none" stroke="black" stroke-linecap="round" stroke-width="5"/>
</svg>
