<?xml version="1.0" ?>
<svg baseProfile="full" height="300" version="1.1" viewBox="[0, 0, 300, 300]" width="300" xmlns="http://www.w3.org/2000/svg" xmlns:ev="http://www.w3.org/2001/xml-events" xmlns:xlink="http://www.w3.org/1999/xlink">
	<defs/>
	<path d="M53,88c12.62149,-12.62149 28.89583,-14.44792 44,-22c42.84284,-21.42142 78.07306,-21.0976 121,-5c3.8344,1.4379 13.50543,2.50543 16,5c1.68533,1.68533 -0.94806,64.84417 -2,68c-0.76739,2.30217 0.30217,6.23261 -2,7c-5.18129,1.7271 -16.86238,-1.28746 -22,-3c-4.97182,-1.65727 -67.42165,2.88433 -73,4c-16.14187,3.22837 -59.70377,-2.29623 -70,8c-1.85288,1.85288 -3.84319,3.15681 -6,1" fill="none" stroke="black" stroke-linecap="round" stroke-width="5"/>
	<path d="M56,92c12.27151,0 7,44.30075 7,52" fill="none" stroke="black" stroke-linecap="round" stroke-width="5"/>
	<path d="M64,148c-3.39273,0 -16.43001,-0.56999 -19,2c-1.40942,1.40942 -0.27929,13.47751 -1,16c-5.60612,19.62141 -9.76328,31.07891 11,38c10.00472,3.33491 4.46866,-11.40597 6,-16c2.45023,-7.3507 0.08704,-22.17407 3,-28c1.28837,-2.57673 17.73255,-12.29586 19,-13" fill="none" stroke="black" stroke-linecap="round" stroke-width="5"/>
	<path d="M226,142c3.1643,6.32859 14.91659,4.83318 18,11c3.79243,7.58487 -5.65375,18.73127 -4,27c0.25686,1.28432 6.02742,14.65753 5,15c-0.99256,0.33085 -20,4.88976 -20,2c0,-9.28503 15.62587,-17.74827 10,-29c-5.485,-10.97001 -17,-10.15899 -17,-25" fill="none" stroke="black" stroke-linecap="round" stroke-width="5"/>
</svg>
