<?xml version="1.0" ?>
<svg baseProfile="full" height="300" version="1.1" viewBox="[0, 0, 300, 300]" width="300" xmlns="http://www.w3.org/2000/svg" xmlns:ev="http://www.w3.org/2001/xml-events" xmlns:xlink="http://www.w3.org/1999/xlink">
	<defs/>
	<path d="M64,214c-4.51641,-18.06565 -11.21457,-49.03444 -7,-68c1.99751,-8.98878 7.68636,-15.7159 11,-24c5.08178,-12.70445 8.84203,-23.68406 15,-36c19.2905,-38.58101 26.52096,-34.88024 63,-44c7.90751,-1.97688 15.74292,-3.06427 24,-1c11.42092,2.85523 19.11314,13.07543 28,19c8.11438,5.40959 20.64418,10.64418 28,18c27.78758,27.78758 24,76.43618 24,112c0,5.91354 6.63357,29.36643 1,35c-0.94281,0.94281 -2.68481,0.2192 -4,0c-11.86563,-1.97761 -23.43789,0.10947 -35,3c-26.91747,6.72937 -69.3599,23.0934 -95,6c-4.51057,-3.00704 -17.38797,-0.12932 -23,-2c-9.90976,-3.30325 -22.89153,9.05424 -31,5c-12.47839,-6.2392 -10.39176,-19.60824 -4,-26c2.48014,-2.48014 1.03739,-6.11216 2,-9c0.43461,-1.30384 1,-5.37437 1,-4c0,12.92438 -4,19.81775 -4,32c0,1.33333 -0.56667,2 1,2" fill="none" stroke="black" stroke-linecap="round" stroke-width="5"/>
</svg>
