<?xml version="1.0" ?>
<svg baseProfile="full" height="300" version="1.1" viewBox="[0, 0, 300, 300]" width="300" xmlns="http://www.w3.org/2000/svg" xmlns:ev="http://www.w3.org/2001/xml-events" xmlns:xlink="http://www.w3.org/1999/xlink">
	<defs/>
	<path d="M42,122c3.53441,-14.13765 -13.19452,-57.26849 10,-65c6.16962,-2.05654 14.27965,0.01611 21,-2c45.34135,-13.60241 87.27089,-18.31438 133,-10c12.7168,2.31215 25.94718,7 39,7c0.33333,0 0.85093,-0.29814 1,0c4.0716,8.1432 -0.16401,24.50798 3,34c0.51055,1.53165 8.45014,25.84995 5,27c-5.03802,1.67934 -38.28232,-5 -47,-5c-17.24303,0 -34.19453,3.89932 -51,6c-18.69345,2.33668 -39.11958,0 -58,0c-7.48527,0 -51.22705,2.37841 -54,7c-5.39627,8.99379 -14.83233,36.78045 -11,47c3.88772,10.36725 32.9405,4.0595 38,-1c4.50925,-4.50925 -19.79678,-10.19518 -21,-12c-3.8296,-5.7444 20,-29.67427 20,-37" fill="none" stroke="black" stroke-linecap="round" stroke-width="5"/>
	<path d="M224,109c10.84951,0 21.67207,-0.87297 32,3c20.77818,7.79182 18.89982,42.10018 6,55c-1.67874,1.67874 -16.71357,0 -20,0c-3.68179,0 -11,4.68179 -11,1c0,-12.81697 18.46663,-21.60011 14,-35c-4.06418,-12.19254 -21.9218,-14.94787 -31,-21" fill="none" stroke="black" stroke-linecap="round" stroke-width="5"/>
</svg>
