<?xml version="1.0" ?>
<svg baseProfile="full" height="300" version="1.1" viewBox="[0, 0, 300, 300]" width="300" xmlns="http://www.w3.org/2000/svg" xmlns:ev="http://www.w3.org/2001/xml-events" xmlns:xlink="http://www.w3.org/1999/xlink">
	<defs/>
	<path d="M39,177c0,-31.2755 9.40918,-64.13577 5,-95c-0.477,-3.33897 -3.24224,-28.25259 -1,-29c10.43427,-3.47809 24.18695,-1.29674 35,-4c26.33904,-6.58476 48.63489,-22.87302 78,-17c15.0274,3.00548 27.47156,9.84902 42,14c12.20938,3.4884 27.29022,2 40,2c0.29178,0 2.88527,-0.19122 3,0c8.87951,14.79918 8.49745,38.49236 14,55c2.8057,8.4171 12.45412,59.81882 7,68c-8.71459,13.07188 -32.08139,19.48974 -47,23c-25.81691,6.07457 -52.84264,4.86112 -79,8c-11.17292,1.34075 -21.75397,7.75044 -33,9c-11.66438,1.29604 -61.8893,-7.66789 -66,-20c-1.58814,-4.76442 2,-10.5841 2,-13" fill="none" stroke="black" stroke-linecap="round" stroke-width="5"/>
	<path d="M75,211c0,1.55892 5.67849,1.37757 7,1c17.81778,-5.09079 41.80889,-6.90445 58,-15c8.34911,-4.17455 23.72284,2.06159 33,0c37.37688,-8.30597 89.08506,-21.91494 121,10c4.89271,4.89271 -4.50456,84.87614 -17,88c-35.65202,8.913 -19.35568,-27.08892 -39,-32c-20.00137,-5.00034 -39.95595,4.00441 -60,2c-20.24548,-2.02455 -39.46192,-10.53299 -60,-12c-21.25001,-1.51786 -47.63177,1.97906 -66,13c-0.26449,0.15869 -5.48178,3.75911 -3,5c24.78066,12.39033 51.51133,2.50378 77,11c12.39055,4.13018 28.56154,9 42,9" fill="none" stroke="black" stroke-linecap="round" stroke-width="5"/>
</svg>
