<?xml version="1.0" ?>
<svg baseProfile="full" height="300" version="1.1" viewBox="[0, 0, 300, 300]" width="300" xmlns="http://www.w3.org/2000/svg" xmlns:ev="http://www.w3.org/2001/xml-events" xmlns:xlink="http://www.w3.org/1999/xlink">
	<defs/>
	<path d="M36,148c0,-25.64405 -7.72329,-43.02193 -3,-69c1.7785,-9.78175 4.90433,-18.713 8,-28c1.47225,-4.41675 2.95077,-18.95077 6,-22c3.65593,-3.65593 19.35009,6 25,6c29.75712,0 58.53682,-4.79097 88,-9c9.67706,-1.38244 93.53314,-14.77349 102,-8c7.26513,5.8121 6.2144,26.6432 9,35c2.05593,6.16778 7.08459,12.59211 8,19c1.63015,11.41105 0.18829,97.62343 -4,106c-0.29814,0.59628 -1.33333,0 -2,0c-19.31086,0 -36.47102,-11.62742 -56,-10c-45.43636,3.78636 -90.1122,17 -136,17c-17.10972,0 -32.98611,-1.66204 -49,-7c-1.41421,-0.4714 -4,-0.50929 -4,-2c0,-3.07573 4.37751,-9.26506 5,-13c0.62484,-3.74902 -11.08115,-26 1,-26" fill="none" stroke="black" stroke-linecap="round" stroke-width="5"/>
</svg>
