<?xml version="1.0" ?>
<svg baseProfile="full" height="300" version="1.1" viewBox="[0, 0, 300, 300]" width="300" xmlns="http://www.w3.org/2000/svg" xmlns:ev="http://www.w3.org/2001/xml-events" xmlns:xlink="http://www.w3.org/1999/xlink">
	<defs/>
	<path d="M64,187c0,-52.95287 28.83409,-98.83409 65,-135c3.52128,-3.52128 41.65904,15.49428 45,18c28.52684,21.39513 17.27376,69.44108 15,99c-0.31199,4.05582 -6.07229,35.92771 -4,38c1.04545,1.04545 -2.95694,-0.51076 -5,0c-3.8459,0.96147 -6.96286,3 -11,3c-11.91005,0 -23.17288,-2 -35,-2c-12.49248,0 -22.99484,0.20138 -35,-3c-8.16689,-2.17784 -26.00779,0.99221 -32,-5c-8.10067,-8.10067 2.64761,-11.35239 -4,-18" fill="none" stroke="black" stroke-linecap="round" stroke-width="5"/>
</svg>
