<?xml version="1.0" ?>
<svg baseProfile="full" height="300" version="1.1" viewBox="[0, 0, 300, 300]" width="300" xmlns="http://www.w3.org/2000/svg" xmlns:ev="http://www.w3.org/2001/xml-events" xmlns:xlink="http://www.w3.org/1999/xlink">
	<defs/>
	<path d="M63,63c-4.67856,0 -9.81537,-1.09231 -14,1c-5.35312,2.67656 -7.64736,3.64736 -12,8c-17.13143,17.13143 34.66117,25.64468 32,15" fill="none" stroke="black" stroke-linecap="round" stroke-width="5"/>
	<path d="M61,62c1.72201,0 12.88191,9.11809 15,7c7.42938,-7.42938 13.11357,-17.11357 20,-24c5.18603,-5.18603 41.66624,-7.55541 52,-11c15.85577,-5.28526 67.74553,11.37277 81,18c7.32781,3.6639 7.66051,14.33026 15,18c0.29814,0.14907 0.66667,0 1,0c10.17021,0 19.15567,-0.84433 27,7c0.81621,0.81621 3.69579,5.30421 2,7c-2.22969,2.22969 -34.51954,0.45195 -40,1c-13.53237,1.35324 -36.66558,5.33361 -50,2c-16.63684,-4.15921 -60.23966,-18.88017 -78,-10c-11.05533,5.52767 -32.0134,20 -44,20" fill="none" stroke="black" stroke-linecap="round" stroke-width="5"/>
</svg>
