<?xml version="1.0" ?>
<svg baseProfile="full" height="300" version="1.1" viewBox="[0, 0, 300, 300]" width="300" xmlns="http://www.w3.org/2000/svg" xmlns:ev="http://www.w3.org/2001/xml-events" xmlns:xlink="http://www.w3.org/1999/xlink">
	<defs/>
	<path d="M55,130c0,2.73333 0,-0.26667 0,-3c0,-5.08116 -2,-9.39314 -2,-14c0,-11.02881 -8.24208,-19.45247 -10,-30c-4.38525,-26.3115 27.55577,-48.51115 50,-53c34.63845,-6.92769 116.74804,-12.25196 145,16c13.7478,13.7478 16.4819,35.9276 21,54c2.97869,11.91474 -6.04548,38.09097 -11,48c-2.09011,4.18022 -9.0374,17.9626 -5,22c0.52705,0.52705 2.73088,0.85382 2,1c-21.60215,4.32043 -45.15614,-1.8548 -67,2c-24.46387,4.31715 -90.11463,10.94269 -114,-1c-1.79722,-0.89861 -3.34822,-8.47918 -4,-10c-2.80275,-6.53974 -6.80623,-12.4187 -9,-19c-2.48165,-7.44494 4,-13.89103 4,-20" fill="none" stroke="black" stroke-linecap="round" stroke-width="5"/>
	<path d="M101,183c24.95732,4.15955 50.25257,5.81314 75,12c23.05202,5.76301 37.44616,6.64615 63,2c0.10564,-0.01921 10.6982,-3.3018 12,-2c2.07792,2.07792 5.15283,23.18772 6,27c0.95096,4.27931 10.10099,21.89901 7,25c-4.75327,4.75327 -18.74809,3.38846 -26,5c-11.91242,2.64721 -26.66862,10.05523 -39,8c-13.62779,-2.2713 -17.18372,-13.69392 -27,-22c-14.55655,-12.31708 -33.72748,-20.43187 -52,-25c-20.18948,-5.04737 -55.10294,17.72059 -58,38c-4.88042,34.16291 72.78667,24 95,24c13.30139,0 36.07027,14.98243 44,13c0.31812,-0.07953 0,-9.93297 0,-11" fill="none" stroke="black" stroke-linecap="round" stroke-width="5"/>
</svg>
