<?xml version="1.0" ?>
<svg baseProfile="full" height="300" version="1.1" viewBox="[0, 0, 300, 300]" width="300" xmlns="http://www.w3.org/2000/svg" xmlns:ev="http://www.w3.org/2001/xml-events" xmlns:xlink="http://www.w3.org/1999/xlink">
	<defs/>
	<path d="M42,74c30.00574,0 60.71788,1 91,1c20.729,0 41.52403,-1.26987 62,-4c13.25464,-1.76729 24.67694,-3 38,-3c0.66667,0 1.73739,-0.61276 2,0c12.73448,29.7138 -6,60.8137 -6,90c0,0.66667 0.59628,1.70186 0,2c-2.1502,1.0751 -5.93019,-1.65503 -8,-2c-10.12474,-1.68746 -18.32947,-8.77649 -28,-12c-15.73079,-5.2436 -34.25873,-6 -51,-6c-20.24086,0 -37.33094,2.6291 -57,7c-5.14706,1.14379 -8.57944,3.43458 -12,6c-0.75894,0.56921 -9.96909,4.11333 -10,4c-0.50629,-1.85641 -2.39732,-13.38391 -3,-17" fill="none" stroke="black" stroke-linecap="round" stroke-width="5"/>
	<path d="M52,83c10.68753,10.68753 1.82283,44.41735 0,59c-1.12665,9.01323 7,11.98343 7,18c0,0.67962 -12.45882,-1.02746 -14,0c-4.1474,2.76493 -7.63356,9.21748 -9,14c-2.40763,8.4267 -1.85738,36.28524 2,44c0.21082,0.42164 0.54267,0.88567 1,1c5.06451,1.26613 11.89286,3 17,3c0.33333,0 1.14907,0.29814 1,0c-10.88265,-21.7653 8.01405,-65.00937 26,-77" fill="none" stroke="black" stroke-linecap="round" stroke-width="5"/>
	<path d="M205,151c9.64443,9.64443 48.82992,-1.11339 64,9c8.18298,5.45532 -6,41.76845 -6,53c0,2 1.89737,5.36754 0,6c-2.60201,0.86734 -21.23255,-0.74418 -25,-2c-1.89737,-0.63246 0,-4 0,-6c0,-6.23979 9.93993,-24.5901 5,-32c-4.00596,-6.00893 -21,-12.61062 -21,-17" fill="none" stroke="black" stroke-linecap="round" stroke-width="5"/>
</svg>
