<?xml version="1.0" ?>
<svg baseProfile="full" height="300" version="1.1" viewBox="[0, 0, 300, 300]" width="300" xmlns="http://www.w3.org/2000/svg" xmlns:ev="http://www.w3.org/2001/xml-events" xmlns:xlink="http://www.w3.org/1999/xlink">
	<defs/>
	<path d="M66,159c-4.01733,-16.06932 5.19882,-25.20472 2,-38c-5.60196,-22.40785 -19.62451,-60.87521 11,-74c22.52926,-9.6554 49.63901,1.84025 73,-4c19.51203,-4.87801 61.11937,-22.69406 78,-3c11.47178,13.38374 9,33.70105 9,50c0,13.04531 8.28501,29.57493 6,41c-6.39765,31.98823 -83.35079,35 -108,35c-21.07116,0 -40.47124,-9 -60,-9c-1.46667,0 -3,0.91111 -3,-1" fill="none" stroke="black" stroke-linecap="round" stroke-width="5"/>
	<path d="M96,162c0,6.1104 36.50364,17.62591 42,19c19.62459,4.90615 43.41436,9.57321 64,7c24.44449,-3.05556 59.468,-38.59601 71,-4c1.31731,3.95194 -1.85133,10.29735 0,14c10.43641,20.87282 10.64317,69.2946 -19,73c-3.95993,0.49499 -14.02697,2.98652 -18,1c-7.53364,-3.76682 -6.33267,-13.77689 -11,-20c-4.52355,-6.0314 -23.73376,-7.10482 -30,-8c-9.35692,-1.3367 -12.61517,17.23774 -21,18c-14.25809,1.29619 -71.92175,14.76526 -76,27c-1.89024,5.67071 18.9341,8.4474 24,7c13.09914,-3.74261 78.99962,-6.49943 84,-14c0.76857,-1.15286 -17.895,-14.79 -20,-19" fill="none" stroke="black" stroke-linecap="round" stroke-width="5"/>
	<path d="M140,179c-9.70214,-9.70214 -59.91953,12.16094 -55,22c2.46674,4.93348 17.86999,11.29 23,13c2.36795,0.78932 8,5.18429 8,3" fill="none" stroke="black" stroke-linecap="round" stroke-width="5"/>
</svg>
