<?xml version="1.0" ?>
<svg baseProfile="full" height="300" version="1.1" viewBox="[0, 0, 300, 300]" width="300" xmlns="http://www.w3.org/2000/svg" xmlns:ev="http://www.w3.org/2001/xml-events" xmlns:xlink="http://www.w3.org/1999/xlink">
	<defs/>
	<path d="M109,70c0,35.21175 -14,68.73017 -14,104" fill="none" stroke="black" stroke-linecap="round" stroke-width="5"/>
	<path d="M138,98c0,31.66667 0,63.33333 0,95c0,8.43715 -1,6.91124 -1,-1" fill="none" stroke="black" stroke-linecap="round" stroke-width="5"/>
	<path d="M165,103c0,16.35521 -2.82764,33.55127 -1,50c0.87698,7.89282 4,15.88097 4,24" fill="none" stroke="black" stroke-linecap="round" stroke-width="5"/>
	<path d="M207,93c0,23.82238 -1,48.01104 -1,72" fill="none" stroke="black" stroke-linecap="round" stroke-width="5"/>
	<path d="M103,72c0,-6.60028 3.36325,-11.63254 4,-18c3.78457,-37.84569 15.10261,-22.41391 53,-17c10.61496,1.51642 28.17427,-0.91287 38,4c1.01803,0.50902 1.59401,2.18801 2,3c0.76012,1.52023 1,3.30033 1,5c0,4.62955 3.91783,32.08217 0,36c-3.45821,3.45821 -39.5922,-4.98604 -45,-6c-15.56759,-2.91892 -31.20358,-3 -47,-3" fill="none" stroke="black" stroke-linecap="round" stroke-width="5"/>
	<path d="M93,175c0,18.61772 -16,32.42522 -16,55c0,0.46258 -0.22664,4.92445 0,5c0.51462,0.17154 96.48184,-5 109,-5c5.92227,0 30.95959,5.04041 35,1c0.56412,-0.56412 0,-7.58502 0,-8c0,-2.01651 1.92232,-41.07768 1,-42c-6.60165,-6.60165 -93.97419,8 -113,8" fill="none" stroke="black" stroke-linecap="round" stroke-width="5"/>
</svg>
