<?xml version="1.0" ?>
<svg baseProfile="full" height="300" version="1.1" viewBox="[0, 0, 300, 300]" width="300" xmlns="http://www.w3.org/2000/svg" xmlns:ev="http://www.w3.org/2001/xml-events" xmlns:xlink="http://www.w3.org/1999/xlink">
	<defs/>
	<path d="M64,48c0,16.89863 -4.93043,65.13915 2,79c1.60136,3.20271 66.64411,2 75,2c21.62172,0 43.19307,7 64,7c1.05409,0 2.25464,1.74536 3,1c3.80294,-3.80294 3.31832,-24.00102 4,-29c1.411,-10.34732 2.52887,-20.7021 4,-31c0.02876,-0.20132 0.0633,-2.98418 0,-3c-7.72104,-1.93026 -20.62213,0.27325 -28,0c-41.28684,-1.52914 -86.34504,4.13099 -127,-4" fill="none" stroke="black" stroke-linecap="round" stroke-width="5"/>
	<path d="M50,108c-5.69722,0 -13.77372,-1.74209 -19,0c-4.57515,1.52505 -1.87806,17.80504 -2,20c-0.7501,13.50178 -5,24.85121 -5,38c0,0.33333 -0.2357,0.7643 0,1c3.5939,3.5939 22.33491,-4.34439 23,-9c1.39631,-9.77418 2,-19.09597 2,-29" fill="none" stroke="black" stroke-linecap="round" stroke-width="5"/>
	<path d="M209,119c3.81542,-3.81542 9.42322,-4.6971 15,-4c2.9593,0.36991 12.21595,0.21595 14,2c2.32734,2.32734 4.8928,51.1072 1,55c-1.29115,1.29115 -31.65288,-8.38848 -28,-23c2.08308,-8.33234 7,-15.95214 7,-25" fill="none" stroke="black" stroke-linecap="round" stroke-width="5"/>
	<path d="M56,155c6.72047,0 9.10316,27.08253 14,31c10.746,8.5968 40.2779,3 52,3c37.90722,0 85,19.59695 85,-36" fill="none" stroke="black" stroke-linecap="round" stroke-width="5"/>
	<path d="M97,198c1.20185,0 1.86728,1.8055 2,3c1.91533,17.23799 1,34.69543 1,52c0,10.82462 0.83716,3.20515 7,-8c1.4368,-2.61237 2.66667,-5.33333 4,-8" fill="none" stroke="black" stroke-linecap="round" stroke-width="5"/>
	<path d="M151,196c7.94441,0 8.59917,28.06936 10,46c2.66794,34.14967 1,68.77332 1,103" fill="none" stroke="black" stroke-linecap="round" stroke-width="5"/>
</svg>
