<?xml version="1.0" ?>
<svg baseProfile="full" height="300" version="1.1" viewBox="[0, 0, 300, 300]" width="300" xmlns="http://www.w3.org/2000/svg" xmlns:ev="http://www.w3.org/2001/xml-events" xmlns:xlink="http://www.w3.org/1999/xlink">
	<defs/>
	<path d="M103,87c0,19.93804 -1.58008,41.12112 -3,61c-1.37215,19.21003 -3,47.18763 -3,36" fill="none" stroke="black" stroke-linecap="round" stroke-width="5"/>
	<path d="M121,84c0,24.72289 10,49.74843 10,75" fill="none" stroke="black" stroke-linecap="round" stroke-width="5"/>
	<path d="M154,96c0,24.38842 5,48.39992 5,73" fill="none" stroke="black" stroke-linecap="round" stroke-width="5"/>
	<path d="M181,101c2.9713,2.9713 6,48.85876 6,56" fill="none" stroke="black" stroke-linecap="round" stroke-width="5"/>
	<path d="M210,97c0,23.17538 3.44238,48.98144 6,72c0.55991,5.03915 0.73131,6.09696 -2,2" fill="none" stroke="black" stroke-linecap="round" stroke-width="5"/>
	<path d="M86,53c0,10.28813 0.13141,20.81729 -1,31c-0.33333,3 -3.13437,6.86563 -1,9c2.36878,2.36878 6.66667,-0.66667 10,-1c17.17668,-1.71767 34.07469,0.94217 51,2c26.40862,1.65054 54.38856,-1.40286 80,5c0.70085,0.17521 5.55531,0.44469 6,0c2.71577,-2.71577 1.05753,-24.75888 2,-29c1.32218,-5.94981 7,-17.0509 7,-23c0,-1.0144 -16.98997,0.99905 -17,1c-4.65748,0.44357 -9.3376,0.61147 -14,1c-15.00469,1.25039 -29.93612,1 -45,1c-20.69497,0 -41.27182,1 -62,1" fill="none" stroke="black" stroke-linecap="round" stroke-width="5"/>
</svg>
