<?xml version="1.0" ?>
<svg baseProfile="full" height="300" version="1.1" viewBox="[0, 0, 300, 300]" width="300" xmlns="http://www.w3.org/2000/svg" xmlns:ev="http://www.w3.org/2001/xml-events" xmlns:xlink="http://www.w3.org/1999/xlink">
	<defs/>
	<path d="M96,56c0,16.48406 -13.13436,84.86564 -4,94c1.49634,1.49634 20.49334,-4.58296 28,-5c30.17022,-1.67612 59.99544,2.49977 90,4c0.02171,0.00109 19,0 19,0c0,0 -3.99023,-10.9153 -4,-11c-3.11043,-26.95707 -1,-54.87391 -1,-82c0,-0.66667 0.4714,-1.5286 0,-2c-1.51982,-1.51982 -31.82043,0 -37,0c-33.52355,0 -66.76805,-2 -100,-2" fill="none" stroke="black" stroke-linecap="round" stroke-width="5"/>
	<path d="M70,122c-20.38771,0 -14.53597,5.8759 -20,25c-3.98836,13.95926 -7.57913,28.18479 -12,42c-0.88589,2.76841 -10.51112,22.48888 -6,27c4.11636,4.11636 10.47732,-5.15911 16,-7c4.94323,-1.64774 22.24672,0.75328 25,-2c1.53453,-1.53453 4.44492,-60.33477 8,-71c0.39819,-1.19457 3.69149,-5.30851 2,-7c-2.35419,-2.35419 -15,-0.44354 -15,-6" fill="none" stroke="black" stroke-linecap="round" stroke-width="5"/>
	<path d="M232,129c0,-1.49071 1.88567,2.51368 2,4c0.61752,8.0278 -0.71451,13.64433 -2,22c-2.9177,18.96503 -7.87482,37.24892 -11,56c-0.2192,1.31519 -0.94281,3.05719 0,4c0.97183,0.97183 2.72393,-0.48957 4,-1c11.68775,-4.6751 22.46366,-10.49273 35,-13c3.61029,-0.72206 8.39658,3.60342 11,1c0.93714,-0.93714 2,-47.57246 2,-52c0,-0.31613 1.35447,-16.64553 0,-18c-0.2357,-0.2357 -0.66667,0 -1,0c-14.49014,0 -29.80717,-3 -43,-3" fill="none" stroke="black" stroke-linecap="round" stroke-width="5"/>
	<path d="M116,173c0,13.12852 -10.61948,73.38052 -6,78" fill="none" stroke="black" stroke-linecap="round" stroke-width="5"/>
	<path d="M191,168c0,7.09578 -0.66479,13.9605 -1,21c-0.22197,4.66138 0.19428,9.33738 0,14c-0.07365,1.76761 -0.10262,32 -3,32" fill="none" stroke="black" stroke-linecap="round" stroke-width="5"/>
	<path d="M121,191c22.71929,0 44.98538,-7 68,-7" fill="none" stroke="black" stroke-linecap="round" stroke-width="5"/>
	<path d="M192,218c0,4.32939 -3.83941,7.35764 -5,12c-0.7814,3.12561 1.66374,12.33626 -1,15c-7.26526,7.26526 -32.88532,6 -43,6c-9.11589,0 -33.93461,1 -33,1" fill="none" stroke="black" stroke-linecap="round" stroke-width="5"/>
</svg>
