<?xml version="1.0" ?>
<svg baseProfile="full" height="300" version="1.1" viewBox="[0, 0, 300, 300]" width="300" xmlns="http://www.w3.org/2000/svg" xmlns:ev="http://www.w3.org/2001/xml-events" xmlns:xlink="http://www.w3.org/1999/xlink">
	<defs/>
	<path d="M83,31c-1.5756,0 -2.8926,17.03342 -5,36c-0.55338,4.98045 -0.66667,10 -1,15c-0.33333,5 -0.62982,10.00259 -1,15c-0.29651,4.0029 -0.55674,8.01069 -1,12c-1.82591,16.43322 -2,32.15902 -2,49c0,1.66667 -1.49071,4.25464 0,5c4.51171,2.25586 10.06178,-0.9712 15,-2c27.56057,-5.74179 56.89366,-5.56146 85,-4c19.63084,1.0906 38.33376,10 58,10c1.66667,0 4.25464,1.49071 5,0c4.7294,-9.4588 -1.00935,-35.89716 0,-47c0.92008,-10.12085 14.16774,-73.66452 8,-86c-1.09982,-2.19964 -73.05011,-4.08751 -84,-5c-24.2403,-2.02003 -49.12388,-8 -73,-8" fill="none" stroke="black" stroke-linecap="round" stroke-width="5"/>
	<path d="M49,144c0,13.88742 20.42064,59.42064 31,70" fill="none" stroke="black" stroke-linecap="round" stroke-width="5"/>
	<path d="M253,142c-8.83728,17.67456 -28,44.78409 -28,65" fill="none" stroke="black" stroke-linecap="round" stroke-width="5"/>
	<path d="M108,223c5.09267,0 14.5541,-4.28967 20,-5c23.58805,-3.0767 47.2801,-3 71,-3" fill="none" stroke="black" stroke-linecap="round" stroke-width="5"/>
	<path d="M122,224c0,0.66667 0,1.33333 0,2c0,1 0,2 0,3c0,2.23189 2.1214,36 -2,36" fill="none" stroke="black" stroke-linecap="round" stroke-width="5"/>
	<path d="M98,269c-7.44984,0 -27.98599,-68.00701 -6,-79c0.89443,-0.44721 2,0 3,0c12.14517,0 121.00644,0.50322 126,3c0.95384,0.47692 1.6955,2.23876 2,3c1.18198,2.95494 3.49588,53.50412 2,55c-12.36582,12.36582 -91.81846,8 -113,8" fill="none" stroke="black" stroke-linecap="round" stroke-width="5"/>
</svg>
