<?xml version="1.0" ?>
<svg baseProfile="full" height="300" version="1.1" viewBox="[0, 0, 300, 300]" width="300" xmlns="http://www.w3.org/2000/svg" xmlns:ev="http://www.w3.org/2001/xml-events" xmlns:xlink="http://www.w3.org/1999/xlink">
	<defs/>
	<path d="M75,68c0,17.55435 -6.32013,52.35975 1,67c0.8157,1.63139 44.67268,1 52,1c12.33333,0 24.67831,-0.53573 37,0c4.01008,0.17435 10.20495,4.59011 12,1c3.34446,-6.68893 3.28967,-34.16975 4,-39c0.43757,-2.97549 7.31951,-35.68049 5,-38c-1.78622,-1.78622 -17.74361,4.65286 -20,5c-25.44233,3.91421 -54.22929,4 -80,4" fill="none" stroke="black" stroke-linecap="round" stroke-width="5"/>
	<path d="M217,115c1.91532,0 1,1.65292 1,28c0,6.60293 1,13.62706 1,20" fill="none" stroke="black" stroke-linecap="round" stroke-width="5"/>
	<path d="M37,126c2.43192,-2.43192 4.17059,0.09706 5,3c3.25595,11.39584 0,27.94256 0,40" fill="none" stroke="black" stroke-linecap="round" stroke-width="5"/>
	<path d="M78,180c0,13.78522 2,28.01018 2,42c0,0.51504 -0.64103,6.35897 0,7c2.58329,2.58329 55.31738,-8.4834 61,-9c13.56303,-1.233 31.21586,7.26138 44,3c1.30384,-0.43461 4.33333,0.33333 4,-1c-3.71924,-14.87697 -8,-27.83494 -8,-44c0,-3.33333 2.35702,-7.64298 0,-10c-3.97996,-3.97996 -62.06295,15.93705 -71,7" fill="none" stroke="black" stroke-linecap="round" stroke-width="5"/>
</svg>
