<?xml version="1.0" ?>
<svg baseProfile="full" height="300" version="1.1" viewBox="[0, 0, 300, 300]" width="300" xmlns="http://www.w3.org/2000/svg" xmlns:ev="http://www.w3.org/2001/xml-events" xmlns:xlink="http://www.w3.org/1999/xlink">
	<defs/>
	<path d="M81,62c0,23.68705 -1,47.36383 -1,71c0,2.66667 -2.58705,7.35324 0,8c13.93427,3.48357 39.39981,-3 54,-3c9.33333,0 18.66667,0 28,0c5.75255,0 15.73793,-1.56552 22,0c1.50213,0.37553 7.69119,3.30881 8,3c3.64683,-3.64683 0,-31.21187 0,-35c0,-9.99036 -1.3919,-21.43238 1,-31c0.12632,-0.50527 0.10058,-6.97988 0,-7c-14.65873,-2.93175 -104.88361,8.11639 -115,-2" fill="none" stroke="black" stroke-linecap="round" stroke-width="5"/>
	<path d="M91,180c0,10.17377 -5.47184,26.12115 -9,36c-0.81619,2.28533 -4.01914,5.65391 -2,7c5.7431,3.82874 34.9758,-2.82282 41,-3c5.98985,-0.17617 78.22271,2.77729 80,1c2.91568,-2.91568 -0.75935,-17.39032 -1,-21c-0.21207,-3.18105 2.24787,-23.75213 1,-25c-1.43021,-1.43021 -47.12291,0 -54,0c-15.74486,0 -32.05458,-3 -48,-3" fill="none" stroke="black" stroke-linecap="round" stroke-width="5"/>
	<path d="M61,123c0,15.02686 -1,30.04366 -1,45" fill="none" stroke="black" stroke-linecap="round" stroke-width="5"/>
	<path d="M196,112c11.627,11.627 8,36.67388 8,55" fill="none" stroke="black" stroke-linecap="round" stroke-width="5"/>
</svg>
