<?xml version="1.0" ?>
<svg baseProfile="full" height="300" version="1.1" viewBox="[0, 0, 300, 300]" width="300" xmlns="http://www.w3.org/2000/svg" xmlns:ev="http://www.w3.org/2001/xml-events" xmlns:xlink="http://www.w3.org/1999/xlink">
	<defs/>
	<path d="M93,55c-1.26233,8.8363 -11.95758,82.04242 -9,85c0.51649,0.51649 5.13975,0 6,0c14.64403,0 29.37411,0.41788 44,0c17.34282,-0.49551 34.62678,-1 52,-1c6.33333,0 12.66667,0 19,0c2.35702,0 7,3.35702 7,1c0,-15.17121 -3.50115,-34.26208 -5,-50c-0.30947,-3.24941 1.54997,-25.45003 -1,-28c-1.88562,-1.88562 -5.33853,-0.16634 -8,0c-15.16137,0.94759 -29.87631,1.00825 -45,0c-18.16677,-1.21112 -35.20433,-6 -54,-6" fill="none" stroke="black" stroke-linecap="round" stroke-width="5"/>
	<path d="M85,256c-25.03462,-50.06924 25.95888,-57 60,-57c46.02093,0 65,11.97148 65,59" fill="none" stroke="black" stroke-linecap="round" stroke-width="5"/>
	<path d="M92,258c-5.37177,-5.37177 -1,-32.11413 -1,-39c0,-6.44925 -4.27393,-38.72607 1,-44c1.00554,-1.00554 60.24779,0 63,0c9.62205,0 26.34223,3.32888 35,-1c0.20513,-0.10256 2.85897,-0.14103 3,0c4.97944,4.97944 3,62.10963 3,73" fill="none" stroke="black" stroke-linecap="round" stroke-width="5"/>
</svg>
