<?xml version="1.0" ?>
<svg baseProfile="full" height="300" version="1.1" viewBox="[0, 0, 300, 300]" width="300" xmlns="http://www.w3.org/2000/svg" xmlns:ev="http://www.w3.org/2001/xml-events" xmlns:xlink="http://www.w3.org/1999/xlink">
	<defs/>
	<path d="M197,57c-6.33737,-6.33737 -34.50254,-3 -42,-3c-11.67102,0 -22.01152,2.54493 -34,2c-23.81652,-1.08257 -46.7126,-14.55125 -44,18c2.37237,28.46845 110.2508,34.24952 129,23c9.57008,-5.74205 15.04055,-34.38378 1,-40c-6.07065,-2.42826 -20.2262,-3 -27,-3" fill="none" stroke="black" stroke-linecap="round" stroke-width="5"/>
	<path d="M161,66c-6.06229,0 -28.08127,-4.91873 -33,0c-0.97183,0.97183 0.66667,2.66667 1,4c1.95727,7.82907 30.39053,0.60947 33,-2c3.12676,-3.12676 -8.94473,-2 -12,-2" fill="none" stroke="black" stroke-linecap="round" stroke-width="5"/>
	<path d="M81,90c0,22.66667 0,45.33333 0,68" fill="none" stroke="black" stroke-linecap="round" stroke-width="5"/>
	<path d="M106,146c0,2.55012 -1.81515,18 1,18" fill="none" stroke="black" stroke-linecap="round" stroke-width="5"/>
	<path d="M145,138c1.218,3.65399 3.18997,17.81003 7,14" fill="none" stroke="black" stroke-linecap="round" stroke-width="5"/>
	<path d="M184,123c1.0965,12.06155 4,25.08497 4,37" fill="none" stroke="black" stroke-linecap="round" stroke-width="5"/>
	<path d="M215,112c2.5962,12.981 0.67704,26.77043 2,40" fill="none" stroke="black" stroke-linecap="round" stroke-width="5"/>
	<path d="M61,146c13.52113,13.52113 0,52.22663 0,68c0,0.84538 -0.29814,3.52795 1,4c16.75032,6.09102 25.84419,-5.9333 41,-8c19.33102,-2.63605 40.56336,-2.0825 60,0c7.88033,0.84432 53.77294,12.73795 58,-1c0.69317,-2.25279 0.42834,-4.71335 1,-7c0.76696,-3.06786 2.45044,-5.88584 3,-9c0.46343,-2.62609 0,-5.33333 0,-8c0,-6.66667 0,-13.33333 0,-20c0,-2.35702 3.10819,-5.94591 1,-7c-7.5924,-3.7962 -22.80271,1.63946 -31,0c-10.42105,-2.08421 -18.98626,-5.56342 -30,-7c-15.08502,-1.96761 -42.47084,-12.68977 -56,-9c-8.60814,2.34767 -39.27254,20 -42,20" fill="none" stroke="black" stroke-linecap="round" stroke-width="5"/>
	<path d="M85,183c0,9.66667 0,19.33333 0,29" fill="none" stroke="black" stroke-linecap="round" stroke-width="5"/>
	<path d="M206,186c0,8 0,16 0,24" fill="none" stroke="black" stroke-linecap="round" stroke-width="5"/>
</svg>
