<?xml version="1.0" ?>
<svg baseProfile="full" height="300" version="1.1" viewBox="[0, 0, 300, 300]" width="300" xmlns="http://www.w3.org/2000/svg" xmlns:ev="http://www.w3.org/2001/xml-events" xmlns:xlink="http://www.w3.org/1999/xlink">
	<defs/>
	<path d="M55,108c0,3.52037 3.59058,1.29135 6,2c15.87395,4.66881 30.51814,9.87954 47,14c6.17818,1.54455 13.18055,-0.58642 19,2c5.31968,2.3643 -2.48659,11.37875 -4,17c-2.71402,10.08065 -5,18.72118 -5,29" fill="none" stroke="black" stroke-linecap="round" stroke-width="5"/>
	<path d="M118,172c-3.24602,0 -9.45496,-8.405 -16,-9c-11.56335,-1.05121 -25.63298,0.18351 -36,-5c-5.83847,-2.91924 -4,-26.66964 -4,-33c0,-1.28914 39.06037,-72.12074 43,-80c1.77827,-3.55653 23.96763,1.84838 27,2c23.43943,1.17197 45.18078,-7.43364 58,15c3.93626,6.88845 0,48.78969 0,60" fill="none" stroke="black" stroke-linecap="round" stroke-width="5"/>
	<path d="M171,123c6.99874,5.09 46.15595,19.73392 49,24c0.9245,1.38675 0,3.33333 0,5c0,6.05844 -11.4551,91.4551 -15,95c-9.20813,9.20813 -29.44608,-13.22304 -35,-16c-7.35393,-3.67696 -5.97859,-10.97859 -11,-16c-9.24795,-9.24795 -64.7199,-32.64005 -80,-25c-9.15383,4.57692 -10.31278,14.5639 -12,23c-1.82429,9.12147 -3.58871,21.41129 4,29c2.52347,2.52347 7.26198,1.63099 10,3c3.28083,1.64041 12.66655,13.2223 16,11c8.59962,-5.73308 0.37119,-88 16,-88" fill="none" stroke="black" stroke-linecap="round" stroke-width="5"/>
	<path d="M105,143c8.76289,8.76289 56.55073,51.22464 65,47c7.28285,-3.64142 22.96341,-7.89022 26,-17c3.66492,-10.99476 6.74863,-22.74316 9,-34c0.20672,-1.03362 -0.05409,-3 1,-3" fill="none" stroke="black" stroke-linecap="round" stroke-width="5"/>
</svg>
