<?xml version="1.0" ?>
<svg baseProfile="full" height="300" version="1.1" viewBox="[0, 0, 300, 300]" width="300" xmlns="http://www.w3.org/2000/svg" xmlns:ev="http://www.w3.org/2001/xml-events" xmlns:xlink="http://www.w3.org/1999/xlink">
	<defs/>
	<path d="M210,64c-9.62082,-9.62082 -106,1.4626 -106,24c0,31.35842 56.89201,8.036 69,4c1,-0.33333 2,-0.66667 3,-1c1,-0.33333 1.97101,-0.77134 3,-1c3.91481,-0.86996 8.25552,-3.37592 12,-4c2.65085,-0.44181 7,-1.31258 7,-4c0,-1.41126 0.671,-3 -1,-3" fill="none" stroke="black" stroke-linecap="round" stroke-width="5"/>
	<path d="M110,89c0,15.14765 -0.02453,29.12266 -3,44c-0.53907,2.69536 0.74874,8 -2,8" fill="none" stroke="black" stroke-linecap="round" stroke-width="5"/>
	<path d="M134,109c0,5.61167 -3.97047,33 4,33" fill="none" stroke="black" stroke-linecap="round" stroke-width="5"/>
	<path d="M165,116c0,3.81338 -2.88579,25 2,25" fill="none" stroke="black" stroke-linecap="round" stroke-width="5"/>
	<path d="M184,116c0.14069,0.28138 4.07635,29.8473 12,14" fill="none" stroke="black" stroke-linecap="round" stroke-width="5"/>
	<path d="M210,97c0,8.57319 -1.08596,19.82807 3,28" fill="none" stroke="black" stroke-linecap="round" stroke-width="5"/>
	<path d="M91,156c27.31841,-5.46368 61.72544,-12 90,-12c6.47584,0 32.7717,-0.7717 37,-5c0.52705,-0.52705 1,-2.74536 1,-2c0,13.74438 -5.16607,27.24011 -6,41c-0.62512,10.31441 7.30677,23.69323 0,31c-0.4714,0.4714 -1.34003,0.09428 -2,0c-9.78499,-1.39786 -20.09812,-1.66013 -30,-1c-14.00585,0.93372 -57.61443,2.19278 -70,-4c-8.73735,-4.36868 -6,-51.95655 -6,-59" fill="none" stroke="black" stroke-linecap="round" stroke-width="5"/>
	<path d="M99,150c0,18.26752 -2,35.91045 -2,54" fill="none" stroke="black" stroke-linecap="round" stroke-width="5"/>
	<path d="M124,209c0,11.68975 -2,23.12811 -2,35" fill="none" stroke="black" stroke-linecap="round" stroke-width="5"/>
	<path d="M202,230c3.09871,0 -0.85617,14.14383 2,17" fill="none" stroke="black" stroke-linecap="round" stroke-width="5"/>
	<path d="M213,171c5.71508,11.43017 14,22.58793 14,36" fill="none" stroke="black" stroke-linecap="round" stroke-width="5"/>
</svg>
