<?xml version="1.0" ?>
<svg baseProfile="full" height="300" version="1.1" viewBox="[0, 0, 300, 300]" width="300" xmlns="http://www.w3.org/2000/svg" xmlns:ev="http://www.w3.org/2001/xml-events" xmlns:xlink="http://www.w3.org/1999/xlink">
	<defs/>
	<path d="M73,74c0,-4.01386 5.53725,-5.97011 9,-8c5.72976,-3.35882 28.08124,-15.21625 37,-17c14.2782,-2.85564 36.81532,1.40766 50,8c2.51091,1.25546 2.91529,7.97882 7,9c2.49576,0.62394 10.98917,-1.03248 12,2c1.75639,5.26918 -10.11325,4.55662 -13,6c-5.79367,2.89684 -6.13085,9.26702 -15,8c-11.44105,-1.63444 -13.74182,-11.04636 -29,-12c-15.55252,-0.97203 -26.12239,7 -42,7c-1.85442,0 -4,0.52313 -4,-2" fill="none" stroke="black" stroke-linecap="round" stroke-width="5"/>
	<path d="M105,130c-4.66058,13.98175 -5.91407,24.46081 -5,40c1.7859,30.3603 14.15232,23.09934 39,16c5.45564,-1.55875 29.21987,2.78013 32,0c4.79986,-4.79986 3,-16.94174 3,-23c0,-6 0,-12 0,-18c0,-2.68742 3.65085,-7.55819 1,-8c-14.33941,-2.3899 -28.42832,-3 -43,-3" fill="none" stroke="black" stroke-linecap="round" stroke-width="5"/>
	<path d="M101,188c0,8.59332 -4,18.23006 -4,27c0,1.57991 0.70575,3 -1,3" fill="none" stroke="black" stroke-linecap="round" stroke-width="5"/>
	<path d="M122,186c0.98133,4.90663 2,11.35224 2,16" fill="none" stroke="black" stroke-linecap="round" stroke-width="5"/>
	<path d="M154,176c5.79939,11.59879 7.0452,19 21,19" fill="none" stroke="black" stroke-linecap="round" stroke-width="5"/>
	<path d="M184,190c0,1.90324 0.90095,7 3,7" fill="none" stroke="black" stroke-linecap="round" stroke-width="5"/>
	<path d="M97,83c0,9.23532 -4.70044,32.29956 2,39" fill="none" stroke="black" stroke-linecap="round" stroke-width="5"/>
	<path d="M121,40c0.42986,4.94342 0.8297,55.8297 5,60" fill="none" stroke="black" stroke-linecap="round" stroke-width="5"/>
	<path d="M141,53c0,20.37058 -1,40.64014 -1,61c0,1.4714 0.5286,2 2,2" fill="none" stroke="black" stroke-linecap="round" stroke-width="5"/>
	<path d="M175,104c0,8.6034 -8.64058,31 3,31" fill="none" stroke="black" stroke-linecap="round" stroke-width="5"/>
	<path d="M191,111c-2.40944,8.43303 -6,16.17266 -6,25" fill="none" stroke="black" stroke-linecap="round" stroke-width="5"/>
</svg>
