<?xml version="1.0" ?>
<svg baseProfile="full" height="300" version="1.1" viewBox="[0, 0, 300, 300]" width="300" xmlns="http://www.w3.org/2000/svg" xmlns:ev="http://www.w3.org/2001/xml-events" xmlns:xlink="http://www.w3.org/1999/xlink">
	<defs/>
	<path d="M82,111c0,-7.60951 6.02131,-10.38068 9,-17c6.18996,-13.75546 6.93505,-45.17402 24,-52c14.29807,-5.71923 40.6878,-6.40375 55,-2c36.1941,11.13665 43.42006,12.63951 37,64c-4.73328,37.86626 -65.33687,28.33263 -92,23c-4.16157,-0.83231 -35,-5.51883 -35,-8" fill="none" stroke="black" stroke-linecap="round" stroke-width="5"/>
	<path d="M80,119c4.51657,0 18.14418,2.07209 22,4c1.1333,0.56665 -0.91814,5.67257 -1,6c-3.08749,12.34995 3,27.14659 3,40" fill="none" stroke="black" stroke-linecap="round" stroke-width="5"/>
	<path d="M104,169c10.59652,-5.29826 22.2653,-13.3154 35,-11c4.8787,0.88704 62.19419,23.38839 63,25c2.41161,4.82323 8.6002,28.1994 6,36c-7.63533,22.90598 -68.5373,25.73135 -88,16c-15.36334,-7.68167 -12,-46.0193 -12,-62" fill="none" stroke="black" stroke-linecap="round" stroke-width="5"/>
	<path d="M185,86c5.24449,20.97795 13,43.24203 13,65" fill="none" stroke="black" stroke-linecap="round" stroke-width="5"/>
	<path d="M129,245c-3.92616,0 -8.17548,23.89471 -18,18c-16.64483,-9.9869 -13.90704,-39.95352 -32,-49c-11.54152,-5.77076 -27.79623,16.33962 -22,26c25.8531,43.0885 60.96688,45.57616 107,39c24.52528,-3.50361 42.8406,-52 27,-52" fill="none" stroke="black" stroke-linecap="round" stroke-width="5"/>
</svg>
