<?xml version="1.0" ?>
<svg baseProfile="full" height="300" version="1.1" viewBox="[0, 0, 300, 300]" width="300" xmlns="http://www.w3.org/2000/svg" xmlns:ev="http://www.w3.org/2001/xml-events" xmlns:xlink="http://www.w3.org/1999/xlink">
	<defs/>
	<path d="M59,58c6.01604,-3.00802 14.88239,0.35293 21,-2c28.5999,-10.99996 62.2229,-14 94,-14c19.68687,0 11.45486,6.59202 15,19c0.03642,0.12747 3.60992,8.39008 2,10c-3.80584,3.80584 -26.6787,1.45984 -31,2c-34.72862,4.34108 -71.53758,13 -107,13c-0.66667,0 -1.5286,0.4714 -2,0c-9.30961,-9.30961 6.84588,-18.84588 10,-22" fill="none" stroke="black" stroke-linecap="round" stroke-width="5"/>
	<path d="M52,83c2.87285,8.61854 17.40102,22 27,22" fill="none" stroke="black" stroke-linecap="round" stroke-width="5"/>
	<path d="M188,73c12.2129,0 14.38774,31 32,31" fill="none" stroke="black" stroke-linecap="round" stroke-width="5"/>
	<path d="M55,89c-14.62829,24.38048 -11.50846,57.01692 -24,82" fill="none" stroke="black" stroke-linecap="round" stroke-width="5"/>
	<path d="M46,143c9.85411,4.92705 26.91927,15.62806 37,18c18.59285,4.37479 45.43877,6.21939 63,15c10.65028,5.32514 23.64029,37.81582 40,28c13.91495,-8.34897 23.92119,-23.06654 27,-40c8.03582,-44.19702 -26.47809,-42.4239 -58,-44c-19.51555,-0.97578 -38.65177,-5 -58,-5c-7.15975,0 -47.87863,0.43932 -53,3c-6.08862,3.04431 -0.34691,9.66123 3,11" fill="none" stroke="black" stroke-linecap="round" stroke-width="5"/>
	<path d="M182,71c0,-1.05409 -0.95421,1.9469 -1,3c-0.2751,6.32736 0.65169,12.70029 0,19c-0.74345,7.18666 -6,14.68609 -6,22" fill="none" stroke="black" stroke-linecap="round" stroke-width="5"/>
	<path d="M152,201c5.98422,0 15,57.46513 15,66" fill="none" stroke="black" stroke-linecap="round" stroke-width="5"/>
	<path d="M189,231c0.88242,1.76483 1.82268,19 5,19" fill="none" stroke="black" stroke-linecap="round" stroke-width="5"/>
	<path d="M115,196c-5.60274,14.00686 -7,30.79053 -7,46" fill="none" stroke="black" stroke-linecap="round" stroke-width="5"/>
	<path d="M64,148c-20.15522,7.55821 -33.83825,19.29396 -31,42" fill="none" stroke="black" stroke-linecap="round" stroke-width="5"/>
</svg>
