<?xml version="1.0" ?>
<svg baseProfile="full" height="300" version="1.1" viewBox="[0, 0, 300, 300]" width="300" xmlns="http://www.w3.org/2000/svg" xmlns:ev="http://www.w3.org/2001/xml-events" xmlns:xlink="http://www.w3.org/1999/xlink">
	<defs/>
	<path d="M83,115c0.4714,0 1,-0.5286 1,-1c0,-21.93172 -2.61145,-42.50304 -5,-64c-0.57021,-5.13186 -0.14479,-9.86874 -1,-15c-0.37091,-2.22549 1.55613,-8 -1,-8" fill="none" stroke="black" stroke-linecap="round" stroke-width="5"/>
	<path d="M102,101c0,1.43252 2,-11.04744 2,-14c0,-14.4928 -1,-28.54071 -1,-43c0,-3.31317 1.01541,-7.95376 0,-11c-0.34955,-1.04865 -2,-6.23912 -2,-4" fill="none" stroke="black" stroke-linecap="round" stroke-width="5"/>
	<path d="M120,92c0.4714,0 1,-0.5286 1,-1c0,-14.83518 3,-29.07002 3,-44c0,-6 0,-12 0,-18" fill="none" stroke="black" stroke-linecap="round" stroke-width="5"/>
	<path d="M139,89c3.09266,-3.09266 -2,-59.37499 -2,-72" fill="none" stroke="black" stroke-linecap="round" stroke-width="5"/>
	<path d="M84,106c0,1.70575 1.42009,1 3,1c12.17988,0 24.53412,-3 37,-3c15.00179,0 19.88897,3.88897 30,14c0.08026,0.08026 3,4 3,4c0,0 -5.21449,0 -6,0c-13.95562,0 -37.9958,-5.66807 -52,-1c-0.13187,0.04396 -4.49121,2.01757 -5,1c-1.74909,-3.49818 -8.11166,-16 -11,-16" fill="none" stroke="black" stroke-linecap="round" stroke-width="5"/>
	<path d="M83,108c-6.47569,0 -8,27.10424 -8,32c0,1.33333 -1.19257,3.40372 0,4c2.26026,1.13013 3.7217,-1.7217 5,-3c7.18129,-7.18129 7,-24.30816 7,-34" fill="none" stroke="black" stroke-linecap="round" stroke-width="5"/>
	<path d="M98,117c0,9.77551 3,20.29927 3,29c0,9.47497 11.84678,-4.84678 14,-7c5.60931,-5.60931 -7,-15.17147 -7,-19" fill="none" stroke="black" stroke-linecap="round" stroke-width="5"/>
	<path d="M155,123c-0.62565,0 -2.49425,25.50575 0,28c0.84887,0.84887 2.56708,-0.56708 3,-1c4.96591,-4.96591 12.35003,-27 0,-27" fill="none" stroke="black" stroke-linecap="round" stroke-width="5"/>
	<path d="M142,124c-2.79779,2.79779 -6.68822,21.34411 0,18c1.53074,-0.76537 5,-22.20938 5,-26" fill="none" stroke="black" stroke-linecap="round" stroke-width="5"/>
	<path d="M69,32c0,-2.18577 6.4576,-1 8,-1c15.77702,0 38.54655,10.15115 54,5c2.49672,-0.83224 9.26131,-3.26131 11,-5c1.17851,-1.17851 0,-3.33333 0,-5c0,-2.55962 3.81802,-22.18198 1,-25c-2.79203,-2.79203 -25.68678,6.09811 -32,7c-8.12439,1.16063 -31.32703,4.67297 -37,-1c-2.36878,-2.36878 -8.94065,-4.17805 -10,-1c-0.9406,2.82181 0,7.90025 0,11c0,5.24406 3.51636,11.51636 7,15" fill="none" stroke="black" stroke-linecap="round" stroke-width="5"/>
</svg>
