<?xml version="1.0" ?>
<svg baseProfile="full" height="300" version="1.1" viewBox="[0, 0, 300, 300]" width="300" xmlns="http://www.w3.org/2000/svg" xmlns:ev="http://www.w3.org/2001/xml-events" xmlns:xlink="http://www.w3.org/1999/xlink">
	<defs/>
	<path d="M75,95c12.70725,-25.41449 15.01838,-62.99387 51,-51c3.87014,1.29005 9.43748,2.15622 12,6c2.92696,4.39043 14.8715,40.1285 9,46c-3.2123,3.2123 -34.88738,-2.49061 -41,-3c-4.87684,-0.4064 -30,-7.65055 -30,2" fill="none" stroke="black" stroke-linecap="round" stroke-width="5"/>
	<path d="M83,100c0,6.54372 32.33723,16.06511 40,13c7.1646,-2.86584 22.321,-12.358 24,-9c2.69352,5.38703 22.30941,15.38117 20,20c-0.85681,1.71362 -60.06882,15.46559 -69,11c-6.87172,-3.43586 -17,-24.14162 -17,-31c0,-1.41126 0.671,-3 -1,-3" fill="none" stroke="black" stroke-linecap="round" stroke-width="5"/>
	<path d="M78,85c0,6.47923 9.0786,15.1572 12,21c8.5811,17.16219 13,42.88468 13,62" fill="none" stroke="black" stroke-linecap="round" stroke-width="5"/>
	<path d="M148,91c-3.85031,0 5.44608,2.63072 6,3c4.86283,3.24188 7.51695,7.35593 11,12c9.10494,12.13992 10,31.09337 10,47c0,1.72213 -1.4663,6 -3,6" fill="none" stroke="black" stroke-linecap="round" stroke-width="5"/>
	<path d="M81,87c-6.39045,0 -28,64.41283 -28,76" fill="none" stroke="black" stroke-linecap="round" stroke-width="5"/>
	<path d="M139,98c-2.01406,0 -2,5.91638 -2,8" fill="none" stroke="black" stroke-linecap="round" stroke-width="5"/>
	<path d="M140,129c0,2.03541 0.77476,12 -1,12" fill="none" stroke="black" stroke-linecap="round" stroke-width="5"/>
</svg>
