<?xml version="1.0" ?>
<svg baseProfile="full" height="300" version="1.1" viewBox="[0, 0, 300, 300]" width="300" xmlns="http://www.w3.org/2000/svg" xmlns:ev="http://www.w3.org/2001/xml-events" xmlns:xlink="http://www.w3.org/1999/xlink">
	<defs/>
	<path d="M36,13c33.00367,2.53874 103.15589,20.36882 135,14c25.09199,-5.0184 52.00309,-5 76,-5c0.66667,0 1.5286,-0.4714 2,0c0.39433,0.39433 0.10034,5.59863 0,6c-5.71857,22.87427 -13.91579,18.44578 -45,17c-22.47656,-1.04542 -71.2369,3.96616 -92,1c-20.22598,-2.88943 -39.55064,-8.11013 -59,-12c-7.0567,-1.41134 -18.5794,3.2103 -25,0c-3.35339,-1.67669 -2.90253,-6.2924 -2,-9c3.01901,-9.05702 15.86165,-12 26,-12" fill="none" stroke="black" stroke-linecap="round" stroke-width="5"/>
	<path d="M26,36c10.76923,43.07692 10.76377,86.58259 18,130c4.46475,26.7885 13,55.2278 13,82" fill="none" stroke="black" stroke-linecap="round" stroke-width="5"/>
	<path d="M63,36c5.70397,45.63176 26,92.53457 26,138" fill="none" stroke="black" stroke-linecap="round" stroke-width="5"/>
	<path d="M119,42c9.0215,27.06449 22.05201,52.95947 28,81c4.22176,19.90258 2.52007,40.1606 5,60c1.15162,9.21296 8,18.49847 8,27" fill="none" stroke="black" stroke-linecap="round" stroke-width="5"/>
	<path d="M215,52c5.86315,14.65787 32,104.70112 32,122" fill="none" stroke="black" stroke-linecap="round" stroke-width="5"/>
	<path d="M44,234c22.93804,-6.03633 45.43502,-10.7009 69,-14c22.63892,-3.16945 48.41263,-4.56257 69,-16c17.60057,-9.77809 34.52523,-20.91414 54,-27c15.12261,-4.72582 31.65622,-11.11265 36,8c13.51984,59.4873 13.62087,60.07583 -41,71c-31.51916,6.30383 -62.36091,16.40852 -94,23c-15.83078,3.29808 -83.77992,13.22008 -95,2c-5.39403,-5.39403 0.91396,-40.91396 7,-47c5.00282,-5.00282 22.9633,-3 30,-3" fill="none" stroke="black" stroke-linecap="round" stroke-width="5"/>
</svg>
