<?xml version="1.0" ?>
<svg baseProfile="full" height="300" version="1.1" viewBox="[0, 0, 300, 300]" width="300" xmlns="http://www.w3.org/2000/svg" xmlns:ev="http://www.w3.org/2001/xml-events" xmlns:xlink="http://www.w3.org/1999/xlink">
	<defs/>
	<path d="M44,65c14.19331,14.19331 23.42855,32.42855 35,44" fill="none" stroke="black" stroke-linecap="round" stroke-width="5"/>
	<path d="M74,84c7.41066,7.41066 15.01802,15.01802 22,22" fill="none" stroke="black" stroke-linecap="round" stroke-width="5"/>
	<path d="M79,57c5.61745,7.48993 19.80352,29 29,29" fill="none" stroke="black" stroke-linecap="round" stroke-width="5"/>
	<path d="M103,34c6.97432,10.46147 11.36938,24.36938 20,33" fill="none" stroke="black" stroke-linecap="round" stroke-width="5"/>
	<path d="M135,28c7.12606,5.34454 13.73415,10.73415 20,17" fill="none" stroke="black" stroke-linecap="round" stroke-width="5"/>
	<path d="M159,29c2.80885,2.80885 6.13476,5.13476 9,8" fill="none" stroke="black" stroke-linecap="round" stroke-width="5"/>
	<path d="M179,77c-32.10155,12.84062 -68.00154,33.00154 -92,57c-0.8171,0.8171 1.54261,2.69507 2,3c8.14853,5.43235 20.86362,6.43181 30,11c13.37409,6.68705 32.01523,13.01523 42,23c0.14103,0.14103 2.79487,0.10256 3,0c27.27217,-13.63609 51.6543,-35.32715 79,-49c0.66667,-0.33333 1.66667,-0.33333 2,-1c1.58437,-3.16874 -6.13122,-8.28918 -7,-9c-16.76347,-13.71557 -34.53177,-31 -57,-31" fill="none" stroke="black" stroke-linecap="round" stroke-width="5"/>
</svg>
