<?xml version="1.0" ?>
<svg baseProfile="full" height="300" version="1.1" viewBox="[0, 0, 300, 300]" width="300" xmlns="http://www.w3.org/2000/svg" xmlns:ev="http://www.w3.org/2001/xml-events" xmlns:xlink="http://www.w3.org/1999/xlink">
	<defs/>
	<path d="M68,186c9.5539,0 29.01253,44.50626 32,46c2.56472,1.28236 4.33765,-3.93506 7,-5c4.60093,-1.84037 9.27262,-3.51425 14,-5c19.6074,-6.16232 41.46395,-8.73198 60,-18c0.96646,-0.48323 -2,-20.11867 -2,-22c0,-0.05746 1.4625,-16.5375 0,-18c-8.01221,-8.01221 -25.28432,-6.34699 -35,-6c-14.65223,0.52329 -33.75494,1.92998 -48,6c-9.96183,2.84624 -16.49143,18 -28,18" fill="none" stroke="black" stroke-linecap="round" stroke-width="5"/>
	<path d="M73,181c-14.16902,14.16902 -29.03052,28.68702 -46,40c-1.86002,1.24002 -3,1.44132 -3,4" fill="none" stroke="black" stroke-linecap="round" stroke-width="5"/>
	<path d="M105,227c-4.62891,0 -10.67899,29.03698 -12,33c-0.49354,1.48062 -10.35636,16 -6,16" fill="none" stroke="black" stroke-linecap="round" stroke-width="5"/>
	<path d="M182,208c0,14.80422 2.4972,30.24301 8,44c1.96156,4.90389 1.78581,10.14325 3,15c0.06765,0.27062 1,7.29593 1,4" fill="none" stroke="black" stroke-linecap="round" stroke-width="5"/>
	<path d="M163,213c-3.48069,6.96139 -1,19.10676 -1,27" fill="none" stroke="black" stroke-linecap="round" stroke-width="5"/>
	<path d="M62,178c0,-13.46425 2,-27.20262 2,-41c0,-2.73707 -1.26389,-30 1,-30" fill="none" stroke="black" stroke-linecap="round" stroke-width="5"/>
	<path d="M91,162c-1.05409,0 -0.74435,-1.97738 -1,-3c-1.64179,-6.56718 -13.69448,-56.69448 -9,-52" fill="none" stroke="black" stroke-linecap="round" stroke-width="5"/>
	<path d="M98,160c0,-16.24573 8,-31.74041 8,-52" fill="none" stroke="black" stroke-linecap="round" stroke-width="5"/>
	<path d="M121,152c0,-14.66667 0,-29.33333 0,-44" fill="none" stroke="black" stroke-linecap="round" stroke-width="5"/>
	<path d="M137,149c0,-17.00033 3.1413,-32.27166 5,-49c0.31339,-2.82055 -0.68738,-5.68738 2,-3" fill="none" stroke="black" stroke-linecap="round" stroke-width="5"/>
	<path d="M154,146c0,-12.19002 -2,-25.42158 -2,-37" fill="none" stroke="black" stroke-linecap="round" stroke-width="5"/>
	<path d="M171,152c0,-19.14503 7.38865,-35.94327 11,-54c0.19612,-0.98058 0.70711,-2.29289 0,-3c-2.55548,-2.55548 -22.6513,9 -27,9c-19.37628,0 -48.48216,-8.17261 -67,-2c-10.49568,3.49856 -22.08875,12.04438 -32,17c-5.36204,2.68102 -22.16601,-5.50196 -20,-12c13.15253,-39.4576 154.00873,-45.66085 185,-25c12.46581,8.31054 -11.29846,15.6335 -17,15c-1.65647,-0.18405 -3.33333,0 -5,0c-2,0 -4,0 -6,0c-2,0 -4,0 -6,0c-0.49852,0 -6.58748,1 -3,1" fill="none" stroke="black" stroke-linecap="round" stroke-width="5"/>
</svg>
