<?xml version="1.0" ?>
<svg baseProfile="full" height="300" version="1.1" viewBox="[0, 0, 300, 300]" width="300" xmlns="http://www.w3.org/2000/svg" xmlns:ev="http://www.w3.org/2001/xml-events" xmlns:xlink="http://www.w3.org/1999/xlink">
	<defs/>
	<path d="M56,170c0,6.95046 12.43619,18.39972 16,24c2.41574,3.79617 4.16386,17.08193 8,19c14.19803,7.09901 71.59607,-16.09934 89,-19c8.0588,-1.34313 29.04644,-2.04644 35,-8c3.80697,-3.80697 -6.93129,-20.72516 -8,-25c-3.11713,-12.46854 6.2551,-27.50093 -13,-24c-30.21106,5.49292 -59.85765,14.28588 -89,24c-10.1609,3.38697 -25.29112,6.29112 -33,14c-0.52705,0.52705 -1.81922,1.7231 -2,1c-2.55055,-10.20221 -3,-24.38942 -3,-35" fill="none" stroke="black" stroke-linecap="round" stroke-width="5"/>
	<path d="M83,156c0,-34.9787 -10,-68.286 -10,-103" fill="none" stroke="black" stroke-linecap="round" stroke-width="5"/>
	<path d="M110,138c0,1.33333 0.10226,-2.67059 0,-4c-0.20612,-2.6795 -0.66667,-5.33333 -1,-8c-0.33333,-2.66667 -0.66667,-5.33333 -1,-8c-2.22399,-17.79189 1,-33.87054 1,-51c0,-3.2132 -0.89767,-4 2,-4" fill="none" stroke="black" stroke-linecap="round" stroke-width="5"/>
	<path d="M151,130c-14.53464,-21.80196 -10,-57.7403 -10,-83" fill="none" stroke="black" stroke-linecap="round" stroke-width="5"/>
	<path d="M180,129c0,-7.56327 -0.8475,-15.50874 -2,-23c-3.80034,-24.70222 -8,-45.63736 -8,-71c0,-1.21078 2.36448,-7.63552 2,-8c-0.97605,-0.97605 -9.70132,8.18832 -11,9c-9.92411,6.20257 -22.18589,11.68732 -34,13c-10.54676,1.17186 -21.4463,-0.05537 -32,1c-16.98919,1.69892 -35.53041,10.70608 -52,14c-1.98821,0.39764 -4.37793,2.21655 -6,1c-1.27785,-0.95839 -4.36975,-29.26049 -3,-32c3.84993,-7.69986 35.13264,-12.97409 43,-16c18.14402,-6.97847 127.55723,-16.14759 146,-10c0.24151,0.0805 0.912,20.088 0,21c-0.75429,0.75429 -46.81849,11 -51,11" fill="none" stroke="black" stroke-linecap="round" stroke-width="5"/>
	<path d="M58,171c0,24.97708 -13,46.14366 -13,71" fill="none" stroke="black" stroke-linecap="round" stroke-width="5"/>
	<path d="M79,210c3.73279,0 -2.6228,18.73678 -3,21c-0.7805,4.683 0,61.17891 0,34" fill="none" stroke="black" stroke-linecap="round" stroke-width="5"/>
	<path d="M200,183c0,16.66049 -8,32.35738 -8,48" fill="none" stroke="black" stroke-linecap="round" stroke-width="5"/>
	<path d="M178,193c0,4.86578 1.76238,14.23762 -2,18" fill="none" stroke="black" stroke-linecap="round" stroke-width="5"/>
</svg>
