<?xml version="1.0" ?>
<svg baseProfile="full" height="300" version="1.1" viewBox="[0, 0, 300, 300]" width="300" xmlns="http://www.w3.org/2000/svg" xmlns:ev="http://www.w3.org/2001/xml-events" xmlns:xlink="http://www.w3.org/1999/xlink">
	<defs/>
	<path d="M91,256c0,-7.17438 -41.72038,-36.51974 -32,-43c22.37184,-14.91456 50.78361,-4.55672 78,-10c7.6203,-1.52406 28.54888,-10.72556 36,-7c3.97312,1.98656 15.4948,5.4948 18,8c6.92361,6.92361 35.09062,57.90938 31,62c-1.35861,1.35861 -3.44662,-8.22331 -5,-9c-0.28018,-0.14009 -12.39988,-15.19964 -13,-17c-8.85387,-26.5616 -5,-56.75748 -5,-84" fill="none" stroke="black" stroke-linecap="round" stroke-width="5"/>
	<path d="M86,249c0,-7.70669 -2.45395,-17.26977 -4,-25c-2.35463,-11.77315 -0.82914,-58.51258 3,-70c0.53748,-1.61245 -0.52023,-4.23988 1,-5c3.84474,-1.92237 16.65879,0.68179 20,1c31.32591,2.98342 59.25595,-2 90,-2" fill="none" stroke="black" stroke-linecap="round" stroke-width="5"/>
	<path d="M63,98c8.01838,0 19.35191,58 41,58" fill="none" stroke="black" stroke-linecap="round" stroke-width="5"/>
	<path d="M158,98c0,7.25903 20.04164,37.52082 27,41c6.30038,3.15019 15.77385,5 23,5" fill="none" stroke="black" stroke-linecap="round" stroke-width="5"/>
	<path d="M71,97c15.40398,0 31.87781,3.23228 48,4c14.41175,0.68627 28.52251,1 43,1c5.0111,0 20.0111,1 15,1c-7.87063,0 -5.03706,-12.03706 -9,-16c-2.33757,-2.33757 -85.99081,-2.83487 -91,-2c-4.69566,0.78261 -9.3089,1.41361 -14,2c-2.33882,0.29235 -7,-1.35702 -7,1c0,2.48149 3.25904,4.1476 4,6c0.49519,1.23797 0,5.33333 0,4c0,-7.88012 -3.35206,-77.64794 -3,-78c1.14665,-1.14665 40.45838,-4.75794 43,-5c15.70017,-1.49525 27.27421,0.75346 43,3c7.31717,1.04531 24.26605,-2.73395 29,2c13.10278,13.10278 6,44.87337 6,63" fill="none" stroke="black" stroke-linecap="round" stroke-width="5"/>
</svg>
