<?xml version="1.0" ?>
<svg baseProfile="full" height="300" version="1.1" viewBox="[0, 0, 300, 300]" width="300" xmlns="http://www.w3.org/2000/svg" xmlns:ev="http://www.w3.org/2001/xml-events" xmlns:xlink="http://www.w3.org/1999/xlink">
	<defs/>
	<path d="M65,156c0,-23.25759 -11.35179,-58.29642 0,-81c12.47492,-24.94985 125.34638,-22.92289 144,-8c15.82313,12.6585 -0.76886,39.07546 -4,52c-1.36711,5.46846 2,9.78408 2,15c0,3.01846 3.51151,7.32566 1,9c-15.37581,10.25054 -95.10797,3.36932 -118,11c-9.87077,3.29026 -28,-3.84285 -28,8c0,0.52864 -0.61902,7.38098 0,8c9.42304,9.42304 12.78332,27.52221 24,35c22.81484,15.20989 86.612,45.6776 115,40c12.10064,-2.42013 24.92172,-7.64295 36,-11c14.92684,-4.52329 33.44904,-3.96603 47,-13c1.52207,-1.01471 -0.74707,-10.98827 -1,-12c-3.20785,-12.83138 -40.86497,-5.90998 -53,-14c-11.48077,-7.65385 -10.99033,-24.971 -15,-37c-0.6399,-1.91969 -3.74193,-19.25807 -6,-17c-3.8341,3.8341 -4.74652,20.87326 -7,22c-35.07515,17.53758 -83.86345,23 -123,23" fill="none" stroke="black" stroke-linecap="round" stroke-width="5"/>
	<path d="M77,155c0,27.8728 37.64456,63.28911 50,88c0.99489,1.98977 13,29 13,29c0,0 -5.81067,-1 -7,-1c-17.8231,0 -36.23055,-1.36688 -54,0c-2.02162,0.15551 -5.09324,2.81353 -6,1c-2.28845,-4.57689 1.63821,-12.08536 0,-17c-1.13426,-3.40279 -4.28642,-15.71358 -1,-19c2.48671,-2.48671 45.4564,1.44564 51,2c43.80351,4.38035 90.17256,3.61341 134,-1c13.5064,-1.42173 27.67353,0.90378 41,-1c2.40231,-0.34319 5.65391,-4.01914 7,-2c5.4898,8.2347 6.77596,34.33606 1,43c-2.74542,4.11813 -23.64366,2.72773 -28,3c-5.00134,0.31258 -10.99112,4.00666 -15,1c-7.51926,-5.63944 -14.42527,-12.31895 -22,-18c-6.61076,-4.95807 -8.08956,-12.56717 -14,-17c-10.55085,-7.91314 -24.69072,-19.34536 -36,-25" fill="none" stroke="black" stroke-linecap="round" stroke-width="5"/>
</svg>
