<?xml version="1.0" ?>
<svg baseProfile="full" height="300" version="1.1" viewBox="[0, 0, 300, 300]" width="300" xmlns="http://www.w3.org/2000/svg" xmlns:ev="http://www.w3.org/2001/xml-events" xmlns:xlink="http://www.w3.org/1999/xlink">
	<defs/>
	<path d="M72,169c0,17.29131 0.90905,35.99979 4,53c0.24585,1.3522 -0.25591,3.44182 1,4c10.95527,4.86901 91.79733,-9.62995 106,-14c1.42479,-0.4384 3.5286,-0.58579 4,-2c2.06335,-6.19004 -4.08435,-25.13265 -5,-32c-0.23312,-1.74841 -0.52726,-25.52726 -2,-27c-3.14988,-3.14988 -28.10553,7.42111 -31,8c-25.17868,5.03574 -50.29805,9 -76,9" fill="none" stroke="black" stroke-linecap="round" stroke-width="5"/>
	<path d="M79,219c2.18577,0 1,6.4576 1,8c0,8.3355 1.95173,18.19309 0,26c-1.4576,5.83041 -4,-2.03219 -4,-4" fill="none" stroke="black" stroke-linecap="round" stroke-width="5"/>
	<path d="M71,176c-9.85999,9.85999 -6,36.05668 -6,49c0,1.40426 1.07244,7 -1,7" fill="none" stroke="black" stroke-linecap="round" stroke-width="5"/>
	<path d="M188,207c1.94879,0 1,3.53404 1,5c0,1.94307 -11,73.41908 -11,38" fill="none" stroke="black" stroke-linecap="round" stroke-width="5"/>
	<path d="M152,217c0,7.50587 1.80096,31.09952 -6,35" fill="none" stroke="black" stroke-linecap="round" stroke-width="5"/>
	<path d="M85,105c0,14.66667 0,29.33333 0,44c0,3.19265 -2,29.99326 -2,19" fill="none" stroke="black" stroke-linecap="round" stroke-width="5"/>
	<path d="M112,112c0,5.74237 3,83.96015 3,51" fill="none" stroke="black" stroke-linecap="round" stroke-width="5"/>
	<path d="M146,110c0,7.95346 -3,43.22469 -3,40" fill="none" stroke="black" stroke-linecap="round" stroke-width="5"/>
	<path d="M162,107c2.38166,9.52665 2.3471,20.20649 3,30c0.13805,2.07078 0,14.92795 0,14" fill="none" stroke="black" stroke-linecap="round" stroke-width="5"/>
	<path d="M166,104c-24.71439,0 -49.34621,-1 -74,-1c-9.6207,0 -17.86203,3 -27,3c-0.98034,0 -8.81312,1.9344 -9,1c-1.84176,-9.20882 0.70994,-21.96956 2,-31c0.46547,-3.25827 2.47323,-29.99176 9,-32c6.15257,-1.8931 26.28366,-3.7392 30,-4c33.68442,-2.36382 45.51,-2.4106 80,-2c9.32936,0.11106 84.94069,-3.74574 93,7c4.57862,6.10483 4.67005,19.07105 5,26c0.33921,7.12347 5.09876,27.90124 -1,34c-20.70441,20.70441 -86.59366,14 -113,14" fill="none" stroke="black" stroke-linecap="round" stroke-width="5"/>
</svg>
