<?xml version="1.0" ?>
<svg baseProfile="full" height="300" version="1.1" viewBox="[0, 0, 300, 300]" width="300" xmlns="http://www.w3.org/2000/svg" xmlns:ev="http://www.w3.org/2001/xml-events" xmlns:xlink="http://www.w3.org/1999/xlink">
	<defs/>
	<path d="M88,71c11.12738,0 17.53492,-11.13373 29,-14c26.88539,-6.72135 56.14749,-4.6295 83,-10c5.88774,-1.17755 10.77192,-6 17,-6" fill="none" stroke="black" stroke-linecap="round" stroke-width="5"/>
	<path d="M95,69c3.11828,-3.11828 117,-6.69569 117,-22" fill="none" stroke="black" stroke-linecap="round" stroke-width="5"/>
	<path d="M101,67c0,30.11385 -2,61.03451 -2,91" fill="none" stroke="black" stroke-linecap="round" stroke-width="5"/>
	<path d="M139,71c0,22.7533 4,45.26289 4,68" fill="none" stroke="black" stroke-linecap="round" stroke-width="5"/>
	<path d="M165,67c-9.48211,18.96422 3,51.62847 3,72" fill="none" stroke="black" stroke-linecap="round" stroke-width="5"/>
	<path d="M207,58c-6.48293,0 -4.23599,3.92039 -4,11c0.77841,23.35239 6,46.68736 6,70" fill="none" stroke="black" stroke-linecap="round" stroke-width="5"/>
	<path d="M85,142c37.73199,0 74.32151,0.34752 112,-4c10.022,-1.15639 19.97321,-2.88591 30,-4c1.36596,-0.15177 3.23764,-2.14354 4,-1c1.95,2.925 -7,50.69374 -7,61c0,0.5482 0.3035,8.89883 0,9c-10.52793,3.50931 -25.66393,-4 -37,-4c-9.42753,0 -93.07596,1.84809 -99,-10c-7.53232,-15.06464 -10.31504,-31.36992 -1,-50c1.64416,-3.28832 1.06776,-6 5,-6" fill="none" stroke="black" stroke-linecap="round" stroke-width="5"/>
	<path d="M84,187c0,19.15512 -1,38.68755 -1,58" fill="none" stroke="black" stroke-linecap="round" stroke-width="5"/>
	<path d="M217,206c0,21.35661 -1,43.36854 -1,65" fill="none" stroke="black" stroke-linecap="round" stroke-width="5"/>
</svg>
