<?xml version="1.0" ?>
<svg baseProfile="full" height="300" version="1.1" viewBox="[0, 0, 300, 300]" width="300" xmlns="http://www.w3.org/2000/svg" xmlns:ev="http://www.w3.org/2001/xml-events" xmlns:xlink="http://www.w3.org/1999/xlink">
	<defs/>
	<path d="M58,169c0,12.29058 -1.61043,52.61043 -11,62c-0.94281,0.94281 0,-2.66667 0,-4c0,-5.89183 0.68906,-10.45374 3,-16c4.91541,-11.79699 8.40506,-26.24051 10,-39c0.5803,-4.64243 1,-18.67856 1,-14c0,21.12343 28,37.44541 28,57" fill="none" stroke="black" stroke-linecap="round" stroke-width="5"/>
	<path d="M204,196c0,10.05572 -1.02235,16.55309 -5,26c-3.2721,7.77124 -3.64616,8.29232 -7,15c-11.49295,22.9859 17.3421,-47.85525 19,-52c0.00287,-0.00716 1.23693,-3 2,-3c6.26965,0 26,49.35803 26,60" fill="none" stroke="black" stroke-linecap="round" stroke-width="5"/>
	<path d="M37,143c37.58823,0 75.4597,2.36781 113,4c3.25871,0.14168 27.82578,5.17422 30,3c1.64535,-1.64535 0.36885,-9.18546 1,-11c5.75481,-16.54509 16.54928,-29.56637 24,-45c7.63291,-15.81102 11.09335,-32.11471 18,-48c3.61678,-8.31858 10.60431,-19.18378 19,-23c0.77043,-0.3502 18.49099,-6.50901 17,-8c-0.51055,-0.51055 -9.03668,-0.10758 -11,-1c-32.91107,-14.95958 -107.47741,-31.54541 -145,-20c-10.99549,3.38323 -20.64081,10.21884 -31,15c-13.28823,6.13303 -36.46736,-1.24283 -43,14c-1.07436,2.50684 -1.6585,9.12177 -2,11c-4.88309,26.85698 20.01445,8.02891 29,26c2.7565,5.51301 -7.30513,21.91538 -9,27c-8.1816,24.5448 -11,51.25304 -11,77" fill="none" stroke="black" stroke-linecap="round" stroke-width="5"/>
</svg>
