<?xml version="1.0" ?>
<svg baseProfile="full" height="300" version="1.1" viewBox="[0, 0, 300, 300]" width="300" xmlns="http://www.w3.org/2000/svg" xmlns:ev="http://www.w3.org/2001/xml-events" xmlns:xlink="http://www.w3.org/1999/xlink">
	<defs/>
	<path d="M44,186c0,17.03521 -3.08746,32.62486 -8,49c-2.42313,8.0771 -5.8272,15.85199 -8,24c-0.86316,3.23685 -1,13.34996 -1,10c0,-13.21421 2.2598,-26.08189 5,-39c2.14755,-10.12418 5.02611,-20.08702 8,-30c13.40231,-44.67436 31,34.61814 31,48" fill="none" stroke="black" stroke-linecap="round" stroke-width="5"/>
	<path d="M189,178c0,10.6032 -7.79874,21.04052 -11,31c-1.8075,5.62333 -3.18663,11.37856 -5,17c-2.39558,7.42631 -5.65023,14.55907 -8,22c-1.46151,4.62812 -2.19749,9.49373 -4,14c-0.39148,0.9787 -1.39148,3.9787 -1,3c0.78296,-1.9574 1.35488,-3.99295 2,-6c4.03066,-12.53983 39.4007,-101 50,-101c2.33333,0 -0.17896,4.67354 0,7c0.99998,12.99976 1,25.91479 1,39c0,17.86709 1.73801,35.78597 -4,53c-0.33187,0.9956 -2.00241,7 -3,7" fill="none" stroke="black" stroke-linecap="round" stroke-width="5"/>
	<path d="M57,159c28.3582,0 57.6136,10.4655 86,13c28.30699,2.52741 56.07901,-1 84,-1" fill="none" stroke="black" stroke-linecap="round" stroke-width="5"/>
	<path d="M40,76c46.94481,0 93.89619,5 141,5c9.98351,0 46.41523,-5.58477 55,3" fill="none" stroke="black" stroke-linecap="round" stroke-width="5"/>
	<path d="M236,84c0,-14.39818 -8.10775,-54.1293 -18,-66c-22.86285,-27.43542 -124.95549,-30.06677 -147,3c-6.14403,9.21604 -5.95514,23.34301 -9,34c-1.99208,6.97228 -10,16.97715 -10,23" fill="none" stroke="black" stroke-linecap="round" stroke-width="5"/>
</svg>
