<?xml version="1.0" ?>
<svg baseProfile="full" height="300" version="1.1" viewBox="[0, 0, 300, 300]" width="300" xmlns="http://www.w3.org/2000/svg" xmlns:ev="http://www.w3.org/2001/xml-events" xmlns:xlink="http://www.w3.org/1999/xlink">
	<defs/>
	<path d="M47,177c0,14.71689 -8.32087,76.44652 13,80c38.03149,6.33858 -7.77301,-69.22699 -1,-76c0.2357,-0.2357 0.70186,-0.14907 1,0c10.60735,5.30367 7.43906,61.81302 20,66c40.10426,13.36809 43.21357,-42.78643 36,-50c-1.39346,-1.39346 -2.54198,2 -4,2" fill="none" stroke="black" stroke-linecap="round" stroke-width="5"/>
	<path d="M177,194c0,7.79976 0.6694,65.47697 13,69c14.73184,4.2091 23.77437,-19.96931 25,-31c0.44173,-3.97553 4,-12 0,-12c-3.01846,0 -1,5.98154 -1,9c0,14.33333 0,28.66667 0,43c0,0.81683 0.41192,3.26468 2,3c16.34443,-2.72407 69.81841,-59.18159 50,-79" fill="none" stroke="black" stroke-linecap="round" stroke-width="5"/>
	<path d="M62,178c65.22947,0 130.00024,7 195,7" fill="none" stroke="black" stroke-linecap="round" stroke-width="5"/>
	<path d="M65,56c0,12.8802 -0.78919,58.80721 10,66c11.05785,7.3719 79.16571,1.13003 97,2c17.10471,0.83438 34.90248,2.10028 52,4c1.11437,0.12382 19.55704,3.88593 20,3c3.66302,-7.32603 -5.69095,-26.80025 -7,-34c-1.59012,-8.74564 -1.47724,-35.47724 -8,-42c-2.74788,-2.74788 -32.45292,-2.80294 -36,-3c-31.2632,-1.73684 -105.69536,-13.30464 -132,13" fill="none" stroke="black" stroke-linecap="round" stroke-width="5"/>
</svg>
