<?xml version="1.0" ?>
<svg baseProfile="full" height="300" version="1.1" viewBox="[0, 0, 300, 300]" width="300" xmlns="http://www.w3.org/2000/svg" xmlns:ev="http://www.w3.org/2001/xml-events" xmlns:xlink="http://www.w3.org/1999/xlink">
	<defs/>
	<path d="M42,183c0,36.58829 -18,79.16492 -18,111" fill="none" stroke="black" stroke-linecap="round" stroke-width="5"/>
	<path d="M45,181c-11.74682,23.49364 34,59.2049 34,84" fill="none" stroke="black" stroke-linecap="round" stroke-width="5"/>
	<path d="M186,187c-10.49144,20.98288 -41,62.68841 -41,86" fill="none" stroke="black" stroke-linecap="round" stroke-width="5"/>
	<path d="M181,190c9.74793,19.49587 17.28239,40.02215 26,60c36.9282,84.62714 184.66727,-0.33454 277,0c2.82841,0.01025 -4.54479,-3.57464 -6,-6c-2.92328,-4.87214 -5.96658,-9.9443 -9,-15c-6.78195,-11.30326 -10.68542,-24.60677 -19,-35c-13.9952,-17.494 -48.33094,-11.66547 -67,-21c-10.84025,-5.42013 -13.07824,-20.42543 -19,-31c-5.66923,-10.12363 -9.12817,-26.88897 -4,-38c27.58653,-59.77081 144.48921,-131.77994 194,-152c68.84062,-28.1143 139.37434,-51.89038 209,-78c4.38067,-1.64275 -9.3649,0.36381 -14,1c-12.70448,1.74375 -25.41757,3.52477 -38,6c-84.23655,16.57112 -101.11788,21.83552 -189,47c-116.02603,33.22331 -148.24692,42.97352 -267,86c-26.71237,9.6784 -52.57275,21.56819 -79,32c-9.90711,3.9107 -22.46858,3.46858 -30,11c-0.58993,0.58993 3.96706,5.90118 4,6c2.13793,6.4138 2.04208,18.74751 1,25c-3.86233,23.17397 -19.94586,70.10387 -35,84c-31.15945,28.76256 -23.73588,-51.14159 -28,-65c-5.1267,-16.66179 -12.41254,-18 -28,-18c-2.02759,0 0.27214,-4.10756 1,-6c20.06891,-52.17916 52.53954,-53.64031 94,-26c11.36664,7.57776 24.12438,13.21393 36,20c3.56456,2.03689 19.64006,8 16,8" fill="none" stroke="black" stroke-linecap="round" stroke-width="5"/>
	<path d="M39,183c0,-9.52263 -4.0921,-17.46708 -5,-27c-2.05463,-21.57364 -0.39766,-39.45809 -6,-60c-3.34614,-12.26917 -7.55588,-23.77942 -10,-36c-0.26954,-1.34768 -2.22927,-3.38536 -1,-4c10.50291,-5.25145 23.33782,2.62798 35,4c15.318,1.80212 30.67548,3.25417 46,5c47.36009,5.39545 94.58636,12.13706 142,17c21.47221,2.20228 43.72414,1.96059 65,5c0.31949,0.04564 2.80247,1.20988 3,2c1.57893,6.31571 -9.82719,18.59229 -12,21c-15.7501,17.45281 -64.65168,75.84167 -87,86c-7.84309,3.56504 -24.59477,-4 -33,-4c-5.77944,0 -21,4.15814 -21,4" fill="none" stroke="black" stroke-linecap="round" stroke-width="5"/>
</svg>
