<?xml version="1.0" ?>
<svg baseProfile="full" height="300" version="1.1" viewBox="[0, 0, 300, 300]" width="300" xmlns="http://www.w3.org/2000/svg" xmlns:ev="http://www.w3.org/2001/xml-events" xmlns:xlink="http://www.w3.org/1999/xlink">
	<defs/>
	<path d="M69,181c0,12.68962 -9.46127,28.92253 -15,40c-3.55445,7.1089 -6.86586,14.68701 -10,22c-0.13131,0.30638 0,1.33333 0,1c0,-17.69406 6.23033,-29.84492 12,-46c13.26203,-37.13369 23,33.88882 23,43" fill="none" stroke="black" stroke-linecap="round" stroke-width="5"/>
	<path d="M178,181c-1.9292,9.64599 -4.13108,17.81132 -8,27c-2.21037,5.24964 -3.95525,10.68366 -6,16c-12.18427,31.67911 -11.39315,25.74499 -2,-4c4.42678,-14.01814 13.49413,-26.98827 20,-40c0.33333,-0.66667 0.25464,-2 1,-2c2.35702,0 0.53775,4.68875 1,7c4.45023,22.25113 5,44.32624 5,67c0,1.33333 0,2.66667 0,4" fill="none" stroke="black" stroke-linecap="round" stroke-width="5"/>
	<path d="M46,97c15.59271,0 30.52333,0.21423 46,2c13.33335,1.53846 26.62877,1.56867 40,2c14.62208,0.47168 29.44213,1.78684 44,3c1.88401,0.157 17.06923,5.93077 20,3c5.37801,-5.37801 8.1474,-29.39306 11,-37c2.22826,-5.94201 9.4334,-20.13321 6,-27c-3.99331,-7.98661 -9.94709,-17.39834 -18,-22c-17.07752,-9.75858 -117.6965,-7.3035 -133,8c-16.38312,16.38312 -30.58333,26.83333 -22,44c1.39033,2.78066 -0.64285,15 3,15" fill="none" stroke="black" stroke-linecap="round" stroke-width="5"/>
</svg>
