<?xml version="1.0" ?>
<svg baseProfile="full" height="300" version="1.1" viewBox="[0, 0, 300, 300]" width="300" xmlns="http://www.w3.org/2000/svg" xmlns:ev="http://www.w3.org/2001/xml-events" xmlns:xlink="http://www.w3.org/1999/xlink">
	<defs/>
	<path d="M42,155c0,14.98072 -2.03795,101.48102 3,104c16.85832,8.42916 20,-42.20238 20,-50c0,-1.24812 -0.39487,-21.30257 -1,-21c-2.99629,1.49815 -0.84789,6.6535 -1,10c-0.37782,8.31198 -4.28242,70.71758 0,75c4.26314,4.26314 17.33232,-9.45144 19,-11c19.38696,-18.00217 28,-37.90955 28,-64c0,-3.06901 0.63369,-21 -4,-21" fill="none" stroke="black" stroke-linecap="round" stroke-width="5"/>
	<path d="M179,178c0,12.61958 -1.05491,88.47255 2,90c3.48761,1.74381 18,-29 18,-29c0,0 -0.36155,3.37302 0,5c1.16167,5.22751 7.6176,21.72352 14,23c33.65058,6.73012 49,-62.80825 49,-87" fill="none" stroke="black" stroke-linecap="round" stroke-width="5"/>
	<path d="M79,38c0,12.5002 -4.44663,80.55337 2,87c4.87647,4.87647 77.79103,-0.87329 84,-1c8.41559,-0.17175 81.76191,2.09523 85,-6c4.37394,-10.93485 -11.92277,-34.10424 -16,-43c-3.82651,-8.34875 -6.65847,-20.69175 -15,-26c-12.39588,-7.88829 -40.45196,5.26924 -53,7c-29.61181,4.08439 -58.49377,-3 -88,-3" fill="none" stroke="black" stroke-linecap="round" stroke-width="5"/>
</svg>
