<?xml version="1.0" ?>
<svg baseProfile="full" height="300" version="1.1" viewBox="[0, 0, 300, 300]" width="300" xmlns="http://www.w3.org/2000/svg" xmlns:ev="http://www.w3.org/2001/xml-events" xmlns:xlink="http://www.w3.org/1999/xlink">
	<defs/>
	<path d="M81,171c0,18.36739 -10.797,38.65665 -16,56c-1.51446,5.04819 -5,15 -5,15c0,0 -0.37477,-3.37601 0,-5c3.54434,-15.35879 12.05026,-29.15077 17,-44c8.10604,-24.31813 9.57017,-1.06393 18,17c2.27421,4.8733 8,13.75052 8,19" fill="none" stroke="black" stroke-linecap="round" stroke-width="5"/>
	<path d="M207,179c0,11.86701 -11.68457,26.95975 -17,37c-2.99491,5.65706 -5.00123,11.00368 -7,17c-0.66667,2 -2.34658,8.0795 -2,6c0.34658,-2.0795 1.27954,-4.01874 2,-6c5.74895,-15.8096 11.80796,-30.44637 25,-41c0.65056,-0.52045 4.83027,-5.16973 6,-4c0.05586,0.05586 9,49.07426 9,56" fill="none" stroke="black" stroke-linecap="round" stroke-width="5"/>
	<path d="M71,156c40.1261,13.37537 58.35035,29.42372 104,26c21.47455,-1.61059 41.68781,-9.22927 62,-16c20.97793,-6.99264 54.33392,-21.53181 43,-51c-7.32095,-19.03447 -42.36683,-26.29227 -59,-29c-34.653,-5.64119 -178.20874,-4.03579 -201,33c-23.84874,38.75421 6.94205,64.37944 45,54c5.11749,-1.39568 27,-8.24159 27,-14" fill="none" stroke="black" stroke-linecap="round" stroke-width="5"/>
	<path d="M45,58c41.8337,-10.45843 80.56772,-26.70269 125,-23c24.01695,2.00141 46.79503,22 70,22" fill="none" stroke="black" stroke-linecap="round" stroke-width="5"/>
	<path d="M77,56c0,12.66667 0,25.33333 0,38" fill="none" stroke="black" stroke-linecap="round" stroke-width="5"/>
</svg>
