<?xml version="1.0" ?>
<svg baseProfile="full" height="300" version="1.1" viewBox="[0, 0, 300, 300]" width="300" xmlns="http://www.w3.org/2000/svg" xmlns:ev="http://www.w3.org/2001/xml-events" xmlns:xlink="http://www.w3.org/1999/xlink">
	<defs/>
	<path d="M30,138c0,28.26931 -3.34799,56.47801 13,81c2.88823,4.33235 7.39119,-7.49387 10,-12c8.19168,-14.14927 14.65767,-26.60369 17,-43c0.67994,-4.7596 -0.13646,-8.65175 -2,-13c-0.18789,-0.43841 -2.41556,-7.16889 -3,-6c-6.56259,13.12518 -12.70203,69.59593 -5,85c4.87746,9.75492 31.06056,-21.48445 32,-29c1.52373,-12.18981 -2,-23.94884 -2,-36" fill="none" stroke="black" stroke-linecap="round" stroke-width="5"/>
	<path d="M160,162c0,10.4784 -4.24869,71.75026 7,74c12.48679,2.49736 19.29511,-20.47557 21,-29c0.6027,-3.0135 1.25464,-6.01858 2,-9c0.41223,-1.64893 1,-6.69967 1,-5c0,8.78875 0.86819,41.57364 13,44c20.72919,4.14584 55.95654,-53.04346 42,-67" fill="none" stroke="black" stroke-linecap="round" stroke-width="5"/>
	<path d="M39,131c51.9095,0 98.31913,28 149,28c10.86996,0 35.11703,4.94148 45,0c5.42345,-2.71172 4.36231,-22.89849 5,-28c0.3495,-2.79597 5.48498,-19.51502 3,-22c-0.62029,-0.62029 -7.46885,0.04829 -8,0c-9.0501,-0.82274 -18.07513,-3.3773 -27,-5c-40.21942,-7.31262 -85.32174,-6.51981 -126,-2c-12.33336,1.37037 -23.20246,6 -35,6c-1.76218,0 -8,-1.02724 -8,1" fill="none" stroke="black" stroke-linecap="round" stroke-width="5"/>
	<path d="M36,20c0,80.41546 30.62884,53.10778 99,50c9.29514,-0.42251 66.24964,6.25109 71,-8c3.32125,-9.96375 0.54668,-23.3226 -2,-33c-1.36761,-5.19691 -3.00271,-37.50135 -8,-40c-0.94434,-0.47217 -13.17027,10.98938 -16,12c-12.45377,4.44777 -26.90504,5.59523 -40,5c-22.34894,-1.01586 -40.28938,-18.02808 -63,-15c-13.00253,1.73367 -44.43305,20.43305 -53,29c-0.33333,0.33333 -1,0.5286 -1,1" fill="none" stroke="black" stroke-linecap="round" stroke-width="5"/>
</svg>
