<?xml version="1.0" ?>
<svg baseProfile="full" height="300" version="1.1" viewBox="[0, 0, 300, 300]" width="300" xmlns="http://www.w3.org/2000/svg" xmlns:ev="http://www.w3.org/2001/xml-events" xmlns:xlink="http://www.w3.org/1999/xlink">
	<defs/>
	<path d="M47,141c0,18.62627 -6.46515,85.26742 13,95c15.07345,7.53673 30.66309,-67.29401 32,-82c0.26164,-2.878 0.98576,-6.00475 -2,-7c-5.1407,-1.71357 -3,36.68758 -3,39c0,8.85324 -5.64323,40.35677 2,48c2.54893,2.54893 15.44584,-8.87154 18,-11c12.42145,-10.35121 23.6354,-19.88407 30,-35c8.44153,-20.04864 3,-31.83281 3,-22" fill="none" stroke="black" stroke-linecap="round" stroke-width="5"/>
	<path d="M198,154c0.66667,14.33333 15.35027,37.7408 2,43c-62.29266,24.53953 -45.29223,-25.35389 -32,-32c0.66667,-0.33333 1.7643,-1.70711 2,-1c3.95571,11.86713 0,31.27969 0,44c0,1 -0.89443,2.55279 0,3c18.95551,9.47775 60.12516,-23.87484 49,-35c-0.52811,-0.52811 -5.61839,0.72983 -7,18c-0.34875,4.35935 -3.76999,39.11501 2,42c15.419,7.7095 52.81417,-65.79843 15,-70" fill="none" stroke="black" stroke-linecap="round" stroke-width="5"/>
	<path d="M60,48c0,14.05486 -5.89801,43.13599 3,55c4.21988,5.62651 58.87283,6.43299 67,7c19.95725,1.39237 70.88777,12.2918 81,-14c6.06074,-15.75792 -3.24586,-25.12627 -12,-38c-3.90426,-5.74157 -9.9379,-17.9586 -16,-22c-9.0794,-6.05293 -80.6328,10.2679 -90,13c-5.72124,1.6687 -29.41633,9.58367 -35,4" fill="none" stroke="black" stroke-linecap="round" stroke-width="5"/>
</svg>
