<?xml version="1.0" ?>
<svg baseProfile="full" height="300" version="1.1" viewBox="[0, 0, 300, 300]" width="300" xmlns="http://www.w3.org/2000/svg" xmlns:ev="http://www.w3.org/2001/xml-events" xmlns:xlink="http://www.w3.org/1999/xlink">
	<defs/>
	<path d="M111,209c-5.67461,22.69842 -23.07791,44.73838 -33,66c-1.576,3.37715 -1.27322,10 -5,10c-3.14466,0 3.15883,-5.45069 5,-8c3.51836,-4.87158 6.48877,-10.12329 10,-15c9.53925,-13.24896 20.10053,-26.05114 27,-41c1.37575,-2.98079 4,-9 4,-9c0,0 -1,6.25308 -1,7c0,17.50386 0,36.42807 0,53" fill="none" stroke="black" stroke-linecap="round" stroke-width="5"/>
	<path d="M182,206c-3.19476,12.77905 -11.2519,24.14938 -15,37c-3.74956,12.85562 -4.11149,26.00173 -7,39c-0.06722,0.30248 -3,14 -3,14c0,0 6.52098,-26.72261 7,-28c7.81234,-20.83291 13.13243,-43.26485 23,-63c0.59554,-1.19108 2.58892,-6.47036 4,-6c3.35153,1.11718 8.44859,16.67661 9,18c3.61029,8.66469 5.63058,17.91722 8,27c3.95097,15.14538 7,27.59579 7,43" fill="none" stroke="black" stroke-linecap="round" stroke-width="5"/>
	<path d="M87,200c17.73827,0 35.30814,0.89426 53,2c4.53502,0.28344 40.4157,4.5843 46,-1c10.5582,-10.5582 13.25951,-48.94233 -5,-53c-18.74782,-4.16618 -41.54774,9.68844 -59,15c-30.46849,9.27302 -42,-5.8755 -42,25c0,4.80653 0.37978,16.37978 4,20" fill="none" stroke="black" stroke-linecap="round" stroke-width="5"/>
	<path d="M46,87c0,-47.15755 112.60811,-56.02196 142,-45c16.00187,6.0007 41.52148,26.95705 32,46c-0.78556,1.57113 -5,14 -5,14c0,0 -32.18292,-0.31301 -35,0c-40.32858,4.48095 -84.07567,18.11554 -125,13c-17.19476,-2.14935 -12.9241,-29.0759 -19,-23" fill="none" stroke="black" stroke-linecap="round" stroke-width="5"/>
</svg>
