<?xml version="1.0" ?>
<svg baseProfile="full" height="300" version="1.1" viewBox="[0, 0, 300, 300]" width="300" xmlns="http://www.w3.org/2000/svg" xmlns:ev="http://www.w3.org/2001/xml-events" xmlns:xlink="http://www.w3.org/1999/xlink">
	<defs/>
	<path d="M53,189c0,21.93201 -30,50.85818 -30,70" fill="none" stroke="black" stroke-linecap="round" stroke-width="5"/>
	<path d="M84,187c0,15.11563 6.54213,29.93531 8,45c1.70198,17.58714 1,35.35151 1,53" fill="none" stroke="black" stroke-linecap="round" stroke-width="5"/>
	<path d="M165,203c-7.24418,21.73253 -26,45.23539 -26,69" fill="none" stroke="black" stroke-linecap="round" stroke-width="5"/>
	<path d="M178,204c0,9.9476 11.67475,23.91698 16,33c2.77873,5.83534 5.82353,21.82353 10,26" fill="none" stroke="black" stroke-linecap="round" stroke-width="5"/>
	<path d="M44,165c51.33333,0 102.66667,0 154,0" fill="none" stroke="black" stroke-linecap="round" stroke-width="5"/>
	<path d="M198,165c0,-25.43343 1.00707,-45.0111 15,-67c7.39674,-11.62344 11.85573,-15.31344 23,-22c2.5809,-1.54854 5,-5.44024 5,-5" fill="none" stroke="black" stroke-linecap="round" stroke-width="5"/>
	<path d="M46,159c0,-18.06671 -1.62671,-44.79565 -9,-62c-4.54697,-10.60959 -29,-13.51097 -29,-24c0,-1.41126 -1,-3 -1,-3c0,0 8.63965,-0.96397 9,-1c17.97107,-1.79711 35.78637,-4.17211 54,-5c34.83801,-1.58355 70.02729,-6.33151 105,-4c14.46177,0.96412 23.55299,14.59217 38,17c8.52312,1.42052 13.30345,-2 21,-2" fill="none" stroke="black" stroke-linecap="round" stroke-width="5"/>
</svg>
