<?xml version="1.0" ?>
<svg baseProfile="full" height="300" version="1.1" viewBox="[0, 0, 300, 300]" width="300" xmlns="http://www.w3.org/2000/svg" xmlns:ev="http://www.w3.org/2001/xml-events" xmlns:xlink="http://www.w3.org/1999/xlink">
	<defs/>
	<path d="M58,18c12.03338,0 24.93161,-4.07166 37,-5c42.8877,-3.29905 86.09037,3.86064 129,1c2.08594,-0.13906 46.82241,-2.17759 48,-1c2.21996,2.21996 -1.78075,10.37434 -3,12c-10.82029,14.42706 -37.61327,9 -56,9c-34.93186,0 -70.66914,1.29136 -105,-3c-13.75899,-1.71987 -29.66997,-4.83499 -42,-11c-2.10819,-1.05409 -5.94591,-3.10819 -7,-1c-4.12768,8.25535 11.80578,33.32024 14,41c8.48897,29.71139 9,61.40441 9,92c0,17.94634 0.37495,30.81233 5,47c1.55919,5.45715 5,12.58135 5,18c0,0.32156 -0.22436,5.55127 -1,4c-3.84395,-7.6879 0,-27.58804 0,-36c0,-9.08447 7.22538,-71.64508 24,-75c2.86921,-0.57384 6.30035,1.32509 9,2c15.18263,3.79566 30.09999,3 46,3c4.09248,0 54.12267,-0.40373 55,1c9.98419,15.97471 15.97724,38.7132 23,56c1.40267,3.45274 3.48641,6.59443 5,10c3.0624,6.89039 5.6203,14.86091 8,22c0.64118,1.92354 3.02759,6 1,6c-2.57001,0 -0.56942,-27.72233 0,-30c6.61336,-26.45344 13,-59.19912 13,-86c0,-1.06847 0.49352,-7.71799 0,-8c-35.01566,-20.00895 -120.38807,-28.71771 -158,-14c-9.74373,3.81276 -51.93164,16.67091 -45,34c5.46308,13.65769 34.52747,15 46,15c36.54444,0 102.29275,5.70725 130,-22c2.78382,-2.78382 10.63519,-21.36481 6,-26c-4.49432,-4.49432 -17.18315,2.81685 -21,-1c-0.80704,-0.80704 0,-39.48415 0,-46" fill="none" stroke="black" stroke-linecap="round" stroke-width="5"/>
</svg>
