<?xml version="1.0" ?>
<svg baseProfile="full" height="300" version="1.1" viewBox="[0, 0, 300, 300]" width="300" xmlns="http://www.w3.org/2000/svg" xmlns:ev="http://www.w3.org/2001/xml-events" xmlns:xlink="http://www.w3.org/1999/xlink">
	<defs/>
	<path d="M69,23c39,0 78,0 117,0c4.22214,0 30.22227,-3.77773 34,0c1.04863,1.04863 0,10.43479 0,12c0,25.4397 8.99908,49.99634 15,74c0.51131,2.04524 3.49071,4.50929 2,6c-7.60235,7.60235 -82.27032,11 -95,11c-9,0 -18,0 -27,0c-0.32588,0 -13.1776,-0.06559 -13,1c3.34463,20.06778 58.82021,47.82021 74,63c2.21951,2.21951 13.03747,22 15,22c1.94365,0 1.7201,-3.53725 3,-5c5.63167,-6.43619 16.33317,-9.54661 24,-12c13.06529,-4.18089 26.7087,-6.67717 40,-10c0.91238,-0.22809 2.7249,0.65063 3,-1c4.42678,-26.56068 -20,-53.46848 -20,-78" fill="none" stroke="black" stroke-linecap="round" stroke-width="5"/>
	<path d="M64,13c0,15.60765 4.80245,30.43185 6,46c2.65514,34.51676 -2.88928,71.77506 2,106c3.10119,21.70835 10.74347,42.1449 17,63c2.73366,9.11219 5.2568,45.51359 7,49c1.47312,2.94624 16.81145,-2.91201 17,-3c11.62963,-5.42716 14,-18.04802 14,-30c0,-36.56848 -42.36025,-70.91924 -29,-111c2.25148,-6.75445 10.89429,-7.89429 15,-12" fill="none" stroke="black" stroke-linecap="round" stroke-width="5"/>
	<path d="M168,188c0,13.49489 -4.03866,84.96134 3,92c2.32859,2.32859 13.45042,0.84708 14,-3c2.09718,-14.68026 -6.48755,-74.51245 3,-84" fill="none" stroke="black" stroke-linecap="round" stroke-width="5"/>
	<path d="M237,186c6.22769,18.68308 8.83513,37.51615 11,57c0.04749,0.4274 5.81064,34.18936 13,27c27.68064,-27.68064 -2,-143.412 -2,-88" fill="none" stroke="black" stroke-linecap="round" stroke-width="5"/>
</svg>
