<?xml version="1.0" ?>
<svg baseProfile="full" height="300" version="1.1" viewBox="[0, 0, 300, 300]" width="300" xmlns="http://www.w3.org/2000/svg" xmlns:ev="http://www.w3.org/2001/xml-events" xmlns:xlink="http://www.w3.org/1999/xlink">
	<defs/>
	<path d="M57,33c0,-22.99725 69.66027,5.42583 78,9c6.77155,2.90209 16.77643,2.34331 24,3c3.3362,0.30329 6.65004,1 10,1c9.64176,0 21.88587,2.03804 31,-1c1.85025,-0.61675 5.84112,-4.07944 8,-3c1.22927,0.61464 0.77406,2.64433 1,4c0.87209,5.23257 5.04705,33.95295 1,38c-5.18999,5.18999 -25.45558,-0.38395 -31,-1c-30.10604,-3.34512 -72.69884,-11.84942 -99,-25c-8.51618,-4.25809 -14.0967,-18.36557 -22,-21c-3.1305,-1.0435 -4.66667,-9.33333 -7,-7c-6.52124,6.52124 4.65622,96.90602 6,109c1.05721,9.51487 0,20.29758 0,30c0,2.15615 3,13.70732 3,9" fill="none" stroke="black" stroke-linecap="round" stroke-width="5"/>
	<path d="M78,60c0,32.33333 0,64.66667 0,97c0,13.33333 0,26.66667 0,40c0,3.26667 0,4.26667 0,1" fill="none" stroke="black" stroke-linecap="round" stroke-width="5"/>
	<path d="M129,75c0,36.06855 -2.59091,73.09093 1,109c1.16843,11.68433 2.2581,23.38731 4,35c0.35998,2.39986 1.5659,4.61244 2,7c0.23851,1.31183 -0.26149,5.30744 0,4c0.9245,-4.6225 1.33333,-9.33333 2,-14" fill="none" stroke="black" stroke-linecap="round" stroke-width="5"/>
	<path d="M191,68c0,37.66667 0,75.33333 0,113c0,7.33333 0,22 0,22c0,0 0.55819,-5.34915 1,-8" fill="none" stroke="black" stroke-linecap="round" stroke-width="5"/>
	<path d="M225,88c-0.66667,1.33333 -2.50929,2 -4,2" fill="none" stroke="black" stroke-linecap="round" stroke-width="5"/>
	<path d="M161,82c0,45.6091 -0.55326,100.65978 -15,144" fill="none" stroke="black" stroke-linecap="round" stroke-width="5"/>
	<path d="M188,192c3.08975,0 4.38475,-4.95593 2,-7c-10.38782,-8.90384 -33.12934,-14.6904 -46,-18c-19.92881,-5.12455 -83.53933,-14.23034 -104,-4c-4.54503,2.27251 -12.48442,22.84415 -13,28c-2.58379,25.83785 35.25327,25.94022 53,29c29.60645,5.10456 88.48513,24.50496 117,15c7.70948,-2.56983 33.45213,-47.25745 27,-55c-14.11617,-16.93941 -46.82933,-8.39022 -63,-3" fill="none" stroke="black" stroke-linecap="round" stroke-width="5"/>
	<path d="M75,210c0,20.55714 -5.07513,41.46802 -7,62c-0.72167,7.69785 -3,30.73161 -3,23" fill="none" stroke="black" stroke-linecap="round" stroke-width="5"/>
	<path d="M119,220c2.10819,0 1.55216,3.93993 2,6c4.44481,20.44612 6.58566,40.51398 10,61c0.95703,5.74221 4,22.82142 4,17" fill="none" stroke="black" stroke-linecap="round" stroke-width="5"/>
	<path d="M177,231c8.43165,4.21582 2.78591,72 13,72" fill="none" stroke="black" stroke-linecap="round" stroke-width="5"/>
	<path d="M223,198c0,12.16188 16.53285,108.53285 21,113" fill="none" stroke="black" stroke-linecap="round" stroke-width="5"/>
</svg>
