<?xml version="1.0" ?>
<svg baseProfile="full" height="300" version="1.1" viewBox="[0, 0, 300, 300]" width="300" xmlns="http://www.w3.org/2000/svg" xmlns:ev="http://www.w3.org/2001/xml-events" xmlns:xlink="http://www.w3.org/1999/xlink">
	<defs/>
	<path d="M72,25c24.9704,0 49.92136,-1 75,-1c15.39937,0 75.27696,-12.10783 67,21c-1.99414,7.97654 -20.35605,10.50852 -27,13c-42.79721,16.04895 -80.34162,4.21946 -120,-9c-14.41364,-4.80455 0.81692,-24 11,-24" fill="none" stroke="black" stroke-linecap="round" stroke-width="5"/>
	<path d="M153,38c-3.66667,0 -7.33333,0 -11,0c-5,0 -10,0 -15,0c-25.60842,0 34.02736,14.48632 45,9c4.94312,-2.47156 -3.71378,-12 -7,-12" fill="none" stroke="black" stroke-linecap="round" stroke-width="5"/>
	<path d="M98,52c0,25.54654 -5,49.90963 -5,75" fill="none" stroke="black" stroke-linecap="round" stroke-width="5"/>
	<path d="M155,74c3.7475,14.99 5.35657,30.80029 8,46c0.80163,4.60937 1,18.67856 1,14" fill="none" stroke="black" stroke-linecap="round" stroke-width="5"/>
	<path d="M198,56c1.66667,0 2.83416,2.3416 3,4c2.24036,22.4036 10,44.42421 10,67" fill="none" stroke="black" stroke-linecap="round" stroke-width="5"/>
	<path d="M74,141c-1.49071,0 2.54238,-1.68765 4,-2c7.60901,-1.6305 15.32039,-2.74334 23,-4c25.17613,-4.11973 50.54321,-8.10024 76,-10c16.73896,-1.24918 51.83608,-5.58196 69,3c1.88562,0.94281 -0.99049,4.14923 -2,6c-4.73519,8.68119 -8,15.81458 -8,26c0,10.71331 3.39793,27.80622 0,38c-0.51926,1.55778 -2.91486,1 -4,1c-19.35456,0 -38.54902,1.81046 -58,1c-45.44866,-1.89369 -102,-9.34547 -102,-66" fill="none" stroke="black" stroke-linecap="round" stroke-width="5"/>
	<path d="M79,146c2.4267,0 1.86539,4.57703 2,7c0.94755,17.05597 -0.60281,33.2197 -3,50c-0.48155,3.37083 0,15.10059 0,15" fill="none" stroke="black" stroke-linecap="round" stroke-width="5"/>
	<path d="M119,192c0.43979,0 9.46306,29.28181 10,31c0.60478,1.93529 0.81643,3.98074 1,6c0.15089,1.65982 0,3.33333 0,5" fill="none" stroke="black" stroke-linecap="round" stroke-width="5"/>
	<path d="M131,234c6.78051,0 10,18.76265 10,24" fill="none" stroke="black" stroke-linecap="round" stroke-width="5"/>
	<path d="M202,202c0,17.01669 5.92487,36.69946 10,53" fill="none" stroke="black" stroke-linecap="round" stroke-width="5"/>
	<path d="M243,188c3.10014,0 2,5.49196 2,7c0,20.21518 14,40.13287 14,60" fill="none" stroke="black" stroke-linecap="round" stroke-width="5"/>
</svg>
