<?xml version="1.0" ?>
<svg baseProfile="full" height="300" version="1.1" viewBox="[0, 0, 300, 300]" width="300" xmlns="http://www.w3.org/2000/svg" xmlns:ev="http://www.w3.org/2001/xml-events" xmlns:xlink="http://www.w3.org/1999/xlink">
	<defs/>
	<path d="M89,38c-3.86525,0 0.09719,-14.06479 3,-16c11.35918,-7.57279 27.06224,-7.27626 40,-10c36.58038,-7.70113 73.32676,-10.33393 110,-7c2.58058,0.2346 4.54731,0.28386 5,3c1.46284,8.77705 -1.18403,18.26387 1,27c1.71459,6.85836 6,13.76375 6,21c0,2.4267 4.01914,5.65391 2,7c-3.84769,2.56513 -47.88842,0 -54,0c-18.16437,0 -36.89517,-1.39268 -55,0c-28.48229,2.19095 -57,8.89669 -57,-27" fill="none" stroke="black" stroke-linecap="round" stroke-width="5"/>
	<path d="M87,39c0,26.21151 12.98964,48.85099 10,78c-1.95929,19.1031 -8.85835,37.15012 -12,56c-0.4384,2.63038 -0.37712,-5.36013 0,-8c0.57349,-4.01442 2,-7.94482 2,-12" fill="none" stroke="black" stroke-linecap="round" stroke-width="5"/>
	<path d="M126,61c3.91734,-3.91734 3,31.35333 3,32c0,23.33333 0,46.66667 0,70c0,14 0,28 0,42c0,2.33333 -2.33333,7 0,7c0.74536,0 1.72318,-0.30795 2,-1c5.52821,-13.82052 9.83501,-26.46614 17,-40" fill="none" stroke="black" stroke-linecap="round" stroke-width="5"/>
	<path d="M202,44c7.62201,15.24402 2,83.1998 2,104c0,10 0,20 0,30c0,3.66667 0,7.33333 0,11c0,1.33333 -0.8,5.06667 0,4c2.66875,-3.55834 3.1722,-7.86099 4,-12" fill="none" stroke="black" stroke-linecap="round" stroke-width="5"/>
	<path d="M269,52c5.46583,-5.46583 3,45.10389 3,48c0,33.66667 0,67.33333 0,101c0,0.33333 0,-4.66667 0,-5c0,-2.33333 0,-4.66667 0,-7c0,-4.7576 -2.55565,-10.55565 -6,-14c-11.71054,-11.71054 -31.2083,-13.94021 -47,-16c-32.53112,-4.24319 -67.24514,-1 -100,-1c-32.01885,0 -64.81252,-11.58033 -83,17c-6.29969,9.89951 -8.0083,24.56846 -5,36c13.6437,51.84606 152.48126,49 189,49c18.83683,0 52.13243,5.92643 70,-4c18.95604,-10.53113 7.497,-75.503 -6,-89c-1.70917,-1.70917 -44.24701,0 -51,0" fill="none" stroke="black" stroke-linecap="round" stroke-width="5"/>
	<path d="M58,238c0,4.39188 1,71.2199 1,53" fill="none" stroke="black" stroke-linecap="round" stroke-width="5"/>
	<path d="M102,250c6.18207,6.18207 4,26.24446 4,35" fill="none" stroke="black" stroke-linecap="round" stroke-width="5"/>
	<path d="M173,259c4.98268,9.96537 14,41.76929 14,52" fill="none" stroke="black" stroke-linecap="round" stroke-width="5"/>
	<path d="M277,253c0,22.66667 0,45.33333 0,68" fill="none" stroke="black" stroke-linecap="round" stroke-width="5"/>
</svg>
