<?xml version="1.0" ?>
<svg baseProfile="full" height="300" version="1.1" viewBox="[0, 0, 300, 300]" width="300" xmlns="http://www.w3.org/2000/svg" xmlns:ev="http://www.w3.org/2001/xml-events" xmlns:xlink="http://www.w3.org/1999/xlink">
	<defs/>
	<path d="M65,55c27.87311,0 55.80172,11 83,11" fill="none" stroke="black" stroke-linecap="round" stroke-width="5"/>
	<path d="M125,68c9.38146,-9.38146 61.03428,-6 76,-6" fill="none" stroke="black" stroke-linecap="round" stroke-width="5"/>
	<path d="M67,56c-4.85634,0 5,41.7997 5,49c0,10.52436 -4.9145,71.0855 -2,74c0.66667,0.66667 1.33333,-2.66667 2,-2c3.31652,3.31652 -0.38229,14.30885 3,16c2.72216,1.36108 7.88932,-1.94466 10,-3c7.01233,-3.50616 12.19971,-5.29957 16,-11c5.39576,-8.09363 -1.93617,-20.12765 2,-28c2.05833,-4.11666 6.38823,10.09706 14,12c10.94583,2.73646 25.606,3.24578 38,6c4.33888,0.96419 27.23411,1.23411 30,4c3.1313,3.1313 -7.45204,16.80816 -8,19c-1.91276,7.65103 -2.76933,18.07731 -5,27c-0.12755,0.5102 -0.20305,8.94924 0,9c0.99696,0.24924 15.47401,1.05199 16,0c1.82606,-3.65212 8.2534,-53.8356 10,-55c13.16728,-8.77819 47.53183,13.23408 54,10c4.09997,-2.04999 1,-28.50153 1,-33c0,-4.25887 2.4582,-19.56967 1,-22c-2.64701,-4.41168 -68.05237,-12.61047 -80,-15c-6.23337,-1.24667 -14.6307,-3 -21,-3c-0.76386,0 -9.57862,-0.42138 -9,-1c2.71086,-2.71086 14.0637,1.3121 18,0c6.79488,-2.26496 14.11617,-4 22,-4c8.28168,0 20.50737,1 27,1" fill="none" stroke="black" stroke-linecap="round" stroke-width="5"/>
	<path d="M189,61c0,17.66667 0,35.33333 0,53" fill="none" stroke="black" stroke-linecap="round" stroke-width="5"/>
	<path d="M249,181c-1.37437,0 -1,2.62563 -1,4c0,13 0,26 0,39c0,4.33333 0,8.66667 0,13c0,5.66667 0.56385,11.36146 0,17c-0.10489,1.04886 -0.25464,3.74536 -1,3c-2.30519,-2.30519 -2.19862,-18.86759 1,-21c1.73227,-1.15485 6.92643,-2.17057 9,-3c1.88257,-0.75303 8.02759,-1 6,-1c-40.21714,0 -27,-20.97282 -27,-48" fill="none" stroke="black" stroke-linecap="round" stroke-width="5"/>
</svg>
