<?xml version="1.0" ?>
<svg baseProfile="full" height="300" version="1.1" viewBox="[0, 0, 300, 300]" width="300" xmlns="http://www.w3.org/2000/svg" xmlns:ev="http://www.w3.org/2001/xml-events" xmlns:xlink="http://www.w3.org/1999/xlink">
	<defs/>
	<path d="M64,29c10.6451,-21.29021 43.83551,6 60,6c11.12266,0 34.45076,4.72954 44,-1c28.42804,-17.05682 93.56803,-44.7041 71,23c-2.24841,6.74524 4.05348,31.94652 -1,37c-4.79151,4.79151 -37.25666,-3.76283 -42,-4c-20.18649,-1.00932 -105.23377,4.17749 -116,-3c-11.64814,-7.76542 -16.59139,-56.7043 -4,-63c4.17399,-2.087 0.57883,9.36937 0,14c-1.32049,10.5639 -2.1529,20.41121 -3,31c-2.0899,26.12378 -11,53.44013 -11,79" fill="none" stroke="black" stroke-linecap="round" stroke-width="5"/>
	<path d="M63,144c7.07588,-7.07588 5.22029,59.54205 6,65c0.13332,0.93325 0.38244,7 2,7" fill="none" stroke="black" stroke-linecap="round" stroke-width="5"/>
	<path d="M147,94c0,34.33791 -5.85723,68.71567 -8,103c-0.78872,12.61954 -1,5.71979 -1,-1" fill="none" stroke="black" stroke-linecap="round" stroke-width="5"/>
	<path d="M193,96c-2.83754,2.83754 -13,87.20704 -13,99" fill="none" stroke="black" stroke-linecap="round" stroke-width="5"/>
	<path d="M240,102c0,30.4138 -1.06789,60.7015 -4,91c-0.18805,1.94319 -4,37.13465 -4,29" fill="none" stroke="black" stroke-linecap="round" stroke-width="5"/>
	<path d="M42,195c53.66667,0 107.33333,0 161,0c20.66667,0 41.33333,0 62,0c5.0111,0 15,-4.0111 15,1c0,1.33333 -2.73509,-0.42164 -4,0c-3.48841,1.1628 -5.82949,27.97696 -6,29c-2.61693,15.70159 -4.42911,31.29108 -6,47c-0.23453,2.34533 -1,7 -1,7c0,0 -5.63679,-5.22989 -9,-7c-23.10316,-12.15956 -49.59885,-17.64552 -75,-22c-17.77287,-3.04678 -36.52189,-4.08698 -54,-7c-14.69459,-2.4491 -59.09932,7.70204 -66,-13c-3.91333,-11.73999 -2,-23.30987 -2,-35" fill="none" stroke="black" stroke-linecap="round" stroke-width="5"/>
	<path d="M57,195c0,38.17796 4,76.48218 4,115" fill="none" stroke="black" stroke-linecap="round" stroke-width="5"/>
	<path d="M103,241c0,9.31549 -6.94397,108.85058 5,77" fill="none" stroke="black" stroke-linecap="round" stroke-width="5"/>
	<path d="M229,252c0,7.32389 -3.80917,61.21376 3,51" fill="none" stroke="black" stroke-linecap="round" stroke-width="5"/>
	<path d="M272,221c18.55762,18.55762 30,68.20745 30,95" fill="none" stroke="black" stroke-linecap="round" stroke-width="5"/>
	<path d="M223,274c27.77057,0 65.24722,10.87639 91,-2" fill="none" stroke="black" stroke-linecap="round" stroke-width="5"/>
	<path d="M54,247c8.4891,3.53712 26.89596,20 36,20" fill="none" stroke="black" stroke-linecap="round" stroke-width="5"/>
</svg>
