<?xml version="1.0" ?>
<svg baseProfile="full" height="300" version="1.1" viewBox="[0, 0, 300, 300]" width="300" xmlns="http://www.w3.org/2000/svg" xmlns:ev="http://www.w3.org/2001/xml-events" xmlns:xlink="http://www.w3.org/1999/xlink">
	<defs/>
	<path d="M75,24c-2.7426,-2.7426 22.61172,-2 25,-2c13.56214,0 26.58934,-0.78085 40,-2c2.34734,-0.21339 4.66365,-0.68849 7,-1c2.66384,-0.35518 5.31722,-0.84219 8,-1c2.99482,-0.17617 6,0 9,0c22.32766,0 47.1665,-2.32139 69,-7c2.3047,-0.49386 5.94591,-3.10819 7,-1c6.79206,13.58413 5.84143,39.93856 7,55c0.33235,4.32057 4.27437,13.7124 0,13c-21.22655,-3.53776 -42.81095,-11.61048 -65,-9c-24.97016,2.93767 -68.22371,10.79322 -92,4c-13.08731,-3.73923 -12.97959,-17.88775 -15,-29c-0.81934,-4.50639 -2,-7.47614 -2,-12c0,-0.66667 -0.21082,-2.63246 0,-2c13.93959,41.81878 14,85.46792 14,129c0,11.6857 -0.15377,23.46107 -2,35c-0.69268,4.32925 -2,17.38432 -2,13" fill="none" stroke="black" stroke-linecap="round" stroke-width="5"/>
	<path d="M133,73c15.27089,30.54178 1,67.206 1,99c0,2.4267 1.23261,-4.69783 2,-7" fill="none" stroke="black" stroke-linecap="round" stroke-width="5"/>
	<path d="M186,72c0,29.66667 0,59.33333 0,89c0,12.33333 0,24.66667 0,37c0,3 -0.94868,11.84605 0,9c1.1005,-3.30151 2,-6.66667 3,-10" fill="none" stroke="black" stroke-linecap="round" stroke-width="5"/>
	<path d="M245,64c3.43538,3.43538 0.83699,75.99045 1,83c0.26452,11.37429 1.58881,22.71049 3,34c0.26234,2.09874 3,1.50823 3,-1" fill="none" stroke="black" stroke-linecap="round" stroke-width="5"/>
	<path d="M254,187c3.34996,0 -6.65004,-1 -10,-1c-16.33333,0 -32.66667,0 -49,0c-40.47619,0 -84.24902,-4.91699 -123,8c-1.14018,0.38006 -2,1.79815 -2,3c0,2 0,4 0,6c0,19.15504 2,37.7993 2,57c0,2.66667 -2.52982,7.15673 0,8c5.6921,1.89737 12.00977,-0.3423 18,0c43.08072,2.46176 85.79698,3 129,3c5.377,0 34.90919,3.12108 38,-1c13.57993,-18.10657 17,-45.36153 17,-67c0,-4.15953 -0.63549,-34.36451 -1,-34" fill="none" stroke="black" stroke-linecap="round" stroke-width="5"/>
	<path d="M67,214c0,27.6363 -6.5925,53.00408 -11,80c-0.02865,0.1755 -6,65.36983 -6,42" fill="none" stroke="black" stroke-linecap="round" stroke-width="5"/>
	<path d="M107,254c8.9712,8.9712 -11.07854,107.15708 12,61" fill="none" stroke="black" stroke-linecap="round" stroke-width="5"/>
	<path d="M246,246c0,19.33333 0,38.66667 0,58c0,9.00004 1,8.22163 1,0" fill="none" stroke="black" stroke-linecap="round" stroke-width="5"/>
	<path d="M267,216c5.35793,0 8.60412,19.50447 9,21c8.25982,31.20375 12,61.80163 12,94" fill="none" stroke="black" stroke-linecap="round" stroke-width="5"/>
</svg>
