<?xml version="1.0" ?>
<svg baseProfile="full" height="300" version="1.1" viewBox="[0, 0, 300, 300]" width="300" xmlns="http://www.w3.org/2000/svg" xmlns:ev="http://www.w3.org/2001/xml-events" xmlns:xlink="http://www.w3.org/1999/xlink">
	<defs/>
	<path d="M33,54c0,9.15676 5.31111,60.65556 16,66c7.34137,3.67068 46.95762,6.27682 49,9c8.89427,11.85903 -2.41748,31.74757 2,45c3.6085,10.82551 14.49823,25.5053 10,39c-0.95452,2.86356 -6.07166,0.26792 -9,1c-14.67684,3.66921 -29.6269,4 -46,4c-0.33333,0 -0.85093,0.29814 -1,0c-1.09601,-2.19202 0,-7.48956 0,-10c0,-2.53081 -0.76442,-7.23558 1,-9c2.3534,-2.3534 11.84466,-1.94822 15,-3c8.49747,-2.83249 18.3981,1.15048 27,-1c10.38665,-2.59666 28.22499,-8.1125 38,-13c2.8572,-1.4286 12.75827,-7.08058 16,-6c4.25272,1.41757 0.60651,7.80325 3,9c0.23538,0.11769 13.53185,3.46815 13,4c-1.94365,1.94365 -2,-5.25126 -2,-8c0,-5.84306 0.3288,-6.24188 -1,-12c-3.11893,-13.51535 0.78869,-35.42262 -5,-47c-0.59628,-1.19257 1.19257,-3.40372 0,-4c-3.77803,-1.88901 -13.52428,1.84143 -17,3c-12.06135,4.02045 -28.44729,1 -41,1c-1,0 -2.05132,-0.31623 -3,0c-1.81623,0.60541 -1.85585,0.85585 -3,2" fill="none" stroke="black" stroke-linecap="round" stroke-width="5"/>
	<path d="M159,114c-13.05743,-4.35248 -24.51744,-7.37936 -39,-11c-10.0784,-2.5196 -22.35645,2.21452 -32,-1c-1.64403,-0.54801 -7.08473,1.28819 -8,-1c-0.89641,-2.24104 0.77067,-10.22933 -1,-12c-1.17851,-1.17851 -3.35601,-0.274 -5,0c-6.98048,1.16341 -42.72645,19 -31,19" fill="none" stroke="black" stroke-linecap="round" stroke-width="5"/>
	<path d="M77,88c0,-10.18841 1.07611,-31.92389 -6,-39c-3.06413,-3.06413 -8.66667,0 -13,0c-5.02638,0 -10.28896,-2.94221 -15,-2c-12.09466,2.41893 -15.87717,21.06141 -4,27" fill="none" stroke="black" stroke-linecap="round" stroke-width="5"/>
	<path d="M39,87c15.62986,-3.90747 27.83121,-8 45,-8" fill="none" stroke="black" stroke-linecap="round" stroke-width="5"/>
	<path d="M37,90c7,1 13.95477,2.39612 21,3c16.13117,1.38267 22.85946,-5 32,-5c1.68923,0 1,4.93738 1,5c0,11.34235 0.51197,26.5359 4,37c0.91307,2.73922 3,0.09352 3,-2" fill="none" stroke="black" stroke-linecap="round" stroke-width="5"/>
	<path d="M77,78c16.07622,16.07622 65.54555,-1.84084 80,9c10.41161,7.80871 8,31.08491 8,43" fill="none" stroke="black" stroke-linecap="round" stroke-width="5"/>
</svg>
