<?xml version="1.0" ?>
<svg baseProfile="full" height="300" version="1.1" viewBox="[0, 0, 300, 300]" width="300" xmlns="http://www.w3.org/2000/svg" xmlns:ev="http://www.w3.org/2001/xml-events" xmlns:xlink="http://www.w3.org/1999/xlink">
	<defs/>
	<path d="M30,105c15.78061,0 40.71231,-5.14384 55,2c4.80127,2.40063 8.75397,61.62302 -6,69c-0.66667,0.33333 -0.66667,1.33333 -1,2c-2.60557,5.21114 4.0133,25.9867 1,29c-4.9825,4.9825 -33.80051,-1.80051 -38,-6c-1.48207,-1.48207 -1.36105,-6.40262 -2,-8c-8.21767,-20.54417 64.28388,-8 76,-8c1.00261,0 7.76541,0.46918 8,0c2.94604,-5.89207 1,-89.29393 1,-101c0,-0.32646 0.21478,-4.78522 0,-5c-0.70711,-0.70711 -2,0 -3,0c-17.8929,0 -33.17729,4 -52,4" fill="none" stroke="black" stroke-linecap="round" stroke-width="5"/>
	<path d="M90,144c16.16576,0 36.87274,-3.93637 51,-11" fill="none" stroke="black" stroke-linecap="round" stroke-width="5"/>
	<path d="M89,147c-11.83741,0 -42.29215,13.85392 -54,8c-10.93967,-5.46984 -17.38832,-84.80584 -3,-92c5.80666,-2.90333 14.21559,-3.32156 21,-4c6.03908,-0.60391 18.48712,-9.75644 24,-7c1.69538,0.84769 1.89269,58.94634 8,62c11.32803,5.66402 30.03997,6.34666 41,10c6.35705,2.11902 9,14.41982 9,12" fill="none" stroke="black" stroke-linecap="round" stroke-width="5"/>
</svg>
