<?xml version="1.0" ?>
<svg baseProfile="full" height="300" version="1.1" viewBox="[0, 0, 300, 300]" width="300" xmlns="http://www.w3.org/2000/svg" xmlns:ev="http://www.w3.org/2001/xml-events" xmlns:xlink="http://www.w3.org/1999/xlink">
	<defs/>
	<path d="M128,145c-3.36822,3.36822 -16.95513,1.57422 -21,2c-11.80953,1.24311 -20.71152,9.57051 -31,13c-1.61245,0.53748 -0.58777,3.35107 -1,5c-2.43487,9.7395 16.03878,6.51939 21,9c0.51036,0.25518 7.46334,12.12191 16,17c2.73033,1.56019 5.38348,3.25566 8,5c8.75537,5.83692 10.60613,17.40409 19,23c5.92772,3.95182 12.7802,4.7802 17,9c3.35864,3.35864 46.78831,-7.94708 55,-10c9.03278,-2.2582 27.17144,-5.34287 32,-15c2.83127,-5.66254 1,-16.88767 1,-23c0,-27.94539 -4.90686,-30.97516 -35,-39c-9.05221,-2.41392 -18.6659,-4 -28,-4c-4.66667,0 -9.33333,0 -14,0c-1,0 -4,0 -3,0c6.63299,0 3.60684,-11 -2,-11c-13.04557,0 -53,4.07042 -53,20" fill="none" stroke="black" stroke-linecap="round" stroke-width="5"/>
	<path d="M83,166c0,9.99705 -35.41179,59 -41,59" fill="none" stroke="black" stroke-linecap="round" stroke-width="5"/>
	<path d="M145,224c-10.41326,10.41326 -28.3596,10.76747 -37,22c-7.97576,10.36849 -4.5889,35.39723 -19,39" fill="none" stroke="black" stroke-linecap="round" stroke-width="5"/>
	<path d="M55,207c-3.14466,0 5.04923,3.91287 8,5c5.75041,2.11857 12.66667,2.66667 17,7c10.40909,10.40909 18.76368,14.68491 28,27c1.56205,2.08273 3.39658,5 6,5" fill="none" stroke="black" stroke-linecap="round" stroke-width="5"/>
	<path d="M92,227c12.46544,0 24.68535,4.75924 37,3c32.8713,-4.6959 68.80487,-11 102,-11" fill="none" stroke="black" stroke-linecap="round" stroke-width="5"/>
	<path d="M239,215c0,-0.38597 0.42008,6.42008 3,9c5.89651,5.89651 17.37289,23 26,23" fill="none" stroke="black" stroke-linecap="round" stroke-width="5"/>
	<path d="M107,134c0,-7.10835 4.2742,-14.41932 2,-22c-4.69385,-15.64615 -11,-36.59856 -11,-53" fill="none" stroke="black" stroke-linecap="round" stroke-width="5"/>
	<path d="M109,59c4.51712,20.32703 3.96412,40.82059 8,61c0.81562,4.07808 4,5.13654 4,10" fill="none" stroke="black" stroke-linecap="round" stroke-width="5"/>
	<path d="M131,66c0,18.88787 1,38.00908 1,57" fill="none" stroke="black" stroke-linecap="round" stroke-width="5"/>
	<path d="M136,67c1.87328,6.55648 3.92556,13.28472 5,20c0.49465,3.09158 4,43.86216 4,26" fill="none" stroke="black" stroke-linecap="round" stroke-width="5"/>
	<path d="M136,27c-10.68659,0 -30.59431,-0.70284 -40,4c-2.75472,1.37736 -7.93011,11.27956 -7,15c0.11941,0.47763 2.60483,3.39517 2,4c-4.09164,4.09164 -16.49099,-3.25451 -21,-1c-2.25327,1.12663 -3.64,10.944 -1,12c13.40868,5.36347 102.42916,3.38056 115,-5c2.52597,-1.68398 -6.66106,-2 -7,-2c-1.49927,0 -19.85028,1.14972 -20,1c-4.87939,-4.87939 3.80533,-21.09734 -6,-26c-14.02704,-7.01352 -35.11317,-4.7067 -50,-2" fill="none" stroke="black" stroke-linecap="round" stroke-width="5"/>
</svg>
