<?xml version="1.0" ?>
<svg baseProfile="full" height="300" version="1.1" viewBox="[0, 0, 300, 300]" width="300" xmlns="http://www.w3.org/2000/svg" xmlns:ev="http://www.w3.org/2001/xml-events" xmlns:xlink="http://www.w3.org/1999/xlink">
	<defs/>
	<path d="M27,218c0,-7.42585 -2.09302,-14.90698 4,-21c4.54569,-4.54569 11.55886,-3.28997 16,-9c20.28192,-26.07676 13.31887,-43.42028 59,-32c9.67687,2.41922 26.66726,2.44484 35,8c13.2185,8.81233 15,44.58548 15,60" fill="none" stroke="black" stroke-linecap="round" stroke-width="5"/>
	<path d="M46,182c11.53497,0 22.51708,3.72412 34,5c22.06496,2.45166 44.73317,-0.18098 67,3c17.01986,2.43141 39.06644,18.93356 55,3c0.43547,-0.43547 -9.35651,-21.857 -10,-22c-2.92856,-0.65079 -6.0131,-0.28002 -9,0c-33.29815,3.1217 -64.01616,8 -97,8c-8.66667,0 -17.33333,0 -26,0c-1.33333,0 -3.67662,1.29352 -4,0c-4.30976,-17.23905 5.98265,-66.32177 22,-77c13.59729,-9.06486 21.2652,-8.68412 37,-8c14.51022,0.63088 49.43965,-6.80176 54,16c2.53974,12.69872 0,29.15954 0,42c0,4.45096 2,7.84202 2,13c0,2.66667 0,10.66667 0,8c0,-1 0.24254,-2.02986 0,-3c-2.21999,-8.87995 -7.56113,-16.46395 -10,-25c-0.18725,-0.65538 -0.05961,-8.88245 -1,-9c-7.94511,-0.99314 -16.0633,0.05823 -24,-1c-3.24612,-0.43282 -59.41195,-7.58805 -63,-4c-1.98094,1.98094 -4.62534,4 -8,4" fill="none" stroke="black" stroke-linecap="round" stroke-width="5"/>
	<path d="M169,148c3.99415,-0.79883 28.72101,-4.55797 30,-2c2.52879,5.05759 -1.80411,13.58766 0,19c3.41068,10.23205 6.46264,18.85057 9,29c2.31079,9.24317 2,18.40075 2,28c0,3 0,6 0,9c0,1 0,4 0,3c0,-13.33309 -3.36192,-24.89538 -5,-38c-4.24196,-33.93569 5.44833,-46 -43,-46" fill="none" stroke="black" stroke-linecap="round" stroke-width="5"/>
	<path d="M67,128c-2.57833,0 -9,4.05487 -9,5" fill="none" stroke="black" stroke-linecap="round" stroke-width="5"/>
	<path d="M57,164c-22.03367,0 -21.38033,36.141 -26,50c-0.41741,1.25223 -0.81525,7 -2,7" fill="none" stroke="black" stroke-linecap="round" stroke-width="5"/>
</svg>
