<?xml version="1.0" ?>
<svg baseProfile="full" height="300" version="1.1" viewBox="[0, 0, 300, 300]" width="300" xmlns="http://www.w3.org/2000/svg" xmlns:ev="http://www.w3.org/2001/xml-events" xmlns:xlink="http://www.w3.org/1999/xlink">
	<defs/>
	<path d="M105,128c-6.89345,0 -38.08987,11.8652 -30,24c5.33422,8.00133 24.0451,0.56765 27,5c4.74389,7.11583 -1.40552,14.06299 9,21c16.65828,11.10552 77.71292,7.57177 92,4c4.6698,-1.16745 44.31151,-10.24606 47,-21c12.43018,-49.72072 -36.82285,-20.82285 -49,-33c-1.97878,-1.97878 8.28487,-8.65816 3,-15c-11.88536,-14.26243 -42.10852,-19.98191 -60,-17c-8.63159,1.4386 -49.92719,31.29123 -49,35" fill="none" stroke="black" stroke-linecap="round" stroke-width="5"/>
	<path d="M86,151c-7.95688,19.8922 -17.47418,32.29891 -30,49c-1.28497,1.7133 -10.70088,20 -10,20" fill="none" stroke="black" stroke-linecap="round" stroke-width="5"/>
	<path d="M48,176c1.28524,3.85573 2.16647,7.33295 4,11" fill="none" stroke="black" stroke-linecap="round" stroke-width="5"/>
	<path d="M69,188c12.38824,0 28.40457,-2.27065 40,3c11.38907,5.17685 21.78427,12.92809 34,17" fill="none" stroke="black" stroke-linecap="round" stroke-width="5"/>
	<path d="M149,187c-8.55343,8.55343 -31,27.81431 -31,41" fill="none" stroke="black" stroke-linecap="round" stroke-width="5"/>
	<path d="M109,189c16.14154,0 41.26964,10.24345 57,5c9.44301,-3.14767 23.73711,-6 33,-6" fill="none" stroke="black" stroke-linecap="round" stroke-width="5"/>
	<path d="M218,182c13.18319,13.18319 43.2309,24 62,24" fill="none" stroke="black" stroke-linecap="round" stroke-width="5"/>
	<path d="M79,51c0,7.85817 2.44072,52 9,52" fill="none" stroke="black" stroke-linecap="round" stroke-width="5"/>
	<path d="M100,64c3.90799,3.90799 8,24.55885 8,31" fill="none" stroke="black" stroke-linecap="round" stroke-width="5"/>
	<path d="M117,55c6.10191,6.10191 11,25.87485 11,34" fill="none" stroke="black" stroke-linecap="round" stroke-width="5"/>
	<path d="M141,56c0,21.26128 12.71359,27.35679 30,36" fill="none" stroke="black" stroke-linecap="round" stroke-width="5"/>
	<path d="M163,39c-15.25443,2.1792 -30.89566,-0.05968 -46,2c-12.0252,1.6398 -47.20041,19.99794 -51,1c-2.2516,-11.25799 18.44138,-3.22069 24,-6c11.46165,-5.73083 3.65915,-17.33183 17,-20c11.82798,-2.3656 22.8058,4.60193 33,8c11.00825,3.66942 22.29949,-9.40102 30,6c1.39561,2.79123 2.00965,4.49518 -1,6c-3.74979,1.8749 -7.37493,1.18746 -11,3c-6.46111,3.23055 -7.93082,4.74135 -18,6" fill="none" stroke="black" stroke-linecap="round" stroke-width="5"/>
</svg>
