<?xml version="1.0" ?>
<svg baseProfile="full" height="300" version="1.1" viewBox="[0, 0, 300, 300]" width="300" xmlns="http://www.w3.org/2000/svg" xmlns:ev="http://www.w3.org/2001/xml-events" xmlns:xlink="http://www.w3.org/1999/xlink">
	<defs/>
	<path d="M46,29c0,5.34142 62.81131,10 79,10c6.90155,0 13.34515,-4.53097 21,-3c1.09756,0.21951 7.32685,5.33658 4,7c-10.68199,5.341 -85.84674,8.76884 -96,2c-6.35985,-4.2399 -5.00884,-10.01768 -8,-16" fill="none" stroke="black" stroke-linecap="round" stroke-width="5"/>
	<path d="M74,52c0,20.07627 7,41.17563 7,61" fill="none" stroke="black" stroke-linecap="round" stroke-width="5"/>
	<path d="M93,53c0,20 0,40 0,60c0,1.7507 -0.99663,7 1,7" fill="none" stroke="black" stroke-linecap="round" stroke-width="5"/>
	<path d="M114,53c1.84398,-1.84398 2.58822,-1.29424 3,2c2.23356,17.86851 3,35.71831 3,54" fill="none" stroke="black" stroke-linecap="round" stroke-width="5"/>
	<path d="M145,50c-8.48953,8.48953 1,54.69908 1,70" fill="none" stroke="black" stroke-linecap="round" stroke-width="5"/>
	<path d="M153,114c-25.9949,0 -86.85369,-11.09754 -111,5c-2.2188,1.4792 -0.76626,5.4458 0,8c2.28456,7.61521 23.10872,23 31,23c16.12653,0 28.27834,-2.14152 44,-5c22.52531,-4.09551 48,3.16876 48,-25c0,-11.3941 -20.62819,-14.79689 -29,-17c-9.69757,-2.55199 -19.14788,-6.13149 -29,-8c-9.54805,-1.81084 -19.33333,-2 -29,-3" fill="none" stroke="black" stroke-linecap="round" stroke-width="5"/>
	<path d="M45,137c0,-1.60956 0.64079,4.56316 1,6c0.93192,3.72766 -0.12069,9.48277 -1,13c-3.81891,15.27563 -4,35.45719 -4,51c0,2.20456 -0.08778,4 3,4c24.0313,0 5,-62.36057 5,-73" fill="none" stroke="black" stroke-linecap="round" stroke-width="5"/>
	<path d="M76,149c0,22.11548 0.21759,51.24689 8,72c1.97356,5.26281 19.1786,18.28559 22,7c9.45373,-37.81493 -10.29733,-30.59466 -20,-50c-4.20238,-8.40477 0,-27.9883 0,-38" fill="none" stroke="black" stroke-linecap="round" stroke-width="5"/>
	<path d="M154,143c-1.48897,8.9338 -1,17.95953 -1,27c0,5.33333 0,10.66667 0,16c0,33.22749 17.81798,30.0011 24,-4c0.29814,-1.63978 0.65653,-3.46809 0,-5c-2.05811,-4.80225 -16.80588,-34 -20,-34" fill="none" stroke="black" stroke-linecap="round" stroke-width="5"/>
	<path d="M121,149c3.40078,0 -1.16729,16.08177 0,19c0.98015,2.45038 4.47073,24.52927 14,15c8.54524,-8.54524 -2,-28.75436 -2,-37" fill="none" stroke="black" stroke-linecap="round" stroke-width="5"/>
	<path d="M55,34c0,4.16432 6.87591,2 9,2c20.32132,0 40.28478,0.41541 60,4c8.95788,1.62871 17.81282,3 27,3c0.33333,0 1.33333,0 1,0c-20.70294,0 -76.45574,-16.72568 -89,0" fill="none" stroke="black" stroke-linecap="round" stroke-width="5"/>
	<path d="M50,110c18.51693,37.03385 50.36281,26 88,26c11.55499,0 22.491,-3 34,-3c4.34613,0 14.94365,4.8873 13,1c-1.79953,-3.59905 -8.82687,-3.88458 -12,-6c-3.06768,-2.04512 -0.44744,-14.86186 -5,-16c-17.99673,-4.49918 -40.62153,-3 -59,-3c-16.60092,0 -37.24912,9 -51,9" fill="none" stroke="black" stroke-linecap="round" stroke-width="5"/>
</svg>
