<?xml version="1.0" ?>
<svg baseProfile="full" height="300" version="1.1" viewBox="[0, 0, 300, 300]" width="300" xmlns="http://www.w3.org/2000/svg" xmlns:ev="http://www.w3.org/2001/xml-events" xmlns:xlink="http://www.w3.org/1999/xlink">
	<defs/>
	<path d="M113,161c15.58143,9.34886 25.60197,42.24079 40,48c8.17159,3.26864 21.08583,-10.90557 27,-15c11.48258,-7.94948 23.28282,-24.64141 34,-30c0.71829,-0.35914 3.45041,-2.09919 3,-3c-4.91709,-9.83418 -32.53618,-58.25299 -44,-52c-11.19058,6.10395 -18.48884,19.64219 -29,27c-10.48651,7.34055 -23.81224,12.81224 -33,22" fill="none" stroke="black" stroke-linecap="round" stroke-width="5"/>
	<path d="M159,207c-1.58668,-1.58668 -2.53016,-1 -5,-1c-26.30182,0 13.17803,54 -15,54c-2.35195,0 -10.59053,1.20474 -13,0c-1.60555,-0.80277 -1.19723,-3.39445 -2,-5c-11.07453,-22.14906 12.24428,-35.26715 5,-57c-2.12627,-6.3788 -9.70834,-10.12503 -12,-17c-0.89506,-2.68519 -4.20159,-9.9328 -7,-9c-19.21917,6.40639 -10.05186,101.56888 -46,80c-36.23737,-21.74242 40.70049,-74.89852 26,-119c-2.28606,-6.85817 -9.78345,-12.56689 -13,-19c-9.17465,-18.34929 -14.13899,-35.4633 -20,-55c-0.99936,-3.33119 -5.56835,-26.71583 -1,-29c23.90186,-11.95093 51.76377,4.61712 72,16c10.92072,6.1429 25.05768,10.02884 35,15c9.59078,4.79539 6.41968,21.98443 11,30c8.99316,15.73802 27.28413,24.56827 35,40c4.28451,8.56902 6.09966,19.8992 10,29c8.96138,20.90989 21.79568,46.56978 25,69c0.52073,3.64509 1.30594,29.7677 -11,19c-25.47705,-22.29242 -25.31643,-67.31643 -29,-71" fill="none" stroke="black" stroke-linecap="round" stroke-width="5"/>
	<path d="M194,186c-5.10895,10.21789 1.74337,25.0265 -1,36c-0.93807,3.75229 -3.82096,5.88064 -7,8c-13.82692,9.21795 -10,-25.76386 -10,-35" fill="none" stroke="black" stroke-linecap="round" stroke-width="5"/>
	<path d="M61,70c0,-5.16218 7.74232,11.65019 8,15c0.74422,9.67489 6,22.20853 6,31c0,0.33333 -0.2357,0.7643 0,1c0.87113,0.87113 10.43635,0.10248 11,0c15.0706,-2.74011 27.76302,-12.44076 42,-16c3.01154,-0.75289 31,-6.52718 31,-8c0,-9.73235 -6.77564,-14.39616 -11,-22c-4.42511,-7.9652 -6.42053,-16.42053 -13,-23c-5.59753,-5.59753 -71.49802,14.49802 -79,22" fill="none" stroke="black" stroke-linecap="round" stroke-width="5"/>
</svg>
