<?xml version="1.0" ?>
<svg baseProfile="full" height="300" version="1.1" viewBox="[0, 0, 300, 300]" width="300" xmlns="http://www.w3.org/2000/svg" xmlns:ev="http://www.w3.org/2001/xml-events" xmlns:xlink="http://www.w3.org/1999/xlink">
	<defs/>
	<path d="M150,137c-22.81145,0 -92.24034,10.51932 -73,49c21.26299,42.52599 117.97346,24.81419 111,-24c-3.4426,-24.09822 -33.2104,-17.2104 -46,-30" fill="none" stroke="black" stroke-linecap="round" stroke-width="5"/>
	<path d="M77,173c-8.01388,0 -5.32086,15.16401 -7,23c-3.03418,14.1595 -0.68085,30.80142 -8,43c-5.43617,9.06029 0.89936,-2.32388 3,-6" fill="none" stroke="black" stroke-linecap="round" stroke-width="5"/>
	<path d="M101,198c0,9.91968 -9.22931,77.22931 1,67" fill="none" stroke="black" stroke-linecap="round" stroke-width="5"/>
	<path d="M169,198c-3.7849,0 -2,2.48577 -2,7c0,4.55877 0,75.37855 0,58" fill="none" stroke="black" stroke-linecap="round" stroke-width="5"/>
	<path d="M189,168c0,18.54079 -0.08822,35.60302 4,54c1.85909,8.3659 3.64565,16.75977 6,25c0.33017,1.15561 3,3.66667 2,3c-1.96116,-1.30744 -3.33333,-3.33333 -5,-5" fill="none" stroke="black" stroke-linecap="round" stroke-width="5"/>
	<path d="M96,128c-9.64599,-24.11498 -8,-54.42401 -8,-80" fill="none" stroke="black" stroke-linecap="round" stroke-width="5"/>
	<path d="M113,142c0,-25.63201 -3,-51.22354 -3,-77" fill="none" stroke="black" stroke-linecap="round" stroke-width="5"/>
	<path d="M135,132c0,-26.29547 -9,-52.6087 -9,-78" fill="none" stroke="black" stroke-linecap="round" stroke-width="5"/>
	<path d="M154,132c0,-23.88852 1.49152,-67.01697 -9,-88" fill="none" stroke="black" stroke-linecap="round" stroke-width="5"/>
	<path d="M171,143c0,-34.97728 -1,-70.13381 -1,-105" fill="none" stroke="black" stroke-linecap="round" stroke-width="5"/>
	<path d="M75,158c0,-32.79509 -16,-68.68044 -16,-102" fill="none" stroke="black" stroke-linecap="round" stroke-width="5"/>
	<path d="M41,88c0,-45.58702 101.52054,-58.39178 135,-45c16.74201,6.6968 8.96385,28.96385 15,35c4.47834,4.47834 0,-12.66667 0,-19c0,-4.32531 4.38149,-33.61851 0,-38c-4.36748,-4.36748 -35.51869,0 -41,0c-34.99925,0 -86.23011,-4.14158 -114,19c-7.56366,6.30305 -14.16643,48 1,48" fill="none" stroke="black" stroke-linecap="round" stroke-width="5"/>
	<path d="M66,54c11.12813,0 19.17145,62.0574 20,72c0.72308,8.677 4,17.71123 4,26c0,0.66667 0,2.66667 0,2c0,-2 0,-4 0,-6" fill="none" stroke="black" stroke-linecap="round" stroke-width="5"/>
	<path d="M127,34c5.82511,34.95063 2,72.47366 2,108c0,19.64625 0,-31.38275 0,-34" fill="none" stroke="black" stroke-linecap="round" stroke-width="5"/>
	<path d="M157,40c0,29.32537 -2.6507,59.84228 0,89c0.46417,5.10589 5.09058,23.90942 5,24c-2.00906,2.00906 -6.45065,-0.9671 -8,-2" fill="none" stroke="black" stroke-linecap="round" stroke-width="5"/>
	<path d="M105,35c-2.30139,-2.30139 -3,38.80939 -3,42c0,31.71295 1,63.33785 1,95" fill="none" stroke="black" stroke-linecap="round" stroke-width="5"/>
</svg>
