<?xml version="1.0" ?>
<svg baseProfile="full" height="300" version="1.1" viewBox="[0, 0, 300, 300]" width="300" xmlns="http://www.w3.org/2000/svg" xmlns:ev="http://www.w3.org/2001/xml-events" xmlns:xlink="http://www.w3.org/1999/xlink">
	<defs/>
	<path d="M116,154c0,10.37637 10.67578,25.63085 15,35c0.39104,0.84725 12.97718,26.98859 15,28c4.14193,2.07096 8.23175,-4.30839 12,-7c18.60727,-13.2909 41.8442,-22.8442 57,-38c1,-1 5,1 6,0c1.75159,-1.75159 -15.09222,-22.2746 -17,-25c-1.27218,-1.81739 -5.6148,-8.56888 -8,-10c-8.01269,-4.80761 -13.63388,-24.21129 -22,-27c-7.458,-2.486 -17.63686,9.27294 -24,12c-9.57189,4.10224 -31.56989,7.56989 -38,14c-3.63926,3.63926 1,22.69257 1,29" fill="none" stroke="black" stroke-linecap="round" stroke-width="5"/>
	<path d="M145,212c2.70941,10.83765 -6.2479,71.56408 -31,53c-18.54501,-13.90875 35.24368,-69.37816 0,-87c-23.45999,-11.72999 -10.58288,71 -51,71c-4.57123,0 -12.8388,1.95151 -16,-2c-11.39801,-14.24751 13.65939,-60.43959 28,-70c14.51064,-9.67376 23.26227,-7.0491 28,-26c7.938,-31.752 -24.09312,-58.18623 -37,-84c-4.26532,-8.53065 -3.7769,-18.40508 -7,-27c-1.96385,-5.23693 -11.44466,-36.77767 -7,-39c30.83221,-15.4161 67.44735,21.36601 89,39c15.90028,13.00932 18.94582,23.83747 25,42c6.72464,20.17392 41.30809,28.68183 54,45c17.40937,22.38347 10,57.93407 10,84c0,14.05433 -3.19415,64.09707 -17,71c-8.1848,4.0924 -13.12467,-17.62333 -14,-22c-5.42905,-27.14523 -1,-52.2666 -1,-79" fill="none" stroke="black" stroke-linecap="round" stroke-width="5"/>
	<path d="M180,201c0,7.92822 4.76031,29 -5,29c-1.66667,0 -2.726,-2.35601 -3,-4c-1.0936,-6.56162 -5,-15.76075 -5,-21" fill="none" stroke="black" stroke-linecap="round" stroke-width="5"/>
	<path d="M64,51c5.06136,10.12273 5.035,49.02334 14,55c5.06548,3.37699 41.21005,-13.20414 48,-16c10.29363,-4.23855 24.81568,-8.81568 33,-17c1.85785,-1.85785 -4.60385,-8.2077 -5,-9c-3.00104,-6.00208 -22.38165,-42.84541 -31,-45c-8.01295,-2.00324 -27.53493,13.07888 -35,16c-22.62446,8.85305 -33.52253,0.95494 -21,26" fill="none" stroke="black" stroke-linecap="round" stroke-width="5"/>
</svg>
