<?xml version="1.0" ?>
<svg baseProfile="full" height="300" version="1.1" viewBox="[0, 0, 300, 300]" width="300" xmlns="http://www.w3.org/2000/svg" xmlns:ev="http://www.w3.org/2001/xml-events" xmlns:xlink="http://www.w3.org/1999/xlink">
	<defs/>
	<path d="M113,166c0,43.55926 12.24709,26 46,26c7.70994,0 31.63449,4.36551 37,-1c4.88859,-4.88859 -9.71994,-24.35191 -12,-28c-10.1869,-16.29905 -9.44391,-41.42244 -33,-32c-7.576,3.0304 -17.48386,-0.75807 -25,3c-4.70901,2.3545 -23.13388,-3.73225 -25,0c-1.91412,3.82825 7.21692,21.30151 8,26c0.51487,3.08919 -1.74131,16 2,16" fill="none" stroke="black" stroke-linecap="round" stroke-width="5"/>
	<path d="M97,134c3.30924,0 3,2.63745 3,6c0,17.40076 -4.49542,35.74313 -14,50c-4.98568,7.47853 -21.12873,13.46535 -30,16c-0.71668,0.20477 -2,0.25464 -2,1" fill="none" stroke="black" stroke-linecap="round" stroke-width="5"/>
	<path d="M114,223c0,-48.5155 8.05631,-57.88737 -17,-108c-5.49179,-10.98357 -10.20136,-17.60068 -21,-23c-2.38224,-1.19112 -10.81191,-2.62383 -12,-5c-0.40948,-0.81896 -4.50964,-1.49036 -4,-2c8.96384,-8.96384 20.3325,-11.16625 32,-17c0.84327,-0.42164 1.10557,-1.70186 2,-2c1.26491,-0.42164 2.67482,0.14724 4,0c2.98549,-0.33172 47.57699,-14.42301 50,-12c5.85123,5.85123 1.72739,16.18218 4,23c6.06766,18.20298 12.69304,42.54945 22,60c19.29136,36.17129 40,70.58486 40,109" fill="none" stroke="black" stroke-linecap="round" stroke-width="5"/>
	<path d="M110,128c0,-6.64959 30.31558,-10.81778 38,-12c3.311,-0.50939 6.65746,-0.77716 10,-1c2.32817,-0.15521 9.33333,0 7,0c-11.50173,0 -41.23099,6.76901 -50,-2c-0.90789,-0.90789 15.09183,-6.45481 17,-7c0.96152,-0.27472 4,0 3,0c-6.9726,0 -24.76048,-3.11976 -31,0c-0.42164,0.21082 -1.46225,1.09245 -1,1c7.67062,-1.53412 18.96978,-7 26,-7c0.33333,0 1.32998,-0.04714 1,0c-11.48375,1.64054 -22.43432,3 -34,3c-1.94365,0 3.2387,-2.17806 5,-3c3.53553,-1.64992 7.44814,-2.38552 11,-4c7.2396,-3.29073 12.81697,-7.36273 19,-12c2.62636,-1.96977 12.28295,-4 9,-4c-9.62551,0 -20.89241,5.81234 -30,9c-3.58721,1.25552 -7.19942,3 -11,3c-1.33333,0 -4.86772,1.01234 -4,0c6.25542,-7.29799 14.48844,-12.15768 22,-18c0.71462,-0.55582 11.17685,-6 8,-6" fill="none" stroke="black" stroke-linecap="round" stroke-width="5"/>
</svg>
