<?xml version="1.0" ?>
<svg baseProfile="full" height="300" version="1.1" viewBox="[0, 0, 300, 300]" width="300" xmlns="http://www.w3.org/2000/svg" xmlns:ev="http://www.w3.org/2001/xml-events" xmlns:xlink="http://www.w3.org/1999/xlink">
	<defs/>
	<path d="M133,143c0,1.05409 -1.96638,0.79328 -3,1c-16.83342,3.36668 -30.76297,18.03408 -45,28c-0.3609,0.25263 -3,1.51169 -3,2c0,7.55498 39.70975,38.13983 47,43c13.1839,8.78927 65.41469,-26.92279 80,-33c2.25386,-0.93911 19.02088,-13.96868 19,-14c-4.8367,-7.25505 -16.26628,-7.94971 -23,-13c-8.84993,-6.63745 -17.19475,-25.03895 -27,-27c-13.82385,-2.76477 -29.91667,1.82143 -42,7c-4.00585,1.71679 -17.81949,0.81949 -21,4" fill="none" stroke="black" stroke-linecap="round" stroke-width="5"/>
	<path d="M152,248c-11.85279,-11.85279 -20.8979,-29.34685 -30,-43c-2.86684,-4.30026 -13.28716,-7.46537 -18,-11c-25.82092,-19.36569 -42.84745,-40.96607 -52,-73c-2.71296,-9.49536 -6.567,-66.07475 4,-74c14.19832,-10.64874 40.47867,12.859 50,20c20.95244,15.71433 43.69942,27.77457 64,43c10.77959,8.08469 16.73271,27.73271 27,38c7.5685,7.5685 72.62387,55.56269 52,59" fill="none" stroke="black" stroke-linecap="round" stroke-width="5"/>
	<path d="M78,179c0,29.96116 -13.82001,56.46004 -23,84c-7.08909,21.26728 -1.58115,-4.25656 1,-12" fill="none" stroke="black" stroke-linecap="round" stroke-width="5"/>
	<path d="M57,133c0,-29.42539 39.38633,-42.69317 60,-53" fill="none" stroke="black" stroke-linecap="round" stroke-width="5"/>
</svg>
