<?xml version="1.0" ?>
<svg baseProfile="full" height="300" version="1.1" viewBox="[0, 0, 300, 300]" width="300" xmlns="http://www.w3.org/2000/svg" xmlns:ev="http://www.w3.org/2001/xml-events" xmlns:xlink="http://www.w3.org/1999/xlink">
	<defs/>
	<path d="M133,138c-8.22977,-4.11489 -31.35896,21.94869 -37,29c-1.62634,2.03293 -6.84089,4.15911 -5,6c6.51417,6.51417 64.10475,51 71,51c0.74536,0 1.61652,-0.36086 2,-1c7.0177,-11.69616 16.97946,-24.10018 26,-35c2.27405,-2.74782 38.33871,-36.32257 36,-41c-2.49889,-4.99778 -10.81196,-2.92479 -16,-5c-13.16659,-5.26663 -26.32054,-11.66027 -39,-18c-8.78139,-4.3907 -17.08801,-8.88677 -26,-13c-1.76476,-0.8145 -3.62563,-4.37437 -5,-3c-6.26573,6.26573 -4.89048,33 -20,33" fill="none" stroke="black" stroke-linecap="round" stroke-width="5"/>
	<path d="M159,222c-0.94281,0.94281 -0.32338,2.70648 0,4c4.92814,19.71257 9.25301,61 -19,61c-2.73335,0 -10.82219,1.45187 -13,0c-26.70919,-17.80613 32.74376,-52.50416 -13,-83c-1.76871,-1.17914 -12.38791,-9 -13,-9c-2,0 0,4 0,6c0,4.73416 -1.62941,13.25881 -4,18c-7.62537,15.25073 -24.41752,47.3165 -46,43c-28.64981,-5.72996 12.85088,-80.74559 9,-100c-4.76628,-23.83141 -56.72342,-75.70211 -40,-98c19.17305,-25.56407 102.18534,14.37068 112,34" fill="none" stroke="black" stroke-linecap="round" stroke-width="5"/>
	<path d="M192,187c0,7.54237 0.12937,14.14103 2,21c9.98341,36.60583 11,-29.75839 11,-39" fill="none" stroke="black" stroke-linecap="round" stroke-width="5"/>
	<path d="M216,165c10.3075,10.3075 14.99616,25.3931 22,38c2.40624,4.33124 5.44567,12.44567 9,16c0.33333,0.33333 0.66667,1.33333 1,1c5.65508,-5.65508 5,-14.81751 5,-22c0,-8.26952 2.04572,-19.81713 0,-28c-3.05262,-12.2105 -24.04105,-17.04105 -32,-25" fill="none" stroke="black" stroke-linecap="round" stroke-width="5"/>
	<path d="M59,141c5.3855,0 14.36003,-10.72472 19,-14c15.51847,-10.95421 35,-19.83286 35,-41" fill="none" stroke="black" stroke-linecap="round" stroke-width="5"/>
	<path d="M79,124c-13.09044,13.09044 6.91864,-11.00875 8,-12c2.43248,-2.22978 7,-10.29983 7,-7c0,5.14676 -15.45754,14.61438 -21,16c-1.29352,0.32338 -4,1.33333 -4,0c0,-10.10098 36.75602,-31.75602 44,-39c0.33333,-0.33333 -0.53775,-0.90755 -1,-1c-5.89188,-1.17838 -21.18429,9.14744 -26,13c-12.29803,9.83842 -29.24132,24.06033 -45,28c-0.32338,0.08085 0,-0.66667 0,-1c0,-6.11919 5.1028,-11.28234 9,-16c6.33333,-7.66667 11.60847,-16.34762 19,-23c4.41133,-3.97019 9.36568,-7.29254 14,-11c0.52058,-0.41646 2.35333,-0.56533 2,0c-8.48657,13.5785 -39.53924,38 -56,38c-2.4037,0 4.24276,-2.35991 6,-4c3.44623,-3.21648 6.57783,-6.75794 10,-10c5.64918,-5.35185 10.92348,-11.13878 17,-16c3.54032,-2.83226 15.05518,-5.97241 11,-8c-4.78908,-2.39454 -25.66972,4.33028 -28,2c-3.64761,-3.64761 27.26624,-21.5065 11,-15c-10.92546,4.37018 -23.93358,14.28906 -34,21" fill="none" stroke="black" stroke-linecap="round" stroke-width="5"/>
</svg>
