<?xml version="1.0" ?>
<svg baseProfile="full" height="300" version="1.1" viewBox="[0, 0, 300, 300]" width="300" xmlns="http://www.w3.org/2000/svg" xmlns:ev="http://www.w3.org/2001/xml-events" xmlns:xlink="http://www.w3.org/1999/xlink">
	<defs/>
	<path d="M95,158c4.51622,18.06489 13.16187,35.48562 19,53c0.44444,1.33333 1.22222,3 3,3c13.15432,0 48.38662,-20.18292 58,-24c19.95831,-7.92462 49.57974,-13.28987 69,-23c1.69778,-0.84889 -6.97346,-21.87395 -7,-22c-1.31138,-6.22906 -6.74755,-47.81066 -7,-48c-1.96862,-1.47646 -21.62774,6.97036 -30,9c-20.53617,4.97847 -40.05414,11.69276 -61,15c-7.05841,1.11449 -38.28725,2.64362 -45,6c-1.56476,0.78238 -1.30195,2.49023 -1,4c1.62131,8.10656 -0.63023,38.18488 7,42" fill="none" stroke="black" stroke-linecap="round" stroke-width="5"/>
	<path d="M134,240c-23.0434,-46.0868 -28.05179,-99.86652 -49,-147c-6.18701,-13.92077 -17.55656,-41 -36,-41" fill="none" stroke="black" stroke-linecap="round" stroke-width="5"/>
	<path d="M262,216c0,-19.71838 -9.64145,-39.62784 -15,-58c-5.30796,-18.19874 -8.74276,-36.12539 -14,-54c-3.30614,-11.24088 -12.26975,-20.02634 -19,-29c-40.13881,-53.51841 -77.58206,-58 -142,-58" fill="none" stroke="black" stroke-linecap="round" stroke-width="5"/>
	<path d="M71,17c0,5.29313 -15.23509,12.47019 -18,18c-7.05728,14.11455 10,21.49036 10,33" fill="none" stroke="black" stroke-linecap="round" stroke-width="5"/>
	<path d="M90,130c0,18.17909 -7.48922,44.72664 -15,61c-4.24972,9.20773 -9.9562,21.48905 -20,24c-2.25012,0.56253 -12.27951,1 -3,1" fill="none" stroke="black" stroke-linecap="round" stroke-width="5"/>
	<path d="M214,172c5.10542,5.10542 11.4079,33.78946 6,41c-3.12298,4.16398 -21,8.85693 -21,11" fill="none" stroke="black" stroke-linecap="round" stroke-width="5"/>
	<path d="M120,211c6.66332,0 8.50459,3.27064 10,10c3.88493,17.48218 -0.45294,29.67942 -10,44c-2.12682,3.19023 -5.31836,7.31836 -8,10c-1.50923,1.50923 -6.66667,5.33333 -5,4c2.6029,-2.08232 5.64298,-3.64298 8,-6" fill="none" stroke="black" stroke-linecap="round" stroke-width="5"/>
	<path d="M246,166c5.46143,5.46143 7.17415,16.98058 12,24c25.36562,36.89545 29.09939,40.90061 -3,73" fill="none" stroke="black" stroke-linecap="round" stroke-width="5"/>
</svg>
