<?xml version="1.0" ?>
<svg baseProfile="full" height="300" version="1.1" viewBox="[0, 0, 300, 300]" width="300" xmlns="http://www.w3.org/2000/svg" xmlns:ev="http://www.w3.org/2001/xml-events" xmlns:xlink="http://www.w3.org/1999/xlink">
	<defs/>
	<path d="M120,135c0,4.92771 -43.12688,32.12688 -49,38c-0.47017,0.47017 -4.99905,1.0019 -4,3c3.75281,7.50562 26.21123,18.10181 32,23c5.53262,4.68144 32.62528,38.12506 37,39c6.05298,1.2106 24.29217,-21.34099 25,-22c21.83178,-20.32614 75.46433,-65.16084 87,-94c1.60936,-4.0234 -8.75082,0.84984 -13,0c-10.83073,-2.16615 -22.15935,-5.90267 -33,-9c-10.66605,-3.04744 -31.44814,-19.20068 -43,-15c-19.23393,6.99416 -39.21016,16.88135 -57,28c-2.09369,1.30855 -3.51375,6 -6,6" fill="none" stroke="black" stroke-linecap="round" stroke-width="5"/>
	<path d="M69,176c0,14.50399 -38.96636,72.03364 -34,77" fill="none" stroke="black" stroke-linecap="round" stroke-width="5"/>
	<path d="M165,269c-10.38281,0 -32.40385,-39.65546 -39,-49c-23.79765,-33.71334 -45.31612,-69.71169 -71,-102c-13.90603,-17.48186 -25.67799,-30.12999 -37,-49" fill="none" stroke="black" stroke-linecap="round" stroke-width="5"/>
	<path d="M285,208c-14.75325,0 -26.51791,-24.45765 -35,-34c-33.53606,-37.72807 -65.70401,-73.33577 -104,-106c-15.30824,-13.05703 -33.47259,-26.98434 -51,-37c-1.44707,-0.8269 -4,-1.33333 -4,-3" fill="none" stroke="black" stroke-linecap="round" stroke-width="5"/>
	<path d="M42,104c0,-6.97095 96,-51.52886 96,-57" fill="none" stroke="black" stroke-linecap="round" stroke-width="5"/>
	<path d="M95,30c-25.44301,-16.96201 -40.56398,-5.9287 -68,6c-5.05673,2.19858 -21.03397,4.06793 -24,10c-7.50151,15.00302 7.73324,16.86662 16,21c1.91719,0.9586 8.86197,0.13803 7,2" fill="none" stroke="black" stroke-linecap="round" stroke-width="5"/>
	<path d="M12,73c-8.08229,0 12.44093,-18.57404 13,-19c8.62247,-6.5695 22.3753,-12.34382 33,-15c6.04125,-1.51031 12.55646,-1.97581 18,-5c0.82416,-0.45787 2.42164,-1.15673 2,-2c-0.44721,-0.89443 -2.05132,-0.31623 -3,0c-13.40545,4.46848 -24.99438,16.05457 -38,22c-8.44501,3.86058 -17.19091,7.06364 -26,10c-0.31623,0.10541 -1.2357,0.2357 -1,0c11.9388,-11.9388 44.02421,-25 61,-25c2.68742,0 -2.25105,4.95956 -4,7c-6.59328,7.69216 -14.26661,13.67268 -22,20c-2.18908,1.79107 -6,8.82843 -6,6c0,-3.11664 56.78788,-27.05303 65,-25c2.78183,0.69546 -4.55326,3.50477 -7,5c-3.70848,2.26629 -7.35963,4.62585 -11,7c-8.41314,5.48683 -17.91409,13.45704 -27,18c-4.40202,2.20101 -8.72685,4.5582 -13,7c-1.22788,0.70165 -4.26491,2.36754 -3,3c10.68045,5.34023 41.73111,-12.41204 51,-16c4.32972,-1.67602 8.72103,-3.19833 13,-5c2.74779,-1.15696 10.84958,-4.87679 8,-4c-30.76959,9.46757 -60.45256,22.33681 -90,35c-0.68509,0.29361 1.41391,-0.5395 2,-1c12.15099,-9.54721 14.19859,-12.92012 28,-22c12.06215,-7.93563 42.23059,-30 56,-30" fill="none" stroke="black" stroke-linecap="round" stroke-width="5"/>
</svg>
