<?xml version="1.0" ?>
<svg baseProfile="full" height="300" version="1.1" viewBox="[0, 0, 300, 300]" width="300" xmlns="http://www.w3.org/2000/svg" xmlns:ev="http://www.w3.org/2001/xml-events" xmlns:xlink="http://www.w3.org/1999/xlink">
	<defs/>
	<path d="M89,31c-8.06617,16.13235 -2.68477,42.88087 -2,60c0.90121,22.53033 2.25318,47.46817 0,70c-1.6261,16.26103 -7,32.66622 -7,49c0,3.87292 -5.02971,48.48514 -2,50c4.39283,2.19642 7.61607,-2.77084 9,-6c9.45994,-22.0732 8.35084,-46.40336 14,-69c1.20185,-4.8074 6.29894,-8.43298 11,-10c0.38771,-0.12924 4.89936,-0.20128 5,0c10.40826,20.81653 -5,72.67054 -5,98c0,5.70405 4.84712,28.43525 16,21c13.05826,-8.70551 9.99912,-78.99912 21,-90c9.34625,-9.34625 25.47123,-0.73561 38,-7c5.06138,-2.53069 19.45256,-3.84915 25,-2c8.52471,2.84157 10,72.31526 10,83c0,1.22667 0.98599,10.20841 3,9c35.34285,-21.20571 18.05993,-76.17979 29,-109" fill="none" stroke="black" stroke-linecap="round" stroke-width="5"/>
	<path d="M191,195c3.37481,6.74961 -2.0715,39.51788 12,36c8.42329,-2.10582 -0.00345,-31.99309 4,-40" fill="none" stroke="black" stroke-linecap="round" stroke-width="5"/>
	<path d="M97,151c9.60021,9.60021 26.30126,10.15063 38,16c5.77191,2.88595 3.15342,17.26137 10,20c8.37597,3.35039 18.30672,5.91334 27,7c27.56973,3.44622 43.08092,0.95954 67,-11c6.40224,-3.20112 12.57848,-19.21076 3,-24c-3.77176,-1.88588 -66.6125,-12.77794 -77,-14c-22.45613,-2.6419 -42.36898,0 -64,0" fill="none" stroke="black" stroke-linecap="round" stroke-width="5"/>
	<path d="M92,33c0,-1.20185 1.82677,-1.73928 3,-2c20.79693,-4.62154 41.75872,-6 63,-6c15.64308,0 29.55325,8.37087 41,19c37.51614,34.83641 32.76167,44.42998 25,91c-0.79269,4.75614 -0.84866,18.84866 -4,22" fill="none" stroke="black" stroke-linecap="round" stroke-width="5"/>
	<path d="M91,62c0,-16.16427 34.62989,-15 44,-15c45.44351,0 85.71679,8.30075 94,58c0.82134,4.92802 3.31375,18.02938 0,23c-7.6888,11.53319 -99.57383,-8.23398 -108,-9c-4.13241,-0.37567 -33.1724,-1.6896 -34,-5c-4.20408,-16.81632 -3,-53.61676 -3,-71" fill="none" stroke="black" stroke-linecap="round" stroke-width="5"/>
</svg>
