<?xml version="1.0" ?>
<svg baseProfile="full" height="300" version="1.1" viewBox="[0, 0, 300, 300]" width="300" xmlns="http://www.w3.org/2000/svg" xmlns:ev="http://www.w3.org/2001/xml-events" xmlns:xlink="http://www.w3.org/1999/xlink">
	<defs/>
	<path d="M70,52c0,10.16136 14.00247,42.09987 17,53c3.08717,11.22608 4.97317,22.7575 8,34c1.34529,4.9968 4,9.82528 4,15c0,0.4714 0.95732,1.46947 1,1c4.91867,-54.10534 -25.77768,-114.69137 49,-123c21.82381,-2.42487 26.21824,23.14473 38,38c20.59758,25.97086 43,46.59752 43,79" fill="none" stroke="black" stroke-linecap="round" stroke-width="5"/>
	<path d="M65,59c30.43987,0 93.49513,-32.16829 121,-23c1.84391,0.61464 2.34628,3.16958 3,5c11.25484,31.51356 20.45698,63.66895 32,95c0.24796,0.67304 6.47877,28.84041 3,30c-1.14869,0.3829 -130.3714,7.08573 -135,4c-13.28532,-8.85688 -8.6409,-73.05236 -7,-87c0.30023,-2.55193 2.66095,-31 7,-31" fill="none" stroke="black" stroke-linecap="round" stroke-width="5"/>
	<path d="M93,85c0,1.14316 5.96243,-7.8142 7,-9c5.92862,-6.77557 9.62274,-14.34597 18,-19c14.43303,-8.01835 80,-5.61197 80,7" fill="none" stroke="black" stroke-linecap="round" stroke-width="5"/>
	<path d="M87,177c0,25.92732 -17.72501,66.39005 -24,94c-0.20183,0.88805 -8.33627,28.13275 -4,29c24.70968,4.94194 52.91087,-47.46521 56,-66c0.51295,-3.0777 10.19349,-27.20434 15,-24c10.63928,7.09285 -5.09724,63.45138 8,70c4.1523,2.07615 7.71091,-6.06637 9,-8c8.09407,-12.14111 2.0101,-51.99596 27,-42c5.27093,2.10837 6.03129,13.78133 8,18c7.10883,15.2332 18.7253,30.17591 24,46c0.62972,1.88915 1.49724,5.75138 5,4c8.1865,-4.09325 -3.54029,-68.22986 24,-82c18.61548,-9.30774 12.20471,31.54589 15,39c0.42425,1.13133 6.67865,15.48203 7,15c4.00588,-6.00882 4.34561,-20.7649 5,-26c5.45651,-43.65204 -10.87792,-79.46948 -57,-91c-18.24922,-4.5623 -63.76753,10.79459 -83,14c-16.41574,2.73596 -53,3.01336 -53,26c0,1.07872 -0.85695,7.14305 0,8c0.83439,0.83439 45.30925,0 50,0c23.76144,0 102.19618,1.90191 132,-13" fill="none" stroke="black" stroke-linecap="round" stroke-width="5"/>
</svg>
