<?xml version="1.0" ?>
<svg baseProfile="full" height="300" version="1.1" viewBox="[0, 0, 300, 300]" width="300" xmlns="http://www.w3.org/2000/svg" xmlns:ev="http://www.w3.org/2001/xml-events" xmlns:xlink="http://www.w3.org/1999/xlink">
	<defs/>
	<path d="M91,57c-9.28445,46.42225 -4.02784,107.77728 2,156c1.3845,11.076 -1.16719,36.83281 7,45c6.7876,6.7876 14.36437,-16.22024 15,-18c6.93774,-19.42567 -0.19665,-43 22,-43c2.41255,0 6.28615,-2.35692 9,-1c2.19391,1.09695 2,2.85473 2,5c0,8.27437 1.40243,85.19919 23,78c15.06035,-5.02012 16.11354,-84.55677 31,-92c26.1644,-13.0822 34.76169,65.61691 36,78c0.19983,1.99829 5.51179,26.2441 10,24c25.92169,-12.96085 11.45455,-88.9091 23,-112" fill="none" stroke="black" stroke-linecap="round" stroke-width="5"/>
	<path d="M91,150c25.45161,0 50.98895,-7 77,-7c18,0 36,0 54,0c2.0718,0 36.41471,-4.27426 40,2c2.5852,4.5241 19.27092,39.68227 6,43c-31.53699,7.88425 -98.38377,-9.55892 -135,-12c-13.90743,-0.92716 -42.99988,6.00012 -52,-3" fill="none" stroke="black" stroke-linecap="round" stroke-width="5"/>
	<path d="M86,59c1.63422,0 5.49883,-5.87236 6,-7c6.22902,-14.01529 15.94763,-27.98254 31,-33c6.03102,-2.01034 22.132,0 27,0c15.13604,0 36.41162,-2.83535 51,3c24.4161,9.76644 26,95.65065 26,123" fill="none" stroke="black" stroke-linecap="round" stroke-width="5"/>
	<path d="M96,80c0,-52.74438 96.99408,-44.34123 119,-15c4.05717,5.40955 0.19101,18.52808 1,25c0.77925,6.23402 7.36094,22.9586 4,28c-6.75107,10.1266 -40.36324,10.62012 -51,11c-68.9963,2.46415 -83,18.81582 -83,-53" fill="none" stroke="black" stroke-linecap="round" stroke-width="5"/>
</svg>
