<?xml version="1.0" ?>
<svg baseProfile="full" height="300" version="1.1" viewBox="[0, 0, 300, 300]" width="300" xmlns="http://www.w3.org/2000/svg" xmlns:ev="http://www.w3.org/2001/xml-events" xmlns:xlink="http://www.w3.org/1999/xlink">
	<defs/>
	<path d="M70,53c0,10.1979 -9.81199,31.37602 -5,41c0.89703,1.79407 5.57772,1 7,1c29.33333,0 58.66667,0 88,0c17.99191,0 35.3022,4.47174 53,7c0.77418,0.1106 6.5697,1.86061 7,1c2.95879,-5.91759 2.22307,-20.78459 3,-27c3.44403,-27.55226 -3.92804,-21.93271 -30,-25c-14.04527,-1.65238 -27.99356,-4.04561 -42,-6c-15.45644,-2.15671 -30.60873,-3.46087 -46,-5c-5.00243,-0.50024 -18.14175,-5.92912 -24,-3c-1.89665,0.94833 -3.69587,18.87108 -4,21c-1.11047,7.77326 -7,14.12594 -7,22" fill="none" stroke="black" stroke-linecap="round" stroke-width="5"/>
	<path d="M92,98c0,-0.66667 1.81685,-0.64102 2,0c2.14047,7.49166 2.36835,21.63069 3,29c1.99061,23.22382 1,46.71165 1,70" fill="none" stroke="black" stroke-linecap="round" stroke-width="5"/>
	<path d="M128,97c0,33.95234 -7.13633,65.45401 -9,99c-0.34185,6.15334 3,10.216 3,16" fill="none" stroke="black" stroke-linecap="round" stroke-width="5"/>
	<path d="M175,101c0,27.97138 5.64784,76.29569 18,101" fill="none" stroke="black" stroke-linecap="round" stroke-width="5"/>
	<path d="M206,108c0,14.841 0.16966,80.16966 9,89" fill="none" stroke="black" stroke-linecap="round" stroke-width="5"/>
	<path d="M86,198c19.56483,-3.91297 40.99997,-0.82353 61,-2c17.03561,-1.00209 33.95463,-1 51,-1c22.28664,0 16,7.11264 16,29c0,1.94431 1.74024,20.25976 1,21c-10.07744,10.07744 -127.59776,12.70112 -141,6c-1.19257,-0.59628 -0.14724,-2.67482 0,-4c1.15282,-10.37541 2.30115,-20.51725 3,-31c0.49654,-7.44808 -3.07344,-23.92656 3,-30" fill="none" stroke="black" stroke-linecap="round" stroke-width="5"/>
	<path d="M90,257c10.10428,10.10428 -4.81641,41.18359 6,52" fill="none" stroke="black" stroke-linecap="round" stroke-width="5"/>
	<path d="M203,250c5.53166,0 2.66924,18.70011 3,23c0.9198,11.95737 7,24.57178 7,36" fill="none" stroke="black" stroke-linecap="round" stroke-width="5"/>
</svg>
