<?xml version="1.0" ?>
<svg baseProfile="full" height="300" version="1.1" viewBox="[0, 0, 300, 300]" width="300" xmlns="http://www.w3.org/2000/svg" xmlns:ev="http://www.w3.org/2001/xml-events" xmlns:xlink="http://www.w3.org/1999/xlink">
	<defs/>
	<path d="M69,33c0,17.89939 -4.7401,94.2599 1,100" fill="none" stroke="black" stroke-linecap="round" stroke-width="5"/>
	<path d="M77,34c9.30909,-3.10303 17.443,-8.87622 27,-11c29.74133,-6.60919 76.16124,-4.14793 104,4c14.58349,4.26834 29.46379,8.52732 44,13c2.01496,0.61999 5.05719,0.11438 6,2c3.43191,6.86382 -13.67091,57.03822 -15,69c-1.2394,11.15459 -1.5998,52.5998 -8,59" fill="none" stroke="black" stroke-linecap="round" stroke-width="5"/>
	<path d="M72,127c-1.69967,0 -0.72058,3.32345 -1,5c-3.83933,23.03596 -9.3311,45.63541 -11,69c-0.90877,12.72274 -16.88007,92.27998 2,97c24.33681,6.0842 19.53875,-109.76938 30,-115c16.25986,-8.12993 13.97471,21.17701 13,28c-2.7471,19.22968 -24.14362,92.85638 -11,106c6.60082,6.60082 11.70014,-15.05088 12,-17c3.0009,-19.50586 5.29795,-78.14898 21,-86c14.88012,-7.44006 45.30635,-2 62,-2c1.25592,0 2.66035,0.3207 3,1c8.4546,16.9092 -11.7996,63.2004 8,83c12.42096,12.42096 15.33812,-5.36682 17,-17c0.92432,-6.47023 2.25777,-12.61183 4,-19c2.4653,-9.03942 8,-24.14793 8,-32" fill="none" stroke="black" stroke-linecap="round" stroke-width="5"/>
	<path d="M76,156c12.79738,9.59803 29.81836,44.45459 44,48c31.01454,7.75364 65.68531,12.40948 98,16c5.2949,0.58832 13.85927,2.57037 19,0c0.95384,-0.47692 1.6955,-2.23876 2,-3c1.74739,-4.36849 13.8056,-42.46293 10,-45c-8.43627,-5.62418 -20.60479,-7.12924 -30,-10c-20.17567,-6.16479 -149,-48.90835 -149,-10" fill="none" stroke="black" stroke-linecap="round" stroke-width="5"/>
	<path d="M67,53c11.28071,0 30.43533,-13.06219 44,-15c43.95463,-6.27923 154,5.327 154,66" fill="none" stroke="black" stroke-linecap="round" stroke-width="5"/>
	<path d="M69,108c36.14235,0 73.61883,6.62892 109,14c12.01097,2.50228 26.72223,9 39,9c7.32156,0 47,3.22048 47,8" fill="none" stroke="black" stroke-linecap="round" stroke-width="5"/>
</svg>
