<?xml version="1.0" ?>
<svg baseProfile="full" height="300" version="1.1" viewBox="[0, 0, 300, 300]" width="300" xmlns="http://www.w3.org/2000/svg" xmlns:ev="http://www.w3.org/2001/xml-events" xmlns:xlink="http://www.w3.org/1999/xlink">
	<defs/>
	<path d="M143,38c0,-1.98193 -22.29758,-1 -26,-1c-26.7777,0 -52.9108,2.9108 -73,23c-0.45858,0.45858 -5.9176,3.1648 -5,5c0.61785,1.2357 0.96548,1 2,1c13.92863,0 27.12915,1.26614 41,3c14.64707,1.83088 29.39831,2.83679 44,5c9.0542,1.34136 17.96658,3.52516 27,5c14.94892,2.44064 103.35578,5.86532 106,-10c5.42755,-32.5653 -104.96402,-32 -131,-32" fill="none" stroke="black" stroke-linecap="round" stroke-width="5"/>
	<path d="M151,43c4.78109,0 -18.66191,5.33809 -16,8c0.70711,0.70711 2,0 3,0c7.92972,0 34.42776,4.57224 40,-1c1.25187,-1.25187 -1.54027,-1.88507 -2,-2c-9.70313,-2.42578 -19.83956,-2 -30,-2" fill="none" stroke="black" stroke-linecap="round" stroke-width="5"/>
	<path d="M102,69c2.13437,0 3.66712,2.89174 4,5c5.09782,32.28622 8,66.50986 8,99" fill="none" stroke="black" stroke-linecap="round" stroke-width="5"/>
	<path d="M139,77c3.42815,0 2.48494,4.56629 3,8c4.46016,29.73438 4,59.02376 4,89c0,1.55496 -1.21962,13 1,13" fill="none" stroke="black" stroke-linecap="round" stroke-width="5"/>
	<path d="M184,84c0,-1.69967 1,3.30033 1,5c0,9.42809 -1.81626,18.8283 -4,28c-1.0796,4.53432 -20.66345,83.66345 -23,86" fill="none" stroke="black" stroke-linecap="round" stroke-width="5"/>
	<path d="M206,79c10.62894,10.62894 -4.7847,75.2011 -6,91c-0.96934,12.60144 2,24.9796 2,37" fill="none" stroke="black" stroke-linecap="round" stroke-width="5"/>
	<path d="M110,168c-9.12991,0 -21.62041,7.64816 -30,11c-6.40416,2.56166 -12.35877,4.98126 -19,8c-7.27239,3.30563 -14.97814,4.48907 -22,8c-2.04475,1.02238 -1.14471,6.61843 0,7c16.94916,5.64972 77,-9.443 77,-34" fill="none" stroke="black" stroke-linecap="round" stroke-width="5"/>
	<path d="M203,203c3.24771,6.49541 -34.84052,41.36207 -38,54c-0.27736,1.10944 -4.3945,13.40367 -2,15c4.86604,3.24403 20.09802,-0.18745 23,-1c28.42474,-7.95893 32,-50.23339 32,-75" fill="none" stroke="black" stroke-linecap="round" stroke-width="5"/>
	<path d="M77,200c-3.90157,0 7.27603,2.83626 11,4c7.40021,2.31257 14.06538,6.53269 21,10c15.30298,7.65149 34.51265,16.51265 46,28" fill="none" stroke="black" stroke-linecap="round" stroke-width="5"/>
	<path d="M120,170c30.18749,0 51.67186,27.44998 70,47c3.38917,3.61512 11,5.04464 11,10" fill="none" stroke="black" stroke-linecap="round" stroke-width="5"/>
	<path d="M135,235c11.20521,0 21.35332,13 32,13" fill="none" stroke="black" stroke-linecap="round" stroke-width="5"/>
	<path d="M90,208c0,24.54172 -18.12252,39.4967 -32,58c-3.1266,4.1688 -1.52298,9.52298 -5,13" fill="none" stroke="black" stroke-linecap="round" stroke-width="5"/>
	<path d="M128,224c0,22.24205 -19,41.07831 -19,53" fill="none" stroke="black" stroke-linecap="round" stroke-width="5"/>
	<path d="M167,254c1.79505,0 2,3.20495 2,5c0,15.99606 1,31.94167 1,48" fill="none" stroke="black" stroke-linecap="round" stroke-width="5"/>
	<path d="M213,250c4.29034,0 4.58708,3.19606 6,8c4.97099,16.90136 16.67462,39.67462 29,52" fill="none" stroke="black" stroke-linecap="round" stroke-width="5"/>
</svg>
