<?xml version="1.0" ?>
<svg baseProfile="full" height="300" version="1.1" viewBox="[0, 0, 300, 300]" width="300" xmlns="http://www.w3.org/2000/svg" xmlns:ev="http://www.w3.org/2001/xml-events" xmlns:xlink="http://www.w3.org/1999/xlink">
	<defs/>
	<path d="M131,42c-11.25909,0 -22.45231,4 -34,4c-22.73496,0 -37.46144,12.69282 -33,35c0.29948,1.49738 -0.92187,5.03906 1,6c2,1 3.93594,-2.13997 6,-3c16.6638,-6.94325 33.96609,-9 52,-9c21.1249,0 38.30402,-4 60,-4c2.03808,0 3.43969,0.24125 4,-2c7.95258,-31.81031 -6.68927,-24.86893 -28,-27c-17.17141,-1.71714 -34.65925,-2 -52,-2" fill="none" stroke="black" stroke-linecap="round" stroke-width="5"/>
	<path d="M84,79c6.19801,6.19801 11,87.24011 11,103" fill="none" stroke="black" stroke-linecap="round" stroke-width="5"/>
	<path d="M108,81c5.65078,11.30157 10,81.94191 10,101" fill="none" stroke="black" stroke-linecap="round" stroke-width="5"/>
	<path d="M132,81c4.69098,2.34549 7,81.26446 7,97" fill="none" stroke="black" stroke-linecap="round" stroke-width="5"/>
	<path d="M154,68c1.49324,0 3.67791,20.98697 4,23c4.54857,28.42858 1,57.49078 1,86" fill="none" stroke="black" stroke-linecap="round" stroke-width="5"/>
	<path d="M171,72c3.57897,-3.57897 4.57464,23.23516 5,26c0.8904,5.78761 1.24719,80.24719 4,83" fill="none" stroke="black" stroke-linecap="round" stroke-width="5"/>
	<path d="M86,182c0,-6.69876 32.33618,-3.53362 37,-4c18.18337,-1.81834 37.90746,-2 56,-2c1.33333,0 3.16707,-1.04116 4,0c9.99746,12.49682 19.65882,24.65882 31,36c1.39246,1.39246 -0.81666,5.40833 -2,6c-11.72261,5.86131 -22.29986,10.17775 -35,13c-15.29411,3.39869 -44.16501,6.945 -59,2c-3.67886,-1.22629 -9.33158,-19.99685 -11,-23c-3.86389,-6.955 -11.18531,-11.80969 -16,-18c-2.31532,-2.97683 -10.66667,-5.33333 -8,-8c2.57893,-2.57893 3.48245,27.48245 5,29c6.86262,6.86262 15.42997,18.42997 22,25c0.2357,0.2357 0.7643,-0.2357 1,0c1.10459,1.10459 4,2.37374 4,-1c0,-1 0,-4 0,-3c0,4.86008 -0.74105,7.29083 4,10c16.35586,9.34621 90,-2.65745 90,-26" fill="none" stroke="black" stroke-linecap="round" stroke-width="5"/>
	<path d="M89,217c0,8.35908 -1.67715,15.06287 -3,23c-0.65988,3.95925 -0.49071,15.72678 1,12c0.63122,-1.57806 1.10391,-7.20783 2,-9c1.86743,-3.73487 7,-9.60727 7,-14" fill="none" stroke="black" stroke-linecap="round" stroke-width="5"/>
	<path d="M96,229c5.21419,10.42838 7.42382,14.94921 18,22c0.62017,0.41345 1,1.25464 1,2" fill="none" stroke="black" stroke-linecap="round" stroke-width="5"/>
	<path d="M115,253c0,4.66667 0,9.33333 0,14c0,17.15582 9,-19.72655 9,-25" fill="none" stroke="black" stroke-linecap="round" stroke-width="5"/>
	<path d="M192,238c0,3.66667 -3.66667,11 0,11c2.63979,0 3.15265,-5.84735 7,-2c0.82172,0.82172 0.45482,6 3,6c3.9657,0 7,-27.20678 7,-31" fill="none" stroke="black" stroke-linecap="round" stroke-width="5"/>
</svg>
