<?xml version="1.0" ?>
<svg baseProfile="full" height="300" version="1.1" viewBox="[0, 0, 300, 300]" width="300" xmlns="http://www.w3.org/2000/svg" xmlns:ev="http://www.w3.org/2001/xml-events" xmlns:xlink="http://www.w3.org/1999/xlink">
	<defs/>
	<path d="M58,60c-1.49071,0 -1.68765,2.54238 -2,4c-5.32497,24.84988 -3.32443,49.02799 -6,74c-0.00417,0.03893 -14.89017,117.10983 -8,124c2.75603,2.75603 5.33473,-2.33683 6,-4c3.28947,-8.22367 17.29873,-69.85064 29,-64c11.94425,5.97213 -10.55366,80.77853 10,89c3.91877,1.56751 7.51239,-1.09915 8,-5c2.12746,-17.01966 7.25587,-70.83725 21,-80c4.84201,-3.22801 18.3058,-2 24,-2c8.55529,0 31.15792,-1.84208 37,4c10.64805,10.64805 -12.19428,72.80572 -1,84c6.33757,6.33757 10.71395,-16.56976 11,-18c4.87478,-24.37392 15,-53.67957 15,-78" fill="none" stroke="black" stroke-linecap="round" stroke-width="5"/>
	<path d="M44,166c14.55579,0 30.68,11.56 44,16c24.52227,8.17409 53.47908,8.99754 79,12c10.75586,1.2654 39.2341,7.06359 43,-8c6.15831,-24.63324 -18.77177,-20.84706 -36,-27c-24.29726,-8.67759 -52.28549,-11.85712 -78,-14c-12.14635,-1.0122 -30.09036,4.45482 -41,-1" fill="none" stroke="black" stroke-linecap="round" stroke-width="5"/>
	<path d="M53,67c12.03381,-12.03381 11.19184,-59.09592 21,-64c3.89907,-1.94954 94.43891,8.39818 96,11c5.30086,8.83476 7.30173,61.56472 9,76c1.07138,9.1067 4.25244,58.74756 -2,65" fill="none" stroke="black" stroke-linecap="round" stroke-width="5"/>
	<path d="M71,26c13.89685,-13.89685 87.11691,-6.88309 102,8" fill="none" stroke="black" stroke-linecap="round" stroke-width="5"/>
	<path d="M54,102c7.90672,7.90672 106.03361,21 129,21" fill="none" stroke="black" stroke-linecap="round" stroke-width="5"/>
	<path d="M140,197c5.13886,5.13886 2.51326,68.05305 6,82c1.09895,4.39581 10.32474,-20.29894 11,-23c3.32465,-13.2986 -0.88209,-27.03062 2,-40c1.23454,-5.55543 7,-13.99817 7,-19" fill="none" stroke="black" stroke-linecap="round" stroke-width="5"/>
</svg>
