<?xml version="1.0" ?>
<svg baseProfile="full" height="300" version="1.1" viewBox="[0, 0, 300, 300]" width="300" xmlns="http://www.w3.org/2000/svg" xmlns:ev="http://www.w3.org/2001/xml-events" xmlns:xlink="http://www.w3.org/1999/xlink">
	<defs/>
	<path d="M82,170c0,-18.0664 78.97464,-20.39493 87,-22c0.51571,-0.10314 9.41253,-3.85205 11,-2c9.68616,11.30052 18.24741,23.62198 28,35c8.88761,10.36888 18.54583,23.27291 30,29c0.15491,0.07746 0.24343,3.75657 0,4c-3.35453,3.35453 -23.01876,5.46137 -30,8c-9.87842,3.59215 -57.82806,19.58597 -69,14c-5.76921,-2.8846 -16.73931,-16.44677 -23,-21c-21.73213,-15.80519 -34.55549,-28.06659 -52,-49" fill="none" stroke="black" stroke-linecap="round" stroke-width="5"/>
	<path d="M88,184c0,17.55673 -6,34.61514 -6,51" fill="none" stroke="black" stroke-linecap="round" stroke-width="5"/>
	<path d="M82,236c0,2.11032 -1,3.82843 -1,6c0,1.02404 -19.27485,8.79386 -7,18c1.19257,0.89443 0.50929,4 2,4c2.88,0 4.56808,-14.13617 4,-13c-2.69009,5.38018 -6.5229,11.09159 -8,17c-0.32338,1.29352 -0.42164,5.26491 0,4c2.08361,-6.25082 8,-13.72833 8,-20c0,-0.33333 0.2357,-1.2357 0,-1c-5.23631,5.23631 -8.94512,11.61582 -10,19c-0.48342,3.38392 0.77448,16.11276 5,14" fill="none" stroke="black" stroke-linecap="round" stroke-width="5"/>
	<path d="M131,226c0,-3.47619 0,1.52381 0,5c0,2.25915 3.1982,31.93393 3,32c-2.54951,0.84984 -8,-3.68742 -8,-1c0,4.01465 4.5541,8.14426 6,12c0.5968,1.59145 2.20185,3.79815 1,5c-1.49241,1.49241 6.05769,-2.88462 3,-9c-0.61464,-1.22927 -2.85646,0.23764 -4,1c-5.61293,3.74196 -10,15.62036 -10,12" fill="none" stroke="black" stroke-linecap="round" stroke-width="5"/>
	<path d="M232,217c6.75981,3.37991 -2.17826,29.64348 2,38c1.05409,2.10819 -7.31125,4.53775 -5,5c1.79709,0.35942 12.41581,-0.79209 12,-1c-1.1908,-0.5954 -11.69714,6.26285 -13,8c-1.09126,1.45501 3.98876,7.98314 4,8c1.8831,2.82465 -5,11.41111 -5,14" fill="none" stroke="black" stroke-linecap="round" stroke-width="5"/>
	<path d="M206,228c-7.36317,0 -4.86838,17.34189 -6,23c-0.55764,2.78821 -13.69355,-1.38711 -11,4c1.68932,3.37864 2.46129,6.92258 4,10c2.64686,5.29372 11.50472,3.24764 6,6c-1.49071,0.74536 0,3.33333 0,5" fill="none" stroke="black" stroke-linecap="round" stroke-width="5"/>
</svg>
