<?xml version="1.0" ?>
<svg baseProfile="full" height="300" version="1.1" viewBox="[0, 0, 300, 300]" width="300" xmlns="http://www.w3.org/2000/svg" xmlns:ev="http://www.w3.org/2001/xml-events" xmlns:xlink="http://www.w3.org/1999/xlink">
	<defs/>
	<path d="M72,185c0,22.67239 2,44.85373 2,67c0,1.31088 0.79841,7.20159 0,8c-1.43935,1.43935 -12.1853,4.6049 -14,4c-5.58499,-1.86166 -15.95849,-11.43774 -19,-16c-2.76758,-4.15137 2.54122,-8.54122 4,-10c16.21359,-16.21359 52.00005,-7.00003 72,-17c10.57806,-5.28903 25.34781,39.59131 38,32c8.60467,-5.1628 9.98129,-70.01871 1,-79c-4.66958,-4.66958 -19.09507,-12.78565 -25,-15c-4.27138,-1.60177 -9.62723,-5 -9,-5" fill="none" stroke="black" stroke-linecap="round" stroke-width="5"/>
	<path d="M76,189c0,-6.01554 -38.00299,-17 -43,-17" fill="none" stroke="black" stroke-linecap="round" stroke-width="5"/>
	<path d="M33,166c0,-38.1974 7.09844,-54.04922 39,-70c27.47691,-13.73846 65.78879,30.42242 52,58c-4.83275,9.6655 -3,-49.44309 -3,-58c0,-2.72549 0,-3 0,-3v-1c0,0 -7.17626,1.06864 -8,1c-5.05879,-0.42157 -67.63075,-3.36925 -71,0c-3.38095,3.38095 -6,58.48997 -6,69" fill="none" stroke="black" stroke-linecap="round" stroke-width="5"/>
	<path d="M52,205c6.17035,0 9.56448,5 14,5" fill="none" stroke="black" stroke-linecap="round" stroke-width="5"/>
</svg>
