<?xml version="1.0" ?>
<svg baseProfile="full" height="300" version="1.1" viewBox="[0, 0, 300, 300]" width="300" xmlns="http://www.w3.org/2000/svg" xmlns:ev="http://www.w3.org/2001/xml-events" xmlns:xlink="http://www.w3.org/1999/xlink">
	<defs/>
	<path d="M42,266c0,-14.14476 6.96302,-28.48231 8,-43c2.2746,-31.84439 18.85347,-79.07326 59,-59c8.91358,4.45679 42,93.84314 42,107" fill="none" stroke="black" stroke-linecap="round" stroke-width="5"/>
	<path d="M238,266c0,-19.26751 -44.26302,-105 -65,-105" fill="none" stroke="black" stroke-linecap="round" stroke-width="5"/>
	<path d="M171,166c0,-33.53886 -18.76904,-79 -58,-79c-7.33806,0 -17.62277,2.62277 -23,8c-7.08171,7.08171 -12.47398,19.71097 -18,28c-7.86285,11.79428 -9.84355,43.15645 0,53c4.84969,4.84969 91.04676,-3 105,-3" fill="none" stroke="black" stroke-linecap="round" stroke-width="5"/>
	<path d="M105,212c22.21027,0 50.6341,13.10454 72,7c11.49901,-3.28543 23.4746,-17 35,-17" fill="none" stroke="black" stroke-linecap="round" stroke-width="5"/>
</svg>
