<?xml version="1.0" ?>
<svg baseProfile="full" height="300" version="1.1" viewBox="[0, 0, 300, 300]" width="300" xmlns="http://www.w3.org/2000/svg" xmlns:ev="http://www.w3.org/2001/xml-events" xmlns:xlink="http://www.w3.org/1999/xlink">
	<defs/>
	<path d="M34,262c0,-14.87238 16.9162,-29.51869 26,-40c3.75639,-4.3343 38.37915,-62.44834 52,-57c10.07827,4.03131 23,78.42562 23,89c0,3.15579 -0.21124,7.60562 -3,9" fill="none" stroke="black" stroke-linecap="round" stroke-width="5"/>
	<path d="M249,256c0,-7.66662 -10.73161,-21.32902 -13,-27c-4.37767,-10.94417 -20.43728,-71.18757 -42,-64c-25.08325,8.36108 -23.75065,41.00258 -29,62c-1.47894,5.91574 -1,12.95674 -1,19c0,3.66667 0,14.66667 0,11" fill="none" stroke="black" stroke-linecap="round" stroke-width="5"/>
	<path d="M76,154c0,-5.83144 9.04456,-15.43251 12,-20c18.85389,-29.13783 26.69466,-45 64,-45c11.21978,0 20.92584,-0.03708 31,5c18.82503,9.41252 33,61.17276 33,82c0,2.68742 -5.33172,0.67981 -8,1c-16.25837,1.951 -31.07768,2.65372 -47,0c-15.26336,-2.54389 -77.28007,1.35996 -86,-3c-2.4037,-1.20185 0.39571,-5.3814 1,-8c3.2602,-14.12755 6.28172,-27.28172 16,-37" fill="none" stroke="black" stroke-linecap="round" stroke-width="5"/>
</svg>
