<?xml version="1.0" ?>
<svg baseProfile="full" height="300" version="1.1" viewBox="[0, 0, 300, 300]" width="300" xmlns="http://www.w3.org/2000/svg" xmlns:ev="http://www.w3.org/2001/xml-events" xmlns:xlink="http://www.w3.org/1999/xlink">
	<defs/>
	<path d="M39,48c0,-5.02139 22.10993,-10.40205 25,-11c36.31035,-7.51249 78.42759,-6.77031 115,-2c13.48062,1.75834 28.83755,1.70939 42,5c1.56863,0.39216 1,-1 1,-1c0,0 0.66667,2.66667 1,4c2.05249,8.20996 6,18.51142 6,27c0,0.36853 0.14175,9.98819 0,10c-49.46115,4.12176 -102.22675,0 -152,0c-10.83671,0 -21.2869,2.46956 -32,4c-1.2811,0.18301 -3,1 -3,1c0,0 -2.04774,-5.98451 -3,-9c-3.51172,-11.12045 -8,-21.37763 -8,-33" fill="none" stroke="black" stroke-linecap="round" stroke-width="5"/>
	<path d="M76,90c0,-5.20299 -17,-1.44412 -17,-7c0,-0.33333 0.10541,0.68377 0,1c-3.15665,9.46995 -3,19.00443 -3,29c0,16.85423 0,33.59022 0,50" fill="none" stroke="black" stroke-linecap="round" stroke-width="5"/>
	<path d="M37,163c8.90284,8.90284 50.03688,43.02459 62,51c8.46029,5.64019 16.01803,18.00901 24,22c4.98543,2.49272 26.31982,-6.77117 34,-8c16.94387,-2.71102 34.01308,-4.5733 51,-7c3.35454,-0.47922 26.51993,2.48007 28,1c0.14103,-0.14103 0.10256,-2.79487 0,-3c-7.75721,-15.51443 -7.29474,-45.86316 -24,-57c-5.69231,-3.79487 -12.18929,-12.09465 -18,-15c-15.73328,-7.86664 -65.82504,-7 -87,-7c-20.12154,0 -45.45126,5.81709 -64,12c-1.61144,0.53715 -5,0.86816 -5,3" fill="none" stroke="black" stroke-linecap="round" stroke-width="5"/>
	<path d="M191,134c0,-15.73847 -13,-30.70229 -13,-46" fill="none" stroke="black" stroke-linecap="round" stroke-width="5"/>
	<path d="M47,175c0,-1.66667 0,3.33333 0,5c0,4.33333 0,8.66667 0,13c0,5 0,10 0,15c0,10 0,20 0,30c0,2 1.94029,5.51493 0,6c-1.40252,0.35063 -5.60386,0.39614 -7,-1c-0.2357,-0.2357 0.89459,-0.31623 1,0c3.03814,9.11443 7.68926,12.68926 14,19c3.423,3.423 3.99537,-14.00925 3,-16c-0.114,-0.228 -6.37893,6.1368 -7,8c-2.69401,8.08203 -8.99945,8.99836 -12,18c-3.16356,9.49067 14,27.06592 14,5" fill="none" stroke="black" stroke-linecap="round" stroke-width="5"/>
	<path d="M116,233c0,-1.33333 0,-1.33333 0,0c0,11.81376 3,22.12052 3,34" fill="none" stroke="black" stroke-linecap="round" stroke-width="5"/>
	<path d="M119,269c-1.50923,1.50923 -3.01828,3.20731 -5,4c-1.9574,0.78296 -4.08585,1.11655 -6,2c-5.09371,2.35094 -10.86365,4.06817 -5,7c7.06013,3.53006 12.886,-7.6176 15,-11c0.19683,-0.31493 3.53358,-7 1,-7c-11.12809,0 -1.42542,19 11,19c6.54896,0 -0.15416,-14.59469 -5,-19c-11.70569,-10.64154 -16.34988,10.97518 -11,19" fill="none" stroke="black" stroke-linecap="round" stroke-width="5"/>
	<path d="M225,221c4.25302,0 6.56715,24.83573 8,32c0.39789,1.98947 1,11.41112 1,10" fill="none" stroke="black" stroke-linecap="round" stroke-width="5"/>
	<path d="M234,263c-0.71611,0.71611 -3.59023,5.81953 -3,7c0.53748,1.07497 2,-1.79815 2,-3c0,-7.52763 -12.56573,5.13146 -14,8c-1.74514,3.49028 3.51916,3 5,3c0.94281,0 1.47702,1.21554 2,2c1.59057,2.38586 2.7609,5.20872 5,7c1.0732,0.85856 3.02817,-1.97183 4,-1c0.23118,0.23118 2.17902,1.41049 3,1c13.39986,-6.69993 -16,-54.68656 -16,-26" fill="none" stroke="black" stroke-linecap="round" stroke-width="5"/>
</svg>
