<?xml version="1.0" ?>
<svg baseProfile="full" height="300" version="1.1" viewBox="[0, 0, 300, 300]" width="300" xmlns="http://www.w3.org/2000/svg" xmlns:ev="http://www.w3.org/2001/xml-events" xmlns:xlink="http://www.w3.org/1999/xlink">
	<defs/>
	<path d="M65,181c0,-1.66667 -0.18405,3.34353 0,5c0.60837,5.4753 2,10.45632 2,16c0,12.88848 -3,27.99942 -3,39" fill="none" stroke="black" stroke-linecap="round" stroke-width="5"/>
	<path d="M57,169c16.81897,5.60632 45.35481,38.78494 52,41c8.59282,2.86427 35.49946,0 44,0c14.40097,0 32.36239,1.54587 46,-3c2.97404,-0.99135 27.22321,-0.55359 24,-7c-5.61838,-11.23676 -25.53035,-20.63472 -35,-28c-4.78527,-3.72187 -7.33253,-9.88836 -12,-13c-3.37874,-2.25249 -53.81997,1 -67,1c-19.12647,0 -35.49448,-0.18282 -53,3c-3.7099,0.67453 -5,-1.67668 -5,2" fill="none" stroke="black" stroke-linecap="round" stroke-width="5"/>
	<path d="M113,212c0,21.78331 -2,42.3394 -2,64" fill="none" stroke="black" stroke-linecap="round" stroke-width="5"/>
	<path d="M65,224c-3.07095,1.53547 -6.45047,6.90093 -8,10c-0.5479,1.09579 0.74775,4 2,4c1.26219,0 -5.69895,0.36912 -2,9c0.47343,1.10467 2.15016,1.15016 3,2c1.23566,1.23566 1.42726,4.28637 4,3c5.48128,-2.74064 -5.79815,10.99075 -7,17c-0.46946,2.34732 -0.49411,4.75295 2,6c1.73941,0.8697 3.02036,-0.97964 2,-2c-2.18645,-2.18645 -3.40189,5.8948 -3,7c1.01888,2.80192 2.13752,5.6719 4,8c9.65991,12.07489 15.43396,-17 8,-17c-1.6361,0 -3,1.59285 -3,3" fill="none" stroke="black" stroke-linecap="round" stroke-width="5"/>
	<path d="M109,243c0,-1.56268 -1.10739,4.21479 -2,6c-2.80611,5.61222 -3.15413,7.07893 -4,13c-0.2963,2.07407 -0.37037,2.59259 2,2c5.31076,-1.32769 -1.3902,0.95102 -2,4c-1.23968,6.19838 1.05235,10.59597 4,16c0.13807,0.25313 4,5 4,5c0,0 10.9439,-25 0,-25" fill="none" stroke="black" stroke-linecap="round" stroke-width="5"/>
	<path d="M214,205c0,-4.94374 0,6.20347 0,8c0,7.52935 1.86057,31 1,31" fill="none" stroke="black" stroke-linecap="round" stroke-width="5"/>
	<path d="M215,245c0,4.4265 -14.98393,37 -5,37c2.23607,0 -3,6 -3,6c0,0 13.59407,-10.81187 6,-26" fill="none" stroke="black" stroke-linecap="round" stroke-width="5"/>
	<path d="M189,213c0,-2.15354 -4,16.15383 -4,23" fill="none" stroke="black" stroke-linecap="round" stroke-width="5"/>
	<path d="M185,241c-1.40317,7.01586 -8,13.03713 -8,20c0,0.4714 0.82492,0.56231 1,1c0.27682,0.69205 0.41797,1.53438 1,2c1.16405,0.93124 2.8548,1.04567 4,2c0.92329,0.76941 1.03852,2.27889 2,3c2.33333,1.75 2,-0.20833 2,-1c0,-10.39994 0.11159,-14.85653 -7,-24c-1.10206,-1.41693 -2,-5 -2,-5c0,0 4.96127,20 8,20c2.46796,0 3,-18.79458 3,-21" fill="none" stroke="black" stroke-linecap="round" stroke-width="5"/>
</svg>
