<?xml version="1.0" ?>
<svg baseProfile="full" height="300" version="1.1" viewBox="[0, 0, 300, 300]" width="300" xmlns="http://www.w3.org/2000/svg" xmlns:ev="http://www.w3.org/2001/xml-events" xmlns:xlink="http://www.w3.org/1999/xlink">
	<defs/>
	<path d="M166,26c0,-2.27418 -24.27148,-1 -26,-1c-14.08857,0 -101.86421,10.70369 -89,30c0.89285,1.33928 8.54519,3.03013 10,4c32.62055,21.74703 101.48121,25.22227 140,18c19.51689,-3.65942 49.60064,-5.19807 40,-34c-1.78442,-5.35327 -39.65276,-5.65276 -44,-10c-4.74489,-4.74489 -25.39528,-9 -33,-9" fill="none" stroke="black" stroke-linecap="round" stroke-width="5"/>
	<path d="M128,38c0,-0.78641 34,-3.76467 34,-1" fill="none" stroke="black" stroke-linecap="round" stroke-width="5"/>
	<path d="M76,69c7.37865,0 4.45987,14.07236 7,21c8.76565,23.90632 13,48.54762 13,74" fill="none" stroke="black" stroke-linecap="round" stroke-width="5"/>
	<path d="M49,171c0,-3.33333 5.91768,3.3971 8,6c6.02803,7.53504 11.04872,13.04872 18,20c18.03395,18.03395 33.07828,39.78138 52,56c5.01034,4.29458 7.22483,-7.28993 14,-10c5.61419,-2.24568 24.17314,-3.75057 27,-4c29.05822,-2.56396 56.87499,-11.38194 86,-13c2.48523,-0.13807 13.83414,2.08293 16,1c5.48128,-2.74064 -5.23906,-11.13019 -7,-17c-3.29848,-10.99494 -5.15456,-23.46368 -9,-35c-4.19174,-12.57522 -13.14781,-11.91824 -22,-19c-3.70598,-2.96479 -5.2469,-10.2469 -8,-13c-1.20185,-1.20185 -3.30935,0.82511 -5,1c-8.34857,0.86364 -16.61504,2.63008 -25,3c-27.97279,1.23409 -56,0 -84,0c-21.44622,0 -36.83859,-0.41076 -58,1c-2.68325,0.17888 -13.10457,-0.10457 -7,6" fill="none" stroke="black" stroke-linecap="round" stroke-width="5"/>
	<path d="M199,148c0,-22.50878 -1,-46.80203 -1,-70" fill="none" stroke="black" stroke-linecap="round" stroke-width="5"/>
	<path d="M68,163c0,-2.27082 21.49768,14.99815 24,17c13.62896,10.90317 19.58054,24.29027 35,32" fill="none" stroke="black" stroke-linecap="round" stroke-width="5"/>
	<path d="M218,163c0,-0.66667 0,-1.33333 0,-2c0,-3.80058 6.11438,4.52661 9,7c4.295,3.68143 7.65428,8.37857 12,12c7.83853,6.53211 24,8.79651 24,19" fill="none" stroke="black" stroke-linecap="round" stroke-width="5"/>
</svg>
