<?xml version="1.0" ?>
<svg baseProfile="full" height="300" version="1.1" viewBox="[0, 0, 300, 300]" width="300" xmlns="http://www.w3.org/2000/svg" xmlns:ev="http://www.w3.org/2001/xml-events" xmlns:xlink="http://www.w3.org/1999/xlink">
	<defs/>
	<path d="M186,20c-11.78694,0 -22.35498,2.18047 -34,4c-20.53196,3.20812 -122.9618,0.59549 -106,43c6.12633,15.31583 35.98712,19.49851 49,21c21.49867,2.48062 146.68363,-8.12242 166,-21c7.75547,-5.17031 6.8384,-19.61605 6,-28c-2.69307,-26.93069 -80.67461,-27.40829 -95,-29c-4.26634,-0.47404 -29,2.01791 -29,6" fill="none" stroke="black" stroke-linecap="round" stroke-width="5"/>
	<path d="M116,45c19.72469,-3.94494 47.5786,4.7107 65,-4" fill="none" stroke="black" stroke-linecap="round" stroke-width="5"/>
	<path d="M82,89c0,6.33501 7.18137,13.9379 9,20c0.77856,2.59521 1,65.62825 1,77" fill="none" stroke="black" stroke-linecap="round" stroke-width="5"/>
	<path d="M232,79c0,18.27249 -2.25435,37.96518 0,56c1.52644,12.21148 5,23.42463 5,36" fill="none" stroke="black" stroke-linecap="round" stroke-width="5"/>
	<path d="M68,216c8.5917,0 37.99326,-15.83221 51,-18c26.56292,-4.42715 53.52916,-3.47055 80,-7c15.69982,-2.09331 30.60446,-6.92089 46,-10c0.73088,-0.14618 1.33333,-1.33333 2,-1c21.2189,10.60945 21.64532,46.64532 37,62c2.02759,2.02759 4.70605,3.27953 7,5c7.73395,5.80046 13.3219,13.41777 17,22c0.84077,1.9618 5.97019,4.17909 4,5c-12.392,5.16333 -30.21916,2.59376 -42,3c-60.2642,2.07808 -97.32619,-1.97326 -156,-11c-8.28743,-1.27499 -22.88511,3.55744 -30,0c-1.49071,-0.74536 0.37477,-3.37601 0,-5c-4.40786,-19.10074 -12.24195,-38.72586 -18,-56" fill="none" stroke="black" stroke-linecap="round" stroke-width="5"/>
	<path d="M84,191c13.39815,13.39815 29.6877,20.28139 45,31c3.60027,2.52019 7.78312,13 12,13" fill="none" stroke="black" stroke-linecap="round" stroke-width="5"/>
	<path d="M234,160c4.50451,0 48.62227,41.26177 56,47c0.94868,0.73786 2,1.79815 2,3" fill="none" stroke="black" stroke-linecap="round" stroke-width="5"/>
</svg>
