<?xml version="1.0" ?>
<svg baseProfile="full" height="300" version="1.1" viewBox="[0, 0, 300, 300]" width="300" xmlns="http://www.w3.org/2000/svg" xmlns:ev="http://www.w3.org/2001/xml-events" xmlns:xlink="http://www.w3.org/1999/xlink">
	<defs/>
	<path d="M53,258c0,-8.38846 3.66621,-15.99729 5,-24c1.62471,-9.74823 -1,-20.11972 -1,-30" fill="none" stroke="black" stroke-linecap="round" stroke-width="5"/>
	<path d="M81,271c0,-5.92754 3.34994,-11.14947 4,-17c1.83735,-16.53614 0,-33.30728 0,-50" fill="none" stroke="black" stroke-linecap="round" stroke-width="5"/>
	<path d="M83,232c-5.03146,0 -3.49408,-4.74704 -6,-6c-6.7594,-3.3797 -18.2534,-1 -26,-1" fill="none" stroke="black" stroke-linecap="round" stroke-width="5"/>
	<path d="M59,202c11.46337,3.82112 18.48779,12.19164 31,11c10.66518,-1.01573 21.29448,-2.58825 32,-3c15.25283,-0.58665 30.38813,-1 46,-1c10.02961,0 35.03288,3.96712 43,-4c2.61262,-2.61262 -12.93616,-10.95089 -13,-11c-8.43048,-6.48498 -15.32304,-16.32304 -22,-23c-4.51596,-4.51596 -117.13063,-6.84324 -127,5c-7.75067,9.30081 5,16.5266 5,24" fill="none" stroke="black" stroke-linecap="round" stroke-width="5"/>
	<path d="M212,212c0,15.99368 -4,34.89215 -4,51" fill="none" stroke="black" stroke-linecap="round" stroke-width="5"/>
	<path d="M208,236c0,-4.62882 -21.96882,-23 -28,-23" fill="none" stroke="black" stroke-linecap="round" stroke-width="5"/>
	<path d="M43,93c0,-16.77896 83.68869,-14.63933 92,-14c3.32733,0.25595 5.46167,1.36542 8,2c1.94029,0.48507 4.03884,-0.39223 6,0c4.67993,0.93599 10.62526,-0.37474 14,3c0.86972,0.86972 15.51944,7.48056 17,6c1.95928,-1.95928 -1,-11.26098 -1,-13c0,-1.43763 0.77396,-11.61302 0,-12c-5.27497,-2.63749 -25.74638,-5.73188 -31,-7c-43.00708,-10.38102 -50.73992,-4.04335 -93,3c-3.48676,0.58113 -9.93006,-0.53497 -13,1c-3.55948,1.77974 -5,29.69229 -5,36" fill="none" stroke="black" stroke-linecap="round" stroke-width="5"/>
</svg>
