<?xml version="1.0" ?>
<svg baseProfile="full" height="300" version="1.1" viewBox="[0, 0, 300, 300]" width="300" xmlns="http://www.w3.org/2000/svg" xmlns:ev="http://www.w3.org/2001/xml-events" xmlns:xlink="http://www.w3.org/1999/xlink">
	<defs/>
	<path d="M134,45c-11.19895,0 -22.5978,-1 -34,-1c-8.60835,0 -35.989,-1.02201 -41,9c-0.62504,1.25008 -4.82502,7.58749 -2,9c11.34072,5.67036 33.70873,-1 47,-1c31.05616,0 61.44327,6.94433 92,10c10.64818,1.06482 30.72214,5.55572 37,-7c3.21172,-6.42344 -20.85064,-8.76118 -23,-9c-27.80024,-3.08892 -54.6197,-10 -83,-10" fill="none" stroke="black" stroke-linecap="round" stroke-width="5"/>
	<path d="M70,63c-13.5501,0 -19.14299,86.14299 -27,94c-1.34187,1.34187 -22,57.31301 -22,60c0,1.52048 -0.82842,6.39053 1,7c6.5354,2.17847 13.85952,-2.42976 19,-5c22.47707,-11.23853 30.34213,-48.07913 33,-72c0.11402,-1.02616 -0.81443,-9.18557 0,-10c2.25669,-2.25669 3,6.31806 3,7c0,8.92636 2.53374,15.06749 6,22c5.33746,10.67491 34.80181,9 45,9" fill="none" stroke="black" stroke-linecap="round" stroke-width="5"/>
	<path d="M108,173c-6.22597,6.22597 -35,49.82366 -35,60" fill="none" stroke="black" stroke-linecap="round" stroke-width="5"/>
	<path d="M120,171c17.02129,0 128.5752,11.7256 114,-32c-6.57958,-19.73874 -86.52199,-34.19062 -102,-33c-15.06453,1.15881 -30.95927,9.31976 -45,14c-6.50401,2.168 -27.11697,23 -11,23" fill="none" stroke="black" stroke-linecap="round" stroke-width="5"/>
	<path d="M75,221c0,2.11511 -4.43751,11.56249 -2,14c11.00366,11.00366 41.73029,-12.46059 46,-21c1.34743,-2.69485 19,-43.01257 19,-46" fill="none" stroke="black" stroke-linecap="round" stroke-width="5"/>
	<path d="M223,160c0,16.1625 3.88978,98.22204 25,94c9.30221,-1.86044 13.19324,-14.57973 16,-23c5.98239,-17.94718 -30,-51.43971 -30,-71" fill="none" stroke="black" stroke-linecap="round" stroke-width="5"/>
	<path d="M208,68c0,18.79229 -4,38.23703 -4,57" fill="none" stroke="black" stroke-linecap="round" stroke-width="5"/>
	<path d="M221,67c0,12.33557 -0.42116,53.42116 -9,62" fill="none" stroke="black" stroke-linecap="round" stroke-width="5"/>
	<path d="M201,166c0,11.73737 -5.54074,45.54074 -14,54c-0.35235,0.35235 -0.14423,4.85577 0,5c18.01688,18.01688 31,-57.49222 31,-67" fill="none" stroke="black" stroke-linecap="round" stroke-width="5"/>
	<path d="M50,118c16.79194,0 18.68841,7.68841 27,16" fill="none" stroke="black" stroke-linecap="round" stroke-width="5"/>
	<path d="M89,63c0,2.59884 -21.76347,56.76347 -27,62" fill="none" stroke="black" stroke-linecap="round" stroke-width="5"/>
</svg>
