<?xml version="1.0" ?>
<svg baseProfile="full" height="300" version="1.1" viewBox="[0, 0, 300, 300]" width="300" xmlns="http://www.w3.org/2000/svg" xmlns:ev="http://www.w3.org/2001/xml-events" xmlns:xlink="http://www.w3.org/1999/xlink">
	<defs/>
	<path d="M57,44c0,1.0406 0.2561,10.7439 2,9c6.88689,-6.88689 -2.30289,-21 21,-21c31.18753,0 111.59006,-13.40994 134,9c10.58465,10.58465 -24.68733,15.80728 -27,16c-32.89098,2.74091 -66.61833,2 -100,2c-2.28082,0 -29,1.85127 -29,-2" fill="none" stroke="black" stroke-linecap="round" stroke-width="5"/>
	<path d="M58,55c23.39372,23.39372 -48.10362,136.89638 -28,157c1.07723,1.07723 7.32662,-0.66331 8,-1c1.26491,-0.63246 2.27239,-1.78732 3,-3c0.54233,-0.90388 0.5286,-2.05719 1,-3c0.66667,-1.33333 1.70765,-2.53824 2,-4c4.47351,-22.36753 18.08951,-63 46,-63c1.59241,0 8.98656,-1.01344 10,0c2.79601,2.79601 7.15106,2.15106 10,5c13.78635,13.78635 -30.76201,67.492 -15,78c37.93499,25.29 36.36931,-84.81534 68,-69c13.64018,6.82009 -17.65952,65.17024 0,74c13.54265,6.77132 33.72077,-17.60383 36,-29c1.00397,-5.01986 2.99368,-9.96839 4,-15c0.16916,-0.8458 1.57554,-9.84892 2,-9c6.41198,12.82397 -20.03067,40.96933 0,61c6.61384,6.61384 22.44719,-8.76629 25,-11c15.87325,-13.8891 20,-45.28832 20,-65" fill="none" stroke="black" stroke-linecap="round" stroke-width="5"/>
	<path d="M77,57c-2.10135,0 -1.15695,20.47084 -2,23c-1.49831,4.49493 -8.9289,32.0711 -5,36c2.81519,2.81519 70.06194,1 79,1c16.27737,0 33.00196,1 49,1c1.69967,0 4.23988,2.52023 5,1c6.78253,-13.56506 -9.47377,-57.52623 2,-69" fill="none" stroke="black" stroke-linecap="round" stroke-width="5"/>
	<path d="M250,153c-13.36324,0 -26.87038,-3.81173 -40,-6c-21.33343,-3.55557 -44.8161,4.23678 -66,0c-17.80972,-3.56194 -26.99024,-9 -46,-9" fill="none" stroke="black" stroke-linecap="round" stroke-width="5"/>
	<path d="M248,151c0,3.02687 0.93402,7.93402 3,10" fill="none" stroke="black" stroke-linecap="round" stroke-width="5"/>
</svg>
