<?xml version="1.0" ?>
<svg baseProfile="full" height="300" version="1.1" viewBox="[0, 0, 300, 300]" width="300" xmlns="http://www.w3.org/2000/svg" xmlns:ev="http://www.w3.org/2001/xml-events" xmlns:xlink="http://www.w3.org/1999/xlink">
	<defs/>
	<path d="M79,30c37.81167,0 78.69881,-2.16988 117,-6c7.05769,-0.70577 30.92686,-8.04876 37,-4c20.65187,13.76792 2.33906,44.98283 -3,61c-6.40531,19.21592 -4.27234,35.27234 -20,51c-8.18798,8.18798 -65.64226,-2 -79,-2c-12.42745,0 -49.80047,11.39906 -57,-3c-20.25186,-40.50372 1,-54.53845 1,-92" fill="none" stroke="black" stroke-linecap="round" stroke-width="5"/>
	<path d="M66,63c0,10.63773 1.17902,21.1049 -1,32c-6.33854,31.69268 -43.77918,113.44163 -30,141c6.60657,13.21314 35.94379,-9.90632 39,-15c4.81854,-8.03089 12.24565,-46.98262 15,-58c0.39812,-1.59247 1.43535,-5.28232 4,-4c23.4379,11.71895 0.53571,57.32143 -3,75c-1.67668,8.38342 4,13.15443 4,17" fill="none" stroke="black" stroke-linecap="round" stroke-width="5"/>
	<path d="M93,247c0,25.29567 26.0191,-4.0764 29,-16c3.77314,-15.09255 3.99428,-29.98284 9,-45c0.27342,-0.82026 1.79122,-4 2,-4c1.30177,0 2.50361,4.2518 4,5c10.71046,5.35523 30.21994,0.92117 42,3c9.0878,1.60373 17.72257,4 27,4c0.4714,0 1.21082,-1.42164 1,-1c-6.48377,12.96754 -50.94748,92.98249 0,76c25.86903,-8.62301 31.36488,-56.10834 33,-79c0.36824,-5.15536 -2.40469,-16.19063 0,-21c2.09221,-4.18442 3.7127,-13.8619 2,-19c-3.21362,-9.64086 -19.23082,-10.23082 -25,-16" fill="none" stroke="black" stroke-linecap="round" stroke-width="5"/>
</svg>
