<?xml version="1.0" ?>
<svg baseProfile="full" height="300" version="1.1" viewBox="[0, 0, 300, 300]" width="300" xmlns="http://www.w3.org/2000/svg" xmlns:ev="http://www.w3.org/2001/xml-events" xmlns:xlink="http://www.w3.org/1999/xlink">
	<defs/>
	<path d="M100,22c36.5933,0 85.37638,-16.31181 118,0c15.43891,7.71946 12.45825,72.0835 5,87c-2.39838,4.79676 0.99726,24 -6,24" fill="none" stroke="black" stroke-linecap="round" stroke-width="5"/>
	<path d="M100,20c0,25.61757 75.32754,19.33623 92,11c3.10045,-1.55023 28,-5.02528 28,-1" fill="none" stroke="black" stroke-linecap="round" stroke-width="5"/>
	<path d="M106,30c0,12.28988 -0.08371,97.43722 6,102c25.7751,19.33133 75.5938,0 105,0" fill="none" stroke="black" stroke-linecap="round" stroke-width="5"/>
	<path d="M114,129c0,18.25648 -19.71566,27.43132 -26,40c-5.18553,10.37106 -22.10189,43.79622 -16,56c4.91747,9.83494 24.57137,-7.67853 29,-11c13.69105,-10.26829 15.31065,-53.34468 42,-40c11.28973,5.64486 -28.08358,61.45821 -9,71c31.80359,15.90179 30.73654,-55.36827 40,-60c4.00182,-2.00091 10.25278,3.25278 12,5c5.4183,5.4183 39.36016,-7 43,-7c0.66667,0 1.40372,0.29814 2,0c4.22,-2.11 5.88244,-24.76489 8,-29c3.23814,-6.47628 -30.57487,-13.76248 -32,-14c-31.60361,-5.26727 -68.83396,-2 -103,-2" fill="none" stroke="black" stroke-linecap="round" stroke-width="5"/>
	<path d="M212,185c0,8.6367 -7.83035,66.16965 -5,69c3.44917,3.44917 15.57924,-8.57924 18,-11c15.9211,-15.9211 10,-48.62074 10,-69" fill="none" stroke="black" stroke-linecap="round" stroke-width="5"/>
</svg>
