<?xml version="1.0" ?>
<svg baseProfile="full" height="300" version="1.1" viewBox="[0, 0, 300, 300]" width="300" xmlns="http://www.w3.org/2000/svg" xmlns:ev="http://www.w3.org/2001/xml-events" xmlns:xlink="http://www.w3.org/1999/xlink">
	<defs/>
	<path d="M58,35c0,-4.40036 32.32699,-8.109 38,-10c19.52511,-6.50837 100.74723,-11.25277 115,3c8.14904,8.14904 -14.72455,17.90818 -18,19c-11.86118,3.95373 -124.53705,2.23148 -129,0c-6.629,-3.3145 -9,-5.47394 -9,-13" fill="none" stroke="black" stroke-linecap="round" stroke-width="5"/>
	<path d="M59,40c0,14.5383 6.74527,31.01892 3,46c-3.40761,13.63045 -9.9275,45.2175 -5,60c2.09039,6.27118 12.18457,6 18,6" fill="none" stroke="black" stroke-linecap="round" stroke-width="5"/>
	<path d="M61,139c-18.98389,18.98389 -44.94585,84 -1,84c8.08003,0 15.37756,0.96683 22,-4c13.09225,-9.81919 22,-66.46448 22,-84" fill="none" stroke="black" stroke-linecap="round" stroke-width="5"/>
	<path d="M59,106c45.40558,0 91.30602,-2 137,-2c12.30213,0 37.84298,8.57851 49,3c3.76823,-1.88411 -14.57455,-23.62424 -16,-26c-9.36194,-15.60324 -14,-29.27849 -14,-47" fill="none" stroke="black" stroke-linecap="round" stroke-width="5"/>
	<path d="M101,141c0,-1.40442 -3.22296,27 -2,27c2.68869,0 2.51005,-11.53014 3,-13c1.95751,-5.87253 4.53095,-8.53095 9,-13" fill="none" stroke="black" stroke-linecap="round" stroke-width="5"/>
	<path d="M111,142c-4.70505,18.82019 -18.92494,55.79176 -8,74c3.86731,6.44552 13.0317,8.01585 19,11c14.99888,7.49944 32.64911,-34.1929 34,-45c1.23175,-9.85403 1,-20.00467 1,-30c0,-1 -1,-3 0,-3c0.89826,0 2,5.87851 2,6c0,12.36172 -19.26855,54.73145 -7,67c0.64103,0.64103 6.48496,0 7,0c20.2005,0 23.62953,-13.8886 30,-33c1.91461,-5.74382 1.26674,-10.13391 2,-16c0.25149,-2.01193 -0.43372,-7.43372 1,-6c3.09277,3.09277 -8.94471,66.26382 2,69c28.99064,7.24766 34.9878,-51.54006 41,-67c1.08061,-2.7787 2.66667,-5.33333 4,-8c1.33333,-2.66667 3.05719,-5.17157 4,-8c1.87284,-5.61852 5,-15.69568 5,-22c0,-1.33333 1.33333,-4 0,-4c-1.88562,0 -2.66667,2.66667 -4,4" fill="none" stroke="black" stroke-linecap="round" stroke-width="5"/>
	<path d="M75,147c13.3513,0 26.7354,4.89462 40,6c30.88237,2.57353 61.45038,0.81914 91,-6c6.368,-1.46954 31.89193,-4.78386 35,-11c3.70467,-7.40935 6,-19.39161 6,-27" fill="none" stroke="black" stroke-linecap="round" stroke-width="5"/>
</svg>
