<?xml version="1.0" ?>
<svg baseProfile="full" height="300" version="1.1" viewBox="[0, 0, 300, 300]" width="300" xmlns="http://www.w3.org/2000/svg" xmlns:ev="http://www.w3.org/2001/xml-events" xmlns:xlink="http://www.w3.org/1999/xlink">
	<defs/>
	<path d="M75,41c0,-1.03892 2.73314,-1.78886 4,-2c19.28138,-3.21356 39.48961,-4.39861 59,-7c17.80979,-2.37464 87.13213,-19.60362 95,4c4.66389,13.99167 -8.33018,26.73302 -21,28c-29.04938,2.90494 -133,22.33501 -133,-21" fill="none" stroke="black" stroke-linecap="round" stroke-width="5"/>
	<path d="M84,60c0,13.62997 -5,29.04976 -5,37" fill="none" stroke="black" stroke-linecap="round" stroke-width="5"/>
	<path d="M82,77c0,6.67631 -0.0084,15.02519 -2,21c-2.65219,7.95657 -9.91027,34.63676 7,29c13.77612,-4.59204 15.96619,-45.93238 21,-56c0.83983,-1.67965 2.66823,-6 4,-6" fill="none" stroke="black" stroke-linecap="round" stroke-width="5"/>
	<path d="M89,67c-1.60504,0 -1.44456,2.33368 -2,4c-7.71392,23.14177 -12,50.2333 -12,75c0,4.67985 -0.91702,10.76681 6,8c2.10663,-0.84265 4.61706,-3.15608 6,-5c4.33612,-5.7815 8.29635,-12.24087 11,-19c3.03121,-7.57802 4.5298,-16.91391 6,-25c2.06945,-11.38195 11,-25.9138 11,-37" fill="none" stroke="black" stroke-linecap="round" stroke-width="5"/>
	<path d="M141,65c0,20.44688 -17.87442,64.25115 -10,80c4.04318,8.08635 16.95047,-12.25078 18,-14c9.12647,-15.21079 16,-46.17614 16,-63" fill="none" stroke="black" stroke-linecap="round" stroke-width="5"/>
	<path d="M171,66c0,15.16566 -17.45327,78.54673 -13,83c26.45003,26.45003 46,-72.73267 46,-93" fill="none" stroke="black" stroke-linecap="round" stroke-width="5"/>
	<path d="M205,59c0,4.85699 0.69253,73.69253 1,74c3.65908,3.65908 12.68579,8.62841 15,4c3.96146,-7.92293 4.09461,-19.39875 5,-28c0.66667,-6.33333 1.25592,-12.67529 2,-19c1.24226,-10.5592 4,-20.39095 4,-31" fill="none" stroke="black" stroke-linecap="round" stroke-width="5"/>
	<path d="M227,62c0,12.77731 3,25.17589 3,38c0,8 0,16 0,24c0,2.66667 -0.73259,5.43594 0,8c0.89978,3.14922 14.13112,19.30332 15,18c5.51217,-8.26826 11.38003,-68.4799 8,-82c-1.3231,-5.29241 -12.53121,-16.53121 -16,-20c-2.77331,-2.77331 -4.65169,-8 -9,-8" fill="none" stroke="black" stroke-linecap="round" stroke-width="5"/>
	<path d="M85,143c0,4.55832 37.52265,8 45,8c10.96963,0 22.04402,0.40578 33,0c9.64102,-0.35707 82.76977,-14.69069 86,-5c3.272,9.816 2.96902,29.15491 1,39c-8.50977,42.54885 -101.07303,38.53933 -135,31c-7.33983,-1.63107 -17.28856,1.71144 -23,-4c-19.79039,-19.79039 -4,-39.93079 -4,-61" fill="none" stroke="black" stroke-linecap="round" stroke-width="5"/>
	<path d="M83,195c0,20.63042 -0.92099,36.89465 -13,53c-2.65704,3.54272 -21.69937,21.53375 -12,28c23.3285,15.55234 -2.1954,-31 43,-31c3.3978,0 9.17614,-0.64772 11,3c1.96586,3.93173 -30.8445,44.54067 -23,55c7.99403,10.65871 35.51288,-0.41545 41,-7c15.54699,-18.65639 19,-48.88801 19,-73" fill="none" stroke="black" stroke-linecap="round" stroke-width="5"/>
	<path d="M221,214c0,12.63228 -20.63477,67.73047 -16,77c1.78612,3.57225 8.90351,1.88684 11,0c17.653,-15.8877 27,-32.89999 27,-57c0,-3 0,6 0,9c0,4.66667 0,9.33333 0,14c0,9.96337 -4.26827,43.6864 16,35c12.5361,-5.37262 43.07898,-90.19077 34,-97c-13.77543,-10.33157 -37.05492,2 -51,2" fill="none" stroke="black" stroke-linecap="round" stroke-width="5"/>
</svg>
