<?xml version="1.0" ?>
<svg baseProfile="full" height="300" version="1.1" viewBox="[0, 0, 300, 300]" width="300" xmlns="http://www.w3.org/2000/svg" xmlns:ev="http://www.w3.org/2001/xml-events" xmlns:xlink="http://www.w3.org/1999/xlink">
	<defs/>
	<path d="M42,55c4.44301,0 7.55477,6.70318 11,9c36.20362,24.13575 39.05136,85.79456 29,126c-2.17232,8.68928 -7,32.44459 -7,40c0,1.41126 0.671,3 -1,3" fill="none" stroke="black" stroke-linecap="round" stroke-width="5"/>
	<path d="M84,130c-16.00857,16.00857 -28.0824,35.4432 -42,54c-3.58199,4.77599 -19,26.04658 -19,24" fill="none" stroke="black" stroke-linecap="round" stroke-width="5"/>
	<path d="M49,54c52.86181,0 106.25665,-7 159,-7" fill="none" stroke="black" stroke-linecap="round" stroke-width="5"/>
	<path d="M207,48c11.78016,0 14.59384,37.85996 16,47c1.75961,11.43747 0.30306,23.53802 3,35c2.3336,9.9178 9.09407,18.47037 11,28c1.90673,9.53366 5.91947,95.08053 4,97" fill="none" stroke="black" stroke-linecap="round" stroke-width="5"/>
	<path d="M87,136c0,15.53893 24.08858,12 33,12c25.89988,0 50.70445,-3.37877 76,-9c7.80078,-1.73351 22.27291,-10 30,-10" fill="none" stroke="black" stroke-linecap="round" stroke-width="5"/>
</svg>
