<?xml version="1.0" ?>
<svg baseProfile="full" height="300" version="1.1" viewBox="[0, 0, 300, 300]" width="300" xmlns="http://www.w3.org/2000/svg" xmlns:ev="http://www.w3.org/2001/xml-events" xmlns:xlink="http://www.w3.org/1999/xlink">
	<defs/>
	<path d="M81,34c23.85687,-11.92843 118.58208,-10 143,-10c11.38618,0 48.48635,-0.45905 43,16c-2.44226,7.32677 -43.30111,6 -49,6c-32.77348,0 -109.6123,6.6822 -140,-2c-11.6316,-3.32331 -0.68696,-9.15652 3,-11" fill="none" stroke="black" stroke-linecap="round" stroke-width="5"/>
	<path d="M81,44c-22.02144,22.02144 -19.45604,103.36813 -31,138c-1.3752,4.1256 -7.63,39.37 -7,40c0.7091,0.7091 9.77512,0 10,0c22.88753,0 38,-54.6282 38,-73c0,-1.66667 -0.40423,-3.3831 0,-5c0.46106,-1.84423 1.27377,-2.54755 2,-4c1.14448,-2.28896 1.22144,-5.11072 3,-6c0.89443,-0.44721 2.10557,-0.44721 3,0c12.24066,6.12033 32.04699,22 52,22c0.33333,0 0.7643,-0.2357 1,0c2.03419,2.03419 -3.09924,8.64886 -4,10c-11.9395,17.90926 -20.63558,38.63558 -35,53c-4.88805,4.88805 -3.06928,13.13857 -6,19c-0.54633,1.09266 -3.32469,4.67531 -2,6c15.89294,15.89294 61.56338,-51.12677 66,-60c0.42164,-0.84327 1.05719,-2 2,-2" fill="none" stroke="black" stroke-linecap="round" stroke-width="5"/>
	<path d="M147,151c31.00883,0 111,7.62284 111,-34c0,-3.16812 1.44167,-10.11665 0,-13c-2.59527,-5.19053 -43.4932,-12.3803 -50,-13c-27.95464,-2.66235 -66.2393,-5.38035 -91,7c-10.28905,5.14453 -27.56156,38.21922 -10,47c12.14131,6.07065 25.15887,8 39,8c15.08178,0 30.56042,-6 44,-6" fill="none" stroke="black" stroke-linecap="round" stroke-width="5"/>
	<path d="M175,180c0,-9.77999 6,-18.49505 6,-28" fill="none" stroke="black" stroke-linecap="round" stroke-width="5"/>
	<path d="M249,135c0,17.58742 -7.16782,34.0069 -10,51c-1.61583,9.69495 -5,20.08863 -5,30c0,10.53559 -1.27136,47.13568 17,38c6.92346,-3.46173 13.88038,-7.20095 17,-15c8.18653,-20.46633 1,-49.06731 1,-71c0,-6.84103 -7.19412,-38 -14,-38" fill="none" stroke="black" stroke-linecap="round" stroke-width="5"/>
	<path d="M222,141c0,15.4385 -2.72115,37.02402 -7,52c-0.39794,1.39279 -6.43684,23 -5,23c33.03169,0 16,-55.64744 16,-73" fill="none" stroke="black" stroke-linecap="round" stroke-width="5"/>
	<path d="M237,41c6.92332,6.92332 -7.98842,40.03473 -4,52c1.24645,3.73934 2.93887,1.53057 6,0c11.44543,-5.72272 11,-16.14967 11,-28c0,-7.50942 -1,-13.81771 -1,-21" fill="none" stroke="black" stroke-linecap="round" stroke-width="5"/>
	<path d="M96,132c0,-15.77383 -6.56664,-52.30008 -2,-66c2.31894,-6.95683 5,-13.36293 5,-21" fill="none" stroke="black" stroke-linecap="round" stroke-width="5"/>
</svg>
