<?xml version="1.0" ?>
<svg baseProfile="full" height="300" version="1.1" viewBox="[0, 0, 300, 300]" width="300" xmlns="http://www.w3.org/2000/svg" xmlns:ev="http://www.w3.org/2001/xml-events" xmlns:xlink="http://www.w3.org/1999/xlink">
	<defs/>
	<path d="M44,45c36.58816,0 86.61154,-16.34712 124,-7c8.35434,2.08859 33.77951,-2.44098 37,4c0.4237,0.84741 2.1804,4.8196 1,6c-17.07043,17.07043 -101.33542,5 -126,5c-4.89746,0 -40,5.38044 -40,-4" fill="none" stroke="black" stroke-linecap="round" stroke-width="5"/>
	<path d="M44,49c0,20.52322 -15.01008,83.03023 -22,104c-2.32843,6.98528 -22.32968,32.33516 -11,38c3.27957,1.63978 7.33333,0 11,0c38.58737,0 25.30287,-66.30287 33,-74c0.7806,-0.7806 5.81117,1.81117 6,2c1.0855,1.0855 11.6257,1.81285 14,3c10.22965,5.11482 8.41607,20.13869 23,25c41.80697,13.93566 66.56125,15.8775 88,-27c6.91487,-13.82973 -18.16198,-17.26479 -25,-20c-22.43091,-8.97236 -84,-21.4246 -84,19" fill="none" stroke="black" stroke-linecap="round" stroke-width="5"/>
	<path d="M90,131c-7.83096,23.49287 -21.17971,41.89853 -26,66c-0.09683,0.48413 -3.28182,22 -2,22c20.96186,0 46,-48.2684 46,-66" fill="none" stroke="black" stroke-linecap="round" stroke-width="5"/>
	<path d="M180,127c0,20.47419 -2.22935,50.45869 -11,68c-1.28963,2.57926 1.76779,29 -1,29" fill="none" stroke="black" stroke-linecap="round" stroke-width="5"/>
	<path d="M147,148c0,18.52999 -12.13891,40.41672 -18,58c-0.64118,1.92354 -2.43372,4.56628 -1,6c1.90029,1.90029 4.85006,-2.38755 7,-4c16.63702,-12.47776 22,-37.72106 22,-58" fill="none" stroke="black" stroke-linecap="round" stroke-width="5"/>
	<path d="M169,215c0,3.46767 3.94282,6.82845 5,10c7.89908,23.69725 24.59033,0.22902 30,-16c12.46574,-37.39721 -15,-61.57324 -15,-92" fill="none" stroke="black" stroke-linecap="round" stroke-width="5"/>
</svg>
