<?xml version="1.0" ?>
<svg baseProfile="full" height="300" version="1.1" viewBox="[0, 0, 300, 300]" width="300" xmlns="http://www.w3.org/2000/svg" xmlns:ev="http://www.w3.org/2001/xml-events" xmlns:xlink="http://www.w3.org/1999/xlink">
	<defs/>
	<path d="M70,51c19.88366,-9.94183 48.29865,-8 70,-8c14.09582,0 27.9692,-2 42,-2c15.44066,0 60.16867,-4.33735 48,20c-3.26604,6.53208 -23.15934,9.85989 -30,11c-24.94883,4.15814 -58.4168,3.91664 -83,-1c-12.30488,-2.46098 -47,5.28108 -47,-15" fill="none" stroke="black" stroke-linecap="round" stroke-width="5"/>
	<path d="M73,62c-18.93695,18.93695 -17.33017,70.66035 -30,96c-10.15747,20.31495 -19.43431,39.86862 -28,57c-0.37175,0.74349 -2.11231,3.88769 -1,5c9.92572,9.92572 24.14165,-8.56942 28,-15c13.50944,-22.51574 28.64281,-43.57123 35,-69c0.82114,-3.28457 -0.9565,-7.0145 2,-8c1.41421,-0.4714 2.5538,-1.63845 4,-2c3.73955,-0.93489 6.57624,0.85875 10,2c4.49971,1.4999 13.43232,1.43232 16,4c5.36121,5.36121 4.25709,18.12855 16,24c25.69736,12.84868 110.3642,17.90741 121,-14c3.17992,-9.53976 -0.64112,-31.64112 -7,-38c-6.22142,-6.22142 -34.4138,-0.35345 -45,-3c-25.79108,-6.44777 -82.5532,-16.78721 -91,17c-1.97247,7.88986 5,10.43721 5,13" fill="none" stroke="black" stroke-linecap="round" stroke-width="5"/>
	<path d="M115,142c0,16.87015 -35.34952,83.30096 -34,86c17.87869,35.75737 41.24169,-22.06949 49,-35c3.53967,-5.89945 16,-18.47095 16,-25" fill="none" stroke="black" stroke-linecap="round" stroke-width="5"/>
	<path d="M214,163c0,32.46648 -48.88325,35.46699 -38,79c2.13957,8.55827 24.46692,-11.46692 27,-14c6.12046,-6.12046 27,-70.73699 27,-79" fill="none" stroke="black" stroke-linecap="round" stroke-width="5"/>
	<path d="M240,152c6.84166,6.84166 0.53781,76.53781 15,91c8.9272,8.9272 27,-23.11849 27,-32c0,-25.55357 -19.55125,-48.55125 -36,-65" fill="none" stroke="black" stroke-linecap="round" stroke-width="5"/>
	<path d="M82,127c0,-13.99237 -1.81414,-27.92929 1,-42c2.13275,-10.66375 12,-22.01721 12,-33" fill="none" stroke="black" stroke-linecap="round" stroke-width="5"/>
</svg>
