<?xml version="1.0" ?>
<svg baseProfile="full" height="300" version="1.1" viewBox="[0, 0, 300, 300]" width="300" xmlns="http://www.w3.org/2000/svg" xmlns:ev="http://www.w3.org/2001/xml-events" xmlns:xlink="http://www.w3.org/1999/xlink">
	<defs/>
	<path d="M33,51c23.11823,0 46.90787,8.63148 53,33c5.04109,20.16437 10,36.79423 10,58c0,27.07919 -7.62651,47.75908 -12,74c-0.95176,5.71056 -6,13.61988 -6,18" fill="none" stroke="black" stroke-linecap="round" stroke-width="5"/>
	<path d="M34,49c1.82731,0 1,3.56766 1,5c0,14 0,28 0,42c0,41.6412 -4.81875,92.6375 -22,127" fill="none" stroke="black" stroke-linecap="round" stroke-width="5"/>
	<path d="M34,50c47.71009,0 94.94946,1 143,1c4.31951,0 43.10756,-0.89244 45,1c0.38964,0.38964 0,3.38976 0,4c0,31.1812 1,64.97633 1,93c0,1.20746 -2.93272,3.28848 -4,4c-19.84279,13.22853 -68.29011,2 -92,2c-2.00331,0 -27,-1.83758 -27,3" fill="none" stroke="black" stroke-linecap="round" stroke-width="5"/>
	<path d="M209,42c0,3.5501 6.07629,10.51135 8,15c9.07582,21.1769 7.91768,45.0189 17,65c8.16153,17.95536 23.07306,31.29225 28,51c2.97008,11.88032 -7.94026,46.76103 -11,59c-0.58696,2.34785 -1.7338,5.2662 -4,3" fill="none" stroke="black" stroke-linecap="round" stroke-width="5"/>
	<path d="M210,156c-4.41765,4.41765 -3.12759,14.38276 -5,20c-4.38562,13.15686 -13.0246,29.0738 -17,41c-0.71643,2.14929 -3,3.63026 -3,5" fill="none" stroke="black" stroke-linecap="round" stroke-width="5"/>
</svg>
