<?xml version="1.0" ?>
<svg baseProfile="full" height="300" version="1.1" viewBox="[0, 0, 300, 300]" width="300" xmlns="http://www.w3.org/2000/svg" xmlns:ev="http://www.w3.org/2001/xml-events" xmlns:xlink="http://www.w3.org/1999/xlink">
	<defs/>
	<path d="M95,40c0,-1.671 1.58874,-1 3,-1c12,0 24,0 36,0c6.74989,0 57.181,-2.819 62,2c7.01249,7.01249 6.33144,73.33712 0,86" fill="none" stroke="black" stroke-linecap="round" stroke-width="5"/>
	<path d="M90,34c0,6.9074 4.17583,20.64834 1,27c-3.19823,6.39646 -4.5928,14.77841 -7,22c-11.13039,33.39116 -28.75645,46.78227 -37,88c-0.38665,1.93325 -7.20349,49.79651 -6,51c5.50297,5.50297 17.73463,-2.70326 22,-5c37.92286,-20.42 22.8062,-51.8062 38,-67c1.2255,-1.2255 2.56697,-9 4,-9c2.66667,0 0,5.33333 0,8c0,8.66667 0,17.33333 0,26c0,1.33333 -1.19257,3.40372 0,4c5.40634,2.70317 85.68032,6.31968 87,5c7.72273,-7.72273 12.48675,-22.40728 14,-33c5.4999,-38.49932 -44.33083,-30.55639 -70,-22c-3.42836,1.14279 -23,-1.36427 -23,3" fill="none" stroke="black" stroke-linecap="round" stroke-width="5"/>
	<path d="M125,181c-9.97497,4.98748 -33.43215,72.15913 -5,69c8.52552,-0.94728 13.87888,-5.5986 19,-12c5.5843,-6.98038 9.68281,-15.22906 14,-23c5.24213,-9.43583 4,-19.37672 4,-30" fill="none" stroke="black" stroke-linecap="round" stroke-width="5"/>
	<path d="M203,168c-3.58063,0 -4.98953,18.96858 -6,22c-9.07616,27.22848 -20.61858,57.5541 2,83c2.88169,3.2419 8.2573,6.77851 13,5c26.22374,-9.8339 31.73082,-57.08453 19,-80c-5.28191,-9.50743 -13.91313,-25.30438 -25,-29c-0.85427,-0.28476 -2,-2.13679 -2,0" fill="none" stroke="black" stroke-linecap="round" stroke-width="5"/>
	<path d="M122,37c-0.76012,1.52023 -0.72058,3.32345 -1,5c-0.33333,2 -1,3.97241 -1,6c0,13.4319 3,25.61128 3,39c0,0.2311 -0.50312,19.91615 0,20c6.17824,1.02971 48.73778,-0.47555 51,-5c3.52665,-7.0533 -2,-49.21479 -2,-63" fill="none" stroke="black" stroke-linecap="round" stroke-width="5"/>
	<path d="M107,137c0,-4.36948 7.1138,-13.1138 10,-16" fill="none" stroke="black" stroke-linecap="round" stroke-width="5"/>
</svg>
