<?xml version="1.0" ?>
<svg baseProfile="full" height="300" version="1.1" viewBox="[0, 0, 300, 300]" width="300" xmlns="http://www.w3.org/2000/svg" xmlns:ev="http://www.w3.org/2001/xml-events" xmlns:xlink="http://www.w3.org/1999/xlink">
	<defs/>
	<path d="M94,149c-0.76012,-1.52023 -1,-3.30033 -1,-5c0,-1.66667 0,-3.33333 0,-5c0,-18.08111 -2.42151,-42.31397 2,-60c0.27231,-1.08923 1.75377,-4.58459 3,-5c7.03517,-2.34506 20.74346,8.56414 31,6c13.24942,-3.31236 59.77418,-18.22582 70,-8c1.38301,1.38301 2,6.13102 2,8c0,19.57712 7.20369,40.01843 11,59c0.67817,3.39083 6,7.27706 6,10c0,2.68742 -5.50479,0.00192 -8,1c-18.56316,7.42526 -34.80897,0.06617 -54,-1c-15.02938,-0.83497 -26.23875,-6.70646 -40,-9c-4.0022,-0.66703 -21,9.38609 -21,6" fill="none" stroke="black" stroke-linecap="round" stroke-width="5"/>
	<path d="M95,139c3.9336,11.8008 7,23.57748 7,36c0,2.66667 2.66667,8 0,8c-5.84496,0 2.69667,-6.77251 3,-7" fill="none" stroke="black" stroke-linecap="round" stroke-width="5"/>
	<path d="M191,152c3.10737,3.10737 13.41659,48.58341 13,49c-1.84089,1.84089 -2.67143,-4.83572 -5,-6" fill="none" stroke="black" stroke-linecap="round" stroke-width="5"/>
	<path d="M101,176c29.009,-4.14414 55.37712,-2.74252 85,-1c8.15767,0.47986 24,-3.17177 24,5" fill="none" stroke="black" stroke-linecap="round" stroke-width="5"/>
	<path d="M122,173c-3.30946,16.54731 -23.1019,51.39218 1,60c17.90572,6.3949 39.25096,-0.45019 57,-4c8.13503,-1.62701 28.55675,-3.19594 34,-10c2.34382,-2.92977 -2.99591,-13.88026 -4,-16c-3.12956,-6.60684 -7.07646,-12.94703 -9,-20c-0.44721,-1.63978 -1,-5 -1,-5c0,0 -2.85771,3.42885 -4,4" fill="none" stroke="black" stroke-linecap="round" stroke-width="5"/>
	<path d="M138,228c3.05436,10.69026 17.92655,59.41469 -5,64c-10.91885,2.18377 -20.6362,-14.84534 -28,-20c-3.39574,-2.37701 -7.28187,-5.14094 -11,-7c-0.66667,-0.33333 -2.74536,-1 -2,-1c11.22051,0 19.87112,8.02148 32,6c17.15873,-2.85979 35.41964,-9 53,-9c0.70248,0 4.50413,-0.49587 5,0c5.34479,5.34479 -0.09477,18.90523 4,23c3.7778,3.7778 36.18073,-14.36146 39,-20c9.26659,-18.53318 -9,-38.13019 -9,-56" fill="none" stroke="black" stroke-linecap="round" stroke-width="5"/>
</svg>
