<?xml version="1.0" ?>
<svg baseProfile="full" height="300" version="1.1" viewBox="[0, 0, 300, 300]" width="300" xmlns="http://www.w3.org/2000/svg" xmlns:ev="http://www.w3.org/2001/xml-events" xmlns:xlink="http://www.w3.org/1999/xlink">
	<defs/>
	<path d="M103,143c0,-48.77653 -31.20417,-90.03403 47,-77c9.91841,1.65307 20.20021,0.04004 30,2c10.1293,2.02586 22.6617,2 33,2c1.1302,0 5.09857,-1.90143 6,-1c3.93857,3.93857 3.23065,15.69194 5,21c2.73346,8.20037 7.63273,33.36727 0,41c-1.91911,1.91911 -9.36147,0.47229 -12,1c-18.15349,3.6307 -43.32088,11.66978 -62,7c-16.95912,-4.23978 -36.58283,-8 -54,-8" fill="none" stroke="black" stroke-linecap="round" stroke-width="5"/>
	<path d="M85,124c0,1.66667 1.76118,2.88506 3,4c5.46202,4.91582 55.6124,44.3876 45,55" fill="none" stroke="black" stroke-linecap="round" stroke-width="5"/>
	<path d="M231,124c4.83456,4.83456 23,29.88476 23,37" fill="none" stroke="black" stroke-linecap="round" stroke-width="5"/>
	<path d="M110,143c29.56879,0 57.53859,-0.05386 87,-3c1.60706,-0.16071 53.24505,-11.24505 47,-5" fill="none" stroke="black" stroke-linecap="round" stroke-width="5"/>
	<path d="M124,147c7.95698,7.95698 6.54752,25.66064 15,32c5.86165,4.39624 27.41373,-2.30172 33,-3c8.72237,-1.0903 34.87193,1.06404 43,-3c13.74601,-6.873 1,-28.29127 1,-38" fill="none" stroke="black" stroke-linecap="round" stroke-width="5"/>
	<path d="M156,176c0,16.46052 -8.95009,27.75047 -12,43c-2.60007,13.00034 -1.94654,52.52673 -25,41c-5.43468,-2.71734 -11.418,-4.62699 -15,-10c-4.00818,-6.01226 -11.77421,-18.22579 -5,-25c0.05391,-0.05391 23.42743,3 26,3c24.22672,0 47.78228,-8 72,-8c11.92919,0 24.47432,-1 36,-1c0.41176,0 2.73529,-0.26471 3,0c4.68162,4.68162 0.29563,18.70437 -5,24c-5.48491,5.48491 -10.79964,0.28086 -13,-5c-6.89571,-16.5497 7.79673,-37.33878 -1,-52c-2.86652,-4.77754 -6.10115,-10.60689 -7,-16c-0.05144,-0.30864 0,-11.43458 0,-6" fill="none" stroke="black" stroke-linecap="round" stroke-width="5"/>
</svg>
