<?xml version="1.0" ?>
<svg baseProfile="full" height="300" version="1.1" viewBox="[0, 0, 300, 300]" width="300" xmlns="http://www.w3.org/2000/svg" xmlns:ev="http://www.w3.org/2001/xml-events" xmlns:xlink="http://www.w3.org/1999/xlink">
	<defs/>
	<path d="M98,85c3.83853,3.83853 -2,46.88004 -2,57" fill="none" stroke="black" stroke-linecap="round" stroke-width="5"/>
	<path d="M108,74c20.45419,0 43.57847,5.42911 64,7c15.81402,1.21646 31.16011,3 47,3c1,0 2.29289,-0.70711 3,0c7.18377,7.18377 8.1027,21.51349 10,31c0.90948,4.54738 6.35141,25.29719 4,30c-0.04414,0.08828 -1.73954,-2.90233 -2,-3c-11.24202,-4.21576 -30.26265,-5 -41,-5c-33.0722,0 -65.08441,7 -98,7" fill="none" stroke="black" stroke-linecap="round" stroke-width="5"/>
	<path d="M95,144c0,5.16757 -1.55721,17.25706 2,22c6.68444,8.91258 14.55223,7.77612 23,12c24.05652,12.02826 65.42704,39.57296 92,13c11.13161,-11.13161 10.99609,-24.03126 9,-40c-0.3369,-2.69518 -2.36666,-20.63334 -6,-17" fill="none" stroke="black" stroke-linecap="round" stroke-width="5"/>
	<path d="M122,137c0,7.94164 13.60336,21.95462 18,28c2.93211,4.03165 2,12.21261 2,9" fill="none" stroke="black" stroke-linecap="round" stroke-width="5"/>
	<path d="M192,161c6.80318,3.40159 30.14457,30.71486 22,28" fill="none" stroke="black" stroke-linecap="round" stroke-width="5"/>
	<path d="M126,192c9.03413,27.1024 13.47333,56.94891 7,85c-1.64276,7.11864 -4.89703,30.40198 -19,21c-7.72668,-5.15112 -14.02012,-12.01724 -21,-18c-1.26543,-1.08465 -2.82149,-1.82149 -4,-3c-1.18791,-1.18791 -11.45719,-17 -8,-17c6.25601,0 10.39141,4.14129 18,3c11.38113,-1.70717 22.67076,-3.97692 34,-6c13.28207,-2.3718 62.43383,-9.04411 73,-2c20.90994,13.93996 -7.35691,29.64309 -13,24c-5.71982,-5.71982 10.42916,-54.58313 11,-66c0.37306,-7.46114 5,-34.41769 5,-32" fill="none" stroke="black" stroke-linecap="round" stroke-width="5"/>
</svg>
