<?xml version="1.0" ?>
<svg baseProfile="full" height="300" version="1.1" viewBox="[0, 0, 300, 300]" width="300" xmlns="http://www.w3.org/2000/svg" xmlns:ev="http://www.w3.org/2001/xml-events" xmlns:xlink="http://www.w3.org/1999/xlink">
	<defs/>
	<path d="M79,163c-5.04255,-10.08509 -6,-30.63017 -6,-42c0,-0.41176 -0.26471,-2.73529 0,-3c2.13725,-2.13725 13.40809,-1.30607 17,-4c2.97662,-2.23246 -10.48395,-28.11824 -4,-31c14.89145,-6.61842 34.85762,-6.53251 51,-8c9.25879,-0.84171 27.48651,-9.25675 36,-5c5.09457,2.54729 -1.49726,24.00549 1,29c0.73628,1.47256 1.32679,1.32679 2,2c0.18426,0.18426 1.81574,1.81574 2,2c0.2357,0.2357 -0.2357,0.7643 0,1c2.03561,2.03561 9.38811,-1.22378 11,2c0.73178,1.46356 7,48.54177 7,52c0,0.84553 0.52033,3.47967 0,4c-1.5116,1.5116 -99.37155,6.10474 -106,5c-1.5584,-0.25973 -2.42243,-4 -5,-4" fill="none" stroke="black" stroke-linecap="round" stroke-width="5"/>
	<path d="M86,179c0,10.73806 29.02738,11 38,11c27.71023,0 45.83534,-8.50086 68,-18c0.47967,-0.20557 3.83185,-1.58408 5,-1c4.21986,2.10993 5.03558,11.55337 8,16c1.17881,1.76821 8,8.72671 8,11c0,1.05409 -2.25464,0.25464 -3,1c-12.9586,12.9586 -21.25079,13.78135 -39,16c-29.93619,3.74202 -34.97685,10.51157 -64,-4c-2.8165,-1.40825 -10.87432,2.12568 -13,0c-1.39213,-1.39213 -4,-24.46982 -4,-28" fill="none" stroke="black" stroke-linecap="round" stroke-width="5"/>
	<path d="M85,166c1.90951,0 1,5.24806 1,7c0,7.66771 -25.70629,42 -31,42" fill="none" stroke="black" stroke-linecap="round" stroke-width="5"/>
	<path d="M94,203c0.4714,0 1,0.5286 1,1c0,12.26339 -4,23.61173 -4,36" fill="none" stroke="black" stroke-linecap="round" stroke-width="5"/>
	<path d="M204,197c0,11.21887 6.097,12.893 10,22c1.3742,3.20646 4,16.03963 4,14" fill="none" stroke="black" stroke-linecap="round" stroke-width="5"/>
	<path d="M96,226c14.09294,7.04647 34.8578,-4.5711 48,2c13.6784,6.8392 52.08473,13.91527 65,1" fill="none" stroke="black" stroke-linecap="round" stroke-width="5"/>
</svg>
