<?xml version="1.0" ?>
<svg baseProfile="full" height="300" version="1.1" viewBox="[0, 0, 300, 300]" width="300" xmlns="http://www.w3.org/2000/svg" xmlns:ev="http://www.w3.org/2001/xml-events" xmlns:xlink="http://www.w3.org/1999/xlink">
	<defs/>
	<path d="M106,139c-16.08911,8.04455 -22.95399,-8.04601 -19,-12c5.37808,-5.37808 12.18577,1.87615 15,0c3.76008,-2.50672 0.18163,-10.39388 5,-12c7.24051,-2.4135 16.15845,-7.21584 24,-8c9.615,-0.9615 39.50413,-3.24793 50,2c3.78786,1.89393 0.98481,8.98481 3,11c4.79711,4.79711 10.0154,-4.96921 16,7c2.78141,5.56282 -5.96974,4 -9,4c-8.542,0 -24.14759,3.57379 -33,8c-9.68882,4.84441 -44.97023,4 -57,4" fill="none" stroke="black" stroke-linecap="round" stroke-width="5"/>
	<path d="M118,143c1.33264,1.33264 1,2.20293 1,4c0,2.92521 -6.82422,82.76957 -1,42" fill="none" stroke="black" stroke-linecap="round" stroke-width="5"/>
	<path d="M131,144c1.20185,0 1.66983,1.84439 2,3c4.05109,14.17883 -1.58236,34.83528 5,48c0.61464,1.22927 1,5.37437 1,4c0,-1.66667 0,-3.33333 0,-5" fill="none" stroke="black" stroke-linecap="round" stroke-width="5"/>
	<path d="M157,135c0,14.46848 -1,29.39052 -1,44c0,4.97468 2,22.36459 2,17" fill="none" stroke="black" stroke-linecap="round" stroke-width="5"/>
	<path d="M170,139c3.62167,10.86502 1.28978,23.15913 4,34c0.65606,2.62423 0,6.27986 0,9c0,2.33333 0,9.33333 0,7c0,-4.03049 1.51497,-7.28744 3,-11" fill="none" stroke="black" stroke-linecap="round" stroke-width="5"/>
	<path d="M185,133c5.04779,25.23897 5,47.10927 5,73" fill="none" stroke="black" stroke-linecap="round" stroke-width="5"/>
	<path d="M107,149c0,16.75494 -5.24234,34.45404 -8,51c-0.02082,0.12491 -0.28388,4.78709 0,5c24.84506,18.6338 60.35287,-21.64713 84,2c2.56047,2.56047 9.52109,-1.43674 11,3c1.56636,4.69909 -9.17028,10.17028 -11,12c-0.28396,0.28396 14.35156,11.47266 10,18c-5.21886,7.82829 -77.26027,26.73973 -85,19c-0.70894,-0.70894 -5.29284,-4.93926 -6,-6c-4.54328,-6.81492 9.20598,-16.58804 8,-19c-3.20944,-6.41889 -12.51761,-7.03521 -16,-14c-2.73678,-5.47356 2,-19.20628 2,-16" fill="none" stroke="black" stroke-linecap="round" stroke-width="5"/>
	<path d="M94,226c0,15.96419 4.87125,34.35625 8,50c0.32395,1.61975 -1.41678,9.58322 0,11c0.2357,0.2357 0.66667,0 1,0" fill="none" stroke="black" stroke-linecap="round" stroke-width="5"/>
	<path d="M114,265c8.53283,0 -10.71996,55.53327 4,31c1.38267,-2.30444 2.66667,-4.66667 4,-7" fill="none" stroke="black" stroke-linecap="round" stroke-width="5"/>
	<path d="M182,241c1.58114,1.58114 2.8143,3.77166 3,6c1.45172,17.42069 3.15398,34.9239 6,52c0.1096,0.6576 -0.59628,1.70186 0,2c4.72333,2.36167 7,-12.52611 7,-17" fill="none" stroke="black" stroke-linecap="round" stroke-width="5"/>
	<path d="M197,215c0,7.87638 15.61825,52 0,52" fill="none" stroke="black" stroke-linecap="round" stroke-width="5"/>
</svg>
