<?xml version="1.0" ?>
<svg baseProfile="full" height="300" version="1.1" viewBox="[0, 0, 300, 300]" width="300" xmlns="http://www.w3.org/2000/svg" xmlns:ev="http://www.w3.org/2001/xml-events" xmlns:xlink="http://www.w3.org/1999/xlink">
	<defs/>
	<path d="M107,119c12.33089,-8.22059 37.49674,-13.83442 55,-8c4.17744,1.39248 8.86156,7 13,7" fill="none" stroke="black" stroke-linecap="round" stroke-width="5"/>
	<path d="M109,119c-2.24822,0 -3,-5.13882 -3,-7c0,-14.48173 -1.26364,-16.24545 13,-21c3.1836,-1.0612 52.36994,2.68497 55,4c9.46547,4.73273 6.88023,20.55989 0,24c-2.78422,1.39211 -7.07081,-1 -10,-1" fill="none" stroke="black" stroke-linecap="round" stroke-width="5"/>
	<path d="M118,114c0,16.33333 0,32.66667 0,49" fill="none" stroke="black" stroke-linecap="round" stroke-width="5"/>
	<path d="M134,119c0,16.67721 3,34.61573 3,51" fill="none" stroke="black" stroke-linecap="round" stroke-width="5"/>
	<path d="M148,114c0,16.14705 3,29.89722 3,46" fill="none" stroke="black" stroke-linecap="round" stroke-width="5"/>
	<path d="M168,119c0,13.63988 -2,30.04716 -2,45" fill="none" stroke="black" stroke-linecap="round" stroke-width="5"/>
	<path d="M178,170c-21.75347,0 -46.28489,-9 -67,-9c-0.33333,0 -0.7643,-0.2357 -1,0c-1.05409,1.05409 -1.44636,2.61591 -2,4c-10.88592,27.21481 41.2766,28 56,28c1.33333,0 3.40372,1.19257 4,0c4.83504,-9.67008 -2.84215,-11.84215 -6,-15c-2.58012,-2.58012 2,-10.90327 2,-12" fill="none" stroke="black" stroke-linecap="round" stroke-width="5"/>
	<path d="M112,177c0,15.71813 6,31.92927 6,47" fill="none" stroke="black" stroke-linecap="round" stroke-width="5"/>
	<path d="M125,189c5.86187,5.86187 6,22.31255 6,31" fill="none" stroke="black" stroke-linecap="round" stroke-width="5"/>
	<path d="M153,195c4.41535,4.41535 5,22.09739 5,29" fill="none" stroke="black" stroke-linecap="round" stroke-width="5"/>
	<path d="M164,191c3.22313,4.83469 10,20.52577 10,27" fill="none" stroke="black" stroke-linecap="round" stroke-width="5"/>
</svg>
