<?xml version="1.0" ?>
<svg baseProfile="full" height="300" version="1.1" viewBox="[0, 0, 300, 300]" width="300" xmlns="http://www.w3.org/2000/svg" xmlns:ev="http://www.w3.org/2001/xml-events" xmlns:xlink="http://www.w3.org/1999/xlink">
	<defs/>
	<path d="M51,53c-4.76715,0 -41.25492,-2.25492 -30,9c1.83333,1.83333 -1.83333,9.16667 0,11c7.50188,7.50188 27.15279,2.2882 38,5c44.18477,11.04619 97.2753,1 143,1c7.13015,0 51.96567,2.03433 55,-1c1.20185,-1.20185 -1,-3.30033 -1,-5c0,-2.92461 1.97914,-18.02086 0,-20c-1.71255,-1.71255 -34.01628,1 -39,1c-39.674,0 -79.17966,-1 -119,-1c-10.50534,0 -29.8022,5.5989 -39,1c-2.43799,-1.21899 -10.99353,-1 -13,-1c-0.82052,0 -7.32624,0 -5,0" fill="none" stroke="black" stroke-linecap="round" stroke-width="5"/>
	<path d="M234,89c0,27.15414 -16,53.37164 -16,80" fill="none" stroke="black" stroke-linecap="round" stroke-width="5"/>
	<path d="M181,93c0,3.63693 4.20437,10.2262 5,15c2.21619,13.29715 -1,27.73162 -1,41" fill="none" stroke="black" stroke-linecap="round" stroke-width="5"/>
	<path d="M151,94c0,19.03026 2,37.81647 2,57" fill="none" stroke="black" stroke-linecap="round" stroke-width="5"/>
	<path d="M123,100c0,18.56688 2,39.01353 2,57" fill="none" stroke="black" stroke-linecap="round" stroke-width="5"/>
	<path d="M82,97c0,19.09962 3,44.562 3,66" fill="none" stroke="black" stroke-linecap="round" stroke-width="5"/>
	<path d="M54,102c2.70117,0 2.32396,3.97188 3,6c6.04911,18.14732 -1,36.5954 -1,54" fill="none" stroke="black" stroke-linecap="round" stroke-width="5"/>
	<path d="M39,101c0,28.71427 -5,57.73183 -5,86" fill="none" stroke="black" stroke-linecap="round" stroke-width="5"/>
	<path d="M39,198c-0.74536,0 -0.47295,-1.47295 -1,-2c-3.42904,-3.42904 -1.26214,-4.8034 3,-8c18.30461,-13.72846 28.66417,-17 52,-17c28.15156,0 91.36135,10.15966 116,4c4.63966,-1.15992 41.67644,-5.32356 44,-3c1.91148,1.91148 -0.64732,11.41072 0,14c0.87803,3.51213 15.12678,39.25357 17,43c0.44669,0.89339 2.03062,4.96938 2,5c-3.59751,3.59751 -57.97017,14.39403 -66,16c-10.42027,2.08405 -24.01551,-2.32816 -34,1c-9.86872,3.28957 -100.16644,20.83356 -106,15c-9.81197,-9.81197 -14.70238,-19.55357 -23,-32c-9.10529,-13.65793 -17,-35.70835 -17,-51" fill="none" stroke="black" stroke-linecap="round" stroke-width="5"/>
	<path d="M271,238c0,14.8162 3.75159,80.24841 -5,89c-3.45675,3.45675 -9.50652,-9 -12,-9" fill="none" stroke="black" stroke-linecap="round" stroke-width="5"/>
	<path d="M212,249c-2.04973,10.24866 -1.63205,20.73888 -4,31c-2.72971,11.82876 -12,25.91865 -12,38" fill="none" stroke="black" stroke-linecap="round" stroke-width="5"/>
	<path d="M65,263c4.09803,8.19605 0.09219,55 -7,55" fill="none" stroke="black" stroke-linecap="round" stroke-width="5"/>
	<path d="M31,212c6.15047,0 3.54925,32.70451 3,36c-4.41806,26.50834 -13.86936,73.86936 -34,94" fill="none" stroke="black" stroke-linecap="round" stroke-width="5"/>
	<path d="M41,130c0,7.34485 -2,17.78602 -2,24" fill="none" stroke="black" stroke-linecap="round" stroke-width="5"/>
	<path d="M31,135c0,5.865 -2,10.75794 -2,17" fill="none" stroke="black" stroke-linecap="round" stroke-width="5"/>
	<path d="M65,116c0,9.2162 -3,18.97956 -3,27" fill="none" stroke="black" stroke-linecap="round" stroke-width="5"/>
</svg>
