<?xml version="1.0" ?>
<svg baseProfile="full" height="300" version="1.1" viewBox="[0, 0, 300, 300]" width="300" xmlns="http://www.w3.org/2000/svg" xmlns:ev="http://www.w3.org/2001/xml-events" xmlns:xlink="http://www.w3.org/1999/xlink">
	<defs/>
	<path d="M78,105c-15.98655,0 -40.16972,33.66056 -32,50c9.52895,19.05791 48.14836,-7.55493 57,19c10.23985,30.71956 -41.19349,41.22605 -38,54c3.9194,15.67762 26.89723,16.27103 39,18c35.54111,5.0773 53.24351,-13.93263 80,-34c11.81742,-8.86306 29.52898,-20.05797 36,-33c1.3251,-2.65019 -0.54875,-3.51625 -2,-4c-16.49644,-5.49881 -43.07809,2.92191 -56,-10c-6.0339,-6.0339 11.89107,-21.92738 15,-24c22.5585,-15.039 43.24497,-36.06627 14,-58c-12.8934,-9.67005 -32.64686,-8 -48,-8c-48.78299,0 -76,6.66784 -76,56" fill="none" stroke="black" stroke-linecap="round" stroke-width="5"/>
</svg>
