<?xml version="1.0" ?>
<svg baseProfile="full" height="300" version="1.1" viewBox="[0, 0, 300, 300]" width="300" xmlns="http://www.w3.org/2000/svg" xmlns:ev="http://www.w3.org/2001/xml-events" xmlns:xlink="http://www.w3.org/1999/xlink">
	<defs/>
	<path d="M41,211c0,15.64066 -11,31.20878 -11,46c0,1.41126 0.671,3 -1,3" fill="none" stroke="black" stroke-linecap="round" stroke-width="5"/>
	<path d="M67,226c6.92793,6.92793 -15,53.62771 -15,66" fill="none" stroke="black" stroke-linecap="round" stroke-width="5"/>
	<path d="M129,235c0,26.66667 0,53.33333 0,80" fill="none" stroke="black" stroke-linecap="round" stroke-width="5"/>
	<path d="M172,232c0,21.95423 3,43.89158 3,66" fill="none" stroke="black" stroke-linecap="round" stroke-width="5"/>
	<path d="M35,205c26.19811,0 52.82164,6.90573 79,9c17.69144,1.41532 35.36445,2.53037 53,4c7.01242,0.58437 14.1368,2 21,2c2.35702,0 7,3.35702 7,1c0,-6.81467 -4.69592,-15.9531 -4,-25c0.99376,-12.9189 7,-26.5321 7,-39c0,-2.68742 -5.36477,0.47295 -8,1c-6.84141,1.36828 -14.04845,2.56553 -21,3c-14.86522,0.92908 -30.10586,0 -45,0c-24.18313,0 -47.90792,-1.732 -72,-3c-7.01031,-0.36896 -14.02588,-0.30259 -21,-1c-3.00348,-0.30035 -9,-4.01846 -9,-1c0,1.47783 7.05108,13.67877 8,17c2.45355,8.58743 1,20.85347 1,30" fill="none" stroke="black" stroke-linecap="round" stroke-width="5"/>
	<path d="M51,27c-2.0865,0 -1.7894,3.31518 -2,5c-2.18327,17.46615 -8,34.61764 -8,52" fill="none" stroke="black" stroke-linecap="round" stroke-width="5"/>
	<path d="M58,45c13.03899,0 2,48.09768 2,57" fill="none" stroke="black" stroke-linecap="round" stroke-width="5"/>
	<path d="M99,23c0,34.99268 -5,69.75729 -5,105" fill="none" stroke="black" stroke-linecap="round" stroke-width="5"/>
	<path d="M131,53c0,22.2045 -1,45.1795 -1,67" fill="none" stroke="black" stroke-linecap="round" stroke-width="5"/>
	<path d="M174,39c0,26.62796 1,54.92745 1,81" fill="none" stroke="black" stroke-linecap="round" stroke-width="5"/>
	<path d="M206,58c12.91441,0 12.24744,82.24744 19,89" fill="none" stroke="black" stroke-linecap="round" stroke-width="5"/>
	<path d="M271,64c0,37.55549 2,76.32745 2,113" fill="none" stroke="black" stroke-linecap="round" stroke-width="5"/>
</svg>
