<?xml version="1.0" ?>
<svg baseProfile="full" height="300" version="1.1" viewBox="[0, 0, 300, 300]" width="300" xmlns="http://www.w3.org/2000/svg" xmlns:ev="http://www.w3.org/2001/xml-events" xmlns:xlink="http://www.w3.org/1999/xlink">
	<defs/>
	<path d="M56,25c-16.03096,0 -25.77256,3.54512 -33,18c-0.51948,1.03896 -4.15795,6.84205 -3,8c2.83942,2.83942 49.61495,1 59,1c38.37649,0 160.17442,19.47674 172,-16c0.24571,-0.73713 0.73779,-10.26221 0,-11c-1.35018,-1.35018 -44.98067,-4 -49,-4c-50.45197,0 -101.85813,6 -151,6" fill="none" stroke="black" stroke-linecap="round" stroke-width="5"/>
	<path d="M220,59c0,-2 0,4 0,6c0,6.95021 0.40779,14.06753 0,21c-1.00262,17.04453 -3,33.9409 -3,51" fill="none" stroke="black" stroke-linecap="round" stroke-width="5"/>
	<path d="M194,60c0,23.86844 -2,47.42963 -2,71" fill="none" stroke="black" stroke-linecap="round" stroke-width="5"/>
	<path d="M165,52c0,33.35638 -13,67.64363 -13,100" fill="none" stroke="black" stroke-linecap="round" stroke-width="5"/>
	<path d="M127,63c0,23.48058 10.8386,46.80702 6,71c-0.2864,1.43199 -2.11598,7 -3,7" fill="none" stroke="black" stroke-linecap="round" stroke-width="5"/>
	<path d="M100,50c-1.68102,0 -1.55662,8.78308 -2,11c-5.00574,25.02872 -10,52.39183 -10,78" fill="none" stroke="black" stroke-linecap="round" stroke-width="5"/>
	<path d="M53,55c0,21.11081 7,42.98743 7,65c0,1.66201 1.00616,8 -1,8" fill="none" stroke="black" stroke-linecap="round" stroke-width="5"/>
	<path d="M41,64c0,15.04502 -5.46951,31.69514 -7,47c-0.81686,8.16857 2,18.20603 2,24" fill="none" stroke="black" stroke-linecap="round" stroke-width="5"/>
	<path d="M9,151c5.55261,0 39.73519,-28.39074 58,-31c39.74311,-5.67759 84.1432,-4.42853 124,0c8.61066,0.95674 21.23618,3.19095 30,1c11.24499,-2.81125 47.56853,-8.86294 54,4c2.9907,5.98139 9.28241,13.84724 12,22c4.23297,12.69891 0.72224,28.88895 4,42c2.29443,9.17773 14.31727,30.36545 9,41c-11.34584,22.69169 -101.58828,19.32354 -123,22c-13.6232,1.7029 -131.05427,9.94573 -139,2c-3.31808,-3.31808 -2.933,-17.177 -5,-22c-13.50411,-31.50958 -18,-64.76577 -18,-99" fill="none" stroke="black" stroke-linecap="round" stroke-width="5"/>
	<path d="M24,210c19.80449,0 12.53062,30.53062 19,37c1.47259,1.47259 51.49642,-5.99935 57,-7c41.74462,-7.58993 90.96442,-5 133,-5c14.72646,0 28.61845,-3 43,-3c1.1256,0 7.12866,0.87134 8,0c2.89438,-2.89438 -13,-50.43736 -13,-60" fill="none" stroke="black" stroke-linecap="round" stroke-width="5"/>
	<path d="M14,156c0,30.83287 -0.40347,61.61387 -8,92c-1.03502,4.14009 -10.09225,26.90775 -5,32" fill="none" stroke="black" stroke-linecap="round" stroke-width="5"/>
	<path d="M40,259c10.16832,0 -2,45.0943 -2,55" fill="none" stroke="black" stroke-linecap="round" stroke-width="5"/>
	<path d="M257,248c-1.97299,0 -0.78214,2.2571 -1,4c-2.46596,19.72765 -10,39.11802 -10,59" fill="none" stroke="black" stroke-linecap="round" stroke-width="5"/>
	<path d="M288,239c0,13.23245 -1.94354,81.05646 3,86" fill="none" stroke="black" stroke-linecap="round" stroke-width="5"/>
	<path d="M100,176c-3.72871,0 -6.91722,-1 -11,-1c-14.54549,0 21.11144,17.04458 26,19c1.9574,0.78296 6,2 6,2c0,0 -4.01179,0.60236 -6,1c-9.90574,1.98115 -19.76586,2 -30,2" fill="none" stroke="black" stroke-linecap="round" stroke-width="5"/>
	<path d="M134,180c0,-0.18039 -19.82909,-4.48728 -16,7c4.59149,13.77446 16.30128,-0.34936 23,3c6.74186,3.37093 3.44483,23 14,23" fill="none" stroke="black" stroke-linecap="round" stroke-width="5"/>
	<path d="M158,180c9.09895,0 19.87869,23.06066 30,18c5.25399,-2.62699 5,-28.68993 5,-35" fill="none" stroke="black" stroke-linecap="round" stroke-width="5"/>
	<path d="M212,175c-12.37436,0 -19.89735,9.15397 -12,21c12.12404,18.18606 23,-17.15588 23,0" fill="none" stroke="black" stroke-linecap="round" stroke-width="5"/>
	<path d="M223,195c9.45865,0 1.76592,-13.76592 6,-18c5.58111,-5.58111 23.43514,5 27,5" fill="none" stroke="black" stroke-linecap="round" stroke-width="5"/>
	<path d="M252,182c1.02382,0 13,8.54668 13,8c0,-2.79102 -10.43844,-20.56156 -15,-16c-9.14571,9.14571 13.35399,42 25,42" fill="none" stroke="black" stroke-linecap="round" stroke-width="5"/>
</svg>
