<?xml version="1.0" ?>
<svg baseProfile="full" height="300" version="1.1" viewBox="[0, 0, 300, 300]" width="300" xmlns="http://www.w3.org/2000/svg" xmlns:ev="http://www.w3.org/2001/xml-events" xmlns:xlink="http://www.w3.org/1999/xlink">
	<defs/>
	<path d="M168,139c-10.89846,0 -27.41737,-15.86088 -48,-9c-15.86582,5.28861 -20.67049,11.67049 -33,24c-6.2677,6.2677 -15.54235,17.8306 -13,28c3.43806,13.75224 30.96927,13.48463 40,18c15.39181,7.69591 77.20674,6.79326 89,-5c4.33466,-4.33466 2.15248,-12.45743 4,-18c1.49094,-4.47281 2.20254,-13.59492 0,-18c-7.03057,-14.06115 -25.87831,-11.87831 -36,-22c-6.8374,-6.8374 -19.97995,-9 -31,-9" fill="none" stroke="black" stroke-linecap="round" stroke-width="5"/>
	<path d="M192,195c8.281,0 15.27753,12 23,12" fill="none" stroke="black" stroke-linecap="round" stroke-width="5"/>
	<path d="M105,191c0,-2.63298 -35.18227,7 -33,7" fill="none" stroke="black" stroke-linecap="round" stroke-width="5"/>
	<path d="M73,199c5.64584,11.29169 5.17678,43.05539 4,56c-0.46982,5.16805 -1.16798,13.41995 -3,18c-0.387,0.96749 -2,11.39808 -2,8" fill="none" stroke="black" stroke-linecap="round" stroke-width="5"/>
	<path d="M220,206c0,27.03654 -11.81914,59.08519 -7,88c2.16273,12.97635 14,17.89665 14,29" fill="none" stroke="black" stroke-linecap="round" stroke-width="5"/>
	<path d="M71,163c1.7877,0 7,5 7,5c0,0 -3.68831,0 -4,0c-11.36226,0 -23.4409,-3 -34,-3c-0.40541,0 -5,0 -5,0c0,0 3.68792,0.43961 4,2c3.84908,19.24538 -0.91467,39.23204 -3,58c-1.83306,16.49752 -18,34.62166 -18,48c0,0.84553 -0.52033,3.47967 0,4c1.6647,1.6647 8.13929,-23.41787 9,-26c5.24167,-15.725 13.77341,-41.45318 6,-57c-0.44721,-0.89443 0,-2 0,-3c0,-13.59693 4.90928,-30.72783 9,-43c4.53088,-13.59265 2,-35.39712 2,-51c0,-3.72372 3.12412,-26.87588 2,-28c-2.74837,-2.74837 -23,6 -23,6c0,0 6.59105,-1.88316 7,-2c18.66266,-5.33219 36.1403,-14.04677 54,-20c32.09329,-10.69776 124.53547,-10.82151 157,0c8.76076,2.92025 30.21285,0.21285 36,6c0.33333,0.33333 -0.5286,1 -1,1c-9.90939,0 -19.9301,3 -30,3c-7.8434,0 -31.30583,0.84708 -39,-3c-2.51924,-1.25962 -18.08532,-11.91468 -21,-9c-0.79591,0.79591 2.53876,6.61629 3,8c1.78036,5.34107 1.89655,11.48277 3,17c4.51718,22.58591 -1,45.14722 -1,67" fill="none" stroke="black" stroke-linecap="round" stroke-width="5"/>
</svg>
