<?xml version="1.0" ?>
<svg baseProfile="full" height="300" version="1.1" viewBox="[0, 0, 300, 300]" width="300" xmlns="http://www.w3.org/2000/svg" xmlns:ev="http://www.w3.org/2001/xml-events" xmlns:xlink="http://www.w3.org/1999/xlink">
	<defs/>
	<path d="M57,92c7.75071,0 56.10982,-22.10982 61,-27c4.42799,-4.42799 56.8404,1.2899 66,-1c12.07538,-3.01885 28.2619,-0.63095 39,-6c0.29814,-0.14907 0.7643,-0.2357 1,0c1.74356,1.74356 -6.39396,19.57583 -7,22c-2.30209,9.20836 -16.92351,87.07649 -12,92c0.14103,0.14103 2.79487,0.10256 3,0c12.19342,-6.09671 32.84134,1 46,1c1.02568,0 4.86292,2.13708 6,1c4.05197,-4.05197 -6.05078,-26.30466 -7,-32c-2.47383,-14.84295 -18.54836,-88.77418 -27,-93c-1.03888,-0.51944 -6.69409,-2.30591 -8,-1c-0.81854,0.81854 0.9219,1.68758 1,2c3.28878,13.15513 3.96216,27.50803 5,41c1.82723,23.75399 -2.35816,47.41842 0,71c1.76456,17.64559 7.53441,35.67206 11,53c4.2398,21.199 9,46.62985 9,68c0,8.37735 1,9.1553 1,0" fill="none" stroke="black" stroke-linecap="round" stroke-width="5"/>
	<path d="M233,176c-21.02368,0 -122.10753,24.89247 -133,14c-20.01016,-20.01016 -39.58606,-52.75819 -48,-78c-2.04486,-6.13457 1.60546,-18.21091 4,-23c0.36329,-0.72658 -0.33304,-7 0,-7c3.67942,0 30.37676,42.31865 32,48c0.40428,1.41497 7.97906,63.02094 6,65c-4.59819,4.59819 -28.18105,-7.39368 -33,-9c-3.57,-1.19 -15.79542,-0.79542 -18,-3c-0.46932,-0.46932 4.77267,-7.54534 5,-8c1.71839,-3.43678 3.05811,-8.23244 4,-12c4.26691,-17.06764 5,-32.33936 5,-50c0,-11.47129 -4,-22.10379 -4,-33c0,-0.14557 -1,-4 -1,-4c0,0 0,4 0,6c0,14.69373 2,29.24448 2,44c0,29.09363 12.46743,130.84419 -24,143c-3.98887,1.32962 -6.75345,9 -11,9" fill="none" stroke="black" stroke-linecap="round" stroke-width="5"/>
	<path d="M98,184c0,3.79234 4.10625,11.25622 3,19c-3.26694,22.86859 -17,45.75747 -17,69c0,1.59775 -0.41046,4 -2,4" fill="none" stroke="black" stroke-linecap="round" stroke-width="5"/>
	<path d="M110,170c13.7519,0 27.26039,1 41,1c7.06922,0 14.01556,0.39689 21,-1c7.62695,-1.52539 15.44062,-3.11015 23,-5c6.46719,-1.6168 11.15074,-3.45011 1,-2c-24.47668,3.49667 -51.97139,11 -73,11c-2.45881,0 -26,4 -26,4c0,0 26.73002,0 28,0c25.85823,0 52.17048,-12 77,-12" fill="none" stroke="black" stroke-linecap="round" stroke-width="5"/>
	<path d="M72,127c21.92618,0 46.55734,6.45272 69,3c25.0378,-3.85197 54.05488,-12 79,-12" fill="none" stroke="black" stroke-linecap="round" stroke-width="5"/>
	<path d="M141,151c-7.34172,0 -19.02489,-3.97511 -25,2c-0.43472,0.43472 -8,4 -8,4c0,0 8.68296,-0.3754 13,0c25.15978,2.18781 49.72744,7 75,7c0.74177,0 24,0 24,0c0,0 -10.41904,0 -11,0c-25.73761,0 -51.35494,8 -78,8c-0.74193,0 -10,-1 -10,-1c0,0 5.33333,0 8,0c16.68596,0 38.19357,-0.59678 53,-8c0.65049,-0.32525 1.41381,-1.17239 1,-2c-6.93034,-13.86067 -44.98625,-15.15173 -57,-17c-8.5769,-1.31952 -18.94312,-0.31437 -27,-3c-0.44721,-0.14907 -1.42164,-0.78918 -1,-1c11.00581,-5.5029 65.42072,5 81,5c10.73551,0 21.25434,1 32,1c0.33333,0 1.29814,0.14907 1,0c-11.45234,-5.72617 -96.32147,-26 -110,-26c-2.02759,0 3.97241,-1 6,-1c3.39935,0 6.70215,-1.17554 10,-2c7.50097,-1.87524 15.5978,-1.77934 23,-4c6.03444,-1.81033 15.0375,-6 21,-6" fill="none" stroke="black" stroke-linecap="round" stroke-width="5"/>
	<path d="M176,85c0,-2.04029 -5.68573,-1 -7,-1c-22,0 -44,0 -66,0c-3.66667,0 -11,0 -11,0c0,0 6.66667,0 10,0c23.13367,0 46.31837,0.78027 69,-3c0.69869,-0.11645 10,-1 10,-1c0,0 -10,0 -15,0c-23.25655,0 -48.72161,2.4304 -71,8c-1.03156,0.25789 -1.57423,3.23436 -1,4c10.71673,14.28898 93.24358,24.75642 106,12c1.11707,-1.11707 -23.20354,-5 -25,-5c-13.3616,0 -43.86785,-7.13215 -55,4c-1.81034,1.81034 26.4464,8.5212 29,9c6.8242,1.27954 59.54652,8.45348 63,5c0.15364,-0.15364 -18.86633,-1 -21,-1c-8.03737,0 -44,-4.14808 -44,2" fill="none" stroke="black" stroke-linecap="round" stroke-width="5"/>
</svg>
