<?xml version="1.0" ?>
<svg baseProfile="full" height="300" version="1.1" viewBox="[0, 0, 300, 300]" width="300" xmlns="http://www.w3.org/2000/svg" xmlns:ev="http://www.w3.org/2001/xml-events" xmlns:xlink="http://www.w3.org/1999/xlink">
	<defs/>
	<path d="M88,58c30.83934,0 69.07213,-14.36598 104,-10c2.15243,0.26905 15.4809,2.4809 17,4c0.56368,0.56368 1.02083,27.48959 0,28c-18.0447,9.02235 -43.99103,-10.75224 -63,-6c-17.91976,4.47994 -36.20928,5 -55,5c-0.62328,0 -6.89253,0.32242 -7,0c-2.33339,-7.00016 6,-18.21841 6,-26" fill="none" stroke="black" stroke-linecap="round" stroke-width="5"/>
	<path d="M83,72c2.35644,0 1,21.71376 1,24c0,14.18485 1.39806,39.59708 9,51" fill="none" stroke="black" stroke-linecap="round" stroke-width="5"/>
	<path d="M150,63c0,16.73261 -2.94747,63.05253 7,73" fill="none" stroke="black" stroke-linecap="round" stroke-width="5"/>
	<path d="M199,84c9.60464,19.20928 -10.36497,75.27005 3,102" fill="none" stroke="black" stroke-linecap="round" stroke-width="5"/>
	<path d="M198,144c-31.77154,0 -55.55159,-24.22421 -88,-8c-6.3421,3.17105 -24.82344,10.82344 -30,16c-1.78634,1.78634 1.37546,6.90706 2,8c3.65752,6.40066 29.62686,52.90671 38,55c5.34348,1.33587 50.05041,-11.20807 55,-12c4.65484,-0.74477 9.35009,-1.22502 14,-2c4.76152,-0.79359 4.66529,-1.66632 10,-3c4.5733,-1.14332 14,2.71405 14,-2c0,-3.10901 -12.79884,-10.79884 -15,-13" fill="none" stroke="black" stroke-linecap="round" stroke-width="5"/>
	<path d="M122,212c-21.95975,0 -12.41384,38.41384 -18,44c-2.67683,2.67683 -17.30017,-0.30017 -8,9c0.98435,0.98435 1.95042,2.31681 4,3c8.72538,2.90846 35.40854,-4.59146 25,-15c-0.7321,-0.7321 -5.57043,0.85915 -6,0c-4.86183,-9.72366 0.93428,-39.93428 7,-46" fill="none" stroke="black" stroke-linecap="round" stroke-width="5"/>
	<path d="M201,200c0,10.98206 3.50347,27.4896 0,38c-0.64796,1.94389 -11.21889,12.83583 -7,16c1.62729,1.22047 19.17778,4.64445 21,1c0.42552,-0.85104 0.18893,-6.33875 0,-7c-1.05023,-3.6758 -3.09139,-5.13708 -5,-8c-5.59243,-8.38865 3.78633,-26.42734 -1,-36" fill="none" stroke="black" stroke-linecap="round" stroke-width="5"/>
</svg>
