<?xml version="1.0" ?>
<svg baseProfile="full" height="300" version="1.1" viewBox="[0, 0, 300, 300]" width="300" xmlns="http://www.w3.org/2000/svg" xmlns:ev="http://www.w3.org/2001/xml-events" xmlns:xlink="http://www.w3.org/1999/xlink">
	<defs/>
	<path d="M74,28c17.69305,0 105.63616,-13.36384 112,-7c3.89139,3.89139 4,40.39361 4,48c0,0.50644 0,7 0,7c0,0 0.91111,-3 -1,-3c-0.94642,0 -6.45337,-3.45337 -7,-4c-2.96107,-2.96107 -58.14959,-5 -64,-5c-7.96523,0 -21.89492,-2.55254 -29,1c-1.49135,0.74568 -14.21927,11.78073 -15,11c-0.45551,-0.45551 0,-6.56308 0,-7c0,-4.48365 3.11759,-10.23519 5,-14c2.65817,-5.31634 0,-25.94151 0,-31" fill="none" stroke="black" stroke-linecap="round" stroke-width="5"/>
	<path d="M93,64c0,22.30474 13,47.43804 13,68" fill="none" stroke="black" stroke-linecap="round" stroke-width="5"/>
	<path d="M135,64c0,19.46412 5,43.12362 5,58" fill="none" stroke="black" stroke-linecap="round" stroke-width="5"/>
	<path d="M189,69c0,13.11269 -7,27.05505 -7,41c0,0.66667 0.4714,1.5286 0,2c-2.0204,2.0204 -73.26322,7.52645 -80,21c-2.12279,4.24557 9.78856,16.31427 12,20c1.95725,3.26208 1.4513,14.4513 4,17c6.01406,6.01406 65.27124,-5.27124 70,-10c0.94281,-0.94281 0,-2.66667 0,-4c0,-15.69334 -6,-31.57228 -6,-48" fill="none" stroke="black" stroke-linecap="round" stroke-width="5"/>
	<path d="M117,168c0,4.50252 2.89072,25.10928 0,28c-2.43874,2.43874 -9,16.1728 -9,19c0,1.14571 -0.45312,4.09377 0,5c0.5026,1.00519 16.57638,0.27086 17,-1c2.91884,-8.75653 -1.95901,-11.95901 -5,-15c-5.8185,-5.8185 3,-31.15406 3,-36" fill="none" stroke="black" stroke-linecap="round" stroke-width="5"/>
	<path d="M178,164c0,10.64108 4.66439,34.67121 0,44c-1.15439,2.30878 -8,12.78221 -8,13c0,0.26606 -0.16514,2.91743 0,3c9.07657,4.53828 22.20498,7.38507 26,-4c3.492,-10.47601 -10.1659,-7.1659 -14,-11c-3.72605,-3.72605 3.36634,-10.46538 4,-13c3.11614,-12.46455 -2,-29.68316 -2,-40" fill="none" stroke="black" stroke-linecap="round" stroke-width="5"/>
</svg>
