<?xml version="1.0" ?>
<svg baseProfile="full" height="300" version="1.1" viewBox="[0, 0, 300, 300]" width="300" xmlns="http://www.w3.org/2000/svg" xmlns:ev="http://www.w3.org/2001/xml-events" xmlns:xlink="http://www.w3.org/1999/xlink">
	<defs/>
	<path d="M65,41c18.31772,0 123.69164,-0.30836 132,8c5.23837,5.23837 7.73331,24.80006 5,33c-2.80298,8.40895 -35.42329,8 -42,8c-34.6299,0 -71.50764,-11.75382 -100,-26c-3.8653,-1.93265 0.22688,-23 14,-23" fill="none" stroke="black" stroke-linecap="round" stroke-width="5"/>
	<path d="M138,51c2.78868,0 12.05847,0.11693 13,2c1.13529,2.27058 5.40832,6.19723 3,7c-9.23535,3.07845 -37.06524,2.93476 -44,-4c-0.4714,-0.4714 0,-1.33333 0,-2c0,-12.73455 18.04476,-3 21,-3c1.66667,0 3.33333,0 5,0c2.19526,0 2.18342,1 4,1" fill="none" stroke="black" stroke-linecap="round" stroke-width="5"/>
	<path d="M78,74c0,24.45956 -8.81924,50.6268 -6,76c2.0535,18.48154 22,37.28409 22,55" fill="none" stroke="black" stroke-linecap="round" stroke-width="5"/>
	<path d="M115,72c0,25.78317 0.67373,51.41098 3,77c0.61098,6.72077 5,13.87084 5,20" fill="none" stroke="black" stroke-linecap="round" stroke-width="5"/>
	<path d="M144,84c0,31.77989 0,64.23179 0,96" fill="none" stroke="black" stroke-linecap="round" stroke-width="5"/>
	<path d="M185,82c0,8.63035 -2.01303,103.01303 -4,105c-2.75365,2.75365 -19.70751,-0.50654 -23,0c-17.52555,2.69624 -34.6626,7.53252 -52,11c-1.26381,0.25276 -32.1582,4.8418 -31,6c6.65747,6.65747 15.28282,5.92423 22,16c8.6899,13.03485 13.94221,37.94221 24,48c1.98358,1.98358 11.08684,-3.70868 14,-4c6.30579,-0.63058 12.65417,-0.36542 19,-1c14.97421,-1.49742 29.36149,1 44,1c1.33333,0 3.57836,1.26491 4,0c5.18248,-15.54744 4,-34.70931 4,-51c0,-5.64001 1.49261,-25.25369 -4,-28c-15.88911,-7.94455 -22.95854,3 -34,3" fill="none" stroke="black" stroke-linecap="round" stroke-width="5"/>
</svg>
