<?xml version="1.0" ?>
<svg baseProfile="full" height="300" version="1.1" viewBox="[0, 0, 300, 300]" width="300" xmlns="http://www.w3.org/2000/svg" xmlns:ev="http://www.w3.org/2001/xml-events" xmlns:xlink="http://www.w3.org/1999/xlink">
	<defs/>
	<path d="M65,33c0,8.14545 41.64445,-5 55,-5c9.47345,0 51.39723,-2.60277 56,2c1.76059,1.76059 0,15.65678 0,18c0,2.3992 1.99752,17.00248 0,19c-5.67741,5.67741 -25.20469,-0.29552 -31,-3c-18.45501,-8.61234 -34.19967,-25.04992 -54,-30c-13.10777,-3.27694 -20.73978,9 -29,9" fill="none" stroke="black" stroke-linecap="round" stroke-width="5"/>
	<path d="M118,44c0,8.49405 -6.02506,15.10025 -8,23c-4.82013,19.28051 -4,34.54651 -4,53" fill="none" stroke="black" stroke-linecap="round" stroke-width="5"/>
	<path d="M129,49c0,31.07353 21,64.14627 21,95" fill="none" stroke="black" stroke-linecap="round" stroke-width="5"/>
	<path d="M156,66c0,17.0993 5.36115,37.8475 8,55c0.77654,5.04752 1.37452,9.99615 2,15c0.33333,2.66667 1,10.68742 1,8c0,-7.76021 -6.93216,-8.46043 -13,-12c-27.64549,-16.12654 -37.35012,-8.48741 -58,7c-2.60721,1.95541 -10.69012,7.83383 -7,13c3.06372,4.28921 10.18382,9.18382 14,13c6.42576,6.42576 13.57424,12.57424 20,19c7.63335,7.63335 20.24841,22.20807 31,24c25.42522,4.23754 57.23089,-35.94852 44,-58c-11.38637,-18.97728 -36.76323,-14 -55,-14" fill="none" stroke="black" stroke-linecap="round" stroke-width="5"/>
</svg>
