<?xml version="1.0" ?>
<svg baseProfile="full" height="300" version="1.1" viewBox="[0, 0, 300, 300]" width="300" xmlns="http://www.w3.org/2000/svg" xmlns:ev="http://www.w3.org/2001/xml-events" xmlns:xlink="http://www.w3.org/1999/xlink">
	<defs/>
	<path d="M102,43c26.04557,0 63.91519,-12.0212 88,-6c5.50126,1.37531 10.14808,11.14808 13,14c0.57213,0.57213 0,4.23843 0,5c0,4.90652 -0.64178,6.46418 -6,7c-10.39898,1.0399 -21.6822,-1.71963 -32,0c-13.00915,2.16819 -30.15611,11.46097 -44,8c-7.55922,-1.88981 -14.8743,-6.12384 -19,-13c-2.14685,-3.57809 -2,-5.26398 -2,-9c0,-1.33333 0,-5.33333 0,-4c0,1 -0.24254,2.02986 0,3c0.43536,1.74146 1.56464,3.25854 2,5c0.24254,0.97014 -0.26764,2.03648 0,3c1.41472,5.09298 10.99738,56 17,56" fill="none" stroke="black" stroke-linecap="round" stroke-width="5"/>
	<path d="M160,65c0,13.18102 0.05382,33.05382 10,43" fill="none" stroke="black" stroke-linecap="round" stroke-width="5"/>
	<path d="M196,55c0,14.19101 11.8282,43.3436 5,57c-0.37027,0.74054 -6.65732,-4.65732 -7,-5c-7.83808,-7.83808 -13.72382,-9 -25,-9c-17.11644,0 -67.81642,5.36716 -54,33c3.76563,7.53126 17.9548,16.3032 25,21c57.64246,38.42831 91.01178,1.86832 80,-62c-0.91266,-5.29345 -16.89575,-18.10425 -22,-13c-4.08242,4.08242 -9.35164,13.17582 -15,16" fill="none" stroke="black" stroke-linecap="round" stroke-width="5"/>
</svg>
