<?xml version="1.0" ?>
<svg baseProfile="full" height="300" version="1.1" viewBox="[0, 0, 300, 300]" width="300" xmlns="http://www.w3.org/2000/svg" xmlns:ev="http://www.w3.org/2001/xml-events" xmlns:xlink="http://www.w3.org/1999/xlink">
	<defs/>
	<path d="M81,42c7.00215,0 25.49268,-5.74634 32,-9c4.3657,-2.18285 73.63409,-2.36591 77,1c0.2357,0.2357 0.66667,0 1,0c13.67832,0 21.3339,20.6661 16,26c-1.67705,1.67705 -21.82173,0.75797 -24,1c-25.2382,2.80424 -76.72887,19.27113 -97,-1c-2.55336,-2.55336 4.35225,-8.35225 5,-9c3.87079,-3.87079 2,-18.08225 2,-24" fill="none" stroke="black" stroke-linecap="round" stroke-width="5"/>
	<path d="M90,60c0,3.51705 -3.48953,11.46859 -5,16c-5.51578,16.54735 -1.24256,50.8936 4,64c2.96384,7.40961 -2.04179,24 7,24c1.07439,0 8.13632,0.86368 9,0c1.76475,-1.76475 1,-5.73912 1,-8c0,-28.54973 -12,-59.51463 -12,-94" fill="none" stroke="black" stroke-linecap="round" stroke-width="5"/>
	<path d="M122,74c0,26.44785 6,48.52086 6,74c0,3.20719 -0.27213,5 3,5c0.24912,0 5.89632,0.25919 6,0c10.98863,-27.47158 -8,-60.482 -8,-86" fill="none" stroke="black" stroke-linecap="round" stroke-width="5"/>
	<path d="M152,64c3.36708,13.46831 3,26.17164 3,40c0,5.24341 -0.7015,62.7015 18,44c5.17692,-5.17692 -4.48651,-26.94606 -6,-33c-1.51542,-6.06167 3.27996,-30.72004 -1,-35c-2.87814,-2.87814 -7,-18.00087 -7,-23" fill="none" stroke="black" stroke-linecap="round" stroke-width="5"/>
	<path d="M180,63c0,10.66574 -3,21.16911 -3,32c0,13.59691 -0.24611,42.75389 9,52c0.31144,0.31144 4.46323,2.68386 5,0c5.63665,-28.18327 -8,-64.15736 -8,-89" fill="none" stroke="black" stroke-linecap="round" stroke-width="5"/>
	<path d="M188,60c0,0.43376 12.93962,44.87925 15,49c3.7953,7.5906 -1,23.85393 -1,32c0,0.66667 -0.59628,1.70186 0,2c2.30864,1.15432 7.17318,-1.17318 8,-2c0.4714,-0.4714 1.5286,0.4714 2,0c3.29817,-3.29817 -14,-69.43288 -14,-85" fill="none" stroke="black" stroke-linecap="round" stroke-width="5"/>
	<path d="M209,141c0,10.10118 -42.88297,8.17659 -52,10c-18.9844,3.79688 -36.13247,10 -56,10c-3.32702,0 -12.02022,-1.48989 -15,0c-0.61632,0.30816 0,8.23818 0,9c0,12.47752 18.35411,56.35411 27,65c0.4714,0.4714 1.33333,0 2,0c11.27061,0 28.62501,-8.75 40,-12c25.52426,-7.29265 63.38888,-4.38888 82,-23c1.37087,-1.37087 1,-3.29864 1,-5c0,-1.33333 0,-2.66667 0,-4c0,-1.49071 -1.1731,-2.75965 -2,-4c-7.47644,-11.21466 -25.70237,-47.70237 -33,-55c-1.37456,-1.37456 -1.47331,-4 -4,-4" fill="none" stroke="black" stroke-linecap="round" stroke-width="5"/>
	<path d="M117,211c-1.66667,1.66667 -3.33333,3.33333 -5,5" fill="none" stroke="black" stroke-linecap="round" stroke-width="5"/>
</svg>
