<?xml version="1.0" ?>
<svg baseProfile="full" height="300" version="1.1" viewBox="[0, 0, 300, 300]" width="300" xmlns="http://www.w3.org/2000/svg" xmlns:ev="http://www.w3.org/2001/xml-events" xmlns:xlink="http://www.w3.org/1999/xlink">
	<defs/>
	<path d="M74,125c0,-3.26122 5.75926,-6.41453 8,-9c6.86297,-7.91881 12.60952,-21.28762 21,-28c32.40627,-25.92501 93.601,-44.39399 103,12c1.91548,11.49286 4,24.97322 4,36c0,0.33333 0.2357,0.7643 0,1c-4.03542,4.03542 -27.0285,-4.17142 -32,-5c-31.27603,-5.21267 -66.5464,2 -98,2c-4.09836,0 -6.54727,-5 -8,-5c-1.69929,0 -5.41802,13.25406 -6,15c-1.39701,4.19104 -3.65379,25.69241 -1,31c0.96816,1.93631 6.8969,-1.93814 7,-2c6.70375,-4.02225 17.00882,-7.31765 25,-9c31.14072,-6.55594 88,-15.28681 88,30" fill="none" stroke="black" stroke-linecap="round" stroke-width="5"/>
	<path d="M66,172c0,10.03936 -10.03694,30.94459 -4,40c17.48253,26.2238 42.86787,19.64465 69,24c8.57106,1.42851 23.95508,5.01497 33,2c12.03077,-4.01026 -1.05129,-62 22,-62" fill="none" stroke="black" stroke-linecap="round" stroke-width="5"/>
	<path d="M202,134c-12.68508,12.68508 -24,35.9705 -24,53" fill="none" stroke="black" stroke-linecap="round" stroke-width="5"/>
</svg>
