<?xml version="1.0" ?>
<svg baseProfile="full" height="300" version="1.1" viewBox="[0, 0, 300, 300]" width="300" xmlns="http://www.w3.org/2000/svg" xmlns:ev="http://www.w3.org/2001/xml-events" xmlns:xlink="http://www.w3.org/1999/xlink">
	<defs/>
	<path d="M79,46c32.13724,0 99.31791,-8.34104 124,4c1.05666,0.52833 1.73501,4.94003 2,6c5.43441,21.73765 1,53.03226 1,77c0,1.01803 0.23502,10.96083 0,11c-8.46608,1.41101 -13.24501,-6.74834 -20,-9c-13.10253,-4.36751 -65.08821,-3 -82,-3c-12.01171,0 -22.52837,-0.47163 -30,7c-0.1,0.1 0,3 0,3c0,0 2,-22.54681 2,-24c0,-15.57716 -2.57364,-69.42636 7,-79" fill="none" stroke="black" stroke-linecap="round" stroke-width="5"/>
	<path d="M77,138c-8.31514,16.63029 -8.23201,58 13,58" fill="none" stroke="black" stroke-linecap="round" stroke-width="5"/>
	<path d="M202,142c0,4.16262 -8.0707,14.9293 -4,19c10.07654,10.07654 20,16.25172 20,32c0,1.17161 0.49427,6.50573 0,7c-3.28956,3.28956 -107.9953,16.00157 -120,12c-6.85778,-2.28593 -13,-11.94216 -13,-18" fill="none" stroke="black" stroke-linecap="round" stroke-width="5"/>
	<path d="M85,194c0,9.28007 3.98721,58.00639 -2,61c-14.25077,7.12538 -42.41861,-30.16279 -37,-41c1.91151,-3.82302 31.91206,-1 36,-1c20.97147,0 73.0306,6.32313 89,1c7.11298,-2.37099 21.75817,-4.62092 27,-2c5.91056,2.95528 37.23385,24.76615 26,36c-15.07326,15.07326 -25.09202,-54 -16,-54" fill="none" stroke="black" stroke-linecap="round" stroke-width="5"/>
</svg>
