<?xml version="1.0" ?>
<svg baseProfile="full" height="300" version="1.1" viewBox="[0, 0, 300, 300]" width="300" xmlns="http://www.w3.org/2000/svg" xmlns:ev="http://www.w3.org/2001/xml-events" xmlns:xlink="http://www.w3.org/1999/xlink">
	<defs/>
	<path d="M82,161c2.26663,0 1.13504,-2.13504 2,-3c5.75459,-5.75459 -0.72619,-52.17858 -4,-62c-0.74536,-2.23607 -3.10819,-5.94591 -1,-7c2.80845,-1.40423 6.03138,-1 9,-1c6.48899,0 93.40128,-7.59872 96,-5c3.2271,3.2271 0,25.81536 0,31c0,3.46548 2.5493,32.47887 -1,34c-5.66106,2.42617 -82.37913,11 -93,11" fill="none" stroke="black" stroke-linecap="round" stroke-width="5"/>
	<path d="M80,106c-5.54012,0 -4,2.95334 -4,8c0,20.87171 10,45.28462 10,68" fill="none" stroke="black" stroke-linecap="round" stroke-width="5"/>
	<path d="M182,99c3.46913,0 2,4.00331 2,7c0,24.19473 3,46.34382 3,70" fill="none" stroke="black" stroke-linecap="round" stroke-width="5"/>
	<path d="M183,101c0,-2.54955 0.63964,-2 3,-2c3.41306,0 3,19.28649 3,24c0,17.6909 2,35.74098 2,54" fill="none" stroke="black" stroke-linecap="round" stroke-width="5"/>
	<path d="M175,164c-5.10585,0 -5.00831,14.00415 -9,16c-10.08325,5.04163 -53.70345,5 -66,5c-0.44336,0 -8.73448,0.53105 -9,0c-1.73619,-3.47239 -2.84282,-5.84282 -6,-9" fill="none" stroke="black" stroke-linecap="round" stroke-width="5"/>
	<path d="M170,166c24.87155,0 10.14138,21.42414 16,39c1.45089,4.35268 17.45199,15.54801 15,18c-5.93101,5.93101 -18.65306,4.16326 -26,6c-39.52807,9.88202 -90,-6.25992 -90,-53" fill="none" stroke="black" stroke-linecap="round" stroke-width="5"/>
	<path d="M126,239c18.76762,0 49.79742,-0.80064 69,4c1.98942,0.49736 4.80527,-1.22107 4,2c-2.94493,11.77972 -63.20178,6 -78,6c-2.4267,0 5.91475,0.17051 7,-2c0.72878,-1.45757 3.42255,-7 5,-7" fill="none" stroke="black" stroke-linecap="round" stroke-width="5"/>
</svg>
