<?xml version="1.0" ?>
<svg baseProfile="full" height="300" version="1.1" viewBox="[0, 0, 300, 300]" width="300" xmlns="http://www.w3.org/2000/svg" xmlns:ev="http://www.w3.org/2001/xml-events" xmlns:xlink="http://www.w3.org/1999/xlink">
	<defs/>
	<path d="M61,68c0,-16.44872 71.08207,-30 87,-30c4.74791,0 30,3.98018 30,10" fill="none" stroke="black" stroke-linecap="round" stroke-width="5"/>
	<path d="M178,48c0,14.40791 5,28.84628 5,44c0,0.26606 0.16514,2.91743 0,3c-0.59628,0.29814 -1.33333,0 -2,0c-6.86151,0 -19.69511,-4.46341 -25,-8c-2.15749,-1.43833 -55.12929,-0.96768 -59,0c-6.92268,1.73067 -27.06897,4.13795 -31,12c-0.16935,0.33871 -2,4 -2,4c0,0 -0.66667,-3.33333 -1,-5c-2.23129,-11.15645 -4,-24.69529 -4,-36" fill="none" stroke="black" stroke-linecap="round" stroke-width="5"/>
	<path d="M183,75c20.24222,10.12111 31.85533,15.71066 43,38c0.29814,0.59628 -0.24759,1.38102 0,2c0.44636,1.11589 1.46252,1.92503 2,3c0.98355,1.9671 8.20462,19 5,19c-1.47288,0 -4.87569,2.12431 -6,1c-5.35798,-5.35798 -4.45935,-21.91871 -8,-29c-5.48304,-10.96609 -20.98562,-19.98562 -29,-28" fill="none" stroke="black" stroke-linecap="round" stroke-width="5"/>
	<path d="M174,93c0,20.14724 2,40.60068 2,61" fill="none" stroke="black" stroke-linecap="round" stroke-width="5"/>
	<path d="M73,134c6.42313,0 93.62222,-4.37778 94,-4c7.56176,7.56176 2.63109,28.41766 4,38c0.21082,1.47573 3.05409,2.94591 2,4c-0.19625,0.19625 -49.30928,-1 -53,-1c-12.50999,0 -24.48423,1 -37,1c-0.66667,0 -1.6302,0.5547 -2,0c-0.58471,-0.87706 -0.71042,-1.98646 -1,-3c-0.5248,-1.83681 -9.44126,-36 -3,-36" fill="none" stroke="black" stroke-linecap="round" stroke-width="5"/>
	<path d="M59,103c20.76472,0 37.50509,20.01017 46,37c0.15884,0.31768 5.78763,7.60618 5,8c-2.65225,1.32612 -9.37797,4.20734 -13,3c-2.81703,-0.93901 -6.03287,-15.0493 -8,-18c-6.59481,-9.89221 -46.44635,-29 -20,-29" fill="none" stroke="black" stroke-linecap="round" stroke-width="5"/>
	<path d="M172,169c-5.62998,5.62998 -7,66.91243 -7,80" fill="none" stroke="black" stroke-linecap="round" stroke-width="5"/>
</svg>
