<?xml version="1.0" ?>
<svg baseProfile="full" height="300" version="1.1" viewBox="[0, 0, 300, 300]" width="300" xmlns="http://www.w3.org/2000/svg" xmlns:ev="http://www.w3.org/2001/xml-events" xmlns:xlink="http://www.w3.org/1999/xlink">
	<defs/>
	<path d="M100,118c0.4714,0 0.66667,-0.66667 1,-1c9.22896,-9.22896 2.15803,-36.73704 11,-50c4.90226,-7.35338 86.24202,-11.75798 90,-8c3.74912,3.74912 -0.2067,33.4134 -2,37c-2.54214,5.08429 -1.29576,30.64788 -8,34c-11.56729,5.78364 -36.43052,0 -49,0c-9.31652,0 -31.56719,4.2164 -40,0c-3.5499,-1.77495 -12.13412,-15 -5,-15" fill="none" stroke="black" stroke-linecap="round" stroke-width="5"/>
	<path d="M196,106c6.5355,1.63387 9.56651,5.37767 15,9c24.34692,16.23128 22.37401,19.50396 14,53c-0.94547,3.78189 -0.30301,22.15151 -4,24c-12.97267,6.48633 -47.27537,-27.09179 -59,-31c-23.67619,-7.89206 -42.70211,10 -64,10" fill="none" stroke="black" stroke-linecap="round" stroke-width="5"/>
	<path d="M97,121c2.48467,0 3.53739,4.14957 4,6c3.15507,12.6203 22.18737,70.43788 19,80c-0.66576,1.99729 -5.27272,1 -7,1c-14.41773,0 -16,-8.63989 -16,-22c0,-7.0795 4,-12.54852 4,-19" fill="none" stroke="black" stroke-linecap="round" stroke-width="5"/>
	<path d="M105,141c4.03004,8.06008 22.6796,22 30,22" fill="none" stroke="black" stroke-linecap="round" stroke-width="5"/>
</svg>
