<?xml version="1.0" ?>
<svg baseProfile="full" height="300" version="1.1" viewBox="[0, 0, 300, 300]" width="300" xmlns="http://www.w3.org/2000/svg" xmlns:ev="http://www.w3.org/2001/xml-events" xmlns:xlink="http://www.w3.org/1999/xlink">
	<defs/>
	<path d="M73,143c0,-51.07561 -11.81687,-81 50,-81c6.2201,0 32.56858,-3.57522 36,1c8.24044,10.98725 11.14828,72.42586 0,78c-13.0367,6.51835 -64.46909,2 -81,2" fill="none" stroke="black" stroke-linecap="round" stroke-width="5"/>
	<path d="M73,143c0,21.12442 66.88761,32.70413 81,28c9.62789,-3.2093 10,-20.89055 10,-30c0,-0.4714 0.5286,-1 1,-1" fill="none" stroke="black" stroke-linecap="round" stroke-width="5"/>
	<path d="M166,142c0,19.49286 14,46.42115 14,65c0,3.33333 -6.66667,0 -10,0c-9.12873,0 -17.21512,2 -26,2c-7.39852,0 -64.27141,1.72859 -65,1c-10.18352,-10.18352 -10.35775,-45.2845 -4,-58c0.75768,-1.51536 -1.30331,-5 1,-5" fill="none" stroke="black" stroke-linecap="round" stroke-width="5"/>
	<path d="M177,205c0,7.96394 6.05134,52.94866 5,54c-0.61374,0.61374 -4.30574,-2.65287 -5,-3c-9.60291,-4.80146 -21.79832,-10.91933 -32,-15c-4.12136,-1.64854 -7.15636,-10.03127 -12,-11c-11.28645,-2.25729 -97.13578,-2.43211 -100,-1c-1.75821,0.87911 12.70721,13.96577 14,15c8.23823,6.59058 20.88686,17.77372 25,26c0.21082,0.42164 0.5286,1 1,1c3.34996,0 0.34302,-6.7151 1,-10c3.45262,-17.26308 0,-38.18425 0,-56" fill="none" stroke="black" stroke-linecap="round" stroke-width="5"/>
	<path d="M179,223c-15.94095,0 -34.06798,7.23301 -51,3c-15.62462,-3.90615 -29.99718,-7 -47,-7" fill="none" stroke="black" stroke-linecap="round" stroke-width="5"/>
</svg>
