<?xml version="1.0" ?>
<svg baseProfile="full" height="300" version="1.1" viewBox="[0, 0, 300, 300]" width="300" xmlns="http://www.w3.org/2000/svg" xmlns:ev="http://www.w3.org/2001/xml-events" xmlns:xlink="http://www.w3.org/1999/xlink">
	<defs/>
	<path d="M169,51c-24.93915,0 -49.10441,15.84513 -72,23c-0.02632,0.00822 -21.80862,8.19138 -16,14c7.90316,7.90316 61.03446,17.61443 73,10c8.95842,-5.70081 17.12043,-12.04817 27,-16c6.65152,-2.66061 22.00881,-30.99119 15,-38c-3.16206,-3.16206 -12.04246,-4.02123 -16,-6c-5.69594,-2.84797 -10.74905,14 -19,14" fill="none" stroke="black" stroke-linecap="round" stroke-width="5"/>
	<path d="M150,68c-30.22511,0 -9.12615,42.12615 19,14c0.70711,-0.70711 0,-2 0,-3c0,-18.85729 -16.2817,-11 -26,-11" fill="none" stroke="black" stroke-linecap="round" stroke-width="5"/>
	<path d="M145,103c-3.55931,7.11863 13,61.12775 13,75" fill="none" stroke="black" stroke-linecap="round" stroke-width="5"/>
	<path d="M173,91c0,19.65506 -3.16206,46.51382 3,65" fill="none" stroke="black" stroke-linecap="round" stroke-width="5"/>
	<path d="M176,94c0,10.87568 -3.37589,36.62411 5,45" fill="none" stroke="black" stroke-linecap="round" stroke-width="5"/>
	<path d="M189,82c0,8.80685 20.65015,67.17493 9,73" fill="none" stroke="black" stroke-linecap="round" stroke-width="5"/>
</svg>
