<?xml version="1.0" ?>
<svg baseProfile="full" height="300" version="1.1" viewBox="[0, 0, 300, 300]" width="300" xmlns="http://www.w3.org/2000/svg" xmlns:ev="http://www.w3.org/2001/xml-events" xmlns:xlink="http://www.w3.org/1999/xlink">
	<defs/>
	<path d="M66,43c0,13.05851 3,25.24466 3,38" fill="none" stroke="black" stroke-linecap="round" stroke-width="5"/>
	<path d="M68,43c31.02539,0 60.24816,-1.15602 91,-5c6.18358,-0.77295 28.0749,-7.9251 34,-2c8.03792,8.03792 -8.90733,38.09267 -1,46c2.63523,2.63523 -6.34559,-4.26912 -10,-5c-10.44393,-2.08879 -21.22191,-5 -32,-5c-17.00284,0 -35.16621,-0.95845 -51,3c-8.78906,2.19727 -22.6553,8 -30,8" fill="none" stroke="black" stroke-linecap="round" stroke-width="5"/>
	<path d="M68,42c0,7.46431 25.16311,-6.77541 27,-8c0.78446,-0.52298 1.21554,-1.47702 2,-2c5.74683,-3.83122 46.26543,-5.37757 56,-7c9.67521,-1.61253 18.90385,1.90385 25,8c2.21197,2.21197 4.63275,4.42183 7,6c1.38675,0.9245 5.66667,3 4,3c-25.91837,0 -52.65714,-10.85397 -79,-5c-4.59092,1.0202 -19.22386,1.22386 -22,4c-2.4909,2.4909 -8.36189,10 -13,10" fill="none" stroke="black" stroke-linecap="round" stroke-width="5"/>
</svg>
