<?xml version="1.0" ?>
<svg baseProfile="full" height="300" version="1.1" viewBox="[0, 0, 300, 300]" width="300" xmlns="http://www.w3.org/2000/svg" xmlns:ev="http://www.w3.org/2001/xml-events" xmlns:xlink="http://www.w3.org/1999/xlink">
	<defs/>
	<path d="M91,145c16.33333,0 32.66667,0 49,0c9.87957,0 54.16766,-0.83234 60,5c3.06495,3.06495 1,17.15375 1,22c0,2.52855 1.8321,15.1679 0,17c-0.22263,0.22263 -2.64964,0.0438 -3,0c-13.44855,-1.68107 -26.36629,-3 -40,-3c-13.98321,0 -57.23838,9.38081 -70,3c-4.21227,-2.10614 1.75767,-16.15185 2,-17c2.28243,-7.98851 -1,-16.21784 -1,-22" fill="none" stroke="black" stroke-linecap="round" stroke-width="5"/>
	<path d="M91,192c0,5.33365 -2.28438,25.71562 2,30c0.39084,0.39084 5.91453,0.01709 6,0c5.7352,-1.14704 55.19272,-4.19272 58,-7c1.8908,-1.8908 -1.62793,-4.4419 -2,-5c-1.40409,-2.10613 -1.10361,-4.50658 -6,-3c-26.13542,8.04167 -32.46492,5 -55,5" fill="none" stroke="black" stroke-linecap="round" stroke-width="5"/>
</svg>
