<?xml version="1.0" ?>
<svg baseProfile="full" height="300" version="1.1" viewBox="[0, 0, 300, 300]" width="300" xmlns="http://www.w3.org/2000/svg" xmlns:ev="http://www.w3.org/2001/xml-events" xmlns:xlink="http://www.w3.org/1999/xlink">
	<defs/>
	<path d="M70,163c16.07203,0 32.76959,-9.76132 49,-12c17.37345,-2.39634 34.675,-0.425 52,-2c12.86335,-1.1694 25.4494,-3.48988 38,-6c0.34112,-0.06822 3.9063,-0.18741 4,0c1.01715,2.0343 -1.41586,29.60396 -3,30c-6.92831,1.73208 -118.88192,13.55904 -128,9c-3.58261,-1.79131 -11,-22 -11,-22c0,0 0.53775,4.68875 1,7c1.19297,5.96487 8.79124,41.79124 12,45c3.0313,3.0313 16.79222,-7.61126 22,-9c13.67768,-3.64738 26.01266,-4 40,-4" fill="none" stroke="black" stroke-linecap="round" stroke-width="5"/>
</svg>
