<?xml version="1.0" ?>
<svg baseProfile="full" height="300" version="1.1" viewBox="[0, 0, 300, 300]" width="300" xmlns="http://www.w3.org/2000/svg" xmlns:ev="http://www.w3.org/2001/xml-events" xmlns:xlink="http://www.w3.org/1999/xlink">
	<defs/>
	<path d="M61,194c11.4253,0 21.58686,3.51241 32,5c27.98842,3.99835 59.56169,0 88,0c2.38175,0 12.09638,-0.45181 15,1c3.77124,1.88562 -2.2331,8.17171 -4,12c-5.00939,10.85367 -2.55872,21.32384 1,32c0.10541,0.31623 0.2357,-0.7643 0,-1c-6.86234,-6.86234 -13.55103,-9.37916 -26,-12c-10.98469,-2.31257 -27.4889,-4.82963 -37,-8c-13.15056,-4.38352 -30.3315,3.24259 -44,2c-7.1817,-0.65288 -12.37715,-4.05388 -19,-5c-2.33333,-0.33333 -6.53775,1.31125 -7,-1c-1.17643,-5.88217 11.5311,-32 12,-32" fill="none" stroke="black" stroke-linecap="round" stroke-width="5"/>
	<path d="M56,220c2.29669,6.89007 5.12996,13.03969 6,20c0.15088,1.20701 -0.90563,12.04718 1,13c1.19257,0.59628 2.70081,0.29981 4,0c17.12063,-3.95091 30.35933,-3 48,-3c11.42415,0 26.34912,-3.19527 37,0c3.91382,1.17415 -0.95304,15 -2,15c-9.37715,0 -19.44014,-17.45775 -44,-12c-5.50042,1.22232 -44.07764,3.92236 -47,1c-3.80464,-3.80464 -3,-42.45773 -3,-41" fill="none" stroke="black" stroke-linecap="round" stroke-width="5"/>
	<path d="M60,259c2.99488,20.96414 -7.69635,40.1309 24,19c1.40653,-0.93769 -4.53573,-12.45244 -5,-14c-0.9261,-3.087 -0.35236,-16 -4,-16" fill="none" stroke="black" stroke-linecap="round" stroke-width="5"/>
	<path d="M139,257c0,3.67861 -3.19142,26.80858 0,30c1.88562,1.88562 5.33333,0 8,0c19.71706,0 10.94937,-18.10125 4,-32" fill="none" stroke="black" stroke-linecap="round" stroke-width="5"/>
	<path d="M155,224c-0.86533,2.59598 -0.90788,6.81577 -2,9c-0.19455,0.3891 -2.65845,-3.97534 -3,-5c-1.43372,-4.30116 -8.53322,-3.22317 -13,-4c-16.29683,-2.83423 -29.59043,-5.50822 -46,-7c-5.64673,-0.51334 -18.61949,-2.45527 -25,-6c-0.82416,-0.45787 -2,-2.94281 -2,-2c0,7.84635 41.24589,5.85302 62,8c30.17152,3.12119 81.9448,19.35173 110,10c1.61245,-0.53748 -3.30465,-0.8789 -5,-1c-2.99238,-0.21374 -6,0 -9,0c-22,0 -44.00742,0.57124 -66,0c-7.37616,-0.19159 -13.65165,-6.33197 -21,-7c-3.46581,-0.31507 -13.27058,-1.8107 -10,-3c13.77308,-5.00839 22.2367,-6.44734 35,-9c3.10087,-0.62017 -5.84388,-2.80274 -9,-3c-19.00963,-1.1881 -38.1079,-1.57794 -57,-4c-14.68223,-1.88234 -29.37265,-3.73024 -44,-6c-5.03872,-0.78187 -20.05226,-3.68894 -15,-3c19.12476,2.60792 56.56189,7.34372 71,8c31.77822,1.44446 69.59057,-3.48189 102,3c7.30882,1.46176 -14.57705,3.32519 -22,4c-10.62286,0.96571 -21.33333,0 -32,0c-2.66667,0 -5.33333,0 -8,0c-1.33333,0 -5.33333,0 -4,0c5.67646,0 11.33905,0.58067 17,1c38.54429,2.85513 -8.3379,2 -25,2c-16.02029,0 -44.30745,-8.30745 -27,9" fill="none" stroke="black" stroke-linecap="round" stroke-width="5"/>
</svg>
