<?xml version="1.0" ?>
<svg baseProfile="full" height="300" version="1.1" viewBox="[0, 0, 300, 300]" width="300" xmlns="http://www.w3.org/2000/svg" xmlns:ev="http://www.w3.org/2001/xml-events" xmlns:xlink="http://www.w3.org/1999/xlink">
	<defs/>
	<path d="M81,127c14.1244,0 26.92747,-3.29637 41,-4c8.94094,-0.44705 18.04679,0 27,0c13.64899,0 33,-12.81171 33,5c0,0.54403 0.53725,12.86569 0,13c-18.69506,4.67377 -43.75623,-0.86801 -63,-2c-3.63734,-0.21396 -43.88558,1.11442 -45,0c-1.79061,-1.79061 0,-14.68601 0,-18" fill="none" stroke="black" stroke-linecap="round" stroke-width="5"/>
	<path d="M74,135c0,6.92043 0.79634,38.79634 4,42c2.2308,2.2308 24.17725,-6.23545 28,-7c13.36756,-2.67351 28.34102,-1 42,-1c0.36531,0 6,-1 6,-1c0,0 -7.95696,-2.19139 -12,-3c-14.16216,-2.83243 -33.57792,-6.44221 -48,-5c-8.83565,0.88357 -16.17784,7 -25,7c-0.33333,0 -1.31623,0.10541 -1,0c14.18902,-4.72967 26.40742,-8.3468 41,-11c4.71553,-0.85737 10.18662,0 15,0c2.33333,0 9.33333,0 7,0c-12.6062,0 -26.35773,7.84204 -38,12c-6.50692,2.3239 -9.8354,2.45885 -16,4c-1.64893,0.41223 -6.67991,1.25845 -5,1c19.50373,-3.00057 37.42583,-5 57,-5" fill="none" stroke="black" stroke-linecap="round" stroke-width="5"/>
</svg>
