<?xml version="1.0" ?>
<svg baseProfile="full" height="300" version="1.1" viewBox="[0, 0, 300, 300]" width="300" xmlns="http://www.w3.org/2000/svg" xmlns:ev="http://www.w3.org/2001/xml-events" xmlns:xlink="http://www.w3.org/1999/xlink">
	<defs/>
	<path d="M98,117c29.3803,0 58.79413,-2 88,-2c2.89846,0 23.45208,-4.32189 25,-2c3.33159,4.99739 1.81502,27.36996 -1,33c-2.68433,5.36866 -44.16705,-4.12888 -48,-5c-25.0528,-5.69382 -47.32739,-1 -72,-1c-1.28305,0 -8.02308,0.97692 -9,0c-2.36568,-2.36568 5.04406,-13.04406 6,-14c2.83823,-2.83823 -4.59011,-10.20495 -1,-12c8.34365,-4.17182 21.59091,3 30,3" fill="none" stroke="black" stroke-linecap="round" stroke-width="5"/>
	<path d="M86,139c0,7.27909 0.18024,40.18024 4,44c1.17317,1.17317 32.60583,-9.52117 40,-11c4.60653,-0.92131 21.35134,2.64866 25,-1c4.24113,-4.24113 -18.35044,1.85004 -20,2c-13.29665,1.20879 -26.63915,1 -40,1c-2.33333,0 -7,0 -7,0c0,0 5.33333,0 8,0c15.13528,0 32.89865,-0.84266 48,-3c3.59973,-0.51425 7.78185,-3 11,-3c1.69967,0 6.69967,-1 5,-1c-9.96225,0 -14.92662,-1.92662 -21,-8c-0.56827,-0.56827 -27.80401,7.34582 -35,8c-3.65161,0.33196 -11,0 -11,0c0,0 2.64433,-0.77406 4,-1c12.45956,-2.07659 25.33626,-4 38,-4c4,0 8,0 12,0c1.66667,0 6.66667,0 5,0c-1.33333,0 -2.68696,-0.23171 -4,0c-16.56534,2.9233 -30.92381,6 -48,6c-0.23908,0 -6,0 -6,0c0,0 29.23563,0 33,0c2.66667,0 5.33333,0 8,0c1,0 3.94868,-0.31623 3,0c-19.61453,6.53818 -39.3275,11 -60,11" fill="none" stroke="black" stroke-linecap="round" stroke-width="5"/>
</svg>
