<?xml version="1.0" ?>
<svg baseProfile="full" height="300" version="1.1" viewBox="[0, 0, 300, 300]" width="300" xmlns="http://www.w3.org/2000/svg" xmlns:ev="http://www.w3.org/2001/xml-events" xmlns:xlink="http://www.w3.org/1999/xlink">
	<defs/>
	<path d="M99,181c-3.04748,0 -3.58511,-2.09578 -4,-5c-2.5595,-17.91647 -5.87365,-36.97847 -7,-55c-0.97762,-15.64189 -5.67719,-47.65352 5,-61c17.81801,-22.27252 118.35561,-25.40732 133,-1c16.65657,27.76095 10.16567,62.49701 20,92c2.88235,8.64704 2.86619,17.46477 5,26c0.25565,1.02262 2,2.66667 1,3c-12.56623,4.18874 -27.22083,1.83982 -40,-1c-14.13494,-3.1411 -35.80309,2 -51,2c-6.34816,0 -54,6.27836 -54,1" fill="none" stroke="black" stroke-linecap="round" stroke-width="5"/>
	<path d="M87,117c19.25904,0 37.20591,5 56,5" fill="none" stroke="black" stroke-linecap="round" stroke-width="5"/>
	<path d="M216,104c17.31581,0 34.33328,1 52,1" fill="none" stroke="black" stroke-linecap="round" stroke-width="5"/>
	<path d="M117,188c0,17.66916 5.55206,37.76032 9,55c0.27516,1.37581 6.28905,22 4,22c-9.43873,0 -20.20922,-3.06974 -29,-6c-2.62883,-0.87628 -5.02085,-21.96872 -3,-25c3.22734,-4.841 34.56426,-7.63036 39,-8c33.61214,-2.80101 60.05399,-11.24325 94,-7c5.53179,0.69147 12.78784,1.26261 18,3c2.4963,0.8321 4.0119,8.0119 6,10c1.28776,1.28776 0.26991,3.53982 1,5c1.60555,3.21109 4,13.59011 4,10c0,-12.90431 -3.78614,-76.60693 -13,-72" fill="none" stroke="black" stroke-linecap="round" stroke-width="5"/>
</svg>
