<?xml version="1.0" ?>
<svg baseProfile="full" height="300" version="1.1" viewBox="[0, 0, 300, 300]" width="300" xmlns="http://www.w3.org/2000/svg" xmlns:ev="http://www.w3.org/2001/xml-events" xmlns:xlink="http://www.w3.org/1999/xlink">
	<defs/>
	<path d="M80,48c-4.64274,13.92821 -2,31.38897 -2,46c0,1.66667 0,6.66667 0,5c0,-2.33333 0,-4.66667 0,-7" fill="none" stroke="black" stroke-linecap="round" stroke-width="5"/>
	<path d="M77,40c25.22017,0 52.97897,5.94365 78,3c6.65403,-0.78283 13.30641,-1.70897 20,-2c4.01008,-0.17435 7.99565,-0.72384 12,-1c10.96708,-0.75635 26.68827,-1.9352 27,-1c5.90413,17.71239 7.86508,41.19047 11,60c0.11786,0.70717 2.05568,2.94432 1,4c-5.48307,5.48307 -28.75782,-0.02691 -38,1c-41.70438,4.63382 -82.22957,6.44261 -124,-4" fill="none" stroke="black" stroke-linecap="round" stroke-width="5"/>
	<path d="M85,163c2.47798,-4.95596 45.0068,-5 52,-5c4.24357,0 79.98722,-4.01278 83,-1c5.08008,5.08008 8.85536,19.95411 13,27c3.97622,6.75957 6.75328,13.62991 11,20c0.2131,0.31966 2.00089,4.71403 1,5c-11.12043,3.17727 -139.16951,19.41524 -148,15c-3.19353,-1.59677 -2.36154,-5.02054 -3,-8c-3.78951,-17.68436 -13,-40.64334 -13,-59" fill="none" stroke="black" stroke-linecap="round" stroke-width="5"/>
	<path d="M66,96c0,13.89518 -9.93935,27.60579 -12,41c-5.07062,32.95906 -5,66.5411 -5,100" fill="none" stroke="black" stroke-linecap="round" stroke-width="5"/>
</svg>
