<?xml version="1.0" ?>
<svg baseProfile="full" height="300" version="1.1" viewBox="[0, 0, 300, 300]" width="300" xmlns="http://www.w3.org/2000/svg" xmlns:ev="http://www.w3.org/2001/xml-events" xmlns:xlink="http://www.w3.org/1999/xlink">
	<defs/>
	<path d="M78,293c9.62789,-23.38203 23.25979,-44.12578 29,-69c7.00589,-30.35886 9.68432,-80.24948 3,-112c-2.64952,-12.58523 -10.26432,-23.98241 -12,-37c-3.14657,-23.59929 11,-43.55844 11,-66" fill="none" stroke="black" stroke-linecap="round" stroke-width="5"/>
	<path d="M241,296c1.94365,0 2.48859,-3.12484 3,-5c5.68556,-20.84704 4.33225,-44.63202 5,-66c0.61348,-19.63127 1.28495,-42.71771 -3,-62c-6.50839,-29.28777 -19.18215,-55.00365 -22,-86c-0.9065,-9.97151 1.93997,-48.12007 -3,-58c-4.36767,-8.73534 -79.34421,-15.65579 -85,-10c-5.4178,5.4178 -25.68278,14 -35,14" fill="none" stroke="black" stroke-linecap="round" stroke-width="5"/>
	<path d="M100,62c20.12119,10.06059 72.5081,23.95528 95,26c10.49053,0.95368 21.4635,0 32,0c1.72932,0 15.2229,-1.7771 15,-2c-2.60025,-2.60025 -10.50907,-2 -14,-2" fill="none" stroke="black" stroke-linecap="round" stroke-width="5"/>
	<path d="M182,30c-4.11793,0 -10.69353,-2.04301 -15,-3c-1.9793,-0.43985 -8.02759,-1 -6,-1c10.31815,0 30.44593,11.58764 41,14c4.91743,1.12398 10.00201,1.31846 15,2c2.66278,0.36311 10.66041,1.38006 8,1c-27.62188,-3.94598 -56.12465,-6.16765 -84,-3c-7.4059,0.84158 -14.68056,2.59241 -22,4c-1.34964,0.25955 -5.22927,1.61464 -4,1c21.80788,-10.90394 50.92313,-15.98273 75,-15c4.95744,0.20234 17.55869,5.11335 23,9c1.35622,0.96873 2.66667,2 4,3c2.66667,2 11.2686,5.34628 8,6c-16.77343,3.35469 -49.46193,0.73991 -65,0c-9.37613,-0.44648 -18.70759,-1.67251 -28,-3c-4.72464,-0.67495 -9.36989,-1.84247 -14,-3c-0.7231,-0.18078 -2.3698,-1.64715 -2,-1c8.00997,14.01744 49.24354,56.59409 67,27c7.49547,-12.49244 -21.22815,-32.79088 -28,-38c-1.90523,-1.46556 -3.89879,-2.83266 -6,-4c-2.60623,-1.44791 -10.26367,-5.94029 -8,-4c7.90861,6.77881 11.50079,8.81861 21,14c7.57467,4.13164 9.40921,5.24828 17,7c38.55266,8.89677 -35.82929,-34.58535 -57,-24c-3.04047,1.52023 0.40031,7.00058 2,10c4.90592,9.19861 17.29148,19.45821 26,25c2.27388,1.44701 16.26448,5.26448 14,3" fill="none" stroke="black" stroke-linecap="round" stroke-width="5"/>
	<path d="M116,190c19.66324,0 36.40494,-5.1338 56,-7c19.21726,-1.83022 31.43573,0.60893 49,5c7.74901,1.93725 26.14751,-6.01629 21,12c-0.76676,2.68364 -2.11643,14.86986 -4,16c-26.37395,15.82437 -97.8329,3.58355 -125,-10" fill="none" stroke="black" stroke-linecap="round" stroke-width="5"/>
	<path d="M126,201c8.99494,-8.99494 40.21728,-15.59784 53,-14c6.24742,0.78093 13.94944,2.98315 20,5c3,1 12.16228,3 9,3c-21.36849,0 -42.7216,-0.97349 -64,-3c-8.47728,-0.80736 -13.27091,-0.63545 -20,-4c-0.42164,-0.21082 -1.33333,-0.66667 -1,-1c0.51098,-0.51098 44.8333,-4.83974 49,-5c3.66396,-0.14092 7.34047,-0.22872 11,0c2.35243,0.14703 4.89181,-0.05409 7,1c0.94281,0.4714 4,0.66667 3,1c-12.48278,4.16093 -27.10926,3.84153 -40,2c-6.1163,-0.87376 -16.5988,0.7006 -22,-2c-0.29814,-0.14907 -0.29139,-1.16188 0,-1c28.48726,15.82625 57.92731,18 90,18" fill="none" stroke="black" stroke-linecap="round" stroke-width="5"/>
	<path d="M114,171c-28.8773,24.06441 -130.26121,101 -160,101" fill="none" stroke="black" stroke-linecap="round" stroke-width="5"/>
	<path d="M241,171c-3.08257,0 0.66384,5.5678 1,6c8.0494,10.34922 17.1076,20.2992 26,30c20.87804,22.77605 37.13327,48.52114 57,72c3.52886,4.17047 14.88298,16.24848 20,21c2.25201,2.09115 10.0135,5.3973 7,6c-4.26174,0.85235 -8.69755,0.38536 -13,1" fill="none" stroke="black" stroke-linecap="round" stroke-width="5"/>
	<path d="M57,206c19.77641,4.9441 38.33583,6 59,6" fill="none" stroke="black" stroke-linecap="round" stroke-width="5"/>
	<path d="M106,212c17.55862,0 23.05904,23 40,23" fill="none" stroke="black" stroke-linecap="round" stroke-width="5"/>
	<path d="M274,214c-11.82557,1.97093 -27.71453,11 -39,11" fill="none" stroke="black" stroke-linecap="round" stroke-width="5"/>
	<path d="M166,191c22.99175,0 45.38434,1.47687 68,6c3.2192,0.64384 9,0.71705 9,4c0,0.74536 -1.26479,-0.87746 -2,-1c-9.53962,-1.58994 -19.2846,-3.38077 -29,-5c-8.60278,-1.4338 -52.38363,-7.31976 -61,-8c-14.34672,-1.13264 -28.4883,5.04571 -42,10c-2.96899,1.08863 -12.0555,2.1852 -9,3c31.61674,8.43113 68.57448,3 101,3c11.66667,0 23.33333,0 35,0c5,0 10,0 15,0c1.66667,0 6.58114,0.52705 5,0c-7.26662,-2.42221 -63.66133,7.7686 -75,8c-11.86992,0.24224 -18.15146,1.89903 -27,-4c-0.27735,-0.1849 -1.33333,0 -1,0c16.8395,0 34.18022,-3.31348 51,-4c7.66029,-0.31266 15.34393,-0.40295 23,0c5.69786,0.29989 21.74747,5.16498 17,2c-20.39445,-13.5963 -55.9454,-16.9454 -72,-33" fill="none" stroke="black" stroke-linecap="round" stroke-width="5"/>
	<path d="M111,7c-6.2701,25.0804 6.06588,50.60474 2,75c-11.96449,71.78694 -17.18712,148.56135 -40,217" fill="none" stroke="black" stroke-linecap="round" stroke-width="5"/>
</svg>
