<?xml version="1.0" ?>
<svg baseProfile="full" height="300" version="1.1" viewBox="[0, 0, 300, 300]" width="300" xmlns="http://www.w3.org/2000/svg" xmlns:ev="http://www.w3.org/2001/xml-events" xmlns:xlink="http://www.w3.org/1999/xlink">
	<defs/>
	<path d="M53,53c35.59331,-20.33903 85.24164,-28.11667 125,-22c4.6124,0.7096 9.33333,0 14,0c2.66667,0 5.33853,0.16634 8,0c17.31914,-1.08245 24.80178,-1.59911 40,6c1.1671,0.58355 5.84675,5.30649 5,7c-1.49071,2.98142 -6.68168,-0.31603 -10,0c-9.05725,0.86259 -18.10373,2.09366 -27,4c-36.76531,7.87828 -71.72149,8.07595 -109,12c-9.45556,0.99532 -21.51856,4.24072 -30,0c-0.29814,-0.14907 0,-0.66667 0,-1c0,-6.2224 -4.38111,-6.22867 -9,-9c-5.41308,-3.24785 -19.1815,1 -19,1" fill="none" stroke="black" stroke-linecap="round" stroke-width="5"/>
	<path d="M67,47c0,9.23707 -23.00295,42.54617 -27,53c-20.05328,52.44703 -34.21772,107.2557 -51,160c-4.79355,15.06544 -12.00308,29.00923 -17,44c-1.17851,3.53553 -2,11 -2,11c0,0 14.88355,-28.81886 15,-29" fill="none" stroke="black" stroke-linecap="round" stroke-width="5"/>
	<path d="M221,44c-4.20874,29.46118 5.05044,56.75656 7,86c2.31862,34.77932 -3.71212,71.22729 -5,106c-0.53865,14.5436 4.63159,33.26318 11,46c0.85821,1.71642 0.25438,4 2,4" fill="none" stroke="black" stroke-linecap="round" stroke-width="5"/>
	<path d="M35,113c-4.16143,0 6.99718,12.16432 8,13c6.36736,5.30613 25.64619,22 34,22" fill="none" stroke="black" stroke-linecap="round" stroke-width="5"/>
	<path d="M217,132c-13.03706,-6.51853 -21.21989,-22.66567 -36,-29c-16.05532,-6.88085 -106.28443,-1.71557 -124,16c-0.3292,0.3292 3.60021,4.60072 4,6c5.35842,18.75446 15.71116,29.57039 35,36c41.2936,13.76453 92.12138,18.6792 131,-4c35.70072,-20.82542 -53.95788,-63.04212 -64,-53" fill="none" stroke="black" stroke-linecap="round" stroke-width="5"/>
	<path d="M97,139c23.71772,7.90591 47.17883,15.27682 72,19c5.64577,0.84687 6.10979,1.45103 7,-3c1.17381,-5.86906 -50.5068,-17.09659 -54,-18c-10.33194,-2.67205 -20.80005,-4.86155 -31,-8c-3.0056,-0.9248 -11.10187,-4.48302 -8,-5c26.42868,-4.40478 69.76951,1.88476 94,14c5.07718,2.53859 -11.4151,0.01544 -17,-1c-7.49174,-1.36213 -19.8963,-4.75673 -27,-7c-1.71173,-0.54055 -5.80277,-0.39445 -5,-2c4.16089,-8.32178 43.80628,1.20244 51,4c3.89266,1.51381 7.37365,3.9278 11,6c1.94145,1.1094 8.05527,3.88083 6,3c-25.61511,-10.9779 -50.0604,-22.91812 -77,-31c-0.87513,-0.26254 -21.40891,-5.08178 -26,-6c-0.32686,-0.06537 -1.2357,-0.2357 -1,0c15.59158,15.59158 41.0244,38.2694 65,35c1.68268,-0.22946 27,-5.51045 27,-10c0,-2.53871 -5.23521,-4.74507 -6,-5c-15.5269,-5.17563 -53.55196,3.47127 -71,4c-5.33089,0.16154 -10.66667,0 -16,0c-2.02759,0 -7.98821,-1.39764 -6,-1c22.19738,4.43948 40.23556,18.07315 64,20c15.72868,1.2753 32.36702,-4.09043 47,-2c1.68259,0.24037 6.52023,1.76012 5,1c-6.69992,-3.34996 -13.6345,-6.63602 -21,-8c-11.83266,-2.19123 -18.198,3 -29,3" fill="none" stroke="black" stroke-linecap="round" stroke-width="5"/>
	<path d="M84,150c0,18.61365 -21.10291,46.14408 -31,60c-13.65173,19.11242 -30,79.80614 -30,102" fill="none" stroke="black" stroke-linecap="round" stroke-width="5"/>
	<path d="M184,169c0,28.95071 -2,57.25742 -2,86" fill="none" stroke="black" stroke-linecap="round" stroke-width="5"/>
	<path d="M21,143c7.98063,1.14009 58,5.95997 58,12" fill="none" stroke="black" stroke-linecap="round" stroke-width="5"/>
	<path d="M228,171c-7.92028,0 -19.49436,-2.50113 -27,-1c-5.31457,1.06291 -14.95799,8 -19,8" fill="none" stroke="black" stroke-linecap="round" stroke-width="5"/>
	<path d="M16,155c0,11.60748 65.1833,27 74,27" fill="none" stroke="black" stroke-linecap="round" stroke-width="5"/>
	<path d="M234,179c0,4.8396 -40.51229,17 -49,17" fill="none" stroke="black" stroke-linecap="round" stroke-width="5"/>
	<path d="M17,127c9.90355,6.60237 18.07182,16.31649 29,21c31.31315,13.41992 86.22913,6.69165 117,19c19.26274,7.7051 38.04397,0 57,0c2.33333,0 7,2.33333 7,0c0,-1.62111 -3.81675,-2 -5,-2" fill="none" stroke="black" stroke-linecap="round" stroke-width="5"/>
</svg>
