<?xml version="1.0" ?>
<svg baseProfile="full" height="300" version="1.1" viewBox="[0, 0, 300, 300]" width="300" xmlns="http://www.w3.org/2000/svg" xmlns:ev="http://www.w3.org/2001/xml-events" xmlns:xlink="http://www.w3.org/1999/xlink">
	<defs/>
	<path d="M64,61c0,1.66667 2.3831,2.59577 4,3c19.52411,4.88103 44.00161,0 64,0c1.66667,0 3.34018,0.15089 5,0c2.01926,-0.18357 3.97942,-0.83162 6,-1c37.98915,-3.16576 71.89817,13 110,13" fill="none" stroke="black" stroke-linecap="round" stroke-width="5"/>
	<path d="M65,61c10.99427,32.9828 51.47125,21.06877 55,74c2.43152,36.47277 -42,66.9768 -42,91" fill="none" stroke="black" stroke-linecap="round" stroke-width="5"/>
	<path d="M251,71c6.02282,6.02282 8.48369,14.90294 13,22c22.79062,35.81383 -3.77126,50.98323 -17,85c-4.00008,10.28593 -8.00809,19.67925 -14,29c-0.12977,0.20187 -11.5294,13 -8,13" fill="none" stroke="black" stroke-linecap="round" stroke-width="5"/>
	<path d="M165,81c11.2716,1.40895 14.88326,2.19633 29,1c12.73021,-1.07883 25.27824,-3.82568 38,-5c8.96804,-0.82782 17.99712,-0.75668 27,-1c3.99854,-0.10807 15.57771,-1.78885 12,0c-19.72868,9.86434 -40.21576,12.54772 -62,14c-9.98339,0.66556 -19.99445,1 -30,1c-5.0111,0 -10.01643,-0.47541 -15,-1c-1.36682,-0.14388 -4.33333,-2.33333 -4,-1c4.34443,17.37772 55.48723,25.20881 69,31c3.99473,1.71203 -8.65599,0.86425 -13,1c-7.00451,0.21889 -13.99528,0.78774 -21,1c-4.66453,0.14135 -17.29983,-3.29983 -14,0c5.82142,5.82142 15.12108,6.61245 23,9c4.95234,1.50071 10.06547,2.44173 15,4c1.42152,0.4489 5.4792,1.8151 4,2c-12.3094,1.53868 -24.70082,-2.38169 -37,-4c-4.67376,-0.61497 -18.37688,-3.75075 -14,-2c33.23782,13.29513 67.10761,24.5364 101,36c7.68927,2.60078 15.44491,5.03193 23,8c1.80906,0.7107 6.79134,2.24575 5,3c-41.20455,17.34928 -144.19364,2.93349 -182,2c-21.9933,-0.54304 -44,0 -66,0c-5,0 -12.76393,4.47214 -15,0c-2.10819,-4.21637 9.33811,-1.30072 14,-2c8.67162,-1.30074 17.28916,-2.9949 26,-4c15.90833,-1.83558 31.98932,-1.67979 48,-2c9.33742,-0.18675 18.66349,-0.77228 28,-1c4.99851,-0.12191 18.53553,-3.53553 15,0c-4.4133,4.4133 -38,14.49668 -38,20c0,5.74684 8.27739,6.17275 12,7c25.4697,5.65993 34.22342,-3.1332 50,-23c15.24543,-19.19795 18.76812,-32.73813 -3,-47c-9.26666,-6.07126 -22.97098,-8.97098 -31,-17c-0.33333,-0.33333 -1.4714,-1 -1,-1c4.02768,0 7.03188,4.30989 11,5c16.34407,2.84245 67.91165,-3.55825 72,-24c1.96148,-9.80741 -62.63721,-42.24186 -69,-38c-1.34667,0.89778 5.60901,9 7,9" fill="none" stroke="black" stroke-linecap="round" stroke-width="5"/>
	<path d="M87,216c-11.0192,11.0192 -47.55155,39.1031 -52,48" fill="none" stroke="black" stroke-linecap="round" stroke-width="5"/>
	<path d="M230,209c0,0.33333 -0.1715,0.71417 0,1c5.00408,8.34013 12.39491,14.25032 17,23c6.42983,12.21668 10.08367,26.16733 16,38c1.71928,3.43856 1.05513,1.02756 -1,0" fill="none" stroke="black" stroke-linecap="round" stroke-width="5"/>
	<path d="M96,192c32.96099,0 67.64385,4.77626 101,7c7.02641,0.46843 18.04062,-2.31979 25,0c5.23066,1.74355 1.27148,19.90034 2,25c0.20585,1.44093 8.29551,17.56816 7,18c-0.94868,0.31623 -2.01163,0.15206 -3,0c-25.94789,-3.99198 -43.09249,-15 -70,-15c-18.59963,0 -34.96584,-4 -53,-4c-2.02759,0 -6.18357,1.01926 -6,-1c1.3024,-14.32636 15,-28.95296 15,-42" fill="none" stroke="black" stroke-linecap="round" stroke-width="5"/>
	<path d="M103,189c10.2952,46.32842 32.81695,70.3661 12,112" fill="none" stroke="black" stroke-linecap="round" stroke-width="5"/>
	<path d="M222,207c-48.30106,32.20071 -81.57455,75.63817 -44,132" fill="none" stroke="black" stroke-linecap="round" stroke-width="5"/>
</svg>
