<?xml version="1.0" ?>
<svg baseProfile="full" height="300" version="1.1" viewBox="[0, 0, 300, 300]" width="300" xmlns="http://www.w3.org/2000/svg" xmlns:ev="http://www.w3.org/2001/xml-events" xmlns:xlink="http://www.w3.org/1999/xlink">
	<defs/>
	<path d="M72,272c4.63049,-16.2067 10.70991,-33.12974 16,-49c5.33315,-15.99944 3.34316,-34.5442 7,-51c6.63869,-29.87408 16.6054,-57.44857 20,-88c2.09607,-18.86464 4.73153,-35.95314 3,-55c-0.00848,-0.09325 0,-11 0,-11c0,0 8.53236,15.31524 23,14c11.57046,-1.05186 20.88324,-8.73097 33,-7c6.99194,0.99885 19.99285,9.33572 27,7c5.05304,-1.68435 44.43479,-11.34781 46,-9c11.28015,16.92023 0.29597,45.2557 2,64c2.03728,22.41006 8.25655,47.53932 12,70c3.24251,19.45504 -4,35.8876 -4,55c0,11.93528 3.83917,24.4825 0,36c-1.62364,4.87093 -36.5933,30.44022 -40,10c-1.48569,-8.91416 5.74764,-18.74134 8,-27c2.40123,-8.80451 -1.15364,-18.38544 1,-27c2.2862,-9.14481 10,-18.86568 10,-28" fill="none" stroke="black" stroke-linecap="round" stroke-width="5"/>
	<path d="M263,177c7.45536,0 14.33507,20.67014 17,26c16.59689,33.19378 6.54764,71.23331 -14,100c-2.09568,2.93396 -2.5021,8.12553 -6,9c-9.94317,2.48579 -20.81076,-16.86456 -22,-24c-1.48813,-8.92878 -5.9563,-15.39202 -3,-25c4.19289,-13.6269 30.49772,-66.50228 22,-75" fill="none" stroke="black" stroke-linecap="round" stroke-width="5"/>
	<path d="M128,53c0,-1.66667 4,-4.66667 4,-3c0,9.6253 -16.68286,50.39028 -9,55c34.73955,20.84373 74.0305,24.23781 112,33c8.35637,1.92839 23.10398,11.89602 31,4c4.40512,-4.40512 -8.5215,-36.0516 -11,-42c-3.92981,-9.43155 -8.64485,-46.72897 -15,-48c-11.07224,-2.21445 -23.2631,4.34817 -34,6c-7.96479,1.22535 -15.76112,-2.74899 -24,-2c-15.11178,1.3738 -35.79633,8.06789 -51,3" fill="none" stroke="black" stroke-linecap="round" stroke-width="5"/>
	<path d="M115,155c3.20762,6.41525 25.98975,4.4817 31,5c19.37977,2.0048 93.43961,6.43961 107,20c2.68742,2.68742 -1.53824,7.49177 -3,11c-6.48561,15.56545 -6.93512,83.64504 -17,87c-2.40832,0.80277 -4.83799,-1.66953 -7,-3c-15.01645,-9.24089 -28.98066,-17.99033 -45,-26c-22.04132,-11.02066 -54.69693,-16.69693 -71,-33c-2.39257,-2.39257 -1,-13.66427 -1,-17c0,-6.97449 -2.76377,-14.94492 -1,-22c4.66342,-18.65369 16.67344,-29.34687 25,-46" fill="none" stroke="black" stroke-linecap="round" stroke-width="5"/>
	<path d="M77,259c3.81753,-9.54383 10.63279,-17.04099 17,-25c63.69426,-79.61782 67,25.65277 67,72" fill="none" stroke="black" stroke-linecap="round" stroke-width="5"/>
	<path d="M78,252c2.88159,0 4.8878,26.72195 14,29c21.43934,5.35984 46.51094,-19.31531 57,-34c11.11941,-15.56717 15.62546,-30.8769 20,-49c1.2043,-4.98924 8,-30.19427 8,-29" fill="none" stroke="black" stroke-linecap="round" stroke-width="5"/>
</svg>
