<?xml version="1.0" ?>
<svg baseProfile="full" height="300" version="1.1" viewBox="[0, 0, 300, 300]" width="300" xmlns="http://www.w3.org/2000/svg" xmlns:ev="http://www.w3.org/2001/xml-events" xmlns:xlink="http://www.w3.org/1999/xlink">
	<defs/>
	<path d="M41,59c22.34367,7.44789 48.8346,-0.93045 72,1c17.78846,1.48237 35.69722,9.29226 53,13c15.3523,3.28978 33.25913,1.31561 49,2c20.003,0.8697 38.06097,-11 57,-11" fill="none" stroke="black" stroke-linecap="round" stroke-width="5"/>
	<path d="M45,58c-0.97774,4.8887 -5.93663,19.12674 -4,23c4.46164,8.92327 36.4697,7.13361 46,8c22.75966,2.06906 46.55413,-0.80573 69,2c9.33545,1.16693 18.23875,5.97612 28,5c11.50078,-1.15008 22.06358,-8.43765 33,-10c13.75295,-1.96471 25.18928,-1 39,-1c1,0 2.29289,0.70711 3,0c8.26094,-8.26094 2.22442,-18.22442 10,-26c2.48649,-2.48649 24.00235,-12 13,-12" fill="none" stroke="black" stroke-linecap="round" stroke-width="5"/>
	<path d="M58,85c3.65509,18.27545 6,36.28292 6,55c0,2.96784 -3,31.37275 -3,21" fill="none" stroke="black" stroke-linecap="round" stroke-width="5"/>
	<path d="M110,88c0,8.18989 7,106.11274 7,62" fill="none" stroke="black" stroke-linecap="round" stroke-width="5"/>
	<path d="M156,95c9.62528,9.62528 9.16521,38.31288 10,50c0.42748,5.98475 -0.66259,12.0367 0,18c0.26029,2.34261 1,9.35702 1,7c0,-2.35702 -0.42834,-4.71335 -1,-7" fill="none" stroke="black" stroke-linecap="round" stroke-width="5"/>
	<path d="M201,84c19.34139,9.6707 11.91955,44.75865 18,63c1.23378,3.70135 0.09843,11 4,11" fill="none" stroke="black" stroke-linecap="round" stroke-width="5"/>
	<path d="M240,84c0,16.27744 9.05589,36.11178 16,50c1.64654,3.29309 3,21.97798 3,17" fill="none" stroke="black" stroke-linecap="round" stroke-width="5"/>
	<path d="M62,162c7.85971,7.85971 63.51146,-1.57208 71,-2c49.04306,-2.80246 96.31133,-3 144,-3c1.37437,0 -3.62243,-0.32149 -4,1c-1.31114,4.58898 -2.32505,9.27536 -3,14c-1.2633,8.84312 0,19.04109 0,28c0,12.77985 0.56702,36.43298 -9,46c-1.79505,1.79505 -4.65669,-2.02362 -7,-3c-22.25265,-9.27194 -49.52045,-9.73099 -73,-14c-18.47979,-3.35996 -36.71623,-2.56216 -55,-5c-15.43941,-2.05859 -29.1482,-8.02964 -44,-11c-13.08508,-2.61702 -25.76049,8.4479 -38,6c-1.96116,-0.39223 0,-4 0,-6c0,-8.81066 1.16826,-17.33652 5,-25c3.0778,-6.1556 -0.34359,-15.65641 5,-21c4.09188,-4.09188 2.0796,-17.0796 7,-22" fill="none" stroke="black" stroke-linecap="round" stroke-width="5"/>
	<path d="M59,211c-2.61053,2.61053 -7,42.49909 -7,52" fill="none" stroke="black" stroke-linecap="round" stroke-width="5"/>
	<path d="M112,209c0,11.41449 0.69651,47.30349 -9,57" fill="none" stroke="black" stroke-linecap="round" stroke-width="5"/>
	<path d="M57,228c14.12857,7.06428 43.43289,14.18904 59,9" fill="none" stroke="black" stroke-linecap="round" stroke-width="5"/>
	<path d="M226,236c1.92787,0 2.07213,-2 4,-2" fill="none" stroke="black" stroke-linecap="round" stroke-width="5"/>
	<path d="M230,234c1.02935,2.0587 0.47796,4.47796 2,6" fill="none" stroke="black" stroke-linecap="round" stroke-width="5"/>
	<path d="M232,236c0,4.38914 -3.86226,31.13774 1,36" fill="none" stroke="black" stroke-linecap="round" stroke-width="5"/>
	<path d="M262,239c11.94178,11.94178 -4.21434,44.78566 7,56" fill="none" stroke="black" stroke-linecap="round" stroke-width="5"/>
	<path d="M230,253c5.29226,0 29,1.48624 29,4" fill="none" stroke="black" stroke-linecap="round" stroke-width="5"/>
	<path d="M231,266c0,4.85034 -1,9.29234 -1,14" fill="none" stroke="black" stroke-linecap="round" stroke-width="5"/>
</svg>
