<?xml version="1.0" ?>
<svg baseProfile="full" height="300" version="1.1" viewBox="[0, 0, 300, 300]" width="300" xmlns="http://www.w3.org/2000/svg" xmlns:ev="http://www.w3.org/2001/xml-events" xmlns:xlink="http://www.w3.org/1999/xlink">
	<defs/>
	<path d="M52,293c0,-5.80951 -2.91428,-13.25715 -1,-19c9.09922,-27.29765 35.26391,-47.90303 38,-78c5.64378,-62.0816 -66.59505,-152.03887 17,-183c15.16536,-5.6168 31.58972,-8.86324 47,-14c23.43296,-7.81099 36.10048,-7.51527 60,-2c67.13703,15.49316 29.81017,83.86104 38,133c2.0747,12.44821 7.62272,24.51929 10,37c3.27987,17.21934 1.94525,35.59655 3,53c1.57945,26.06099 12.6651,50.06134 20,75c1.61663,5.49653 16.15972,32.47916 14,26" fill="none" stroke="black" stroke-linecap="round" stroke-width="5"/>
	<path d="M70,93c46.68106,17.5054 90.03366,13.03893 138,-1c0.26632,-0.07795 30,-6.80174 30,-11" fill="none" stroke="black" stroke-linecap="round" stroke-width="5"/>
	<path d="M264,70c2.67787,-1.33893 10.1632,-6 14,-6" fill="none" stroke="black" stroke-linecap="round" stroke-width="5"/>
	<path d="M255,65c-9.73053,0 -15.79532,7.69297 -20,14" fill="none" stroke="black" stroke-linecap="round" stroke-width="5"/>
	<path d="M202,31c-22.00456,2.20046 -49.26612,2.11405 -70,11c-3.46631,1.48556 5.13666,5.54571 8,8c12.81749,10.98642 30.10332,19.57093 47,13c1.41181,-0.54904 10.6421,-5.16843 9,-9c-10.54598,-24.60729 -78.28156,1.12626 -79,4c-0.63142,2.52569 3.9041,3.45566 6,5c8.48603,6.25287 16.45562,13.52607 26,18c21.95693,10.29231 99.93835,4.32188 97,-28c-0.86579,-9.52373 -16.97104,-10.36537 -23,-11c-27.5859,-2.90378 -28.44973,-2 -59,-2c-21.77253,0 -50.65973,-10.87508 -49,19c2.24586,40.42539 123,-15.48318 123,-30" fill="none" stroke="black" stroke-linecap="round" stroke-width="5"/>
	<path d="M158,22c-16.90999,3.382 -39.25257,2.21765 -27,24c3.07505,5.46676 8.21588,11.37086 14,14c17.3888,7.904 45.13287,2.16259 62,-1c10.09556,-1.89292 18.14435,-4.57218 27,-9c1.33333,-0.66667 5.1452,-1.04567 4,-2c-27.58557,-22.98798 -113.10829,-13.93376 -146,-9c-8.15498,1.22325 -17.13874,1.42583 -24,6c-8.42899,5.61933 -11.23114,48.91551 -6,57c17.14079,26.49031 116.81501,-19.02331 138,-28c12.94979,-5.4872 30.10959,-13.78082 21,-32c-1.20185,-2.4037 -5.32902,-1.29678 -8,-1c-32.22906,3.58101 -61.67092,17.16773 -93,25c-17.5443,4.38608 -34.03809,6.13227 -50,15c-0.65156,0.36198 -2.27682,0.30795 -2,1c8.43845,21.09613 99.83751,-10.52371 120,-14c6.6025,-1.13836 20,4.69992 20,-2c0,-2.97421 -13.00909,-3 -16,-3" fill="none" stroke="black" stroke-linecap="round" stroke-width="5"/>
	<path d="M90,181c30.48621,-6.09724 59.78424,-12.91895 91,-15c10.50794,-0.70053 20.47409,3 31,3c14.33163,0 27.21722,4 41,4c2.39276,0 20.64738,-4.05785 21,-3c2.4889,7.46669 -2.09346,19.74767 -3,27c-0.15773,1.26182 0.11471,14.32793 -1,16c-0.3698,0.5547 -1.33333,0 -2,0c-14.47735,0 -29.70062,-1.58882 -44,0c-19.36998,2.15222 -38.59051,7.78177 -58,10c-5.97039,0.68233 -11.99272,0.84597 -18,1c-14.38058,0.36873 -29.70682,1.04188 -44,-1c-1.34333,-0.1919 -10.90172,0.49139 -11,0c-0.68067,-3.40333 7.05387,-48.05387 9,-50" fill="none" stroke="black" stroke-linecap="round" stroke-width="5"/>
	<path d="M98,184c15.80239,15.80239 88.63123,4.15045 108,0c13.39931,-2.87128 25.90089,-2.18318 39,0c1.03975,0.17329 3.74536,0.25464 3,1c-6.63719,6.63719 -88.07233,4.32735 -100,2c-6.35237,-1.23949 -12.68196,-2.59599 -19,-4c-2.68328,-0.59628 -5.36719,-1.21016 -8,-2c-1.42784,-0.42835 -5.24035,-2.8269 -4,-2c24.01812,16.01208 52.5357,28.35715 82,23c8.64946,-1.57263 16.00169,-6.80067 24,-10c2.80257,-1.12103 11.97739,-0.50377 9,-1c-23.7821,-3.96368 -56.61608,-1.77946 -80,-1c-16.02232,0.53408 -32.01459,1.78898 -48,3c-6.01967,0.45604 -11.98577,1.47702 -18,2c-1.6604,0.14438 -6.17851,-1.17851 -5,0c1.43372,1.43372 3.9769,0.86513 6,1c12.75128,0.85009 25.48582,3.26387 38,4c4.67048,0.27473 9.32442,1.16698 14,1c4.71104,-0.16825 9.31644,-1.46474 14,-2c6.9862,-0.79842 13.98904,-1.4607 21,-2c16.82495,-1.29423 30.03889,-3.43968 46,-8c10.0588,-2.87394 22.44488,2.95956 33,2c2.67638,-0.24331 5.45049,-0.15016 8,-1" fill="none" stroke="black" stroke-linecap="round" stroke-width="5"/>
	<path d="M77,195c-23.59336,0 -86.05514,57.52757 -109,69" fill="none" stroke="black" stroke-linecap="round" stroke-width="5"/>
	<path d="M264,192c23.23832,11.61916 38.17392,38.52718 57,55c11.37934,9.95692 23.62144,21.31072 37,28c2.10819,1.05409 -4.67505,-0.61251 -7,-1" fill="none" stroke="black" stroke-linecap="round" stroke-width="5"/>
	<path d="M41,209c18.166,10.38057 41.93342,17.31114 62,24" fill="none" stroke="black" stroke-linecap="round" stroke-width="5"/>
	<path d="M196,205c-12.35358,0 -24.69069,0.3677 -37,-1c-8.76333,-0.9737 -15.4187,-2.56978 -24,-4c-27.2196,-4.5366 24.55126,10.46076 29,11c27.54792,3.33914 46.19981,-2.51989 67,-15c8.18152,-4.90891 17.20599,3.13295 15,-9c-0.60809,-3.34451 0.4037,-7.5963 -2,-10c-26.52278,-26.52278 -106.482,0.42297 -139,15c-1.60486,0.71942 -31.33264,11.66528 -32,13c-2.83627,5.67255 12.6579,1 19,1c10.84658,0 19.30512,0.37998 30,-1c11.75151,-1.51632 27.75702,-6.0405 40,-4c16.32508,2.72085 43.13297,8.62234 60,3c3.05048,-1.01683 8.29544,-2.64772 11,-4c3.29309,-1.64655 -0.16428,-7.50715 1,-11c0.96413,-2.8924 2.03587,-6.1076 3,-9c0.61464,-1.84391 4.8199,-4.31754 3,-5c-10.81001,-4.05375 -26.55743,-7 -38,-7" fill="none" stroke="black" stroke-linecap="round" stroke-width="5"/>
	<path d="M226,55c0.98769,0.19754 12.14481,2.13113 12,3c-0.91253,5.47517 -10.71713,17.76096 -1,21c3.90852,1.30284 6.04245,-3.12734 7,-6c4.366,-13.09801 -11.96792,-9.25662 -10,-25c0.301,-2.40796 3.71594,-5.28406 2,-7c-0.74536,-0.74536 -1.99252,0.69001 -3,1c-14.61703,4.49755 -29.79212,10.09901 -45,12c-17.01284,2.12661 -85.7757,-0.47797 -91,4c-8.45379,7.2461 -20.92371,21.90191 -28,31c-2.89414,3.72104 9.28595,2 14,2c15.66667,0 31.33333,0 47,0c19.24681,0 96.19022,1.80978 114,-16c1.85516,-1.85516 2.02346,-7.36461 4,-10c6.56206,-8.74941 6.47646,-9.00673 -4,-12c-1.94957,-0.55702 -6,-1 -6,-1c0,0 20.61021,3 14,3" fill="none" stroke="black" stroke-linecap="round" stroke-width="5"/>
</svg>
