<?xml version="1.0" ?>
<svg baseProfile="full" height="300" version="1.1" viewBox="[0, 0, 300, 300]" width="300" xmlns="http://www.w3.org/2000/svg" xmlns:ev="http://www.w3.org/2001/xml-events" xmlns:xlink="http://www.w3.org/1999/xlink">
	<defs/>
	<path d="M43,48c41.84985,-20.92493 83.77456,-26.23943 129,-31c20.93106,-2.20327 39.32938,-8.44708 58,4c1.15721,0.77147 10.53871,8.59596 10,9c-8.32607,6.24455 -19.40614,18.23436 -30,20c-13.95974,2.32662 -30.64091,-4.65269 -45,-4c-11.82797,0.53764 -22.55454,4.09242 -34,6c-15.45973,2.57662 -32.11074,-1.51846 -47,-4c-11.47748,-1.91291 -22.97951,3 -34,3" fill="none" stroke="black" stroke-linecap="round" stroke-width="5"/>
	<path d="M61,36c-17.14238,45.71302 -21.17664,91.70656 -33,139c-5.80615,23.2246 -28,96.5622 -28,119" fill="none" stroke="black" stroke-linecap="round" stroke-width="5"/>
	<path d="M238,28c0,32.55052 6.56381,62.51747 9,95c1.21028,16.13711 -0.99461,33.04312 1,49c2.99125,23.92999 21,45.61975 21,70" fill="none" stroke="black" stroke-linecap="round" stroke-width="5"/>
	<path d="M32,144c20.99722,13.99815 143.58467,13.92897 172,3c7.21143,-2.77363 45.89127,-1.6524 47,5c3.00801,18.04807 -19.02391,40.80478 -35,44c-25.52683,5.10537 -46.37836,-8.07838 -72,-10c-27.57555,-2.06817 -49.77412,-2.88706 -74,-15c-5.59288,-2.79644 -14.02635,-2.01317 -20,-5c-10.99592,-5.49796 19.27842,-46.27842 23,-50" fill="none" stroke="black" stroke-linecap="round" stroke-width="5"/>
	<path d="M20,198c10.92717,0 51.26998,-12.90799 64,-18" fill="none" stroke="black" stroke-linecap="round" stroke-width="5"/>
	<path d="M84,180c0,28.03651 -5.13717,56.64015 -11,84c-1.15116,5.37209 -2.54123,17.81184 -6,23c-1.55154,2.32732 -5,13.2475 -5,12" fill="none" stroke="black" stroke-linecap="round" stroke-width="5"/>
	<path d="M261,185c-10.03376,0 -19.58985,3.17695 -29,6c-8.38369,2.51511 -17.54017,4.88504 -26,7c-4.63011,1.15753 -16.13437,-1.26875 -14,3c1.87072,3.74145 6.75113,5.62896 8,10c6.52802,22.84807 9.45927,46.84199 21,68c2.83478,5.1971 7,10.94024 7,17" fill="none" stroke="black" stroke-linecap="round" stroke-width="5"/>
	<path d="M202,176c-31.47938,-3.93492 -63.84648,-16 -95,-16c-9.21534,0 -18.70143,2.16232 -28,1c-3.87909,-0.48489 -9.54505,-2.27253 -13,-4c-1.07497,-0.53748 -4.07497,-2.53748 -3,-2c36.63337,18.31669 74.40436,33.92022 116,36c11.43727,0.57186 30.72032,2.18645 40,-4c1.2745,-0.84967 16.42362,-6.15275 15,-9c-1.49071,-2.98142 -6.66667,0 -10,0c-28.20561,0 -54.96404,-13.19123 -83,-15c-9.00593,-0.58103 -18.02493,1.05526 -27,2c-2.32051,0.24426 -9.16645,-0.86658 -7,0c22.24487,8.89795 59.24064,1.18797 83,0c6.52904,-0.32645 21.75287,1.24713 27,-4c1.61431,-1.61431 9.05833,0.51458 11,1c1.02262,0.25565 4.02262,0.74435 3,1c-12.42453,3.10613 -31.41725,-2.17049 -44,-1c-20.27948,1.88646 -29.97586,6.27882 -50,12c-11.67749,3.33643 -37.64954,10.77492 -51,13c-4.6149,0.76915 -9.32865,0.74048 -14,1c-1.33128,0.07396 -5.14332,0.68599 -4,0c33.60114,-20.16069 71.89576,0.2876 107,2c10.98694,0.53595 22.02142,-0.68616 33,0c2.42198,0.15137 8.71594,3.71594 7,2c-20.17364,-20.17364 -70.01489,-18 -95,-18c-8.33333,0 -16.66667,0 -25,0c-4.66667,0 -9.34052,0.25886 -14,0c-1.37225,-0.07624 -5.05582,-0.12015 -4,-1c18.79418,-15.66182 82.88391,-27.09503 107,-32c11.53639,-2.34638 29.63377,-8.1526 42,-3c4.69366,1.95569 9.16417,4.38806 14,6c0.31623,0.10541 1.16796,-0.28793 1,0c-28.96243,49.64987 -60.33929,26.91144 -105,26c-15.33014,-0.31286 -30.67644,-0.54727 -46,0c-4.01131,0.14326 -14.83823,1.83823 -12,-1c3.95109,-3.95109 10.61926,3.49339 16,5c11.18908,3.13294 17.54124,2 30,2c4.66667,0 17.8829,2.5886 14,0c-13.64033,-9.09355 -42.07167,-7.00896 -58,-9c-4.1025,-0.51281 -12.73795,0.42068 -17,-1c-1.70294,-0.56765 -6.79505,-2 -5,-2c46.744,0 93.26202,-1.0745 140,-2c12.33092,-0.24418 24.66667,0 37,0c7.00793,0 24.13404,5.26808 21,-1" fill="none" stroke="black" stroke-linecap="round" stroke-width="5"/>
	<path d="M209,28c-14.27062,2.03866 -28.69793,2.61632 -43,5c-39.55993,6.59332 -48.57349,21.4755 -89,8c-1.8462,-0.6154 -6.88944,-0.77888 -8,-3c-0.61322,-1.22643 12.52629,-14.53149 41,-22c29.68506,-7.78624 53.8213,0.23329 82,9c10.36751,3.22545 20.43096,7.51317 31,10c1.97369,0.4644 7.86365,0.20129 6,1c-17.69048,7.58164 -110.90909,22.72727 -124,14c-2,-1.33333 2,-4.66667 4,-6c6.25404,-4.16936 20.45003,-2.46786 27,-2c23.4666,1.67619 42.28898,15.03327 61,1c5.65589,-4.24192 19.47582,-9 26,-9c0.33333,0 1.31623,0.10541 1,0c-15.76136,-5.25379 -62.58272,4.32042 -80,7c-10.14717,1.5611 -21.09808,3.24947 -31,6c-3.04691,0.84636 -12,4 -9,3c20.20937,-6.73646 125.03915,-48.96085 136,-38c2.54951,2.54951 -5.7751,4.38755 -9,6c-12.07385,6.03692 -24.97044,10.47116 -38,14c-7.95946,2.15569 -15.97577,4.09953 -24,6c-15.9063,3.76728 -25.92585,-0.15345 -41,2c-11.04212,1.57745 -21.94795,7 -33,7" fill="none" stroke="black" stroke-linecap="round" stroke-width="5"/>
</svg>
