<?xml version="1.0" ?>
<svg baseProfile="full" height="300" version="1.1" viewBox="[0, 0, 300, 300]" width="300" xmlns="http://www.w3.org/2000/svg" xmlns:ev="http://www.w3.org/2001/xml-events" xmlns:xlink="http://www.w3.org/1999/xlink">
	<defs/>
	<path d="M72,105c8.05628,-24.16883 39.56477,-73.2608 68,-78c6.64398,-1.10733 13.64845,2.72969 20,4c7.7379,1.54758 23.62606,1.62606 30,8c17.43423,17.43423 24.14509,63.14509 30,69" fill="none" stroke="black" stroke-linecap="round" stroke-width="5"/>
	<path d="M74,103c11.11272,11.11272 90.93758,14.53121 108,6c2.51846,-1.25923 46.48211,-2 37,-2" fill="none" stroke="black" stroke-linecap="round" stroke-width="5"/>
	<path d="M78,101c0,19.30217 8.20555,38.99773 11,58c5.01857,34.12629 5.48623,68.9984 11,103c2.40651,14.84016 22,54.99465 22,61" fill="none" stroke="black" stroke-linecap="round" stroke-width="5"/>
	<path d="M221,100c0,26.07688 12.09349,54.13657 19,79c7.82311,28.16319 3.98018,57.90749 10,86c2.37643,11.09002 14,43.98831 14,52c0,3.80058 -7.3597,-1.90791 -11,-3" fill="none" stroke="black" stroke-linecap="round" stroke-width="5"/>
	<path d="M81,103c-3.09612,12.38449 -45.31844,120.31844 -51,126" fill="none" stroke="black" stroke-linecap="round" stroke-width="5"/>
	<path d="M207,113c0,33.67258 -29,64.44199 -29,98" fill="none" stroke="black" stroke-linecap="round" stroke-width="5"/>
	<path d="M96,147c15.22861,0 33.22935,13.36384 50,15c24.52699,2.39288 48.67551,-0.29728 73,-3c5.34196,-0.59355 14.30033,-7.09902 16,-2c4.04969,12.14908 7,28.94906 7,42c0,2.87913 4.65106,22.34894 2,25c-5.27046,5.27046 -14.58601,-3.23304 -22,-4c-24.02224,-2.48506 -50.08298,0 -74,0c-12.70961,0 -24.45132,0.90855 -37,3c-4.35598,0.726 -9.98045,0.99022 -14,3c-0.50393,0.25196 -6.00687,2.02403 -6,2c5.24899,-18.37146 11.42969,-36.71877 16,-55c0.94487,-3.77948 1.74048,-14.51905 0,-18c-0.95452,-1.90904 -6.13437,-5 -4,-5c3.66903,0 31.03938,10.01313 25,8" fill="none" stroke="black" stroke-linecap="round" stroke-width="5"/>
	<path d="M53,183c13.30973,0 23.72804,3.25486 38,3c31.53483,-0.56312 63.47616,-3.6853 95,-3c1.10093,0.02393 23.21809,2.70113 28,3c2.99416,0.18713 9,0 9,0h-4c0,0 3.33333,0 5,0c1.33333,0 2.67696,-0.16538 4,0c3.23571,0.40446 5.72085,1 9,1" fill="none" stroke="black" stroke-linecap="round" stroke-width="5"/>
</svg>
