<?xml version="1.0" ?>
<svg baseProfile="full" height="300" version="1.1" viewBox="[0, 0, 300, 300]" width="300" xmlns="http://www.w3.org/2000/svg" xmlns:ev="http://www.w3.org/2001/xml-events" xmlns:xlink="http://www.w3.org/1999/xlink">
	<defs/>
	<path d="M80,30c25.96172,0 58.16326,-2.79082 83,-9c4.02378,-1.00595 27.58074,-10.41926 30,-8c8.10952,8.10952 23.69158,18.34579 35,24c10.21715,5.10858 20.58148,9.7163 32,12c0.73088,0.14618 2,0.25464 2,1" fill="none" stroke="black" stroke-linecap="round" stroke-width="5"/>
	<path d="M80,28c0,13.92717 4.67462,23.84381 2,39c-5.03554,28.53474 -18.72123,55.74555 -25,84c-5.82063,26.19284 -5.51372,52.79803 -13,79c-1.53978,5.38922 -19.20726,53.79274 -16,57c14.53214,14.53214 17.44281,-1.01993 26,-13c7.93763,-11.11268 18.91202,-38.91202 25,-45c1.74268,-1.74268 2.88839,1.68929 5,0c1.97004,-1.57603 5.52373,-11.31752 9,-9c6.82224,4.54816 18.58993,15 27,15" fill="none" stroke="black" stroke-linecap="round" stroke-width="5"/>
	<path d="M121,235c1,0 2,0 3,0" fill="none" stroke="black" stroke-linecap="round" stroke-width="5"/>
	<path d="M135,232c0.66667,0 1.33333,0 2,0" fill="none" stroke="black" stroke-linecap="round" stroke-width="5"/>
	<path d="M112,230c18.96663,0 36.15437,-5 55,-5c1,0 2.55279,-0.89443 3,0c1.29521,2.59041 -3.19199,5.19199 -4,6c-7.28853,7.28853 -11.60154,12.80653 -14,23c-4.96293,21.09245 -5.79651,43.18602 -11,64" fill="none" stroke="black" stroke-linecap="round" stroke-width="5"/>
	<path d="M260,50c0,26.89957 6.51697,52.69449 5,80c-1.69634,30.53404 -7.67014,62.69095 -12,93c-1.79371,12.55596 -11.75125,58.24875 -3,67c1.99625,1.99625 4.35302,0.81168 6,-1c16.62588,-18.28847 23.50919,-42.76379 37,-63c3.5235,-5.28525 6.86057,-10.506 10,-16c0.8269,-1.44707 1.69855,-5.04116 3,-4c5.37997,4.30398 10.77246,21.06885 8,28c-2.55358,6.38396 -11.28984,4.57969 -14,10c-3.15365,6.30731 -5.13413,15.07306 -6,22c-1.86361,14.90886 8,28.06551 8,43" fill="none" stroke="black" stroke-linecap="round" stroke-width="5"/>
	<path d="M43,223c6.57155,0 17.87799,5.47385 25,7c42.03386,9.00726 64.67484,15.66503 108,7c8.89826,-1.77965 16.41803,-6.54801 25,-9c1.50128,-0.42894 44.52988,5.52988 45,6c3.29056,3.29056 -5.83727,0 -10,0" fill="none" stroke="black" stroke-linecap="round" stroke-width="5"/>
	<path d="M51,180c50.03597,0 96.18379,-9.16324 147,1c16.30723,3.26145 33.42013,8.49274 50,10c3.80677,0.34607 27.85084,-4 16,-4" fill="none" stroke="black" stroke-linecap="round" stroke-width="5"/>
	<path d="M226,212c-9.1801,0 -24.00123,-8.5002 -33,-10c-30.92703,-5.15451 -61.83874,-4.39702 -93,-2c-9.02871,0.69452 -17.98956,2.09896 -27,3c-4.32457,0.43246 -8.66056,0.75892 -13,1c-2.32974,0.12943 -9.21359,-0.73786 -7,0c24.86986,8.28995 82.49323,32.16892 110,23c20.94416,-6.98139 41.76301,-14.93229 63,-21c1.28203,-0.36629 4,0 4,0c0,0 -14.9958,9.05186 -31,12c-28.54448,5.25819 -48.617,-6.7234 -75,-12" fill="none" stroke="black" stroke-linecap="round" stroke-width="5"/>
	<path d="M93,59c12.24626,0 27.7868,4.63297 41,5c11.00081,0.30558 22.03296,0.08608 33,1c8.79565,0.73297 17.15948,1 26,1c25.39001,0 31.02441,2.6748 53,10c2.2537,0.75123 24,5.94451 24,8c0,0.44109 -12.56656,10.65531 -14,14c-1.87851,4.38319 0.78342,20.21658 -2,23c-10.57484,10.57484 -99.03791,-12.00948 -115,-16c-42.10839,-10.5271 -70.36606,24.64728 -56,-40c1.32169,-5.9476 4.59071,-15.59071 9,-20" fill="none" stroke="black" stroke-linecap="round" stroke-width="5"/>
	<path d="M127,71c17.18793,-4.04422 35.06365,-11.24204 53,-9c15.03543,1.87943 17.67306,4.57051 31,10c13.36686,5.44576 25.80366,12.34443 39,18c0.96886,0.41523 3,-0.05409 3,1c0,8.11035 -15.92296,3.26572 -24,4c-14.30917,1.30083 -28.64428,2.40185 -43,3c-35.16935,1.46539 -93.85795,7.14205 -123,-22c-0.74536,-0.74536 2.00937,0.63977 3,1c6.34312,2.30659 12.59688,4.86563 19,7c25.02912,8.34304 50.74631,14.42389 76,22c7.27376,2.18213 20.69935,9 29,9c0.33333,0 1.32051,0.09157 1,0c-3.67276,-1.04936 -58.40498,-15.55701 -51,-20c15.4056,-9.24336 75.42472,10.09527 93,15c8.38924,2.34118 18.80199,7 28,7c0.33333,0 1.31433,0.11094 1,0c-23.3693,-8.24799 -46.71883,-11.68335 -71,-16c-5.61271,-0.99782 -23.52046,-7 -31,-7c-0.33333,0 -1.31623,-0.10541 -1,0c20.37642,6.79214 41.72402,6.50521 63,7c17.40982,0.40488 18.19859,1.22897 33,-3c0.45327,-0.1295 1.46776,-1.05847 1,-1c-11.31371,1.41421 -21.85455,6.59608 -33,9c-44.25639,9.5455 -81.13298,15.30053 -106,-22c-1.78941,-2.68411 -8,-10.30341 -8,-14" fill="none" stroke="black" stroke-linecap="round" stroke-width="5"/>
	<path d="M84,227c21.00522,0 5,58.59212 5,67" fill="none" stroke="black" stroke-linecap="round" stroke-width="5"/>
</svg>
