<?xml version="1.0" ?>
<svg baseProfile="full" height="300" version="1.1" viewBox="[0, 0, 300, 300]" width="300" xmlns="http://www.w3.org/2000/svg" xmlns:ev="http://www.w3.org/2001/xml-events" xmlns:xlink="http://www.w3.org/1999/xlink">
	<defs/>
	<path d="M80,295c0,-21.17475 14.70461,-46.32691 21,-66c10.0487,-31.40219 19,-64.78788 19,-98c0,-31.21163 -8.65352,-59.38592 -1,-90c0.27634,-1.10538 7.05759,-24.38848 9,-24c8.09571,1.61914 15.38467,7.14425 23,10c20.20125,7.57547 46.83139,12.75479 68,14c13.18401,0.77553 23.97068,-6 36,-6c3.97582,0 7.87182,-1 12,-1c1.66667,0 5.9245,-1.38675 5,0c-45.07245,67.60868 -71.44884,160.10232 -33,237c9.0554,18.11079 32.82999,36.94333 51,43c1.20906,0.40302 4,2.02949 4,3" fill="none" stroke="black" stroke-linecap="round" stroke-width="5"/>
	<path d="M122,87c21.83791,0 93.32239,27.45174 112,15" fill="none" stroke="black" stroke-linecap="round" stroke-width="5"/>
	<path d="M233,89c-4.76856,0 -11.84869,-9.17983 -18,-10c-24.06795,-3.20906 -42.77099,-4.07742 -67,-11c-1.42147,-0.40613 -8.02541,-2.97459 -5,-6c2.78333,-2.78333 29.18714,8.29678 32,9c16.26879,4.0672 30.80992,0.11348 47,-3c9.5826,-1.84281 19.29024,-3.02902 29,-4c3.00348,-0.30035 12.01846,-1 9,-1c-4.85327,0 -12.70732,3.68292 -17,1c-10.59771,-6.62357 -19.13612,-17.38627 -31,-22c-21.99396,-8.55321 -62.63929,-22.8116 -75,5c-14.91419,33.55694 13.84132,26.80258 33,28c11.64536,0.72784 17.71769,2.74354 29,5c4.54625,0.90925 8.44674,1 13,1c2.34951,0 24.90593,-2.18813 24,-4c-5.68418,-11.36837 -52.75268,-9.23831 -63,-9c-9.38421,0.21824 -19.37221,0.69762 -28,-3c-2.90659,-1.24568 -11.82843,-4.41421 -9,-3c8.70519,4.3526 19.8764,11.26292 29,14c3.52651,1.05795 7.32281,0.81614 11,1c29.90349,1.49517 20.45691,-7 -3,-7" fill="none" stroke="black" stroke-linecap="round" stroke-width="5"/>
	<path d="M110,170c-7.19261,21.57784 -2.30839,48.76642 3,70c0.24083,0.9633 -0.64212,7.74315 0,8c12.46963,4.98785 27.9376,3.9856 41,7c16.45815,3.79804 55.43079,17.35382 69,-3c30.62809,-45.94214 -24.30733,-97 -69,-97c-12.45211,0 -22.4451,6.53353 -34,10c-6.14072,1.84222 -11.32997,-0.67003 -17,5" fill="none" stroke="black" stroke-linecap="round" stroke-width="5"/>
	<path d="M112,162c0,11.44481 -78.983,90.59096 -88,100c-5.16694,5.39159 -20.23361,32 -28,32" fill="none" stroke="black" stroke-linecap="round" stroke-width="5"/>
	<path d="M212,182c0,28.69265 51.87013,36.92785 70,47c7.63865,4.24369 10.02164,22 21,22" fill="none" stroke="black" stroke-linecap="round" stroke-width="5"/>
	<path d="M69,214c11.4057,0 29.42104,5.71052 40,11" fill="none" stroke="black" stroke-linecap="round" stroke-width="5"/>
	<path d="M224,231c17.28902,0 34.79341,-2 51,-2" fill="none" stroke="black" stroke-linecap="round" stroke-width="5"/>
	<path d="M119,39c4.33678,8.67356 50.79336,38.20664 59,30c2.83823,-2.83823 -6.08612,-5.23949 -9,-8c-6.52051,-6.17732 -17.41644,-15.0411 -21,-24c-0.1238,-0.30949 0.71059,-0.16538 1,0c5.78829,3.30759 10.38486,8.40631 16,12c8.72148,5.58175 18.21154,9.73718 28,13c4.57559,1.5252 11.98167,1.98625 16,5c0.59628,0.44721 1.73088,1.85382 1,2c-11.16758,2.23352 -60.3975,-4.6025 -66,1c-1.2693,1.2693 0.7307,3.7307 2,5c14.8946,14.8946 39.0278,19.45786 58,26c3.68844,1.27187 14.90157,4 11,4c-13.38962,0 -30.06864,-12.7502 -42,-18c-8.82455,-3.8828 -20.85232,-11 -31,-11c-0.33333,0 -1.33168,-0.03317 -1,0c23.60357,2.36036 46.55033,-1.16987 70,-4c12.07788,-1.45768 24.14602,-3.26447 36,-6c0.3248,-0.07495 1.26667,0.2 1,0c-14.12806,-10.59605 -40.59578,-5 -57,-5c-10.40749,0 -20.73162,-4 -30,-4c-0.33333,0 -1.33333,0 -1,0c9.04361,0 20.91636,4.53417 30,5c0.77526,0.03976 37.89198,5.94599 22,-2c-24.81175,-12.40588 -47.47569,-18 -75,-18c-1.05409,0 1.9517,0.88965 3,1c5.31438,0.55941 10.65811,0.85942 16,1c19.70258,0.51849 38.77724,-0.33965 58,5c2.84239,0.78955 21.3833,10.2334 21,11c-1.99868,3.99736 -58.9444,-1.39299 -69,-4c-3.7767,-0.97915 -7.37749,-2.55099 -11,-4c-1.98172,-0.79269 -4.78762,-6.12378 -5,-4c-0.98176,9.81755 1.41116,23.52961 0,24c-11.09681,3.69894 -16.74697,0.37349 -28,6" fill="none" stroke="black" stroke-linecap="round" stroke-width="5"/>
	<path d="M124,22c11.46043,11.46043 95.65128,-9.36513 112,-11c15.9636,-1.59636 23.17615,25 37,25" fill="none" stroke="black" stroke-linecap="round" stroke-width="5"/>
</svg>
