<?xml version="1.0" ?>
<svg baseProfile="full" height="300" version="1.1" viewBox="[0, 0, 300, 300]" width="300" xmlns="http://www.w3.org/2000/svg" xmlns:ev="http://www.w3.org/2001/xml-events" xmlns:xlink="http://www.w3.org/1999/xlink">
	<defs/>
	<path d="M31,37c37.01256,0 73.48139,-13.15594 110,-17c22.3961,-2.35748 45.46357,-1.44576 68,-3c23.89741,-1.6481 56.42061,-3.57939 75,15c5.97247,5.97247 -25.84068,35.00882 -30,40c-0.60357,0.72429 -1.10557,1.70186 -2,2c-12.95579,4.3186 -42.11423,-8.93828 -55,-11c-36.90567,-5.90491 -73.97422,-13.17055 -111,-18c-12.8219,-1.67242 -25.43624,-0.79482 -38,1c-0.601,0.08586 -12.84456,3.31089 -13,3c-3.18396,-6.36792 0.40534,-13.81069 3,-19" fill="none" stroke="black" stroke-linecap="round" stroke-width="5"/>
	<path d="M65,33c50.58982,0 101.95586,12.08605 153,11c18.73482,-0.39861 37.3164,-4.79461 56,-6c3.9917,-0.25753 8.00553,0.21024 12,0c2.6837,-0.14125 10.66667,-1.33333 8,-1c-51.83012,6.47877 -101.21717,16.82705 -154,18c-13.3811,0.29736 -30.77715,2.98449 -43,-4c-4.23325,-2.419 -9.53476,-5.08633 -14,-7c-1.64992,-0.70711 -6.78615,-1.82139 -5,-2c40.06103,-4.0061 78.02286,-1.3939 117,9c7.74329,2.06488 15.37524,4.53317 23,7c3.71212,1.20098 7.32573,2.68776 11,4c1.69048,0.60374 6.74146,2.43536 5,2c-48.64138,-12.16035 -93.64676,-20.31562 -144,-24c-11.32265,-0.82849 -22.67337,-1.22773 -34,-2c-3.71815,-0.25351 -11,1.72678 -11,-2c0,-4.6428 8.60937,3.49072 13,5c9.50076,3.26589 36.26654,10.77425 45,12c21.59345,3.03066 51.90818,5.89856 74,2c11.69212,-2.06331 17.94161,-8.6472 28,-12c0.31623,-0.10541 0.66667,0 1,0c11.25703,0 23.62853,1.7365 35,3c0.99388,0.11043 3,0 3,0c0,0 -11.12233,-6.43794 -17,-9c-25.9749,-11.32239 -54.94411,-13.59693 -83,-13c-6.03556,0.12842 -11.98393,1.49866 -18,2c-1.99309,0.16609 -5.36754,-1.89737 -6,0c-1.88562,5.65685 10.3232,6.17531 16,8c5.54215,1.78141 11.22833,3.24057 17,4c23.99174,3.15681 49.07103,-0.40474 73,-2c1.64248,-0.1095 37.09152,-5.8183 23,-3" fill="none" stroke="black" stroke-linecap="round" stroke-width="5"/>
	<path d="M55,56c-4.21075,14.03584 -6.42376,28.57305 -9,43c-1.52802,8.55691 -1.66593,17.31415 -2,26c-0.50486,13.12639 -8.1452,48.88023 11,27c15.99237,-18.277 69.55339,-93.2233 28,-114c-10.46454,-5.23227 -19.52232,13 -27,13" fill="none" stroke="black" stroke-linecap="round" stroke-width="5"/>
	<path d="M144,47c-14.064,-14.064 -20.32374,22.52039 -21,25c-7.7161,28.29236 -20.99445,69.34073 -1,96c4.53431,6.04575 11.57469,-9.73909 17,-15c18.86204,-18.29046 44.09721,-36.45366 50,-64c3.41066,-15.91644 -23.10995,-45 -40,-45c-9.81119,0 -15.59211,13 -25,13" fill="none" stroke="black" stroke-linecap="round" stroke-width="5"/>
	<path d="M209,64c-1.78161,14.25288 -7.39752,26.31058 -11,40c-3.73524,14.19393 -16.2889,37.98884 -12,53c6.32926,22.15242 31.40887,-6.61447 36,-21c3.34654,-10.48583 27.9057,-98.81886 2,-104c-6.746,-1.3492 -8.38615,9.7723 -11,15" fill="none" stroke="black" stroke-linecap="round" stroke-width="5"/>
	<path d="M232,65c1.15426,1.15426 7.85055,4.40219 8,5c4.81678,19.26711 -8.39785,131.26882 49,84c27.73941,-22.84422 -7.0222,-74.75551 -19,-97c-2.16164,-4.01447 -2.75418,-11.75418 -6,-15c-6.27252,-6.27252 -32,-8.20533 -32,3" fill="none" stroke="black" stroke-linecap="round" stroke-width="5"/>
	<path d="M33,155c53.33365,17.77788 120.30837,27.13833 176,16c19.08943,-3.81789 36.85425,-8.89949 55,-16c2.35479,-0.92144 32.53138,-14.10877 33,-12c0.72671,3.27019 -0.27329,6.72981 -1,10c-2.0838,9.37712 -23.94555,84.98639 -36,88c-2.24848,0.56212 -77.40494,-21.95093 -83,-23c-10.93499,-2.05031 -21.99031,-3.39859 -33,-5c-12.48648,-1.81622 -88.74634,1.19391 -98,-15c-7.73813,-13.54172 -3,-32.42428 -3,-47" fill="none" stroke="black" stroke-linecap="round" stroke-width="5"/>
	<path d="M28,169c17.62662,13.21996 136.79992,21 165,21c18.91599,0 36.48352,3.97161 54,12c14.09862,6.46187 24.35463,11.87685 23,12c-31.66617,2.87874 -82.35575,-24.02029 -115,-32c-2.43173,-0.59442 -29.63768,-6.24134 -34,-7c-3.67167,-0.63855 -14.5024,-3.2736 -11,-2c23.01632,8.36957 43.35519,7.85697 68,10c10.87784,0.9459 21.64143,3.54714 32,7c2.40832,0.80277 9.50405,3.41734 7,3c-30.16468,-5.02745 -57.82026,-16.73238 -89,-19c-8.31138,-0.60446 -16.66667,0 -25,0c-5.33333,0 -10.66667,0 -16,0c-3.01846,0 -12.01846,-1 -9,-1c9.68661,0 31.5015,10.23731 40,11c66.26956,5.94727 131.15471,1.05485 197,-6c13.32358,-1.42753 26.6552,-2.78684 40,-4c51.50556,-4.68232 -37.30184,11 -44,11" fill="none" stroke="black" stroke-linecap="round" stroke-width="5"/>
	<path d="M51,203c0,19.71047 -8.92396,37.77187 -15,56c-2.41014,7.23041 -4.61715,11.85144 -7,19c-0.86923,2.60768 -4.74874,8 -2,8c2.4037,0 4,-2.66667 6,-4" fill="none" stroke="black" stroke-linecap="round" stroke-width="5"/>
	<path d="M87,210c0,3 0,6 0,9c0,18.91037 1.52683,36.63413 5,54c0.31854,1.59272 1.00982,5 3,5" fill="none" stroke="black" stroke-linecap="round" stroke-width="5"/>
	<path d="M206,232c2.4267,0 1.8271,4.57946 2,7c0.84546,11.83639 4.95183,22.39371 7,34c2.90665,16.471 1.33376,34.34404 2,51c0.15987,3.9968 0,8 0,12c0,1.66667 0,3.33333 0,5" fill="none" stroke="black" stroke-linecap="round" stroke-width="5"/>
	<path d="M252,230c-2.61459,28.76052 6,55.63431 6,84" fill="none" stroke="black" stroke-linecap="round" stroke-width="5"/>
	<path d="M220,277c-9.1183,0 -14.33647,5.66353 -7,13c1.04707,1.04707 9.42007,-6.15987 9,-7c-1.67306,-3.34611 -5,-2.23569 -5,-6" fill="none" stroke="black" stroke-linecap="round" stroke-width="5"/>
	<path d="M267,276c-4.67856,0 -9.34466,0.53447 -14,1c-3.33333,0.33333 -6.65991,0.74307 -10,1c-18.91695,1.45515 18.29598,30.60536 30,15c0.87799,-1.17066 -20,-16.69869 -20,-16" fill="none" stroke="black" stroke-linecap="round" stroke-width="5"/>
	<path d="M251,278c0,3.65078 7.12116,5.84847 10,7c1.57811,0.63124 6.69967,1 5,1c-9.63601,0 -14.20351,-5.10175 -22,-9c-0.29814,-0.14907 -1.33333,0 -1,0c4.90347,0 12.00331,8.45665 16,11c11.11331,7.07211 -3.78246,1 -8,1" fill="none" stroke="black" stroke-linecap="round" stroke-width="5"/>
	<path d="M94,267c4.4918,4.4918 11.61102,-1.83306 9,6c-0.90062,2.70185 -2.21759,5.26158 -3,8c-0.37757,1.32149 -0.02817,3.02817 -1,4c-1.33333,1.33333 -2.66667,-2.66667 -4,-4c-4.49796,-4.49796 8.58845,-28.58845 -6,-14" fill="none" stroke="black" stroke-linecap="round" stroke-width="5"/>
</svg>
