<?xml version="1.0" ?>
<svg baseProfile="full" height="300" version="1.1" viewBox="[0, 0, 300, 300]" width="300" xmlns="http://www.w3.org/2000/svg" xmlns:ev="http://www.w3.org/2001/xml-events" xmlns:xlink="http://www.w3.org/1999/xlink">
	<defs/>
	<path d="M78,291c4.43883,-15.53592 15.92251,-28.36961 20,-44c10.03687,-38.47465 4.01981,-155.97623 -21,-186c-11.94605,-14.33527 -33.78527,-20.26176 -51,-26" fill="none" stroke="black" stroke-linecap="round" stroke-width="5"/>
	<path d="M209,277c15.41777,-20.55703 7.56794,-57.1323 9,-81c2.28123,-38.02052 8.95875,-78.18209 19,-115c3.81871,-14.00193 7.80653,-41.08065 27,-43c6.62486,-0.66249 25.79683,16.79683 21,12" fill="none" stroke="black" stroke-linecap="round" stroke-width="5"/>
	<path d="M29,26c68.01213,-7.5569 137.65129,-14.77521 205,-26c14.60686,-2.43448 37.03845,-3.25825 50,6c7.86293,5.61638 24.43941,30.70706 12,39c-10.83354,7.22236 -28.06938,-12.62041 -41,-4" fill="none" stroke="black" stroke-linecap="round" stroke-width="5"/>
	<path d="M98,142c27.17551,5.4351 104.2822,-1.7178 124,18" fill="none" stroke="black" stroke-linecap="round" stroke-width="5"/>
	<path d="M106,184c41.3003,8.26006 74.58007,-3 112,-3" fill="none" stroke="black" stroke-linecap="round" stroke-width="5"/>
	<path d="M104,211c9.99135,9.99135 68.87958,1.4267 86,0c9.73617,-0.81135 21.5457,-0.64939 31,-2c2.05997,-0.29428 5.3866,-2.1933 7,-3c1.60555,-0.80277 6.79505,-2 5,-2c-2.66667,0 -5.33333,0 -8,0" fill="none" stroke="black" stroke-linecap="round" stroke-width="5"/>
	<path d="M213,178c-29.67739,-14.8387 -75.10211,12.44895 -94,3c-19.10873,-9.55436 49.09948,-5.11631 55,-4c6.52586,1.23462 12.89539,3.38374 19,6c0.30638,0.13131 1.14907,0.29814 1,0c-3.72817,-7.45634 -19.17106,-12.81316 -26,-16c-4.20722,-1.96337 -17.46416,-3.72453 -13,-5c12.90291,-3.68655 26.66966,-5.59681 40,-7c1.98901,-0.20937 6,0 6,0c0,0 -9.25826,-2.45809 -14,-3c-11.53122,-1.31785 -31.30976,-1 -43,-1c-7,0 -14.00364,-0.22569 -21,0c-4.01178,0.12941 -16.01386,1 -12,1c33.44021,0 66.53746,4 100,4c3.68179,0 11,2.68179 11,-1" fill="none" stroke="black" stroke-linecap="round" stroke-width="5"/>
	<path d="M239,24c-31.21941,0 -56.10937,12.27342 -68,42c-1.62829,4.07073 -3.96073,9.07855 -2,13c4.92353,9.84707 27.86493,-5.36431 31,-7c3.85322,-2.01037 12.37437,-2.87689 11,-7c-3.22431,-9.67293 -88.63489,12.0715 -82,27c9.58311,21.56199 61.90064,-11.61147 68,-15c23.30849,-12.94916 26.18334,-20.17947 12,-42c-15.13209,-23.28013 -39.65577,20.46987 -33,36c7.15794,16.70185 30.17569,-6.22445 35,-10c3.16094,-2.47378 11.83823,-5.16177 9,-8c-19.72296,-19.72296 -65.741,-18 -91,-18c-6.36832,0 -20.67562,-4.14393 -19,2c5.90195,21.64047 34.82744,66.73857 63,55c11.96019,-4.98341 44.9634,-37.16639 25,-50c-37.88743,-24.3562 -111.26544,47.07579 -57,97c14.39772,13.2459 32.01083,5.96741 46,-3c31.38369,-20.11775 37.49456,-38.68124 15,-69c-5.3601,-7.22448 -12.55551,-13.6222 -21,-17c-8.3533,-3.34132 -44.42953,-0.85458 -47,6c-3.34532,8.92086 7.15402,24.03874 11,30c8.31435,12.88725 14.72113,22.54981 28,31c29.3814,18.69725 68.6221,3.06252 58,-35c-2.32959,-8.3477 -5.75982,-16.44143 -10,-24c-7.29275,-13.00011 -15.3507,-21.1503 -29,-27c-21.12737,-9.05459 -89.88212,40.35364 -86,52c8.18424,24.55271 61.2455,45.01067 84,46c12.51388,0.54408 33.67721,-2.61393 32,-11c-6.8366,-34.18301 -51.24897,-56.73582 -81,-65c-5.90214,-1.63948 -52.88113,-7.33577 -52,5c2.20253,30.83548 39.77336,65.10809 63,81c8.54544,5.84688 17.70248,11.0595 28,9c0.32686,-0.06537 0.96683,0.33168 1,0c1.64185,-16.41849 -8.3207,-35.79228 -13,-51c-3.98986,-12.96705 -4.54502,-13.36177 -7,-24c-0.76438,-3.31229 -2.48074,-13.36518 -2,-10c2.83905,19.87332 10.95472,37.7874 21,11" fill="none" stroke="black" stroke-linecap="round" stroke-width="5"/>
	<path d="M99,181c0,29.58122 3.9747,52.61481 -12,80c-19.20622,32.92495 -62.41885,41.41885 -88,67" fill="none" stroke="black" stroke-linecap="round" stroke-width="5"/>
	<path d="M102,181c0,91.04596 -68.14122,68.14122 -113,113" fill="none" stroke="black" stroke-linecap="round" stroke-width="5"/>
	<path d="M219,169c5.48272,0 25.0816,63.10608 35,76c10.381,13.4953 81.77623,55.44753 91,37" fill="none" stroke="black" stroke-linecap="round" stroke-width="5"/>
	<path d="M108,198c3.63156,7.26313 4.94858,16.37146 8,24c12.01007,30.02517 32.84568,62.15432 4,91" fill="none" stroke="black" stroke-linecap="round" stroke-width="5"/>
	<path d="M226,186c0,6.24049 -6.39036,13.40791 -9,19c-8.98646,19.25671 -16.62426,44.25445 -13,66c1.57855,9.4713 5.10161,21.68129 13,28c3.2493,2.59944 16.07374,11 15,11" fill="none" stroke="black" stroke-linecap="round" stroke-width="5"/>
</svg>
