<?xml version="1.0" ?>
<svg baseProfile="full" height="300" version="1.1" viewBox="[0, 0, 300, 300]" width="300" xmlns="http://www.w3.org/2000/svg" xmlns:ev="http://www.w3.org/2001/xml-events" xmlns:xlink="http://www.w3.org/1999/xlink">
	<defs/>
	<path d="M69,292c2.24775,-2.24775 8.26003,-19.17207 10,-23c23.1696,-50.97312 29.95082,-106.75683 2,-158c-12.09391,-22.17218 -45.48511,-26.97022 -56,-48" fill="none" stroke="black" stroke-linecap="round" stroke-width="5"/>
	<path d="M208,291c10.19183,-25.47958 24.28501,-48.85502 33,-75c11.37347,-34.1204 18.36453,-70.64805 36,-102c8.26875,-14.7 18.43873,-43.06268 39,-46c5.48304,-0.78329 8.14806,7 13,7" fill="none" stroke="black" stroke-linecap="round" stroke-width="5"/>
	<path d="M28,56c18.70856,0 39.44211,-15.22201 59,-17c17.82957,-1.62087 37.17579,-0.82812 55,1c12.67018,1.29951 25.27092,3.56107 38,4c3.99762,0.13785 8,0 12,0c12.18442,0 24.92781,-4.50902 37,-3c11.43544,1.42943 69,18.40576 69,25" fill="none" stroke="black" stroke-linecap="round" stroke-width="5"/>
	<path d="M92,152c37.9904,0 77.27414,16.01443 115,18c11.41188,0.60063 32.84918,-2.15082 42,7" fill="none" stroke="black" stroke-linecap="round" stroke-width="5"/>
	<path d="M99,197c3.80562,7.61124 29.92027,7.58355 37,8c36.63587,2.15505 75.64212,0 111,0" fill="none" stroke="black" stroke-linecap="round" stroke-width="5"/>
	<path d="M229,181c-21.8987,-10.94935 -42.40225,-15.90037 -67,-20c-11.35187,-1.89198 -22.60721,-4.37246 -34,-6c-3.97352,-0.56765 -8.01713,-0.50214 -12,-1c-1.32304,-0.16538 -5.06667,-0.8 -4,0c18.65459,13.99094 41.84873,14.15406 64,16c9.32001,0.77667 14.73285,4.24428 23,7c0.31623,0.10541 1.33218,-0.02768 1,0c-15.26651,1.27221 -20.34131,2.05631 -38,-1c-9.16135,-1.58562 -18.1136,-4.26572 -27,-7c-4.14171,-1.27437 -8.12415,-3.06207 -12,-5c-16.69516,-8.34758 8.6274,5.47208 10,6c9.89465,3.80564 22.62193,4.99567 33,6c4.6568,0.45066 9.33634,0.62691 14,1c0.08469,0.00678 28,0.85914 28,4c0,3.39935 -6.61752,-1.66175 -10,-2c-6.97315,-0.69732 -13.99898,-0.68884 -21,-1c-16.32062,-0.72536 -32.66327,-1 -49,-1c-5.66667,0 -11.33786,0.22649 -17,0c-3.01605,-0.12064 -11.31885,-2.93237 -9,-1c27.60065,23.00054 66.8545,16.4194 100,12c8.69171,-1.15889 17.35068,-2.55845 26,-4c3.30438,-0.55073 6.65004,-1 10,-1c1,0 3.98639,-0.1644 3,0c-22.98315,3.83052 -47.87852,3.15084 -71,1c-8.0276,-0.74675 -15.97982,-2.17742 -24,-3c-4.98495,-0.51128 -10.01955,-0.44662 -15,-1c-1.04765,-0.11641 -3.90388,-1.54233 -3,-1c18.86383,11.3183 41.20755,19.86163 62,6" fill="none" stroke="black" stroke-linecap="round" stroke-width="5"/>
	<path d="M250,89c-28.01239,0 -122.95411,18.09178 -135,-6c-0.77501,-1.55002 2.25768,-5.34846 4,-5c6.27878,1.25576 7.67325,10.27991 12,15c13.00386,14.18603 30.92238,19.90846 50,19c29.34604,-1.39743 34.30192,-3.85303 38,-29c2.31275,-15.72667 3.81793,-17.09514 3,-31c-2.05924,-35.00701 -107.6497,-15.3503 -120,-3c-11.64019,11.64019 13.53388,42.34214 20,48c34.46395,30.15595 67.8125,29.28931 110,15c9.61765,-3.25759 21.90738,-3.87651 28,-12c4.11825,-5.491 -11.20523,-9.02932 -18,-10c-5.19539,-0.7422 -78.56367,-4.32725 -79,-4c-5.0643,3.79822 22.92771,76.60843 48,39c27.96223,-41.94335 -65.14114,-76.5412 -77,-66c-1.71524,1.52466 3.8151,19.44529 6,26c7.47581,22.42742 50.4837,83.59692 80,59c14.57103,-12.14252 -48.89582,-48.87634 -61,-52c-3.88653,-1.00298 -7.99168,-0.78904 -12,-1c-2.66298,-0.14016 -8.57848,-2.60317 -8,0c12.82164,57.6974 89.79949,44.99744 81,1c-7.00333,-35.01665 -99.62575,-27.3497 -123,-18c-0.92848,0.37139 0,2 0,3c0,15.85007 -3.90081,41.37399 7,55c15.88057,19.85071 106.13595,19.00537 119,9c10.12734,-7.87682 13.77195,-19.46895 18,-31c3.2027,-8.73465 10.92738,-25.12392 -2,-31c-13.12465,-5.96575 -85.37857,13.75715 -90,23c-2.37873,4.75746 6.58746,12.75364 8,14c9.68996,8.54996 27.05781,20.07248 41,19c16.76374,-1.28952 25.35954,-22.42698 11,-32" fill="none" stroke="black" stroke-linecap="round" stroke-width="5"/>
	<path d="M96,149c0,38.13295 -34.42435,94.50658 -63,119c-12.56072,10.76633 -27.38584,17.38584 -39,29" fill="none" stroke="black" stroke-linecap="round" stroke-width="5"/>
	<path d="M248,177c0,36.93268 4.37167,78.37167 32,106c1.34141,1.34141 37.41373,10 41,10c2.66667,0 8,0 8,0c0,0 -20.89631,0.57926 -23,1" fill="none" stroke="black" stroke-linecap="round" stroke-width="5"/>
	<path d="M99,209c0,3.73026 29.42462,10.4677 33,12c13.70234,5.87243 30.81195,15.83028 46,18c16.39493,2.34213 26.42016,1.6654 42,-4c7.11574,-2.58754 15.03916,-4.96084 20,0c0.2357,0.2357 1.1849,0.27735 1,0c-2.09191,-3.13786 -5.33333,-5.33333 -8,-8" fill="none" stroke="black" stroke-linecap="round" stroke-width="5"/>
	<path d="M227,177c-7.20732,0 -12.98407,8.00177 -22,7c-18.11747,-2.01305 -70.8473,-23.87027 -85,-5c-0.89443,1.19257 2.62982,1.41278 4,2c5.63276,2.41404 11.31005,4.72402 17,7c34.02381,13.60952 65.50168,17 102,17c8.34,0 16.72441,0.03445 25,-1c0.66152,-0.08269 2.3698,0.5547 2,0c-5.22614,-7.83921 -29.51335,-9.02983 -37,-11c-39.85513,-10.48819 -78.52188,-9 -118,-9" fill="none" stroke="black" stroke-linecap="round" stroke-width="5"/>
</svg>
