<?xml version="1.0" ?>
<svg baseProfile="full" height="300" version="1.1" viewBox="[0, 0, 300, 300]" width="300" xmlns="http://www.w3.org/2000/svg" xmlns:ev="http://www.w3.org/2001/xml-events" xmlns:xlink="http://www.w3.org/1999/xlink">
	<defs/>
	<path d="M57,41c25.47671,0 50.85523,6.90144 77,5c39.19755,-2.85073 77.90052,-18 117,-18" fill="none" stroke="black" stroke-linecap="round" stroke-width="5"/>
	<path d="M53,41c0,24.14403 -2.19281,52.85555 -9,76c-9.1096,30.97264 -31.31171,63.06487 -20,97c4.6852,14.05559 16.57142,25.37142 24,38c5.76895,9.80721 6.66599,22.66599 15,31c6.56075,6.56075 8.73065,-31.49847 9,-35c1.06347,-13.82505 3,-28.18888 3,-42c0,-5.31465 -0.96621,-9.83103 -2,-15c-0.09919,-0.49596 -1.46659,-2.72005 -1,-3c6.69313,-4.01588 18.0476,-7.84127 25,-9c7.10894,-1.18482 12.73806,2.69478 18,7c2.0662,1.69052 13.82163,8.64327 15,11c7.55324,15.10648 -5.8175,51.54751 0,69c1.59198,4.77593 13,11.14912 13,13" fill="none" stroke="black" stroke-linecap="round" stroke-width="5"/>
	<path d="M220,40c-11.69723,46.78892 -37.09875,96.88893 -18,146c1.91065,4.9131 22.07313,43 31,43c2.98142,0 3.05719,-5.17157 4,-8c2.23555,-6.70666 11.9241,-67.69197 23,-64c8.14584,2.71528 21.48948,8.80879 25,17c0.78248,1.82579 -1.8593,6.68343 -2,7c-8.02291,18.05155 -11.37024,32.44636 -10,53c2.22498,33.37468 39.50295,36.05392 18,48" fill="none" stroke="black" stroke-linecap="round" stroke-width="5"/>
	<path d="M23,180c15.63361,15.63361 57.84413,15 79,15c17.98225,0 36.10776,-0.11661 54,-2c9.70457,-1.02153 19.27056,-3.25158 29,-4c4.11148,-0.31627 11.48972,2.75514 15,1c3.48967,-1.74483 -3.64677,-7.11446 -4,-11c-0.78141,-8.59556 1.20362,-12.99095 -2,-21c-2.68331,-6.70827 14.04381,-18.97809 2,-25c-18.82378,-9.41189 -102.93279,-24.16563 -121,-23c-12.69532,0.81905 -24.91327,7.97832 -37,11c-5.62609,1.40652 -13.38194,-2.61806 -18,2" fill="none" stroke="black" stroke-linecap="round" stroke-width="5"/>
	<path d="M138,167c-26.0109,-8.6703 -62.2211,-3.10498 -89,-6c-11.71684,-1.26669 -23.32435,-3.39746 -35,-5c-5.70078,-0.78246 -22.68731,-3.87497 -17,-3c47.16701,7.25646 89.76149,13.78503 138,19c23.38912,2.52855 46.60386,6.53725 70,9c14.61994,1.53894 29.34097,1.89366 44,3c3.0099,0.22716 11.80257,2.12103 9,1c-50.68499,-20.274 -180.43764,40.68707 -203,-27c-3.33023,-9.9907 60.75494,-10.51225 71,-10c4.44167,0.22208 17.27611,4.22175 13,3c-22.54513,-6.44147 -44.64206,-15.50758 -66,-25c-6,-2.66667 -11.99013,-5.35566 -18,-8c-2.45984,-1.08233 -9.52562,-4.91841 -7,-4c35.7806,13.01113 71.17882,29.59833 106,45c6.409,2.83475 12.63708,6.06327 19,9c2.30494,1.06382 7.80277,0.59168 7,3c-0.84327,2.52982 -5.33333,0 -8,0c-22.97026,0 -37.46708,2.5479 -58,-10c-1.89681,-1.15916 -12.32275,-6.35449 -10,-11c5.48466,-10.96931 27.21715,-8.51664 36,-8c7.4407,0.43769 14.83322,1.95235 22,4c0.32051,0.09157 1.33333,0 1,0c-18.23598,0 -36.6144,-2.78432 -54,-8c-4.34262,-1.30278 -8.67256,-2.64767 -13,-4c-1.00611,-0.31441 -3.94281,-0.5286 -3,-1c4.58613,-2.29307 33.25785,-0.7732 37,-1c5.98901,-0.36297 12,0 18,0" fill="none" stroke="black" stroke-linecap="round" stroke-width="5"/>
	<path d="M145,272c0,-14.8358 12.78686,-30.44582 18,-44c6.63014,-17.23835 9,-40.55314 9,-59" fill="none" stroke="black" stroke-linecap="round" stroke-width="5"/>
	<path d="M288,279c-10.37477,0 -75.07585,-27.53097 -77,-41c-1.86362,-13.04532 12,-19.24022 12,-31" fill="none" stroke="black" stroke-linecap="round" stroke-width="5"/>
	<path d="M55,53c0,8.00116 -11.33775,28.99337 -6,37c7.19218,10.78827 33.60029,4.08458 43,3c19.48328,-2.24807 99.05776,30.76895 107,-1c1.51393,-6.05573 -0.68978,-9.91751 -3,-15c-8.51536,-18.73379 -9.80569,-17.21834 -36,-16c-21.52187,1.00102 -90.09959,11.90041 -109,-7" fill="none" stroke="black" stroke-linecap="round" stroke-width="5"/>
	<path d="M83,74c21.84252,0 45.53724,6.32067 67,10c6.64433,1.13903 13.25875,3 20,3c0.33333,0 1.29814,0.14907 1,0c-25.25006,-12.62503 -52.35811,-12 -81,-12c-14.84973,0 -31.10532,-0.39638 -46,1c-4.03747,0.37851 -15.62706,0.18647 -12,2c31.42877,15.71439 64.60239,8 99,8c10.88453,0 19.80602,-0.53066 30,4c1.32484,0.58882 21,5.20992 21,3c0,-2.01807 -25.83176,-11.23474 -28,-12c-28.65592,-10.11385 -58.55175,-16 -89,-16" fill="none" stroke="black" stroke-linecap="round" stroke-width="5"/>
</svg>
