<?xml version="1.0" ?>
<svg baseProfile="full" height="300" version="1.1" viewBox="[0, 0, 300, 300]" width="300" xmlns="http://www.w3.org/2000/svg" xmlns:ev="http://www.w3.org/2001/xml-events" xmlns:xlink="http://www.w3.org/1999/xlink">
	<defs/>
	<path d="M68,299c0,-41.26056 11.60548,-81.51945 6,-123c-9.16208,-67.7994 -33.55476,-98.10953 -63,-157" fill="none" stroke="black" stroke-linecap="round" stroke-width="5"/>
	<path d="M187,297c2.84747,-18.50857 8.46664,-36.12298 14,-54c5.33983,-17.25176 11.52861,-36.39949 18,-53c5.70074,-14.62363 45.4518,-132.58072 59,-138c4.60426,-1.84171 12.90126,0 18,0" fill="none" stroke="black" stroke-linecap="round" stroke-width="5"/>
	<path d="M11,16c55.02083,0 109.68413,-15.88081 165,-11c22.52666,1.98765 44.5409,11.35775 67,14c8.21379,0.96633 16.79401,-1.02575 25,0c9.034,1.12925 10.91617,17.44313 13,23c1.3048,3.47946 4.13376,9.64076 6,13c0.8094,1.45693 4.17851,2.82149 3,4c-3.02989,3.02989 -7.83868,-4 -10,-4" fill="none" stroke="black" stroke-linecap="round" stroke-width="5"/>
	<path d="M82,145c34.22322,-13.68929 78.44486,-16.26052 115,-15c10.10083,0.3483 55.99607,13.99607 54,12" fill="none" stroke="black" stroke-linecap="round" stroke-width="5"/>
	<path d="M98,140c-5.88087,-5.88087 -26.77516,-1.11242 -33,2" fill="none" stroke="black" stroke-linecap="round" stroke-width="5"/>
	<path d="M255,69c-18.29214,-7.31685 -34.14603,-12.72168 -54,-15c-15.7967,-1.81274 -110.45628,-1.54372 -120,8c-11.16272,11.16272 47.28884,80.03898 76,90c3.56738,1.23766 25.29869,8.72082 29,-3c3.4088,-10.79453 -48.17668,-88.41182 -54,-90c-7.59352,-2.07096 -48.57832,4.74976 -37,19c33.22215,40.8888 114.00937,3.59625 148,-10c15.9409,-6.37636 42.87001,-17.6146 37,-28c-27.46284,-48.58811 -141.84335,-23.39069 -177,-18c-22.75101,3.48849 -45.41234,7.57561 -68,12c-10.07712,1.97387 -22.73899,-0.26101 -30,7c-2.87711,2.87711 6.31288,5.27934 10,7c11.50214,5.36767 22.91739,11.11134 35,15c53.32349,17.16158 108.49685,26.40476 164,15c7.78852,-1.60038 22.5144,-5.45679 20,-13c-7.55304,-22.65913 -105.82934,-55.23892 -116,-41c-5.58849,7.82389 9.11359,17.29017 16,24c21.75316,21.19538 52.16422,35.90609 82,41c6.77495,1.1567 26.57951,1.74919 26,-11c-2.2355,-49.18104 -87.52471,-61.25925 -121,-43c-3.46188,1.8883 4.88877,12.36354 13,19c16.76336,13.71547 40.48146,20.43915 62,20c7.59959,-0.15509 22,1.60117 22,-6c0,-14.05962 -58.90651,-33.6542 -69,-35c-6.9386,-0.92515 -14.0027,-0.19437 -21,0c-5.34168,0.14838 -19.20624,-3.27499 -16,1c19.81611,26.42148 59.90809,47.57581 93,46c11.07815,-0.52753 49.79659,-9.71195 44,-30c-7.22855,-25.29992 -149.01216,-32.48604 -99,8c8.63248,6.9882 16.54573,12.51524 27,16" fill="none" stroke="black" stroke-linecap="round" stroke-width="5"/>
	<path d="M67,159c0,49.11738 -58.55206,183 -118,183" fill="none" stroke="black" stroke-linecap="round" stroke-width="5"/>
	<path d="M228,160c9.55549,66.88841 5.82764,78.45819 53,129c10.69119,11.45484 23.81918,18.9225 38,25c2.8265,1.21136 21.42463,6.42463 20,5" fill="none" stroke="black" stroke-linecap="round" stroke-width="5"/>
	<path d="M55,195c13.36864,13.36864 37.54136,11 55,11" fill="none" stroke="black" stroke-linecap="round" stroke-width="5"/>
	<path d="M231,223c-10.10138,0 -24.45869,0.6942 -33,-5" fill="none" stroke="black" stroke-linecap="round" stroke-width="5"/>
	<path d="M99,197c0,12.99335 62.51094,17.41484 77,15c7.7092,-1.28487 17.19086,-1 25,-1c0.33333,0 1.30949,0.1238 1,0c-1.9574,-0.78296 -4,-1.33333 -6,-2" fill="none" stroke="black" stroke-linecap="round" stroke-width="5"/>
	<path d="M120,175c7.33333,-1.66667 14.69616,-3.20849 22,-5c17.74657,-4.35293 35.27295,-9.56824 53,-14c3.29785,-0.82446 10,1.39935 10,-2c0,-3.39935 -6.60221,-1.89704 -10,-2c-0.09544,-0.00289 -44.26036,1.91595 -45,2c-15.42551,1.7529 -18.68133,3.53627 -31,6c-0.32686,0.06537 -1.2357,-0.2357 -1,0c10.06422,10.06422 38.98313,10.43258 51,12c9.02181,1.17676 18.11843,2.02632 27,4c0.3254,0.07231 1.3248,0.07495 1,0c-25.31507,-5.84194 -52.21474,-5.94073 -78,-9c-8.00611,-0.94988 -16.08464,-1.46799 -24,-3c-2.49234,-0.48239 -4.62304,-2.10864 -7,-3c-1.3958,-0.52342 -4.66667,-3.33333 -4,-2c6.8387,13.6774 60.29284,19.48117 77,21c2.09953,0.19087 5.05719,-0.11438 6,-2c9.84134,-19.68267 -44.77806,-18 -52,-18c-4.01386,0 -15.1343,-1.50744 -12,1c19.70194,15.76155 60.80787,31.39738 86,23c1.34164,-0.44721 -1.77843,-2.28742 -3,-3c-7.28402,-4.24901 -15.63932,-6.89991 -24,-8c-14.2722,-1.87792 -28.66763,-2.65634 -43,-4c-3.99634,-0.37466 -8.01713,-0.50214 -12,-1c-1.78119,-0.22265 -6.68076,-2.63029 -5,-2c19.20491,7.20184 116.07388,49.88919 132,26c7.43458,-11.15187 -17.72131,-25.10214 -24,-28c-27.57675,-12.72773 -51.57589,-20.37605 -80,-7c-7.91766,3.72596 -15.7087,9.23623 -24,12c-4.60435,1.53478 -18.7085,-2.82288 -14,-4c20.34129,-5.08532 45.08275,-9.40371 65,-14c12.29519,-2.83735 24.59542,-5.68728 37,-8c6.95129,-1.296 28.07107,-3 21,-3" fill="none" stroke="black" stroke-linecap="round" stroke-width="5"/>
	<path d="M154,183c0,3.77124 -4.74944,6.08791 -8,8c-27.36737,16.09845 -72.44524,-8 -36,-8" fill="none" stroke="black" stroke-linecap="round" stroke-width="5"/>
	<path d="M81,228c9.17385,-9.17385 30.91075,0.34769 42,1c28.2916,1.66421 57.60934,2 86,2" fill="none" stroke="black" stroke-linecap="round" stroke-width="5"/>
	<path d="M94,225c-6.47124,-6.47124 -26.09822,-1 -35,-1" fill="none" stroke="black" stroke-linecap="round" stroke-width="5"/>
</svg>
