<?xml version="1.0" ?>
<svg baseProfile="full" height="300" version="1.1" viewBox="[0, 0, 300, 300]" width="300" xmlns="http://www.w3.org/2000/svg" xmlns:ev="http://www.w3.org/2001/xml-events" xmlns:xlink="http://www.w3.org/1999/xlink">
	<defs/>
	<path d="M56,291c0,-23.62633 5.43427,-46.51411 7,-70c0.88756,-13.31337 -3.90741,-23.44444 -6,-36c-10.67049,-64.02292 30.74105,-130.03725 81,-165c9.75054,-6.78298 48.7327,-37.56682 63,-34c52.87688,13.21922 4.57919,99.11992 10,133c5.81363,36.33521 28.32421,51.97262 37,78c7.40042,22.20126 6.7944,45.56081 10,68c1.1465,8.02552 8,18.50368 8,26" fill="none" stroke="black" stroke-linecap="round" stroke-width="5"/>
	<path d="M76,84c27.55559,9.1852 60.4534,0.96096 89,3c6.86563,0.4904 43.45085,8 39,8" fill="none" stroke="black" stroke-linecap="round" stroke-width="5"/>
	<path d="M208,32c-8.94427,1.49071 -17.37636,5.19732 -26,8c-9.32358,3.03016 -18.69946,5.89982 -28,9c-0.31623,0.10541 -1.30638,0.13131 -1,0c11.78674,-5.05146 22.53023,-12.26512 34,-18c5.09466,-2.54733 10.6913,-3.93551 16,-6c0.69468,-0.27015 2.63206,-1.39504 2,-1c-24.27021,15.16888 -47.92395,27.9649 -74,40c-9.61847,4.43929 -19.16418,9.06567 -29,13c-3.9148,1.56592 -16,5.33333 -12,4c20.91386,-6.97129 74.25836,-38 91,-38c6.36832,0 -9.40391,8.74418 -13,14c-1.08512,1.58594 -1.84068,9.54576 0,12c1.20617,1.60823 49.56316,-4.15526 39,-20c-1.9829,-2.97434 -1.91551,1.24705 -3,4c-7.22989,18.35281 -12.07135,27.92822 -16,46c-0.35405,1.62863 -1.66667,5 0,5c1.69967,0 0.49039,-3.37852 1,-5c10.03252,-31.92164 23.94381,-62.38196 27,-96" fill="none" stroke="black" stroke-linecap="round" stroke-width="5"/>
	<path d="M180,35c-4.62469,4.62469 -10.00856,7.84047 -15,12c-0.0966,0.0805 -4,4.65444 -4,4c0,-10.01435 43.64645,-47.7109 45,-49c4.61155,-4.39195 9.49691,-8.49691 14,-13c0.52705,-0.52705 1.58203,-2.46562 1,-2c-27.45546,21.96437 -49.81575,47.98243 -81,66c-5.30625,3.06583 -11.34315,4.64298 -17,7c-2.34331,0.97638 -7,5.53859 -7,3c0,-7.35625 23.21277,-22.40957 24,-23c3.62706,-2.72029 7.40638,-5.23568 11,-8c0.95262,-0.73278 3.98815,-2.68411 3,-2c-11.63078,8.05208 -23.68315,15.51236 -35,24c-2.66667,2 -10.98142,7.49071 -8,6c2.93636,-1.46818 6.03458,-2.59143 9,-4c16.60655,-7.88811 33.35061,-15.85226 51,-21c5.52991,-1.61289 7.43593,-0.97437 0,2" fill="none" stroke="black" stroke-linecap="round" stroke-width="5"/>
	<path d="M43,171c35.07632,0 69.79141,-6.80557 105,-5c12.28867,0.63019 27.49979,5.78574 40,4c13.2465,-1.89236 27.62068,-5.93678 40,-8c1.35567,-0.22594 3.38536,-2.22927 4,-1c1.22128,2.44256 0,8.18976 0,11c0,18.83281 -2.03402,15.67878 -24,13c-18.38435,-2.24199 -28.35271,-4.22303 -47,-5c-8.38643,-0.34943 -32.25444,-0.18128 -42,1c-12.7211,1.54195 -44.09203,15.90797 -57,3c-1.7347,-1.7347 -2.5985,-6.5985 -5,-9" fill="none" stroke="black" stroke-linecap="round" stroke-width="5"/>
	<path d="M72,174c6.19201,0 12.21048,5.60062 19,6c25.56525,1.50384 52.37997,-9.18304 77,-14c15.49518,-3.03167 23.69047,-4.20503 38,-5c5.59527,-0.31085 8.01388,1.1302 13,3c1.68076,0.63029 6.75521,1.62388 5,2c-28.83139,6.17815 -56.31385,7.08608 -86,6c-12.36553,-0.4524 -24.67039,-1.95512 -37,-3c-7.33727,-0.6218 -14.66857,-1.31268 -22,-2c-3.33533,-0.31269 -6.65991,-0.74307 -10,-1c-0.99705,-0.0767 -4,0 -3,0c32.74941,0 61.9196,-3.46977 95,4c10.16312,2.2949 20.58814,4.38562 31,4c6.03279,-0.22344 24.03692,-2 18,-2" fill="none" stroke="black" stroke-linecap="round" stroke-width="5"/>
	<path d="M58,194c-18.35178,25.6925 -27.46604,57.07338 -49,81c-3.53636,3.92929 -21,17.99193 -21,24" fill="none" stroke="black" stroke-linecap="round" stroke-width="5"/>
	<path d="M247,186c0,0.75727 38.57409,81.43289 42,87c4.31272,7.00817 26,22.42185 26,29" fill="none" stroke="black" stroke-linecap="round" stroke-width="5"/>
	<path d="M38,223c9.61278,0 19.29864,1 29,1" fill="none" stroke="black" stroke-linecap="round" stroke-width="5"/>
	<path d="M245,227c6.55891,0 11.02349,-1.01174 17,-4" fill="none" stroke="black" stroke-linecap="round" stroke-width="5"/>
	<path d="M123,169c21.71014,0 42.39052,1.83905 64,4c1.69124,0.16912 3.31072,0.8123 5,1c6.20498,0.68944 12.86927,1 19,1c1.02037,0 10.07675,2.92325 9,4c-5.02405,5.02405 -89.87922,1.62592 -110,6c-8.44498,1.83587 -59,15 -59,15c0,0 3.11111,0 4,0" fill="none" stroke="black" stroke-linecap="round" stroke-width="5"/>
	<path d="M64,219c6.73246,1.34649 61.81445,-2.18555 65,1c2.86744,2.86744 -8.37294,-0.18647 -12,-2" fill="none" stroke="black" stroke-linecap="round" stroke-width="5"/>
</svg>
