<?xml version="1.0" ?>
<svg baseProfile="full" height="300" version="1.1" viewBox="[0, 0, 300, 300]" width="300" xmlns="http://www.w3.org/2000/svg" xmlns:ev="http://www.w3.org/2001/xml-events" xmlns:xlink="http://www.w3.org/1999/xlink">
	<defs/>
	<path d="M85,29c24.2569,0 47.08369,-1.29377 71,5c16.25151,4.27671 31.20115,11.13346 48,13c14.88276,1.65364 35.36515,-4.81743 49,2" fill="none" stroke="black" stroke-linecap="round" stroke-width="5"/>
	<path d="M82,31c0,40.51071 -26.12512,77.62559 -34,117c-4.59831,22.99153 -1,46.83947 -1,70c0,20.06465 5.38496,33.6947 8,52c0.19437,1.36056 -0.37437,4 1,4c0.26402,0 8.31494,-26.43104 9,-29c3.40646,-12.77421 10.86798,-24.47191 14,-37c0.94979,-3.79917 -2.18723,-20.60426 2,-22c7.80994,-2.60331 16.46998,4.92428 24,6c3.81434,0.54491 17.20761,2.20761 20,5c0.94281,0.94281 0.14724,2.67482 0,4c-3.2817,29.5353 -3.24344,58.13846 -5,88c-0.39015,6.63248 -2.78767,11.93835 -4,18c-0.49786,2.48929 -1.86471,4.72942 -3,7c-0.76012,1.52023 -2.11924,6.27913 -1,5c9.70898,-11.09598 27.459,-24.75402 30,-40c2.38513,-14.3108 -20.78995,-56.60503 -2,-66" fill="none" stroke="black" stroke-linecap="round" stroke-width="5"/>
	<path d="M254,40c-1.26909,2.53818 -1.44428,10 -5,10" fill="none" stroke="black" stroke-linecap="round" stroke-width="5"/>
	<path d="M248,50c31.17428,-10.39143 19.49647,26.01413 15,44c-13.34617,53.38468 -32.38181,98.76363 -57,148c-4.92164,9.84328 -6.31517,22.63034 -11,32c-0.65118,1.30235 4.16576,4.83424 4,5c-0.4714,0.4714 -1.40372,0.29814 -2,0c-18.75292,-9.37646 7.53354,-39.9393 25,-32c43.7487,19.88577 2.06472,44.03236 22,54c1.90829,0.95415 3.86451,3.84733 6,1c14.42844,-19.23792 22.87008,-50.52557 26,-74c0.90654,-6.79905 -2.57471,-44 4,-44" fill="none" stroke="black" stroke-linecap="round" stroke-width="5"/>
	<path d="M41,176c0,6.33302 23.39664,16.30403 28,18c37.70995,13.89314 70.4047,-9.37076 108,-4c7.65998,1.09428 15.62216,8.15554 23,10c4.79938,1.19985 40.37289,11.1243 28,7" fill="none" stroke="black" stroke-linecap="round" stroke-width="5"/>
	<path d="M46,177c3.06226,-12.24906 6.29652,-42.29652 16,-52c2.59595,-2.59595 25.20667,9.73556 29,11c27.54528,9.18176 56.93505,15.58052 85,24c14.14127,4.24238 43.89977,3.35004 58,1c1.77063,-0.29511 4.19723,-3.60555 5,-2c2.96595,5.9319 -14,18.17217 -14,25" fill="none" stroke="black" stroke-linecap="round" stroke-width="5"/>
	<path d="M207,185c-45.28558,-15.09519 -46.0283,-42.35849 -103,-32c-7.06571,1.28467 -12.05643,2 -19,2c-2.68742,0 -8,-3.68742 -8,-1c0,4.34613 7.27322,4.76393 11,7c25.582,15.3492 58.88785,5.44392 86,19c2.82843,1.41421 9,-0.16228 9,3c0,3.4801 -6.7876,-1.6615 -10,-3c-8.08875,-3.37031 -16.30776,0.30384 -25,-1c-12.33713,-1.85057 -22.37831,-8.1261 -34,-12c-7.31877,-2.43959 -17.93768,-6 -26,-6c-0.33333,0 -1.32159,-0.08771 -1,0c19.92778,5.43485 39.94207,8.44138 60,13c7.61581,1.73086 16.56561,4 24,4c0.33333,0 1.3288,0.0548 1,0c-25.42096,-4.23683 -48.77768,-11.22222 -75,-13c-9.31789,-0.63172 -18.66302,-0.79251 -28,-1c-5.66527,-0.12589 -11.33333,0 -17,0c-1.33333,0 -4.94281,-0.94281 -4,0c12.15156,12.15156 75.71518,25 95,25c8.46376,0 16.12016,-1.03071 24,2c4.73877,1.8226 15.2314,10.92559 14,6c-0.53784,-2.15136 -3.38659,-7.77318 -5,-11" fill="none" stroke="black" stroke-linecap="round" stroke-width="5"/>
	<path d="M98,42c0,11.69147 -1.15072,25.70336 -4,39c-0.08943,0.41736 -0.54629,5.22686 1,6c30.09299,15.0465 69.51617,19.25485 102,29c3.33333,1 6.63448,2.11434 10,3c16.77997,4.41578 34.67362,6.33532 51,11c0.86403,0.24687 5.37778,3.48889 6,1c3.38025,-13.52101 -3.09236,-26.2064 -6,-39c-2.58333,-11.36666 -1.80609,-27.61218 -7,-38c-0.21082,-0.42164 -0.5286,-1 -1,-1c-18.15561,0 -37.36147,16.15605 -60,14c-17.07799,-1.62648 -36.11516,-16.19221 -52,-23c-14.99798,-6.42771 -27.52796,2.93257 -42,5c-1.0435,0.14907 -3,0.05409 -3,-1" fill="none" stroke="black" stroke-linecap="round" stroke-width="5"/>
	<path d="M151,82c12.62717,0 30.99108,9.90179 44,12c0.73775,0.11899 29.33572,2.77917 28,2c-20.12564,-11.73996 -48.81522,-13.93279 -71,-18c-8.30098,-1.52185 -16.72456,-2.34491 -25,-4c-5.07424,-1.01485 -10.00761,-2.63844 -15,-4c-2.44914,-0.66795 -9.27058,-4.13529 -7,-3c17.63806,8.81903 34.42987,20.0362 53,27c16.13826,6.05185 19.75377,6.27399 35,7c3.32956,0.15855 12.35702,2.35702 10,0c-8.47499,-8.47499 -19.47454,-13.85591 -29,-21c-2.08273,-1.56205 -3.94499,-3.40166 -6,-5c-0.94868,-0.73786 -4.20185,-2 -3,-2c20.76096,0 44.23162,4.67412 64,11c7.84105,2.50914 15.38738,5.86539 23,9c3.72431,1.53354 7.29798,3.41342 11,5c0.96886,0.41523 3.94281,1.4714 3,1c-17.2733,-8.63665 -76.81742,-47.12172 -95,-35c-10.6724,7.11494 22.57801,12.06673 26,13c3.05085,0.83205 5.89913,2.37983 9,3c1.96116,0.39223 7.71499,1.02899 6,0c-21.79922,-13.07953 -57.16935,-13 -82,-13" fill="none" stroke="black" stroke-linecap="round" stroke-width="5"/>
</svg>
