<?xml version="1.0" ?>
<svg baseProfile="full" height="300" version="1.1" viewBox="[0, 0, 300, 300]" width="300" xmlns="http://www.w3.org/2000/svg" xmlns:ev="http://www.w3.org/2001/xml-events" xmlns:xlink="http://www.w3.org/1999/xlink">
	<defs/>
	<path d="M38,47c29.60135,-22.20101 135.14156,-18.41299 173,-10c19.63452,4.36323 36.67735,18.13547 56,22c0.80344,0.16069 7,3 7,3c0,0 -2.9268,0.14144 -4,1c-7.83236,6.26589 -18.41422,17.48267 -30,15c-44.93004,-9.62787 -95.81338,-20.89713 -142,-11c-14.25792,3.05527 -24.99529,3.93365 -39,3c-8.83882,-0.58925 -16.11246,0.94377 -24,-3c-0.29814,-0.14907 -1.33333,0 -1,0c2.16288,0 14.81602,-2.44807 16,-6c1.65091,-4.95272 -9.66351,-7.68246 -8,-16c1.53415,-7.67076 14.33379,-12.22252 20,-16" fill="none" stroke="black" stroke-linecap="round" stroke-width="5"/>
	<path d="M78,51c28.97582,0 55.48185,7.92598 84,12c11.9525,1.7075 24.02757,2.43838 36,4c3.75135,0.48931 5.78602,0.71441 9,2c1.11589,0.44636 4.12533,2.422 3,2c-40.62862,-15.23573 -80.57021,-19.62488 -124,-13c-8.79273,1.34126 -17.41363,3.67936 -26,6c-4.37679,1.18292 -17.16724,2.21404 -13,4c26.04391,11.16168 95.77849,-18.23066 122,-26c22.32206,-6.61394 26.69736,-8.72369 46,2c5.21477,2.8971 10.7264,5.3632 16,8c1.49071,0.74536 5.6169,2.59577 4,3c-17.4757,4.36892 -58.1091,-19.64886 -78,-24c-35.03041,-7.6629 -63.38762,1.39646 -97,11" fill="none" stroke="black" stroke-linecap="round" stroke-width="5"/>
	<path d="M74,69c-7.31351,29.25404 -8.05283,59.31696 -13,89c-3.99571,23.97424 -8.4806,51.44181 -16,74c-4.2438,12.7314 -0.34908,28.74539 -3,42c-0.98475,4.92373 -6,11.32716 -6,16" fill="none" stroke="black" stroke-linecap="round" stroke-width="5"/>
	<path d="M223,74c0,10.04097 -3.5569,20.8086 -4,31c-1.29034,29.67775 2.56137,59.33405 1,89c-1.23478,23.46089 -11.29585,47.26327 -16,70c-4.43709,21.44595 -1,44.22378 -1,66" fill="none" stroke="black" stroke-linecap="round" stroke-width="5"/>
	<path d="M223,173c-12.01243,-24.02486 -106.27879,-29.16519 -129,-28c-4.09444,0.20997 -29.7725,3.19577 -35,4c-4.65923,0.7168 -9.28595,2 -14,2c-1.33333,0 -4.94281,-0.94281 -4,0c36.75409,36.75409 94.55128,20.75366 140,24c14.39784,1.02842 28.27696,5.63589 43,4c2.09529,-0.23281 6,0.10819 6,-2c0,-6.07593 -29.72886,-14 -34,-14" fill="none" stroke="black" stroke-linecap="round" stroke-width="5"/>
	<path d="M190,170c-26.27844,0 -47.1244,-6.63608 -77,-4c-9.44645,0.83351 -20.37885,1.96211 -30,1c-3.32311,-0.33231 -6.84521,-1.9484 -10,-3c-1,-0.33333 -3.74536,-0.25464 -3,-1c2.32774,-2.32774 13.46547,1.74411 17,1c13.09385,-2.7566 27.96953,-13.50762 42,-10c6.30225,1.57556 18.26476,8.37135 24,11c8.96883,4.11071 17.4261,7.08522 27,9c1.17283,0.23457 14.87884,0.1273 13,-1c-22.40054,-13.44032 -56.65954,-17.59296 -82,-22c-10.43823,-1.81534 -21.45047,-1 -32,-1c-4.30208,0 -6.25142,-0.75047 -10,-2c-1.61245,-0.53748 -6.69967,-1 -5,-1c7.14231,0 20.13135,5.36106 27,6c25.45392,2.36781 51.94824,-0.57882 77,3c12.71931,1.81704 26.92415,-2.01896 39,1c2.4628,0.6157 8.40816,0.88776 7,3c-2.74282,4.11423 -15.76651,5 -21,5" fill="none" stroke="black" stroke-linecap="round" stroke-width="5"/>
	<path d="M54,193c10.38031,4.15212 21.89072,6 33,6" fill="none" stroke="black" stroke-linecap="round" stroke-width="5"/>
	<path d="M215,205c-14.50455,0 -27.10027,-13 -39,-13" fill="none" stroke="black" stroke-linecap="round" stroke-width="5"/>
	<path d="M178,192c0,24.70579 -14.23501,49.17504 -19,73c-3.76321,18.81606 6.87002,45.12998 -8,60c-0.33333,0.33333 -0.66667,0.66667 -1,1" fill="none" stroke="black" stroke-linecap="round" stroke-width="5"/>
	<path d="M84,196c0,21.95278 6.95983,36.79913 11,57c3.19462,15.97312 1,33.67928 1,50c0,13.8511 -7.16282,34.69103 9,37" fill="none" stroke="black" stroke-linecap="round" stroke-width="5"/>
	<path d="M31,285c0,10.94541 -52.40984,61 -40,61" fill="none" stroke="black" stroke-linecap="round" stroke-width="5"/>
	<path d="M80,199c8.31054,-1.66211 14.82595,-6.39917 23,-9c18.14582,-5.77367 37.29712,-3.56132 56,-5c8.98726,-0.69133 15.60177,-1.60051 24,-4c3.77113,-1.07747 7.02813,-2 11,-2c0.74536,0 2.52705,-1.52705 2,-1c-24.37163,24.37163 -35.20082,-4.2825 -78,9c-8.22722,2.55328 -14.92502,4.65417 -23,6c-0.08426,0.01404 -5,1 -5,1c0,0 6.66667,-1.33333 10,-2c23.07023,-4.61405 46.46246,6.88439 70,1c8.48836,-2.12209 16.60593,-5.53116 25,-8c2.9483,-0.86715 11.91548,-1.02817 9,-2c-10.61188,-3.53729 -21.30619,2.42584 -32,1c-39.31784,-5.24238 -75.86738,-2.71087 -114,10" fill="none" stroke="black" stroke-linecap="round" stroke-width="5"/>
	<path d="M80,197c-6.12883,0 -9.55128,0.17949 -15,-2c-26.78402,-10.71361 41.59679,-17.59679 50,-26c1.58114,-1.58114 -3.9063,-2.21486 -6,-3c-6.82319,-2.5587 -13.98163,-4.0859 -21,-6c-3.31927,-0.90526 -6.56658,-3 -10,-3c-0.66667,0 -2.66667,0 -2,0c40.35038,0 80.65906,-3.32265 121,-2c15.18729,0.49794 29.84517,2.6065 30,4c1.86255,16.76292 -17,17.76586 -17,21" fill="none" stroke="black" stroke-linecap="round" stroke-width="5"/>
	<path d="M43,217c15.13602,3.0272 31.31641,4.10547 46,9c1.47784,0.49261 5,0.53026 5,2" fill="none" stroke="black" stroke-linecap="round" stroke-width="5"/>
</svg>
