<?xml version="1.0" ?>
<svg baseProfile="full" height="300" version="1.1" viewBox="[0, 0, 300, 300]" width="300" xmlns="http://www.w3.org/2000/svg" xmlns:ev="http://www.w3.org/2001/xml-events" xmlns:xlink="http://www.w3.org/1999/xlink">
	<defs/>
	<path d="M210,79c-9.41474,-9.41474 -43.12677,-18.46831 -57,-15c-3.85836,0.96459 -20,3.88131 -20,9c0,0.43096 -1,3 -1,3c0,0 -1,-5.8185 -1,-6c0,-12.004 -2.68156,-23.38547 -6,-35c-0.18315,-0.64102 -0.4714,-1.5286 0,-2c0.2357,-0.2357 0.7643,-0.2357 1,0c4.11234,4.11234 44.16291,-0.26244 53,1c1.95647,0.2795 24.24252,7.48503 25,9c1.41199,2.82399 -3,11.15477 -3,15c0,2.40569 0.95111,13 -1,13" fill="none" stroke="black" stroke-linecap="round" stroke-width="5"/>
	<path d="M189,77c0,35.66667 0,71.33333 0,107c0,11.61991 -1,11.22423 -1,1" fill="none" stroke="black" stroke-linecap="round" stroke-width="5"/>
	<path d="M160,58c0,32 0,64 0,96c0,12.66667 0,25.33333 0,38c0,4 0,8 0,12c0,1.33333 0,5.33333 0,4c0,-5.26426 2.71223,-9.42445 5,-14" fill="none" stroke="black" stroke-linecap="round" stroke-width="5"/>
	<path d="M134,60c0,28.66667 0,57.33333 0,86c0,11.18559 2,21.92199 2,33c0,1.33333 0,1.33333 0,0" fill="none" stroke="black" stroke-linecap="round" stroke-width="5"/>
	<path d="M172,66c0,25.94734 -3.8899,55.32804 1,81c2.45171,12.87148 4,22.38575 4,35c0,0.79871 0,7 0,7c0,0 0,-3.33333 0,-5" fill="none" stroke="black" stroke-linecap="round" stroke-width="5"/>
	<path d="M189,193c-21.36347,0 -58,-5.35108 -58,24c0,8.73222 1.04827,16.5724 6,24c10.15912,15.23868 53.90778,21.23056 62,1c3.10709,-7.76773 14.75743,-34.62129 2,-41c-6.66188,-3.33094 -21,5.59766 -21,-6" fill="none" stroke="black" stroke-linecap="round" stroke-width="5"/>
	<path d="M188,248c0,-1.66667 0,3.33333 0,5c0,5 0,10 0,15c0,13.17126 4,29.33685 4,40" fill="none" stroke="black" stroke-linecap="round" stroke-width="5"/>
	<path d="M160,241c0,23.66667 0,47.33333 0,71" fill="none" stroke="black" stroke-linecap="round" stroke-width="5"/>
</svg>
