<?xml version="1.0" ?>
<svg baseProfile="full" height="300" version="1.1" viewBox="[0, 0, 300, 300]" width="300" xmlns="http://www.w3.org/2000/svg" xmlns:ev="http://www.w3.org/2001/xml-events" xmlns:xlink="http://www.w3.org/1999/xlink">
	<defs/>
	<path d="M219,57c-14.05631,0 -85.52925,-0.23538 -92,3c-1.07379,0.53689 0.93767,2.87535 1,3c3.87224,7.74447 3,22.55672 3,31c0,5.28512 1.01322,32.01322 5,36c6.79828,6.79828 30.30221,-3.68106 37,-4c13.5924,-0.64726 27.38131,0 41,0c1.05719,0 3.43096,0.70711 4,-1c5.58425,-16.75275 -3,-43.59761 -3,-65" fill="none" stroke="black" stroke-linecap="round" stroke-width="5"/>
	<path d="M214,121c0,13.99698 -2.39619,30.41525 1,44c0.12833,0.51331 1,5 1,5c0,0 -1.07932,-6.01983 -5,-7c-18.1693,-4.54232 -38.68159,3 -54,3c-1.05409,0 -2.12294,-0.41529 -3,-1c-0.62017,-0.41345 -1.47295,-0.47295 -2,-1c-6.4082,-6.4082 -4.75704,-15.63557 -9,-22c-0.82511,-1.23766 -9.72152,-10 -6,-10" fill="none" stroke="black" stroke-linecap="round" stroke-width="5"/>
	<path d="M209,55c0,20.10074 4.27554,32.55108 13,50c5.09887,10.19774 18.14639,4.97529 16,20c-1.74953,12.24674 -24.10787,28.47717 -32,39c-1.36293,1.81724 -4.56858,1.43142 -6,0" fill="none" stroke="black" stroke-linecap="round" stroke-width="5"/>
	<path d="M128,60c0,37.94492 50.2027,56.7973 13,94" fill="none" stroke="black" stroke-linecap="round" stroke-width="5"/>
</svg>
