<?xml version="1.0" ?>
<svg baseProfile="full" height="300" version="1.1" viewBox="[0, 0, 300, 300]" width="300" xmlns="http://www.w3.org/2000/svg" xmlns:ev="http://www.w3.org/2001/xml-events" xmlns:xlink="http://www.w3.org/1999/xlink">
	<defs/>
	<path d="M202,87c-12.45455,0 -63.01623,6.98377 -71,-1c-4.67535,-4.67535 -6.75782,-11.69727 -11,-17c-4.79819,-5.99774 -8.6294,-17.1118 -6,-25c9.50173,-28.5052 76.03798,-7.82459 91,5c2.88392,2.47193 3.87398,7.62194 5,11c10.26194,30.78583 -24,19.95718 -24,27" fill="none" stroke="black" stroke-linecap="round" stroke-width="5"/>
	<path d="M167,48c-4.0263,0 -19.40712,12.59288 -14,18c2.91058,2.91058 20.8475,-8.8475 23,-11c0.2308,-0.2308 3.9988,-1.0012 3,-2c-1.36596,-1.36596 -17,-1.6843 -17,1" fill="none" stroke="black" stroke-linecap="round" stroke-width="5"/>
	<path d="M193,84c0,15.66667 0,31.33333 0,47" fill="none" stroke="black" stroke-linecap="round" stroke-width="5"/>
	<path d="M140,84c0,16.40767 -2.18053,41.81947 10,54" fill="none" stroke="black" stroke-linecap="round" stroke-width="5"/>
	<path d="M198,136c-8.00029,0 -13.59648,1.76608 -21,3c-2.71134,0.45189 -5.35702,1.24486 -8,2c-14.11231,4.03209 -28.52152,7.58692 -43,10c-1.81172,0.30195 -3.07528,-0.84945 -4,1c-0.14907,0.29814 -0.10541,0.68377 0,1c0.52705,1.58114 2.41886,2.47295 4,3c22.74436,7.58145 29.52238,49.70448 46,53c3.32842,0.66568 6.68729,-5.68729 8,-7c7.85365,-7.85365 20.67075,-13.03678 22,-25c1.15732,-10.41585 -11.58027,-16.58027 -18,-23" fill="none" stroke="black" stroke-linecap="round" stroke-width="5"/>
</svg>
