<?xml version="1.0" ?>
<svg baseProfile="full" height="300" version="1.1" viewBox="[0, 0, 300, 300]" width="300" xmlns="http://www.w3.org/2000/svg" xmlns:ev="http://www.w3.org/2001/xml-events" xmlns:xlink="http://www.w3.org/1999/xlink">
	<defs/>
	<path d="M91,55c0,29.19649 -1.45838,58.83242 0,88c0.0832,1.66408 0.24266,32 2,32c0.35801,0 0.95595,-3.86786 1,-4c0.53754,-1.61263 44.90824,-10.12975 51,-11c9.63459,-1.37637 23.58193,-3.13936 33,0c0.63246,0.21082 1.5286,0.4714 2,0c3.17797,-3.17797 -7.40421,-36.6589 -8,-45c-0.18219,-2.55072 0.05471,-66.94529 -4,-71c-0.52705,-0.52705 -1,1.25464 -1,2c0,9.03565 -16.41046,9.11744 -22,10c-13.64787,2.15493 -30.46794,7 -44,7c-0.61024,0 -3.61036,0.38964 -4,0c-1.90029,-1.90029 -4.31258,-4 -7,-4" fill="none" stroke="black" stroke-linecap="round" stroke-width="5"/>
	<path d="M98,164c4.15995,16.63981 1.66459,35.99378 7,52c0.2357,0.70711 1.47295,-0.47295 2,-1c7.06836,-7.06836 15.70802,-8.26486 26,-9c10.76486,-0.76892 35.78,1.83 43,-9c5.98445,-8.97667 -2,-22.74248 -2,-31" fill="none" stroke="black" stroke-linecap="round" stroke-width="5"/>
	<path d="M177,190c0,16.33333 0,32.66667 0,49" fill="none" stroke="black" stroke-linecap="round" stroke-width="5"/>
	<path d="M103,209c0,17 0,34 0,51c0,4.33333 0,8.66667 0,13c0,1.66667 0,6.66667 0,5c0,-1.33333 0,-2.66667 0,-4" fill="none" stroke="black" stroke-linecap="round" stroke-width="5"/>
	<path d="M95,193c0,16.33333 0,32.66667 0,49" fill="none" stroke="black" stroke-linecap="round" stroke-width="5"/>
</svg>
