<?xml version="1.0" ?>
<svg baseProfile="full" height="300" version="1.1" viewBox="[0, 0, 300, 300]" width="300" xmlns="http://www.w3.org/2000/svg" xmlns:ev="http://www.w3.org/2001/xml-events" xmlns:xlink="http://www.w3.org/1999/xlink">
	<defs/>
	<path d="M200,35c-28.06962,0 -56.46088,2 -84,2c-1.71395,0 -7.88364,-1.23273 -9,1c-0.54523,1.09045 0.53536,1.30305 1,2c6.45269,9.67903 8.48071,20.66319 11,32c1.22564,5.51538 2.09588,24.09588 6,28c1.33159,1.33159 7.9658,-0.85226 9,-1c20.917,-2.98814 42.8888,-1 64,-1c3,0 9,0 9,0c0,0 -3.92493,-3.86862 -4,-4c-6.70793,-11.73889 -5.69116,-26.30136 -8,-39c-1.09258,-6.00916 -0.12586,-12.37758 -2,-18c-0.12017,-0.3605 0,-4.75407 0,-2" fill="none" stroke="black" stroke-linecap="round" stroke-width="5"/>
	<path d="M205,135c-1.54528,0 -63.57071,3.57071 -64,4c-1.37437,1.37437 2.13077,3.26155 3,5c3.97352,7.94704 5.8549,18.41959 8,27c1.44194,5.76777 2.89274,18.89274 7,23c1.00601,1.00601 18.34107,-4.32093 24,-5c7.81777,-0.93813 28.48969,0.51031 35,-6c3.07368,-3.07368 -16,-34.4509 -16,-46" fill="none" stroke="black" stroke-linecap="round" stroke-width="5"/>
	<path d="M221,183c0,13.32473 1.88098,15.9762 -13,13c-4.14406,-0.82881 -12.5354,-2.40155 -16,-5c-6.11458,-4.58594 0,-31.04738 0,-23" fill="none" stroke="black" stroke-linecap="round" stroke-width="5"/>
	<path d="M170,184c0,0.64254 1.22011,8.77989 0,10c-1.37719,1.37719 -10.86308,0.28769 -13,1c-12.28932,4.09644 -14.32427,2.08154 -16,-13c-0.17451,-1.57056 -1.01652,-10 1,-10" fill="none" stroke="black" stroke-linecap="round" stroke-width="5"/>
</svg>
