<?xml version="1.0" ?>
<svg baseProfile="full" height="300" version="1.1" viewBox="[0, 0, 300, 300]" width="300" xmlns="http://www.w3.org/2000/svg" xmlns:ev="http://www.w3.org/2001/xml-events" xmlns:xlink="http://www.w3.org/1999/xlink">
	<defs/>
	<path d="M214,60c-16.5624,0 -30.0807,-16.47982 -56,-10c-9.00286,2.25071 -14.10598,5.21196 -18,13c-0.41857,0.83714 -1.79208,7.41585 -4,3c-1.62946,-3.25891 0,-12.39967 0,-16c0,-25.90106 19.24908,-13 39,-13c6.14805,0 23.77708,-7.22292 29,-2c1.48882,1.48882 -2,18.01449 -2,22" fill="none" stroke="black" stroke-linecap="round" stroke-width="5"/>
	<path d="M194,54c0,7.86192 0,54.12242 0,46" fill="none" stroke="black" stroke-linecap="round" stroke-width="5"/>
	<path d="M176,53c0,4.42313 0,29.2297 0,23" fill="none" stroke="black" stroke-linecap="round" stroke-width="5"/>
	<path d="M158,51c0,0.66667 0,1.33333 0,2c0,22.33333 0,44.66667 0,67c0,0.41967 0,10 0,10c0,0 1.21704,-4.0426 2,-6" fill="none" stroke="black" stroke-linecap="round" stroke-width="5"/>
	<path d="M172,72c0,2.2726 0,57.74366 0,46" fill="none" stroke="black" stroke-linecap="round" stroke-width="5"/>
	<path d="M188,96c0,3.67795 0,21.94582 0,19" fill="none" stroke="black" stroke-linecap="round" stroke-width="5"/>
	<path d="M140,59c0,17 0,34 0,51c0,3.1393 3,30.54502 3,22" fill="none" stroke="black" stroke-linecap="round" stroke-width="5"/>
	<path d="M190,160c-22.56673,0 -56.93724,-17.18828 -66,10c-2.37068,7.11204 -3.51422,16.97156 0,24c4.65972,9.31943 57.80449,23.58653 66,-1c6.09369,-18.28108 -14,-27.20059 -14,-36" fill="none" stroke="black" stroke-linecap="round" stroke-width="5"/>
	<path d="M175,204c0,15.19282 -0.48092,30.11448 2,45c0.82438,4.94629 0,27.65724 0,19" fill="none" stroke="black" stroke-linecap="round" stroke-width="5"/>
	<path d="M129,200c0,21.66667 0,43.33333 0,65" fill="none" stroke="black" stroke-linecap="round" stroke-width="5"/>
</svg>
