<?xml version="1.0" ?>
<svg baseProfile="full" height="300" version="1.1" viewBox="[0, 0, 300, 300]" width="300" xmlns="http://www.w3.org/2000/svg" xmlns:ev="http://www.w3.org/2001/xml-events" xmlns:xlink="http://www.w3.org/1999/xlink">
	<defs/>
	<path d="M204,104c-1.51316,0 -92.66407,0.16796 -93,0c-6.23726,-3.11863 0.55605,-30.33857 1,-35c0.77157,-8.10152 2,-15.8907 2,-24c0,-2 -2,-6 0,-6c2.65209,0 12.63508,7.42137 19,8c20.29529,1.84503 41.65861,2 62,2c1.22568,0 4.27043,-0.72957 5,0c0.26471,0.26471 0,2.58824 0,3c0,12.72893 0,27.74426 0,41c0,2.36036 0.54955,3 -2,3" fill="none" stroke="black" stroke-linecap="round" stroke-width="5"/>
	<path d="M197,137c-16.42162,0 -76.72655,-3.27345 -86,6c-1.81764,1.81764 5.27907,9.07752 6,11c3.29207,8.77886 5.02809,18.08428 8,27c0.66667,2 1.155,4.06857 2,6c1.49376,3.41432 3.0468,6.82606 5,10c0.74119,1.20443 2,2 3,3c0.66667,0.66667 1.19155,1.51493 2,2c6.37266,3.8236 21.63735,-0.29304 28,-1c32.548,-3.61644 20,-33.93985 20,-58" fill="none" stroke="black" stroke-linecap="round" stroke-width="5"/>
	<path d="M175,106c0,10.33333 0,20.66667 0,31" fill="none" stroke="black" stroke-linecap="round" stroke-width="5"/>
	<path d="M158,103c0,5.92365 0,59.2869 0,30" fill="none" stroke="black" stroke-linecap="round" stroke-width="5"/>
	<path d="M134,98c0,4.04561 1.21866,59.56268 5,52" fill="none" stroke="black" stroke-linecap="round" stroke-width="5"/>
	<path d="M118,92c0,5.20727 -0.87478,12.12522 3,16" fill="none" stroke="black" stroke-linecap="round" stroke-width="5"/>
	<path d="M181,192c0,14.14758 1.25783,27.89872 2,42c0.2459,4.67209 0.57642,9.34066 1,14c0.27161,2.98768 1.34164,11.68328 0,9c-1.65316,-3.30632 -0.24719,-6.24719 -3,-9" fill="none" stroke="black" stroke-linecap="round" stroke-width="5"/>
	<path d="M142,206c0,13 0,26 0,39c0,1.41126 0.671,3 -1,3" fill="none" stroke="black" stroke-linecap="round" stroke-width="5"/>
</svg>
