<?xml version="1.0" ?>
<svg baseProfile="full" height="300" version="1.1" viewBox="[0, 0, 300, 300]" width="300" xmlns="http://www.w3.org/2000/svg" xmlns:ev="http://www.w3.org/2001/xml-events" xmlns:xlink="http://www.w3.org/1999/xlink">
	<defs/>
	<path d="M45,40c0,-1.92669 35.83564,-20.43837 40,-22c41.61713,-15.60642 75.57845,-22.35129 112,8c37.0265,30.85542 41.05596,71.77615 30,116c-3.1878,12.75119 -13,28.81119 -13,42" fill="none" stroke="black" stroke-linecap="round" stroke-width="5"/>
	<path d="M66,35c-11.34785,0 -9,50.15867 -9,58c0,27.88995 2.3241,56.194 1,84c-1.53642,32.26484 -14.54511,72.90978 1,104c7.46843,14.93685 24.72784,-14.54744 26,-19c8.33158,-29.16054 -2.28654,-80.23782 36,-93c15.89432,-5.29811 18.31452,19.08877 19,28c2.07359,26.95665 -20.22104,83.48247 2,102c21.65406,18.04505 62,-53.35847 62,-65" fill="none" stroke="black" stroke-linecap="round" stroke-width="5"/>
	<path d="M218,192c13.61196,0 23.30883,-16.69117 37,-3c15.44335,15.44335 8.13396,49.69248 4,68c-3.20657,14.20053 -8.85855,27.86347 -12,42c-0.50617,2.27777 0,7 0,7c0,0 -4.4326,-22.23727 -8,-28c-10.31206,-16.65795 -26.35003,-19.35003 -39,-32" fill="none" stroke="black" stroke-linecap="round" stroke-width="5"/>
	<path d="M85,148c8.73325,0 21.73506,16.72426 28,22c16.79577,14.1438 38.07306,23.06849 54,38c10.74882,10.07702 15.20346,25.20346 25,35" fill="none" stroke="black" stroke-linecap="round" stroke-width="5"/>
	<path d="M100,163c0,-3.16228 5.92372,-2.26755 9,-3c11.36302,-2.70548 80.75629,-27.53615 86,-16c5.70486,12.5507 38,67.54566 38,75c0,9.67202 -24.3547,23.72802 -31,28c-4.4334,2.85004 -18.27046,9 -13,9" fill="none" stroke="black" stroke-linecap="round" stroke-width="5"/>
</svg>
