<?xml version="1.0" ?>
<svg baseProfile="full" height="300" version="1.1" viewBox="[0, 0, 300, 300]" width="300" xmlns="http://www.w3.org/2000/svg" xmlns:ev="http://www.w3.org/2001/xml-events" xmlns:xlink="http://www.w3.org/1999/xlink">
	<defs/>
	<path d="M66,18c7.66284,7.66284 26.16345,7.77043 36,9c37.03311,4.62914 79.6129,-0.26129 117,-4c6.99486,-0.69949 12.94646,-4 20,-4c9.16698,0 6.36592,-2.68512 0,-5c-9.74254,-3.54274 -19.76201,-4.9524 -30,-7c-7.36671,-1.47334 -14.57519,-2.51504 -22,-4c-16.03209,-3.20642 -30.72848,-2.41491 -47,-1c-21.43416,1.86384 -45.28685,11 -66,11" fill="none" stroke="black" stroke-linecap="round" stroke-width="5"/>
	<path d="M80,25c-17.48606,0 -24.62791,-3.69769 -19,16c0.94964,3.32375 1.7341,10.4894 4,12c21.30666,14.20444 106.61865,5.10626 134,3c6.54089,-0.50315 31.92149,4.07851 37,-1c7.07422,-7.07422 4,-31.24926 4,-41" fill="none" stroke="black" stroke-linecap="round" stroke-width="5"/>
	<path d="M54,71c0,27.08644 -2.72341,55.51026 -2,83c0.53593,20.36552 6,41.95387 6,62" fill="none" stroke="black" stroke-linecap="round" stroke-width="5"/>
	<path d="M112,75c0,33.53726 3,67.92397 3,101" fill="none" stroke="black" stroke-linecap="round" stroke-width="5"/>
	<path d="M185,59c0,31.03804 -5,65.90354 -5,99" fill="none" stroke="black" stroke-linecap="round" stroke-width="5"/>
	<path d="M233,54c0,33.35244 -23.60581,78.78838 -8,110" fill="none" stroke="black" stroke-linecap="round" stroke-width="5"/>
	<path d="M34,228c0,-3.59937 47.34888,-22.2462 53,-24c27.99919,-8.68941 55.92342,-14.8462 85,-19c4.07756,-0.58251 23.50222,-11.49778 27,-8c9.74648,9.74648 14.57116,25.3327 20,38c2.00643,4.68167 13,15.98068 13,21c0,2.10819 -3.93275,1.58655 -6,2c-25.69444,5.13889 -51.24556,11.20848 -77,16c-28.89208,5.37527 -58.48322,4.66294 -87,11c-0.58502,0.13 -5.00677,1.99323 -6,1c-1.32957,-1.32957 0.03661,-17.79256 0,-18c-2.57388,-14.58533 -11.64329,-25.28658 -18,-38" fill="none" stroke="black" stroke-linecap="round" stroke-width="5"/>
	<path d="M68,284c0,10.08126 1,20.66793 1,31" fill="none" stroke="black" stroke-linecap="round" stroke-width="5"/>
	<path d="M28,220c0,9.19591 -5.32149,26.67851 2,34" fill="none" stroke="black" stroke-linecap="round" stroke-width="5"/>
	<path d="M228,223c0,18.77171 -3.88626,42.34121 2,60" fill="none" stroke="black" stroke-linecap="round" stroke-width="5"/>
</svg>
