<?xml version="1.0" ?>
<svg baseProfile="full" height="300" version="1.1" viewBox="[0, 0, 300, 300]" width="300" xmlns="http://www.w3.org/2000/svg" xmlns:ev="http://www.w3.org/2001/xml-events" xmlns:xlink="http://www.w3.org/1999/xlink">
	<defs/>
	<path d="M135,159c-49.46697,-49.46697 -34.71702,32.79255 -42,51c-1.95081,4.87703 -7.98812,32.50594 -19,27c-13.87388,-6.93694 -3.00809,-69.97035 0,-81c8.84372,-32.42696 1.86129,-84.32661 24,-112c15.75154,-19.68942 83.62562,-25.29063 97,-3c15.07737,25.12895 5,54.04726 5,81c0,27.52961 2,53.74433 2,81" fill="none" stroke="black" stroke-linecap="round" stroke-width="5"/>
	<path d="M128,154c-5.93263,11.86526 -5.53803,25.30611 -9,38c-4.00678,14.69154 -5.75025,35.62439 0,50c1.10717,2.76794 4.81235,6.1251 8,4c4.86856,-3.24571 10.62316,-8.45404 13,-14c5.36084,-12.50863 10.31221,-27.49769 12,-41c0.60695,-4.85557 -2.39243,-22.60757 1,-26c2.77722,-2.77722 26.40679,-0.7966 30,1c13.48722,6.74361 -13.14362,93.7348 13,90c27.11711,-3.87387 54.17589,-79 20,-79" fill="none" stroke="black" stroke-linecap="round" stroke-width="5"/>
	<path d="M112,140c0,2.83997 5.42664,5.90218 7,8c18.0394,24.05253 33.12954,22 61,22c3.88624,0 14.99463,2.00537 18,-1c1.39683,-1.39683 -5.04194,-46.04194 -6,-47c-0.66667,-0.66667 -1.08534,-1.77134 -2,-2c-5.00604,-1.25151 -12.15161,0.19194 -17,1c-14.04458,2.34076 -30.43171,15 -44,15" fill="none" stroke="black" stroke-linecap="round" stroke-width="5"/>
	<path d="M111,57c0,8.28795 -7.17782,22.64437 -3,31c2.22836,4.45672 68.08516,12.2871 73,0c24.70889,-61.77223 -61.9953,-36.50705 -71,-23" fill="none" stroke="black" stroke-linecap="round" stroke-width="5"/>
</svg>
