<?xml version="1.0" ?>
<svg baseProfile="full" height="300" version="1.1" viewBox="[0, 0, 300, 300]" width="300" xmlns="http://www.w3.org/2000/svg" xmlns:ev="http://www.w3.org/2001/xml-events" xmlns:xlink="http://www.w3.org/1999/xlink">
	<defs/>
	<path d="M68,41c25.18442,-7.55533 52.07587,-2.64326 78,-5c13.35819,-1.21438 31.2527,-1.45054 44,-4c0.32686,-0.06537 0,-1.33333 0,-1c0,15.30507 -0.38228,30.70861 0,46c0.17644,7.05744 5.16963,28.66073 1,37c-0.63246,1.26491 -1.86863,-2.15147 -3,-3c-2.98142,-2.23607 -7.29977,-1.55597 -11,-2c-14.05134,-1.68616 -37.26676,-1 -49,-1c-17.26882,0 -39.84473,-6.43105 -57,-3c-5.81272,1.16254 -14.03598,6.98801 -20,5c-2.52982,-0.84327 0,-5.33333 0,-8c0,-16.27357 -9,-31.84557 -9,-49c0,-4.30225 2.90256,-42.90256 6,-46" fill="none" stroke="black" stroke-linecap="round" stroke-width="5"/>
	<path d="M44,155c0,15.90156 41.56869,16.16613 51,18c39.08351,7.59957 91.41816,-30.16368 114,15c3.43983,6.87965 9.1095,14.562 7,23c-4.40125,17.60501 -89.65495,14.29313 -100,13c-9.89183,-1.23648 -23.06104,-1.53052 -32,-6c-12.44155,-6.22078 -22.63304,-41.48928 -14,-53c1.93713,-2.58284 5,-5.58601 5,-8" fill="none" stroke="black" stroke-linecap="round" stroke-width="5"/>
	<path d="M108,231c0,12.03904 8.51697,49.51697 16,57" fill="none" stroke="black" stroke-linecap="round" stroke-width="5"/>
	<path d="M206,223c0,22.06757 8,44.44585 8,67" fill="none" stroke="black" stroke-linecap="round" stroke-width="5"/>
	<path d="M124,261c23.60577,-11.80289 61.95508,-12 88,-12" fill="none" stroke="black" stroke-linecap="round" stroke-width="5"/>
	<path d="M72,214c-2.86744,0 -4.6509,3.35563 -7,5c-1.61679,1.13175 -60.7363,36.98174 -48,20" fill="none" stroke="black" stroke-linecap="round" stroke-width="5"/>
	<path d="M110,226c-10.2498,20.4996 -23.8945,40.789 -34,61" fill="none" stroke="black" stroke-linecap="round" stroke-width="5"/>
	<path d="M54,235c11.70991,1.95165 36.77576,3.77576 46,13c1.02439,1.02439 -1.52575,3 1,3" fill="none" stroke="black" stroke-linecap="round" stroke-width="5"/>
	<path d="M44,69c0,39.64472 9.12937,75.25874 26,109" fill="none" stroke="black" stroke-linecap="round" stroke-width="5"/>
	<path d="M191,85c0,26.27115 -2.02961,56.85195 3,82c1.793,8.96499 9.01486,16.53715 12,24c1.3484,3.37099 4.38403,14 9,14" fill="none" stroke="black" stroke-linecap="round" stroke-width="5"/>
</svg>
