<?xml version="1.0" ?>
<svg baseProfile="full" height="300" version="1.1" viewBox="[0, 0, 300, 300]" width="300" xmlns="http://www.w3.org/2000/svg" xmlns:ev="http://www.w3.org/2001/xml-events" xmlns:xlink="http://www.w3.org/1999/xlink">
	<defs/>
	<path d="M86,34c6.66906,13.33811 16.86486,81.79728 17,82c1.70469,2.55704 -0.98142,8.25464 2,9c15.82247,3.95562 54.62475,-5.68856 73,-6c12.81142,-0.21714 43.11153,3.95539 58,-2c4.48243,-1.79297 16.92466,3.05651 21,0c0.34299,-0.25725 0.19241,-6.35863 0,-7c-2.71773,-9.05911 -15.35901,-75.03851 -16,-76c-0.66667,-1 -0.92503,-2.46252 -2,-3c-12.94321,-6.4716 -144.37686,4 -170,4" fill="none" stroke="black" stroke-linecap="round" stroke-width="5"/>
	<path d="M92,156c11.82768,11.82768 -0.9231,34.92307 26,43c25.56193,7.66858 133.00955,-20.51671 147,-45c12.41791,-21.73135 -34.8586,-30.85727 -48,-32c-10.95865,-0.95293 -22.05198,-1.0681 -33,0c-19.80042,1.93175 -51.42809,5.57107 -68,18c-2.33983,1.75487 -11.25132,9 -13,9" fill="none" stroke="black" stroke-linecap="round" stroke-width="5"/>
	<path d="M104,202c0,8.78035 6.44373,18.69213 9,27c5.68625,18.4803 11,43.25758 11,62c0,3.15577 1.50069,7 -2,7" fill="none" stroke="black" stroke-linecap="round" stroke-width="5"/>
	<path d="M260,185c4.55224,2.27612 38,81.90092 38,90" fill="none" stroke="black" stroke-linecap="round" stroke-width="5"/>
	<path d="M149,239c13.25848,0 50.01115,-14.14466 60,-18c8.20996,-3.16876 16.03737,-7.25288 24,-11c3.37206,-1.58685 6.78089,-3.12218 10,-5c1.03813,-0.60558 2.84984,-3.84984 2,-3c-12.33279,12.33279 -61.04963,26.44096 -79,37c-9.0651,5.33241 -18.37842,10.24317 -18,11c4.9755,9.95099 22.06214,-2.96505 33,-5c29.32959,-5.45667 58.51388,-12.13765 87,-21c4.73166,-1.47207 9.04464,-5 14,-5" fill="none" stroke="black" stroke-linecap="round" stroke-width="5"/>
	<path d="M85,194c0,25.86143 -52.91933,38.91933 -67,53c-1.58114,1.58114 1.84955,-4.08259 3,-6" fill="none" stroke="black" stroke-linecap="round" stroke-width="5"/>
	<path d="M97,211c0,17.25374 -7.50548,34.01096 -15,49c-0.21446,0.42892 -9,20.25708 -9,18" fill="none" stroke="black" stroke-linecap="round" stroke-width="5"/>
	<path d="M166,249c0,-17.81958 74.59666,-31.59666 90,-47c4.55217,-4.55217 -11.80069,5.26419 -18,7c-25.14588,7.04085 -50.74142,12.3748 -76,19c-6.02342,1.57991 -12.14092,2.89073 -18,5c-3.13629,1.12906 -10.7735,4.151 -8,6c13.45443,8.96962 114.82657,5.30406 132,-5c0.85749,-0.5145 -2,0 -3,0c-5.66667,0 -11.33333,0 -17,0c-17,0 -34,0 -51,0c-5.66667,0 -11.33333,0 -17,0c-3.66667,0 -13.59272,2.59272 -11,0c6.47781,-6.47781 66.43754,-11.43754 72,-17c0.70711,-0.70711 -2.01766,-0.18711 -3,0c-6.03781,1.15006 -11.92164,3.08825 -18,4c-13.44695,2.01704 -27.0039,4.0012 -40,8c-2.62719,0.80836 -5.33333,1.33333 -8,2c-3.89402,0.97351 -12.99394,7.60061 -9,8c20.09899,2.0099 61.4072,-18.1018 81,-23c7.8682,-1.96705 16.02856,-2.50536 24,-4c2.79922,-0.52485 10.70185,-2.09938 8,-3c-24.48773,-8.16258 -80.99678,16 -110,16" fill="none" stroke="black" stroke-linecap="round" stroke-width="5"/>
</svg>
