<?xml version="1.0" ?>
<svg baseProfile="full" height="300" version="1.1" viewBox="[0, 0, 300, 300]" width="300" xmlns="http://www.w3.org/2000/svg" xmlns:ev="http://www.w3.org/2001/xml-events" xmlns:xlink="http://www.w3.org/1999/xlink">
	<defs/>
	<path d="M68,60c2.61776,0 3.59827,-3.31793 5,-5c7.21522,-8.65827 16.88262,-14.61783 26,-21c16.21386,-11.3497 110.37382,-30.1309 116,-2c0.10756,0.53782 1.40121,13 1,13c-7.16282,0 -15.56702,-5.2567 -23,-6c-20.59347,-2.05935 -117,0.82424 -117,30" fill="none" stroke="black" stroke-linecap="round" stroke-width="5"/>
	<path d="M94,76c0,22.62433 0.95207,44.47281 3,67c0.46737,5.14103 0,10.80954 0,16c0,2.66667 -1.88562,9.88562 0,8c3.80631,-3.80631 8,-77.78989 8,-89" fill="none" stroke="black" stroke-linecap="round" stroke-width="5"/>
	<path d="M140,60c0,13.18119 2.99203,27.1116 2,41c-1.34392,18.81483 -11,36.56273 -11,56c0,4 0,-8 0,-12c0,-8.33333 -0.3784,-16.67526 0,-25c0.80126,-17.62768 11,-40.06699 11,-54" fill="none" stroke="black" stroke-linecap="round" stroke-width="5"/>
	<path d="M182,63c0,18.81182 -3.3311,37.27073 -4,56c-0.26201,7.33623 -1,14.65909 -1,22c0,2.4267 -2,9.4267 -2,7c0,-18.21375 -1.39498,-36.86531 0,-55c1.18535,-15.4095 8,-29.62771 8,-45" fill="none" stroke="black" stroke-linecap="round" stroke-width="5"/>
	<path d="M201,55c5.92911,14.82277 10.34954,77.95139 5,94c-0.84984,2.54951 -0.87217,-5.31562 -1,-8c-0.38348,-8.05313 -2.27008,-15.97085 -3,-24c-1.98413,-21.82548 4,-42.51913 4,-64" fill="none" stroke="black" stroke-linecap="round" stroke-width="5"/>
	<path d="M217,56c6.70058,20.10174 6.68789,45.00629 8,66c0.16764,2.68219 0.43691,5.37223 1,8c1.26806,5.9176 3,10.79946 3,17c0,0.66667 0,2.66667 0,2c0,-32.22489 -3,-65.53531 -3,-97" fill="none" stroke="black" stroke-linecap="round" stroke-width="5"/>
	<path d="M86,178c6.01609,12.03217 21.43632,52.43632 30,61c1.75135,1.75135 30.61848,-4.89767 32,-5c29.44244,-2.18092 62.03962,-2.01132 90,-10c4.83876,-1.3825 22.02699,1.94601 24,-2c4.49789,-8.99577 -10.54159,-59.54159 -17,-66c-4.94975,-4.94975 -14,0 -21,0c-19.08826,0 -37.87362,-2 -57,-2c-18.21383,0 -50.49101,6.2455 -66,14c-2.82236,1.41118 -4.54286,5 -9,5" fill="none" stroke="black" stroke-linecap="round" stroke-width="5"/>
	<path d="M77,202c0,14.90195 1,29.99241 1,45c0,4.45879 -2,21.33331 -2,19" fill="none" stroke="black" stroke-linecap="round" stroke-width="5"/>
	<path d="M121,233c3.97006,0 -1.57812,25.03121 -2,27c-3.72857,17.39999 2,26.02674 2,43" fill="none" stroke="black" stroke-linecap="round" stroke-width="5"/>
	<path d="M86,246c9.04287,0 28.62498,6.18292 37,7c6.0084,0.58619 11.98787,1.45344 18,2c1.65982,0.15089 6.66667,0 5,0c-14,0 -28,0 -42,0c-4.67856,0 -9.39691,-0.16307 -14,-1c-1.3522,-0.24585 -5.30384,-0.56539 -4,-1c8.79891,-2.93297 22.38275,0 32,0c1.33333,0 -2.66667,0 -4,0c-2.35702,0 -5.33333,0.66667 -7,-1" fill="none" stroke="black" stroke-linecap="round" stroke-width="5"/>
	<path d="M233,226c-4.789,0 -19,39.78946 -19,48" fill="none" stroke="black" stroke-linecap="round" stroke-width="5"/>
	<path d="M267,231c8.28358,12.42537 7.79667,39.62666 6,54c-0.62211,4.97687 -3.93063,24.06937 -6,22" fill="none" stroke="black" stroke-linecap="round" stroke-width="5"/>
	<path d="M235,255c8.47884,-1.41314 17.41511,-1.47694 26,-1c3.01381,0.16743 11.51151,2.67434 9,1c-10.46364,-6.97576 -34.1551,-0.1551 -42,-8c-1.14415,-1.14415 30.01431,-0.99642 34,0c2.07384,0.51846 -7.02854,0 -21,0" fill="none" stroke="black" stroke-linecap="round" stroke-width="5"/>
</svg>
