<?xml version="1.0" ?>
<svg baseProfile="full" height="300" version="1.1" viewBox="[0, 0, 300, 300]" width="300" xmlns="http://www.w3.org/2000/svg" xmlns:ev="http://www.w3.org/2001/xml-events" xmlns:xlink="http://www.w3.org/1999/xlink">
	<defs/>
	<path d="M69,36c3.88089,11.64266 3,22.6368 3,35c0,6.82504 0.42426,9.59081 -1,16c-0.22866,1.02899 -1,4.05409 -1,3c0,-6.32631 -1.65215,-50.08696 6,-52c19.2568,-4.8142 40.54689,-1.60791 60,-1c31.23085,0.97596 75.40346,-8.11717 84,32c1.10216,5.1434 0.27158,11.9137 -1,17c-0.51131,2.04524 -1.54267,3.94202 -2,6c-3.30949,14.89269 -9.30293,-0.32573 -24,-4c-9.55355,-2.38839 -20.26042,-1 -30,-1c-27.71232,0 -59.42901,7 -85,7" fill="none" stroke="black" stroke-linecap="round" stroke-width="5"/>
	<path d="M99,109c0,6.012 -4.42326,10.4814 -6,16c-5.79692,20.28922 -8,37.91865 -8,59c0,1 0,-2 0,-3c0,-7 0,-14 0,-21c0,-14.96813 4,-29.30926 4,-44" fill="none" stroke="black" stroke-linecap="round" stroke-width="5"/>
	<path d="M129,107c0,9.60461 -5.18999,21.49746 -7,31c-1.6895,8.86989 -4.43526,17.96412 -5,27c-0.2911,4.65758 0,9.33333 0,14c0,1 0,4 0,3c0,-22.05655 -12.23351,-47.29948 -5,-69c0.4714,-1.41421 0.50929,-4 2,-4" fill="none" stroke="black" stroke-linecap="round" stroke-width="5"/>
	<path d="M175,105c0,17.3922 0.08219,34.68492 -1,52c-0.29405,4.70486 -0.75965,9.45206 -2,14c-0.83205,3.05085 -1.24588,11.63117 -3,9c-16.22645,-24.33967 -5,-53.14965 -5,-77" fill="none" stroke="black" stroke-linecap="round" stroke-width="5"/>
	<path d="M209,101c0,13.80455 3.30288,28.0576 4,42c0.32491,6.49826 0.19565,12.56522 1,19c0.29235,2.33882 1,9.35702 1,7c0,-13.66954 -12.11202,-26.0041 -15,-39c-2.81777,-12.67997 4,-23.63703 4,-35" fill="none" stroke="black" stroke-linecap="round" stroke-width="5"/>
	<path d="M85,197c5.68833,9.48056 15.47829,40.73915 24,45c17.33345,8.66673 102.25959,-11.51918 108,-23c3.98862,-7.97724 1.07999,-25.30002 -2,-33c-6.01964,-15.0491 -44.99348,-7.2859 -55,-7c-0.75412,0.02155 -71.28743,7.57485 -73,11c-2.92662,5.85323 -1.88755,20.99399 -3,26c-2.19068,9.85804 -11,23.14683 -11,33" fill="none" stroke="black" stroke-linecap="round" stroke-width="5"/>
	<path d="M100,236c0,1.20185 -1.65465,1.84884 -2,3c-0.77222,2.57408 -0.64482,5.33616 -1,8c-0.15062,1.12962 -6.72507,29.51662 -3,32c4.5618,3.0412 16.14666,-5 8,-5" fill="none" stroke="black" stroke-linecap="round" stroke-width="5"/>
	<path d="M73,247c0,-4.07014 1.2371,-6 -3,-6" fill="none" stroke="black" stroke-linecap="round" stroke-width="5"/>
	<path d="M204,230c0,6.98285 -15.78187,38.78187 -11,34" fill="none" stroke="black" stroke-linecap="round" stroke-width="5"/>
	<path d="M222,224c0,9.33333 0,18.66667 0,28c0,6.77367 2,11.78709 2,19c0,0.94281 -1.33333,-2.66667 -2,-2c-2.07744,2.07744 4.983,-1.6034 3,-2c-3.2686,-0.65372 -6.66667,0 -10,0c-4.39712,0 2,1.9259 2,-2" fill="none" stroke="black" stroke-linecap="round" stroke-width="5"/>
</svg>
