<?xml version="1.0" ?>
<svg baseProfile="full" height="300" version="1.1" viewBox="[0, 0, 300, 300]" width="300" xmlns="http://www.w3.org/2000/svg" xmlns:ev="http://www.w3.org/2001/xml-events" xmlns:xlink="http://www.w3.org/1999/xlink">
	<defs/>
	<path d="M73,53c0,-33.59177 98.97635,-32.75591 122,-27c7.23244,1.80811 9.79402,8.79402 14,13c0.63848,0.63848 0,4.8212 0,6c0,2.40345 -26.78197,0 -31,0c-19.69057,0 -96.65704,-4.34296 -110,9" fill="none" stroke="black" stroke-linecap="round" stroke-width="5"/>
	<path d="M78,54c0,17.44036 -1.57767,35.64565 0,53c0.68442,7.52866 2.1618,15.64719 4,23c0.08085,0.32338 0,1.33333 0,1c0,-27.92954 -9,-56.40458 -9,-84" fill="none" stroke="black" stroke-linecap="round" stroke-width="5"/>
	<path d="M114,51c0,22.28238 0,44.77668 0,67c0,2.33333 0.25767,-4.68094 0,-7c-1.00473,-9.04258 -3.13741,-17.94275 -4,-27c-1.6376,-17.19483 3,-34.59781 3,-50" fill="none" stroke="black" stroke-linecap="round" stroke-width="5"/>
	<path d="M135,47c0,16.97614 5.99041,36.29337 10,53c1.45326,6.05523 3.21063,12.03544 5,18c1.02244,3.40812 1,5.56181 1,9c0,0.33333 0,3.33333 0,3c0,-28.31576 -7,-56.49387 -7,-85" fill="none" stroke="black" stroke-linecap="round" stroke-width="5"/>
	<path d="M158,46c0,17.94025 7.67833,36.71334 12,54c1.52165,6.08659 4.10316,11.72215 5,18c0.24037,1.68259 1,6.69967 1,5c0,-14.23465 -8.09505,-29.71287 -10,-44c-1.65772,-12.43288 2,-25.39514 2,-37" fill="none" stroke="black" stroke-linecap="round" stroke-width="5"/>
	<path d="M188,47c0,16.10528 4.99364,33.9491 7,50c0.25149,2.01193 1,6 1,6c0,0 0,-5.33333 0,-8c0,-21.6604 -8,-43.37751 -8,-66" fill="none" stroke="black" stroke-linecap="round" stroke-width="5"/>
	<path d="M69,146c9.75925,19.51849 15.99332,42.98663 25,61c2.48281,4.96562 2,1.85693 2,-1" fill="none" stroke="black" stroke-linecap="round" stroke-width="5"/>
	<path d="M86,149c1.66667,-0.66667 3.24958,-1.60218 5,-2c7.4847,-1.70107 87.81586,-21.2826 90,-12c4.40974,18.74138 4,36.84436 4,56c0,0.66241 0.34001,6.88666 0,7c-9.45205,3.15068 -80,-4.55482 -80,8" fill="none" stroke="black" stroke-linecap="round" stroke-width="5"/>
	<path d="M76,191c0,13.34516 -8.60641,24.83527 -11,38c-0.60467,3.3257 -5,19.41581 -5,16" fill="none" stroke="black" stroke-linecap="round" stroke-width="5"/>
	<path d="M110,205c0,17.91985 -10,33.07857 -10,51c0,2.77011 1.47356,5 -2,5" fill="none" stroke="black" stroke-linecap="round" stroke-width="5"/>
	<path d="M68,224c10.04366,0 22.64038,-3 31,-3c0.33333,0 1.33333,0 1,0c-8.33333,0 -16.66667,0 -25,0c-0.33333,0 -1.33333,0 -1,0c9,0 18,0 27,0" fill="none" stroke="black" stroke-linecap="round" stroke-width="5"/>
	<path d="M167,200c0,6.8869 -1,26.84617 -1,26" fill="none" stroke="black" stroke-linecap="round" stroke-width="5"/>
	<path d="M193,199c0,13.95532 5.35317,70.64683 -2,78c-1.88562,1.88562 0.37712,-5.36013 0,-8c-0.62672,-4.38704 -7.13997,-11.51996 -9,-14" fill="none" stroke="black" stroke-linecap="round" stroke-width="5"/>
	<path d="M169,218c3.92541,0 12.19965,-2.26678 16,-1c2.54951,0.84984 -10.68742,1 -8,1c6,0 12,0 18,0c4.05518,0 -16.05518,-2 -12,-2c21.61306,0 -4.22674,1 -12,1" fill="none" stroke="black" stroke-linecap="round" stroke-width="5"/>
</svg>
