<?xml version="1.0" ?>
<svg baseProfile="full" height="300" version="1.1" viewBox="[0, 0, 300, 300]" width="300" xmlns="http://www.w3.org/2000/svg" xmlns:ev="http://www.w3.org/2001/xml-events" xmlns:xlink="http://www.w3.org/1999/xlink">
	<defs/>
	<path d="M65,25c-0.6073,0 8.41087,0 11,0c10,0 20,0 30,0c7.39883,0 83.68484,-1.31516 85,0c0.70819,0.70819 0.70819,16.29181 0,17c-3.57255,3.57255 -28.28874,0 -34,0c-7.84342,0 -74.26883,1.73117 -77,-1c-1.19168,-1.19168 0,-9.26321 0,-11c0,-4.68692 -3,-5.6874 -3,-8" fill="none" stroke="black" stroke-linecap="round" stroke-width="5"/>
	<path d="M79,40c0,24.66667 0,49.33333 0,74" fill="none" stroke="black" stroke-linecap="round" stroke-width="5"/>
	<path d="M101,45c0,21 0,42 0,63" fill="none" stroke="black" stroke-linecap="round" stroke-width="5"/>
	<path d="M140,45c0,11.66667 0,23.33333 0,35c0,5.68725 -1.39208,13.43169 0,19c0.11665,0.46659 1,3.19143 1,1" fill="none" stroke="black" stroke-linecap="round" stroke-width="5"/>
	<path d="M178,43c0,20 0,40 0,60" fill="none" stroke="black" stroke-linecap="round" stroke-width="5"/>
	<path d="M78,112c11.48556,0 114.22219,-8.77781 120,-3c0.22692,0.22692 0.03966,2.64304 0,3c-1.5748,14.17323 -5,27.67774 -5,42c0,7.00968 7.50433,33.74351 4,39c-2.24472,3.36708 -25.54875,1 -33,1c-20.15107,0 -69.46332,3.69112 -87,-8c-6.86781,-4.57854 -7,-46.85324 -7,-54c0,-4.66667 0,-9.33333 0,-14c0,-1.34154 1,-6.17171 1,-4" fill="none" stroke="black" stroke-linecap="round" stroke-width="5"/>
	<path d="M82,192c-1.36943,0 -13.73667,2.26333 -12,4c4.86572,4.86572 17.19363,-2.61274 21,5c3.21619,6.43237 -11.35053,18.35053 -15,22c-0.83531,0.83531 4.65493,2.61971 5,4c1.9124,7.64958 2,16.63604 2,25" fill="none" stroke="black" stroke-linecap="round" stroke-width="5"/>
</svg>
