<?xml version="1.0" ?>
<svg baseProfile="full" height="300" version="1.1" viewBox="[0, 0, 300, 300]" width="300" xmlns="http://www.w3.org/2000/svg" xmlns:ev="http://www.w3.org/2001/xml-events" xmlns:xlink="http://www.w3.org/1999/xlink">
	<defs/>
	<path d="M96,54c0,3.90341 29.98251,-4.5965 32,-5c12.86757,-2.57351 38.46313,-7.51229 52,-3c7.50511,2.5017 3.66601,39.66601 11,47c2.54987,2.54987 14.50585,-23.0117 16,-26c0.35157,-0.70314 2.70791,-8.87628 3,-8c5.81135,17.43405 6,38.80819 6,57c0,2.66667 0,8 0,8c0,0 -0.96838,-1.58735 -2,-2c-10.26034,-4.10414 -20.16577,-6.53768 -31,-9c-11.27467,-2.56242 -92,-19.38055 -92,-33" fill="none" stroke="black" stroke-linecap="round" stroke-width="5"/>
	<path d="M93,55c-8.77112,0 -20.15051,-13.15051 -26,-19c-1.50923,-1.50923 -4,-5 -4,-5c0,0 -0.10541,0.68377 0,1c2.43558,7.30675 5.53586,14.60758 8,22c7.28878,21.86633 12,43.89074 12,67" fill="none" stroke="black" stroke-linecap="round" stroke-width="5"/>
	<path d="M83,120c44,0 88,0 132,0" fill="none" stroke="black" stroke-linecap="round" stroke-width="5"/>
	<path d="M100,182c31.4205,0 61.43689,-8 93,-8c0.83808,0 19.37402,-1.25197 20,0c5.78208,11.56417 7.62464,27.60315 12,40c1.54522,4.37811 3.36981,8.65281 5,13c0.09809,0.26158 3.15636,5.71091 2,6c-19.59311,4.89828 -45.2016,-4.01008 -65,-5c-14.85859,-0.74293 -38.4193,4.86023 -53,0c-0.79106,-0.26369 -1.95288,-2.57591 -2,-3c-1.1965,-10.76848 -5,-32.92664 -5,-42" fill="none" stroke="black" stroke-linecap="round" stroke-width="5"/>
</svg>
