<?xml version="1.0" ?>
<svg baseProfile="full" height="300" version="1.1" viewBox="[0, 0, 300, 300]" width="300" xmlns="http://www.w3.org/2000/svg" xmlns:ev="http://www.w3.org/2001/xml-events" xmlns:xlink="http://www.w3.org/1999/xlink">
	<defs/>
	<path d="M89,9c2.48265,0 107.61753,-5.38247 110,-3c1.31825,1.31825 0.62619,15.12142 0,17c-2.05171,6.15512 -28.98329,1 -35,1c-21.7247,0 -42.29286,-2 -64,-2c-1.25688,0 -8.14535,0.85465 -9,0c-3.6167,-3.6167 4,-14.1915 4,-18" fill="none" stroke="black" stroke-linecap="round" stroke-width="5"/>
	<path d="M79,165c0,7.2781 2.08862,78.91138 -1,82c-0.63708,0.63708 -1.94421,-0.66526 -2,-1c-0.78048,-4.68289 -1.30716,-14.42493 0,-19c0.65306,-2.28571 6.32287,-7.35425 5,-10c-1.65642,-3.31284 -9.31277,-27.12338 -9,-29c0.63231,-3.79384 5,-9.32071 5,-13c0,-2.37768 -15.77076,0.84717 -4,-7c1,-0.66667 1.92503,-1.46252 3,-2c2.96749,-1.48374 3.70271,9.51355 4,11c3.48543,17.42713 -2.47702,21.77972 -9,37c-1.08959,2.54239 -1,4.33091 -1,7" fill="none" stroke="black" stroke-linecap="round" stroke-width="5"/>
	<path d="M208,161c-1.34455,1.34455 -16.19587,19.20275 -15,20c5.06763,3.37842 14.16741,-0.83259 19,4c4.49916,4.49916 6.10796,32.89204 1,38" fill="none" stroke="black" stroke-linecap="round" stroke-width="5"/>
</svg>
