<?xml version="1.0" ?>
<svg baseProfile="full" height="300" version="1.1" viewBox="[0, 0, 300, 300]" width="300" xmlns="http://www.w3.org/2000/svg" xmlns:ev="http://www.w3.org/2001/xml-events" xmlns:xlink="http://www.w3.org/1999/xlink">
	<defs/>
	<path d="M92,60c14.50342,0 98.18898,-16.81102 112,-3c0.40196,0.40196 1,1.2451 1,2c0,3.96303 6.2808,41.7192 6,42c-8.22345,8.22345 -35.0135,4.8027 -46,7c-13.18474,2.63695 -58.10217,19.44891 -71,13c-6.61915,-3.30958 4.32233,-30.2563 5,-35c1.71539,-12.00772 -4,-23.31231 -4,-32" fill="none" stroke="black" stroke-linecap="round" stroke-width="5"/>
	<path d="M64,143c3.3627,0 6.80755,-0.41887 10,1c1.77613,0.78939 3.35179,1.96987 5,3c2.55568,1.5973 6.27333,3.41 8,6c4.58612,6.87918 -23,2.58443 -23,-1" fill="none" stroke="black" stroke-linecap="round" stroke-width="5"/>
	<path d="M218,132c0,-2.88259 -0.60118,-4.04912 2,-6c12.99047,-9.74285 19.09274,37 11,37c-4.84863,0 -10.49758,0.50242 -14,-3" fill="none" stroke="black" stroke-linecap="round" stroke-width="5"/>
	<path d="M112,174c8.30683,0 92.34555,-4.65445 101,4c3.32617,3.32617 2.52924,22.29244 3,27c0.52332,5.23316 3.58227,18.22364 0,23c-12.42989,16.57319 -74.10924,16.71261 -90,4c-14.92645,-11.94116 -10,-36.47062 -10,-53c0,-1.80835 -0.00636,-5 -2,-5" fill="none" stroke="black" stroke-linecap="round" stroke-width="5"/>
</svg>
