<?xml version="1.0" ?>
<svg baseProfile="full" height="300" version="1.1" viewBox="[0, 0, 300, 300]" width="300" xmlns="http://www.w3.org/2000/svg" xmlns:ev="http://www.w3.org/2001/xml-events" xmlns:xlink="http://www.w3.org/1999/xlink">
	<defs/>
	<path d="M86,130c2.18808,0 1,-8.47201 1,-9c0,-19.8514 -4.84913,-45.94326 5,-64c15.2907,-28.03295 66.60509,-46.85989 89,-17c12.44144,16.58859 22,51.83844 22,73c0,0.66667 0.59628,1.70186 0,2c-19.47078,9.73539 -51.32936,-0.33413 -73,4c-15.20849,3.0417 -25.62749,15 -42,15c-2.36985,0 -5,0.29682 -5,-2" fill="none" stroke="black" stroke-linecap="round" stroke-width="5"/>
	<path d="M57,142c0,-9.65088 18.10502,20.10502 20,22c0.15248,0.15248 -18,-0.37487 -18,-5" fill="none" stroke="black" stroke-linecap="round" stroke-width="5"/>
	<path d="M220,132c0,-3.23923 -0.70337,-7.16105 1,-10c10.89047,-18.15079 26.00247,23 12,23c-3.50171,0 -12.23039,1.76961 -15,-1" fill="none" stroke="black" stroke-linecap="round" stroke-width="5"/>
</svg>
