<?xml version="1.0" ?>
<svg baseProfile="full" height="300" version="1.1" viewBox="[0, 0, 300, 300]" width="300" xmlns="http://www.w3.org/2000/svg" xmlns:ev="http://www.w3.org/2001/xml-events" xmlns:xlink="http://www.w3.org/1999/xlink">
	<defs/>
	<path d="M67,30c23.01339,0 45.1314,-3.59278 68,-6c28.96766,-3.04923 48.76983,2.25661 75,11c3.60325,1.20108 9.43022,5.71222 6,10c-14.67284,18.34106 -137.18317,5.81683 -153,-10" fill="none" stroke="black" stroke-linecap="round" stroke-width="5"/>
	<path d="M166,121c-12.8261,0 -25.70772,-1.42522 -38,3c-16.39788,5.90324 -69.34265,34.79622 -51,61c41.72468,59.60668 253.46322,-16.1342 106,-53c-9.96589,-2.49147 -22.40869,-8 -32,-8" fill="none" stroke="black" stroke-linecap="round" stroke-width="5"/>
	<path d="M103,205c0,13.82648 2.23828,35.52344 -4,48" fill="none" stroke="black" stroke-linecap="round" stroke-width="5"/>
	<path d="M231,181c0,19.74431 10,40.36587 10,55" fill="none" stroke="black" stroke-linecap="round" stroke-width="5"/>
</svg>
