<?xml version="1.0" ?>
<svg baseProfile="full" height="300" version="1.1" viewBox="[0, 0, 300, 300]" width="300" xmlns="http://www.w3.org/2000/svg" xmlns:ev="http://www.w3.org/2001/xml-events" xmlns:xlink="http://www.w3.org/1999/xlink">
	<defs/>
	<path d="M101,40c0,-2.187 24.81253,-4.71468 27,-5c7.63026,-0.99525 27.24728,-4.87636 35,-1c7.9481,3.97405 6.53566,24.53566 13,31c0.4714,0.4714 1.5286,0.4714 2,0c3.69612,-3.69612 14.66908,-39 19,-39c0.33333,0 0,0.66667 0,1c0,7.19965 1.11229,14.89829 2,22c2.07604,16.60836 3.28985,76.28985 15,88" fill="none" stroke="black" stroke-linecap="round" stroke-width="5"/>
	<path d="M100,42c0,6.33333 0,12.66667 0,19c0,30.37608 -20.90983,-27.90983 -25,-32c-1.88562,-1.88562 0,5.33333 0,8c0,8 -0.26652,16.00444 0,24c0.72629,21.78869 6,43.2637 6,65" fill="none" stroke="black" stroke-linecap="round" stroke-width="5"/>
	<path d="M81,135c16.22173,0 30.68424,-4.18714 47,-6c26.61653,-2.95739 55.07994,0 81,0" fill="none" stroke="black" stroke-linecap="round" stroke-width="5"/>
	<path d="M94,196c18.23375,0 36.94653,-4.22254 55,-7c13.52787,-2.08121 27.31205,-3 41,-3c0.92284,0 4.433,-0.70101 5,1c4.96393,14.89179 2.7177,32.01196 7,47c0.27872,0.97551 2.34111,5.21963 0,6c-23.65971,7.88657 -50.55903,5.28434 -75,8c-28.85712,3.20635 -46,25.24167 -46,-7" fill="none" stroke="black" stroke-linecap="round" stroke-width="5"/>
</svg>
