<?xml version="1.0" ?>
<svg baseProfile="full" height="300" version="1.1" viewBox="[0, 0, 300, 300]" width="300" xmlns="http://www.w3.org/2000/svg" xmlns:ev="http://www.w3.org/2001/xml-events" xmlns:xlink="http://www.w3.org/1999/xlink">
	<defs/>
	<path d="M86,137c0,-41.75519 0.81774,-83.80788 44,-103c10.44323,-4.64143 19.61817,-9.5039 31,-3c28.14638,16.08364 38.11136,52.66818 43,82c0.38905,2.33431 7.25065,24.58312 3,26c-0.14946,0.04982 -106.2293,8.92357 -109,8c-4.1177,-1.37257 -11.05014,-11 -13,-11" fill="none" stroke="black" stroke-linecap="round" stroke-width="5"/>
	<path d="M98,180c18.81343,0 47.87078,6.04307 66,0c5.55137,-1.85046 20.4116,-21.2942 25,-19c7.56821,3.78411 16.7685,64.38584 11,74c-5.57773,9.29622 -19.24771,12.60682 -29,14c-43.97376,6.28197 -71,-21.57213 -71,-63" fill="none" stroke="black" stroke-linecap="round" stroke-width="5"/>
</svg>
