<?xml version="1.0" ?>
<svg baseProfile="full" height="300" version="1.1" viewBox="[0, 0, 300, 300]" width="300" xmlns="http://www.w3.org/2000/svg" xmlns:ev="http://www.w3.org/2001/xml-events" xmlns:xlink="http://www.w3.org/1999/xlink">
	<defs/>
	<path d="M54,224c45.91207,0 90.72432,-24.34054 136,-30c10.82629,-1.35329 37.53746,0.46254 45,-7c8.32025,-8.32025 -23.71969,-91.62625 -30,-100c-11.18108,-14.9081 -25.45863,-28.63909 -41,-39c-8.597,-5.73133 -19.14031,-7.59147 -29,-9c-47.42703,-6.77529 -49.288,43.57599 -65,75c-4.17634,8.35269 -13.1266,15.87767 -18,24c-6.93312,11.5552 -4.48124,68.51876 6,79" fill="none" stroke="black" stroke-linecap="round" stroke-width="5"/>
	<path d="M17,92c8.95673,0 24.93279,32.30375 28,38c15.88731,29.50501 36.73447,60.01979 48,91c4.59021,12.62308 8.94961,24.27019 13,37c1.569,4.93113 2.87744,9.9485 4,15c0.52643,2.36892 2,9.4267 2,7c0,-2.92701 -0.33542,-5.32917 1,-8" fill="none" stroke="black" stroke-linecap="round" stroke-width="5"/>
	<path d="M171,44c0,14.79427 27.37852,35.85709 36,46c19.93602,23.45414 32.45257,49.88181 39,80c5.02716,23.12495 10,46.40365 10,70c0,1.33596 -0.87329,3 -2,3" fill="none" stroke="black" stroke-linecap="round" stroke-width="5"/>
</svg>
