<?xml version="1.0" ?>
<svg baseProfile="full" height="300" version="1.1" viewBox="[0, 0, 300, 300]" width="300" xmlns="http://www.w3.org/2000/svg" xmlns:ev="http://www.w3.org/2001/xml-events" xmlns:xlink="http://www.w3.org/1999/xlink">
	<defs/>
	<path d="M207,170c-24.18219,0 -93.10925,-2.2252 -107,20c-6.0427,9.66832 9.75686,51.72942 1,78c-1.365,4.095 -10.74088,33.25912 -11,33c-20.40538,-20.40538 -4.29904,-49.50481 0,-71c2.29397,-11.46985 -4.22848,-30.54304 1,-41c1.39294,-2.78588 2.56081,-13.87839 1,-17c-2.56068,-5.12135 -26.24432,-21.75568 -32,-16c-1.43208,1.43208 -8.63642,3.27284 -10,6c-8.4097,16.8194 12.53807,46.92386 2,68c-4.92466,9.84931 -11.4979,35.74895 -20,40c-1.72943,0.86471 -7.43142,2.35286 -9,0c-7.16262,-10.74393 11,-60.85835 11,-78c0,-43.61607 4.57639,-71.61114 10,-115c1.86713,-14.93701 -3.66436,-39.66782 11,-47c14.73728,-7.36864 120.33554,5 143,5c7.18961,0 41.68903,0.37806 44,5c2.78352,5.56704 -11.49937,44.9962 -13,54c-2.1776,13.06558 -3.14008,37.14008 -11,45" fill="none" stroke="black" stroke-linecap="round" stroke-width="5"/>
	<path d="M44,140c3.36736,-3.36736 42.99418,-0.66731 49,0c26.58376,2.95375 58.47373,4.65263 85,2c12.84043,-1.28404 23.08936,-5 37,-5" fill="none" stroke="black" stroke-linecap="round" stroke-width="5"/>
</svg>
