<?xml version="1.0" ?>
<svg baseProfile="full" height="300" version="1.1" viewBox="[0, 0, 300, 300]" width="300" xmlns="http://www.w3.org/2000/svg" xmlns:ev="http://www.w3.org/2001/xml-events" xmlns:xlink="http://www.w3.org/1999/xlink">
	<defs/>
	<path d="M187,193c-10.63326,0 -81.22884,7.45768 -85,15c-5.11291,10.22581 1.80011,25.19935 0,36c-2.3828,14.29677 -8.95607,17.91214 -14,28c-0.88317,1.76634 -1.99123,7.33626 -6,6c-6.2144,-2.07147 -8.54809,-18.90383 -6,-24c8.85125,-17.70249 22.68859,-52.20761 2,-66c-3.06156,-2.04104 -14.32062,-14.83969 -16,-14c-3.32322,1.66161 2,39.16161 2,47c0,3.21223 -5.84712,25.15288 -12,19c-3.07352,-3.07352 -6.82868,-7.3147 -8,-12c-2.57914,-10.31657 1.2116,-25.63479 4,-34c2.67123,-8.0137 -2,-59.25021 -2,-70c0,-6.52218 3.2462,-32.2462 7,-36c6.7147,-6.7147 2.08381,-28.04191 14,-34c15.8782,-7.9391 38.387,-9.79567 57,-16c7.90409,-2.6347 74.67588,-13.32412 76,-12c8.66229,8.66229 3,31.67117 3,44c0,38.96615 -22.16533,80.15731 -28,121c-0.14907,1.0435 -0.85093,1.9565 -1,3c-0.18856,1.31993 0,2.66667 0,4c0,17.02282 -2,35.35328 -2,53c0,0.01341 -0.16021,4.9466 0,5c33.79773,11.26591 11.02079,-76.02079 18,-83c3.05432,-3.05432 11.312,12.312 12,13c6.46965,6.46965 18.41479,11.41479 22,15c4.62622,4.62622 -19.42605,48.57395 -13,55c0.70681,0.70681 5.91627,0 7,0c16.49246,0 19,-25.11783 19,-38c0,-10.37961 -9,-20.00844 -9,-21" fill="none" stroke="black" stroke-linecap="round" stroke-width="5"/>
	<path d="M70,170c33.86909,0 66.30389,-3.93672 100,-7c10.32625,-0.93875 14.61162,-5 24,-5" fill="none" stroke="black" stroke-linecap="round" stroke-width="5"/>
</svg>
