<?xml version="1.0" ?>
<svg baseProfile="full" height="300" version="1.1" viewBox="[0, 0, 300, 300]" width="300" xmlns="http://www.w3.org/2000/svg" xmlns:ev="http://www.w3.org/2001/xml-events" xmlns:xlink="http://www.w3.org/1999/xlink">
	<defs/>
	<path d="M85,52c2.27985,0 0.47511,3.42533 1,5c3.57724,10.73173 -0.0705,23.25326 3,34c7.95077,27.82768 9.62978,51.15745 41,59c4.58154,1.14539 21.00227,1.99886 25,0c14.28776,-7.14388 31.39948,-18 47,-18c0.66667,0 1.5286,0.4714 2,0c6.28839,-6.28839 17.88997,-19.55987 20,-28c3.43949,-13.75798 -2.77044,-23.08174 -6,-36c-1.87246,-7.48984 -0.59546,-16.59546 -6,-22c-16.99991,-16.99991 -79.10572,-9.81571 -102,-6c-5.9118,0.9853 -15.29014,6 -20,6" fill="none" stroke="black" stroke-linecap="round" stroke-width="5"/>
	<path d="M122,184c0,11.13574 13.20174,15.40348 18,25c7.60626,15.21253 18.39725,19.9315 32,29c9.31412,6.20942 11.99912,16.99912 19,24c3.47256,3.47256 51.74565,-14.54913 59,-16c16.06496,-3.21299 36.60484,-2.60484 48,-14c7.3331,-7.3331 -13.06799,-25.60198 -16,-30c-5.96076,-8.94115 -19.70903,-15.41805 -24,-24c-2.82798,-5.65597 1.93596,-27.76601 -7,-30c-7.3348,-1.8337 -20.52007,-2.35999 -28,-1c-27.37048,4.97645 -49.15345,19.07672 -73,31c-3.14676,1.57338 -22,7.12943 -22,2" fill="none" stroke="black" stroke-linecap="round" stroke-width="5"/>
</svg>
