<?xml version="1.0" ?>
<svg baseProfile="full" height="300" version="1.1" viewBox="[0, 0, 300, 300]" width="300" xmlns="http://www.w3.org/2000/svg" xmlns:ev="http://www.w3.org/2001/xml-events" xmlns:xlink="http://www.w3.org/1999/xlink">
	<defs/>
	<path d="M218,184c-2.40827,0 -114.70131,29.70131 -117,32c-19.51848,19.51848 8.91526,58.02825 -21,68c-1.41155,0.47052 -3.09683,2.95158 -5,2c-15.37639,-7.6882 2.09888,-32.39552 5,-44c7.78051,-31.12202 -5.75762,-49.37881 -29,-61c-5.43986,-2.71993 -1,17.7323 -1,18c0,12.58267 -0.69108,26.38217 -6,37c-3.21191,6.42381 -13.43754,-12.31261 -14,-14c-0.21082,-0.63246 0,-1.33333 0,-2c0,-16.91941 6.13245,-22.2649 12,-34c3.83278,-7.66555 8.07914,-63.47482 10,-75c1.9526,-11.71562 7,-23.90808 7,-36c0,-0.47249 0.88253,-2.94127 1,-3c4.8074,-2.4037 10.67445,1.27379 16,2c25.83829,3.5234 43.21424,5.96704 69,2c14.60245,-2.24653 31.62877,-7.52398 43,-17c3.41879,-2.84899 8.56408,-7.34611 11,-11c0.38121,-0.57182 2.33045,-4.33477 3,-4c1.78885,0.89443 0,4 0,6c0,14.81385 -2.56747,27.67475 -4,42c-4.22383,42.23835 -16,81.90182 -16,125c0,5.3368 -7.6522,28.3478 -3,33c1.99228,1.99228 4.65011,-1.60045 5,-3c4.52769,-18.11075 0.75877,-75.87938 15,-83c9.50365,-4.75183 13.50418,16.50418 17,20c12.78816,12.78816 0.22146,54.11416 -4,71c-1.37061,5.48244 9.03786,13.80178 10,13c42.47427,-35.39523 13.96413,-91.03587 -15,-120" fill="none" stroke="black" stroke-linecap="round" stroke-width="5"/>
	<path d="M50,176c10.23953,-10.23953 88.75881,-18.03794 108,-19c12.78471,-0.63924 25.19687,-3 38,-3c2,0 6,0 6,0c0,0 -3.50642,-1.00428 -5,-2" fill="none" stroke="black" stroke-linecap="round" stroke-width="5"/>
</svg>
