<?xml version="1.0" ?>
<svg baseProfile="full" height="300" version="1.1" viewBox="[0, 0, 300, 300]" width="300" xmlns="http://www.w3.org/2000/svg" xmlns:ev="http://www.w3.org/2001/xml-events" xmlns:xlink="http://www.w3.org/1999/xlink">
	<defs/>
	<path d="M66,121c14.41923,0 31.00113,-10.12514 46,-12c27.91579,-3.48947 57.05483,-8.50914 84,-13c10.73318,-1.78886 40.32486,-8.18784 46,6c5.51764,13.79411 -4.15428,27.07996 -6,40c-1.70691,11.94838 -2,23.73401 -2,36c0,0.80124 0.63848,5.36152 0,6c-2.32019,2.32019 -50.22701,11.02838 -58,12c-10.38169,1.29771 -91.43695,18.28153 -98,15c-14.03306,-7.01653 -12,-93.36963 -12,-108" fill="none" stroke="black" stroke-linecap="round" stroke-width="5"/>
	<path d="M66,164c0,9.25783 -12.58947,2.58947 -16,6c-3.2972,3.2972 17,44.61149 17,53c0,1.34107 1.70827,1.43058 3,1c19.09402,-6.36467 -4,-29.67045 -4,-42" fill="none" stroke="black" stroke-linecap="round" stroke-width="5"/>
	<path d="M234,140c6.13552,0 13.59652,0.40348 18,-4c1.43576,-1.43576 5.03876,-8.96124 8,-6c10.51167,10.51167 12,29.81265 12,49c0,0.46258 0.22664,4.92445 0,5c-5.17162,1.72387 -13.49024,0.9935 -18,4c-0.70492,0.46995 -4.53822,4.46178 -6,3c-2.84074,-2.84074 -6.52847,-31.43357 -5,-35c1.6028,-3.73986 6.49532,-5.96257 7,-10c0.26149,-2.09191 -3.9205,1.65342 -6,2c-1.37222,0.2287 -2.02852,-5.02852 -3,-6c-0.92786,-0.92786 -5,-4.2156 -5,-6" fill="none" stroke="black" stroke-linecap="round" stroke-width="5"/>
</svg>
