<?xml version="1.0" ?>
<svg baseProfile="full" height="300" version="1.1" viewBox="[0, 0, 300, 300]" width="300" xmlns="http://www.w3.org/2000/svg" xmlns:ev="http://www.w3.org/2001/xml-events" xmlns:xlink="http://www.w3.org/1999/xlink">
	<defs/>
	<path d="M46,122c27.55274,0 53.53415,-12 82,-12c13.57212,0 95.46087,-23.26957 98,-22c0.43347,0.21674 1.90527,2.62109 2,3c2.30281,9.21124 -1.33284,19.66864 1,29c2.03633,8.14531 5.4024,16.01198 7,24c0.46858,2.34288 2.2878,5.7122 0,8c-8.06335,8.06335 -77.60202,17.80017 -92,19c-11.94631,0.99553 -26.25668,3.06417 -38,6c-10.06257,2.51564 -19.57098,11 -30,11c-0.63795,0 -7.76516,0.46968 -8,0c-5.75053,-11.50107 -6.07252,-23.87691 -13,-36c-5.08248,-8.89435 -11,-17.78399 -11,-28" fill="none" stroke="black" stroke-linecap="round" stroke-width="5"/>
	<path d="M53,149c0,9.99305 -22,4.21138 -22,13c0,7.50927 7.0419,11.14665 9,18c15.50161,54.25563 44.23383,28.46766 18,-24" fill="none" stroke="black" stroke-linecap="round" stroke-width="5"/>
	<path d="M230,124c4.96577,0 32.92635,-7.03682 35,-6c5.35352,2.67676 3.24136,16.44818 4,21c0.17329,1.03975 0.58477,2.03114 1,3c0.58722,1.37018 1.63845,2.5538 2,4c0.32338,1.29352 0,2.66667 0,4c0,7.20095 -0.27461,26.45077 3,33c0.06233,0.12465 2.07379,2.46311 1,3c-3.15846,1.57923 -12.17982,0 -16,0c-1.88356,0 -10.66945,1.33055 -12,0c-6.59832,-6.59832 -5.24202,-45.24202 -20,-60" fill="none" stroke="black" stroke-linecap="round" stroke-width="5"/>
</svg>
