<?xml version="1.0" ?>
<svg baseProfile="full" height="300" version="1.1" viewBox="[0, 0, 300, 300]" width="300" xmlns="http://www.w3.org/2000/svg" xmlns:ev="http://www.w3.org/2001/xml-events" xmlns:xlink="http://www.w3.org/1999/xlink">
	<defs/>
	<path d="M62,196c47.42731,0 90.27597,-2.37933 136,-10c14.64,-2.44 32.02201,1.98899 44,-4c0.2495,-0.12475 0,-3.59272 0,-4c0,-18.2347 -5.78131,-34.25049 -8,-52c-2.02024,-16.16193 -2.72391,-31.08586 -12,-45c-8.14304,-12.21455 -26.458,-15.42578 -39,-21c-50.12917,-22.27963 -90.71513,-17.21217 -112,36c-6.12545,15.31362 -10.27633,74.17102 -5,90c1.21044,3.63132 -2.09695,6 3,6" fill="none" stroke="black" stroke-linecap="round" stroke-width="5"/>
	<path d="M34,122c31.39371,31.39371 46.25612,66.15254 56,110c2.36908,10.66084 4.54101,23.78709 6,34c0.68383,4.78679 0.85302,10.41209 2,15c0.17509,0.70034 1,6.32063 1,4" fill="none" stroke="black" stroke-linecap="round" stroke-width="5"/>
	<path d="M228,104c0,13.52226 18.27218,36.63508 24,50c10.49587,24.49037 10.39887,53.98865 13,80c0.60968,6.09681 1.62294,43.62294 -4,38" fill="none" stroke="black" stroke-linecap="round" stroke-width="5"/>
	<path d="M63,195c12.20835,4.06945 24.14383,11.32681 37,15c23.324,6.664 73.33722,-2.33389 99,-6c12.7613,-1.82304 42,-4.70981 42,-20" fill="none" stroke="black" stroke-linecap="round" stroke-width="5"/>
	<path d="M76,198c18.21136,18.21136 50.41852,33.83704 62,57c2.86235,5.72471 29,50.69537 29,29" fill="none" stroke="black" stroke-linecap="round" stroke-width="5"/>
</svg>
