<?xml version="1.0" ?>
<svg baseProfile="full" height="300" version="1.1" viewBox="[0, 0, 300, 300]" width="300" xmlns="http://www.w3.org/2000/svg" xmlns:ev="http://www.w3.org/2001/xml-events" xmlns:xlink="http://www.w3.org/1999/xlink">
	<defs/>
	<path d="M72,170c1.18463,-2.36926 38.82077,0 45,0c34.24276,0 77.84272,6.38576 109,-4c0.63246,-0.21082 1.70186,0.59628 2,0c5.28676,-10.57351 1,-36.65088 1,-48c0,-12.94175 -3.10636,-28.21271 -9,-40c-14.46444,-28.92888 -57.45651,-37.40942 -85,-42c-4.71952,-0.78659 -14.67081,-5.6646 -20,-3c-22.67304,11.33652 -43.98561,46.88488 -47,71c-2.02922,16.23378 -10.17012,49.82988 3,63" fill="none" stroke="black" stroke-linecap="round" stroke-width="5"/>
	<path d="M74,168c3.91907,0 9.03912,8.75978 14,10c5.99149,1.49787 47.64314,1.64314 48,2c10.06387,10.06387 96,22.23418 96,-18" fill="none" stroke="black" stroke-linecap="round" stroke-width="5"/>
	<path d="M78,178c0,14.91808 35.27838,53.91757 44,67c3.10727,4.66091 0.67137,19.67137 4,23c2.14046,2.14046 40.49329,-1.37668 46,0c22.01698,5.50424 62.01107,7.97786 74,-16c20.60242,-41.20483 -24,-64.05088 -24,-90" fill="none" stroke="black" stroke-linecap="round" stroke-width="5"/>
	<path d="M40,136c5.49335,10.9867 20.92236,15.56314 28,25c18.49443,24.65924 36.88472,51.1412 53,78c9.06983,15.11638 8,36.78316 8,54c0,0.5771 0,7 0,7c0,0 0.54754,-5.09507 1,-6" fill="none" stroke="black" stroke-linecap="round" stroke-width="5"/>
	<path d="M232,129c0,14.18257 45.11803,41.40984 36,87c-5.25365,26.26824 -16,50.91143 -16,78c0,0.4714 0.5286,1 1,1" fill="none" stroke="black" stroke-linecap="round" stroke-width="5"/>
</svg>
