<?xml version="1.0" ?>
<svg baseProfile="full" height="300" version="1.1" viewBox="[0, 0, 300, 300]" width="300" xmlns="http://www.w3.org/2000/svg" xmlns:ev="http://www.w3.org/2001/xml-events" xmlns:xlink="http://www.w3.org/1999/xlink">
	<defs/>
	<path d="M87,171c13.38603,0 26.10768,4.7718 40,4c24.12924,-1.34051 46.07767,-11.82524 70,-14c9.10332,-0.82757 17.86788,-1 27,-1c3.34996,0 10,4.34996 10,1c0,-5.63974 -0.90785,-25.81571 -3,-30c-7.11937,-14.23873 -30.30432,-45.37682 -50,-41c-11.14981,2.47773 -19.98506,9.24627 -31,12c-15.14407,3.78602 -34.42882,7.94306 -47,18c-1.47242,1.17794 -2.40918,2.98766 -4,4c-10.95911,6.97398 -24.5081,12.47571 -20,26c0.53058,1.59174 -1.06389,7.46806 0,8c7.62321,3.81161 22.16709,2.58354 31,7" fill="none" stroke="black" stroke-linecap="round" stroke-width="5"/>
	<path d="M78,178c-7.92277,7.92277 -3.91911,37.90533 7,42c33.91825,12.71934 74.6613,11.64409 110,14c4.82269,0.32151 38.88819,-0.77638 41,-5c4.29815,-8.59629 3.03911,-24.87155 4,-34c0.34509,-3.27834 5.45294,-15.09412 4,-18c-0.91232,-1.82464 -4.40673,-1.60168 -6,-2c-17.7356,-4.4339 -64.92924,7 -88,7c-16,0 -32,0 -48,0c-2.4614,0 -28.65575,1 -17,1" fill="none" stroke="black" stroke-linecap="round" stroke-width="5"/>
	<path d="M215,179c0,-7.60928 -10,-8.94703 -10,-15" fill="none" stroke="black" stroke-linecap="round" stroke-width="5"/>
</svg>
