<?xml version="1.0" ?>
<svg baseProfile="full" height="300" version="1.1" viewBox="[0, 0, 300, 300]" width="300" xmlns="http://www.w3.org/2000/svg" xmlns:ev="http://www.w3.org/2001/xml-events" xmlns:xlink="http://www.w3.org/1999/xlink">
	<defs/>
	<path d="M119,102c0,10.87272 -15.98308,60.03383 -14,64c7.5289,15.0578 54.37392,11 71,11c2.29392,0 23,0 23,0c0,0 -3.76165,-10.55126 -5,-16c-4.70966,-20.72248 -5.97119,-41.88478 -11,-62c-0.51131,-2.04524 -4.24588,-0.83059 -6,-2c-13.25487,-8.83658 -49.54828,-4 -66,-4" fill="none" stroke="black" stroke-linecap="round" stroke-width="5"/>
	<path d="M120,222c10.7523,10.7523 10.84133,29.27306 23,39c7.0699,5.65592 54.39662,10.30169 65,5c2.17051,-1.08525 7,0.4267 7,-2c0,-10.25397 -7.84079,-29.26119 -13,-37c-4.0764,-6.1146 -3.22375,-14.70626 -7,-21c-7.77829,-12.96382 -42.65133,-6.51316 -54,-5c-10.48407,1.39788 -27.11939,4.11939 -35,12" fill="none" stroke="black" stroke-linecap="round" stroke-width="5"/>
	<path d="M143,221c0,7.34048 1.45239,24.63493 8,29c2.68077,1.78718 6.65037,-18.65037 8,-20c0.64095,-0.64095 9.6063,8.30315 11,9c1.44513,0.72256 10.9496,-5.6313 16,-5c6.10586,0.76323 18.28389,8.42583 14,2" fill="none" stroke="black" stroke-linecap="round" stroke-width="5"/>
</svg>
