<?xml version="1.0" ?>
<svg baseProfile="full" height="300" version="1.1" viewBox="[0, 0, 300, 300]" width="300" xmlns="http://www.w3.org/2000/svg" xmlns:ev="http://www.w3.org/2001/xml-events" xmlns:xlink="http://www.w3.org/1999/xlink">
	<defs/>
	<path d="M81,84c6.92026,0 14.5246,5.42497 22,6c15.76405,1.21262 33.48522,-0.44773 49,3c6.66091,1.4802 75.97822,6.97822 77,8c0.79599,0.79599 -0.88023,3.70059 -1,4c-7.02272,17.55679 -9.51981,36.07925 -14,54c-0.20859,0.83435 -16.13459,-3.73951 -19,-4c-15.54995,-1.41363 -30.35744,-1.65362 -46,-4c-2.33095,-0.34964 -4.65266,-0.78661 -7,-1c-30.12458,-2.7386 -69.6197,3.34508 -99,-4c-3.24994,-0.81248 1,-6.65004 1,-10c0,-19.60513 -2.35582,-46.28836 6,-63" fill="none" stroke="black" stroke-linecap="round" stroke-width="5"/>
	<path d="M203,156c4.29858,4.29858 4.64851,10.64851 9,15" fill="none" stroke="black" stroke-linecap="round" stroke-width="5"/>
	<path d="M40,152c7.86653,0 13.19761,18.19761 17,22c2.18938,2.18938 23.01702,3.529 26,4c13.39159,2.11446 125.18826,-0.81174 132,6c1.17851,1.17851 0.52705,3.41886 0,5c-4.90464,14.71391 -8.34061,36.31877 -1,51c1.13529,2.27058 -4.72942,-1.86471 -7,-3c-4.95796,-2.47898 -11.67347,-2.40816 -17,-3c-15.70764,-1.74529 -31.45182,-5.70432 -47,-7c-14.97913,-1.24826 -98.82441,5.35118 -103,-3c-5.99735,-11.99471 0.10802,-29.51224 1,-42c0.10067,-1.40935 -1.20832,-11 1,-11" fill="none" stroke="black" stroke-linecap="round" stroke-width="5"/>
	<path d="M206,234c3.60606,7.21211 12.01372,12.01372 18,18" fill="none" stroke="black" stroke-linecap="round" stroke-width="5"/>
</svg>
