<?xml version="1.0" ?>
<svg baseProfile="full" height="300" version="1.1" viewBox="[0, 0, 300, 300]" width="300" xmlns="http://www.w3.org/2000/svg" xmlns:ev="http://www.w3.org/2001/xml-events" xmlns:xlink="http://www.w3.org/1999/xlink">
	<defs/>
	<path d="M123,260c-10.84148,0 -10.79288,-26.41425 -7,-34c1.62022,-3.24043 29.52734,3 31,3c0.95434,0 47.30672,0.30672 49,2c1.50923,1.50923 -3.04548,3.09096 -4,5c-2.23222,4.46444 -12.37648,34 -1,34c3.16228,0 -2.23304,-5.93214 -3,-9c-1.61189,-6.44758 -1,-14.24326 -1,-21c0,-20.84751 16.04805,-29.76156 -3,-45c-23.47327,-18.77861 -78.27956,-4.63978 -81,-6c-1.1581,-0.57905 -1.45304,-20.09392 -1,-21c0.86893,-1.73786 3.99973,-14.99973 6,-17c1.49071,-1.49071 4.02604,1.25977 6,2c12.79269,4.79726 29.56357,4.93286 43,7c6.59969,1.01534 33.28302,-1.71698 38,3c8.82765,8.82765 -14,25.76194 -14,32" fill="none" stroke="black" stroke-linecap="round" stroke-width="5"/>
	<path d="M202,132c-20.61678,10.30839 -62.78805,8.21195 -80,-9c-2.85593,-2.85593 -24,-8 -24,-8c0,0 16.30193,-6.50963 18,-15c1.26515,-6.32575 -2.98064,-36.01936 -2,-37c1.04345,-1.04345 3.21048,0.47365 4,1c10.57178,7.04786 33.38759,12.8469 46,16c11.07304,2.76826 23.64313,5.04089 34,8c1.78491,0.50997 19.40177,3.99558 19,5c-3.31807,8.29518 -13.87576,13.75153 -18,22c-3.57585,7.1517 -7.10038,21.10038 -13,27" fill="none" stroke="black" stroke-linecap="round" stroke-width="5"/>
	<path d="M151,111c-8.46312,0 -7.21584,-27.13662 -6,-32c0.54233,-2.1693 1.91407,4.04532 3,6c1.58164,2.84695 6.3136,7.76134 9,10c9.80476,8.17064 26.71368,14.07052 34,25c2.37698,3.56547 4.65214,-6.67393 2,-8c-1.63936,-0.81968 -16.93754,6.46877 -20,8" fill="none" stroke="black" stroke-linecap="round" stroke-width="5"/>
	<path d="M122,160c7.07488,7.07488 20.46067,20.23034 30,25c3.63327,1.81664 6.25856,-11 9,-11c4.46856,0 9.89177,8.89177 12,11c2.3214,2.3214 5.71705,-4 9,-4" fill="none" stroke="black" stroke-linecap="round" stroke-width="5"/>
</svg>
