<?xml version="1.0" ?>
<svg baseProfile="full" height="300" version="1.1" viewBox="[0, 0, 300, 300]" width="300" xmlns="http://www.w3.org/2000/svg" xmlns:ev="http://www.w3.org/2001/xml-events" xmlns:xlink="http://www.w3.org/1999/xlink">
	<defs/>
	<path d="M157,135c4.25776,0 45.71812,20.56376 50,12c4.42463,-8.84926 6.06929,-22.34646 8,-32c1.58219,-7.91095 0.78901,-21.21099 -5,-27c-5.13793,-5.13793 -44.55184,9.13796 -48,10c-9.13133,2.28283 -21.67872,4 -31,4c-5,0 -15,-5 -15,0c0,4.19407 7.43667,9.09168 9,13c2.91775,7.29437 4.53054,16.06107 8,23c2.44769,4.89538 33.26343,12 41,12" fill="none" stroke="black" stroke-linecap="round" stroke-width="5"/>
	<path d="M190,127c0,3.2215 0.2192,6.952 -1,10c-0.72185,1.80463 -2.13077,6.73845 -3,5c-4.65971,-9.31941 -2,-19.98864 -2,-30c0,-1.66667 1.66667,-5 0,-5c-7.34624,0 -19.81393,23.40696 -27,27c-3.74534,1.87267 -10.09047,-16.04524 -12,-17c-5.50338,-2.75169 -14.67159,8.32841 -11,12c11.23157,11.23157 25.65949,-24.1135 38,-20c7.5802,2.52673 6.67707,16.83853 15,21c5.55243,2.77622 11.39506,-20.39506 12,-21c1.09164,-1.09164 10,20.67822 10,19" fill="none" stroke="black" stroke-linecap="round" stroke-width="5"/>
	<path d="M140,170c10.14665,0 64.60141,14.60141 72,22c0.70711,0.70711 -2.10557,-0.44721 -3,0c-2.56472,1.28236 -4.87826,3.07115 -7,5c-2.67837,2.43488 -11.27991,13.78846 -13,16c-2.06716,2.65778 -7.51487,10.02973 -9,13c-0.8081,1.6162 1.08806,10.30398 -1,11c-6.84413,2.28138 -19.21519,-6.14346 -25,-10c-11.50389,-7.66926 -22.79434,-0.89717 -33,-6c-0.31915,-0.15957 0,-4.57447 0,-5c0,-18.75665 14,-37.28201 14,-55" fill="none" stroke="black" stroke-linecap="round" stroke-width="5"/>
</svg>
