<?xml version="1.0" ?>
<svg baseProfile="full" height="300" version="1.1" viewBox="[0, 0, 300, 300]" width="300" xmlns="http://www.w3.org/2000/svg" xmlns:ev="http://www.w3.org/2001/xml-events" xmlns:xlink="http://www.w3.org/1999/xlink">
	<defs/>
	<path d="M148,62c0,-4.34381 -28.85685,3.98316 -29,4c-23.52262,2.76737 -45.7411,-2.1068 -48,25c-0.33397,4.00762 -3.96342,9.14634 -3,13c2.93254,11.73015 39.16301,9.79282 46,10c8.66269,0.26251 17.38634,-0.95707 26,0c2.41186,0.26798 4.82949,3.08525 7,2c9.57762,-4.78881 61.55595,-19.1119 65,-26c12.33451,-24.66903 -18.76663,-29.86826 -37,-29c-8.86509,0.42215 -22.80289,2 -30,2" fill="none" stroke="black" stroke-linecap="round" stroke-width="5"/>
	<path d="M146,76c0,-3.90914 -37.55226,2.9571 -43,5c-1.12533,0.422 -3.07497,2.46252 -2,3c4.66658,2.33329 10.09118,0.3864 15,1c32.36917,4.04615 44.09632,-15 23,-15" fill="none" stroke="black" stroke-linecap="round" stroke-width="5"/>
	<path d="M97,110c0,23.64448 3.22918,48.37021 16,69c2.75297,4.4471 17,25.08619 17,24" fill="none" stroke="black" stroke-linecap="round" stroke-width="5"/>
</svg>
