<?xml version="1.0" ?>
<svg baseProfile="full" height="300" version="1.1" viewBox="[0, 0, 300, 300]" width="300" xmlns="http://www.w3.org/2000/svg" xmlns:ev="http://www.w3.org/2001/xml-events" xmlns:xlink="http://www.w3.org/1999/xlink">
	<defs/>
	<path d="M97,145c-5.61788,0 -20.34621,2.69241 -23,8c-5.93734,11.87469 20.60259,12.20519 22,15c0.41049,0.82098 -0.76882,2.76882 -1,3c-5.52327,5.52327 -12.9801,16.04975 -9,26c8.48132,21.20331 54.28567,15.17858 71,11c9.18791,-2.29698 14.21005,-13.8067 22,-19c9.67391,-6.44928 25.98834,-8.96502 30,-21c2.87421,-8.62264 -27.77302,-17.77302 -31,-21c-13.50151,-13.50151 6.02259,-24.99247 -18,-33c-0.31623,-0.10541 -0.66667,0 -1,0c-15.61219,0 -28.41192,14.13731 -43,19c-10.17757,3.39252 -22.31214,3.32804 -33,6c-0.64676,0.16169 -1.5286,-0.4714 -2,0c-3.33426,3.33426 -2,10.31197 -2,15" fill="none" stroke="black" stroke-linecap="round" stroke-width="5"/>
	<path d="M93,142c0,-6.07048 -17.89469,-14.68493 -17,-29c0.26941,-4.31062 4.23022,-31.46043 3,-29" fill="none" stroke="black" stroke-linecap="round" stroke-width="5"/>
	<path d="M109,133c0,-4.67042 -16.22763,-35.06908 -19,-42c-2.86348,-7.15871 -3,-14.41106 -3,-22c0,-1.27541 1.5389,-7.5389 -1,-5" fill="none" stroke="black" stroke-linecap="round" stroke-width="5"/>
	<path d="M124,122c0,-17.23865 -18.23022,-31.41298 -22,-48c-1.64671,-7.24551 -10.44911,-22.44911 -8,-20" fill="none" stroke="black" stroke-linecap="round" stroke-width="5"/>
	<path d="M134,107c0,-5.07287 -2,-8.8603 -2,-14" fill="none" stroke="black" stroke-linecap="round" stroke-width="5"/>
</svg>
