<?xml version="1.0" ?>
<svg baseProfile="full" height="300" version="1.1" viewBox="[0, 0, 300, 300]" width="300" xmlns="http://www.w3.org/2000/svg" xmlns:ev="http://www.w3.org/2001/xml-events" xmlns:xlink="http://www.w3.org/1999/xlink">
	<defs/>
	<path d="M71,39c0,3.03733 10.02854,46.02854 11,47c4.4148,4.4148 26.39382,-17.43629 34,-22c13.04364,-7.82618 35.66157,-13.93231 51,-17c15.87201,-3.1744 31.67542,12.66229 47,5c6.45502,-3.22751 8.41643,-33.52786 1,-36c-14.37298,-4.79099 -42.19736,-0.93421 -57,4c-23.3719,7.79063 -44.35915,17 -69,17" fill="none" stroke="black" stroke-linecap="round" stroke-width="5"/>
	<path d="M92,180c2.25282,0 40.28095,39.14047 48,43c1.49071,0.74536 2.82149,4.17851 4,3c7.09025,-7.09025 9.09711,-14.04046 21,-19c14.61024,-6.0876 29.55761,-1.86388 43,-6c8.57838,-2.6395 17.14684,-5.52447 26,-7c3.67607,-0.61268 13.63523,0.63523 11,-2c-6.60763,-6.60763 -16.51964,-12.58826 -24,-19c-14.19613,-12.16811 -18.9757,-23.98785 -35,-32c-4.15264,-2.07632 -8.68927,3.27571 -13,5c-17.9432,7.17728 -36.34808,12.97833 -55,18c-6.25869,1.68503 -42,2.91941 -42,10" fill="none" stroke="black" stroke-linecap="round" stroke-width="5"/>
	<path d="M92,182c0,14.15102 -3.2916,24 10,24" fill="none" stroke="black" stroke-linecap="round" stroke-width="5"/>
	<path d="M141,226c-0.86266,0 1.07421,25 2,25" fill="none" stroke="black" stroke-linecap="round" stroke-width="5"/>
	<path d="M242,192c0,4.44755 0.86033,23.86033 -3,20" fill="none" stroke="black" stroke-linecap="round" stroke-width="5"/>
</svg>
