<?xml version="1.0" ?>
<svg baseProfile="full" height="300" version="1.1" viewBox="[0, 0, 300, 300]" width="300" xmlns="http://www.w3.org/2000/svg" xmlns:ev="http://www.w3.org/2001/xml-events" xmlns:xlink="http://www.w3.org/1999/xlink">
	<defs/>
	<path d="M92,161c-4.57575,4.57575 -22.88125,12.475 -21,20c0.59644,2.38575 21.77328,-1.84534 26,-1c1.98821,0.39764 0.09324,4.18647 1,6c5.76201,11.52403 -17.96508,24.51746 5,36c30.0349,15.01745 106.24426,-8.97703 115,-44c7.89644,-31.58574 -36.48541,-22.89124 -50,-31c-6.25917,-3.7555 8.8588,-11.4236 8,-14c-3.47481,-10.42443 -15.61192,-14.19404 -24,-10c-10.28442,5.14221 -19.92393,14.46197 -29,19c-20.75057,10.37528 -26.79938,-2.20062 -48,19c-1.79505,1.79505 -5.40832,7.80277 -3,7c1.58114,-0.52705 2.33333,-3 4,-3" fill="none" stroke="black" stroke-linecap="round" stroke-width="5"/>
	<path d="M92,150c0,-12.72692 -3.39353,-31.96764 -6,-45c-0.32189,-1.60943 0.90776,-3 -1,-3" fill="none" stroke="black" stroke-linecap="round" stroke-width="5"/>
	<path d="M117,141c-5.67559,-17.02676 -7.08627,-46.29281 -3,-64c2.86578,-12.41837 11,-23.98052 11,-37" fill="none" stroke="black" stroke-linecap="round" stroke-width="5"/>
	<path d="M133,127c-3.64569,-27.3427 -4.95402,-33.72409 -8,-52c-0.95282,-5.7169 0,-12.17191 0,-18c0,-3 0,-12 0,-9" fill="none" stroke="black" stroke-linecap="round" stroke-width="5"/>
	<path d="M150,125c12.7236,-12.7236 -6.97102,-46.96136 -16,-59c-4.03544,-5.38059 -6.01665,-12.03329 -9,-18c-0.86923,-1.73845 -3,-6.94365 -3,-5" fill="none" stroke="black" stroke-linecap="round" stroke-width="5"/>
</svg>
