<?xml version="1.0" ?>
<svg baseProfile="full" height="300" version="1.1" viewBox="[0, 0, 300, 300]" width="300" xmlns="http://www.w3.org/2000/svg" xmlns:ev="http://www.w3.org/2001/xml-events" xmlns:xlink="http://www.w3.org/1999/xlink">
	<defs/>
	<path d="M74,210c11.4341,-11.4341 30.71346,-13.14037 37,-32c0.94862,-2.84586 1.99491,-5.98474 3,-9c1.40998,-4.22993 5.92416,-8.84832 8,-13c0.74536,-1.49071 1.82149,-5.17851 3,-4c1.66667,1.66667 0.37983,4.72603 1,7c4.91467,18.02046 14.66015,30.32309 24,45c2.47166,3.88403 13.91716,24.75147 12,19" fill="none" stroke="black" stroke-linecap="round" stroke-width="5"/>
	<path d="M120,149c0,-23.21496 -35.61618,-36.53529 -29,-63c3.27183,-13.08731 6.70528,-20.42107 17,-29c36.57842,-30.48202 82.09331,70.09331 104,92c16.75677,16.75677 19.02311,39.26009 27,60c0.9113,2.36938 5.53859,7 3,7c-6.02079,0 -16.56788,-19.56788 -23,-26" fill="none" stroke="black" stroke-linecap="round" stroke-width="5"/>
	<path d="M110,126c2.96423,-7.41056 20.78978,-45.66152 34,-40c4.54231,1.9467 8.59483,5.79741 13,8c2.15743,1.07871 16,1.79347 16,5" fill="none" stroke="black" stroke-linecap="round" stroke-width="5"/>
	<path d="M192,134c0,-5.14335 -8.24058,8.72175 -11,17c-3.40045,10.20136 -19,19.11113 -19,30" fill="none" stroke="black" stroke-linecap="round" stroke-width="5"/>
</svg>
