<?xml version="1.0" ?>
<svg baseProfile="full" height="300" version="1.1" viewBox="[0, 0, 300, 300]" width="300" xmlns="http://www.w3.org/2000/svg" xmlns:ev="http://www.w3.org/2001/xml-events" xmlns:xlink="http://www.w3.org/1999/xlink">
	<defs/>
	<path d="M65,158c33.46811,16.73406 113.63635,-15.90905 89,58c-2.4,7.2 2.4,16.8 0,24c-15.07498,45.22494 -44.11103,17.47224 -74,10c-3.6594,-0.91485 -44.32487,-0.51269 -36,-13c17.17786,-25.76678 102.65786,-46.17107 131,-32c5.22675,2.61338 4.57298,11.43063 8,16c8.31003,11.08004 33.67257,14.31858 39,1c4.59703,-11.49258 3.5006,-74.7497 -7,-80c-6.75067,-3.37534 -15.80126,0.43975 -23,-1c-15.62508,-3.12502 -30.55715,-9.27858 -44,-16c-16.41992,-8.20996 -49.4816,2.59264 -63,8c-2.70004,1.08002 -9.93462,25 -8,25" fill="none" stroke="black" stroke-linecap="round" stroke-width="5"/>
	<path d="M144,157c-1.74434,2.61652 -5,11.14466 -5,8c0,-2.29814 0.76852,-2 2,-2c9.32025,0 31.56533,-8.56533 38,-15c1.41409,-1.41409 17.21144,-10 14,-10" fill="none" stroke="black" stroke-linecap="round" stroke-width="5"/>
	<path d="M78,153c0,-33.34692 -40.28253,-71.71747 -9,-103c12.22544,-12.22544 14.98177,-12.40547 33,-7c6.13486,1.84046 19.57593,-1.25444 25,2c3.54702,2.12821 9.20639,41.82555 11,49c0.18078,0.7231 0.72318,1.30795 1,2c2.97681,7.44202 5,8.25822 5,17c0,2.68742 0.90029,9.90029 -1,8c-9.91936,-9.91936 -8.55193,-27.77597 -23,-35c-16.50745,-8.25373 -30.55188,2.10375 -39,19c-4.8979,9.79579 0,27.43536 0,36" fill="none" stroke="black" stroke-linecap="round" stroke-width="5"/>
</svg>
