<?xml version="1.0" ?>
<svg baseProfile="full" height="300" version="1.1" viewBox="[0, 0, 300, 300]" width="300" xmlns="http://www.w3.org/2000/svg" xmlns:ev="http://www.w3.org/2001/xml-events" xmlns:xlink="http://www.w3.org/1999/xlink">
	<defs/>
	<path d="M60,58c-1.37437,0 -1,2.62563 -1,4c0,14.2383 0.01667,27.88331 -2,42c-4.12391,28.86736 -15.4337,101.42473 12,122c8.52383,6.39287 14.53669,-8.85324 13,-15c-2.71918,-10.87671 -11.04249,-26.83003 -8,-39c3.44885,-13.79542 26.7437,-36.08543 42,-31c36.97388,12.32463 47.596,11.106 21,51c-6.49998,9.74998 2.26043,43.94791 22,40c5.39076,-1.07815 4.20901,-2.83965 8,-9c1.97684,-3.21236 5.03996,-7.03996 7,-9c0.22509,-0.22509 -8.43124,-41.09167 -4,-47c6.90398,-9.20531 30.56898,-1.52299 41,-5c1.14018,-0.38006 1.88411,-1.55364 3,-2c0.61898,-0.24759 1.33333,0 2,0c7.43009,0 19.56701,-6.5134 27,-8c1.30744,-0.26149 3.57836,-1.26491 4,0c4.17959,12.53878 -5.27262,15.09048 -8,26c-1.30352,5.21408 11.8621,60.14484 -11,51c-24.83111,-9.93244 -12,-41.77521 -12,-59c0,-2.22998 -1.19054,-9 1,-9" fill="none" stroke="black" stroke-linecap="round" stroke-width="5"/>
</svg>
