<?xml version="1.0" ?>
<svg baseProfile="full" height="300" version="1.1" viewBox="[0, 0, 300, 300]" width="300" xmlns="http://www.w3.org/2000/svg" xmlns:ev="http://www.w3.org/2001/xml-events" xmlns:xlink="http://www.w3.org/1999/xlink">
	<defs/>
	<path d="M119,41c-5.27429,5.27429 -12.11326,15.1827 -19,18c-7.42758,3.03855 -46,10.00159 -46,21c0,2.69197 -0.35522,8.56205 3,10c36.85563,15.79527 92.67832,-13.45372 129,-22c4.56803,-1.07483 43,-9.8752 43,-15c0,-21.62091 -65.03884,-2.60163 -74,0c-4.75693,1.38104 -17.14621,7.71345 -24,6c-1.58322,-0.3958 -13.21788,-1 -8,-1" fill="none" stroke="black" stroke-linecap="round" stroke-width="5"/>
	<path d="M126,68c-3.32125,1.66063 -8.48071,3.12018 -12,4c-13.83649,3.45912 -11.83264,12.63877 4,10c0.98783,-0.16464 31,-16.93632 31,-19c0,-1.49071 -2.56664,1.59047 -4,2c-2.68648,0.76757 -16,0.88002 -16,5" fill="none" stroke="black" stroke-linecap="round" stroke-width="5"/>
	<path d="M84,97c3.86517,0 6.74746,19.18432 9,22c12.81624,16.0203 16.73427,41.57625 23,61c2.83782,8.79723 14.92309,33.76926 12,25" fill="none" stroke="black" stroke-linecap="round" stroke-width="5"/>
</svg>
