<?xml version="1.0" ?>
<svg baseProfile="full" height="300" version="1.1" viewBox="[0, 0, 300, 300]" width="300" xmlns="http://www.w3.org/2000/svg" xmlns:ev="http://www.w3.org/2001/xml-events" xmlns:xlink="http://www.w3.org/1999/xlink">
	<defs/>
	<path d="M74,47c0,-2.49223 -2.94139,1.47069 -4,2c-13.48274,6.74137 -0.55552,11 6,11c4.89021,0 8.32675,-3.81046 14,-3c19.40211,2.77173 44.19418,5.20065 64,3c9.41201,-1.04578 22.55584,-15.55584 28,-21c0.87109,-0.87109 9,-1.52298 9,-3c0,-3.32224 -23.95376,-5 -27,-5c-8.92404,0 -18.21584,-0.46403 -27,1c-23.68242,3.94707 -38.38894,20.47779 -61,25c-2.51683,0.50337 -3,0.88179 -3,3" fill="none" stroke="black" stroke-linecap="round" stroke-width="5"/>
	<path d="M78,59c26.66228,0 89.46886,-40.53114 110,-20" fill="none" stroke="black" stroke-linecap="round" stroke-width="5"/>
	<path d="M95,63c0,6.13175 6.65463,12.09257 7,19c0.75133,15.02654 -4.01686,47.96629 3,62c2.80315,5.6063 4,5.55097 4,-4" fill="none" stroke="black" stroke-linecap="round" stroke-width="5"/>
	<path d="M123,62c0,21.34153 6.51421,42.62918 4,64c-0.54368,4.62132 -8.2708,33 -1,33c2.26027,0 5.41866,-17.12798 8,-21" fill="none" stroke="black" stroke-linecap="round" stroke-width="5"/>
	<path d="M149,54c0,27.96643 12.09349,61.28047 21,88c1.46818,4.40454 0.84736,15.07632 5,13c1.50934,-0.75467 -3.55321,-28.63853 -4,-34" fill="none" stroke="black" stroke-linecap="round" stroke-width="5"/>
	<path d="M178,45c0,11.41804 7.95274,23.95647 9,36c1.55558,17.88912 -0.86859,36.47308 4,54c0.22346,0.80444 8.24861,25 4,25" fill="none" stroke="black" stroke-linecap="round" stroke-width="5"/>
</svg>
