<?xml version="1.0" ?>
<svg baseProfile="full" height="300" version="1.1" viewBox="[0, 0, 300, 300]" width="300" xmlns="http://www.w3.org/2000/svg" xmlns:ev="http://www.w3.org/2001/xml-events" xmlns:xlink="http://www.w3.org/1999/xlink">
	<defs/>
	<path d="M83,173c0,-2.21431 -1.29462,0.29462 -2,1c-2.23139,2.23139 -10.22484,7.32549 -9,11c2.47826,7.43478 16.86639,-0.26722 21,8c2.42534,4.85068 -8.33354,18.77743 -4,26c2.57526,4.2921 7.68273,5.68273 11,9c2.28922,2.28922 3.06759,5.3446 7,6c9.54713,1.59119 18.21371,8 28,8c25.66073,0 78.52701,-18.58103 88,-47c8.37621,-25.12864 -31.10474,-25.05237 -45,-32c-2.5403,-1.27015 -4.31208,-4.97449 -6,-7c-1.65297,-1.98357 -7.72775,-5.54451 -6,-9c2.86402,-5.72805 14.33497,-10.33006 10,-19c-3.47418,-6.94835 -24.92115,-6.58423 -32,-8c-15.86523,-3.17305 -69.54411,36.54411 -81,48c-4.4064,4.4064 9.95665,15.95665 12,18" fill="none" stroke="black" stroke-linecap="round" stroke-width="5"/>
	<path d="M69,166c0,-0.40826 11.32175,-20.29561 9,-35c-3.64587,-23.09052 -16.81333,-39.60003 -16,-64c0.64563,-19.3689 -2,-38.00546 -2,-57c0,-1.49071 1.1731,2.75965 2,4" fill="none" stroke="black" stroke-linecap="round" stroke-width="5"/>
	<path d="M96,136c0,-10.90796 1.94021,-23.32887 0,-34c-3.4275,-18.85126 -12,-34.94574 -12,-54" fill="none" stroke="black" stroke-linecap="round" stroke-width="5"/>
	<path d="M118,131c0,-42.51466 23.18546,-65.44361 7,-114" fill="none" stroke="black" stroke-linecap="round" stroke-width="5"/>
	<path d="M130,115c0,-9.71825 8.11952,-17.71844 11,-27c7.21098,-23.23537 7.02834,-45.17001 11,-69" fill="none" stroke="black" stroke-linecap="round" stroke-width="5"/>
</svg>
