<?xml version="1.0" ?>
<svg baseProfile="full" height="300" version="1.1" viewBox="[0, 0, 300, 300]" width="300" xmlns="http://www.w3.org/2000/svg" xmlns:ev="http://www.w3.org/2001/xml-events" xmlns:xlink="http://www.w3.org/1999/xlink">
	<defs/>
	<path d="M65,62c0,-5.4077 26.2864,-3.4288 31,-5c9.50732,-3.16911 20.6928,-10.56427 31,-14c13.1872,-4.39573 57.02383,5.01192 69,11c7.18113,3.59057 27.01413,-8.97174 31,-1c4.20725,8.4145 -7.02476,26.00619 -15,28c-10.66914,2.66728 -17.52256,-0.76128 -26,-5c-10.16063,-5.08031 -73.89654,-3.10346 -81,4c-3.52549,3.52549 -28.8365,7.1635 -33,3c-2.504,-2.504 -6.84052,-4.84052 -9,-7c-4.11915,-4.11915 3,-15.91969 3,-19" fill="none" stroke="black" stroke-linecap="round" stroke-width="5"/>
	<path d="M83,85c0,16.77459 3,17.24103 3,32c0,1 -0.83205,2.4453 0,3c12.28488,8.18992 14,29.88515 14,43" fill="none" stroke="black" stroke-linecap="round" stroke-width="5"/>
	<path d="M107,82c0,3.27465 7.28221,4.56442 9,8c1.48109,2.96219 -3.87747,6.75495 -5,9c-5.71755,11.4351 10.88152,25.23697 7,33c-0.58629,1.17259 0.59344,1.18689 1,2c0.29814,0.59628 0,1.33333 0,2c0,6.44934 -3.07321,12.56073 -2,19c0.47902,2.87413 8,15 8,15c0,0 -3,-0.87329 -3,-2" fill="none" stroke="black" stroke-linecap="round" stroke-width="5"/>
	<path d="M128,75c0,-2.66667 0,0 0,0c4.99584,9.99169 14.50655,15.45412 13,26c-0.89108,6.23758 0.51072,13.95714 -1,20c-1.35722,5.42887 -7.59003,8.06511 -9,13c-2.32542,8.13897 7,22.96231 7,31" fill="none" stroke="black" stroke-linecap="round" stroke-width="5"/>
</svg>
