<?xml version="1.0" ?>
<svg baseProfile="full" height="300" version="1.1" viewBox="[0, 0, 300, 300]" width="300" xmlns="http://www.w3.org/2000/svg" xmlns:ev="http://www.w3.org/2001/xml-events" xmlns:xlink="http://www.w3.org/1999/xlink">
	<defs/>
	<path d="M59,32c7.09633,7.09633 3.0792,46.0792 6,49c1.84089,1.84089 3.8036,-3.60229 6,-5c4.65569,-2.96271 9.118,-6.118 13,-10c5.40832,-5.40832 21.44592,-8.62653 29,-10c21.34038,-3.88007 43.17597,-6.03199 65,-10c11.47996,-2.08726 24.07841,4.46079 35,-1c1.67603,-0.83801 -2.68972,-12.914 -3,-14c-1.04524,-3.65834 -0.98012,-18.98012 -3,-21c-10.08519,-10.08519 -93.63984,7.87995 -103,11c-2.73173,0.91058 -31,2.31796 -31,10" fill="none" stroke="black" stroke-linecap="round" stroke-width="5"/>
	<path d="M75,55c0,-10.96363 76.20092,-37.42465 96,-30c4.17299,1.56487 27,-1.06472 27,-1" fill="none" stroke="black" stroke-linecap="round" stroke-width="5"/>
	<path d="M82,74c12.59226,12.59226 31.47758,65.00583 36,84c0.82171,3.4512 13,48.77607 13,35" fill="none" stroke="black" stroke-linecap="round" stroke-width="5"/>
	<path d="M127,56c9.61869,19.23738 14.90173,52.03452 16,74c0.67578,13.51568 -6.13167,24.86833 6,37c0.33333,0.33333 0.66667,1.33333 1,1c5.39533,-5.39533 6.49965,-15.9993 10,-23" fill="none" stroke="black" stroke-linecap="round" stroke-width="5"/>
	<path d="M157,48c0,25.32257 7.7167,50.34461 13,75c1.82702,8.52611 3,17.28148 3,26c0,2.33184 2,16.13116 2,11" fill="none" stroke="black" stroke-linecap="round" stroke-width="5"/>
</svg>
