<?xml version="1.0" ?>
<svg baseProfile="full" height="300" version="1.1" viewBox="[0, 0, 300, 300]" width="300" xmlns="http://www.w3.org/2000/svg" xmlns:ev="http://www.w3.org/2001/xml-events" xmlns:xlink="http://www.w3.org/1999/xlink">
	<defs/>
	<path d="M60,38c0,-2.9595 0,4.96573 0,5c0,4.50267 3,6.37679 3,11c0,10.48391 -2,22.21739 -2,32c0,0.3635 6.50017,-1.90003 7,-2c4.34004,-0.86801 8.57528,-2.26255 13,-3c12.39349,-2.06558 24.51882,-6.70376 36,-9c16.15932,-3.23186 38.83778,-10.29056 56,-6c2.44833,0.61208 22.17717,8.82283 24,7c2.511,-2.511 -0.02683,-50.02683 -2,-52c-3.78372,-3.78372 -67.92259,3.76909 -79,7c-12.95223,3.77773 -27.74182,5.51409 -41,8c-0.66778,0.12521 -22.32388,5 -18,5" fill="none" stroke="black" stroke-linecap="round" stroke-width="5"/>
	<path d="M73,212c7.11419,0 11.25323,10.30129 18,13c16.13141,6.45256 36.36217,13.18108 52,21c7.03234,3.51617 42.5169,-20.1723 51,-23c8.72898,-2.90966 22.0715,-7 31,-7c1.33333,0 4,1.33333 4,0c0,-6.40276 -22.1966,-26.99716 -27,-31c-6.93902,-5.78252 -14.57393,-23.19131 -23,-26c-0.63246,-0.21082 -1.35324,-0.16169 -2,0c-31.23648,7.80912 -61.27709,17 -94,17c-1.33333,0 -2.70648,-0.32338 -4,0c-0.95773,0.23943 -7.12366,7.12366 -9,9c-1.10507,1.10507 -11.26432,9.47136 -10,12c3.32092,6.64185 11.51605,7.51605 16,12c2.48496,2.48496 2.69972,5.34986 6,7" fill="none" stroke="black" stroke-linecap="round" stroke-width="5"/>
	<path d="M59,200c3.08158,0 11,22.5569 11,25" fill="none" stroke="black" stroke-linecap="round" stroke-width="5"/>
</svg>
