<?xml version="1.0" ?>
<svg baseProfile="full" height="300" version="1.1" viewBox="[0, 0, 300, 300]" width="300" xmlns="http://www.w3.org/2000/svg" xmlns:ev="http://www.w3.org/2001/xml-events" xmlns:xlink="http://www.w3.org/1999/xlink">
	<defs/>
	<path d="M76,222c15.57826,0 63.71665,13.71665 75,25c0.47197,0.47197 5.81525,3.78983 7,3c4.75053,-3.16702 13.11197,-14.3359 15,-20c2.67442,-8.02327 0.61991,-15.71946 2,-24c4.44044,-26.64261 -6.16161,-35.08081 -28,-46c-6.27198,-3.13599 -16.56179,-1.56179 -22,-7c-3.82148,-3.82148 -8.81744,-10.34026 -13,-14c-2.91436,-2.55006 -12.07826,-8.39131 -13,-13c-2.15528,-10.77639 9.06764,-22.33818 11,-32c7.76167,-38.80836 16.24574,-77.58475 69,-60c16.91691,5.63897 9.75907,61.2772 14,74c14.03233,42.09698 79.38139,25.47445 63,91c-1.97392,7.89568 1.55536,19.88927 -2,27c-1.13529,2.27058 -4.57367,2.25344 -7,3c-19.672,6.05292 -23.16622,-3.58311 -38,-11c-33.29473,-16.64736 -73.80701,-48.16083 -110,-18c-3.80837,3.17364 -18.93224,10.72896 -20,15c-1.95408,7.81633 3,12.42687 3,18" fill="none" stroke="black" stroke-linecap="round" stroke-width="5"/>
	<path d="M176,190c1.94837,-1.94837 3.68279,-0.7724 6,0c18.57878,6.19293 34.39349,-7.06377 50,-14c4.77295,-2.12131 10.51953,-1.75977 15,-4c1.90904,-0.95452 7.11292,-4.30185 5,-4c-4.01442,0.57349 -7.94482,2 -12,2" fill="none" stroke="black" stroke-linecap="round" stroke-width="5"/>
</svg>
