<?xml version="1.0" ?>
<svg baseProfile="full" height="300" version="1.1" viewBox="[0, 0, 300, 300]" width="300" xmlns="http://www.w3.org/2000/svg" xmlns:ev="http://www.w3.org/2001/xml-events" xmlns:xlink="http://www.w3.org/1999/xlink">
	<defs/>
	<path d="M86,155c0,7.01931 6.76372,12.06681 10,18c17.81737,32.66518 28.01868,14.85581 68,12c2.82892,-0.20207 35.45986,3.08029 38,-2c4.60871,-9.21742 -26.83527,-38.86822 -32,-43c-5.9874,-4.78992 -10.22727,-16.22727 -15,-21c-0.66668,-0.66668 -7.57547,-0.06065 -8,0c-31.81712,4.5453 -59.32926,10 -92,10c-1.33333,0 3.16707,-1.04116 4,0c3.5561,4.44512 4.1613,5.1613 8,9c6.27955,6.27955 12.13702,15.13702 17,20" fill="none" stroke="black" stroke-linecap="round" stroke-width="5"/>
	<path d="M56,132c0,28.68729 5.76146,59.43122 1,88c-0.3288,1.97279 -1.41421,4.58579 0,6c1.4205,1.4205 8.99787,-0.49893 10,-1c15.71622,-7.85811 13,-23.33384 13,-44c0,-8.89523 -4,-25.99788 -4,-28" fill="none" stroke="black" stroke-linecap="round" stroke-width="5"/>
	<path d="M74,189c8.76917,0 15.90394,6.26929 23,11" fill="none" stroke="black" stroke-linecap="round" stroke-width="5"/>
	<path d="M76,203c0,3.59787 12.38452,10 16,10" fill="none" stroke="black" stroke-linecap="round" stroke-width="5"/>
	<path d="M99,176c0,1 0,2 0,3c0,14.27077 1.37938,29.72374 -1,44c-0.05517,0.33103 -0.21034,2.78966 0,3c1.22184,1.22184 16.64908,-0.29816 17,-1c2.4587,-4.9174 2,-29.98408 2,-36" fill="none" stroke="black" stroke-linecap="round" stroke-width="5"/>
	<path d="M155,179c0,8.94683 2,18.33608 2,28c0,3.34996 -3.99629,8.50185 -1,10c3.09064,1.54532 11.00496,-0.00496 13,-2c4.52271,-4.52271 3,-22.11383 3,-29" fill="none" stroke="black" stroke-linecap="round" stroke-width="5"/>
	<path d="M199,185c0,13.94027 19.85601,65.196 -10,54c-2.41985,-0.90744 -11.3173,-3.3173 -13,-5c-0.94281,-0.94281 0,-2.66667 0,-4c0,-14.42889 9,-30.12328 9,-45" fill="none" stroke="black" stroke-linecap="round" stroke-width="5"/>
</svg>
