<?xml version="1.0" ?>
<svg baseProfile="full" height="300" version="1.1" viewBox="[0, 0, 300, 300]" width="300" xmlns="http://www.w3.org/2000/svg" xmlns:ev="http://www.w3.org/2001/xml-events" xmlns:xlink="http://www.w3.org/1999/xlink">
	<defs/>
	<path d="M107,145c0,0.33333 0.27735,0.8151 0,1c-9.46388,6.30926 -20.04183,9.04183 -27,16c-11.95107,11.95107 26.53622,18.76811 29,20c0.29814,0.14907 0.68377,-0.10541 1,0c0.70711,0.2357 1.33333,0.66667 2,1c0.66667,0.33333 1.47295,0.47295 2,1c14.17029,14.17029 -15.4197,47.38687 2,59c18.46299,12.30866 126.64632,-24.06105 116,-56c-5.18797,-15.56391 -32.96436,-20 -46,-20c-0.05772,0 -4.90336,0.21262 -5,0c-5.66698,-12.46736 0.36187,-30.27627 -5,-41c-0.41564,-0.83129 -2.33565,-1.88927 -3,-2c-14.17829,-2.36305 -21.75646,5.91882 -34,10c-11.3098,3.76993 -26.85495,-4.17939 -38,0c-2.67644,1.00367 -3.11016,3.22031 -4,5c-0.4714,0.94281 -1,1.94591 -1,3" fill="none" stroke="black" stroke-linecap="round" stroke-width="5"/>
	<path d="M81,170c0,-16.74163 -1.83982,-34.44166 0,-51c1.25954,-11.33587 6,-22.72864 6,-34" fill="none" stroke="black" stroke-linecap="round" stroke-width="5"/>
	<path d="M93,146c1.79505,0 5,3.79505 5,2c0,-30.02754 -0.8589,-44.4233 8,-71" fill="none" stroke="black" stroke-linecap="round" stroke-width="5"/>
	<path d="M117,139c0,-17.24035 7,-33.62792 7,-50" fill="none" stroke="black" stroke-linecap="round" stroke-width="5"/>
	<path d="M135,141c-6.48067,-25.92266 6,-48.0623 6,-73" fill="none" stroke="black" stroke-linecap="round" stroke-width="5"/>
</svg>
