<?xml version="1.0" ?>
<svg baseProfile="full" height="300" version="1.1" viewBox="[0, 0, 300, 300]" width="300" xmlns="http://www.w3.org/2000/svg" xmlns:ev="http://www.w3.org/2001/xml-events" xmlns:xlink="http://www.w3.org/1999/xlink">
	<defs/>
	<path d="M41,133c70.78431,0 89.01063,-11.06376 76,67c-1.44258,8.65551 -0.51877,31.51877 -7,38c-0.7451,0.7451 -0.97059,-1 -2,-1c-17.67201,0 -49.63529,-22.27058 -58,-39c-0.27311,-0.54622 -6.16981,-4.83019 -5,-6c6.96961,-6.96961 85.06079,-15.6768 99,-18c4.93184,-0.82197 29.19271,-8.80729 33,-5c2.00119,2.00119 9.5183,49.5549 12,57c0.2908,0.8724 1,8 1,8c0,0 -2,-24.85317 -2,-28c0,-6.49606 1.93991,-88.06009 -1,-91c-12.42468,-12.42468 -33.56312,-12.56312 -48,-27" fill="none" stroke="black" stroke-linecap="round" stroke-width="5"/>
	<path d="M68,71c0,8 0,16 0,24c0,5.66667 0,11.33333 0,17c0,4.15162 2,20.51514 2,18c0,-10.42172 -10.05014,-64.94986 -2,-73c2.87911,-2.87911 54.44247,-4.16027 62,-5c4.3509,-0.48343 42.65313,-2.34687 44,-1c0.6476,0.6476 -1,2.11111 -1,3c0,10.95029 -4,22.34035 -4,34c0,10.78936 0.29008,23.58017 5,33c0.16216,0.32432 0,5 0,5c0,0 -21.10866,-4 -25,-4c-27.84141,0 -53.36888,3 -80,3" fill="none" stroke="black" stroke-linecap="round" stroke-width="5"/>
</svg>
