<?xml version="1.0" ?>
<svg baseProfile="full" height="300" version="1.1" viewBox="[0, 0, 300, 300]" width="300" xmlns="http://www.w3.org/2000/svg" xmlns:ev="http://www.w3.org/2001/xml-events" xmlns:xlink="http://www.w3.org/1999/xlink">
	<defs/>
	<path d="M59,78c0,21.66667 0,43.33333 0,65c0,10.31493 4,20.64657 4,30c0,0.33333 0,1.33333 0,1c0,-19.05904 -21.19481,-105.87013 -3,-118c2.82646,-1.88431 41.28459,4 46,4c16.73423,0 33.35233,0.18912 50,-1c2.02406,-0.14458 20.54177,-4.3747 21,-3c3.97927,11.93781 8.00251,25.34925 10,38c2.42229,15.34117 13.75082,40.99674 10,56c-6.28963,25.15851 -88.41029,22.75573 -111,18c-11.91377,-2.50816 -19.95662,-10 -32,-10" fill="none" stroke="black" stroke-linecap="round" stroke-width="5"/>
	<path d="M26,101c46.52397,0 59.42317,102.64586 49,136c-2.96832,9.49862 -23.01622,43 -34,43" fill="none" stroke="black" stroke-linecap="round" stroke-width="5"/>
	<path d="M180,103c12.5657,0 20.28733,10.18552 28,19c29.30423,33.49055 35.32116,53.82242 23,99c-1.37506,5.04189 -13.26141,43 -19,43" fill="none" stroke="black" stroke-linecap="round" stroke-width="5"/>
</svg>
