<?xml version="1.0" ?>
<svg baseProfile="full" height="300" version="1.1" viewBox="[0, 0, 300, 300]" width="300" xmlns="http://www.w3.org/2000/svg" xmlns:ev="http://www.w3.org/2001/xml-events" xmlns:xlink="http://www.w3.org/1999/xlink">
	<defs/>
	<path d="M36,127c7.17955,0 16.45824,8.19639 23,11c6.90016,2.95721 22.09789,6.09789 27,11c1.15413,1.15413 -2,56.40977 -2,64c0,10.33333 0,20.66667 0,31c0,4.66667 0,9.33333 0,14c0,1.33333 1.33333,4 0,4c-28.41629,0 -34.64239,-18.56955 -41,-44c-0.70158,-2.80633 -10.18195,-19.81805 -8,-22c3.01244,-3.01244 22.78483,-2.95697 28,-4c7.93249,-1.5865 89.02084,-12.48958 92,-11c12.23186,6.11593 11,38.49533 11,49c0,4.82081 1,9.69662 1,15c0,2 0,8 0,6c0,-27.97391 -7.89502,-52.63524 -10,-80c-0.42398,-5.51169 3.76914,-30.23086 0,-34c-7.94858,-7.94858 -44,-37.26892 -44,-47" fill="none" stroke="black" stroke-linecap="round" stroke-width="5"/>
</svg>
