<?xml version="1.0" ?>
<svg baseProfile="full" height="300" version="1.1" viewBox="[0, 0, 300, 300]" width="300" xmlns="http://www.w3.org/2000/svg" xmlns:ev="http://www.w3.org/2001/xml-events" xmlns:xlink="http://www.w3.org/1999/xlink">
	<defs/>
	<path d="M60,105c38.33553,0 42.54496,77.56607 49,105c0.84894,3.60799 13.1322,34.8678 7,41c-3.07318,3.07318 -7.32539,-4.67919 -11,-7c-16.52236,-10.43517 -34.08242,-19.08242 -48,-33c-0.35043,-0.35043 -5.26855,-5.73145 -4,-7c27.02969,-27.02969 49.82335,-31.94953 85,-42c8.96023,-2.56007 23.8853,-8 33,-8c0.66667,0 1.5286,-0.4714 2,0c12.13581,12.13581 23,70.9589 23,90c0,2.66667 0.17738,-5.33924 0,-8c-0.37954,-5.69311 -1.6835,-11.30304 -2,-17c-0.9575,-17.23506 0.132,-33.77399 -3,-51c-1.05083,-5.77956 -14.69847,-70.69847 -19,-75c-1.61003,-1.61003 -11.34083,-4.10059 -14,-6c-12.87185,-9.19418 -29.35823,-22.35823 -39,-32" fill="none" stroke="black" stroke-linecap="round" stroke-width="5"/>
	<path d="M75,36c0,11.66667 0,23.33333 0,35c0,9 0,18 0,27c0,6.30897 4.70484,35.22905 4,31c-6.32614,-37.95681 -14,-76.29114 -14,-115c0,-0.66667 -0.29814,-1.40372 0,-2c0.08257,-0.16514 2.73394,0 3,0c11.17122,0 22.64338,1 34,1c5.39081,0 70.76398,-0.47204 73,4c3.89648,7.79295 0.63371,27.57523 1,36c0.69161,15.90709 3.7554,32.28777 6,48c0.14907,1.0435 1.74536,2.25464 1,3c-2.93333,2.93333 -24.11351,0 -28,0c-16.85717,0 -34.17905,1.1214 -51,0c-2.18587,-0.14572 -14.72943,-3.27057 -17,-1c-2.4268,2.4268 -14.45922,8 -18,8" fill="none" stroke="black" stroke-linecap="round" stroke-width="5"/>
</svg>
