<?xml version="1.0" ?>
<svg baseProfile="full" height="300" version="1.1" viewBox="[0, 0, 300, 300]" width="300" xmlns="http://www.w3.org/2000/svg" xmlns:ev="http://www.w3.org/2001/xml-events" xmlns:xlink="http://www.w3.org/1999/xlink">
	<defs/>
	<path d="M77,122c0,0.79155 27.88854,22.99955 31,27c17.34788,22.30441 9.28874,67.88744 12,95c0.126,1.26 1.93211,9.06789 1,10c-0.78634,0.78634 -3.424,-4.424 -4,-5c-7.34065,-7.34065 -41,-45.29846 -41,-51c0,-3.43188 6.22452,-2.98147 9,-5c13.07621,-9.50997 90.71331,-40.28669 103,-28c6.36972,6.36972 17.18717,54.12302 19,65c0.22209,1.33254 2,8 2,8c0,0 -4.79886,-22.79319 -5,-24c-4.83304,-28.99826 -9.98232,-57.4872 -11,-87c-0.38437,-11.14678 -1.20828,-21.91598 -2,-33c-0.35624,-4.98729 5,-15 0,-15c-15.29738,0 -30.63245,1.36755 -43,-11" fill="none" stroke="black" stroke-linecap="round" stroke-width="5"/>
	<path d="M93,58c0,15.37536 -1.79134,31.77361 0,47c0.13917,1.18298 6,30 6,30c0,0 0.671,-3 -1,-3" fill="none" stroke="black" stroke-linecap="round" stroke-width="5"/>
</svg>
