<?xml version="1.0" ?>
<svg baseProfile="full" height="300" version="1.1" viewBox="[0, 0, 300, 300]" width="300" xmlns="http://www.w3.org/2000/svg" xmlns:ev="http://www.w3.org/2001/xml-events" xmlns:xlink="http://www.w3.org/1999/xlink">
	<defs/>
	<path d="M56,137c41.12581,0 49.75245,45.90077 53,80c0.44305,4.652 4.80647,39 -5,39" fill="none" stroke="black" stroke-linecap="round" stroke-width="5"/>
	<path d="M91,95c0,8.33333 0,16.66667 0,25c0,6 0,12 0,18c0,6.75018 -1.10706,14.67883 1,21c0.8584,2.57519 -2.677,-15.47794 -3,-20c-1.21132,-16.95852 -4.18553,-34.2579 0,-51c11.89392,-47.5757 92.32576,-61.34849 116,-14c8.71017,17.42034 7,41.20221 7,60c0,2.66667 2.52982,7.15673 0,8c-14.6103,4.8701 -36.54493,-0.90912 -52,0c-26.63778,1.56693 -52.77283,3 -79,3" fill="none" stroke="black" stroke-linecap="round" stroke-width="5"/>
	<path d="M196,131c26.12455,0 25.9566,49.3906 24,67c-1.53281,13.79533 -13,31.97172 -13,44" fill="none" stroke="black" stroke-linecap="round" stroke-width="5"/>
</svg>
