<?xml version="1.0" ?>
<svg baseProfile="full" height="300" version="1.1" viewBox="[0, 0, 300, 300]" width="300" xmlns="http://www.w3.org/2000/svg" xmlns:ev="http://www.w3.org/2001/xml-events" xmlns:xlink="http://www.w3.org/1999/xlink">
	<defs/>
	<path d="M31,136c15.8621,0 53.79606,-5.40788 63,13c3.20378,6.40756 -4.3835,130.767 -12,146c-0.61693,1.23387 -5.70695,1 -7,1c-10.49502,0 -11,-19.47268 -11,-28c0,-11.55332 -3.39948,-22.73107 -6,-34c-2.83538,-12.28666 -10,-28.87504 -10,-41c0,-2.02759 4.05043,-0.44298 6,-1c15.10233,-4.31495 30.11691,-7 46,-7c8.23719,0 62.42886,-3.57114 66,0c3.27801,3.27801 6.77787,15.51885 8,20c3.97818,14.58665 8.13325,29.06597 10,44c0.6186,4.94877 2.1846,10.10762 3,15c0.45189,2.71134 3.64924,10.19899 2,8c-22.5265,-30.03533 -17,-75.83702 -17,-111c0,-3.63819 -0.03475,-44.03475 -1,-45c-1.07472,-1.07472 -10.8804,-1.0916 -13,-2c-11.99187,-5.13937 -36,-21.63296 -36,-37" fill="none" stroke="black" stroke-linecap="round" stroke-width="5"/>
</svg>
