<?xml version="1.0" ?>
<svg baseProfile="full" height="300" version="1.1" viewBox="[0, 0, 300, 300]" width="300" xmlns="http://www.w3.org/2000/svg" xmlns:ev="http://www.w3.org/2001/xml-events" xmlns:xlink="http://www.w3.org/1999/xlink">
	<defs/>
	<path d="M67,100c0,25.28264 6.78861,46.96203 14,71c1.03161,3.4387 4,10 4,10c0,0 -10.9968,-21.99177 -11,-22c-8.42165,-21.65567 -16.37744,-43.50976 -22,-66c-11.80559,-47.22234 81.39248,-55.22965 111,-51c17.97787,2.56827 19.72381,29.89523 23,43c7.28951,29.15802 15.84979,58.69958 29,85c1.50616,3.01232 1.74148,16.97727 4,23c4.24411,11.31763 18,31.6848 18,41" fill="none" stroke="black" stroke-linecap="round" stroke-width="5"/>
	<path d="M85,171c0,27.73454 26,54.98828 26,79" fill="none" stroke="black" stroke-linecap="round" stroke-width="5"/>
</svg>
