<?xml version="1.0" ?>
<svg baseProfile="full" height="300" version="1.1" viewBox="[0, 0, 300, 300]" width="300" xmlns="http://www.w3.org/2000/svg" xmlns:ev="http://www.w3.org/2001/xml-events" xmlns:xlink="http://www.w3.org/1999/xlink">
	<defs/>
	<path d="M68,129c0,-15.58382 -1.85032,-31.86942 6,-46c12.49671,-22.49408 57.83803,-50.9497 84,-36c21.36981,12.21132 34.34277,30.68555 45,52c3.78104,7.56207 10,18.34709 10,26c0,0.6417 -20.77906,-2.87791 -22,-3c-12.30608,-1.23061 -24.67005,-2.8791 -37,-4c-17.06539,-1.5514 -40.93322,-5.41336 -58,-2c-12.36851,2.4737 -22.37523,9 -35,9" fill="none" stroke="black" stroke-linecap="round" stroke-width="5"/>
	<path d="M72,184c5.08754,0 22.77261,18.54522 26,25c0.14907,0.29814 0.33333,1 0,1" fill="none" stroke="black" stroke-linecap="round" stroke-width="5"/>
	<path d="M73,177c36.63615,0 73.05033,-0.50629 109,-5c4.70647,-0.58831 26.40216,-8.59784 31,-4c1.30526,1.30526 0.61751,10.70504 1,13c0.34121,2.04727 4.53961,19.2302 3,20c-7.26723,3.63361 -18.93034,3.98258 -27,6c-22.48874,5.62218 -57.04989,10.79002 -81,6c-7.05078,-1.41016 -13.37214,-9 -20,-9" fill="none" stroke="black" stroke-linecap="round" stroke-width="5"/>
	<path d="M44,114c29.00776,0 50.98567,73.88537 54,98c0.68829,5.50635 4.14997,38 -3,38" fill="none" stroke="black" stroke-linecap="round" stroke-width="5"/>
</svg>
