<?xml version="1.0" ?>
<svg baseProfile="full" height="300" version="1.1" viewBox="[0, 0, 300, 300]" width="300" xmlns="http://www.w3.org/2000/svg" xmlns:ev="http://www.w3.org/2001/xml-events" xmlns:xlink="http://www.w3.org/1999/xlink">
	<defs/>
	<path d="M70,40c41,0 82,0 123,0c5.42341,0 39.01652,-5.04957 35,7c-1.42238,4.26713 -0.49035,20.74518 -5,23c-14.53778,7.26889 -26.35868,-1.27174 -40,-4c-24.3402,-4.86804 -88.65796,5.67102 -110,-5c-2.06445,-1.03223 2,-18.73768 2,-21" fill="none" stroke="black" stroke-linecap="round" stroke-width="5"/>
	<path d="M75,64c0,26.041 -3,52.46777 -3,79c0,4.07475 -1.2737,48.5474 4,38" fill="none" stroke="black" stroke-linecap="round" stroke-width="5"/>
	<path d="M115,67c0,1.66667 0,3.33333 0,5c0,4.66667 0.69226,9.38496 0,14c-4.68176,31.21175 -3,59.29708 -3,90c0,4.64451 0.55037,11.44963 6,6" fill="none" stroke="black" stroke-linecap="round" stroke-width="5"/>
	<path d="M171,61c0,25.54542 0.37556,50.62895 4,76c1.19414,8.359 5,17.78413 5,26c0,4 0,8 0,12c0,0.33333 0,1.33333 0,1c0,-1.37437 0.38536,-2.77073 1,-4" fill="none" stroke="black" stroke-linecap="round" stroke-width="5"/>
	<path d="M215,71c0,41.53383 3,82.15091 3,123" fill="none" stroke="black" stroke-linecap="round" stroke-width="5"/>
	<path d="M218,193c0,-5.86318 -30.83823,-9 -36,-9c-14.25826,0 -102.57826,-4.42174 -111,4c-1.83086,1.83086 3.2963,22.48149 4,26c0.45077,2.25385 0.73545,16.15697 2,17c11.489,7.65933 32.77994,2.06221 46,5c18.61696,4.1371 69.83977,5.16023 86,-11c0.91254,-0.91254 2,-32.25272 2,-35" fill="none" stroke="black" stroke-linecap="round" stroke-width="5"/>
	<path d="M87,242c0,11.07435 1.27534,16.55068 -4,6" fill="none" stroke="black" stroke-linecap="round" stroke-width="5"/>
	<path d="M77,233c0,1.94416 -0.19085,1.97713 -1,4c-7.35207,18.38017 -12.67143,43.0714 -14,63c-0.28825,4.32374 0,13 0,13c0,0 3.95259,-10.82615 4,-11c5.19274,-19.04004 9.14518,-38.72592 13,-58c0.53731,-2.68657 4.54476,-26.27238 4,-26c-3.71165,1.85582 -26.28358,94.56717 -9,60" fill="none" stroke="black" stroke-linecap="round" stroke-width="5"/>
	<path d="M95,240c-2.00319,2.00319 -0.48669,2.02662 0,3c7.48579,14.97157 -4,58.82434 -4,78c0,0.66667 -0.4714,1.5286 0,2c2,2 4.98465,-3.3601 6,-6c5.98673,-15.5655 0.41771,-35.64552 3,-52c1.4969,-9.48036 2.43326,-10.93216 3,-20c0.18713,-2.99416 2.12132,-11.12132 0,-9c-8.98522,8.98522 -8.89134,48 -5,48" fill="none" stroke="black" stroke-linecap="round" stroke-width="5"/>
</svg>
