<?xml version="1.0" ?>
<svg baseProfile="full" height="300" version="1.1" viewBox="[0, 0, 300, 300]" width="300" xmlns="http://www.w3.org/2000/svg" xmlns:ev="http://www.w3.org/2001/xml-events" xmlns:xlink="http://www.w3.org/1999/xlink">
	<defs/>
	<path d="M41,31c6.65695,0 18.67552,-4.16755 27,-5c46.6975,-4.66975 96.12873,-8.85891 143,-3c15.26583,1.90823 29.51621,3 45,3c0.61024,0 3.61036,-0.38964 4,0c1.24026,1.24026 2.16862,18.41569 1,19c-4.81153,2.40576 -17.66961,-0.66689 -22,-1c-26.88377,-2.06798 -54.78801,7.67982 -83,4c-8.38155,-1.09325 -22.19783,-7.93406 -31,-5c-5.62982,1.87661 -10.31201,5 -17,5c-15.3122,0 -42.76065,2.74645 -57,-2c-5.25759,-1.75253 -10.72364,-16 -4,-16" fill="none" stroke="black" stroke-linecap="round" stroke-width="5"/>
	<path d="M48,50c0.69798,0 4.94207,-2.1738 5,-2c2.22031,6.66093 0.79251,58.90482 0,70c-0.47516,6.65226 -2,13.36774 -2,20c0,3.58187 -0.07447,5.77658 1,9c0.31623,0.94868 -0.44721,3.89443 0,3c14.61271,-29.22541 -6.29562,-67.40876 8,-96c0.80079,-1.60159 -1.20831,-3 1,-3" fill="none" stroke="black" stroke-linecap="round" stroke-width="5"/>
</svg>
