<?xml version="1.0" ?>
<svg baseProfile="full" height="300" version="1.1" viewBox="[0, 0, 300, 300]" width="300" xmlns="http://www.w3.org/2000/svg" xmlns:ev="http://www.w3.org/2001/xml-events" xmlns:xlink="http://www.w3.org/1999/xlink">
	<defs/>
	<path d="M242,32c1.88889,0 0.88889,0 -1,0c-11.37162,0 -22.12539,0.10703 -33,-3c-20.10723,-5.74492 -45.03737,-6.68984 -66,-8c-33.39757,-2.08735 -59.70618,4.6177 -92,10c-1.35567,0.22594 -4.61464,-2.22927 -4,-1c10.63198,21.26396 -1,54.52678 -1,78c0,0.77166 -0.57842,7.71079 0,8c9.27449,4.63724 34.84791,1.43599 45,2c23.5791,1.30995 53.77519,5.64496 77,1c11.06893,-2.21379 22.27769,-7.95372 34,-6c10.69467,1.78245 33.86198,7.13802 43,-2c0.4714,-0.4714 0,-1.33333 0,-2c0,-27.34946 1,-58.997 1,-83" fill="none" stroke="black" stroke-linecap="round" stroke-width="5"/>
	<path d="M50,123c-2.37066,2.37066 -4,73.72065 -4,88c0,3.42029 4,25 4,25c0,0 5.69533,-17.98444 6,-19c7.33343,-24.44478 11.20554,-50.17783 5,-75c-1.71208,-6.84833 -0.84516,-14.07096 -2,-21c-0.67361,-4.04164 -2,-7.91798 -2,-12c0,-0.33333 0.14907,-1.29814 0,-1c-5.88324,11.76647 -21.9683,133.9683 -2,114" fill="none" stroke="black" stroke-linecap="round" stroke-width="5"/>
</svg>
