<?xml version="1.0" ?>
<svg baseProfile="full" height="300" version="1.1" viewBox="[0, 0, 300, 300]" width="300" xmlns="http://www.w3.org/2000/svg" xmlns:ev="http://www.w3.org/2001/xml-events" xmlns:xlink="http://www.w3.org/1999/xlink">
	<defs/>
	<path d="M73,24c31.38212,-15.69106 94.18332,-9 130,-9c10.2775,0 18.611,2 29,2c3.01846,0 7.6501,-3.69979 9,-1c10.33486,20.66972 -19.60155,19 -32,19c-12.08241,0 -32.82464,1.27488 -44,5c-4.26168,1.42056 -53.38574,-2 -63,-2c-4.89292,0 -23.19174,3.80826 -27,0c-3.43674,-3.43674 6,-15.93931 6,-13" fill="none" stroke="black" stroke-linecap="round" stroke-width="5"/>
	<path d="M86,40c-16.70486,33.40971 -14,47.19779 -14,80c0,8.6823 -0.34112,16.7056 -2,25c-0.24084,1.20419 -2.00819,13.00614 -2,13c1.92741,-1.44556 6.87641,-7.12734 8,-9c15.36217,-25.60361 3,-53.4826 3,-81c0,-7.48631 -1.55728,-19.21358 0,-27c0.53907,-2.69536 2,-8 2,-8c0,0 -3,20.94953 -3,23c0,26.62673 -8,58.52652 -8,83c0,0.94281 1.05719,2 2,2" fill="none" stroke="black" stroke-linecap="round" stroke-width="5"/>
</svg>
