<?xml version="1.0" ?>
<svg baseProfile="full" height="300" version="1.1" viewBox="[0, 0, 300, 300]" width="300" xmlns="http://www.w3.org/2000/svg" xmlns:ev="http://www.w3.org/2001/xml-events" xmlns:xlink="http://www.w3.org/1999/xlink">
	<defs/>
	<path d="M40,26c4.94422,-4.94422 20.0524,-5.4736 27,-8c48.95035,-17.80013 91.85699,1.21425 139,13c13.65744,3.41436 37.15813,-0.92094 49,5c1.68817,0.84408 1,3.65679 1,5c0,7.28949 -12.5229,62.76145 -17,65c-13.98293,6.99147 -68.21325,2.56484 -84,4c-29.23937,2.65812 -51.14967,-1.3071 -77,-5c-2.85352,-0.40765 -4.33354,-3.66677 -5,-4c-2.91371,-1.45686 -9.94315,2.05685 -11,1c-10.40385,-10.40385 3.94823,-35.15531 0,-47c-1.33305,-3.99916 -3.40853,-28 -8,-28" fill="none" stroke="black" stroke-linecap="round" stroke-width="5"/>
	<path d="M72,103c0,22.15657 -2.97409,46.42999 -4,69c-0.38025,8.36542 -1,16.59758 -1,25c0,1.81628 1,11.39742 1,6" fill="none" stroke="black" stroke-linecap="round" stroke-width="5"/>
	<path d="M234,104c0,28.82555 0.95759,56.40359 -5,85c-2.20922,10.60426 -5,22.19931 -5,33c0,1.33333 0,1.33333 0,0" fill="none" stroke="black" stroke-linecap="round" stroke-width="5"/>
</svg>
