<?xml version="1.0" ?>
<svg baseProfile="full" height="300" version="1.1" viewBox="[0, 0, 300, 300]" width="300" xmlns="http://www.w3.org/2000/svg" xmlns:ev="http://www.w3.org/2001/xml-events" xmlns:xlink="http://www.w3.org/1999/xlink">
	<defs/>
	<path d="M59,19c15.80503,0 30.55405,-4.02962 46,-7c12.0384,-2.31508 23.72566,-4.44208 36,-5c13.29491,-0.60431 135.39158,-6.6537 128,34c-15.19588,83.57734 -133.91425,44.01225 -190,36c-12.19061,-1.74152 -60.14305,-1.71458 -67,-12c-24.05261,-36.07891 49.72962,-32.72962 60,-43c1.75716,-1.75716 8.76469,-2.23531 10,-1" fill="none" stroke="black" stroke-linecap="round" stroke-width="5"/>
	<path d="M123,26c13.60273,0 60.94475,-6.88951 50,15c-0.74536,1.49071 -2.3831,2.59577 -4,3c-12.71123,3.17781 -24.47674,-4.21096 -37,-6c-5.84882,-0.83555 -14.1794,3.27353 -18,2c-3.5773,-1.19243 -5.10709,-2.55354 -8,-4c-0.29814,-0.14907 -0.7643,0.2357 -1,0c-1.54805,-1.54805 1.05362,-4.05362 2,-5c6.53411,-6.53411 15.9017,-3.03277 22,-1c1.21443,0.40481 5,2.05138 5,0" fill="none" stroke="black" stroke-linecap="round" stroke-width="5"/>
</svg>
