<?xml version="1.0" ?>
<svg baseProfile="full" height="300" version="1.1" viewBox="[0, 0, 300, 300]" width="300" xmlns="http://www.w3.org/2000/svg" xmlns:ev="http://www.w3.org/2001/xml-events" xmlns:xlink="http://www.w3.org/1999/xlink">
	<defs/>
	<path d="M62,24c9.46253,0 17.97605,2.49601 27,4c16.9061,2.81768 36.42139,-0.92767 53,-3c24.30481,-3.0381 48.51292,4.85522 72,9c16.87608,2.97813 31.04761,5 48,5c1.33333,0 3.05719,-0.94281 4,0c1.04875,1.04875 -5.23056,22.07776 -4,27c1.23179,4.92714 10.82459,43.17541 6,48c-4.90889,4.90889 -27.83962,2.04717 -35,4c-24.78625,6.75989 -117.18225,11.5271 -141,2c-8.41368,-3.36547 -25.11147,-5.44426 -34,-1c-0.32432,0.16216 -4.91892,0.16216 -5,0c-2.62492,-5.24984 14.36853,-61.73707 18,-69c2.79915,-5.59829 1,-28.42855 1,-28" fill="none" stroke="black" stroke-linecap="round" stroke-width="5"/>
	<path d="M70,109c-15.43492,46.30476 -4.5547,69.67183 3,115c0.08633,0.51799 1.32703,27.32703 2,28c2.4608,2.4608 2.26072,-6.59933 3,-10c3.61102,-16.61068 4.47203,-20.64669 4,-40c-0.97922,-40.14782 -15.65132,-59.26314 0,-101c1.22195,-3.25852 -1.8995,6.69849 -3,10c-2.33333,7 -5.05855,13.88135 -7,21c-3.86632,14.17649 -15.26555,74.46889 -8,89c1.90904,3.81809 5.94281,-6.25965 8,-10c2.08831,-3.79694 3.7433,-7.85289 5,-12c6.86113,-22.64173 9.53539,-45.44293 9,-69c-0.22922,-10.08589 -0.55233,-20.5189 -4,-30c-0.25472,-0.70048 -0.72318,-2.69205 -1,-2c-8.0663,20.16575 -5,50.2192 -5,72c0,3.72683 -1.479,30.521 -2,30" fill="none" stroke="black" stroke-linecap="round" stroke-width="5"/>
</svg>
