<?xml version="1.0" ?>
<svg baseProfile="full" height="300" version="1.1" viewBox="[0, 0, 300, 300]" width="300" xmlns="http://www.w3.org/2000/svg" xmlns:ev="http://www.w3.org/2001/xml-events" xmlns:xlink="http://www.w3.org/1999/xlink">
	<defs/>
	<path d="M72,22c30.53829,0 61.44844,2.85161 92,1c24.84555,-1.50579 39.47147,-10.05383 60,1c13.92744,7.49939 47.40045,9.73229 37,34c-7.09275,16.54974 -24.95895,12.9912 -39,16c-20.34053,4.35869 -101.18938,15.92898 -125,7c-16.96942,-6.36353 -33.45794,-10.67476 -49,-20c-0.72799,-0.43679 -4.32832,-3.01505 -4,-4c2.53137,-7.59411 18.85348,-35.38217 26,-33c11.38441,3.7948 22.74921,16.25079 32,7" fill="none" stroke="black" stroke-linecap="round" stroke-width="5"/>
	<path d="M134,35c7.63586,0 15.06914,2.43351 23,3c6.59317,0.47094 13.38643,1 20,1c2.44386,0 8.12483,-0.75035 9,1c5.88293,11.76586 -31.76064,10.80984 -39,9c-6.1914,-1.54785 -34.21508,-13 -14,-13" fill="none" stroke="black" stroke-linecap="round" stroke-width="5"/>
</svg>
