<?xml version="1.0" ?>
<svg baseProfile="full" height="300" version="1.1" viewBox="[0, 0, 300, 300]" width="300" xmlns="http://www.w3.org/2000/svg" xmlns:ev="http://www.w3.org/2001/xml-events" xmlns:xlink="http://www.w3.org/1999/xlink">
	<defs/>
	<path d="M43,70c8.93989,0 -0.54399,-14.228 5,-17c5.80241,-2.9012 15.40006,4.79997 19,3c6.18249,-3.09125 5.68303,-11.45535 11,-15c16.50608,-11.00405 71.1128,-9.14787 90,-6c9.21392,1.53565 18.65614,2 28,2c0.42553,0 4.84043,-0.31915 5,0c1.39014,2.78028 -1.87999,13.24001 0,17c1.37311,2.74622 8.41175,2.9647 11,4c14.84478,5.93791 30.58441,10.99026 45,20c1.67692,1.04808 6.40562,4.18877 5,7c-4.3481,8.69619 -32.38631,9 -41,9c-12.03634,0 -23.73275,-5.70871 -36,-7c-27.45478,-2.88998 -59.35169,1.26772 -86,-6c-10.37517,-2.82959 -36.91065,-8.04468 -45,-4c-1.41273,0.70636 -4,-0.04962 -4,2" fill="none" stroke="black" stroke-linecap="round" stroke-width="5"/>
	<path d="M49,77c0,30.70093 -11.3838,63.2324 3,92c3.82701,7.65401 -8.07584,25.92416 -2,32c6.75553,6.75553 9,-6.24182 9,-10" fill="none" stroke="black" stroke-linecap="round" stroke-width="5"/>
	<path d="M84,82c0,24.16289 -6.14118,51.09414 -7,76c-0.26666,7.73312 6,33.62828 6,32" fill="none" stroke="black" stroke-linecap="round" stroke-width="5"/>
	<path d="M120,92c0,29.32056 -3.53542,59.06506 0,90c0.14272,1.24876 -0.71472,40.85886 3,26" fill="none" stroke="black" stroke-linecap="round" stroke-width="5"/>
	<path d="M165,78c-12.46936,24.93872 1,75.8837 1,105c0,12.52504 1,4.5492 1,-3" fill="none" stroke="black" stroke-linecap="round" stroke-width="5"/>
	<path d="M181,91c-5.82851,11.65701 4.56729,57.61501 5,68c0.23239,5.5773 -3.40725,29.18551 0,36c0.41724,0.83448 4.01174,-5.01174 5,-6" fill="none" stroke="black" stroke-linecap="round" stroke-width="5"/>
	<path d="M224,94c0,20 0,40 0,60c0,7.66667 0,15.33333 0,23c0,4 0,8 0,12c0,3 -0.94868,11.84605 0,9c0.64118,-1.92354 1,-3.97241 1,-6" fill="none" stroke="black" stroke-linecap="round" stroke-width="5"/>
	<path d="M246,95c0,15.14062 -5.26223,33.36008 -7,49c-2.37583,21.38243 -1,45.14777 -1,65" fill="none" stroke="black" stroke-linecap="round" stroke-width="5"/>
	<path d="M239,203c4.06255,-4.06255 12.79755,8.20245 7,14" fill="none" stroke="black" stroke-linecap="round" stroke-width="5"/>
</svg>
