<?xml version="1.0" ?>
<svg baseProfile="full" height="300" version="1.1" viewBox="[0, 0, 300, 300]" width="300" xmlns="http://www.w3.org/2000/svg" xmlns:ev="http://www.w3.org/2001/xml-events" xmlns:xlink="http://www.w3.org/1999/xlink">
	<defs/>
	<path d="M55,25c14.1251,-7.06255 70.09843,2.46542 89,0c2.93134,-0.38235 112.70076,-11.59847 121,5c5.57825,11.15649 -2.95595,33.51544 -4,45c-1.05807,11.63873 -0.36074,41.36074 -8,49c-8.87537,8.87537 -38.55691,4 -51,4c-22.68917,0 -44.62406,-2.20301 -67,-5c-16.33413,-2.04177 -31.48734,-11.45959 -48,-14c-13.06467,-2.00995 -30.68427,3.15787 -43,-3c-1.26491,-0.63246 2,-2 3,-3c2.12023,-2.12023 3,-7.84392 3,-11c0,-16.50241 3.13802,-29.41406 8,-44c3.46799,-10.40396 -1.17713,-20.17713 -9,-28c-0.40365,-0.40365 -4,-4 -4,-4c0,0 3.98012,1.99337 4,2c2.23616,0.74539 4,2.75846 4,5" fill="none" stroke="black" stroke-linecap="round" stroke-width="5"/>
	<path d="M58,106c-4.21928,4.21928 -1,69.8537 -1,80c0,9.12572 -1.35214,17.92992 -2,27c-0.3548,4.96725 -1,10.04085 -1,15c0,0.66667 -0.3698,2.5547 0,2c15.34759,-23.02138 15.07206,-48.48643 19,-75c1.76468,-11.91159 2.59884,-23.96509 3,-36c0.08884,-2.66519 0.4384,-5.36962 0,-8c-0.29511,-1.77063 -1.19723,-6.60555 -2,-5c-10.7061,21.4122 -6.78194,119.78194 -18,131c-2.75882,2.75882 2.25517,-7.51033 4,-11" fill="none" stroke="black" stroke-linecap="round" stroke-width="5"/>
</svg>
