<?xml version="1.0" ?>
<svg baseProfile="full" height="300" version="1.1" viewBox="[0, 0, 300, 300]" width="300" xmlns="http://www.w3.org/2000/svg" xmlns:ev="http://www.w3.org/2001/xml-events" xmlns:xlink="http://www.w3.org/1999/xlink">
	<defs/>
	<path d="M39,33c20.67537,0 45.9604,5.33993 66,2c7.68691,-1.28115 15.20491,-4.88642 23,-6c15.80723,-2.25818 32.75951,6.2481 49,3c2.86708,-0.57342 63.19538,-13.86974 66,-12c4.19438,2.79625 9.69193,20.30807 5,25c-2.4051,2.4051 -36.67271,1.53454 -44,3c-48.08319,9.61664 -100.20426,10.22447 -150,4c-3.47581,-0.43448 -15.86665,-2.86665 -18,-5c-2.42251,-2.42251 5.4234,-12.2883 2,-14c-0.66667,-0.33333 -1.25464,-1 -2,-1" fill="none" stroke="black" stroke-linecap="round" stroke-width="5"/>
</svg>
