<?xml version="1.0" ?>
<svg baseProfile="full" height="300" version="1.1" viewBox="[0, 0, 300, 300]" width="300" xmlns="http://www.w3.org/2000/svg" xmlns:ev="http://www.w3.org/2001/xml-events" xmlns:xlink="http://www.w3.org/1999/xlink">
	<defs/>
	<path d="M54,44c0,-1.23749 3.5115,-2.62787 5,-3c21.73584,-5.43396 41.95817,-3.70342 64,-5c37.0102,-2.17707 73.00534,-2 110,-2c1.28537,0 30.77932,-3.44136 31,-3c4.39956,8.79912 7.43142,24.27432 5,34c-4.43207,17.72828 -15.19542,35.58626 -21,53c-1.31392,3.94177 -2.10096,11.89904 1,15c0.2357,0.2357 1.33333,0 1,0c-69.33117,0 -115.84268,17.42092 -187,1c-9.74153,-2.24805 -22.04021,-1.52011 -31,-6c-1.52023,-0.76012 0.46252,-3.38755 1,-5c4.25745,-12.77236 10.00424,-24.51907 13,-38c3.12347,-14.0556 0.6509,-31.6509 11,-42" fill="none" stroke="black" stroke-linecap="round" stroke-width="5"/>
	<path d="M40,133c7.36357,0 2,14.63643 2,22c0,26.91525 -2.43241,56.40552 2,83c1.40382,8.42291 8.35643,18.54059 11,27c0.81988,2.62361 1.50829,5.2956 2,8c0.23851,1.31183 0,5.33333 0,4c0,-31.95878 1,-63.9936 1,-96c0,-10.4141 -1,-20.59212 -1,-31c0,-3.33333 2.35702,-12.35702 0,-10c-14.41085,14.41085 -16.00176,108.25483 -5,78c3.1342,-8.61904 6.65775,-17.13293 9,-26c2.3376,-8.84949 4.05169,-17.89624 5,-27c1.13259,-10.87288 4.60205,-41.79589 -1,-53c-1.41421,-2.82843 -2.20639,5.93893 -3,9c-1.62427,6.26503 -2.43027,12.72108 -4,19c-5.12199,20.48794 -10.46899,37.6997 -9,59c0.36326,5.26729 9,40.07928 9,32" fill="none" stroke="black" stroke-linecap="round" stroke-width="5"/>
</svg>
