<?xml version="1.0" ?>
<svg baseProfile="full" height="300" version="1.1" viewBox="[0, 0, 300, 300]" width="300" xmlns="http://www.w3.org/2000/svg" xmlns:ev="http://www.w3.org/2001/xml-events" xmlns:xlink="http://www.w3.org/1999/xlink">
	<defs/>
	<path d="M57,22c12.84135,0 25.1978,1.01522 38,2c11.66795,0.89753 23.35377,1.27211 35,2c12.6291,0.78932 108.02359,0.02359 112,4c1.72175,1.72175 2.73042,16.53915 1,20c-5.15426,10.30852 -33.29302,0.7414 -42,-1c-33.1552,-6.63104 -74.37706,5.65573 -109,-3c-11.69679,-2.9242 -25.44419,-3 -38,-3c-1.33333,0 -4,1.33333 -4,0c0,-2.90254 6.68581,-2.68581 8,-4c2.47408,-2.47408 -0.19605,-14 4,-14" fill="none" stroke="black" stroke-linecap="round" stroke-width="5"/>
</svg>
