<?xml version="1.0" ?>
<svg baseProfile="full" height="300" version="1.1" viewBox="[0, 0, 300, 300]" width="300" xmlns="http://www.w3.org/2000/svg" xmlns:ev="http://www.w3.org/2001/xml-events" xmlns:xlink="http://www.w3.org/1999/xlink">
	<defs/>
	<path d="M65,39c0,27.89424 -3,56.73885 -3,85c0,10.62269 0.70579,19.64635 2,30c0.08269,0.66152 -0.66152,1.91731 0,2c8.30235,1.03779 17.62627,-3.53479 26,-4c27.37171,-1.52065 54.47838,-3 82,-3c4.40171,0 27.85566,2.68043 30,0c2.75652,-3.44564 -5.23926,-47.67484 -6,-53c-2.83071,-19.81499 -5,-37.9607 -5,-58c0,-0.51712 0.62871,-9.37129 0,-10c-11.12779,-11.12779 -106.78375,-5.60813 -120,1" fill="none" stroke="black" stroke-linecap="round" stroke-width="5"/>
	<path d="M37,62c0,26.57555 13,50.63616 13,77c0,3.68179 -2.15711,9.10574 1,11c35.50209,21.30126 77.6249,34.31245 115,53c3.62103,1.81052 -0.61265,47.75693 -2,54c-0.31094,1.39921 1.17235,6 -1,6" fill="none" stroke="black" stroke-linecap="round" stroke-width="5"/>
	<path d="M56,158c-2.34424,18.75395 -13.44724,34.78895 -18,53" fill="none" stroke="black" stroke-linecap="round" stroke-width="5"/>
</svg>
