<?xml version="1.0" ?>
<svg baseProfile="full" height="300" version="1.1" viewBox="[0, 0, 300, 300]" width="300" xmlns="http://www.w3.org/2000/svg" xmlns:ev="http://www.w3.org/2001/xml-events" xmlns:xlink="http://www.w3.org/1999/xlink">
	<defs/>
	<path d="M30,78c3.72419,7.44837 12.3622,12.02165 19,17c22.62386,16.96789 38.41143,-0.38514 62,-11c23.19483,-10.43767 46.67341,-21.00289 70,-31c2.23049,-0.95593 4.74686,-1.09875 7,-2c2.76818,-1.10727 5.2173,-2.92973 8,-4c13.9861,-5.37927 27.93547,-13.7491 42,-20c1.56772,-0.69677 5.12155,-0.38305 4,-3c-13.09552,-30.55621 -45.7558,-9.11629 -67,1c-19.9858,9.51705 -41.66476,17.02613 -63,23c-6.97783,1.95379 -18.45265,1.72632 -25,5c-2.75634,1.37817 -42.32262,23 -43,23" fill="none" stroke="black" stroke-linecap="round" stroke-width="5"/>
	<path d="M44,76c-5.97587,0 -12.11717,-21.72806 -14,-27c-2.37813,-6.65875 -4.76811,-13.30433 -7,-20c-0.10541,-0.31623 -0.33129,-0.96319 0,-1c49.89563,-5.54396 99.99241,-10.74905 150,-17c12.27781,-1.53473 26.38633,-4.93505 37,-11c0.4013,-0.22931 3.52267,-2.98489 5,-2c6.53245,4.35496 6.10028,12.10028 11,17" fill="none" stroke="black" stroke-linecap="round" stroke-width="5"/>
	<path d="M113,92c0,18.78197 -10,36.00426 -10,55" fill="none" stroke="black" stroke-linecap="round" stroke-width="5"/>
	<path d="M138,75c0,12.66667 0,25.33333 0,38c0,1.05446 -2.5737,22.5737 -1,21" fill="none" stroke="black" stroke-linecap="round" stroke-width="5"/>
	<path d="M171,69c0,18.33333 0,36.66667 0,55" fill="none" stroke="black" stroke-linecap="round" stroke-width="5"/>
	<path d="M211,44c0,20.71114 -3.8587,40.44348 -6,61c-1.35763,13.03329 5.19456,29 -9,29" fill="none" stroke="black" stroke-linecap="round" stroke-width="5"/>
</svg>
