<?xml version="1.0" ?>
<svg baseProfile="full" height="300" version="1.1" viewBox="[0, 0, 300, 300]" width="300" xmlns="http://www.w3.org/2000/svg" xmlns:ev="http://www.w3.org/2001/xml-events" xmlns:xlink="http://www.w3.org/1999/xlink">
	<defs/>
	<path d="M82,191c12.79807,-4.26602 26.04866,-9.46782 39,-13c16.20589,-4.41979 34.20024,-2.73341 50,-8c13.87232,-4.62411 66.70874,-28 76,-28c1.06564,0 -1,16.77228 -1,18c0,10.2828 6.36066,11.48087 12,19c2.93832,3.91776 -1.4523,17.43996 -2,21c-4.96709,32.2861 -77.77,53 -107,53c-10.21297,0 -19.47123,2.41187 -29,4c-3.54126,0.59021 -10,7.59011 -10,4c0,-7.21565 7.41856,-17.74431 5,-25c-0.42266,-1.26797 -3.51044,-1.91841 -4,-2c-9.13167,-1.52195 -14.54363,-12.54363 -20,-18c-6.73767,-6.73767 -5.83456,-23.83456 -13,-31" fill="none" stroke="black" stroke-linecap="round" stroke-width="5"/>
	<path d="M94,184c-5.6107,0 -9.26315,-48.10519 -10,-54c-0.45583,-3.64666 -9.69082,-48.30918 -8,-50c5.04286,-5.04286 12.16002,-6.28003 16,-13c1.28735,-2.25286 3.92182,-12.35309 5,-13c10.19145,-6.11487 57.41426,-3 72,-3c11.05956,0 22.94532,0.7717 34,2c0.33129,0.03681 0.85093,-0.29814 1,0c12.28236,24.56472 19,79.08072 19,107" fill="none" stroke="black" stroke-linecap="round" stroke-width="5"/>
	<path d="M81,145c11.58661,11.58661 25.26553,18.44914 38,28c4.31942,3.23957 9.38192,22 16,22" fill="none" stroke="black" stroke-linecap="round" stroke-width="5"/>
</svg>
