<?xml version="1.0" ?>
<svg baseProfile="full" height="300" version="1.1" viewBox="[0, 0, 300, 300]" width="300" xmlns="http://www.w3.org/2000/svg" xmlns:ev="http://www.w3.org/2001/xml-events" xmlns:xlink="http://www.w3.org/1999/xlink">
	<defs/>
	<path d="M80,250c-1.98619,0 -7.82558,0.20349 -8,0c-1.51851,-1.7716 0.16054,-4.6722 0,-7c-1.44691,-20.98022 -4.84683,-39.86237 -11,-60c-7.27274,-23.80169 -25.56041,-79.63756 -21,-107c4.50598,-27.03588 52.88394,-36.52901 75,-31c17.4328,4.3582 28.78688,18.4295 42,29c15.83021,12.66417 27.46605,32.16512 35,51c2.27261,5.68152 7.15732,10.16485 9,16c7.88136,24.95764 7.70359,53.11077 16,78" fill="none" stroke="black" stroke-linecap="round" stroke-width="5"/>
	<path d="M51,131c0.33333,-2.66667 -1.21232,-6.47426 1,-8c12.42183,-8.56678 77.35872,-35 97,-35" fill="none" stroke="black" stroke-linecap="round" stroke-width="5"/>
</svg>
