<?xml version="1.0" ?>
<svg baseProfile="full" height="300" version="1.1" viewBox="[0, 0, 300, 300]" width="300" xmlns="http://www.w3.org/2000/svg" xmlns:ev="http://www.w3.org/2001/xml-events" xmlns:xlink="http://www.w3.org/1999/xlink">
	<defs/>
	<path d="M144,260c0,1.05409 -1.98646,1.28958 -3,1c-6.08902,-1.73972 -10.46543,-13.61403 -13,-19c-7.63302,-16.22017 -15.75892,-30.20733 -26,-45c-8.67439,-12.52968 -11.59127,-26.47818 -17,-40c-1.05045,-2.62613 -4.50094,-3.6015 -6,-6c-18.42127,-29.47404 -1.53804,-56.46196 20,-78c7.51046,-7.51046 12.54516,-18.65887 21,-25c11.33306,-8.49979 51.07543,-10.52838 59,4c29.06022,53.27707 57.04172,105.16686 72,165" fill="none" stroke="black" stroke-linecap="round" stroke-width="5"/>
	<path d="M189,95c-38.7055,0 -68.55411,32 -105,32" fill="none" stroke="black" stroke-linecap="round" stroke-width="5"/>
	<path d="M104,183c14.25913,0 70.1643,-7.89858 82,-15c6.62814,-3.97688 10.30501,-12 19,-12c11.30111,0 39.66603,16.22137 47,26c1.61245,2.14994 6.4037,5.79815 4,7c-16.95979,8.4799 -105.04401,32.5824 -124,25c-15.89964,-6.35985 -14.37932,-31 -31,-31" fill="none" stroke="black" stroke-linecap="round" stroke-width="5"/>
</svg>
