<?xml version="1.0" ?>
<svg baseProfile="full" height="300" version="1.1" viewBox="[0, 0, 300, 300]" width="300" xmlns="http://www.w3.org/2000/svg" xmlns:ev="http://www.w3.org/2001/xml-events" xmlns:xlink="http://www.w3.org/1999/xlink">
	<defs/>
	<path d="M71,94c-0.94238,2.82715 -7.0388,66.92241 -3,75c1.64655,3.29309 7.34914,1.4762 11,1c10.70985,-1.39694 66.71821,-8.07732 74,-19c4.73037,-7.09556 1.18693,-18.86929 2,-27c0.49166,-4.91664 8.56276,-37.43724 3,-43c-5.75799,-5.75799 -79.86006,5.43003 -93,12" fill="none" stroke="black" stroke-linecap="round" stroke-width="5"/>
	<path d="M64,175c2.92151,8.76454 -2.85134,14.9594 -4,23c-2.95046,20.65323 -0.28702,50.27788 3,70c1.09995,6.59971 8.36463,4.27073 10,1c2.70985,-5.4197 6.94858,-7.84575 9,-14c5.08607,-15.25822 -5.54476,-28.40921 16,-32c2.08664,-0.34777 11.7225,-2.91626 13,-1c14.2933,21.43995 8.30688,47.61377 19,69c3.97038,7.94076 14.80351,-7.41054 16,-11c5.08937,-15.2681 -2,-39.65697 -2,-56" fill="none" stroke="black" stroke-linecap="round" stroke-width="5"/>
</svg>
