<?xml version="1.0" ?>
<svg baseProfile="full" height="300" version="1.1" viewBox="[0, 0, 300, 300]" width="300" xmlns="http://www.w3.org/2000/svg" xmlns:ev="http://www.w3.org/2001/xml-events" xmlns:xlink="http://www.w3.org/1999/xlink">
	<defs/>
	<path d="M89,239c-8.20723,0 -10.58174,-42.75964 -12,-49c-6.28032,-27.63339 -21.55994,-67.01609 -3,-93c14.42264,-20.19169 52.19762,-41.40119 77,-29c6.47763,3.23881 11.692,19.84533 14,26c6.5963,17.59014 12.59272,34.37997 19,52c7.09441,19.50963 15,38.07901 15,60" fill="none" stroke="black" stroke-linecap="round" stroke-width="5"/>
	<path d="M76,160c15.83065,-31.66131 66.76916,-19.76916 89,-42" fill="none" stroke="black" stroke-linecap="round" stroke-width="5"/>
	<path d="M85,183c0,-8.4816 67.02172,-31.32609 74,-29c6.38419,2.12806 11.36075,6.78692 18,9c8.10624,2.70208 21.3252,6.9939 28,12c0.8381,0.62858 1.89563,1.72053 1,3c-17.74352,25.34789 -51.29964,16.71661 -77,21c-3.67639,0.61273 -14.42959,5.46881 -17,4c-5.3668,-3.06675 -11.34666,-8.69332 -14,-14c-1.51534,-3.03068 -18,-0.36476 -18,-4" fill="none" stroke="black" stroke-linecap="round" stroke-width="5"/>
</svg>
