<?xml version="1.0" ?>
<svg baseProfile="full" height="300" version="1.1" viewBox="[0, 0, 300, 300]" width="300" xmlns="http://www.w3.org/2000/svg" xmlns:ev="http://www.w3.org/2001/xml-events" xmlns:xlink="http://www.w3.org/1999/xlink">
	<defs/>
	<path d="M66,132c-6.5684,13.13679 -2,36.79841 -2,52c0,8.11005 -0.30561,15.37526 -2,23c-0.59628,2.68328 -4.38657,6.63624 -2,8c6.23418,3.56239 13.22912,5.61028 20,8c10.56353,3.7283 35.90037,4.32841 46,0c1.10467,-0.47343 2.15016,-2.84984 3,-2c8.28138,8.28138 7.91656,25.20797 11,36c4.10274,14.35959 16.5215,25.086 20,39c0.4031,1.61239 -0.95873,3 1,3" fill="none" stroke="black" stroke-linecap="round" stroke-width="5"/>
	<path d="M54,215c0,25.09439 -14.49852,42.49262 -19,65c-0.25715,1.28575 -0.93078,4 -2,4" fill="none" stroke="black" stroke-linecap="round" stroke-width="5"/>
	<path d="M51,238c0,-9.9107 14.69113,-16 23,-16" fill="none" stroke="black" stroke-linecap="round" stroke-width="5"/>
	<path d="M69,130c0,6.00925 11.99863,-0.69224 18,-1c34.04569,-1.74593 63.79732,-3.63487 98,-9c6.78883,-1.06491 13.2726,-3.59846 20,-5c2.69096,-0.56062 7.65906,-4.72751 8,-2c11.12805,89.02438 -111.20784,40.60392 -142,56" fill="none" stroke="black" stroke-linecap="round" stroke-width="5"/>
	<path d="M74,197c10.40619,20.81238 92.32424,-7.16212 110,-16c4.74143,-2.37072 21.53812,15.26694 25,18c7.34662,5.79996 22.17541,10.17541 28,16c4.13684,4.13684 -16.29158,20.69906 -19,21c-26.5164,2.94627 -95.88315,5.11685 -115,-14" fill="none" stroke="black" stroke-linecap="round" stroke-width="5"/>
	<path d="M186,166c2.17779,4.35558 3,11.01847 3,16" fill="none" stroke="black" stroke-linecap="round" stroke-width="5"/>
	<path d="M238,229c0.33333,0.33333 0.95309,0.53093 1,1c1.46565,14.65654 5,32.15525 5,46" fill="none" stroke="black" stroke-linecap="round" stroke-width="5"/>
</svg>
