<?xml version="1.0" ?>
<svg baseProfile="full" height="300" version="1.1" viewBox="[0, 0, 300, 300]" width="300" xmlns="http://www.w3.org/2000/svg" xmlns:ev="http://www.w3.org/2001/xml-events" xmlns:xlink="http://www.w3.org/1999/xlink">
	<defs/>
	<path d="M58,63c0.34154,-0.34154 3.56625,-4.50906 5,-2c7.618,13.33151 2.93389,53.62259 26,69c1.38675,0.9245 3.33333,0 5,0c24,0 48,0 72,0c0.51713,0 7.8002,0.49949 8,0c4.09093,-10.22733 1,-27.72272 1,-39c0,-47.79131 -19.73888,-41.28079 -61,-43c-16.74053,-0.69752 -33.22644,-2 -50,-2" fill="none" stroke="black" stroke-linecap="round" stroke-width="5"/>
	<path d="M88,130c0,29.9248 -21.08125,89.8375 -7,118c4.46778,8.93556 12.64829,-16.53803 13,-19c2.55916,-17.91412 5.36195,-33.07239 25,-37c5.60994,-1.12199 16.27852,3.83557 18,9c3.79003,11.3701 -6.54173,45.45827 0,52c2.12132,2.12132 6,0 9,0c0.00663,0 16.78081,0.19191 17,-2c0.66336,-6.63358 0,-13.33333 0,-20c0,-5.33333 0,-10.66667 0,-16c0,-10 0,-20 0,-30" fill="none" stroke="black" stroke-linecap="round" stroke-width="5"/>
</svg>
