<?xml version="1.0" ?>
<svg baseProfile="full" height="300" version="1.1" viewBox="[0, 0, 300, 300]" width="300" xmlns="http://www.w3.org/2000/svg" xmlns:ev="http://www.w3.org/2001/xml-events" xmlns:xlink="http://www.w3.org/1999/xlink">
	<defs/>
	<path d="M77,79c0,15.64096 1,31.31858 1,47c0,3.66667 0,7.33333 0,11c0,2.33333 0,9.33333 0,7c0,-13.72013 8.2213,-26.6639 12,-38c0.2357,-0.70711 1.26214,-0.89459 2,-1c20.66172,-2.95167 53.97992,-4.00502 74,1c5.76751,1.44188 6.9939,4 14,4c1.34476,0 9.67276,0.65449 10,0c3.43841,-6.87682 -4.33896,-18.35583 -6,-25c-1.87216,-7.48866 -3,-25.8835 -3,-33c0,-0.33333 0.33168,-0.96683 0,-1c-33.51819,-3.35182 -81.53321,11 -118,11" fill="none" stroke="black" stroke-linecap="round" stroke-width="5"/>
	<path d="M80,124c-6.10565,12.21129 -6,23.75889 -6,37c0,4.9403 -3.19027,20.80973 0,24c3.66167,3.66167 68.97849,12.32616 74,14c6.5391,2.1797 6.10795,44.10795 16,54" fill="none" stroke="black" stroke-linecap="round" stroke-width="5"/>
	<path d="M69,183c-1.50923,-1.50923 -3.74068,2.27672 -5,4c-8.84606,12.10513 -39,48.45933 -39,68" fill="none" stroke="black" stroke-linecap="round" stroke-width="5"/>
	<path d="M64,204c7.27158,-7.27158 22.52604,-6.52604 29,-13" fill="none" stroke="black" stroke-linecap="round" stroke-width="5"/>
	<path d="M77,154c13.16965,-1.88138 115.89717,-5.44113 127,-1c7.39311,2.95724 7.27628,5.68279 15,13c12.27558,11.6295 24.85209,14.38264 2,22c-12.94393,4.31464 -25.59836,7.76639 -39,10c-14.5496,2.42493 -29.84604,13 -44,13" fill="none" stroke="black" stroke-linecap="round" stroke-width="5"/>
	<path d="M192,113c0,11.67647 8,21.17545 8,33" fill="none" stroke="black" stroke-linecap="round" stroke-width="5"/>
	<path d="M227,196c-0.84327,-0.42164 -2.12461,1.06546 -2,2c2.31915,17.39366 17,36.00583 17,53" fill="none" stroke="black" stroke-linecap="round" stroke-width="5"/>
	<path d="M160,231c0,-3.33333 4.89332,-4.79185 8,-6c11.02105,-4.28596 43.63469,-13 55,-13" fill="none" stroke="black" stroke-linecap="round" stroke-width="5"/>
</svg>
