<?xml version="1.0" ?>
<svg baseProfile="full" height="300" version="1.1" viewBox="[0, 0, 300, 300]" width="300" xmlns="http://www.w3.org/2000/svg" xmlns:ev="http://www.w3.org/2001/xml-events" xmlns:xlink="http://www.w3.org/1999/xlink">
	<defs/>
	<path d="M65,58c12.43476,0 24.52976,-10.83126 37,-13c16.35965,-2.84516 32.4707,-2.45703 49,-5c22.07277,-3.39581 138.87597,-39.94188 124,27c-8.66905,39.01073 -59.82067,35.54962 -88,38c-11.08665,0.96406 -24.78391,8.80402 -36,6c-13.06198,-3.26549 -27.85667,-5.58402 -42,-6c-15.57393,-0.45806 -40.47934,3.68044 -55,-6c-21.28369,-14.18912 -2.97149,-52 19,-52" fill="none" stroke="black" stroke-linecap="round" stroke-width="5"/>
	<path d="M131,64c6.88282,-6.88282 31.48842,-18.80463 41,-15c4.23964,1.69586 32.41492,12.58508 24,21c-7.44859,7.44859 -90.28325,15.28325 -69,-6c2.37852,-2.37852 2.75638,-2 6,-2" fill="none" stroke="black" stroke-linecap="round" stroke-width="5"/>
</svg>
