<?xml version="1.0" ?>
<svg baseProfile="full" height="300" version="1.1" viewBox="[0, 0, 300, 300]" width="300" xmlns="http://www.w3.org/2000/svg" xmlns:ev="http://www.w3.org/2001/xml-events" xmlns:xlink="http://www.w3.org/1999/xlink">
	<defs/>
	<path d="M79,33c15.7676,0 31.26323,-0.58587 47,-1c32.14511,-0.84592 104.78603,-11.98144 123,29c2.51314,5.65456 7.23482,17.29553 5,24c-1.64353,4.93058 -43.95031,15.98758 -48,17c-44.61206,11.15301 -91.54973,-1.77968 -135,-10c-14.188,-2.68422 -34.92602,-3.46301 -48,-10c-7.84069,-3.92034 13.82316,-24.84281 14,-25c17.35118,-15.42327 54.26251,-21 77,-21" fill="none" stroke="black" stroke-linecap="round" stroke-width="5"/>
	<path d="M137,50c13.86196,0 33.85205,3.85205 44,14c0.67559,0.67559 6.45625,4.54375 6,5c-3.57692,3.57692 -82.33947,-1.93661 -58,-13c4.96053,-2.25478 10.67204,-3.93441 16,-5" fill="none" stroke="black" stroke-linecap="round" stroke-width="5"/>
</svg>
