<?xml version="1.0" ?>
<svg baseProfile="full" height="300" version="1.1" viewBox="[0, 0, 300, 300]" width="300" xmlns="http://www.w3.org/2000/svg" xmlns:ev="http://www.w3.org/2001/xml-events" xmlns:xlink="http://www.w3.org/1999/xlink">
	<defs/>
	<path d="M84,131c0,19.55012 5.34399,36.37594 10,55c1.00772,4.03089 3.44138,33.14713 9,35c17.1065,5.70217 38.59002,5 56,5c13,0 26,0 39,0c1.66667,0 4.47295,1.58114 5,0c3.9265,-11.77951 4,-30.51471 4,-43c0,-15.36998 -1.39495,-31.65554 0,-47c0.18357,-2.01926 2.43372,-4.56628 1,-6c-5.62218,-5.62218 -37.19199,-0.76765 -43,1c-14.22535,4.32945 -27.62438,12.4061 -42,16c-18.89596,4.72399 -44.46939,2 -64,2" fill="none" stroke="black" stroke-linecap="round" stroke-width="5"/>
	<path d="M103,219c0,10.71009 12.29032,64.06451 31,36c5.43697,-8.15546 0,-26.71045 0,-36" fill="none" stroke="black" stroke-linecap="round" stroke-width="5"/>
	<path d="M120,257c0,6.78528 1.76799,26 10,26c2.52411,0 5.35734,-0.42936 6,-3c2.62073,-10.48291 -5,-19.31264 -5,-28" fill="none" stroke="black" stroke-linecap="round" stroke-width="5"/>
	<path d="M183,226c1.76911,4.42277 4.31536,22.31536 7,25c1.95936,1.95936 6.35674,2.71347 8,6c1.41564,2.83129 5.37722,-1.13167 6,-3c4.68434,-14.05303 -1,-21.23357 -1,-35" fill="none" stroke="black" stroke-linecap="round" stroke-width="5"/>
</svg>
