<?xml version="1.0" ?>
<svg baseProfile="full" height="300" version="1.1" viewBox="[0, 0, 300, 300]" width="300" xmlns="http://www.w3.org/2000/svg" xmlns:ev="http://www.w3.org/2001/xml-events" xmlns:xlink="http://www.w3.org/1999/xlink">
	<defs/>
	<path d="M84,84c0,30.98201 8,62.52318 8,93" fill="none" stroke="black" stroke-linecap="round" stroke-width="5"/>
	<path d="M106,89c0,22.67975 0,45.90355 0,69" fill="none" stroke="black" stroke-linecap="round" stroke-width="5"/>
	<path d="M129,89c0,13.6169 3.64354,21.43223 6,34c2.32128,12.38018 -7.03211,41.96789 3,52" fill="none" stroke="black" stroke-linecap="round" stroke-width="5"/>
	<path d="M149,98c0,19.83743 2.41503,40.11089 3,60c0.35502,12.07078 -2,26.81297 -2,22" fill="none" stroke="black" stroke-linecap="round" stroke-width="5"/>
	<path d="M69,181c20.75347,0 40.33708,-11.89138 57,-23c8.73265,-5.82177 37.40089,-3 46,-3c1.33333,0 0,2.66667 0,4c0,4.66667 -0.91521,9.42396 0,14c0.74259,3.71293 10.9743,30.0257 10,31c-4.81822,4.81822 -16.78064,8.59607 -22,12c-8.5739,5.59167 -15.1393,11.38046 -23,18c-3.04202,2.5617 -12.92431,7.84862 -15,12c-0.14907,0.29814 0.14907,1.29814 0,1c-8.26856,-16.53712 -14.7813,-43.18753 -31,-54c-2.13042,-1.42028 -7.47399,-1.47399 -10,-4c-3.90568,-3.90568 0.42696,-25 -6,-25" fill="none" stroke="black" stroke-linecap="round" stroke-width="5"/>
</svg>
