<?xml version="1.0" ?>
<svg baseProfile="full" height="300" version="1.1" viewBox="[0, 0, 300, 300]" width="300" xmlns="http://www.w3.org/2000/svg" xmlns:ev="http://www.w3.org/2001/xml-events" xmlns:xlink="http://www.w3.org/1999/xlink">
	<defs/>
	<path d="M181,102c-3.5379,0 -9.55572,-4.44446 -14,-5c-8.15896,-1.01987 -73.39727,-4.60273 -75,-3c-3.78115,3.78115 -5.5743,7.75503 -8,12c-2.41347,4.22358 -10.95641,14.08717 -8,20c2.15356,4.30711 33.02233,0.46651 24,14c-10.09383,15.14075 -53.55361,34.55798 -34,59c27.06603,33.83253 130.71135,16.51026 144,-30c4.97933,-17.42766 -24.92652,-16.7061 -28,-29c-3.04846,-12.19385 27.82574,-30.03485 3,-35c-4.68248,-0.9365 -9.12272,-1 -13,-1" fill="none" stroke="black" stroke-linecap="round" stroke-width="5"/>
</svg>
