<?xml version="1.0" ?>
<svg baseProfile="full" height="300" version="1.1" viewBox="[0, 0, 300, 300]" width="300" xmlns="http://www.w3.org/2000/svg" xmlns:ev="http://www.w3.org/2001/xml-events" xmlns:xlink="http://www.w3.org/1999/xlink">
	<defs/>
	<path d="M159,122c-4.74657,0 -6.53238,-3.2554 -11,-4c-17.66183,-2.94364 -66.57309,-0.28073 -74,22c-4.33202,12.99605 31.94332,1.69837 27,19c-6.48853,22.70984 -59.91349,45.39101 -23,70c16.32853,10.88569 30.21021,13.17436 49,12c24.57211,-1.53576 65.32558,0.06976 69,-33c4.25425,-38.28829 -25.57466,-23.29863 -30,-41c-3.61289,-14.45157 23.16899,-19.60569 17,-34c-6.58411,-15.36293 -13.48577,-19 -29,-19c-3.86426,0 -9,0.2125 -9,5" fill="none" stroke="black" stroke-linecap="round" stroke-width="5"/>
</svg>
