<?xml version="1.0" ?>
<svg baseProfile="full" height="300" version="1.1" viewBox="[0, 0, 300, 300]" width="300" xmlns="http://www.w3.org/2000/svg" xmlns:ev="http://www.w3.org/2001/xml-events" xmlns:xlink="http://www.w3.org/1999/xlink">
	<defs/>
	<path d="M171,106c-16.03107,0 -32.04492,-0.06367 -48,1c-6.35422,0.42361 -12.67529,1.25592 -19,2c-3.32701,0.39141 -11.49815,3.99629 -10,1c0.42164,-0.84327 2.94281,-2 2,-2c-2.31973,0 -8.45199,7.45199 -10,9c-1.42411,1.42411 -3.06522,5.13044 -4,7c-11.42114,22.84228 26.75215,9.99142 22,29c-2.98028,11.92112 -53.13877,46.33572 -16,68c13.60032,7.93352 38.79963,10.49332 54,11c26.90471,0.89682 98.91847,-12.28537 87,-54c-5.40364,-18.91273 -34.06903,-14.27613 -39,-34c-2.79154,-11.16616 10.15752,-23.21098 2,-33c-6.04353,-7.25224 -35.99004,-15.01992 -42,-3" fill="none" stroke="black" stroke-linecap="round" stroke-width="5"/>
</svg>
