<?xml version="1.0" ?>
<svg baseProfile="full" height="300" version="1.1" viewBox="[0, 0, 300, 300]" width="300" xmlns="http://www.w3.org/2000/svg" xmlns:ev="http://www.w3.org/2001/xml-events" xmlns:xlink="http://www.w3.org/1999/xlink">
	<defs/>
	<path d="M51,65c0,9.67241 -1.66548,19.35051 -1,29c1.41049,20.45209 14,40.5225 14,61" fill="none" stroke="black" stroke-linecap="round" stroke-width="5"/>
	<path d="M72,82c0,-1.4714 -1,-1.5286 -1,-3" fill="none" stroke="black" stroke-linecap="round" stroke-width="5"/>
	<path d="M71,69c0,28.50755 11,56.70174 11,83" fill="none" stroke="black" stroke-linecap="round" stroke-width="5"/>
	<path d="M92,62c0,22.50218 8.56128,41.69981 10,64c0.07912,1.22628 1,28.2571 1,24" fill="none" stroke="black" stroke-linecap="round" stroke-width="5"/>
	<path d="M118,71c0,16.59785 5.54119,33.46682 7,50c0.03374,0.38242 6,37.88741 6,28" fill="none" stroke="black" stroke-linecap="round" stroke-width="5"/>
	<path d="M145,71c0,26.03607 1,51.98176 1,78c0,4.94227 0.02023,10.89887 2,1" fill="none" stroke="black" stroke-linecap="round" stroke-width="5"/>
	<path d="M163,72c5.75021,14.37553 5.07663,63.07663 11,69" fill="none" stroke="black" stroke-linecap="round" stroke-width="5"/>
	<path d="M180,68c0,28.30444 1,57.40779 1,85" fill="none" stroke="black" stroke-linecap="round" stroke-width="5"/>
	<path d="M67,162c-1.69967,0 3.30268,-0.91067 5,-1c4.32734,-0.22775 8.70787,0.59613 13,0c16.98571,-2.35913 23.16769,-3.01118 38,-4c16.88268,-1.12551 40.07269,-1.44934 56,-6c2.02707,-0.57916 4.83059,-3.75412 6,-2c1.65821,2.48732 1.72,8.15 4,11c10.44056,13.05071 27.18897,23.18897 39,35c6.48977,6.48977 16.31845,15.86378 24,20c0.47343,0.25492 16.07622,7.92378 16,8c-1.72465,1.72465 -24.05155,-1.36856 -27,-1c-26.08133,3.26017 -52.68944,6.93789 -78,12c-15.93111,3.18622 -48.88373,12.62791 -65,18c-2.21099,0.737 -6.08116,1.83768 -7,0c-7.73043,-15.46087 -8.65142,-49.95425 -15,-69c-2.66724,-8.00171 -6.52891,-15.84626 -11,-23c-0.55597,-0.88956 -3.19754,-5.19754 -1,-3" fill="none" stroke="black" stroke-linecap="round" stroke-width="5"/>
	<path d="M71,165c0,24.32249 2,49.24062 2,73" fill="none" stroke="black" stroke-linecap="round" stroke-width="5"/>
	<path d="M92,252c0,4.55458 5.90966,10.63864 7,15c1.92082,7.68329 0.37619,16.75237 4,24" fill="none" stroke="black" stroke-linecap="round" stroke-width="5"/>
</svg>
