<?xml version="1.0" ?>
<svg baseProfile="full" height="300" version="1.1" viewBox="[0, 0, 300, 300]" width="300" xmlns="http://www.w3.org/2000/svg" xmlns:ev="http://www.w3.org/2001/xml-events" xmlns:xlink="http://www.w3.org/1999/xlink">
	<defs/>
	<path d="M173,119c-14.61384,0 -87.65717,-9.82038 -98,2c-7.66527,8.76031 -9.86775,31 5,31c1.83128,0 2.84085,2.3183 2,4c-6.66796,13.33591 -20.7378,42.2622 -7,56c13.52757,13.52757 34.63348,14.82918 52,17c17.12295,2.14037 30.20906,5.44773 48,1c29.29777,-7.32444 50.23574,-38.27377 33,-67c-4.07781,-6.79636 -16.23444,-3.23444 -21,-8c-7.49545,-7.49545 6.16908,-20.44122 2,-26c-9.89487,-13.19316 -20.58597,-8 -30,-8" fill="none" stroke="black" stroke-linecap="round" stroke-width="5"/>
</svg>
