<?xml version="1.0" ?>
<svg baseProfile="full" height="300" version="1.1" viewBox="[0, 0, 300, 300]" width="300" xmlns="http://www.w3.org/2000/svg" xmlns:ev="http://www.w3.org/2001/xml-events" xmlns:xlink="http://www.w3.org/1999/xlink">
	<defs/>
	<path d="M117,31c8.66667,0 17.33333,0 26,0c24.11273,0 29,-8.11615 29,15c0,4.6166 2.04016,15.97992 -2,18c-10.827,5.4135 -48.30952,-1 -62,-1c-5.25555,0 -33.38687,2.8394 -36,-5c-13.63909,-40.91727 51.07136,-33 71,-33" fill="none" stroke="black" stroke-linecap="round" stroke-width="5"/>
	<path d="M79,65c0,24.34812 -2.20429,49.75285 0,74c1.2264,13.49038 5,27.58831 5,41" fill="none" stroke="black" stroke-linecap="round" stroke-width="5"/>
	<path d="M115,67c0,23.33333 0,46.66667 0,70c0,5.68175 2,39.90879 2,29" fill="none" stroke="black" stroke-linecap="round" stroke-width="5"/>
	<path d="M146,73c0,34.11866 1,69.60119 1,103" fill="none" stroke="black" stroke-linecap="round" stroke-width="5"/>
</svg>
