<?xml version="1.0" ?>
<svg baseProfile="full" height="300" version="1.1" viewBox="[0, 0, 300, 300]" width="300" xmlns="http://www.w3.org/2000/svg" xmlns:ev="http://www.w3.org/2001/xml-events" xmlns:xlink="http://www.w3.org/1999/xlink">
	<defs/>
	<path d="M74,32c28.23022,0 58.10669,2.48666 86,-1c5.14135,-0.64267 23.9437,-9.0563 28,-5c4.50563,4.50563 1.89918,16.94959 8,20c0.29814,0.14907 0.66667,0 1,0c0.66667,0 1.33333,0 2,0c8.61101,0 49,-4.17804 49,5c0,3.82188 0.09838,6.95081 -4,9c-11.57523,5.78762 -38.38488,8.40461 -47,10c-17.92636,3.3197 -147.06656,23.57792 -167,-3c-1.40837,-1.87782 -1.54756,-6.73778 -2,-9c-3.89681,-19.48407 25.95047,-2.47524 35,-7c6.48041,-3.24021 3.75601,-22 10,-22" fill="none" stroke="black" stroke-linecap="round" stroke-width="5"/>
</svg>
