<?xml version="1.0" ?>
<svg baseProfile="full" height="300" version="1.1" viewBox="[0, 0, 300, 300]" width="300" xmlns="http://www.w3.org/2000/svg" xmlns:ev="http://www.w3.org/2001/xml-events" xmlns:xlink="http://www.w3.org/1999/xlink">
	<defs/>
	<path d="M78,54c19.58198,0 38.65913,-3.06591 58,-5c9.25903,-0.9259 65.15276,-4.89816 71,-1c2.66953,1.77969 1,13.03644 1,16c0,3.17826 3.89004,16.10996 2,18c-1.94918,1.94918 -22.86393,-6.81066 -24,-7c-20.99442,-3.49907 -48.18125,0.83625 -69,5c-17.08244,3.41649 -34.49266,4.87317 -51,9c-0.52951,0.13238 -7.62789,2.74421 -8,2c-2.47428,-4.94857 14.12793,-18.12793 17,-21c1.99008,-1.99008 0,-14.80246 0,-18" fill="none" stroke="black" stroke-linecap="round" stroke-width="5"/>
	<path d="M76,52c0,-3.31214 -2.3256,-19.6744 0,-22c0.9988,-0.9988 1.7692,2.7692 2,3c2.86956,2.86956 8.22037,5.16008 12,6c15.05858,3.34635 29.68629,3 45,3c8.50494,0 61.40639,-14.59361 67,-9c2.63537,2.63537 -0.64764,17 5,17" fill="none" stroke="black" stroke-linecap="round" stroke-width="5"/>
	<path d="M82,197c0,16.19666 -7.21696,33.65087 -12,48c-0.10274,0.30821 -1.99194,6.50403 -1,7c11.51498,5.75749 36.00918,-0.9633 32,-17c-1.7709,-7.08358 -28.66907,-11.33093 -5,-35" fill="none" stroke="black" stroke-linecap="round" stroke-width="5"/>
	<path d="M182,205c-1.5359,5.37565 -4.02782,27.51391 -9,30c-3.62324,1.81162 -13.64928,2.70145 -10,10c2.18298,4.36597 35.65965,13.3614 38,4c2.80973,-11.23893 -6.52385,-16.52385 -12,-22c-3.7132,-3.7132 7,-19.79748 7,-25" fill="none" stroke="black" stroke-linecap="round" stroke-width="5"/>
	<path d="M114,103c0,15 0,30 0,45" fill="none" stroke="black" stroke-linecap="round" stroke-width="5"/>
	<path d="M123,159c0,-19 0,-38 0,-57" fill="none" stroke="black" stroke-linecap="round" stroke-width="5"/>
	<path d="M139,103c0,6 0,12 0,18c0,11.77898 -1.29174,24.54129 1,36c0.32189,1.60943 -0.90776,3 1,3" fill="none" stroke="black" stroke-linecap="round" stroke-width="5"/>
</svg>
