<?xml version="1.0" ?>
<svg baseProfile="full" height="300" version="1.1" viewBox="[0, 0, 300, 300]" width="300" xmlns="http://www.w3.org/2000/svg" xmlns:ev="http://www.w3.org/2001/xml-events" xmlns:xlink="http://www.w3.org/1999/xlink">
	<defs/>
	<path d="M53,43c11.20845,11.20845 6.70653,52.41306 15,69c4.86609,9.73218 -3,24.97183 -3,33c0,3 6,0 9,0c8.95313,0 21.38193,2.15452 30,0c9.09883,-2.27471 10.6824,-6 21,-6c25.16583,0 50.20925,-6 75,-6c3,0 9,3 9,0c0,-23.92799 0,-57.05384 0,-81c0,-2 -4.10263,0.63246 -6,0c-9.39576,-3.13192 -22.82417,-6 -33,-6c-42,0 -84,0 -126,0" fill="none" stroke="black" stroke-linecap="round" stroke-width="5"/>
	<path d="M38,136c4.72892,0 6,-18.66373 6,-24c0,-20.77314 -13.66087,-70.44638 9,-78c15.81632,-5.27211 111.09292,0 132,0c5.71264,0 44.60133,-0.39867 45,0c12.34589,12.34589 3,89.85402 3,108" fill="none" stroke="black" stroke-linecap="round" stroke-width="5"/>
	<path d="M62,166c2.23607,0 3.76393,3 6,3c41.5481,0 83.73219,-6 126,-6c4,0 8,0 12,0c2.82371,0 23.20282,-1.59436 24,0c1.35205,2.7041 5.1202,48.8798 3,51c-7.19612,7.19612 -28.88288,6.47072 -39,9c-13.8941,3.47353 -111.29391,11.85305 -123,6c-1.78885,-0.89443 0,-4 0,-6c0,-12.73783 0,-30.21585 0,-48" fill="none" stroke="black" stroke-linecap="round" stroke-width="5"/>
</svg>
