<?xml version="1.0" ?>
<svg baseProfile="full" height="300" version="1.1" viewBox="[0, 0, 300, 300]" width="300" xmlns="http://www.w3.org/2000/svg" xmlns:ev="http://www.w3.org/2001/xml-events" xmlns:xlink="http://www.w3.org/1999/xlink">
	<defs/>
	<path d="M65,61c14.33325,0 31.03621,2.20481 45,0c13.1784,-2.0808 25.88685,-6.54128 39,-9c21.32873,-3.99914 47.31883,0 69,0c3,0 6.87868,-2.12132 9,0c1.91729,1.91729 -4.08214,46.08214 -6,48c-3.34546,3.34546 0,27.74318 0,33c0,2 2,6 0,6c-28.20337,0 -88.35168,1.16208 -117,-6c-9.30551,-2.32638 -25.65142,4.34858 -33,-3c-1.41421,-1.41421 0,-4 0,-6c0,-8.91874 3.20677,-18.62031 6,-27c4.19458,-12.58374 -3,-23.1613 -3,-36" fill="none" stroke="black" stroke-linecap="round" stroke-width="5"/>
	<path d="M77,175c38,0 76,0 114,0c6.38481,0 28.82909,4.17091 33,0c1,-1 -3,-1.58579 -3,-3c0,-1 2.29289,-0.70711 3,0c2.5,2.5 -2.5,12.5 0,15c3.03577,3.03577 3,5.70419 3,12c0,4.32443 10.63009,19.36991 6,24c-2.88122,2.88122 -36.48511,12.1617 -45,15c-4.93081,1.6436 -13.3411,-2.32945 -18,0c-4.35357,2.17679 -39.43362,5.56638 -42,3c-21.99985,-21.99985 -31.63325,-21.26651 -48,-54" fill="none" stroke="black" stroke-linecap="round" stroke-width="5"/>
</svg>
