<?xml version="1.0" ?>
<svg baseProfile="full" height="300" version="1.1" viewBox="[0, 0, 300, 300]" width="300" xmlns="http://www.w3.org/2000/svg" xmlns:ev="http://www.w3.org/2001/xml-events" xmlns:xlink="http://www.w3.org/1999/xlink">
	<defs/>
	<path d="M80,49c4.7,0 3,2 3,6c0,25.12969 -7.02403,62.04806 -18,84c-1.24572,2.49144 0,9.15591 0,12c0,2 -2,6 0,6c26.75694,0 60.18922,0 90,0c4.77723,0 26.95967,3.04033 30,0c1.41421,-1.41421 -0.89443,-4.21115 0,-6c2.84375,-5.68751 4.60721,-109.39279 0,-114c-0.70711,-0.70711 -2.29289,-0.70711 -3,0c-5.0266,5.0266 -82.60507,15 -99,15" fill="none" stroke="black" stroke-linecap="round" stroke-width="5"/>
	<path d="M86,79c0,-2 0,-4 0,-6c0,-2 1.41421,-4.58579 0,-6c-0.70711,-0.70711 -2.29289,0.70711 -3,0c-1.38515,-1.38515 -4.75583,-28.24417 -15,-18c-0.70711,0.70711 0.70711,2.29289 0,3c-0.70711,0.70711 -2.29289,-0.70711 -3,0c-2.82638,2.82638 -6.90491,19.80982 -9,24c-1.10075,2.20149 -6,9.8349 -6,12c0,0.00126 -0.62311,68.37689 0,69c2,2 4,4 6,6c1.88846,1.88846 15,-4.20803 15,-6" fill="none" stroke="black" stroke-linecap="round" stroke-width="5"/>
	<path d="M185,64c0,-6.35054 8.25542,-30 18,-30c1.41421,0 3,3 3,3c0,0 -7,-1 -3,3c1.41421,1.41421 5.10557,-1.78885 6,0c3.97082,7.94164 0.16396,18.49188 3,27c1.42547,4.27642 4.31988,4.31988 6,6c7.29709,7.29709 -10.45832,46.45832 -12,48c-3.5,3.5 0.5,14.5 -3,18c-0.79412,0.79412 -7.76471,0 -9,0" fill="none" stroke="black" stroke-linecap="round" stroke-width="5"/>
	<path d="M65,157c1.15323,0 21,36.61116 21,39c0,2.65449 -5.22502,4.54997 -3,9c9.53801,19.07602 27.22229,38.0741 48,45c2.84605,0.94868 6.31672,-1.34164 9,0c5.85888,2.92944 13.51252,9 21,9c36.20968,0 53.85453,-20.92726 84,-36c3.15481,-1.5774 23.50017,-12.49983 18,-18c-8.2507,-8.2507 -26.0303,-20.0303 -33,-27c-0.70711,-0.70711 -2,0 -3,0c-7.00699,0 -31.25311,16.4177 -45,21c-5.01812,1.67271 -13.27022,-2.36489 -18,0c-22.29795,11.14898 -63.09827,3 -84,3" fill="none" stroke="black" stroke-linecap="round" stroke-width="5"/>
	<path d="M218,184c-9.09149,0 -20.00294,-24 -30,-24" fill="none" stroke="black" stroke-linecap="round" stroke-width="5"/>
	<path d="M83,205c-9.78322,0 -46.11748,45 -54,45" fill="none" stroke="black" stroke-linecap="round" stroke-width="5"/>
	<path d="M131,250c10.90694,0 6,27.87691 6,36" fill="none" stroke="black" stroke-linecap="round" stroke-width="5"/>
</svg>
