<?xml version="1.0" ?>
<svg baseProfile="full" height="300" version="1.1" viewBox="[0, 0, 300, 300]" width="300" xmlns="http://www.w3.org/2000/svg" xmlns:ev="http://www.w3.org/2001/xml-events" xmlns:xlink="http://www.w3.org/1999/xlink">
	<defs/>
	<path d="M92,40c0,12.27863 6,29.51251 6,42c0,4.72813 0,25.95865 0,21" fill="none" stroke="black" stroke-linecap="round" stroke-width="5"/>
	<path d="M95,40c5.6663,5.6663 13.62488,4.15622 21,6c20.15685,5.03921 53.85799,13.04734 75,6c2.92773,-0.97591 4.67612,-5.16194 9,-3c11.55295,5.77647 12,36.48848 12,48c0,5.25682 3.34546,29.65454 0,33c-2.58384,2.58384 -20.24512,0 -24,0c-24.86484,0 -52.02535,-3 -78,-3c-1.23529,0 -8.20588,0.79412 -9,0c-5.34969,-5.34969 0,-19.75421 0,-30" fill="none" stroke="black" stroke-linecap="round" stroke-width="5"/>
	<path d="M83,127c0,-8.79726 -5.16692,-16.33385 -9,-24c-4.10563,-8.21125 0,-63.37979 0,-75c0,-2 -1.41421,-4.58579 0,-6c1.5451,-1.5451 30.90547,-3 36,-3c32.41097,0 67.23398,-7.58867 99,3c5.84914,1.94971 13.34342,-1.65658 18,3c7.70783,7.70783 12,36.75347 12,51c0,5.27133 0.58496,53.41504 0,54c-3.90696,3.90696 -6.2126,-2.7874 -9,0c-19.22105,19.22105 -121.58504,-9 -156,-9" fill="none" stroke="black" stroke-linecap="round" stroke-width="5"/>
</svg>
