<?xml version="1.0" ?>
<svg baseProfile="full" height="300" version="1.1" viewBox="[0, 0, 300, 300]" width="300" xmlns="http://www.w3.org/2000/svg" xmlns:ev="http://www.w3.org/2001/xml-events" xmlns:xlink="http://www.w3.org/1999/xlink">
	<defs/>
	<path d="M86,61c5.73333,0 3,4.6 3,9c0,18.86069 -0.11933,33.358 -6,51c-1.8,5.4 1.8,12.6 0,18c-1.33094,3.99282 -6,14.0699 -6,18c0,2 4,0 6,0c12.49271,0 25.56166,3 39,3c28.93495,0 65.64963,0 81,0c1,0 0,-3 0,-3c0,0 11.5917,-55.36679 15,-69c1.0385,-4.15399 -2.85098,-18.14902 0,-21c4.20564,-4.20564 -20.03969,-6 -30,-6c-8.69797,0 -25.55589,-2.27795 -33,-6c-12.63649,-6.31825 -51.12479,3 -63,3" fill="none" stroke="black" stroke-linecap="round" stroke-width="5"/>
	<path d="M56,169c0,-19.47822 -13.80776,-100.19224 0,-114c20.48017,-20.48017 126.867,-31.0665 159,-15c4.24446,2.12223 14.65489,-0.34511 18,3c1.41421,1.41421 -1.41421,4.58579 0,6c16.9577,16.9577 -3,43.26699 -3,63c0,16.59243 3,38.35684 3,57c0,3 3,9 0,9c-1,0 -3,-1 -3,0" fill="none" stroke="black" stroke-linecap="round" stroke-width="5"/>
	<path d="M86,181c12.41645,12.41645 107.09795,-5.43356 129,-3c2.34508,0.26056 16.31598,5.34201 21,3c1.97435,-0.98717 9,0 9,0c0,0 -3,-1 -3,0c0,2.23607 4,4 3,6c-5.08148,10.16297 -2.89827,23.89827 -12,33c-1.06305,1.06305 -13.19253,9 -15,9c-19.05919,0 -131.39449,3.60551 -141,-6c-4.30895,-4.30895 9,-33.0113 9,-39" fill="none" stroke="black" stroke-linecap="round" stroke-width="5"/>
</svg>
