<?xml version="1.0" ?>
<svg baseProfile="full" height="300" version="1.1" viewBox="[0, 0, 300, 300]" width="300" xmlns="http://www.w3.org/2000/svg" xmlns:ev="http://www.w3.org/2001/xml-events" xmlns:xlink="http://www.w3.org/1999/xlink">
	<defs/>
	<path d="M77,94c0,-14.24153 -0.17074,-24.34148 -6,-36c-0.8,-1.6 -3,-3 -3,-3c0,0 4,-2 6,-3c9.0342,-4.5171 36.21588,-6 48,-6c11.81057,0 78.47775,-1.73888 87,-6c2.82843,-1.41421 6.17157,-4.41421 9,-3c0.89443,0.44721 0,2 0,3c0,8.1542 4.20526,26.41052 9,36c1.54164,3.08328 -3,6.91935 -3,9c0,5.4299 6.64993,16.70014 3,24c-2.28168,4.56337 -2.94896,17.94896 -6,21c-3.78208,3.78208 -30.72627,0 -36,0c-10.02814,0 -108.76979,2.23021 -114,-3c-3.06594,-3.06594 8.14396,-41.14396 12,-45" fill="none" stroke="black" stroke-linecap="round" stroke-width="5"/>
	<path d="M68,118c0,41.46375 0,77.26551 0,120" fill="none" stroke="black" stroke-linecap="round" stroke-width="5"/>
	<path d="M221,127c0,9.74985 1.73065,12.46129 6,21c2.53737,5.07474 0,15 0,15c0,0 3,10.25987 3,15c0,10.03587 -1.3721,17.23257 -3,27c-1.10411,6.62467 4.40644,24 -6,24" fill="none" stroke="black" stroke-linecap="round" stroke-width="5"/>
	<path d="M74,175c7.18773,0 6.23707,4.07902 12,6c8.48954,2.82985 75.81179,7.09411 84,3c2.2423,-1.12115 44.4581,-12.27095 45,-12c7.1725,3.58625 10.76258,13.76258 15,18c3.10685,3.10685 -2.05746,10.11493 -3,12c-2.21206,4.42412 3.36324,17.63676 0,21c-7.47055,7.47055 -23.19278,3.54819 -33,6c-28.59885,7.14971 -65.04732,3 -96,3c-5.21964,0 -22.55484,7.44516 -27,3c-2.24793,-2.24793 -3,-8.28931 -3,-12" fill="none" stroke="black" stroke-linecap="round" stroke-width="5"/>
	<path d="M65,229c0,21.70313 -2.27975,32.27975 -18,48" fill="none" stroke="black" stroke-linecap="round" stroke-width="5"/>
	<path d="M140,235c15.27571,0 18,35.37756 18,48" fill="none" stroke="black" stroke-linecap="round" stroke-width="5"/>
</svg>
