<?xml version="1.0" ?>
<svg baseProfile="full" height="300" version="1.1" viewBox="[0, 0, 300, 300]" width="300" xmlns="http://www.w3.org/2000/svg" xmlns:ev="http://www.w3.org/2001/xml-events" xmlns:xlink="http://www.w3.org/1999/xlink">
	<defs/>
	<path d="M32,79c20.0072,0 37.79087,-14.59696 57,-21c39.0953,-13.03177 81.74653,-19.31337 123,-9c6.34063,1.58516 45,10.9708 45,21c0,3 -6,0 -9,0c-7.06519,0 -42.03002,-0.03002 -45,-3c-2.00349,-2.00349 -12.18939,-6 -18,-6c-17.03723,0 -101.53637,-4.73182 -111,0c-7.75132,3.87566 -22.67592,9 -30,9" fill="none" stroke="black" stroke-linecap="round" stroke-width="5"/>
	<path d="M245,112c-5.31928,0 -8.81674,-4.76335 -15,-6c-26.40335,-5.28067 -56.9126,-3 -84,-3c-23.13406,0 -41.05739,2.3429 -63,6c-22.57406,3.76234 -66.21676,9.43353 -78,33c-9.02329,18.04658 69.2839,40.16049 84,42c41.90942,5.23868 73.3054,-2.1527 111,-21c17.79314,-8.89657 57,-19.60701 57,-45" fill="none" stroke="black" stroke-linecap="round" stroke-width="5"/>
</svg>
