<?xml version="1.0" ?>
<svg baseProfile="full" height="300" version="1.1" viewBox="[0, 0, 300, 300]" width="300" xmlns="http://www.w3.org/2000/svg" xmlns:ev="http://www.w3.org/2001/xml-events" xmlns:xlink="http://www.w3.org/1999/xlink">
	<defs/>
	<path d="M71,49c0,7.40194 4.89046,13.43818 3,21c-2.95974,11.83895 -15.78146,86.21854 -6,96c5.22832,5.22832 65.19868,3 78,3c13.0933,0 39.99619,5.5019 51,0c0.89443,-0.44721 0,-2 0,-3c0,-15.57102 -5.15986,-29.63946 -9,-45c-2.14175,-8.56699 -5.2968,-59.2968 -9,-63c-12.20786,-12.20786 -69.13431,-9 -90,-9c-5.51377,0 -27,-2.72371 -27,3" fill="none" stroke="black" stroke-linecap="round" stroke-width="5"/>
	<path d="M41,166c6.91458,0 2.99051,-26.98103 6,-33c16.31913,-32.63826 -20.5581,-85.72095 12,-102c8.22282,-4.11141 45.87631,-3 57,-3c14.52038,0 79.53492,-4.46508 87,3c2.67426,2.67426 1.40696,8.81392 3,12c18.69973,37.39946 18,79.00687 18,123" fill="none" stroke="black" stroke-linecap="round" stroke-width="5"/>
	<path d="M65,178c9.89172,0 19.84507,4.5493 30,6c24.09369,3.44196 50.59269,0 75,0c5.83231,0 29.10011,-3.89989 33,0c2.02771,2.02771 10.40363,39.19273 9,42c-4.87113,9.74226 -18.85624,6 -30,6c-8.9066,0 -117.86267,-0.86267 -123,-6c-5.00815,-5.00815 12,-32.85777 12,-39" fill="none" stroke="black" stroke-linecap="round" stroke-width="5"/>
</svg>
