<?xml version="1.0" ?>
<svg baseProfile="full" height="300" version="1.1" viewBox="[0, 0, 300, 300]" width="300" xmlns="http://www.w3.org/2000/svg" xmlns:ev="http://www.w3.org/2001/xml-events" xmlns:xlink="http://www.w3.org/1999/xlink">
	<defs/>
	<path d="M65,49c16.54432,16.54432 21,55.50901 21,81c0,5.81009 2.5421,18.91579 0,24c-0.79289,1.58579 -8.12132,5.58579 -3,9c6.03744,4.02496 103.93878,-18 114,-18c10,0 20,0 30,0c2,0 5.10557,1.78885 6,0c2,-4 -4.91535,-7.66139 -6,-12c-4.27222,-17.08888 -3,-39.20882 -3,-57c0,-12 0,-24 0,-36c0,-2 0,-6 0,-6c0,0 -29.25183,1.75061 -33,3c-30.5721,10.1907 -83.44714,12 -117,12" fill="none" stroke="black" stroke-linecap="round" stroke-width="5"/>
	<path d="M47,175c4.12667,0 30.73954,12.24651 39,15c15.33127,5.11042 93.10703,1.25513 108,-3c15.66279,-4.47508 32.75975,-7.37987 48,-15c4.35521,-2.1776 29.41982,-21.58018 30,-21c3.21618,3.21618 0,28.12851 0,33c0,5.14346 2.2667,16.4666 0,21c-12.08403,24.16806 -58.60058,51.53353 -84,60c-9.291,3.097 -67.04329,0.97836 -75,-3c-7.37618,-3.68809 -13.89511,-8.44756 -21,-12c-1.7832,-0.8916 -14.76368,-23.76368 -18,-27c-8.51969,-8.51969 -3.17343,-30.17343 -12,-39" fill="none" stroke="black" stroke-linecap="round" stroke-width="5"/>
	<path d="M59,184c-12,12 -24,24 -36,36" fill="none" stroke="black" stroke-linecap="round" stroke-width="5"/>
	<path d="M98,238c0,1 0,2 0,3" fill="none" stroke="black" stroke-linecap="round" stroke-width="5"/>
	<path d="M98,241c-7.59672,7.59672 -13.88643,48 -18,48" fill="none" stroke="black" stroke-linecap="round" stroke-width="5"/>
</svg>
