<?xml version="1.0" ?>
<svg baseProfile="full" height="300" version="1.1" viewBox="[0, 0, 300, 300]" width="300" xmlns="http://www.w3.org/2000/svg" xmlns:ev="http://www.w3.org/2001/xml-events" xmlns:xlink="http://www.w3.org/1999/xlink">
	<defs/>
	<path d="M80,46c2,0 0.63246,4.10263 0,6c-5.73198,17.19594 0,76.48449 0,99c0,1.23529 -0.79412,8.20588 0,9c12.97182,12.97182 111.58899,5.85275 135,0c3.17924,-0.79481 37.90704,-4.90704 39,-6c4.14855,-4.14855 -7.34209,-60.71043 -9,-69c-3.82184,-19.1092 0,-35.21715 0,-54c0,-1 0.70711,-2.29289 0,-3c-6.55725,-6.55725 -31.4548,-3 -39,-3c-38,0 -76,0 -114,0" fill="none" stroke="black" stroke-linecap="round" stroke-width="5"/>
	<path d="M56,154c0,-33.57019 15,-66.0889 15,-99c0,-4.67599 -0.52918,-38.47082 0,-39c16.1366,-16.1366 123.22953,-9 150,-9c15.24251,0 39.34332,-4.97003 45,12c6.84486,20.53457 9,43.71066 9,63c0,9.21181 -9,24.20414 -9,33c0,8.62256 3,15.58273 3,27c0,9.7451 -1.43509,45 -6,45" fill="none" stroke="black" stroke-linecap="round" stroke-width="5"/>
</svg>
