<?xml version="1.0" ?>
<svg baseProfile="full" height="300" version="1.1" viewBox="[0, 0, 300, 300]" width="300" xmlns="http://www.w3.org/2000/svg" xmlns:ev="http://www.w3.org/2001/xml-events" xmlns:xlink="http://www.w3.org/1999/xlink">
	<defs/>
	<path d="M26,85c5.15961,0 42.77093,-30.51395 51,-36c19.85294,-13.23529 49.30417,-16.43472 72,-24c28.56901,-9.523 74.85072,5.85072 93,24c3.39818,3.39818 12.42693,18.85386 15,24c0.89443,1.78885 0,6 0,6c0,0 -8.23274,-5.23274 -9,-6c-13.5794,-13.5794 -36.36163,-21.18082 -54,-30c-5.26452,-2.63226 -12.40268,-0.20134 -18,-3c-13.94065,-6.97033 -86.2355,12.74517 -102,18c-17.9701,5.99003 -24.68993,18 -51,18" fill="none" stroke="black" stroke-linecap="round" stroke-width="5"/>
	<path d="M209,157c0,-8.03955 -37.0191,-16.66985 -45,-18c-39.72245,-6.62041 -82.29188,4.71597 -120,15c-12.09558,3.29879 -36,10.50792 -36,27c0,27.34349 49.71727,46.71495 69,51c38.84839,8.63298 100.98547,-4.30083 132,-9c82.02576,-12.42815 97.58529,-51.79682 33,-111c-7.97354,-7.30908 -17.7248,-12.43488 -27,-18c-8.59454,-5.15672 -65.35136,-3 -72,-3" fill="none" stroke="black" stroke-linecap="round" stroke-width="5"/>
</svg>
