<?xml version="1.0" ?>
<svg baseProfile="full" height="300" version="1.1" viewBox="[0, 0, 300, 300]" width="300" xmlns="http://www.w3.org/2000/svg" xmlns:ev="http://www.w3.org/2001/xml-events" xmlns:xlink="http://www.w3.org/1999/xlink">
	<defs/>
	<path d="M65,55c15.2998,15.2998 6,71.43407 6,93c0,1 -0.70711,2.29289 0,3c3.12194,3.12194 53.04893,3 63,3c11.61757,0 68.89415,3.10585 75,-3c2.12132,-2.12132 0,-6 0,-9c0,-17.54068 -1.92934,-31.71735 -6,-48c-3.21304,-12.85215 4.18518,-29.44445 0,-42c-0.09511,-0.28534 -23.26086,-3 -24,-3c-3,0 -6,0 -9,0c-13.42788,0 -72.94178,-5.52911 -84,0c-2.94525,1.47263 -17.43629,6 -21,6" fill="none" stroke="black" stroke-linecap="round" stroke-width="5"/>
	<path d="M59,61c0,6.33633 -12,18.57951 -12,21c0,2.08065 4.54164,5.91672 3,9c-7.77239,15.54478 -6,38.62197 -6,57" fill="none" stroke="black" stroke-linecap="round" stroke-width="5"/>
	<path d="M218,67c2.23607,0 3,3.76393 3,6c0,30 0,60 0,90c0,4 1.7,6 -3,6" fill="none" stroke="black" stroke-linecap="round" stroke-width="5"/>
	<path d="M68,175c2.32987,0 40.73628,15.57876 48,18c7.44104,2.48035 76.59642,2.46786 84,0c4.89148,-1.63049 16.70493,-12 21,-12c1,0 0,2 0,3c0,5.67984 3.90496,6.90496 6,9c1.90294,1.90294 -1.24888,9.50224 0,12c1.99435,3.98869 5.70915,12.58169 3,18c-2.00903,4.01806 -7.15689,4.15689 -9,6c-22.21496,22.21496 -57.29616,30 -96,30c-9.5772,0 -35.04439,3.95561 -42,-3c-12.07007,-12.07007 -18.52568,-53.47432 -3,-69" fill="none" stroke="black" stroke-linecap="round" stroke-width="5"/>
</svg>
