<?xml version="1.0" ?>
<svg baseProfile="full" height="300" version="1.1" viewBox="[0, 0, 300, 300]" width="300" xmlns="http://www.w3.org/2000/svg" xmlns:ev="http://www.w3.org/2001/xml-events" xmlns:xlink="http://www.w3.org/1999/xlink">
	<defs/>
	<path d="M71,127c0,-31.99367 38.6127,-105.8709 72,-117c36.95371,-12.3179 95.41735,-1.1653 111,30c7.50723,15.01447 -3,62.90497 -3,81c0,0.93506 0,12 0,12c0,0 -37.25489,-3 -45,-3c-45.84839,0 -100.37292,3 -141,3" fill="none" stroke="black" stroke-linecap="round" stroke-width="5"/>
	<path d="M56,169c13.40922,13.40922 98.77743,22.07419 120,15c3.60402,-1.20134 8.35884,-5.08971 12,-6c1.56087,-0.39022 12.25286,1.37357 15,0c6.35198,-3.17599 14.97407,0.01296 21,-3c9.71384,-4.85692 17.90114,-10.45057 27,-15c1.78885,-0.89443 4.58579,-1.41421 6,0c0.65295,0.65295 0,54.1386 0,60" fill="none" stroke="black" stroke-linecap="round" stroke-width="5"/>
</svg>
