<?xml version="1.0" ?>
<svg baseProfile="full" height="300" version="1.1" viewBox="[0, 0, 300, 300]" width="300" xmlns="http://www.w3.org/2000/svg" xmlns:ev="http://www.w3.org/2001/xml-events" xmlns:xlink="http://www.w3.org/1999/xlink">
	<defs/>
	<path d="M80,115c4.7,0 3,-2 3,-6c0,-12.9375 -1.65572,-45.67214 9,-51c9.36502,-4.68251 22.66579,-8.55526 33,-12c21.55239,-7.18413 50.85713,3 72,3c3,0 6.87868,-2.12132 9,0c21.13226,21.13226 -5.12269,82.75463 6,105c3.71508,7.43017 5.72387,19.36193 15,24c2.7943,1.39715 30.80641,2.19359 21,12c-5.05037,5.05037 -10.78533,5.59511 -21,9c-6.87234,2.29078 -12.43264,-3 -18,-3c-34.15052,0 -68.34187,0 -102,0c-14.20306,0 -29.38465,1.20512 -42,-3c-2.12132,-0.70711 -6,-3 -6,-3c0,0 12.3171,-24.3171 15,-27c3.5,-3.5 2.5,-11.5 6,-15c15.03488,-15.03488 6,-34.75406 6,-51" fill="none" stroke="black" stroke-linecap="round" stroke-width="5"/>
	<path d="M53,187c4.69858,0 3.73236,3.73236 6,6c16.71257,16.71257 3,51.41321 3,72" fill="none" stroke="black" stroke-linecap="round" stroke-width="5"/>
	<path d="M236,190c0,10.3981 -4.87916,63.75831 -9,72c-0.89443,1.78885 -4,0 -6,0" fill="none" stroke="black" stroke-linecap="round" stroke-width="5"/>
</svg>
