<?xml version="1.0" ?>
<svg baseProfile="full" height="300" version="1.1" viewBox="[0, 0, 300, 300]" width="300" xmlns="http://www.w3.org/2000/svg" xmlns:ev="http://www.w3.org/2001/xml-events" xmlns:xlink="http://www.w3.org/1999/xlink">
	<defs/>
	<path d="M102,51c48.9514,0 70.40667,-1.44002 61,55c-0.69961,4.19763 1.53259,27.23371 -2,29c-0.91991,0.45996 -53.02513,-2.02513 -55,-4c-0.4714,-0.4714 0,-1.33333 0,-2c0,-12.13377 -4.84086,-19.15322 -8,-31c-3.86994,-14.51228 5,-30.31638 5,-45" fill="none" stroke="black" stroke-linecap="round" stroke-width="5"/>
	<path d="M98,105c34.23978,0 29,31.32447 29,59c0,3.85943 2.16678,26.91661 0,28c-2.47379,1.23689 -27.27025,-19.4595 -25,-24c0.14907,-0.29814 0.66667,0 1,0c9.74855,0 52.8172,-2.6371 63,5c7.97961,5.9847 8.67926,25 10,25c12.12733,0 -1.04345,-39.26068 -2,-45c-1.9785,-11.871 2.15376,-30.38441 6,-40c0.17693,-0.44232 2.08548,-5.45726 1,-6c-4.59841,-2.29921 -9.24877,-1.41626 -14,-3c-7.00827,-2.33609 -15.98848,-8 -22,-8" fill="none" stroke="black" stroke-linecap="round" stroke-width="5"/>
	<path d="M101,99c19.22006,0 51.85753,5.38082 71,-1" fill="none" stroke="black" stroke-linecap="round" stroke-width="5"/>
	<path d="M130,153c14.33647,-1.19471 28.63148,-1 43,-1" fill="none" stroke="black" stroke-linecap="round" stroke-width="5"/>
</svg>
