<?xml version="1.0" ?>
<svg baseProfile="full" height="300" version="1.1" viewBox="[0, 0, 300, 300]" width="300" xmlns="http://www.w3.org/2000/svg" xmlns:ev="http://www.w3.org/2001/xml-events" xmlns:xlink="http://www.w3.org/1999/xlink">
	<defs/>
	<path d="M86,120c41.43565,0 34.50421,99.74789 20,107c-0.29814,0.14907 -0.72265,0.1849 -1,0c-6.1382,-4.09213 -29.18096,-12.63808 -25,-21c2.98076,-5.96152 43.63107,-4 54,-4c8.03471,0 15.90495,-1 24,-1c5.46878,0 11.69192,-0.66351 17,0c2.01193,0.25149 0.28807,4.10151 1,6c1.82007,4.85352 5.38481,9.38481 9,13c1.79505,1.79505 1.20495,8.79505 3,7c4.63177,-4.63177 2,-18.7799 2,-24c0,-11.91226 6.28698,-45.71302 -3,-55c-5.01023,-5.01023 -15.32022,-8.335 -20,-14c-6.79672,-8.22761 -14.08031,-16.12046 -20,-25c-2.06122,-3.09182 -3.26736,-7.63368 -6,-9" fill="none" stroke="black" stroke-linecap="round" stroke-width="5"/>
	<path d="M83,119c3.96955,0 3.61395,-7.61395 6,-10" fill="none" stroke="black" stroke-linecap="round" stroke-width="5"/>
</svg>
