<?xml version="1.0" ?>
<svg baseProfile="full" height="300" version="1.1" viewBox="[0, 0, 300, 300]" width="300" xmlns="http://www.w3.org/2000/svg" xmlns:ev="http://www.w3.org/2001/xml-events" xmlns:xlink="http://www.w3.org/1999/xlink">
	<defs/>
	<path d="M85,69c0,-2.98142 5.15042,-3.12321 8,-4c16.13144,-4.96352 38.83991,-3.61717 55,1c20.82746,5.9507 13.39014,22.29149 15,40c0.7947,8.74171 4,18.65599 4,27" fill="none" stroke="black" stroke-linecap="round" stroke-width="5"/>
	<path d="M86,70c0,13.22828 7.42231,26.47808 11,39c2.3811,8.33384 4.15403,16.30805 8,24c0.22561,0.45122 -0.17785,7 0,7c5.82142,0 11.22965,-3.23062 17,-4c16.19514,-2.15935 27.50063,-0.75031 42,-8" fill="none" stroke="black" stroke-linecap="round" stroke-width="5"/>
	<path d="M87,63c7.7659,23.29769 26.84908,42.53313 32,67c10.82989,51.44199 -16,58.07148 -16,78" fill="none" stroke="black" stroke-linecap="round" stroke-width="5"/>
	<path d="M162,84c10.7974,21.59479 15,47.96923 15,72c0,1.53786 0.9767,24 -1,24" fill="none" stroke="black" stroke-linecap="round" stroke-width="5"/>
	<path d="M100,127c0,16.38843 -4.02402,32.87773 -17,44c-3.7592,3.22217 -19.44782,16 -19,16" fill="none" stroke="black" stroke-linecap="round" stroke-width="5"/>
</svg>
