<?xml version="1.0" ?>
<svg baseProfile="full" height="300" version="1.1" viewBox="[0, 0, 300, 300]" width="300" xmlns="http://www.w3.org/2000/svg" xmlns:ev="http://www.w3.org/2001/xml-events" xmlns:xlink="http://www.w3.org/1999/xlink">
	<defs/>
	<path d="M99,33c4.00524,0 44.32452,2.32452 46,4c0.4714,0.4714 0.1096,1.3424 0,2c-2.55746,15.34478 -4,29.21933 -4,45c0,10.66667 0,21.33333 0,32c0,2 0,6 0,6c0,0 -11.72782,-7.21237 -18,-10c-5.3896,-2.39538 -12.09119,-3.34347 -18,-4c-12.60377,-1.40042 -26.36296,0 -39,0c-0.77239,0 -1.75286,0.2357 -2,-1c-3.04189,-15.20944 3.03848,-34.61563 4,-50c0.27031,-4.32489 -3.06413,-9.93587 0,-13c7.92385,-7.92385 19.14051,-7 32,-7c2.78487,0 23.36714,-0.15822 16,-2c-3.16385,-0.79096 -4.44183,-2 -8,-2" fill="none" stroke="black" stroke-linecap="round" stroke-width="5"/>
	<path d="M63,58c0,20.52057 3.03485,43.82574 -1,64c-1.58254,7.91271 -3,39.7629 -3,25" fill="none" stroke="black" stroke-linecap="round" stroke-width="5"/>
</svg>
