<?xml version="1.0" ?>
<svg baseProfile="full" height="300" version="1.1" viewBox="[0, 0, 300, 300]" width="300" xmlns="http://www.w3.org/2000/svg" xmlns:ev="http://www.w3.org/2001/xml-events" xmlns:xlink="http://www.w3.org/1999/xlink">
	<defs/>
	<path d="M62,83c0,-10.85284 59.36904,-10.34226 70,-13c24.62334,-6.15583 76.61817,-0.38183 92,15c1.71594,1.71594 -0.91475,4.82949 -2,7c-2.83325,5.66651 -1,24.79656 -1,31c0,0.61024 -0.38964,3.61036 0,4c1.20296,1.20296 10.31143,1.15572 12,2c16.97438,8.48719 27.12543,19.12543 39,31c4.63674,4.63674 -12.44819,13.55181 -14,12c-3.32914,-3.32914 -4.97083,-11.94166 -7,-16c-8.39235,-16.78469 -34.81243,-24 -54,-24" fill="none" stroke="black" stroke-linecap="round" stroke-width="5"/>
	<path d="M65,81c2.24008,0 -1.52705,-0.41884 -2,1c-4.03975,12.11926 1,26.35079 1,38" fill="none" stroke="black" stroke-linecap="round" stroke-width="5"/>
	<path d="M64,120c-8.01259,0 -27.0966,0.0966 -33,6c-1.17847,1.17847 1.28963,19.1585 2,22c1.27857,5.11427 5.36348,9.09044 7,14c5.70378,17.11133 24.35874,18 40,18c0.55052,0 9,0 9,0c0,0 -6.70121,-6 -8,-6" fill="none" stroke="black" stroke-linecap="round" stroke-width="5"/>
</svg>
