<?xml version="1.0" ?>
<svg baseProfile="full" height="300" version="1.1" viewBox="[0, 0, 300, 300]" width="300" xmlns="http://www.w3.org/2000/svg" xmlns:ev="http://www.w3.org/2001/xml-events" xmlns:xlink="http://www.w3.org/1999/xlink">
	<defs/>
	<path d="M63,57c3.75526,0 12.36127,-7.18064 16,-9c18.74872,-9.37436 104.77106,-18.22894 119,-4c7.49467,7.49467 26.47193,8.47193 33,15c0.24671,0.24671 4.99185,1.00815 4,2c-0.75165,0.75165 -11.75774,10.62113 -13,10c-23.90125,-11.95062 -49.12257,-33.62581 -81,-23c-16.20187,5.40062 -35.17199,-0.41401 -50,7c-3.03024,1.51512 -16,16 -16,16c0,0 0.4714,-1.5286 0,-2c-2.30496,-2.30496 -22,-13.09727 -22,-15" fill="none" stroke="black" stroke-linecap="round" stroke-width="5"/>
	<path d="M56,56c0,3.53056 5.18389,16.36778 7,20c5.05813,10.11627 -1.85741,38.14259 5,45c0.51102,0.51102 4.98837,-3.49419 6,-4c5.45049,-2.72524 12.81553,-4.40777 18,-7c15.15941,-7.5797 40.6536,-10.62091 59,-8c20.99578,2.9994 42.37428,1.56238 63,5c10.37759,1.7296 19.02561,5.00854 28,8c0.14086,0.04695 4.7592,1.48161 5,1c2.43335,-4.86671 -4.02941,-51.05881 -7,-57c-1.02403,-2.04806 -2.25305,-6 -5,-6" fill="none" stroke="black" stroke-linecap="round" stroke-width="5"/>
	<path d="M97,107c0,27.90251 0.85071,57.05925 3,85c0.10009,1.30111 2,26 2,26c0,0 0.57552,-13.72657 1,-15" fill="none" stroke="black" stroke-linecap="round" stroke-width="5"/>
	<path d="M135,103c9.33821,18.67642 15,70.37751 15,92c0,11.9207 -1,12.49616 -1,0" fill="none" stroke="black" stroke-linecap="round" stroke-width="5"/>
	<path d="M171,104c0,19.07305 8,37.2966 8,57c0,7.40229 -0.20719,14.75687 1,22c0.28648,1.71885 2,9.55768 2,8" fill="none" stroke="black" stroke-linecap="round" stroke-width="5"/>
	<path d="M223,105c0,26.3634 3,53.76845 3,80c0,1.86283 -0.9079,10 1,10" fill="none" stroke="black" stroke-linecap="round" stroke-width="5"/>
	<path d="M249,210c-33.86006,-16.93003 -69.07852,-31.98037 -109,-22c-15.93828,3.98457 -35.05152,4.70101 -49,14c-0.44115,0.2941 -6,3 -6,3c0,0 6.14609,5.8607 9,9c16.2705,17.89755 22.07932,50.07932 35,63c1.11241,1.11241 8.67607,-1.81087 10,-2c21.66328,-3.09475 45.75293,1.24941 67,-3c5.97403,-1.19481 9.2924,-4 16,-4c10.27386,0 25.14179,5.28607 35,2c1.90858,-0.63619 15.5625,-2 8,-2" fill="none" stroke="black" stroke-linecap="round" stroke-width="5"/>
</svg>
