<?xml version="1.0" ?>
<svg baseProfile="full" height="300" version="1.1" viewBox="[0, 0, 300, 300]" width="300" xmlns="http://www.w3.org/2000/svg" xmlns:ev="http://www.w3.org/2001/xml-events" xmlns:xlink="http://www.w3.org/1999/xlink">
	<defs/>
	<path d="M251,63c-3.17609,0 -25.49054,-18.49685 -33,-21c-24.69824,-8.23275 -80.96397,-29.34534 -106,-21c-24.49035,8.16345 -51.36299,9.1815 -73,20c-1.72583,0.86292 -22,5 -22,5c0,0 4.61741,0.8087 5,1c5.04893,2.52446 34.43936,14.56064 36,13c5.63719,-5.63719 14.82697,-16.91349 21,-20c27.95351,-13.97675 82.1741,-6.60863 111,3c20.83225,6.94408 39.79917,15.89959 58,25c0.6891,0.34455 5,2 5,2c0,0 -7.60324,-11.60324 -9,-13" fill="none" stroke="black" stroke-linecap="round" stroke-width="5"/>
	<path d="M248,69c0,13.88907 4,32.27475 4,48c0,0.33333 0.2357,0.7643 0,1c-1.27163,1.27163 -6.86871,-0.6229 -8,-1c-32.02458,-10.67486 -66.25107,-16.81277 -99,-25c-18.55422,-4.63856 -73.52104,-3.82632 -91,2c-3.51579,1.17193 -26.77376,11.22624 -30,8c-8.81598,-8.81598 -4,-51.77646 -4,-62" fill="none" stroke="black" stroke-linecap="round" stroke-width="5"/>
	<path d="M70,92c0,23.98108 2,48.74408 2,73c0,6.61565 3,36.06963 3,29" fill="none" stroke="black" stroke-linecap="round" stroke-width="5"/>
	<path d="M124,85c11.20101,11.20101 5,89.78453 5,112" fill="none" stroke="black" stroke-linecap="round" stroke-width="5"/>
</svg>
