<?xml version="1.0" ?>
<svg baseProfile="full" height="300" version="1.1" viewBox="[0, 0, 300, 300]" width="300" xmlns="http://www.w3.org/2000/svg" xmlns:ev="http://www.w3.org/2001/xml-events" xmlns:xlink="http://www.w3.org/1999/xlink">
	<defs/>
	<path d="M83,38c-13.49458,0 -31.69838,0.69838 -40,9c-0.55333,0.55333 -1.91886,3.08114 -1,4c35.21834,35.21834 112.5989,19 162,19c22.35585,0 56.65014,1.69973 66,-17c12.37303,-24.74606 -53.34862,-12.34862 -56,-15c-3.7906,-3.7906 -6.17784,-13.17784 -10,-17c-0.2357,-0.2357 -0.66667,0 -1,0c-16.52932,0 -77.82071,-7.58964 -91,-1c-5.02809,2.51405 -15.30992,4.30992 -18,7c-1.12745,1.12745 -2.42664,9.21332 -4,10c-6.20711,3.10355 -12.51926,1 -19,1" fill="none" stroke="black" stroke-linecap="round" stroke-width="5"/>
	<path d="M108,28c20.58316,0 41.1892,2 62,2c5.92823,0 31.00784,-0.00784 29,2" fill="none" stroke="black" stroke-linecap="round" stroke-width="5"/>
	<path d="M63,61c0,27.10001 30.05561,87.27805 37,122" fill="none" stroke="black" stroke-linecap="round" stroke-width="5"/>
	<path d="M107,76c0,22.32491 5.17896,46.65618 11,68c1.20851,4.43119 3,34.93382 3,23" fill="none" stroke="black" stroke-linecap="round" stroke-width="5"/>
	<path d="M130,79c7.14956,14.29912 2.54805,42.02852 4,58c0.15388,1.69269 0.74155,3.32009 1,5c1.51419,9.84222 2,20.04343 2,30c0,1.66667 1.66667,5 0,5c-1.86977,0 -0.99399,-6.95194 -1,-7c-0.44902,-3.59218 -1,-6.34085 -1,-10" fill="none" stroke="black" stroke-linecap="round" stroke-width="5"/>
	<path d="M158,73c1.46679,0 3,6.23718 3,8c0,16.84764 -1.29054,34.22298 0,51c0.41461,5.38997 5,30.1248 5,27" fill="none" stroke="black" stroke-linecap="round" stroke-width="5"/>
	<path d="M193,72c0,22.19674 5,44.9053 5,68c0,7.41249 1,14.64215 1,22c0,3.01846 0.40803,6.04015 1,9c0.19612,0.98058 0,4 0,3c0,-3 0,-6 0,-9" fill="none" stroke="black" stroke-linecap="round" stroke-width="5"/>
	<path d="M219,71c11.81741,23.63481 7,56.62089 7,82c0,10.23951 1,12.54873 1,1" fill="none" stroke="black" stroke-linecap="round" stroke-width="5"/>
	<path d="M258,64c0,35.20359 -10.45218,60.63044 -23,92c-3.09587,7.73968 -6.26514,26.26514 -11,31c-0.73768,0.73768 -5,17.58411 -5,11" fill="none" stroke="black" stroke-linecap="round" stroke-width="5"/>
	<path d="M238,185c-42.03555,0 -92.96477,-26.51761 -134,-6c-8.45458,4.22729 -33.42842,5.71474 -28,22c4.98579,14.95736 26.68283,13.36567 33,26c6.98378,13.96756 -15.05489,23.91766 -7,36c15.67234,23.50851 81.51265,25 108,25c19.56288,0 57.95457,3.56815 71,-16c32.69619,-49.04428 -15.17176,-35.34351 -27,-59c-2.155,-4.31 2.59198,-11.81604 0,-17c-2.98752,-5.97504 -37.88168,-24 -46,-24" fill="none" stroke="black" stroke-linecap="round" stroke-width="5"/>
</svg>
