<?xml version="1.0" ?>
<svg baseProfile="full" height="300" version="1.1" viewBox="[0, 0, 300, 300]" width="300" xmlns="http://www.w3.org/2000/svg" xmlns:ev="http://www.w3.org/2001/xml-events" xmlns:xlink="http://www.w3.org/1999/xlink">
	<defs/>
	<path d="M79,83c9.09831,0 17.32613,-6.83153 26,-9c31.39623,-7.84906 85.33277,-18.66723 108,4c4.16596,4.16596 2.45799,36.45799 3,37c3.8041,3.8041 56.88601,18.11399 43,32c-1.09871,1.09871 -4.28816,-0.76272 -5,-1c-3.09212,-1.03071 -11.81619,3.18381 -13,2c-5.50575,-5.50575 -14.92624,-9.92624 -20,-15c-1.90359,-1.90359 -18,-6.53222 -18,-10" fill="none" stroke="black" stroke-linecap="round" stroke-width="5"/>
	<path d="M81,81c0,14.67102 7.83153,49.66307 14,62c0.30921,0.61842 4.10865,6.44568 3,7c-1.95248,0.97624 -12.98441,-7.98441 -14,-9c-4.3788,-4.3788 -10.03832,3.92336 -8,8c7.23842,14.47685 26.54983,28.09966 34,43c0.47928,0.95857 3.17804,7.82196 6,5c13.009,-13.009 -2.32739,-25.32739 -14,-37c-3.12696,-3.12696 -8.80019,-18 -13,-18" fill="none" stroke="black" stroke-linecap="round" stroke-width="5"/>
	<path d="M107,154c16.76264,-16.76264 41.6368,-1.1592 61,-6c16.93869,-4.23467 34.80583,-7 51,-7" fill="none" stroke="black" stroke-linecap="round" stroke-width="5"/>
</svg>
