<?xml version="1.0" ?>
<svg baseProfile="full" height="300" version="1.1" viewBox="[0, 0, 300, 300]" width="300" xmlns="http://www.w3.org/2000/svg" xmlns:ev="http://www.w3.org/2001/xml-events" xmlns:xlink="http://www.w3.org/1999/xlink">
	<defs/>
	<path d="M47,56c12.75521,0 37.9155,-3.45775 49,-9c7.96248,-3.98124 23.80185,4.19815 30,-2c7.11856,-7.11856 48.27315,7 57,7c14.72628,0 24.85614,8.85614 34,18c0.55333,0.55333 2.30629,2.69371 2,3c-4.49096,4.49096 -40.96811,-6.49203 -47,-8c-34.16579,-8.54145 -80.33501,-12.33249 -113,4c-2.34212,1.17106 -15.16822,-12 -19,-12" fill="none" stroke="black" stroke-linecap="round" stroke-width="5"/>
	<path d="M45,62c0,5.78262 -3.43699,9.56301 1,14c8.39738,8.39738 79.38731,-5 97,-5c4.5493,0 48.75279,1.75279 50,3c3.09835,3.09835 17.98343,11 23,11c3.33333,0 0,-6.66667 0,-10" fill="none" stroke="black" stroke-linecap="round" stroke-width="5"/>
	<path d="M64,82c-1.93394,-1.93394 -0.12525,20.37375 1,26c3.3671,16.83552 -1.07404,34.70383 3,51c1.45755,5.83022 -2,13.49703 -2,20c0,1.2882 -1,6.15077 -1,3" fill="none" stroke="black" stroke-linecap="round" stroke-width="5"/>
	<path d="M111,79c4.31784,-2.15892 4,1.14616 4,5c0,20.26561 -0.8703,40.9079 2,61c0.65874,4.61117 0.89409,9.57636 2,14c0.24303,0.9721 0,8.41809 0,6" fill="none" stroke="black" stroke-linecap="round" stroke-width="5"/>
	<path d="M152,77c0,-3.64907 4.18007,20.44056 5,27c2.54501,20.36011 2,42.51173 2,63" fill="none" stroke="black" stroke-linecap="round" stroke-width="5"/>
	<path d="M197,75c3.3867,0 3.43936,2.1968 4,5c5.6323,28.1615 2,60.04636 2,89" fill="none" stroke="black" stroke-linecap="round" stroke-width="5"/>
	<path d="M215,173c-7.72861,0 -13.79107,-5.19777 -21,-7c-17.73481,-4.4337 -42.32392,-8.73522 -61,-5c-16.69141,3.33828 -31.75387,9.93847 -48,14c-2.54265,0.63566 -35,-1.85533 -35,3c0,1.69967 3.79815,-0.20185 5,1c12.52232,12.52232 18.74444,30.74444 32,44" fill="none" stroke="black" stroke-linecap="round" stroke-width="5"/>
</svg>
