<?xml version="1.0" ?>
<svg baseProfile="full" height="300" version="1.1" viewBox="[0, 0, 300, 300]" width="300" xmlns="http://www.w3.org/2000/svg" xmlns:ev="http://www.w3.org/2001/xml-events" xmlns:xlink="http://www.w3.org/1999/xlink">
	<defs/>
	<path d="M61,55c14.71308,0 27.77574,-8.15515 42,-11c38.57018,-7.71404 71.41262,-15.39685 109,-6c3.50548,0.87637 15.63701,0.63701 18,3c0.07445,0.07445 -9.14658,19.14658 -11,21c-2.63523,2.63523 -6.38449,-4.09612 -10,-5c-10.23456,-2.55864 -24.55528,-3.27764 -34,-8c-6.69559,-3.34779 -94.58589,9.58589 -98,13c-1.84089,1.84089 -2.39658,6 -5,6c-1.11652,0 -16,-14.64445 -16,-17" fill="none" stroke="black" stroke-linecap="round" stroke-width="5"/>
	<path d="M61,62c0,2.42607 -7.80155,11.19845 -4,15c8.09862,8.09862 29.3127,-4.07818 37,-6c9.25834,-2.31459 82.82305,-11.58848 88,-9c5.90604,2.95302 24.18896,2.18896 28,6c2.02486,2.02486 13.37538,7.31231 16,6c12.76369,-6.38184 -5,-20.35308 -5,-24" fill="none" stroke="black" stroke-linecap="round" stroke-width="5"/>
	<path d="M92,74c2.67638,0 2.9966,1.49149 4,4c12.15316,30.38291 0.40118,70.80823 5,103c1.35676,9.49735 1,14.37551 1,1" fill="none" stroke="black" stroke-linecap="round" stroke-width="5"/>
	<path d="M144,66c1.96382,0 2,7.11457 2,9c0,23.10437 1.91603,47.00767 0,70c-0.2823,3.3876 -1.57836,6.6269 -2,10c-0.48685,3.89477 -0.23147,8.15735 -1,12c-0.16103,0.80513 -1,8.28107 -1,6" fill="none" stroke="black" stroke-linecap="round" stroke-width="5"/>
	<path d="M184,60c11.5042,11.5042 11,61.14944 11,78c0,2.4165 -1,45.82764 -1,30" fill="none" stroke="black" stroke-linecap="round" stroke-width="5"/>
	<path d="M217,72c4.99926,4.99926 3,28.22482 3,36" fill="none" stroke="black" stroke-linecap="round" stroke-width="5"/>
</svg>
