<?xml version="1.0" ?>
<svg baseProfile="full" height="300" version="1.1" viewBox="[0, 0, 300, 300]" width="300" xmlns="http://www.w3.org/2000/svg" xmlns:ev="http://www.w3.org/2001/xml-events" xmlns:xlink="http://www.w3.org/1999/xlink">
	<defs/>
	<path d="M57,36c23.38252,0 85.42291,5.51542 103,2c22.27611,-4.45522 44.66324,-5 68,-5c15.2632,0 34,1.11341 34,19c0,1.11076 0.70711,6.29289 0,7c-4.70758,4.70758 -8.24126,12.16084 -14,16c-25.3955,16.93033 -108.56609,3 -142,3c-15.65808,0 -54.7489,0.2511 -65,-10c-21.56028,-21.56028 15.27175,-33 35,-33" fill="none" stroke="black" stroke-linecap="round" stroke-width="5"/>
	<path d="M124,51c9.38117,0 47.94925,-0.05075 53,5c1.03687,1.03687 3.32095,2.35811 2,5c-3.96298,7.92596 -58.3594,1.6406 -62,-2c-3.80058,-3.80058 14,-2.62516 14,-8" fill="none" stroke="black" stroke-linecap="round" stroke-width="5"/>
	<path d="M56,78c6.84425,0 12.41461,22.24382 14,27c8.10298,24.30895 15.52821,48.7949 24,73c2.64274,7.55068 13,21.37955 13,29c0,0.33333 0.14907,1.29814 0,1c-2.80762,-5.61524 -3,-11.89413 -3,-18" fill="none" stroke="black" stroke-linecap="round" stroke-width="5"/>
	<path d="M115,76c2.76456,0 3.45884,5.83537 4,8c6.02923,24.11691 16.18494,45.55483 24,69c2.15084,6.45252 3.69917,12.49583 5,19c0.45106,2.25531 -1,9.6286 -1,8" fill="none" stroke="black" stroke-linecap="round" stroke-width="5"/>
</svg>
