<?xml version="1.0" ?>
<svg baseProfile="full" height="300" version="1.1" viewBox="[0, 0, 300, 300]" width="300" xmlns="http://www.w3.org/2000/svg" xmlns:ev="http://www.w3.org/2001/xml-events" xmlns:xlink="http://www.w3.org/1999/xlink">
	<defs/>
	<path d="M189,57c20.67316,0 56.54946,8.45054 70,-5c0.95585,-0.95585 6.32454,-7.67546 4,-10c-18.05633,-18.05633 -71.13983,-9.13983 -75,-13c-5.6282,-5.6282 -9.1459,-10.1459 -14,-15c-0.85465,-0.85465 -7.74312,0 -9,0c-21.49691,0 -43.86256,0 -66,0c-0.41176,0 -2.73529,-0.26471 -3,0c-5.25305,5.25305 -5.02162,14.02162 -10,19c-8.5409,8.5409 -38.66131,-4.33869 -48,5c-1.72553,1.72553 -1.56825,5.56825 -3,7c-1.02191,1.02191 0.29025,5.29025 1,6c7.2749,7.2749 23.82894,7.45723 34,10c29.32843,7.33211 77.07422,-1 109,-1c1.74725,0 35,-0.99338 35,-2" fill="none" stroke="black" stroke-linecap="round" stroke-width="5"/>
	<path d="M102,23c17.20997,0 33.90244,1 51,1c6.15345,0 25.36265,4 21,4" fill="none" stroke="black" stroke-linecap="round" stroke-width="5"/>
	<path d="M56,62c5.60352,0 13.23758,24.6962 14,28c3.99595,17.3158 6.34511,36.36277 13,53c6.47716,16.19289 18,32.63137 18,50" fill="none" stroke="black" stroke-linecap="round" stroke-width="5"/>
	<path d="M111,60c9.25821,0 23.76219,78.39833 25,85c1.08125,5.76666 0.28656,11.29251 1,17c0.17893,1.4314 1,10.58543 1,9" fill="none" stroke="black" stroke-linecap="round" stroke-width="5"/>
	<path d="M150,59c0,28.62175 9.93639,58.1095 12,87c0.86577,12.12075 -6,41.69629 -6,14" fill="none" stroke="black" stroke-linecap="round" stroke-width="5"/>
	<path d="M176,53c6.47416,32.3708 -5.74459,96.51083 7,122" fill="none" stroke="black" stroke-linecap="round" stroke-width="5"/>
	<path d="M205,63c0,29.1849 5.45312,58.56258 3,88c-0.1855,2.22595 -1,31 -1,31c0,0 0,-8.63385 0,-10" fill="none" stroke="black" stroke-linecap="round" stroke-width="5"/>
	<path d="M234,53c0,21.98601 -5.83443,52.84099 -9,75c-0.85111,5.9578 -9,33.71313 -9,29" fill="none" stroke="black" stroke-linecap="round" stroke-width="5"/>
	<path d="M266,54c0,20.33108 -7.39234,75.48084 -14,92c-6.91282,17.28204 -27,41.59686 -27,57" fill="none" stroke="black" stroke-linecap="round" stroke-width="5"/>
	<path d="M127,173c-12.92421,0 -39.82522,27.34956 -33,41c4.21854,8.43708 26.86151,7.72302 34,22c5.03473,10.06946 -24.71857,23.82514 3,46c10.41732,8.33385 26.36147,-1 38,-1c16.8855,0 105.56884,4.21558 116,-1c0.82474,-0.41237 -0.25523,-8.97909 0,-10c2.33646,-9.34582 10.19189,-16.95947 12,-26c2.397,-11.98501 2.93158,-45.53421 -10,-52c-14.6153,-7.30765 -36.15111,4.28296 -52,-1c-3.66324,-1.22108 -15.65059,-3.65059 -18,-6c-4.0486,-4.0486 -3.4589,-10.22945 -11,-14c-7.84573,-3.92287 -22.3289,-0.21172 -31,-1c-9.56282,-0.86935 -24.63951,-9.12016 -34,-6c-16.7281,5.57603 -31.76259,7 -50,7" fill="none" stroke="black" stroke-linecap="round" stroke-width="5"/>
</svg>
