<?xml version="1.0" ?>
<svg baseProfile="full" height="300" version="1.1" viewBox="[0, 0, 300, 300]" width="300" xmlns="http://www.w3.org/2000/svg" xmlns:ev="http://www.w3.org/2001/xml-events" xmlns:xlink="http://www.w3.org/1999/xlink">
	<defs/>
	<path d="M57,27c12.61525,0 27.01341,-6.24665 40,-3c27.74556,6.93639 100.56885,5 132,5c10.90915,0 49.66293,11.67414 42,27c-18.43008,36.86015 -108.6101,30.47798 -146,23c-10.00842,-2.00168 -20.93244,1.01351 -31,-1c-13.55647,-2.71129 -42.37967,5.62033 -53,-5c-29.89199,-29.89199 9.67836,-49 40,-49" fill="none" stroke="black" stroke-linecap="round" stroke-width="5"/>
	<path d="M153,40c-6.77201,0 -12.44114,-1 -19,-1c-5.20763,0 -10.35618,1 -16,1c-13.70669,0 -5.16451,8.83549 -2,12c0.26471,0.26471 2.58824,0 3,0c9.63138,0 67.52882,3.94235 70,-1c1.65672,-3.31344 -2.26628,-4.13314 -4,-5c-13.6907,-6.84535 -36.97842,-13.34053 -53,-8c-0.31623,0.10541 -0.66667,0 -1,0" fill="none" stroke="black" stroke-linecap="round" stroke-width="5"/>
	<path d="M47,82c2.12127,0 2.31894,2.29734 3,4c8.43901,21.09752 12.81519,44.44557 20,66c2.36,7.08 6.5376,14.68801 8,22c0.19612,0.98058 0,4 0,3" fill="none" stroke="black" stroke-linecap="round" stroke-width="5"/>
	<path d="M107,88c2.64402,0 4.24238,5.23223 5,7c8.26182,19.27757 10.83005,45.39532 14,66c0.92591,6.01843 2,25.75025 2,25" fill="none" stroke="black" stroke-linecap="round" stroke-width="5"/>
</svg>
