<?xml version="1.0" ?>
<svg baseProfile="full" height="300" version="1.1" viewBox="[0, 0, 300, 300]" width="300" xmlns="http://www.w3.org/2000/svg" xmlns:ev="http://www.w3.org/2001/xml-events" xmlns:xlink="http://www.w3.org/1999/xlink">
	<defs/>
	<path d="M21,56c13.27605,0 24.88694,-25.29565 39,-30c18.94218,-6.31406 41.17337,-9.58381 61,-11c2.07943,-0.14853 30.09098,-1.81804 31,0c0.9803,1.9606 1.68498,24.31502 0,26c-0.82702,0.82702 -6.5388,0 -8,0c-20.26663,0 -41.2701,-4.07299 -62,-2c-23.15031,2.31503 -35.16717,14.16717 -49,28c-6.41991,6.41991 -10.77522,-12 -11,-12" fill="none" stroke="black" stroke-linecap="round" stroke-width="5"/>
	<path d="M36,65c6.90294,3.45147 20.55265,39.84216 23,48c1.19409,3.9803 5.38372,24.23256 7,21" fill="none" stroke="black" stroke-linecap="round" stroke-width="5"/>
	<path d="M150,40c3.6806,7.36119 19.38663,56.84012 16,67c-0.03846,0.11538 -2.76923,0 -3,0c-9.05568,0 -18.12807,2.02846 -27,4c-24.18614,5.3747 -44.65398,15.1308 -69,20c-2.36847,0.47369 1.54072,24.16289 2,26c1.36811,5.47243 0.42816,12.42816 5,17c9.85131,9.85131 79.37277,-30.74553 87,-46c1.62266,-3.24533 5.5012,-20.5012 6,-21c0.49587,-0.49587 4.29752,0 5,0c13.26088,0 25.76448,-2 39,-2" fill="none" stroke="black" stroke-linecap="round" stroke-width="5"/>
	<path d="M163,132c17.45678,0 33.29489,22 51,22" fill="none" stroke="black" stroke-linecap="round" stroke-width="5"/>
	<path d="M59,54c18.74813,18.74813 15.95756,59.95756 24,68" fill="none" stroke="black" stroke-linecap="round" stroke-width="5"/>
	<path d="M89,42c10.36106,14.50548 25.79782,75.79782 30,80" fill="none" stroke="black" stroke-linecap="round" stroke-width="5"/>
	<path d="M120,41c9.67087,19.34173 26,41.93406 26,65" fill="none" stroke="black" stroke-linecap="round" stroke-width="5"/>
	<path d="M63,130c-3.79658,3.79658 -18,19.25553 -18,24" fill="none" stroke="black" stroke-linecap="round" stroke-width="5"/>
	<path d="M69,175c2.29239,0 -2,24.52276 -2,28" fill="none" stroke="black" stroke-linecap="round" stroke-width="5"/>
</svg>
