<?xml version="1.0" ?>
<svg baseProfile="full" height="300" version="1.1" viewBox="[0, 0, 300, 300]" width="300" xmlns="http://www.w3.org/2000/svg" xmlns:ev="http://www.w3.org/2001/xml-events" xmlns:xlink="http://www.w3.org/1999/xlink">
	<defs/>
	<path d="M72,58c0,10.957 -10.18936,112.81064 -4,119c14.24726,14.24726 52.01516,16.01516 66,30c6.50575,6.50575 5,30.20103 5,40c0,6.31823 1.55912,22.44088 -2,26c-2.77373,2.77373 -65.56204,-12.12407 -68,-17c-0.77984,-1.55968 -3.0366,-4.9268 -2,-7c5.98422,-11.96845 26.16219,-10.08109 36,-15c11.36941,-5.68471 23.18595,-2.93684 35,-8c11.4584,-4.91074 55.74304,-23.12848 68,-17c7.44226,3.72113 41.58339,30.70831 45,29c9.13659,-4.5683 10.76243,-73.23757 4,-80c-5.03761,-5.03761 -26.45418,13.15139 -32,15c-13.84512,4.61504 -26.02579,11.34193 -40,16c-9.87357,3.29119 -22.02627,1.67542 -32,5c-4.19189,1.3973 -8.9358,6 -13,6" fill="none" stroke="black" stroke-linecap="round" stroke-width="5"/>
	<path d="M68,123c11.94732,0 64.19665,10.58994 68,22c5.5024,16.50719 7,26.80603 7,46c0,1 -0.70711,2.29289 0,3c0.38257,0.38257 4.64926,0 5,0" fill="none" stroke="black" stroke-linecap="round" stroke-width="5"/>
	<path d="M163,109c16.21816,0 37.82905,-3.05698 53,2c3.83238,1.27746 5.73323,6.68331 11,8c0.88406,0.22102 5.31903,-0.68097 6,0c14.27299,14.27299 10.49764,47.49764 13,50c1.0255,1.0255 1,-6.93778 1,-8" fill="none" stroke="black" stroke-linecap="round" stroke-width="5"/>
</svg>
