<?xml version="1.0" ?>
<svg baseProfile="full" height="300" version="1.1" viewBox="[0, 0, 300, 300]" width="300" xmlns="http://www.w3.org/2000/svg" xmlns:ev="http://www.w3.org/2001/xml-events" xmlns:xlink="http://www.w3.org/1999/xlink">
	<defs/>
	<path d="M58,48c0,35.01638 -6.90508,78.09492 14,99c8.73275,8.73275 39.05136,22.98288 57,17c3.22732,-1.07577 23.41469,-11.58531 25,-10c2.07084,2.07084 2.02967,8.02967 4,10c3.19621,3.19621 -0.01874,31.05622 -1,34c-2.83943,8.51828 2.18609,47.60464 -5,50c-23.65921,7.8864 -66.67167,-1.67167 -80,-15c-0.90571,-0.90571 -5.73077,-7.26923 -3,-10c17.25669,-17.25669 97.95768,-45 123,-45c6.12639,0 35.56692,-4.43308 37,-3c3.29892,3.29892 9.67617,3.67617 14,8c7.38712,7.38712 11.91312,14.91312 19,22c0.4714,0.4714 1.33333,0 2,0c1,0 2.05132,0.31623 3,0c0.44721,-0.14907 0.66667,-0.66667 1,-1c1,-1 2,-2 3,-3c1.73655,-1.73655 0.458,-2.83201 1,-5c0.91935,-3.67742 7.81459,-71.18541 6,-73c-1.3444,-1.3444 -7.29264,1.29264 -8,2c-10.65519,10.65519 -52.94774,5.05226 -63,-5c-17.08477,-17.08477 6.27897,-78.72103 -2,-87c-3.88126,-3.88126 -29.63693,2 -36,2c-34.61283,0 -68.32114,-1 -103,-1" fill="none" stroke="black" stroke-linecap="round" stroke-width="5"/>
	<path d="M71,92c28.86404,0 50.28633,11.14316 72,22c11.42842,5.71421 -2.32975,29.67025 5,37c0.5775,0.5775 5.99986,-2 7,-2" fill="none" stroke="black" stroke-linecap="round" stroke-width="5"/>
	<path d="M206,74c2.5893,-2.5893 6.7368,-6.3684 10,-8c2.74931,-1.37466 14.7488,3 19,3c10.43485,0 36.51077,-7.97846 42,3c3.55804,7.11607 -2.12313,43 -4,43" fill="none" stroke="black" stroke-linecap="round" stroke-width="5"/>
</svg>
