<?xml version="1.0" ?>
<svg baseProfile="full" height="300" version="1.1" viewBox="[0, 0, 300, 300]" width="300" xmlns="http://www.w3.org/2000/svg" xmlns:ev="http://www.w3.org/2001/xml-events" xmlns:xlink="http://www.w3.org/1999/xlink">
	<defs/>
	<path d="M60,40c-1.97063,0 -1,22.84125 -1,26c0,27.56479 -2.6128,56.54878 4,83c6.68173,26.72692 0.41612,120.80537 25,129c38.88909,12.96303 26.91605,-55.74816 33,-74c2.21326,-6.63979 5.40432,-14.61728 7,-21c1.99451,-7.97806 25.09817,-28.90183 34,-20c22.30358,22.30358 9.96269,62.85077 18,95c1.72191,6.88763 3.16108,33.27964 13,30c14.45795,-4.81932 10.41389,-75.06945 13,-88c1.68552,-8.4276 3.33524,-22.00287 8,-29c2.94869,-4.42304 9.36529,-4.36529 12,-7c2.01384,-2.01384 -5.152,-3 -8,-3" fill="none" stroke="black" stroke-linecap="round" stroke-width="5"/>
	<path d="M100,135c0,-1.60587 5.84845,2.61615 7,3c7.97968,2.65989 16.36499,7.84125 25,10c15.3475,3.83688 51.76691,17.76691 60,26c12.09063,12.09063 82.77613,-43 86,-43c0.91125,0 -0.83713,3.83713 -1,4" fill="none" stroke="black" stroke-linecap="round" stroke-width="5"/>
	<path d="M238,153c2.92764,0 -1.31752,12.22263 -2,17c-1.5903,11.13209 -0.57486,24.70055 2,35c0.34248,1.36992 0.58857,15.41143 6,10c21.75863,-21.75863 16,-53.85359 16,-87" fill="none" stroke="black" stroke-linecap="round" stroke-width="5"/>
	<path d="M273,133c0,-0.69539 3.36906,-3.26187 4,-2c2.66982,5.33964 0,20.11454 0,26c0,23.02093 -5.15147,53.54558 2,75c0.93879,2.81638 2.71003,7.14499 7,5c10.54194,-5.27097 8,-94.51407 8,-108c0,-2.23392 0.48133,-7.51867 -1,-9c-4.39928,-4.39928 -20,14.17834 -20,12" fill="none" stroke="black" stroke-linecap="round" stroke-width="5"/>
	<path d="M66,38c20.15757,0 139.11291,-26.88709 154,-12c14.1615,14.1615 -2.6599,41.6802 6,59c7.5875,15.175 37.88304,11.44152 51,18c9.22907,4.61454 8,12.80819 8,5" fill="none" stroke="black" stroke-linecap="round" stroke-width="5"/>
</svg>
