<?xml version="1.0" ?>
<svg baseProfile="full" height="300" version="1.1" viewBox="[0, 0, 300, 300]" width="300" xmlns="http://www.w3.org/2000/svg" xmlns:ev="http://www.w3.org/2001/xml-events" xmlns:xlink="http://www.w3.org/1999/xlink">
	<defs/>
	<path d="M67,35c0,-1.72523 -2.5045,-1 -4,-1c-9.4807,0 -10,10.75317 -10,18c0,17.67168 5,35.47563 5,54c0,34.97576 -5,70.50484 -5,103c0,5.40168 -3.4425,30.5575 0,34c3.50741,3.50741 10.13994,6.13994 14,10c3.78729,3.78729 17,-13.34843 17,-18c0,-4.01224 3.4473,-11.3419 5,-16c3.68225,-11.04675 -1.74436,-51.25564 5,-58c5.94373,-5.94373 14.38507,-5 24,-5c2.4804,0 14.40149,-1.59851 16,0c23.15005,23.15005 -8.85836,102.14164 10,121c5.0924,5.0924 11.34496,-16.37983 12,-19c3.23154,-12.92616 6.8748,-82.8748 11,-87c6.09386,-6.09386 25.67049,2.32951 32,-4c2.32879,-2.32879 22.7832,-11.6084 26,-10c9.41887,4.70944 -5.40491,53.70245 8,47c15.91387,-7.95693 7.45508,-37.72754 22,-45c0.19776,-0.09888 5.28026,-3.71974 6,-3c15.28823,15.28823 -32.86698,92.06651 -1,108c28.49889,14.24944 23.35187,-71.05562 27,-82c3.92797,-11.78392 2,-28.00519 2,-41c0,-1.33333 0.56667,-2 -1,-2" fill="none" stroke="black" stroke-linecap="round" stroke-width="5"/>
	<path d="M83,121c14.17044,0 68.08021,19.0401 80,25c5.86214,2.93107 7.66087,7.83043 14,11c9.88771,4.94385 52.12621,-19.78155 65,-23c15.77646,-3.94412 26.63321,-5.31661 40,-12c0.96277,-0.48139 3.19481,0.38961 2,-2c-2.20605,-4.4121 -12.54848,-7.66136 -17,-11c-8.73113,-6.54835 -24.0118,-10.0118 -31,-17c-4.23819,-4.23819 -21.75794,4.15159 -26,5c-26.44641,5.28928 -54.75437,7.58479 -80,16c-9.08041,3.0268 -14.49767,9 -25,9" fill="none" stroke="black" stroke-linecap="round" stroke-width="5"/>
</svg>
