<?xml version="1.0" ?>
<svg baseProfile="full" height="300" version="1.1" viewBox="[0, 0, 300, 300]" width="300" xmlns="http://www.w3.org/2000/svg" xmlns:ev="http://www.w3.org/2001/xml-events" xmlns:xlink="http://www.w3.org/1999/xlink">
	<defs/>
	<path d="M55,43c0,11 0,22 0,33c0,4 0,8 0,12c0,1.33333 -1.33333,4 0,4c9.17402,0 21.26951,-7.08984 30,-10c11.15192,-3.71731 27.92582,-2 40,-2c5.42129,0 16.23159,-2.17894 21,1c2.89907,1.93271 19.06786,8.93214 20,8c5.05099,-5.05099 12.65543,-39.68915 9,-47c-0.57081,-1.14161 -23.35004,-1.45001 -25,-2c-23.74887,-7.91629 -56.60166,-10.34959 -82,-4c-8.60237,2.15059 -14.16078,12 -24,12" fill="none" stroke="black" stroke-linecap="round" stroke-width="5"/>
	<path d="M76,80c0,28.87368 4,60.02429 4,90" fill="none" stroke="black" stroke-linecap="round" stroke-width="5"/>
	<path d="M108,79c0,19.40397 -1,38.59945 -1,58c0,3.95619 3,35.59217 3,25" fill="none" stroke="black" stroke-linecap="round" stroke-width="5"/>
	<path d="M136,85c0,-3.40468 1.80193,3.00967 2,4c1.32858,6.64292 1,13.19705 1,20c0,19.66667 0,39.33333 0,59" fill="none" stroke="black" stroke-linecap="round" stroke-width="5"/>
	<path d="M161,90c-3.40859,0 1,27.95927 1,30c0,10.93025 2.21245,22.08799 1,33c-0.98044,8.82399 -7,15.89982 -7,23" fill="none" stroke="black" stroke-linecap="round" stroke-width="5"/>
	<path d="M59,165c0,11.70743 2.92495,44.92495 10,52c0.76822,0.76822 9.07703,-5.63081 10,-6c8.64283,-3.45713 17.74837,-4.67834 27,-6c22.71717,-3.24531 85.8643,-8.43215 105,-18c0.36782,-0.18391 0,-3.35632 0,-4c0,-7.83466 4.72652,-23.54695 1,-31c-0.73628,-1.47256 -1.32679,-1.32679 -2,-2c-8.45124,-8.45124 -48.6834,4.2278 -63,9c-17.33324,5.77775 -41.00181,-2.59964 -59,1c-9.35285,1.87057 -34,5.60304 -34,9" fill="none" stroke="black" stroke-linecap="round" stroke-width="5"/>
	<path d="M61,181c0,17.49508 3,33.61065 3,51c0,6.33333 0,12.66667 0,19c0,2.29742 -2,8.18437 -2,6" fill="none" stroke="black" stroke-linecap="round" stroke-width="5"/>
</svg>
