<?xml version="1.0" ?>
<svg baseProfile="full" height="300" version="1.1" viewBox="[0, 0, 300, 300]" width="300" xmlns="http://www.w3.org/2000/svg" xmlns:ev="http://www.w3.org/2001/xml-events" xmlns:xlink="http://www.w3.org/1999/xlink">
	<defs/>
	<path d="M73,40c-27.74397,0 -22,26.42565 -22,49c0,40.7847 4,82.32282 4,124c0,4.48359 -0.4541,40.5459 0,41c3.9936,3.9936 3.30655,13.30655 8,18c6.89183,6.89183 16.77126,-14.54252 18,-17c11.99207,-23.98414 -14.32576,-88.33712 13,-102c10.62684,-5.31342 20.71784,7.14523 28,12c34.24283,22.82855 6.63783,93.63783 19,106c11.50863,11.50863 19.15399,-19.30798 21,-23c4.73761,-9.47522 -3.61759,-75.38241 1,-80c2.50297,-2.50297 10.62721,-0.1568 14,-1c3.54975,-0.88744 17.94351,-9.05649 22,-5c8.20234,8.20234 -2.90906,37.54547 8,43c19.13953,9.56977 15.91733,-44.91733 20,-49c0.99071,-0.99071 6.69191,-0.34596 8,-1c2.37619,-1.1881 7.56547,-2.43453 9,-1c6.03872,6.03872 -5.56165,107.43835 2,115c5.646,5.646 15.34765,-10.69529 17,-14c10.20612,-20.41224 6,-58.62971 6,-83c0,-3.21173 0.89036,-28 -1,-28" fill="none" stroke="black" stroke-linecap="round" stroke-width="5"/>
	<path d="M97,120c0,8.02431 16.93552,19.96776 23,23c10.84092,5.42046 15.60164,15.20055 27,19c9.48096,3.16032 58.184,-16.796 71,-20c11.12461,-2.78115 23.22775,-2 35,-2c0.35074,0 4.61743,0.38257 5,0c3.96097,-3.96097 -19.45211,-35.45211 -23,-39c-3.89943,-3.89943 -16.39754,-1.76708 -21,-1c-15.75957,2.62659 -31.78374,2 -48,2c-21.28739,0 -42.03679,11 -62,11" fill="none" stroke="black" stroke-linecap="round" stroke-width="5"/>
	<path d="M64,47c0,-3.79906 49.99773,-10.71396 59,-12c6.49926,-0.92847 99.92937,-19.07063 105,-14c10.54297,10.54297 9,40.55414 9,56c0,0.83553 1,7 1,7c0,0 -2.27024,-4 -4,-4" fill="none" stroke="black" stroke-linecap="round" stroke-width="5"/>
</svg>
