<?xml version="1.0" ?>
<svg baseProfile="full" height="300" version="1.1" viewBox="[0, 0, 300, 300]" width="300" xmlns="http://www.w3.org/2000/svg" xmlns:ev="http://www.w3.org/2001/xml-events" xmlns:xlink="http://www.w3.org/1999/xlink">
	<defs/>
	<path d="M36,24c0,15.48905 -5.95463,38.13612 -1,53c6.74294,20.22883 11,86.3538 11,110c0,9.86298 -2.90983,61.09017 1,65c4.90862,4.90862 12,-16.5079 12,-21c0,-8.43428 -0.562,-86.438 2,-89c4.45577,-4.45577 42.05067,4.10133 44,8c15.06152,30.12305 -7.02692,78.94616 9,111c0.99114,1.98228 7.54816,5.84939 11,7c35.48276,11.82759 21.7899,-92.7899 33,-104c2.48852,-2.48852 17.48405,2.37101 20,3c7.81918,1.9548 25.98094,-4.01906 31,1c5.62064,5.62064 -0.06764,25.93236 5,31c2.00496,2.00496 6.81571,-2.21047 8,-3c19.33887,-12.89258 3.78743,-34 27,-34c1.54862,0 5.64899,-1.35101 6,-1c0.38257,0.38257 0,4.64926 0,5c0,9.79599 -6.50419,92.49581 -2,97c3.95577,3.95577 14.47382,-5.47382 16,-7c10.91452,-10.91452 20.86902,-124.13098 8,-137c-1.92231,-1.92231 -19.6907,10 -24,10c-20.0933,0 -80.51838,11.75919 -97,20c-5.82977,2.91489 -39.97732,-20 -48,-20c-1.79505,0 -5,-2 -5,-2c0,0 30.06504,-7.84417 31,-8c23.98265,-3.99711 79.74234,-4.74234 96,-21c1.50992,-1.50992 4.49051,1.69431 5,2c11.76403,7.05842 23.14555,16.07278 35,22c7.17869,3.58934 8.04715,1.01572 -1,-2" fill="none" stroke="black" stroke-linecap="round" stroke-width="5"/>
	<path d="M201,100c0,-19.91923 -14.20005,-53.5999 -5,-72c0.10256,-0.20513 0.14103,-2.85897 0,-3c-13.77079,-13.77079 -93.19395,-8.70151 -112,-4c-3.54504,0.88626 -28.33753,-0.66247 -31,2c-3.39158,3.39158 -7.72686,7.72686 -10,10c-2.05153,2.05153 1.43902,2.71951 2,3c11.49263,5.74631 33.84109,2 48,2c22.29815,0 48.28207,3.34359 70,-1c6.64158,-1.32832 24.96303,-5 31,-5" fill="none" stroke="black" stroke-linecap="round" stroke-width="5"/>
	<path d="M53,38c0,10.44908 -5.92534,71.07466 1,78c3.89645,3.89645 23.24619,-2.81155 28,-4c15.97368,-3.99342 84.46791,0.53209 95,-10c5.41794,-5.41794 2.51204,-56 -6,-56" fill="none" stroke="black" stroke-linecap="round" stroke-width="5"/>
	<path d="M124,159c0,12.73023 -6.00606,85.99697 0,89c0.44863,0.22432 3.00824,-1.50412 4,-2c6.92992,-3.46496 19,-66.26134 19,-77c0,-1.6475 -0.83424,-9 1,-9" fill="none" stroke="black" stroke-linecap="round" stroke-width="5"/>
	<path d="M214,162c6.08913,0 -1.68992,17.65504 3,20c8.02249,4.01125 11.57711,-8.73134 13,-13c0.44542,-1.33626 2,-9.07555 2,-7" fill="none" stroke="black" stroke-linecap="round" stroke-width="5"/>
	<path d="M260,159c0,26.71597 -11.78084,63.43832 1,89c1.43556,2.87111 0.25526,10.87237 6,8c6.32295,-3.16148 9.80179,-68.00895 12,-79c1.15465,-5.77324 -4.01739,-26 -4,-26" fill="none" stroke="black" stroke-linecap="round" stroke-width="5"/>
</svg>
