<?xml version="1.0" ?>
<svg baseProfile="full" height="300" version="1.1" viewBox="[0, 0, 300, 300]" width="300" xmlns="http://www.w3.org/2000/svg" xmlns:ev="http://www.w3.org/2001/xml-events" xmlns:xlink="http://www.w3.org/1999/xlink">
	<defs/>
	<path d="M55,239c13.96387,0 56.19466,54.87023 80,39c21.33625,-14.22417 21,-67.70035 21,-93c0,-1.13888 -2.35643,-5.64357 -2,-6c0.2357,-0.2357 0.66667,0 1,0c19.81989,0 43.99437,-9 67,-9c8.66171,0 21.58845,-13.70578 29,-10c4.6711,2.33555 1.82172,82.71313 0,90c-0.64225,2.56902 -0.36607,5.12202 -3,6c-37.12535,12.37512 -36.23039,-33.41013 -62,-42c-20.23417,-6.74472 -70.89804,4.96601 -89,11c-9.6,3.2 -22.4,-3.2 -32,0c-4.26776,1.42259 -4.92425,7 -10,7" fill="none" stroke="black" stroke-linecap="round" stroke-width="5"/>
	<path d="M156,181c0,-4.70104 -11.9732,3 -13,3c-7.14652,0 -21.15527,4.38509 -29,7c-21.17507,7.05836 -49,-10.85735 -49,-32" fill="none" stroke="black" stroke-linecap="round" stroke-width="5"/>
	<path d="M63,151c0,-28.65886 1,-57.11969 1,-86c0,-0.48353 -0.46918,-7.76541 0,-8c22.56877,-11.28439 114.47896,-29.26052 139,-17c1.81353,0.90676 0.35882,4.07646 1,6c3.11811,9.35432 13.15583,71.84417 5,80c-0.2357,0.2357 -0.66667,0 -1,0c-30.32035,0 -60.30422,12 -91,12c-9.47582,0 -20.03645,-0.24089 -29,2c-2.95787,0.73947 -12.38109,3 -12,3" fill="none" stroke="black" stroke-linecap="round" stroke-width="5"/>
</svg>
