<?xml version="1.0" ?>
<svg baseProfile="full" height="300" version="1.1" viewBox="[0, 0, 300, 300]" width="300" xmlns="http://www.w3.org/2000/svg" xmlns:ev="http://www.w3.org/2001/xml-events" xmlns:xlink="http://www.w3.org/1999/xlink">
	<defs/>
	<path d="M48,37c0,17.67428 -0.80882,143.61764 -6,154c-5.42244,10.84488 -3,36.27084 -3,49c0,0.61024 -0.38964,3.61036 0,4c8.68806,8.68806 14.34686,-13.69372 16,-17c5.35427,-10.70854 7.21559,-74.60779 12,-77c2.51047,-1.25523 4.31227,0.68773 6,-1c2.54189,-2.54189 40.34179,1.02537 42,6c7.53663,22.60989 0.79822,106.79822 10,116c6.11892,6.11892 25.58784,-7.35136 27,-13c7.36046,-29.44183 4,-60.80588 4,-91c0,-1.76494 -1.22595,-10.77405 0,-12c2.35702,-2.35702 5.01858,4.50929 8,6c4.29585,2.14792 18.0128,-1.9872 21,1c3.30609,3.30609 4.93083,28.93083 15,39c0.14103,0.14103 2.79487,0.10256 3,0c13.05786,-6.52893 6.14786,-30.14786 14,-38c2.32103,-2.32103 9.53241,-0.2662 13,-2c1.49889,-0.74944 10.47963,-2.52037 12,-1c5.14893,5.14893 0.3403,76.63882 -2,86c-0.56233,2.24932 -4.50057,13.49943 -2,16c2.48003,2.48003 15.3512,1.6488 18,-1c4.69111,-4.69111 7.84933,-13.548 10,-20c1.7,-5.1 -1.7,-11.9 0,-17c9.14923,-27.44768 5,-62.76476 5,-90c0,-0.33333 0.2357,-0.7643 0,-1c-1.33371,-1.33371 -5.48521,-5.74261 -8,-7c-18.26171,-9.13086 -47.27334,-9.13667 -63,-17c-4.0246,-2.0123 -11.12328,1.87672 -14,-1c-9.83655,-9.83655 4.00995,-76.99005 -5,-86c-7.83656,-7.83656 -34.25004,-6.31251 -45,-9c-7.47303,-1.86826 -24.47166,-3.50945 -32,-1c-10.93924,3.64641 -53.79912,11.59824 -58,20c-0.53979,1.07958 -6.5291,8.73545 -4,10c14.07828,7.03914 119.34411,-18.65589 128,-10c6.80075,6.80075 5,33.12452 5,43c0,10.51254 2.69139,33.30861 -4,40c-0.94281,0.94281 -2.73509,0.42164 -4,0c-12.58843,-4.19614 -27.65047,-0.33009 -41,-3c-14.14087,-2.82817 -32.35975,0 -47,0c-1.2963,0 -6.0379,1.9621 -7,1c-7.77062,-7.77062 -12,-55.74233 -12,-70" fill="none" stroke="black" stroke-linecap="round" stroke-width="5"/>
	<path d="M74,108c0,5.17036 -2.42141,19.57859 1,23c13.54252,13.54252 147.94725,22.05275 165,5c1.29279,-1.29279 -0.7973,-3.7973 -1,-4c-9.5631,-9.5631 -26.62611,-14.94659 -41,-17c-10.29669,-1.47096 -22.66977,-10 -32,-10" fill="none" stroke="black" stroke-linecap="round" stroke-width="5"/>
</svg>
