<?xml version="1.0" ?>
<svg baseProfile="full" height="300" version="1.1" viewBox="[0, 0, 300, 300]" width="300" xmlns="http://www.w3.org/2000/svg" xmlns:ev="http://www.w3.org/2001/xml-events" xmlns:xlink="http://www.w3.org/1999/xlink">
	<defs/>
	<path d="M62,43c12.31307,0 28.08489,-5.41698 41,-8c14.20216,-2.84043 30.53428,-1 45,-1c9.71728,0 18.64139,-2 28,-2c3.35231,0 17.78564,1 14,1" fill="none" stroke="black" stroke-linecap="round" stroke-width="5"/>
	<path d="M65,42c0,15.04086 -11.00624,34.98129 -5,53c10.81477,32.44431 10.29882,70.49408 17,104c2.92633,14.63165 2.69264,28.69264 12,38c0.41594,0.41594 7.50029,2.49971 9,1c14.24031,-14.24031 -1.7365,-70.2635 11,-83c5.22627,-5.22627 33.80081,0.60162 36,5c7.14736,14.29472 -8.12112,95.56056 19,82c5.15561,-2.5778 5.16168,-13.48503 7,-19c2.8,-8.4 -2.8,-19.6 0,-28c3.59378,-10.78134 0,-26.29995 0,-36" fill="none" stroke="black" stroke-linecap="round" stroke-width="5"/>
	<path d="M166,159c13.28975,0 27.37715,-5.37715 35,-13c5.44706,-5.44706 23.58221,-2.29111 31,-6c0.12468,-0.06234 0.12468,-3.75065 0,-4c-6.31816,-12.63633 -13.75054,-25.37527 -25,-31c-12.63818,-6.31909 -99.97829,7.97829 -112,20c-2.03281,2.03281 4.27026,6.27026 5,7c5.39107,5.39107 60.31907,25 69,25" fill="none" stroke="black" stroke-linecap="round" stroke-width="5"/>
</svg>
