<?xml version="1.0" ?>
<svg baseProfile="full" height="300" version="1.1" viewBox="[0, 0, 300, 300]" width="300" xmlns="http://www.w3.org/2000/svg" xmlns:ev="http://www.w3.org/2001/xml-events" xmlns:xlink="http://www.w3.org/1999/xlink">
	<defs/>
	<path d="M68,35c-1.912,0 -10.78322,-1.21678 -12,0c-6.14591,6.14591 0,42.36237 0,54c0,29.06873 10.25146,92.24562 2,117c-1.55379,4.66137 -11.58989,40.41011 -8,44c2.83333,2.83333 9.16667,2.16667 12,5c8.41411,8.41411 17.01582,-14.06329 18,-18c3.97197,-15.88788 3.23477,-76.23477 12,-85c3.41252,-3.41252 34.38695,11.38695 37,14c9.67777,9.67777 -13.65167,84.34833 6,104c3.1209,3.1209 7.65026,-2.30052 8,-3c11.79408,-23.58817 17,-58.8953 17,-86c0,-0.66667 -0.4714,-1.5286 0,-2c10.78255,-10.78255 60.47792,-3.07965 78,-6c3.30438,-0.55073 10,-1 10,-1c0,0 -12.42521,-0.57479 -13,0c-4.85069,4.85069 1.17637,36.17637 3,38c1.69992,1.69992 7.95544,-0.95544 9,-2c6.49345,-6.49345 9,-24.93539 9,-34c0,-0.74536 0.66667,-1.33333 1,-2c0.14907,-0.29814 -0.10541,-0.68377 0,-1c0.33333,-1 0.25464,-2.25464 1,-3c0.83784,-0.83784 1.74014,3.48029 2,4c2.49816,4.99633 5,9.03936 5,15c0,1.0203 0.59473,7.40527 2,6c3.54096,-3.54096 -10,-24 -10,-24c0,0 26.84365,-4.15635 28,-3c0.79574,0.79574 0,5.87053 0,7c0,26.87393 -3,52.69541 -3,79c0,9.5691 7.97436,-1.89745 9,-6c3.70323,-14.81292 2.27149,-32.08596 6,-47c14.53494,-58.13976 -13.60563,-61.59859 -64,-49c-17.36595,4.34149 -39.876,1 -58,1c-1.85666,0 -30,4.13909 -30,1" fill="none" stroke="black" stroke-linecap="round" stroke-width="5"/>
	<path d="M104,127c7.35683,0 44.50627,22.75313 53,27c0.83048,0.41524 3.05197,0 4,0c4.8708,0 11.15506,-3.78876 16,-5c22.03287,-5.50822 50.09953,-1.36651 70,-8c1.44436,-0.48145 7.54558,-2.36325 7,-4c-13.94272,-41.82815 -30.43541,-33 -66,-33c-15.41422,0 -39.62547,-1.18727 -54,6c-8.15995,4.07998 -18.15483,9 -28,9" fill="none" stroke="black" stroke-linecap="round" stroke-width="5"/>
</svg>
