<?xml version="1.0" ?>
<svg baseProfile="full" height="300" version="1.1" viewBox="[0, 0, 300, 300]" width="300" xmlns="http://www.w3.org/2000/svg" xmlns:ev="http://www.w3.org/2001/xml-events" xmlns:xlink="http://www.w3.org/1999/xlink">
	<defs/>
	<path d="M159,198c-10.86316,0 -21.67546,10.93509 -32,13c-18.01742,3.60348 -52.18528,3.37056 -61,21c-5.38356,10.76712 46.07036,28.07036 50,32c0.4714,0.4714 1.40372,0.29814 2,0c3.11607,-1.55804 13,-66.88082 13,-73c0,-1.6746 2,-24 2,-24c0,0 -3.6868,2.6868 -4,3c-9.27769,9.27769 -28.49158,4.75421 -40,-1c-6.82122,-3.41061 -12.67418,-8.67418 -18,-14c-2.68379,-2.68379 -16.06023,-19 -14,-19" fill="none" stroke="black" stroke-linecap="round" stroke-width="5"/>
	<path d="M157,191c0,9.85195 24.50692,8.01385 28,15c6.61206,13.22413 24.71022,15.71022 35,26c0.24671,0.24671 2.87978,3.12022 4,2c0.74536,-0.74536 0.41529,-2.12294 1,-3c9.57614,-14.36421 6,-39.83175 6,-57c0,-0.40728 0.2495,-3.87525 0,-4c-6.02108,-3.01054 -14.20459,4.26514 -21,2c-18.2943,-6.0981 -48,-30.77335 -48,-53" fill="none" stroke="black" stroke-linecap="round" stroke-width="5"/>
	<path d="M56,133c34.21095,0 68.90608,-11 100,-11" fill="none" stroke="black" stroke-linecap="round" stroke-width="5"/>
</svg>
