<?xml version="1.0" ?>
<svg baseProfile="full" height="300" version="1.1" viewBox="[0, 0, 300, 300]" width="300" xmlns="http://www.w3.org/2000/svg" xmlns:ev="http://www.w3.org/2001/xml-events" xmlns:xlink="http://www.w3.org/1999/xlink">
	<defs/>
	<path d="M38,28c0,25.01712 -6.80632,119.19368 6,132c8.71601,8.71601 30.4366,19.7817 44,13c2.20869,-1.10435 16,-12 16,-12c0,0 0,23.1469 0,25c0,23.96276 -4,47.26181 -4,72c0,1.2602 0.92137,8.07863 0,9c-1.69276,1.69276 -91.9504,-8.0496 -60,-40c3.29664,-3.29664 84.91551,-24.6385 98,-29c4.39709,-1.4657 21.34691,-10.65309 24,-8c7.34147,7.34147 27.80179,43.0991 42,36c9.41874,-4.70937 5.43926,-30.87853 10,-40c0.98973,-1.97947 7.17899,-48.82101 5,-51c-0.26471,-0.26471 -2.58824,0 -3,0c-8.66726,0 -21.92292,5.53854 -31,1c-13.65626,-6.82813 -24.04375,-21.04375 -35,-32c-8.83196,-8.83196 7.4208,-81.5792 -1,-90c-2.06073,-2.06073 -9.02892,-1.25723 -12,-2c-25.32818,-6.33205 -49.27039,-1.1824 -74,5c-4.51502,1.12875 -13.72816,6 -16,6c-2.35033,0 -8,2.30624 -8,4" fill="none" stroke="black" stroke-linecap="round" stroke-width="5"/>
	<path d="M43,87c65.5008,0 62,30.16227 62,89" fill="none" stroke="black" stroke-linecap="round" stroke-width="5"/>
	<path d="M150,63c26.53531,0 49.85997,-0.28005 60,20c3.8752,7.75039 0,45.81051 0,56c0,1.85442 0.52313,4 -2,4" fill="none" stroke="black" stroke-linecap="round" stroke-width="5"/>
	<path d="M113,162c22.70411,0 57.38039,-3.38039 71,-17c1.48471,-1.48471 8,-0.41439 8,-4" fill="none" stroke="black" stroke-linecap="round" stroke-width="5"/>
</svg>
