<?xml version="1.0" ?>
<svg baseProfile="full" height="300" version="1.1" viewBox="[0, 0, 300, 300]" width="300" xmlns="http://www.w3.org/2000/svg" xmlns:ev="http://www.w3.org/2001/xml-events" xmlns:xlink="http://www.w3.org/1999/xlink">
	<defs/>
	<path d="M72,101c0,-15.62422 31.19413,-13.4914 41,-15c29.5972,-4.55342 57.16279,-7.13953 88,-2c9.2311,1.53852 30.67008,13 37,13" fill="none" stroke="black" stroke-linecap="round" stroke-width="5"/>
	<path d="M124,85c0,8.33565 -6.86318,66.86318 6,54" fill="none" stroke="black" stroke-linecap="round" stroke-width="5"/>
	<path d="M163,85c2.28266,0 2.82756,4.44805 3,6c1.81133,16.30193 2.397,40.20599 -5,55" fill="none" stroke="black" stroke-linecap="round" stroke-width="5"/>
	<path d="M154,139c-18.57626,0 -101.54541,2.90918 -83,40c17.73285,35.4657 118.95813,25.33493 124,-15c5.01721,-40.13771 -52,-29.08541 -52,-21" fill="none" stroke="black" stroke-linecap="round" stroke-width="5"/>
</svg>
