<?xml version="1.0" ?>
<svg baseProfile="full" height="300" version="1.1" viewBox="[0, 0, 300, 300]" width="300" xmlns="http://www.w3.org/2000/svg" xmlns:ev="http://www.w3.org/2001/xml-events" xmlns:xlink="http://www.w3.org/1999/xlink">
	<defs/>
	<path d="M92,148c15.79193,0 31.64811,3.91899 47,2c12.64337,-1.58042 25.0922,-5 38,-5c1.33333,0 3.05719,-0.94281 4,0c7.32811,7.32811 7,18.39757 7,28c0,5.59577 2.38794,18.22412 0,23c-0.65625,1.3125 -4.15137,3.71712 -5,4c-16.2861,5.4287 -64.19144,7 -84,7c-1.24462,0 -4.14933,0.41779 -5,-1c-5.78981,-9.64969 -10.80687,-23.03435 -13,-34c-2.52658,-12.63288 10,-18.37518 10,-26" fill="none" stroke="black" stroke-linecap="round" stroke-width="5"/>
	<path d="M93,144c0,-3.57106 -5.21458,-8.0243 -7,-11c-9.11842,-15.19737 -10.01916,-40.96169 -2,-57c12.81778,-25.63557 53.91955,-18.32439 78,-21c2.25447,-0.2505 7.72429,-2.82712 9,1c4.75825,14.27475 1.30371,34.73341 3,50c1.46561,13.19046 24.43797,52.06278 -9,32" fill="none" stroke="black" stroke-linecap="round" stroke-width="5"/>
	<path d="M172,99c-16.02653,8.01327 -36.24591,9.6343 -54,11c-1.98564,0.15274 -27,-1.1594 -27,1" fill="none" stroke="black" stroke-linecap="round" stroke-width="5"/>
	<path d="M93,203c0,6.95765 -32.15991,39.84009 -13,59c0.74536,0.74536 2.17689,-0.34151 3,-1c10.7111,-8.56888 5.79361,-27.93607 7,-40c0.63932,-6.39321 3,-11.49085 3,-18" fill="none" stroke="black" stroke-linecap="round" stroke-width="5"/>
	<path d="M81,158c-10.2181,0 -21.42584,35.14833 -17,44c0.61464,1.22927 3.02817,1.97183 4,1c9.55662,-9.55662 7.98095,-23.98095 17,-33" fill="none" stroke="black" stroke-linecap="round" stroke-width="5"/>
</svg>
