<?xml version="1.0" ?>
<svg baseProfile="full" height="300" version="1.1" viewBox="[0, 0, 300, 300]" width="300" xmlns="http://www.w3.org/2000/svg" xmlns:ev="http://www.w3.org/2001/xml-events" xmlns:xlink="http://www.w3.org/1999/xlink">
	<defs/>
	<path d="M83,144c-9.31177,9.31177 10.73014,21.46027 14,28c1.27693,2.55386 -0.13121,24.62293 1,25c8.05325,2.68442 83.32311,-6.96932 86,-15c3.83123,-11.49369 -16.59086,-52.75759 -29,-50c-8.25169,1.83371 -16.56291,6.7947 -25,8c-11.92697,1.70385 -21.94352,-1.52824 -33,4c-3.79793,1.89897 -33.46697,10.46697 -27,4" fill="none" stroke="black" stroke-linecap="round" stroke-width="5"/>
	<path d="M77,144c-6.26444,-6.26444 -1.62941,-22.77648 -3,-31c-1.64536,-9.87216 0.24452,-20.04384 -1,-30c-3.37479,-26.99834 -2.39989,-28.56361 29,-20c14.85842,4.0523 30.5865,-0.60337 45,3c7.22205,1.80551 26.38539,89.38539 2,65" fill="none" stroke="black" stroke-linecap="round" stroke-width="5"/>
	<path d="M149,96c0.40198,0.40198 6.28123,3.14584 5,4c-7.84777,5.23184 -65.42011,13 -77,13" fill="none" stroke="black" stroke-linecap="round" stroke-width="5"/>
	<path d="M99,192c-7.15718,3.57859 -16.87043,44.25914 -13,52c0.21082,0.42164 0.5286,1 1,1c15.92406,0 8.27267,-31.81801 11,-40c1.17304,-3.51911 3,-6.94464 3,-10" fill="none" stroke="black" stroke-linecap="round" stroke-width="5"/>
</svg>
