<?xml version="1.0" ?>
<svg baseProfile="full" height="300" version="1.1" viewBox="[0, 0, 300, 300]" width="300" xmlns="http://www.w3.org/2000/svg" xmlns:ev="http://www.w3.org/2001/xml-events" xmlns:xlink="http://www.w3.org/1999/xlink">
	<defs/>
	<path d="M58,71c36.76171,-12.2539 73.98329,-5 113,-5c6.34552,0 70.42375,5.64406 45,12" fill="none" stroke="black" stroke-linecap="round" stroke-width="5"/>
	<path d="M103,70c0,14.75445 1,29.19221 1,44c0,4.6437 0.93015,8.7206 2,13c0.33333,1.33333 1,5.37437 1,4" fill="none" stroke="black" stroke-linecap="round" stroke-width="5"/>
	<path d="M173,69c0,23.31049 9,42.87217 9,66" fill="none" stroke="black" stroke-linecap="round" stroke-width="5"/>
	<path d="M172,130c-9.22967,0 -17.6709,3 -27,3c-19.16624,0 -85.55734,-8.67202 -72,32c13.69109,41.07328 116.77772,25.97782 143,5c3.21518,-2.57214 3,-9.65951 3,-13c0,-17.58836 -23.78648,-19 -37,-19c-11,0 -22,0 -33,0" fill="none" stroke="black" stroke-linecap="round" stroke-width="5"/>
</svg>
