<?xml version="1.0" ?>
<svg baseProfile="full" height="300" version="1.1" viewBox="[0, 0, 300, 300]" width="300" xmlns="http://www.w3.org/2000/svg" xmlns:ev="http://www.w3.org/2001/xml-events" xmlns:xlink="http://www.w3.org/1999/xlink">
	<defs/>
	<path d="M82,60c0,29.2737 65.72911,22.51393 80,13c5.75817,-3.83878 14.47514,5.60537 20,6c11.64891,0.83207 23.46847,-2.35435 33,4c4.36607,2.91071 12.69024,0.84512 17,3c0.29814,0.14907 0.33333,1 0,1c-4.93956,0 -0.30391,-14.45587 -2,-17c-4.32099,-6.48149 -17.20623,-15.66187 -25,-18c-20.15458,-6.04637 -36.97114,-4.08136 -57,-1c-19.50382,3.00059 -41.05274,17 -60,17" fill="none" stroke="black" stroke-linecap="round" stroke-width="5"/>
	<path d="M106,77c0,3.30551 15.07662,75.07662 16,76c3.39616,3.39616 2,-19.72335 2,-21c0,-13.85988 3.71165,-29.5767 -3,-43" fill="none" stroke="black" stroke-linecap="round" stroke-width="5"/>
	<path d="M138,86c0,10.77909 4.36492,21.372 6,32c0.95235,6.19027 2.63733,10.86798 4,17c1.71131,7.70088 2.04332,14.04332 6,18c1.49071,1.49071 1.33333,4 2,6c0.2357,0.70711 -0.89459,-1.26214 -1,-2c-1.24308,-8.70157 -2,-17.199 -2,-26c0,-9.064 -14.11743,-47.88257 -5,-57" fill="none" stroke="black" stroke-linecap="round" stroke-width="5"/>
	<path d="M169,75c4.06954,16.27817 5.18982,36.13891 8,53c1.19394,7.16364 3.21778,13.87111 5,21c0.51131,2.04524 1.33333,8 2,6c0.42164,-1.26491 -0.42164,-2.73509 0,-4c3.29613,-9.8884 0.75389,-50.23056 -2,-64c-0.54419,-2.72096 -1.00638,-5 -4,-5" fill="none" stroke="black" stroke-linecap="round" stroke-width="5"/>
	<path d="M200,83c2.36902,0 2.65001,11.48337 3,13c3.16966,13.7352 8.94049,26.88099 15,39c1.44144,2.88287 2,11.1335 2,14c0,1.94365 3,6.94365 3,5c0,-1 0,-2 0,-3c0,-3 0.14981,-6.00374 0,-9c-0.32063,-6.41265 -13.75627,-63 -19,-63" fill="none" stroke="black" stroke-linecap="round" stroke-width="5"/>
	<path d="M110,154c10.4946,10.4946 34.90895,38.95447 47,45c11.12935,5.56467 23.32111,-8 33,-8c20.61679,0 49.7939,-6.49492 66,-20c1.22659,-1.02215 1.58947,-3.20526 0,-4c-9.6329,-4.81645 -18.05202,-33 -30,-33c-4.80999,0 -9.31252,4.1211 -14,5c-18.76615,3.51865 -37.52162,0.36023 -56,3c-14.10766,2.01538 -25.4169,7 -40,7" fill="none" stroke="black" stroke-linecap="round" stroke-width="5"/>
	<path d="M114,166c0,12.33389 3.3253,26.07233 2,38c-1.14059,10.26529 -7,21.00133 -7,31c0,1.37437 0.02817,3.02817 1,4c0.29705,0.29705 6.78795,6.10602 7,6c1.9183,-0.95915 3.53557,-3.8577 3,-6c-6.16001,-24.64005 8.10472,-47.37166 4,-72c-0.29836,-1.79015 1.18881,-7 -1,-7" fill="none" stroke="black" stroke-linecap="round" stroke-width="5"/>
	<path d="M114,156c-6.74776,10.12164 -8.41378,12.37933 -2,22c6.30379,9.45568 11.74605,-3 10,-3" fill="none" stroke="black" stroke-linecap="round" stroke-width="5"/>
	<path d="M151,191c-2.92283,0 -4,8.64891 -4,11c0,1.38879 5.17043,4.75565 6,6c15.18567,22.7785 14.48941,2.48941 11,-1" fill="none" stroke="black" stroke-linecap="round" stroke-width="5"/>
	<path d="M160,223c-1.37437,0 -1.09142,2.62868 -1,4c0.52515,7.87725 0.92514,24.61676 9,30c0.43157,0.28772 5.52038,4.59952 6,4c9.64268,-12.05335 0,-31.07157 0,-46" fill="none" stroke="black" stroke-linecap="round" stroke-width="5"/>
	<path d="M234,178c0,9.95611 20.36204,26.54599 31,23c0.21627,-0.07209 0.17266,-10.51079 1,-12c1.44791,-2.60623 5.33333,-5.33333 4,-8c-2.9853,-5.97061 -10.07782,-7.15563 -13,-13" fill="none" stroke="black" stroke-linecap="round" stroke-width="5"/>
	<path d="M253,196c0,17.38935 -7.66347,55.66826 9,64c2.54733,1.27366 2.6152,-5.17811 3,-8c0.73114,-5.36168 7.84319,-45 -5,-45" fill="none" stroke="black" stroke-linecap="round" stroke-width="5"/>
	<path d="M217,191c0,14.73673 17.28072,9.28072 3,-5" fill="none" stroke="black" stroke-linecap="round" stroke-width="5"/>
	<path d="M214,206c0,11.2719 -1.31666,25.24445 6,35c0.4,0.53333 1.70186,0.59628 2,0c9.25915,-18.51829 0,-37.35251 0,-50" fill="none" stroke="black" stroke-linecap="round" stroke-width="5"/>
</svg>
