<?xml version="1.0" ?>
<svg baseProfile="full" height="300" version="1.1" viewBox="[0, 0, 300, 300]" width="300" xmlns="http://www.w3.org/2000/svg" xmlns:ev="http://www.w3.org/2001/xml-events" xmlns:xlink="http://www.w3.org/1999/xlink">
	<defs/>
	<path d="M84,126c0,-3.10492 2.63644,-3.37373 6,-3c13.61474,1.51275 19.23672,15.23672 28,24c0.75814,0.75814 6.98892,7.02216 7,7c6.05685,-12.11369 -21.63599,-32 -33,-32" fill="none" stroke="black" stroke-linecap="round" stroke-width="5"/>
	<path d="M183,106c8.40701,4.20351 29.64275,35 35,35c2.66667,0 0,-5.33333 0,-8c0,-10.4084 -19.25298,-29 -30,-29" fill="none" stroke="black" stroke-linecap="round" stroke-width="5"/>
	<path d="M93,143c-2.85379,2.85379 30.11788,-1 33,-1c17.64367,0 57.24648,6.1507 73,3c22.46568,-4.49314 25.90406,-67.19187 18,-83c-11.95385,-23.90769 -77.47806,-39.45122 -99,-26c-18.69829,11.68643 -29.44944,37.74532 -32,59c-0.71499,5.95824 -8.45193,35.54807 -2,42" fill="none" stroke="black" stroke-linecap="round" stroke-width="5"/>
	<path d="M99,163c4.29185,0 6.69837,9.6116 8,11c18.16461,19.37558 40.69735,31.13947 65,36c38.14804,7.62961 118.68211,-30.65894 70,-55c-5.35935,-2.67968 -102.7482,15.89568 -116,17c-11.2371,0.93643 -17.86122,-11 -27,-11" fill="none" stroke="black" stroke-linecap="round" stroke-width="5"/>
	<path d="M130,144c0,23.83375 19,45.2552 19,71c0,0.39345 -0.89907,51.79815 5,40c6.07995,-12.1599 -19.56276,-69.46966 -24,-85c-1.46968,-5.14387 -7,-9.40714 -7,-15" fill="none" stroke="black" stroke-linecap="round" stroke-width="5"/>
	<path d="M221,122c0,13.35247 1.78367,23.13469 5,36c5.14871,20.59485 -5.82311,45.61912 0,66c4.24543,14.85902 16,34.07441 16,6c0,-9.42396 -1,-18.59115 -1,-28c0,-8.95144 -0.53133,-17.18799 -2,-26c-2.22491,-13.34948 -12.59402,-14.78206 -16,-25" fill="none" stroke="black" stroke-linecap="round" stroke-width="5"/>
	<path d="M94,138c0,13.89722 -5.92297,26.15313 -8,40c-1.35203,9.01355 -10.63396,38.73209 -6,48c1.33333,2.66667 2.78913,-5.27554 4,-8c3.35769,-7.5548 5.81845,-15.36427 9,-23c6.31589,-15.15813 13.25438,-28.52627 16,-45c0.10926,-0.65554 0.05211,-27 2,-27" fill="none" stroke="black" stroke-linecap="round" stroke-width="5"/>
</svg>
