<?xml version="1.0" ?>
<svg baseProfile="full" height="300" version="1.1" viewBox="[0, 0, 300, 300]" width="300" xmlns="http://www.w3.org/2000/svg" xmlns:ev="http://www.w3.org/2001/xml-events" xmlns:xlink="http://www.w3.org/1999/xlink">
	<defs/>
	<path d="M72,63c1.79505,0 1.64796,3.2398 2,5c2.61914,13.0957 8.8407,24.04419 11,37c4.37637,26.2582 7.25113,52.13011 13,78c1.95256,8.78652 -4,18.88 -4,28c0,6.03556 -4.52543,32.73729 0,35c1.49902,0.74951 -2.86226,-22.34435 -1,-27c1.82313,-4.55783 8.121,-3.605 9,-8c1.01385,-5.06924 -4.73973,-12.52054 -2,-18c3.91934,-7.83869 23.06889,-17.03444 31,-21c2.61688,-1.30844 6.99809,2.99809 8,4c5.74778,5.74778 13.65034,3.30067 17,10c6.9322,13.86441 9.12967,65.03242 25,69c1.16414,0.29104 -2,-3.16004 -2,-5c0,-4.53382 -1.27971,-9.37294 -4,-13c-5.31178,-7.08238 -4.97088,-48.51456 -4,-49c13.86388,-6.93194 80.92181,-20.15639 86,-10c8.01072,16.02143 -3.38789,43.61211 11,58c0.2357,0.2357 0.2357,-0.7643 0,-1c-1.89222,-1.89222 -5.61305,-17.35657 -6,-22c-1.77709,-21.32503 4.34097,-27.65903 -8,-40c-0.56412,-0.56412 -7.58502,0 -8,0c-17.41148,0 -36.55493,-0.74451 -54,1c-13.63888,1.36389 -25.40795,12.62134 -40,11c-15.58379,-1.73153 -37.16157,-9.74236 -46,-23c-0.38812,-0.58218 -4.48327,-5.51673 -4,-6c1.82404,-1.82404 88.56744,-18.68651 97,-17c4.87594,0.97519 5.3885,3.59233 9,6c5.4225,3.615 50.76827,23.38414 42,19" fill="none" stroke="black" stroke-linecap="round" stroke-width="5"/>
	<path d="M231,173c2.11543,0 1.90378,2.53838 3,4c8.10056,10.80074 6.98588,32.62902 12,46c1.04205,2.77881 13.50984,17.98031 14,17c1.51208,-3.02416 -3.08572,-9.11428 -2,-14c1.73828,-7.82227 10.02245,-14.98877 0,-20" fill="none" stroke="black" stroke-linecap="round" stroke-width="5"/>
	<path d="M116,179c1.18934,0 2.56905,18.27621 3,20c1.59023,6.36093 7.51345,31.22982 3,38c-2.05985,3.08978 -4.17353,0.58676 -7,2c-18.80842,9.40421 -27,2.86405 -27,-20" fill="none" stroke="black" stroke-linecap="round" stroke-width="5"/>
	<path d="M189,132c0,-4.39294 -3.5418,-15.16721 -5,-21c-5.29283,-21.17131 15.3256,-52.6744 1,-67c-7.14043,-7.14043 -76.89102,8.7782 -83,10c-4.53941,0.90788 -24,0.73319 -24,6" fill="none" stroke="black" stroke-linecap="round" stroke-width="5"/>
	<path d="M78,74c23.6265,0 47.66685,-11 71,-11c7.19923,0 18.51128,-0.75564 25,-4c2.17511,-1.08755 10.56138,-4 9,-4" fill="none" stroke="black" stroke-linecap="round" stroke-width="5"/>
	<path d="M94,131c20.54503,0 39.9152,-5.65253 60,-9c4.65357,-0.7756 9.55284,-1.22114 14,-3c3.71049,-1.48419 18.70642,-5 18,-5" fill="none" stroke="black" stroke-linecap="round" stroke-width="5"/>
</svg>
