<?xml version="1.0" ?>
<svg baseProfile="full" height="300" version="1.1" viewBox="[0, 0, 300, 300]" width="300" xmlns="http://www.w3.org/2000/svg" xmlns:ev="http://www.w3.org/2001/xml-events" xmlns:xlink="http://www.w3.org/1999/xlink">
	<defs/>
	<path d="M90,70c21.33333,33 42.66667,66 64,99" fill="none" stroke="black" stroke-linecap="round" stroke-width="5"/>
	<path d="M93,74c-3.07489,0 -3,0.6553 -3,4c0,22.56217 1.01058,44.26205 0,67c-0.4356,9.801 -3.17507,22.4748 0,32c1.03641,3.10922 16.54295,-2.811 19,-3c19.69196,-1.51477 39.51354,-4.00208 59,-7c6.0635,-0.93285 43.93482,3.59777 49,-4c5.69375,-8.54063 -2,-27.64851 -2,-37c0,-3.11587 1.43282,-53.56718 -1,-56c-12.91536,-12.91536 -78.89564,11.57913 -96,15c-8.49677,1.69935 -17.33734,-3 -26,-3" fill="none" stroke="black" stroke-linecap="round" stroke-width="5"/>
	<path d="M93,112c-6.89807,0 -13.59381,-7.46873 -21,-5c-0.44721,0.14907 -0.66667,0.66667 -1,1c-1.42506,1.42506 -0.77373,2.1606 -2,4c-0.26149,0.39223 -0.78918,0.57836 -1,1c-0.31029,0.62057 0,3.55517 0,4c0,1.66667 0,3.33333 0,5c0,1.33333 0,2.66667 0,4c0,1.66667 0,3.33333 0,5c0,1.66667 0,3.33333 0,5c0,1.33333 -0.14724,2.67482 0,4c0.1877,1.68928 0.8123,3.31072 1,5c0.14724,1.32518 -0.14724,2.67482 0,4c1.31335,11.82018 2,22.97718 2,35c0,0.66667 -0.4714,1.5286 0,2c10.01673,10.01673 25.11803,15.03838 36,24c8.26513,6.80657 28.95311,27.02344 43,20c1.77462,-0.88731 1.3412,-4.88233 0,-6c-16.35594,-13.62995 -58.63402,-33.17012 -63,-55c-3.4914,-17.45702 0,-39.09063 0,-57c0,-6.94369 4.31629,-14.47916 5,-22c0.12071,-1.32786 0,-5.33333 0,-4" fill="none" stroke="black" stroke-linecap="round" stroke-width="5"/>
	<path d="M215,89c3.12942,0 10.63628,-1.36372 13,1c1.77358,1.77358 -8.29567,64.11299 -5,74c2.35885,7.07654 10.96474,10.91772 14,18c2.08248,4.85912 3.8669,13.0668 9,16c4.90976,2.80558 10.9075,2.36125 14,7c0.49247,0.73871 3,1.87071 3,2c0,5.31879 -23.89765,-3.04439 -26,-4c-5.79261,-2.63301 -30.4052,-25 -31,-25" fill="none" stroke="black" stroke-linecap="round" stroke-width="5"/>
	<path d="M161,230c29.68737,0 61.23761,-2.09703 90,-9c1.66661,-0.39999 32.8058,-6.22321 34,-11c1.02015,-4.08062 -2.45505,-3.91011 -4,-7" fill="none" stroke="black" stroke-linecap="round" stroke-width="5"/>
	<path d="M111,188c42.994,0 82.58215,-8.52738 123,-22" fill="none" stroke="black" stroke-linecap="round" stroke-width="5"/>
	<path d="M78,173c0,12.41131 -8.77054,23.79037 -12,38c-2.45524,10.80305 -1.63375,22.22799 -5,33c-2.03165,6.50127 -5.39606,13.23369 -9,19c-1.18511,1.89618 -5.23607,6 -3,6c16.27473,0 33,-49.32674 33,-62" fill="none" stroke="black" stroke-linecap="round" stroke-width="5"/>
	<path d="M142,230c0,12.30688 -19.31702,55.36596 -13,68c0.06211,0.12423 11.888,-20.33119 13,-23c4.57566,-10.98158 12,-24.69937 12,-37" fill="none" stroke="black" stroke-linecap="round" stroke-width="5"/>
	<path d="M241,222c0.10943,0.43771 41.38118,86.08079 36,52c-1.76242,-11.16202 -7.71069,-33.51782 -14,-44c-6.4462,-10.74367 -14,-8.72656 -14,-25" fill="none" stroke="black" stroke-linecap="round" stroke-width="5"/>
	<path d="M112,79c-0.94281,0 -1.77134,1.08534 -2,2c-5.76121,23.04485 -16,48.97165 -16,73c0,1.66074 -0.70711,3.14645 1,4c2.56472,1.28236 3.77905,-4.40549 5,-7c7.28043,-15.47091 6.33897,-76.2034 18,-66c17.03463,14.9053 4,59.38556 4,79c0,6.03692 -1.10597,12.82338 2,18c0.38348,0.63914 1.37983,1.41345 2,1c16.60874,-11.07249 19.82303,-68.67275 22,-85c1.30318,-9.77383 3.2708,-20.677 7,-30c0.17508,-0.43769 0.78918,-1.42164 1,-1c8.23517,16.47033 -15.47565,50.39886 -21,62c-2.58358,5.42552 -4.03431,11.32134 -6,17c-1.03441,2.98831 -1.78374,6.08097 -3,9c-0.46225,1.1094 -2.66667,4 -2,3c9.55363,-14.33045 20.10177,-28.94525 24,-46c1.73397,-7.5861 2.63204,-15.33944 4,-23c0.41434,-2.32032 1.76622,-9.229 1,-7c-8.80049,25.60142 -7.36478,32.74313 -22,52c-4.28808,5.64221 -10.9889,8.9889 -16,14c-1.50923,1.50923 -4.20731,5.98172 -5,4c-0.61898,-1.54746 -0.43853,-3.39206 0,-5c5.69355,-20.87635 15.8262,-56.8262 32,-73c1.2693,-1.2693 3.39445,-2.80277 5,-2c7.29155,3.64577 -33.21828,54.73351 -35,58c-0.93072,1.70632 -1.05635,5 -3,5c-9.1364,0 24.95697,-48.70428 29,-53c2.66422,-2.83073 6.89016,-8.33238 10,-6c15.5053,11.62897 -7.2035,50.593 -2,61c2.13437,4.26875 3.92124,-8.70389 6,-13c3.37302,-6.97091 19,-23.74923 19,-33c0,-9.80363 -6.08767,18.63894 -9,28c-2.72573,8.76127 -6.75847,23.48164 -8,33c-0.43113,3.30533 -2.19502,12.50859 0,10c14.09836,-16.11241 21.95708,-39.96228 31,-59c2.36738,-4.98397 4.62778,-10.01833 7,-15c1.79568,-3.77094 7.25772,-14.98279 6,-11c-3.9544,12.52227 -10.2803,24.17928 -16,36c-3.53553,7.30677 -5.226,15.37151 -8,23c-0.56957,1.56632 -4.17851,5.17851 -3,4c11.24233,-11.24233 18.06074,-27.18221 23,-42c0.8206,-2.46179 4.1794,-17.53821 5,-20c0.2357,-0.70711 0.94283,-2.74316 1,-2c1.64316,21.3611 -4.28946,41.69586 -10,62c-0.18077,0.64273 -4.94854,14 -1,14c8.86047,0 15.18086,-31.72449 17,-37c1.51351,-4.38917 3.27571,-8.68927 5,-13c1.05772,-2.6443 2.30926,-10.76297 3,-8c4.75684,19.02735 -4.24408,36.20897 -10,54c-1.62236,5.01455 -3.33333,10 -5,15c-0.21082,0.63246 -0.39211,2.53916 0,2c7.88404,-10.84055 12.72043,-22.16128 17,-35c2.27547,-6.82642 2.93234,-14.10779 5,-21c0.4884,-1.62799 1.14115,-6.6938 1,-5c-1.33316,15.99787 -2.66692,32.00304 -4,48c-0.0619,0.74278 0.25464,2 1,2" fill="none" stroke="black" stroke-linecap="round" stroke-width="5"/>
</svg>
