<?xml version="1.0" ?>
<svg baseProfile="full" height="300" version="1.1" viewBox="[0, 0, 300, 300]" width="300" xmlns="http://www.w3.org/2000/svg" xmlns:ev="http://www.w3.org/2001/xml-events" xmlns:xlink="http://www.w3.org/1999/xlink">
	<defs/>
	<path d="M90,73c46.55065,36.67627 93.9935,126.50325 147,100c0.23107,-0.11553 0,-4.92292 0,-5c0,-14.22704 -10.0757,-25.05982 -11,-38c-2.19734,-30.76273 8.62475,-34.75051 -4,-60c-3.48094,-6.96188 -64.17616,3.41762 -70,4c-4.58613,0.45861 -51.57841,-0.42159 -54,2c-2.20736,2.20736 5.97982,33.75781 6,34c1.13085,13.57015 -4.39066,39.21867 2,52c2.7533,5.50659 26.95588,4.15931 32,5c5.52134,0.92022 93.13779,2.86221 98,-2" fill="none" stroke="black" stroke-linecap="round" stroke-width="5"/>
	<path d="M133,173c0,4.82051 16.59463,45.17582 19,56c2.69225,12.11514 1.28707,24.21768 6,36c0.81788,2.04471 0.75815,5.62093 4,4c8.87663,-4.43832 0.60961,-16.68462 0,-24c-3.15087,-37.81041 1.44945,-46.62022 -32,-60c-9.43875,-3.7755 -14.68947,-7.06391 -23,-13c-5.53488,-3.95349 -10.02349,-4.68233 -15,-8c-0.29048,-0.19365 -2.21326,-2.10663 -2,-2c11.85132,5.92566 66.47237,50 77,50" fill="none" stroke="black" stroke-linecap="round" stroke-width="5"/>
	<path d="M167,205c14.68743,0 102.46935,-4.46935 106,-8c2.15987,-2.15987 -17.70339,-25.48729 -19,-27c-0.78215,-0.91251 -1.15016,-2.15016 -2,-3c-2.54951,-2.54951 -12.0575,-7.91094 -9,-6c8.85337,5.53335 17.57227,11.87074 26,18c2.56033,1.86206 9.05118,12.05118 7,10" fill="none" stroke="black" stroke-linecap="round" stroke-width="5"/>
	<path d="M90,99c2.18083,0 -0.90483,-9.76138 -2,-1c-1.24533,9.96262 -1.40397,19.90083 -1,30c0.65488,16.37193 3.03172,30.25379 5,46c1.40907,11.27255 -3,22.56183 -3,34c0,7.00985 -4.70665,31.14667 3,35c11.38184,5.69092 11.76566,-29.89096 12,-32c3.78846,-34.09614 3,-69.17609 3,-103" fill="none" stroke="black" stroke-linecap="round" stroke-width="5"/>
	<path d="M233,81c14.64058,0 8,51.86478 8,65" fill="none" stroke="black" stroke-linecap="round" stroke-width="5"/>
	<path d="M166,234c36.52541,0 73.16998,-9 110,-9" fill="none" stroke="black" stroke-linecap="round" stroke-width="5"/>
	<path d="M170,215c6.76543,20.2963 86.88225,3 108,3" fill="none" stroke="black" stroke-linecap="round" stroke-width="5"/>
	<path d="M268,182c0,14.27708 8.61424,27.68542 11,42c1.03409,6.20451 0.7372,12.68598 2,19c0.59197,2.95985 -1.69979,10.3499 1,9c0.84327,-0.42164 1.74099,-1.09347 2,-2c0.62304,-2.18062 -1.87261,-50.87261 -3,-52" fill="none" stroke="black" stroke-linecap="round" stroke-width="5"/>
	<path d="M109,148c-3.98542,0 31.21599,-8.93728 32,-9c21.33381,-1.7067 42.77716,0.82095 64,2c3.99384,0.22188 8.01985,0.39801 12,0c1.5655,-0.15655 24.25099,-3.83267 24,-4c-13.11583,-8.74389 -109.9993,16.0007 -119,7c-0.52705,-0.52705 -0.47295,-1.47295 -1,-2c-1,-1 -2.52098,-1.66938 -3,-3c-6.96901,-19.35836 -10.04126,-35.20631 -14,-55c-0.6027,-3.0135 -5.07318,-9 -2,-9c1.48397,0 2.8481,5.39239 3,6c4.61444,18.45778 4,37.10152 4,56c0,2.33333 0,7 0,7c0,0 3.79499,-5.78663 5,-9c2.8088,-7.49014 -2.8255,-18.95298 -4,-26c-0.42132,-2.52795 0,-5.41195 0,-8c0,-1.66667 0,-6.66667 0,-5c0,7.47076 2.46726,24.10044 9,29c20.83047,15.62286 62.6135,-0.87943 87,-3c6.6499,-0.57825 13.33652,-0.60803 20,-1c4.00694,-0.2357 15.44186,-1.06512 12,1c-4.52774,2.71664 -116.0379,19.98105 -120,18c-3.68782,-1.84391 7.91833,-2.4169 12,-3c15.77004,-2.25286 31.55741,-2.78839 47,-7c4.29052,-1.17014 8.55278,-3 13,-3c1.33333,0 5.33333,0 4,0c-19.08781,0 -36.00632,-11 -56,-11c-0.33333,0 0.66832,0.03317 1,0c10.94162,-1.09416 19.28499,-2.36535 31,-4c18.7296,-2.61343 35.51497,-5.00599 53,-12c2.25314,-0.90125 7,-2 7,-2c0,0 -8.67145,-0.67684 -22,3c-9.90284,2.73182 -61.82708,21.73682 -69,5c-5.49152,-12.81355 23.12766,-22.75048 30,-24c7.86812,-1.43057 15.97419,-3 24,-3c0.33333,0 1.32159,-0.08771 1,0c-16.7729,4.57443 -32.79819,8.98968 -50,12c-8.91983,1.56097 -17.94461,3 -27,3c-1.66667,0 -6.17851,1.17851 -5,0c18.47873,-18.47873 60.96321,-5.96321 79,-24" fill="none" stroke="black" stroke-linecap="round" stroke-width="5"/>
</svg>
