<?xml version="1.0" ?>
<svg baseProfile="full" height="300" version="1.1" viewBox="[0, 0, 300, 300]" width="300" xmlns="http://www.w3.org/2000/svg" xmlns:ev="http://www.w3.org/2001/xml-events" xmlns:xlink="http://www.w3.org/1999/xlink">
	<defs/>
	<path d="M82,130c0,5.3282 18.12883,11.25766 21,17c2.2909,4.5818 9.21871,17.44532 11,17c1.29352,-0.32338 2.7229,-0.38313 4,0c2.57408,0.77222 7,1.31258 7,4c0,1.20185 3,0.79815 3,2c0,0.54781 -4.42737,-3.85474 -5,-5c-3.28184,-6.56367 -4.93516,-12.90274 -9,-19c-2.87042,-4.30563 0.62841,-12.68579 -4,-15c-9.0008,-4.5004 -9.58937,-4 -21,-4" fill="none" stroke="black" stroke-linecap="round" stroke-width="5"/>
	<path d="M195,115c8.90023,8.90023 14.65058,12.51137 27,18c0.86155,0.38291 1.70186,1.10557 2,2c2.04528,6.13584 2.81872,15 10,15c2,0 4.58579,1.41421 6,0c1,-1 -1.58579,-3 -3,-3c-5.7157,0 -8.39964,-4.19952 -12,-9c-4.9663,-6.62174 -13.17036,-23 -21,-23" fill="none" stroke="black" stroke-linecap="round" stroke-width="5"/>
	<path d="M195,139c-22.96499,0 -59.96248,29 -76,29c-8.50536,0 -14.426,-32.426 -10,-28" fill="none" stroke="black" stroke-linecap="round" stroke-width="5"/>
	<path d="M98,134c0,-30.37165 -13.34182,-59.65818 8,-81c44.84776,-44.84776 104,6.73164 104,54" fill="none" stroke="black" stroke-linecap="round" stroke-width="5"/>
	<path d="M130,167c2.61315,2.61315 7.10627,65.89373 4,69c-2.52783,2.52783 -7.48967,-4.74483 -8,-5c-21.54229,-10.77115 -29.77863,-32.55726 -40,-53c-2.22837,-4.45674 0.59823,-13.79469 2,-18c1.05935,-3.17805 1,-13.34996 1,-10c0,3.50555 4.51453,30.7718 6,33c2.07464,3.11197 8.7348,-3.42173 10,-3c7.76417,2.58806 15.74486,7 25,7" fill="none" stroke="black" stroke-linecap="round" stroke-width="5"/>
	<path d="M96,187c12.43594,0 87.11458,-18.88542 98,-8c6.66356,6.66356 19.78658,14.73519 29,20c1.76664,1.00951 12.48052,16.51948 15,14c14.0583,-14.0583 0.22406,-42.87968 -3,-59c-1.50565,-7.52824 8.84635,-33 3,-33" fill="none" stroke="black" stroke-linecap="round" stroke-width="5"/>
	<path d="M222,126c0,3.44181 3.56014,4.4811 4,8c1.3836,11.06883 -1.67091,21.8606 0,33c3.15732,21.0488 11,31.37602 11,48" fill="none" stroke="black" stroke-linecap="round" stroke-width="5"/>
	<path d="M117,133c21.66933,0 40.50829,-8.54528 61,-13c1.20096,-0.26108 36.39245,-6 23,-6" fill="none" stroke="black" stroke-linecap="round" stroke-width="5"/>
	<path d="M136,157c0,2 0,4 0,6" fill="none" stroke="black" stroke-linecap="round" stroke-width="5"/>
</svg>
