<?xml version="1.0" ?>
<svg baseProfile="full" height="300" version="1.1" viewBox="[0, 0, 300, 300]" width="300" xmlns="http://www.w3.org/2000/svg" xmlns:ev="http://www.w3.org/2001/xml-events" xmlns:xlink="http://www.w3.org/1999/xlink">
	<defs/>
	<path d="M87,79c0,14.87829 7.38712,28.04817 6,44c-0.38429,4.41938 -7.97937,31.02063 -3,36c15.02464,15.02464 52.30811,-2.23084 68,-5c16.85688,-2.97474 43.54996,-9.22502 60,-1c0.66691,0.33345 6.88897,2.11103 8,1c7.24928,-7.24928 6,-23.63599 6,-34c0,-9.82655 5.63838,-30.36162 -2,-38c-8.41928,-8.41928 -39.00676,-7 -51,-7c-26.1477,0 -51.58406,7 -78,7" fill="none" stroke="black" stroke-linecap="round" stroke-width="5"/>
	<path d="M112,188c9.21206,9.21206 17.09151,12.70734 29,18c7.037,3.12756 12.95056,8.18022 20,11c6.49222,2.59689 51.02313,-15.09932 59,-18c4.91853,-1.78856 37.86613,-10.5984 39,-14c1.37302,-4.11907 -2.36903,-7.74489 -5,-10c-17.94435,-15.38087 -43.77635,-2.65964 -65,3c-2.27744,0.60732 -4.67505,0.61251 -7,1c-21.31234,3.55206 -41.23643,7 -63,7" fill="none" stroke="black" stroke-linecap="round" stroke-width="5"/>
	<path d="M105,87c1.30124,1.30124 -5.37645,71.69403 -7,79c-1.47498,6.63741 -6.31419,14.14186 -7,21c-1.88212,18.82119 -0.34879,42.26343 -7,60c-0.94362,2.51631 -2.09971,8.90029 -4,7c-15.14284,-15.14284 7.18822,-107.62741 13,-127c2.32704,-7.7568 11,-21.28313 11,-30" fill="none" stroke="black" stroke-linecap="round" stroke-width="5"/>
	<path d="M92,182c0,1.81619 4.83523,3.70881 6,4c15.21276,3.80319 40.32756,27.32756 52,39c9.91293,9.91293 3.21952,47.85366 9,44c18.50516,-12.33677 10.0305,-36.06863 18,-54c3.12446,-7.03004 14,-18.46789 14,-26c0,-3.07318 -6.36477,0.41886 -9,2c-6.91287,4.14772 -14.56364,7 -23,7c-10.70521,0 -46.3637,-18.3637 -54,-26" fill="none" stroke="black" stroke-linecap="round" stroke-width="5"/>
	<path d="M234,94c0,2.51044 -1.09601,7.80798 0,10c1.29987,2.59974 16,-5.50181 16,4c0,6.79908 -3.98428,69.01572 -3,70c7.13837,7.13837 26,10.44835 26,20c0,6.08026 -10.00407,50.33469 -15,52c-1.41421,0.4714 -2.66667,2.66667 -4,2c-1.64319,-0.8216 0.94961,-21.52128 1,-22c1.34113,-12.74075 -1,-23.54312 -1,-36" fill="none" stroke="black" stroke-linecap="round" stroke-width="5"/>
	<path d="M241,157c0,-7.74368 -3.70297,-15.56439 -3,-24c1.17013,-14.0415 4,-26.87584 4,-41" fill="none" stroke="black" stroke-linecap="round" stroke-width="5"/>
	<path d="M210,159c-4.91771,4.91771 16.01362,4 19,4" fill="none" stroke="black" stroke-linecap="round" stroke-width="5"/>
	<path d="M174,242c27.45188,-13.72594 60.52284,-34 92,-34" fill="none" stroke="black" stroke-linecap="round" stroke-width="5"/>
	<path d="M183,234c22.63262,0 57.73275,-7.36637 77,-17" fill="none" stroke="black" stroke-linecap="round" stroke-width="5"/>
	<path d="M101,224c3.9288,0 23.41478,-11.41478 27,-15" fill="none" stroke="black" stroke-linecap="round" stroke-width="5"/>
	<path d="M95,206c7.15654,0 12.95021,-1.96681 19,-6" fill="none" stroke="black" stroke-linecap="round" stroke-width="5"/>
</svg>
