<?xml version="1.0" ?>
<svg baseProfile="full" height="300" version="1.1" viewBox="[0, 0, 300, 300]" width="300" xmlns="http://www.w3.org/2000/svg" xmlns:ev="http://www.w3.org/2001/xml-events" xmlns:xlink="http://www.w3.org/1999/xlink">
	<defs/>
	<path d="M86,74c0,31.1359 4,62.00187 4,93c0,5.8989 -8.43612,30.56388 -4,35c5.41857,5.41857 36.03954,0.19209 42,-1c26.39815,-5.27963 83.93996,3.12008 99,-27c0.29814,-0.59628 0.4714,-1.5286 0,-2c-7.23316,-7.23316 -6,-23.39627 -6,-34c0,-15.01918 -3,-29.76168 -3,-45c0,-1.52305 1.10436,-9.89564 0,-11c-8.14983,-8.14983 -112.12287,8 -132,8" fill="none" stroke="black" stroke-linecap="round" stroke-width="5"/>
	<path d="M98,182c-5.44767,0 9.03029,0 10,0c9.684,0 16.46934,-0.5704 26,-2c20.58919,-3.08838 66.26946,-8 88,-8" fill="none" stroke="black" stroke-linecap="round" stroke-width="5"/>
	<path d="M90,199c4.54552,4.54552 17.83155,8.67853 24,12c7.02256,3.78138 10.05234,11.43141 16,15c16.25608,9.75365 43.84342,1.71566 61,0c12.84528,-1.28453 24.7091,-4.92728 37,-8c9.74902,-2.43726 16.89862,0.10138 24,-7c7.27373,-7.27373 -28.37961,-31.75921 -30,-35" fill="none" stroke="black" stroke-linecap="round" stroke-width="5"/>
	<path d="M91,101c-2.53413,0 -18.91297,-0.17407 -20,2c-9.1079,18.2158 9.24956,65.50087 3,78c-5.66471,11.32941 -6.83121,25.66243 -13,38c-5.23991,10.47982 -15,18.63591 -15,31c0,2.94418 -1.21501,5.95563 4,4c7.40398,-2.77649 11.1861,-12.06726 15,-18c3.89946,-6.06582 8.17812,-11.885 12,-18c5.29918,-8.47869 8.86956,-18.73913 13,-27" fill="none" stroke="black" stroke-linecap="round" stroke-width="5"/>
	<path d="M223,94c2.19262,2.19262 8.31693,0.31693 10,2c6.5812,6.5812 -13.96367,60.07265 -9,70c3.69346,7.38691 9.42043,15.89391 14,22c4.28071,5.70761 31.72918,10.84721 18,20" fill="none" stroke="black" stroke-linecap="round" stroke-width="5"/>
	<path d="M129,216c0,24.87522 3,49.49272 3,74c0,1.4714 0.5286,2 2,2c4.31071,0 7.52472,-7.19773 8,-11c0.95269,-7.62151 0.89789,-15.28522 2,-23c1.14404,-8.00826 2,-15.92736 2,-24" fill="none" stroke="black" stroke-linecap="round" stroke-width="5"/>
	<path d="M260,211c0,15.59963 -1.42945,40.06901 4,55c0.97328,2.67653 0.152,8 3,8c2.90039,0 -0.8993,-19.04333 -1,-20c-1.55372,-14.76034 -2,-29.18787 -2,-44" fill="none" stroke="black" stroke-linecap="round" stroke-width="5"/>
	<path d="M146,251c8.65234,0 20.7254,3.57081 31,3c18.38526,-1.0214 36.55537,-4 55,-4c3.82201,0 26,-2.48219 26,-4" fill="none" stroke="black" stroke-linecap="round" stroke-width="5"/>
	<path d="M150,244c0,0.31155 24.28929,2 28,2c25.90327,0 52.36303,-1 78,-1c0.4714,0 1,-0.5286 1,-1" fill="none" stroke="black" stroke-linecap="round" stroke-width="5"/>
	<path d="M216,182c0,13.05197 20.59594,32 32,32" fill="none" stroke="black" stroke-linecap="round" stroke-width="5"/>
</svg>
