<?xml version="1.0" ?>
<svg baseProfile="full" height="300" version="1.1" viewBox="[0, 0, 300, 300]" width="300" xmlns="http://www.w3.org/2000/svg" xmlns:ev="http://www.w3.org/2001/xml-events" xmlns:xlink="http://www.w3.org/1999/xlink">
	<defs/>
	<path d="M144,86c0,4.38432 1.27922,8.67534 2,13" fill="none" stroke="black" stroke-linecap="round" stroke-width="5"/>
	<path d="M81,155c6.97912,0 45.49077,30.49077 54,39c1.3736,1.3736 7.83455,9 10,9c2.4037,0 -2.43569,-4.17497 -4,-6c-2.16184,-2.52215 -6.32652,-7.09037 -9,-9c-4.58574,-3.27553 -36.69892,-23.69892 -39,-26c-0.2357,-0.2357 0,-0.66667 0,-1" fill="none" stroke="black" stroke-linecap="round" stroke-width="5"/>
	<path d="M195,141c5.49192,5.49192 13.45225,12.238 20,17c4.8599,3.53447 10.75082,5.75082 15,10c3.97954,3.97954 7.00698,10.00698 11,14c1.90029,1.90029 -0.05638,-5.48369 -1,-8c-1.88295,-5.02121 -2.69959,-9.3498 -8,-12c-12.62954,-6.31477 -23.44846,-16.97938 -36,-22c-5.25831,-2.10332 -11.82195,-1.41098 -17,-4c-2.30703,-1.15351 -2.79174,-6.58349 -4,-9" fill="none" stroke="black" stroke-linecap="round" stroke-width="5"/>
	<path d="M84,146c4.92275,-24.61377 -1.28669,-61.13994 6,-83c4.22353,-12.6706 48.73357,-10.76448 58,-12c11.35003,-1.51334 36.02906,-3.48547 47,2c12.30643,6.15321 12.71445,47.85606 11,59c-0.88157,5.73023 -4,12.38373 -4,18c0,2.72906 -2,7.51862 -2,7" fill="none" stroke="black" stroke-linecap="round" stroke-width="5"/>
	<path d="M87,174c38.26954,-12.75651 80.0771,-19 120,-19" fill="none" stroke="black" stroke-linecap="round" stroke-width="5"/>
	<path d="M96,212c11.32226,5.66113 20.52546,15.50849 34,20c10.98713,3.66238 17.68652,-1 27,-1" fill="none" stroke="black" stroke-linecap="round" stroke-width="5"/>
	<path d="M86,195c0,-8.42668 31.23806,-9.53904 37,-10c30.42952,-2.43436 123,-22.12301 123,26" fill="none" stroke="black" stroke-linecap="round" stroke-width="5"/>
	<path d="M157,220c0,3.32404 5.02966,2 7,2c25.47725,0 53.18233,-8 77,-8" fill="none" stroke="black" stroke-linecap="round" stroke-width="5"/>
	<path d="M238,155c0,3.7417 4.4519,105.5481 3,107c-10.047,10.047 -26.31574,-28.95489 -47,-26c-25.26012,3.60859 -54.03834,2.01278 -78,10c-12.41217,4.13739 0.51914,23.24043 -11,29c-14.03829,7.01915 -11,-18.75626 -11,-26" fill="none" stroke="black" stroke-linecap="round" stroke-width="5"/>
	<path d="M83,242c1.84195,1.84195 37.46221,47.53779 45,40c1.98516,-1.98516 -1.32006,-9.35989 0,-12c6.43685,-12.8737 12.10697,-32.3209 17,-47c2.67116,-8.01349 4.08859,-14.79728 5,-23c0.36994,-3.32947 1,-13.34996 1,-10c0,12.76959 -2.08256,80.54128 -13,86c-9.86058,4.93029 -21.97105,-12.38263 -28,-16c-4.60136,-2.76082 -14.63804,-1.95706 -18,-7c-0.62246,-0.9337 -6.43881,-6.28059 -5,-7c6.52732,-3.26366 22.49139,1.62572 30,1c33.4775,-2.78979 66.18887,-15 100,-15c0.33333,0 0.7643,-0.2357 1,0c8.37926,8.37926 13.7439,19.11585 21,30c0.66667,1 1.79815,2 3,2c7.11388,0 3.61296,-19.80679 4,-22c1.81067,-10.26046 3.61438,-20.58814 4,-31c0.46445,-12.54004 -7,-21.7542 -7,-33c0,-0.06068 0,-12 0,-12c0,0 0.68401,5.99812 1,9c2.424,23.02799 -2,47.82567 -2,71" fill="none" stroke="black" stroke-linecap="round" stroke-width="5"/>
	<path d="M134,223c0,2.37337 -3.33624,9.00871 -4,11c-0.43461,1.30384 -2.30384,4.43461 -1,4c16.21866,-5.40622 109.25884,-23.25884 114,-28c9.06619,-9.06619 -38.17529,-34.35057 -42,-42c-10.0756,-20.15121 7.51555,-51.9067 4,-73c-1.96463,-11.78775 -6,-21.75437 -6,-34" fill="none" stroke="black" stroke-linecap="round" stroke-width="5"/>
	<path d="M92,184c-15.69418,0 12.58396,36.58396 18,42" fill="none" stroke="black" stroke-linecap="round" stroke-width="5"/>
	<path d="M85,241c6.73982,6.73982 10.26577,20.26577 18,28c5.89721,5.89721 13.67491,3.80247 21,6c6.67994,2.00398 11.77089,3.15274 18,-1c13.04582,-8.69721 9.06305,-41.88266 10,-55c0.47773,-6.68828 0.4422,-13.30634 1,-20c0.24914,-2.98964 2.12132,-11.12132 0,-9c-8.07384,8.07384 11.3137,72.40525 -11,91c-8.86809,7.39007 -32.3622,-31.42013 -35,-35c-2.81031,-3.814 -7.14489,-6.24635 -11,-9c-1.35622,-0.96873 -4,-4.66667 -4,-3c0,10.80854 18.06326,39.96837 34,32c21.48016,-10.74008 2.33131,-57.82827 8,-72" fill="none" stroke="black" stroke-linecap="round" stroke-width="5"/>
</svg>
