<?xml version="1.0" ?>
<svg baseProfile="full" height="300" version="1.1" viewBox="[0, 0, 300, 300]" width="300" xmlns="http://www.w3.org/2000/svg" xmlns:ev="http://www.w3.org/2001/xml-events" xmlns:xlink="http://www.w3.org/1999/xlink">
	<defs/>
	<path d="M78,158c7.75335,0 7.38527,-42.1558 10,-50c7.98832,-23.96497 54.46493,-47.72612 79,-45c42.42565,4.71396 52,34.71801 52,72c0,7.17966 1.09417,17.35874 -2,22c-2.84662,4.26993 -31.85057,4 -37,4c-31.71552,0 -60.7052,15 -92,15" fill="none" stroke="black" stroke-linecap="round" stroke-width="5"/>
	<path d="M77,158c6.95298,0 11.98276,-15.01293 28,-3c5.8693,4.40197 9.60838,11.40559 15,15c0.61722,0.41148 4.4949,6.5051 5,6c0.94281,-0.94281 0.32338,-2.70648 0,-4c-1.52149,-6.08594 -44,-37.31066 -44,-22" fill="none" stroke="black" stroke-linecap="round" stroke-width="5"/>
	<path d="M198,139c23.17779,5.79445 28.75336,15.75336 44,31c0.94281,0.94281 0.59628,-2.80743 0,-4c-2.15823,-4.31646 -4.05591,-5.61935 -8,-9c-9.1463,-7.83968 -19.44546,-17 -32,-17" fill="none" stroke="black" stroke-linecap="round" stroke-width="5"/>
	<path d="M207,142c5.56403,0 8.14551,13.32994 11,17c5.74628,7.38808 14.15401,11.73102 19,19c8.56211,12.84316 9,51.8099 9,68" fill="none" stroke="black" stroke-linecap="round" stroke-width="5"/>
	<path d="M112,154c0,4.47657 10.19223,16.12621 12,20c7.70356,16.50763 8.77623,38.20985 11,56c1.0783,8.62644 -1.0237,35.31753 6,40c1.29899,0.866 3.59562,2.10657 5,0c9.43796,-14.15694 7.09228,-54.36157 -2,-68c-3.70048,-5.55073 -14,-13.62715 -14,-21" fill="none" stroke="black" stroke-linecap="round" stroke-width="5"/>
	<path d="M229,166c-0.48877,0 8.65579,29.86952 9,34c1.1413,13.6956 -4.13138,32.73723 2,45c0.66667,1.33333 0.75965,4.8269 2,4c7.86432,-5.24288 1,-37.9242 1,-46" fill="none" stroke="black" stroke-linecap="round" stroke-width="5"/>
	<path d="M148,202c2.4703,0 9.10202,7.10946 14,8c24.10504,4.38273 49.03483,-4 73,-4" fill="none" stroke="black" stroke-linecap="round" stroke-width="5"/>
	<path d="M126,174c1.47426,0 9.27259,5.61037 12,6c8.39087,1.1987 15.79431,-4 24,-4c18.07473,0 36.57205,4 55,4c10.15347,0 16.44242,-4.52729 22,5c2.18545,3.74649 5.07308,8.48769 8,12c1.06697,1.28037 4.66667,4 3,4c-3.10995,0 -18.05221,-28.5261 -27,-33c-10.24773,-5.12387 -35.42031,8.08406 -45,10c-15.2727,3.05454 -29.78306,-3 -44,-3" fill="none" stroke="black" stroke-linecap="round" stroke-width="5"/>
</svg>
