<?xml version="1.0" ?>
<svg baseProfile="full" height="300" version="1.1" viewBox="[0, 0, 300, 300]" width="300" xmlns="http://www.w3.org/2000/svg" xmlns:ev="http://www.w3.org/2001/xml-events" xmlns:xlink="http://www.w3.org/1999/xlink">
	<defs/>
	<path d="M80,67c0,19.4809 3.29358,48.58716 12,66c3.06187,6.12374 12.00372,26 11,26" fill="none" stroke="black" stroke-linecap="round" stroke-width="5"/>
	<path d="M88,62c0,27.61882 2.58121,48.74362 11,74c2.03686,6.11058 13.08503,33.17006 10,27" fill="none" stroke="black" stroke-linecap="round" stroke-width="5"/>
	<path d="M108,63c-3.65026,18.25131 -9.60873,40.44081 -6,59c2.88032,14.8131 13,23.90612 13,37" fill="none" stroke="black" stroke-linecap="round" stroke-width="5"/>
	<path d="M79,61c20.92938,0 43.25256,-8 65,-8c7.56254,0 43.18278,4.54834 39,-8c-3.09587,-9.28762 -27.06028,-17.06028 -33,-23c-2.40836,-2.40836 -12.90641,0.71876 -16,1c-22.01724,2.00157 -40.05611,-1.62926 -59,11c-1.71895,1.14597 -0.49437,5.49062 -2,8c-5.87978,9.79964 -11.99468,8.00532 -5,15c4.13079,4.13079 5.17475,4 11,4" fill="none" stroke="black" stroke-linecap="round" stroke-width="5"/>
	<path d="M93,147c-4.92974,0 -14.90956,-2.04522 -19,0c-3.06956,1.53478 3.25997,6.04195 5,9c8.95215,15.21865 16.59006,26.79503 31,34c9.10843,4.55422 15.14195,15.07098 25,20c12.29514,6.14757 23.06536,2.65214 35,0c29.17536,-6.48341 34.45523,2.27114 47,-27c2.51211,-5.86158 -10.48995,-23.48995 -15,-28c-4.54409,-4.54409 -5.27855,-13.51904 -12,-18c-2.82218,-1.88146 -51.39395,-6.86868 -54,-6c-15.61659,5.20553 -19.36291,10 -37,10" fill="none" stroke="black" stroke-linecap="round" stroke-width="5"/>
	<path d="M113,195c-4.96683,2.48342 -8.874,13.35544 -11,17c-10.70492,18.35129 -14.50969,28.47093 -8,48c0.55538,1.66613 4.57708,4.71146 6,4c19.34295,-9.67148 13.38381,-33.91905 17,-52c1.08999,-5.44995 7.71221,-27.90407 2,-26" fill="none" stroke="black" stroke-linecap="round" stroke-width="5"/>
	<path d="M131,60c0,31.65277 -0.78003,63.49977 3,95c0.27736,2.31131 4,8.69281 4,11" fill="none" stroke="black" stroke-linecap="round" stroke-width="5"/>
	<path d="M143,57c0,12.46314 6.5687,43.41221 9,58c0.09903,0.59417 9.36404,30.36404 7,28" fill="none" stroke="black" stroke-linecap="round" stroke-width="5"/>
	<path d="M159,59c0,8.17177 4.15336,15.87221 5,24c2.92281,28.059 2,44.51548 2,74c0,14.06335 -0.23492,28.58943 4,42c0.42586,1.34857 2,4 3,3c1.17232,-1.17232 -0.56623,-2.78312 -1,-3c-4.65171,-2.32586 -3.44528,-40.77359 -2,-48c2.04526,-10.2263 5,-19.41419 5,-30" fill="none" stroke="black" stroke-linecap="round" stroke-width="5"/>
	<path d="M189,48c0,5.15194 -3.49506,7.37129 -7,10" fill="none" stroke="black" stroke-linecap="round" stroke-width="5"/>
	<path d="M173,52c0,29.08241 22,58.28926 22,88" fill="none" stroke="black" stroke-linecap="round" stroke-width="5"/>
	<path d="M197,196c5.76416,17.29247 13.17378,33.30388 18,51c2.30884,8.46574 6.57043,16.85215 8,24c0.09245,0.46225 1.4714,1 1,1c-4.92126,0 0.32498,-18.31012 0,-20c-4.46994,-23.24371 -12.19144,-51.31907 -24,-71" fill="none" stroke="black" stroke-linecap="round" stroke-width="5"/>
	<path d="M202,225c-14.563,-7.2815 -58.50335,5.49665 -64,0c-3.67039,-3.67039 -16.57995,4.25203 -22,1c-1.59702,-0.95821 -13.22347,-2.41761 -10,0c2.95746,2.21809 39.59175,13.98866 40,14c0.64117,0.01781 90.0927,3.81953 65,-15" fill="none" stroke="black" stroke-linecap="round" stroke-width="5"/>
	<path d="M85,163c-5.19347,5.19347 -12.31759,10.79732 -17,16c-8.32657,9.25174 -7.05444,10.53066 -11,20c-3.09537,7.42888 -6.36876,9.51626 -11,16c-2.62081,3.66914 4.54378,6.579 7,5c10.85259,-6.97667 49.07799,-35.31197 52,-47c1.02731,-4.10924 6.20772,-7.30193 -3,-5" fill="none" stroke="black" stroke-linecap="round" stroke-width="5"/>
	<path d="M71,203c3.0281,0 17.94842,12.94842 16,11" fill="none" stroke="black" stroke-linecap="round" stroke-width="5"/>
	<path d="M84,209c14.41451,0 22.78565,16 35,16" fill="none" stroke="black" stroke-linecap="round" stroke-width="5"/>
</svg>
