<?xml version="1.0" ?>
<svg baseProfile="full" height="300" version="1.1" viewBox="[0, 0, 300, 300]" width="300" xmlns="http://www.w3.org/2000/svg" xmlns:ev="http://www.w3.org/2001/xml-events" xmlns:xlink="http://www.w3.org/1999/xlink">
	<defs/>
	<path d="M86,150c-3.91547,-7.83094 -0.8262,-22.73798 0,-31c0.68305,-6.83046 -0.08534,-27.64333 5,-34c13.13216,-16.4152 42.30476,-31.84762 64,-21c27.93715,13.96858 37.71467,61.42935 51,88c2.71815,5.4363 -2.14615,4.35673 -5,4c-8.88517,-1.11065 -16.50794,4.54401 -25,3c-19.0112,-3.45658 -38.19137,-5.86523 -57,-9c-8.18034,-1.36339 -25.82598,5 -25,5" fill="none" stroke="black" stroke-linecap="round" stroke-width="5"/>
	<path d="M74,167c17.05532,0 35.63456,0.63456 49,14c0.23419,0.23419 10.76789,25.46422 16,15c3.78756,-7.57512 -27.39574,-49.56247 -40,-53c-7.41221,-2.02151 -15.78649,-1.21351 -21,4c-2.35702,2.35702 9.33333,8 6,8" fill="none" stroke="black" stroke-linecap="round" stroke-width="5"/>
	<path d="M201,128c21.98997,0 24.42173,68 32,68c1.97529,0 1.45238,-22.96427 1,-25c-3.86802,-17.40608 -23.9461,-47.9461 -36,-60c-1.69967,-1.69967 -4.21334,2.39201 -6,4c-6.0205,5.41845 -16,10.32721 -16,20v0" fill="none" stroke="black" stroke-linecap="round" stroke-width="5"/>
	<path d="M90,183c0,4.82858 10.61215,15.61215 14,19c25.25638,25.25638 55.28811,27.90396 88,17c9.92448,-3.30816 22.36828,-3.24552 31,-9c4.89583,-3.26389 1.60906,-11.73655 1,-16c-2.91291,-20.39037 -16.721,-23 -40,-23c-15.51099,0 -29.70305,8 -44,8c-13.95921,0 -25.8638,-1.9546 -38,-6c-7.91483,-2.63828 -3.58258,5 -6,5" fill="none" stroke="black" stroke-linecap="round" stroke-width="5"/>
</svg>
