<?xml version="1.0" ?>
<svg baseProfile="full" height="300" version="1.1" viewBox="[0, 0, 300, 300]" width="300" xmlns="http://www.w3.org/2000/svg" xmlns:ev="http://www.w3.org/2001/xml-events" xmlns:xlink="http://www.w3.org/1999/xlink">
	<defs/>
	<path d="M81,147c0,12.03295 26.99805,29.99903 37,35c2.23709,1.11854 21.93538,14.93538 15,8c-1.05409,-1.05409 -0.94591,-2.94591 -2,-4c-3.44671,-3.44671 -8.37002,-7.14168 -13,-11c-3.73058,-3.10881 -7.64754,-6.20628 -11,-9c-2.45057,-2.04214 -20.85602,-19 -24,-19" fill="none" stroke="black" stroke-linecap="round" stroke-width="5"/>
	<path d="M180,126c11.54643,0 45.92401,23.92401 56,34c0.92151,0.92151 8,6 8,6c0,0 -1.57388,-2.72164 -2,-4c-3.44654,-10.33962 -9.03124,-19.63749 -16,-28c-8.34863,-10.01835 -37.82762,-18 -50,-18" fill="none" stroke="black" stroke-linecap="round" stroke-width="5"/>
	<path d="M90,190c12.39398,0 19.64506,-17 32,-17" fill="none" stroke="black" stroke-linecap="round" stroke-width="5"/>
	<path d="M133,161c0,-1.6983 4.87588,-2.79561 6,-3c18.51003,-3.36546 38.9147,-9 58,-9c1.50836,0 5,0.7631 5,-1" fill="none" stroke="black" stroke-linecap="round" stroke-width="5"/>
	<path d="M217,116c0,-73.91572 -11.3118,-89.70849 -91,-72c-14.08503,3.13001 -37.00774,1.01032 -46,13c-7.95072,10.60097 -12.28275,77.4345 -6,90c1.97663,3.95326 4,5.32889 4,10" fill="none" stroke="black" stroke-linecap="round" stroke-width="5"/>
	<path d="M128,182c8.88837,17.77675 2,67.60439 2,86c0,0.33333 0.2357,0.7643 0,1c-0.70711,0.70711 -2,0 -3,0c-9.82346,0 -39.78799,-35.78799 -46,-42c-0.70711,-0.70711 -0.44721,-2.10557 0,-3c0.19028,-0.38055 27.37814,-1.88558 31,-3c28.08831,-8.64256 52.04771,1.49205 79,-3c10.25469,-1.70911 22.49723,-4 33,-4" fill="none" stroke="black" stroke-linecap="round" stroke-width="5"/>
	<path d="M242,164c0,6.96747 7.22574,81.77426 4,85c-1.37493,1.37493 -7.74972,-7.74972 -8,-8c-4.06703,-4.06703 -21,-15.01668 -21,-20" fill="none" stroke="black" stroke-linecap="round" stroke-width="5"/>
	<path d="M145,194c5.42078,-5.42078 88.39208,-2.39208 96,-10c0.64668,-0.64668 4.75672,-4.48657 4,-6c-24.23352,-48.46705 -86.32852,-24 -130,-24" fill="none" stroke="black" stroke-linecap="round" stroke-width="5"/>
</svg>
