<?xml version="1.0" ?>
<svg baseProfile="full" height="300" version="1.1" viewBox="[0, 0, 300, 300]" width="300" xmlns="http://www.w3.org/2000/svg" xmlns:ev="http://www.w3.org/2001/xml-events" xmlns:xlink="http://www.w3.org/1999/xlink">
	<defs/>
	<path d="M96,149c-11.28002,5.64001 -3.71573,-28.13708 -2,-35c9.82539,-39.30157 85.57612,-103.31983 118,-57c8.39408,11.99154 9.32768,27.78527 11,42c1.43757,12.21934 6.82282,47.17718 -2,56c-5.07142,5.07142 -28.68884,-1.52223 -36,-1c-26.24389,1.87456 -51.51758,7 -78,7" fill="none" stroke="black" stroke-linecap="round" stroke-width="5"/>
	<path d="M83,130c5.53197,5.53197 13.1869,5.44509 20,8c6.51737,2.44401 13.20789,14.20789 18,19c3.19643,3.19643 11.40932,21.59068 13,20c1.36608,-1.36608 -1.26741,-5.90111 -2,-7c-7.99667,-11.995 -27.94001,-42 -43,-42" fill="none" stroke="black" stroke-linecap="round" stroke-width="5"/>
	<path d="M216,113c-6.72517,3.36259 15.71581,28.05091 18,33c0.6013,1.30281 9.86273,20.41182 10,20c6.59441,-19.78324 -21.32004,-43.66002 -36,-51" fill="none" stroke="black" stroke-linecap="round" stroke-width="5"/>
	<path d="M111,184c11.13207,11.13207 90.79043,28.13971 109,16c5.4652,-3.64347 31.69304,-27.61391 29,-33c-2.21875,-4.4375 -14.31172,-8.82793 -19,-10c-3.06786,-0.76696 -10,-6 -9,-3c3.04819,9.14456 29.01288,23.97424 21,40c-4.80615,9.6123 -37.10142,8.52535 -47,11c-14.78704,3.69676 -50.93488,-5.53422 -64,-13c-9.02299,-5.15599 -16.61254,-8.61254 -23,-15c-0.41021,-0.41021 -2,-3 -2,-3c0,0 -0.21333,3.57333 0,4c7.85346,15.70692 8.64795,31.80994 20,46c12.91653,16.14566 92.08313,7.87886 111,1c7.3448,-2.67084 14.6066,-9.73773 21,-14c4.77203,-3.18135 -10.77244,-15.54488 -12,-18c-2.19422,-4.38843 -2.06468,-17.81294 -8,-19c-30.58143,-6.11629 -67.86089,12.86545 -97,19c-1.21045,0.25483 -28,1 -28,1c0,0 13.56078,-1.0244 14,-1c6.73087,0.37394 13.38966,1.67793 20,3c9.6512,1.93024 87.70167,1.29833 95,-6c1.85348,-1.85348 -31.97416,-4 -33,-4c-22.0492,0 -47.54632,-5.76749 -69,-1c-8.46799,1.88178 -17.32531,5 -26,5c-0.33333,0 -1.30638,0.13131 -1,0c21.70492,-9.30211 49.90384,-4.92051 73,-8c14.57144,-1.94286 27.85738,-10 43,-10" fill="none" stroke="black" stroke-linecap="round" stroke-width="5"/>
	<path d="M127,169c0,20.91119 18.60212,45.11005 23,66c1.83017,8.69329 -3.46086,30.53914 3,37c0.59763,0.59763 -1.08088,2 1,2c3.66667,0 0,-7.33333 0,-11c0,-22.72302 0.24244,-43.27267 -7,-65c-1.33526,-4.00579 -5,-12.60927 -5,-17c0,-3.14466 -5.76269,-11.05077 -5,-8c1.77307,7.0923 7.0207,12.96247 9,20c5.06193,17.99796 4,39.22868 4,58" fill="none" stroke="black" stroke-linecap="round" stroke-width="5"/>
	<path d="M97,177c-8.18751,-8.18751 -9.22157,62.3294 -11,73c-1.57747,9.4648 -2.31989,10.72044 0,20c0.32338,1.29352 0,5.33333 0,4c0,-18.09157 3.87123,-37.90543 6,-56c0.24953,-2.12102 0.37201,-27 2,-27" fill="none" stroke="black" stroke-linecap="round" stroke-width="5"/>
	<path d="M242,170c0,22.61752 13.81727,44.23253 19,66c1.96217,8.24112 4.15175,17.51752 5,26c0.29851,2.98511 -0.72761,11.91043 0,9c11.12493,-44.49971 -24,-68.55583 -24,-84" fill="none" stroke="black" stroke-linecap="round" stroke-width="5"/>
	<path d="M221,228c0,2.17472 -1,2.00759 -1,5" fill="none" stroke="black" stroke-linecap="round" stroke-width="5"/>
</svg>
