<?xml version="1.0" ?>
<svg baseProfile="full" height="300" version="1.1" viewBox="[0, 0, 300, 300]" width="300" xmlns="http://www.w3.org/2000/svg" xmlns:ev="http://www.w3.org/2001/xml-events" xmlns:xlink="http://www.w3.org/1999/xlink">
	<defs/>
	<path d="M77,61c-8.26805,16.53611 8.47307,24.23654 18,29c0.81758,0.40879 5.15656,2.26516 6,1c11.52435,-17.28653 -19,-28.66153 -19,-35" fill="none" stroke="black" stroke-linecap="round" stroke-width="5"/>
	<path d="M76,58c20.07887,-3.34648 40.70051,-1.38071 61,-4c13.38553,-1.72717 27.64978,-4.09283 41,-6c17.5018,-2.50026 48.74429,-14.84929 43,11c-1.11436,5.0146 -1.44424,15.44424 -5,19c-4.11636,4.11636 -11.204,-3.45662 -17,-4c-4.67039,-0.43785 -24.13974,-0.0988 -30,1c-13.46555,2.52479 -29.32673,1.66336 -42,8c-1.47052,0.73526 -20,12 -20,12c0,0 3.93333,0 1,0" fill="none" stroke="black" stroke-linecap="round" stroke-width="5"/>
	<path d="M105,79c1.43372,1.43372 3.9769,1.13487 6,1c13.49924,-0.89995 21.04361,-11.16056 33,-13c11.16007,-1.71693 23.41134,-0.47045 34,-4c7.86289,-2.62096 29.55639,-7 29,-7" fill="none" stroke="black" stroke-linecap="round" stroke-width="5"/>
	<path d="M104,93c0,16.99407 -1.14432,33.29888 -3,50c-0.66584,5.99258 0.91557,8.78893 3,14c0.263,0.65749 4,3.70104 4,3c0,-1.05409 -0.74435,-1.97738 -1,-3c-2.72431,-10.89725 6,-16.67543 6,-27c0,-11.82187 -4.50111,-27.99778 0,-37c0.70634,-1.41267 -1.02805,-2 -2,-2" fill="none" stroke="black" stroke-linecap="round" stroke-width="5"/>
	<path d="M129,79c0,10.48515 -3.05421,20.59629 -4,31c-1.27446,14.01911 0.40005,26.86674 8,37c0.82462,1.09949 3.17538,2.09949 4,1c5.67932,-7.57243 -2.02369,-25.18952 -3,-33c-1.51974,-12.15794 3,-24.70061 3,-37" fill="none" stroke="black" stroke-linecap="round" stroke-width="5"/>
	<path d="M158,72c0,15.41522 0.78359,29.48511 3,45c0.44946,3.14625 3.87061,46.87061 7,50c0.52705,0.52705 -0.66667,-1.33333 -1,-2c-1.95819,-3.91638 -3.88889,-4.66664 -3,-10c1.31202,-7.8721 5,-11.84377 5,-20c0,-13.87021 -3.48874,-26.39864 -5,-40c-0.26403,-2.37627 5.13347,-23 2,-23" fill="none" stroke="black" stroke-linecap="round" stroke-width="5"/>
	<path d="M181,79c3.63807,3.63807 0.17882,13.07295 1,18c2.49786,14.98715 13,45.79008 13,59c0,0.07336 6.23207,5.30379 7,3c9.94253,-29.82758 -7,-58.1931 -7,-86" fill="none" stroke="black" stroke-linecap="round" stroke-width="5"/>
</svg>
