<?xml version="1.0" ?>
<svg baseProfile="full" height="300" version="1.1" viewBox="[0, 0, 300, 300]" width="300" xmlns="http://www.w3.org/2000/svg" xmlns:ev="http://www.w3.org/2001/xml-events" xmlns:xlink="http://www.w3.org/1999/xlink">
	<defs/>
	<path d="M85,54c0,28.4589 5.64417,59.57668 12,85c1.51287,6.0515 26.12164,3 29,3c30.26296,0 65.38326,15.30837 96,0c1.52062,-0.76031 -0.47458,-30.44068 0,-34c0.88086,-6.60645 6.41553,-52.91689 -4,-55c-4.95213,-0.99043 -12.12606,0 -17,0c-23.15826,0 -39.61906,3.40477 -62,9c-11.23219,2.80805 -28.10558,6.3216 -40,5c-3.56245,-0.39583 -23,-10.14615 -23,-2" fill="none" stroke="black" stroke-linecap="round" stroke-width="5"/>
	<path d="M86,100c0,12.58526 -4.21626,48.67561 4,61c5.39777,8.09666 16.01175,12.29411 24,18c30.99981,22.14272 42.20894,31.58324 85,25c21.59063,-3.32164 38.46897,-1.60172 55,-14c0.02183,-0.01637 -3.64149,-6.56596 -4,-8c-4.43652,-17.7461 -20.62195,-25.07317 -37,-27c-26.3985,-3.10571 -54.59184,6.67755 -79,14c-7.36673,2.21002 -36.48412,10 -36,10" fill="none" stroke="black" stroke-linecap="round" stroke-width="5"/>
	<path d="M228,99c0,-10.33745 2.56775,17.11835 3,20c3.1889,21.25934 10.88385,38.7677 19,55c0.50136,1.00271 6,7 6,7c0,0 -5.27358,-1.82809 -9,-1c-1.75231,0.3894 -4.19723,3.60555 -5,2c-8.71997,-17.43994 -27,-45.49724 -27,-65" fill="none" stroke="black" stroke-linecap="round" stroke-width="5"/>
	<path d="M85,120c2.87372,0 1.40436,3.38255 1,5c-2.68413,10.73653 -2.55379,18.61553 2,30c6.89196,17.22989 29.85639,20.05126 43,32c3.35489,3.0499 23.76315,28.61843 29,26c1.11682,-0.55841 -4.79174,-9.63554 -5,-10c-3.47792,-6.08636 -5.03521,-21.03521 -8,-24c-3.68831,-3.68831 -8.51312,-4.5102 -13,-8c-5.78774,-4.50158 -7.94457,-4.97228 -14,-8c-14.16376,-7.08188 -11.29456,-35.64728 -24,-42" fill="none" stroke="black" stroke-linecap="round" stroke-width="5"/>
	<path d="M89,161c-11.40392,17.10588 -36.13397,45.46413 -31,66c0.65179,2.60718 2.57567,-4.72107 4,-7c3.84121,-6.14593 11.32116,-12.63166 17,-17c10.70868,-8.23745 24.50126,-30.50377 29,-44c0.44444,-1.33333 -0.11111,-1 -1,-1" fill="none" stroke="black" stroke-linecap="round" stroke-width="5"/>
	<path d="M142,193c0,15.21791 -8.72007,30.11971 -5,45c0.90565,3.62258 1,11.68834 1,16c0,0.33333 0,0.66667 0,1c0,1.33333 -0.42164,5.26491 0,4c5.85717,-17.57151 15.25555,-34.60368 20,-52c0.95094,-3.48678 11.23342,-21 10,-21" fill="none" stroke="black" stroke-linecap="round" stroke-width="5"/>
	<path d="M241,195c1.05409,0 0.5286,2.05719 1,3c6.60616,13.21232 16.30508,28.17513 24,41c2.71171,4.51951 7.73091,8.73091 11,12c1.17851,1.17851 3,5.66667 3,4c0,-4.25537 -33.2075,-72 -38,-72" fill="none" stroke="black" stroke-linecap="round" stroke-width="5"/>
	<path d="M240,207c-20.13812,0 -44.33975,11.10193 -64,17c-3.00136,0.90041 -27,4.64753 -27,5c0,8.69227 17.33616,2.70247 26,2c13.93297,-1.1297 41.34396,-4.17198 53,-10c0.59628,-0.29814 1.35324,0.16169 2,0c3.18195,-0.79549 18.89588,-13.27603 16,-14c-33.55977,-8.38994 -62.07869,1 -93,1" fill="none" stroke="black" stroke-linecap="round" stroke-width="5"/>
	<path d="M85,195c8.03346,0 41.8618,-6.3794 34,-9" fill="none" stroke="black" stroke-linecap="round" stroke-width="5"/>
	<path d="M89,193c11.61208,0 47.71538,-2 44,-2" fill="none" stroke="black" stroke-linecap="round" stroke-width="5"/>
</svg>
