<?xml version="1.0" ?>
<svg baseProfile="full" height="300" version="1.1" viewBox="[0, 0, 300, 300]" width="300" xmlns="http://www.w3.org/2000/svg" xmlns:ev="http://www.w3.org/2001/xml-events" xmlns:xlink="http://www.w3.org/1999/xlink">
	<defs/>
	<path d="M85,67c0,36.50816 -32.79671,120.20329 -5,148c2.17502,2.17502 3.68911,10.89637 7,12c0.63246,0.21082 1.36754,-0.21082 2,0c1.07687,0.35896 -1.62536,-3.12391 0,-8c1.39761,-4.19283 9.44534,-17.10931 8,-20c-0.97626,-1.95252 -6.27812,-10.08283 -3,-15c4.71527,-7.07291 26.00061,-21.99939 35,-13c18.19625,18.19625 5.22562,55.45124 17,79c0.29317,0.58635 6.51956,5.48044 7,5c6.26414,-6.26414 9.07549,-61.53775 12,-63c6.09292,-3.04646 63.04668,-11.98444 69,-10c0.94868,0.31623 -0.44721,2.10557 0,3c6.54,13.07999 11.55584,30.66753 16,44c0.09797,0.2939 1.98313,6.01687 3,5c8.73238,-8.73238 0.27545,-12.1018 3,-23c2.78825,-11.15302 0.21286,-20.0843 -1,-31c-1.35486,-12.19371 6.05279,-30.94721 -4,-41c-1.29489,-1.29489 -6.28718,0.85641 -8,0c-11.71648,-5.85824 -33.10554,-6.07036 -45,-14c-0.07931,-0.05287 0.79667,-5.39002 1,-6c4.61823,-13.8547 13.32006,-63.11996 0,-72c-20.56446,-13.70964 -55.80446,-0.93234 -78,4c-11.37995,2.52888 -20.69536,5.01013 -32,9c-2.10859,0.74421 -8.23607,3 -6,3" fill="none" stroke="black" stroke-linecap="round" stroke-width="5"/>
	<path d="M102,153c15.57469,5.19156 41.63365,31 56,31c3.73253,0 11.07119,-6.79113 15,-8c3.13747,-0.96538 43.42515,-9 48,-9c13.22793,0 27.50614,1.20577 40,-4c0.97301,-0.40542 1.74536,-2.25464 1,-3c-19.18863,-19.18863 -39.41323,-10.44794 -62,-24c-11.72736,-7.03641 -12.07312,-17.73172 -31,-13c-25.4322,6.35805 -51.66574,24 -77,24" fill="none" stroke="black" stroke-linecap="round" stroke-width="5"/>
	<path d="M94,106c10.90939,10.90939 138.7484,5.49681 108,-56c-6.98118,-13.96236 -32.70602,-13.95422 -46,-11c-9.63858,2.14191 -62.59715,27.1943 -66,34c-5.45026,10.90052 -13.77283,24.92037 -3,33c4.05437,3.04078 7.48037,5.51963 11,2" fill="none" stroke="black" stroke-linecap="round" stroke-width="5"/>
	<path d="M82,111c0,9.62192 -2.69157,18.84097 -4,28c-2.39654,16.7758 3.73806,36.69032 7,53c1.3233,6.61652 -5.43332,15.13337 -2,22c0.63992,1.27985 5.98773,5 7,5c10.34327,0 0.6643,-24.01417 0,-28c-0.82628,-4.95769 6,-8.71265 6,-14" fill="none" stroke="black" stroke-linecap="round" stroke-width="5"/>
	<path d="M91,157c10.93462,3.64487 45.22057,-14 32,-14" fill="none" stroke="black" stroke-linecap="round" stroke-width="5"/>
	<path d="M193,189c4.32689,0 1.11709,23.45609 13,19c7.46587,-2.7997 10.70551,-31 9,-31" fill="none" stroke="black" stroke-linecap="round" stroke-width="5"/>
</svg>
