<?xml version="1.0" ?>
<svg baseProfile="full" height="300" version="1.1" viewBox="[0, 0, 300, 300]" width="300" xmlns="http://www.w3.org/2000/svg" xmlns:ev="http://www.w3.org/2001/xml-events" xmlns:xlink="http://www.w3.org/1999/xlink">
	<defs/>
	<path d="M92,142c0,27.79681 7,56.24759 7,84c0,1.84105 -1.2177,9.7823 0,11c2.69707,2.69707 20.10243,-3.65499 22,-4c9.69306,-1.76237 20.94022,-2.98007 30,-6c13.19722,-4.39907 30.62338,3.45887 44,-1c1.30384,-0.43461 -0.66667,-2.66667 -1,-4c-1.29946,-5.19785 -0.43341,-13.79905 0,-19c1.61924,-19.43084 3.80972,-69.19028 -10,-83c-7.4269,-7.4269 -77.68099,12 -89,12c-1.05409,0 -2.5286,0.05719 -3,1c-0.62157,1.24315 -6.25713,19 -3,19" fill="none" stroke="black" stroke-linecap="round" stroke-width="5"/>
	<path d="M104,215c0,-21.93887 6.66109,-54.67783 -3,-74c-0.59132,-1.18263 0.23913,-4.23913 1,-5c2.06776,-2.06776 13.09337,0.72666 16,0c8.24806,-2.06202 16.58949,-3.89737 25,-6c10.90262,-2.72566 22.70989,-0.56996 33,-4c0.03469,-0.01156 3.97826,-1.02174 4,-1c2.86596,2.86596 1.91865,24.67461 3,29c4.43059,17.72236 7,33.8811 7,53c0,0.47931 0.39377,6.80311 0,7c-5.75848,2.87924 -74.28791,13.85605 -78,12c-3.61057,-1.80528 -7,-17.00065 -7,-21" fill="none" stroke="black" stroke-linecap="round" stroke-width="5"/>
	<path d="M112,234c-8.40369,8.40369 3.83558,52.16442 -3,59" fill="none" stroke="black" stroke-linecap="round" stroke-width="5"/>
	<path d="M176,227c0,2.50162 11,91.5533 11,70" fill="none" stroke="black" stroke-linecap="round" stroke-width="5"/>
</svg>
