<?xml version="1.0" ?>
<svg baseProfile="full" height="300" version="1.1" viewBox="[0, 0, 300, 300]" width="300" xmlns="http://www.w3.org/2000/svg" xmlns:ev="http://www.w3.org/2001/xml-events" xmlns:xlink="http://www.w3.org/1999/xlink">
	<defs/>
	<path d="M112,111c-2.11466,0 -0.74096,2.44574 -1,4c-1.96593,11.79555 0,23.88205 0,36c0,12.33333 0,24.66667 0,37c0,3.39935 -5.04047,8.47977 -2,10c15.1993,7.59965 44.65894,-8.44316 60,-11c7.65193,-1.27532 26.47984,-2.47984 32,-8c0.52302,-0.52302 -3.52881,-4.17542 -4,-5c-3.87741,-6.78546 -7.5915,-18.48799 -9,-26c-3.08315,-16.44349 3.73559,-52.5096 -12,-63c-25.41747,-16.94498 -53.11841,26 -73,26" fill="none" stroke="black" stroke-linecap="round" stroke-width="5"/>
	<path d="M118,105c-8.9557,-8.9557 11.04309,-46.95691 -4,-62" fill="none" stroke="black" stroke-linecap="round" stroke-width="5"/>
	<path d="M145,83c2.00444,0 1,-4.71171 1,-6c0,-16.07796 -1,-31.93998 -1,-48" fill="none" stroke="black" stroke-linecap="round" stroke-width="5"/>
	<path d="M180,91c-7.29386,-14.58771 -7,-27.11668 -7,-42" fill="none" stroke="black" stroke-linecap="round" stroke-width="5"/>
	<path d="M185,85c0,-17.50335 -6,-35.52778 -6,-54" fill="none" stroke="black" stroke-linecap="round" stroke-width="5"/>
	<path d="M77,31c9.6471,9.6471 64.99995,-3.59999 79,-5c15.04001,-1.504 29.20159,-3.5336 44,-6c1.69601,-0.28267 3.91262,0.73787 3,-2c-1.3892,-4.16759 -7.93004,-6.93004 -11,-10c-3.8359,-3.8359 -5.08593,-14.04297 -9,-16c-4.29749,-2.14874 -60.71005,12.57002 -71,16c-8.50082,2.83361 -29.58725,0.58725 -36,7c-2.61232,2.61232 5.28625,26.28625 8,29" fill="none" stroke="black" stroke-linecap="round" stroke-width="5"/>
	<path d="M117,197c5.27899,10.55797 5.06617,36.27215 4,48c-0.24848,2.73326 -5,25.36687 -5,21" fill="none" stroke="black" stroke-linecap="round" stroke-width="5"/>
	<path d="M148,194c2.06094,2.06094 16,66.95202 16,71" fill="none" stroke="black" stroke-linecap="round" stroke-width="5"/>
</svg>
