<?xml version="1.0" ?>
<svg baseProfile="full" height="300" version="1.1" viewBox="[0, 0, 300, 300]" width="300" xmlns="http://www.w3.org/2000/svg" xmlns:ev="http://www.w3.org/2001/xml-events" xmlns:xlink="http://www.w3.org/1999/xlink">
	<defs/>
	<path d="M81,134c16.23052,0 29.49318,37.52047 24,54c-2.99378,8.98135 -12.16122,13.48365 -15,22c-13.99876,41.99628 21.78173,45.86971 57,40c11.58649,-1.93108 28.74515,-6.74515 37,-15c19.84695,-19.84695 -13.53227,-37.59682 -19,-54c-4.31637,-12.9491 5.89038,-75.10962 2,-79c-17.28622,-17.28622 -50.7394,-11.96484 -65,8c-5.35857,7.502 -5.10028,17.65043 -10,25c-2.76644,4.14966 -16,11.73843 -16,16" fill="none" stroke="black" stroke-linecap="round" stroke-width="5"/>
	<path d="M103,105c-4.1464,4.1464 -0.76251,-14.50635 -1,-17c-1.67096,-17.54511 -6,-35.32777 -6,-53" fill="none" stroke="black" stroke-linecap="round" stroke-width="5"/>
</svg>
