<?xml version="1.0" ?>
<svg baseProfile="full" height="300" version="1.1" viewBox="[0, 0, 300, 300]" width="300" xmlns="http://www.w3.org/2000/svg" xmlns:ev="http://www.w3.org/2001/xml-events" xmlns:xlink="http://www.w3.org/1999/xlink">
	<defs/>
	<path d="M95,128c0,9.54423 -6.05955,73.94045 -2,78c0.36503,0.36503 3.73424,-0.1063 4,0c27.39028,10.95611 53.98462,-6 80,-6c0.66667,0 1.70186,0.59628 2,0c4.21087,-8.42175 0,-30.58068 0,-40c0,-5.66032 3.22823,-25.77177 -1,-30c-6.28787,-6.28787 -69.98313,-3 -82,-3" fill="none" stroke="black" stroke-linecap="round" stroke-width="5"/>
	<path d="M100,126c-2.75507,0 -1.64463,-1.8678 -2,-4c-2.95013,-17.70078 -2,-35.92942 -2,-54" fill="none" stroke="black" stroke-linecap="round" stroke-width="5"/>
	<path d="M113,127c0,-20.12233 -1,-41.68325 -1,-62" fill="none" stroke="black" stroke-linecap="round" stroke-width="5"/>
	<path d="M128,125c-10.175,-10.175 4,-50.55621 4,-64" fill="none" stroke="black" stroke-linecap="round" stroke-width="5"/>
	<path d="M146,127c-1.42136,0 -1.58597,-3.55088 -2,-5c-5.62033,-19.67117 4,-37.7281 4,-57" fill="none" stroke="black" stroke-linecap="round" stroke-width="5"/>
	<path d="M160,121c0,-20.84269 -6.18777,-44.24894 -1,-65" fill="none" stroke="black" stroke-linecap="round" stroke-width="5"/>
	<path d="M169,123c0,-23.28714 5,-46.61292 5,-69" fill="none" stroke="black" stroke-linecap="round" stroke-width="5"/>
	<path d="M181,124c0,-14.65957 -2.25296,-29.35576 0,-44c1.1751,-7.63818 5,-16.66565 5,-24" fill="none" stroke="black" stroke-linecap="round" stroke-width="5"/>
	<path d="M85,59c24.38298,4.8766 57.36863,15.5563 82,5c8.74621,-3.74837 21.14008,-35 2,-35" fill="none" stroke="black" stroke-linecap="round" stroke-width="5"/>
</svg>
