<?xml version="1.0" ?>
<svg baseProfile="full" height="300" version="1.1" viewBox="[0, 0, 300, 300]" width="300" xmlns="http://www.w3.org/2000/svg" xmlns:ev="http://www.w3.org/2001/xml-events" xmlns:xlink="http://www.w3.org/1999/xlink">
	<defs/>
	<path d="M51,57c0,22.45454 7.6741,56.57806 10,81c2.80961,29.50096 5.73999,58.65993 9,88c0.16081,1.44727 2,27 2,27c0,0 0.29361,-10.00863 0,-15c-1.41186,-24.00157 -8.61691,-47.16912 -11,-71c-2.94916,-29.49159 -1.88861,-59.44058 -4,-89c-0.90118,-12.61654 -7.26448,-33.71622 -2,-46c10.66598,-24.88728 58.0178,-23.19822 80,-21c69.05334,6.90533 63.8971,102.48548 74,153c3.58051,17.90256 8.969,34.81397 12,53c1.58776,9.52658 4,20.40517 4,30c0,0.33333 0.1849,1.27735 0,1c-3.9245,-5.88675 -4.1593,-10.32744 -10,-15" fill="none" stroke="black" stroke-linecap="round" stroke-width="5"/>
	<path d="M63,89c35.16311,0 70.96847,-0.74125 106,-4c19.71289,-1.83376 42.33474,-8 62,-8" fill="none" stroke="black" stroke-linecap="round" stroke-width="5"/>
</svg>
