<?xml version="1.0" ?>
<svg baseProfile="full" height="300" version="1.1" viewBox="[0, 0, 300, 300]" width="300" xmlns="http://www.w3.org/2000/svg" xmlns:ev="http://www.w3.org/2001/xml-events" xmlns:xlink="http://www.w3.org/1999/xlink">
	<defs/>
	<path d="M88,247c15.11927,-37.79818 12.01824,-80.81764 8,-121c-0.95313,-9.53131 -6.197,-22.197 -13,-29c-1.57912,-1.57912 -16.3006,-7.6994 -14,-10c9.72294,-9.72294 127.34051,-11.10992 146,-8c39.44983,6.57497 33,103.21388 33,132c0,5.39773 -1.75828,60.75828 -2,61c-1.65931,1.65931 -5.45979,-5.18969 -6,-6" fill="none" stroke="black" stroke-linecap="round" stroke-width="5"/>
	<path d="M68,91c0,36.56849 7.20893,76.95534 0,113c-2.47718,12.38591 -7.07118,26.08898 -15,36c-1.84533,2.30666 -6.2719,5.63595 -9,7c-2.99891,1.49945 -7.38171,-5 -6,-5" fill="none" stroke="black" stroke-linecap="round" stroke-width="5"/>
	<path d="M124,167c17.99448,0 36.04287,-1.00238 54,-2c8.69958,-0.48331 17.31513,-2.42101 26,-3c13.89454,-0.9263 28.07946,-1 42,-1c4.62989,0 -6.32958,-4 -9,-4c-41.734,0 -85.09731,4.38108 -127,7c-11.08731,0.69296 -21.86701,3 -33,3c-1.89393,0 -13.36501,1.63499 -15,0c-0.1337,-0.1337 0,-4.92786 0,-2" fill="none" stroke="black" stroke-linecap="round" stroke-width="5"/>
</svg>
