<?xml version="1.0" ?>
<svg baseProfile="full" height="300" version="1.1" viewBox="[0, 0, 300, 300]" width="300" xmlns="http://www.w3.org/2000/svg" xmlns:ev="http://www.w3.org/2001/xml-events" xmlns:xlink="http://www.w3.org/1999/xlink">
	<defs/>
	<path d="M121,151c0,7.44078 1.65614,107.55205 -24,99c-13.66385,-4.55462 -13.79638,-55.81449 -11,-67c0.32935,-1.31739 2,-24 2,-24c0,0 -3.84129,23.20645 -4,24c-2.24507,11.22534 -13.71007,89.07248 -34,84c-19.32962,-4.8324 -20,-38.25292 -20,-53c0,-41.92905 14.54679,-79.56146 18,-121c1.36805,-16.41654 0.72327,-38.81551 16,-49c9.90724,-6.60483 95.74271,-13 111,-13c4.44444,0 30.78929,-3.42141 34,3c9.23755,18.4751 9,139.06195 9,171c0,9.68173 10.59267,54.11853 -10,50c-42.08999,-8.418 -7.74362,-59.74362 -27,-79" fill="none" stroke="black" stroke-linecap="round" stroke-width="5"/>
</svg>
