<?xml version="1.0" ?>
<svg baseProfile="full" height="300" version="1.1" viewBox="[0, 0, 300, 300]" width="300" xmlns="http://www.w3.org/2000/svg" xmlns:ev="http://www.w3.org/2001/xml-events" xmlns:xlink="http://www.w3.org/1999/xlink">
	<defs/>
	<path d="M100,144c0,6.26887 -8.42899,88.64275 -23,85c-13.40385,-3.35096 -3.43368,-54.8316 -2,-62c1.50205,-7.51027 4,-15.384 4,-23c0,-0.33333 0,-1.33333 0,-1c0,2.74874 -0.88363,5.48817 -2,8c-1.67455,3.76774 -1.84553,8.04182 -3,12c-2.4583,8.42845 -15.37797,61.91864 -23,67c-1.54002,1.02668 -9.13627,3.86373 -11,2c-13.38053,-13.38053 -5.7237,-68.24336 -2,-85c3.66948,-16.51267 10.23017,-65.23017 22,-77c12.11305,-12.11305 63.94946,-11.86868 81,-14c20.84123,-2.60515 49.99223,-8.57476 70,0c39.53355,16.94295 9.34133,124.29333 3,156c-1.54876,7.7438 0.41748,22.16504 -3,29c-0.90217,1.80434 -10.28821,2 -12,2c-21.41753,0 -25,-19.54686 -25,-37c0,-13.0628 5,-25.02507 5,-38" fill="none" stroke="black" stroke-linecap="round" stroke-width="5"/>
</svg>
