<?xml version="1.0" ?>
<svg baseProfile="full" height="300" version="1.1" viewBox="[0, 0, 300, 300]" width="300" xmlns="http://www.w3.org/2000/svg" xmlns:ev="http://www.w3.org/2001/xml-events" xmlns:xlink="http://www.w3.org/1999/xlink">
	<defs/>
	<path d="M85,33c0,28.01137 -12.86727,73.10618 12,93c28.60437,22.8835 68.98004,6.16999 100,1c18.02889,-3.00482 37.32177,2.26078 44,-20c3.94829,-13.16095 3.5658,-24.16314 0,-37c-16.86747,-60.7229 -81.00656,-50.55483 -131,-45c-9.02386,1.00265 -51.40724,10.18552 -57,-1" fill="none" stroke="black" stroke-linecap="round" stroke-width="5"/>
	<path d="M105,143c23.50369,17.62777 75.46218,24.70756 104,19c9.76829,-1.95366 16.66026,-10.13205 26,-12c12.15298,-2.4306 20.92676,10.43946 19,22c-4.54932,27.29589 -109.29885,55.77587 -129,41c-12.23715,-9.17786 -8.34462,-40.97205 -8,-52c0.19891,-6.36522 1.51157,-12.65043 2,-19c0.04331,-0.56307 0,-11.79783 0,-8" fill="none" stroke="black" stroke-linecap="round" stroke-width="5"/>
</svg>
