<?xml version="1.0" ?>
<svg baseProfile="full" height="300" version="1.1" viewBox="[0, 0, 300, 300]" width="300" xmlns="http://www.w3.org/2000/svg" xmlns:ev="http://www.w3.org/2001/xml-events" xmlns:xlink="http://www.w3.org/1999/xlink">
	<defs/>
	<path d="M68,75c12.11299,-4.84519 29.45132,-12 42,-12c17.99082,0 38.39693,-0.80153 54,7c17.39609,8.69804 19.93347,39.8004 26,58c2.14195,6.42584 -7.77018,13.14912 -6,22c0.46705,2.33527 19.01113,37.12696 17,40c-3.4034,4.862 -9.06192,7.70795 -14,11c-1.41421,0.94281 3.33333,0.66667 5,1c0.17618,0.03524 -0.05332,5.78673 0,6c1.49329,5.97315 2.17822,7.17822 6,11" fill="none" stroke="black" stroke-linecap="round" stroke-width="5"/>
	<path d="M71,74c0,38.74851 13,77.75615 13,116c0,10.77336 5.596,30.91401 3,40c-0.13605,0.47618 -9,25.81424 -9,17" fill="none" stroke="black" stroke-linecap="round" stroke-width="5"/>
	<path d="M77,150c0,7.07012 2,-6.27552 2,-8" fill="none" stroke="black" stroke-linecap="round" stroke-width="5"/>
	<path d="M67,103c0,33.39749 -3.19296,72.51457 -15,104c-5.98827,15.96872 -17.49901,29.99801 -25,45" fill="none" stroke="black" stroke-linecap="round" stroke-width="5"/>
	<path d="M95,179c17.88089,0 36.1186,-2.62558 54,-1c3.71916,0.33811 25.3055,2.6945 27,1c1.32818,-1.32818 -0.2153,-11.92348 0,-13c1.79671,-8.98357 1.79262,-15.0369 0,-24c-1.30406,-6.52032 1.40974,-25.59026 -3,-30c-2.49626,-2.49626 -28.64218,6.0316 -33,7c-14.11227,3.13606 -29.01252,7 -43,7c-0.84259,0 -6,1 -6,1c0,0 3.42412,0.13618 4,1c7.40769,11.11153 8,33.97426 8,47" fill="none" stroke="black" stroke-linecap="round" stroke-width="5"/>
</svg>
