<?xml version="1.0" ?>
<svg baseProfile="full" height="300" version="1.1" viewBox="[0, 0, 300, 300]" width="300" xmlns="http://www.w3.org/2000/svg" xmlns:ev="http://www.w3.org/2001/xml-events" xmlns:xlink="http://www.w3.org/1999/xlink">
	<defs/>
	<path d="M60,133c13.03388,0 16.33518,-12.66482 30,1c12.88523,12.88523 -9.41828,68.64543 16,75c33.72483,8.43121 7.07036,-72.07036 18,-83c3.60622,-3.60622 12.1255,2.30364 17,3c10.89359,1.55623 20.08884,0 31,0" fill="none" stroke="black" stroke-linecap="round" stroke-width="5"/>
	<path d="M60,133c0,13.33333 0,26.66667 0,40c0,21.50638 -2.45554,36.91107 -12,56c-0.18145,0.36291 -5.88438,9.17343 -8,6c-12.81243,-19.21864 -5.55802,-46.53583 -3,-67c5.32789,-42.62311 -21.55817,-110.72091 27,-135c10.13127,-5.06563 93.9335,-9.13301 99,1c4.0688,8.1376 6.92913,69.07087 2,74c-0.05983,0.05983 1.42621,12.85241 2,14c0.66667,1.33333 2,5.49071 2,4c0,-0.94281 -1.15673,-2.42164 -2,-2" fill="none" stroke="black" stroke-linecap="round" stroke-width="5"/>
</svg>
