<?xml version="1.0" ?>
<svg baseProfile="full" height="300" version="1.1" viewBox="[0, 0, 300, 300]" width="300" xmlns="http://www.w3.org/2000/svg" xmlns:ev="http://www.w3.org/2001/xml-events" xmlns:xlink="http://www.w3.org/1999/xlink">
	<defs/>
	<path d="M118,117c6.17219,6.17219 5.54971,27.304 5,35c-1.35174,18.92437 7.8145,102.06183 -13,109c-32.18617,10.72872 -26,-63.92811 -26,-81c0,-2.97949 -1.38061,-35.61939 -3,-34c-9.88612,9.88612 2.31137,128.34431 -27,143c-20.47955,10.23977 -29.44638,-45.48126 -30,-56c-1.04126,-19.784 14.06051,-157.57564 28,-175c14.81421,-18.51776 47.88255,-14 69,-14c9.86549,0 98.35441,-3.29117 101,2c11.57354,23.14707 7,49.00717 7,74c0,0.66667 -0.4714,1.5286 0,2c0.94327,0.94327 4,8.4331 4,11c0,8.68161 0,19.01556 0,28c0,3.65091 1.39046,6.34275 2,10c0.3288,1.97279 0.63246,7.89737 0,6c-1.32077,-3.96232 -3.57237,-7.60132 -6,-11" fill="none" stroke="black" stroke-linecap="round" stroke-width="5"/>
	<path d="M133,157c0,-1.94365 3.1801,-2.31754 5,-3c14.58556,-5.46959 76.19783,-8.68348 86,7c6.60765,10.57224 19.90118,62.46509 12,73c-14.35329,19.13772 -57.59729,12.70136 -75,4c-7.90794,-3.95397 5.52772,-63.94455 -3,-81" fill="none" stroke="black" stroke-linecap="round" stroke-width="5"/>
</svg>
