<?xml version="1.0" ?>
<svg baseProfile="full" height="300" version="1.1" viewBox="[0, 0, 300, 300]" width="300" xmlns="http://www.w3.org/2000/svg" xmlns:ev="http://www.w3.org/2001/xml-events" xmlns:xlink="http://www.w3.org/1999/xlink">
	<defs/>
	<path d="M40,49c0,-19.92154 32.37194,-5.68597 43,-11c6.57145,-3.28572 10.80666,-11.80666 16,-17c0.42439,-0.42439 5.35629,-0.78543 6,-1c11.21265,-3.73755 80.74938,0 99,0c0.55344,0 4.57116,0.57116 5,1c2.25361,2.25361 0.74639,11.74639 3,14c4.83036,4.83036 36.63033,-6.36967 46,3c1.25366,1.25366 -1.49154,5.98308 -2,7c-4.4187,8.83739 -24.01949,9.75487 -33,12c-40.66523,10.16631 -83.68946,9.59006 -125,5c-12.28869,-1.36541 -28.15153,0.42424 -39,-5c-6.85198,-3.42599 -11.67863,-4.67863 -17,-10c-2.23774,-2.23774 2,-2.87678 2,-1" fill="none" stroke="black" stroke-linecap="round" stroke-width="5"/>
	<path d="M68,173c-5.38337,2.69169 -14.68324,-1.63352 -19,7c-3.59241,7.18483 2,12.45292 2,19c0,2.22799 -0.32152,12.83924 2,14c3.23423,1.61711 14.68407,-1.31593 17,1c2.02759,2.02759 -4.30454,4.21817 -5,7c-2.02386,8.09545 -11.29882,40.88314 6,38c16.66202,-2.777 37.48908,-26.41444 60,-31c2.40477,-0.48986 355.2972,-55.79723 358,-55c25.22307,7.4399 -24.80332,46.53802 -40,68c-22.89329,32.33175 -49.70105,61.71094 -74,93c-1.53805,1.9805 -2.04796,12.52398 -7,15c-1.71847,0.85923 -0.11182,-2 -2,-2" fill="none" stroke="black" stroke-linecap="round" stroke-width="5"/>
</svg>
