<?xml version="1.0" ?>
<svg baseProfile="full" height="300" version="1.1" viewBox="[0, 0, 300, 300]" width="300" xmlns="http://www.w3.org/2000/svg" xmlns:ev="http://www.w3.org/2001/xml-events" xmlns:xlink="http://www.w3.org/1999/xlink">
	<defs/>
	<path d="M87,72c0,26.91988 -1,54.59313 -1,82" fill="none" stroke="black" stroke-linecap="round" stroke-width="5"/>
	<path d="M111,71c0,27.84744 -1,55.29559 -1,83" fill="none" stroke="black" stroke-linecap="round" stroke-width="5"/>
	<path d="M138,71c0,21.95397 0,43.25479 0,65c0,1.83202 -0.79819,8 1,8" fill="none" stroke="black" stroke-linecap="round" stroke-width="5"/>
	<path d="M159,74c0.65762,19.07086 1,37.93546 1,57c0,6 0,12 0,18c0,1.60542 1,7.83316 1,6" fill="none" stroke="black" stroke-linecap="round" stroke-width="5"/>
	<path d="M70,53c0,4.0004 -1.16535,11.83465 1,14c2.4037,2.4037 6.66667,-2.66667 10,-2c18.77663,3.75533 49.76581,12.07806 68,6c3.21433,-1.07144 23.23577,-0.47155 25,-4c1.31466,-2.62931 -5,-5.3184 -5,-7c0,-2.35702 1.35702,-7 -1,-7c-9.39784,0 -22.22714,3.55679 -32,6c-10.5903,2.64757 -24.47305,-1.30539 -36,1c-3.37402,0.6748 -25.83492,1.16508 -27,0c-0.31168,-0.31168 -6,-5.34924 -6,-2" fill="none" stroke="black" stroke-linecap="round" stroke-width="5"/>
	<path d="M72,157c4.00785,8.0157 2.96172,18.84688 5,27c0.72761,2.91043 -3,9 0,9c10.80556,0 88.29468,-4.29468 93,-9c2.14665,-2.14665 -5.77439,-12.77439 -7,-14c-3.50519,-3.50519 2.77412,-17.11294 -3,-20c-1.63443,-0.81722 -24.97655,9.38101 -29,10c-6.90686,1.06259 -42.26075,1.86963 -48,-1c-4.91081,-2.4554 -7.74968,-5 -14,-5" fill="none" stroke="black" stroke-linecap="round" stroke-width="5"/>
	<path d="M79,192c0,11.95246 -0.41092,64.17817 5,75" fill="none" stroke="black" stroke-linecap="round" stroke-width="5"/>
	<path d="M166,183c0.79546,16.70466 1,33.33057 1,50c0,6.83738 -1,13.74873 -1,20c0,1.86271 1,8.42871 1,7" fill="none" stroke="black" stroke-linecap="round" stroke-width="5"/>
	<path d="M166,212c-5.27339,10.54679 3.63023,10.73954 6,6c2.94775,-5.89549 -3.57318,-9 -7,-9c-0.59009,0 -5.23798,1 -3,1" fill="none" stroke="black" stroke-linecap="round" stroke-width="5"/>
</svg>
