<?xml version="1.0" ?>
<svg baseProfile="full" height="300" version="1.1" viewBox="[0, 0, 300, 300]" width="300" xmlns="http://www.w3.org/2000/svg" xmlns:ev="http://www.w3.org/2001/xml-events" xmlns:xlink="http://www.w3.org/1999/xlink">
	<defs/>
	<path d="M60,32c17.89279,-17.89279 96.71131,-19.29897 122,-17c5.35331,0.48666 45,3.44791 45,8c0,1.23856 4,2 4,2c0,0 -3.23278,15.69835 -4,18c-1.69655,5.08966 3.74562,40.25438 1,43c-0.49321,0.49321 -10.85057,-6.38314 -12,-6c-6.73685,2.24562 -11.87428,8.57486 -19,10c-13.78366,2.75673 -37.79535,-2.68505 -54,-5c-13.54834,-1.93548 -33.72114,2.13943 -46,-4c-9.76459,-4.8823 -32.37927,10.62073 -41,2c-1.71594,-1.71594 2,-4.5733 2,-7c0,-5.24343 -2,-10.78289 -2,-16c0,-3.33333 0,-6.66667 0,-10c0,-6.55463 1.99962,-13.00113 0,-19c-0.78067,-2.342 -1.64723,-4 -1,-4" fill="none" stroke="black" stroke-linecap="round" stroke-width="5"/>
	<path d="M74,84c0,14.76729 1.49893,30.99574 5,45c0.59954,2.39817 2.39727,25 3,25" fill="none" stroke="black" stroke-linecap="round" stroke-width="5"/>
	<path d="M118,86c1.36008,12.24068 1.40689,38.81377 7,50c0.63203,1.26406 0.65285,3 2,3" fill="none" stroke="black" stroke-linecap="round" stroke-width="5"/>
	<path d="M171,94c2.31956,17.01014 3.99773,33.98069 6,51c0.75103,6.38376 3,24.38642 3,21" fill="none" stroke="black" stroke-linecap="round" stroke-width="5"/>
	<path d="M208,83c2.57348,15.44088 -1.81609,39.36781 5,53c2.03346,4.06692 0,13.30374 0,18c0,1.61904 1,7.56922 1,6" fill="none" stroke="black" stroke-linecap="round" stroke-width="5"/>
</svg>
