<?xml version="1.0" ?>
<svg baseProfile="full" height="300" version="1.1" viewBox="[0, 0, 300, 300]" width="300" xmlns="http://www.w3.org/2000/svg" xmlns:ev="http://www.w3.org/2001/xml-events" xmlns:xlink="http://www.w3.org/1999/xlink">
	<defs/>
	<path d="M55,26c0,6.62905 0,13.79724 0,20c0,2.23607 3.79436,-2.63239 6,-3c4.72974,-0.78829 11.41909,0 16,0c14.13501,0 30.35895,-1.51567 44,0c8.76133,0.97348 109.57542,-5.57542 113,-9c0.50333,-0.50333 -2.68436,-2.84218 -3,-3c-4.18258,-2.09129 -4.77144,-7.77144 -7,-10c-0.27615,-0.27615 -14.54692,-2 -17,-2c-23.42767,0 -48.11208,5.42242 -71,10c-13.73133,2.74627 -30.40309,-8.09949 -43,-6c-10.07831,1.67972 -19.67627,4 -30,4c-3.97279,0 -15.51497,2 -14,2" fill="none" stroke="black" stroke-linecap="round" stroke-width="5"/>
	<path d="M74,45c10.14481,10.14481 -1.25777,55.48445 6,70c2.66149,5.32298 5,30.05737 5,29" fill="none" stroke="black" stroke-linecap="round" stroke-width="5"/>
	<path d="M114,49c0,22.59938 3,43.82074 3,66c0,4.61982 4.65825,29 2,29" fill="none" stroke="black" stroke-linecap="round" stroke-width="5"/>
	<path d="M162,44c4.63204,18.52816 2.40958,39.91493 4,59c0.29165,3.49979 1.44513,31.44513 0,30" fill="none" stroke="black" stroke-linecap="round" stroke-width="5"/>
	<path d="M207,42c0,24.937 0,50.41935 0,75c0,8.66667 0,17.33333 0,26c0,2.66748 -1,12.27 -1,10" fill="none" stroke="black" stroke-linecap="round" stroke-width="5"/>
	<path d="M208,155c-34.2769,6.29576 -68.57287,14.87026 -103,18c-6.67404,0.60673 -41.29268,-8.70732 -43,-7c-1.41951,1.41951 7.40485,8.8097 8,10c3.90292,7.80584 5.852,16.38998 7,25c1.50419,11.28141 3,21.71707 3,33c0,1 -0.70711,2.29289 0,3c0.2357,0.2357 0.7643,-0.2357 1,0c1.60361,1.60361 6.84708,-0.90713 11,-2c15.91146,-4.18723 31.66298,-7.48661 48,-10c10.21825,-1.57204 66.2214,0.7786 75,-8c3.64868,-3.64868 4.7261,-71.2739 1,-75c-1.26823,-1.26823 -4,1.85987 -4,3" fill="none" stroke="black" stroke-linecap="round" stroke-width="5"/>
	<path d="M100,235c0,12.85054 2.90959,23.91509 4,37c0.48233,5.78801 1,12.32409 1,18c0,1 0,4 0,3" fill="none" stroke="black" stroke-linecap="round" stroke-width="5"/>
</svg>
