<?xml version="1.0" ?>
<svg baseProfile="full" height="300" version="1.1" viewBox="[0, 0, 300, 300]" width="300" xmlns="http://www.w3.org/2000/svg" xmlns:ev="http://www.w3.org/2001/xml-events" xmlns:xlink="http://www.w3.org/1999/xlink">
	<defs/>
	<path d="M142,139c0,-1.671 -1.58874,-1 -3,-1c-5.90377,0 -35.75741,8.27224 -38,15c-11.57961,34.73884 39.99094,58.00453 66,45c16.47432,-8.23716 30.92071,-33.77238 18,-51c-5.47221,-7.29628 -21.74404,-10.93601 -30,-13c-9.21008,-2.30252 -17.02367,5.20473 -26,7c-1.60943,0.32189 -3,-0.90776 -3,1" fill="none" stroke="black" stroke-linecap="round" stroke-width="5"/>
	<path d="M105,179c0,24.14113 1,50.94416 1,73" fill="none" stroke="black" stroke-linecap="round" stroke-width="5"/>
	<path d="M126,200c0,18.39142 6,33.58263 6,52" fill="none" stroke="black" stroke-linecap="round" stroke-width="5"/>
</svg>
