<?xml version="1.0" ?>
<svg baseProfile="full" height="300" version="1.1" viewBox="[0, 0, 300, 300]" width="300" xmlns="http://www.w3.org/2000/svg" xmlns:ev="http://www.w3.org/2001/xml-events" xmlns:xlink="http://www.w3.org/1999/xlink">
	<defs/>
	<path d="M130,32c-17.40494,0 -88.64611,14.93832 -95,34c-0.76113,2.28339 4.0154,5.35901 5,7c3.21619,5.36032 6.28024,10.82236 12,14c22.13138,12.29521 124.64089,-10.52818 152,-16c11.44834,-2.28967 42.81463,2.18537 51,-6c1.34112,-1.34112 -1.37546,-7.75091 -2,-9c-1.53339,-3.06678 1.13062,-12.86938 -1,-15c-6.69361,-6.69361 -17.67487,-12.33744 -27,-17c-14.10278,-7.05139 -45.93568,-20.53216 -63,-12c-16.01173,8.00586 -25.85403,21 -46,21" fill="none" stroke="black" stroke-linecap="round" stroke-width="5"/>
	<path d="M141,43c-3.5439,0 -11.05156,3.03438 -14,5c-4.5473,3.03153 -7.10737,6.89263 -3,11c1.215,1.215 3.80445,-1 5,-1c9.70978,0 23.78961,-3.95792 34,-6c3.52861,-0.70572 10.46382,1.53618 13,-1c1.42309,-1.42309 -2.76501,-6.3825 -4,-7c-1.20482,-0.60241 -7.35827,-4.64173 -9,-3c-7.50645,7.50645 -29.89798,0.89798 -36,7" fill="none" stroke="black" stroke-linecap="round" stroke-width="5"/>
</svg>
