<?xml version="1.0" ?>
<svg baseProfile="full" height="300" version="1.1" viewBox="[0, 0, 300, 300]" width="300" xmlns="http://www.w3.org/2000/svg" xmlns:ev="http://www.w3.org/2001/xml-events" xmlns:xlink="http://www.w3.org/1999/xlink">
	<defs/>
	<path d="M61,51c-2.47753,0 -1.643,-17.1785 2,-19c14.88796,-7.44398 23.56023,13.43977 43,-6c1.99073,-1.99073 5.82858,-6.82858 8,-9c2.28705,-2.28705 68.93734,-3.26566 74,-2c4.05268,1.01317 4.90217,10.97554 13,13c17.42868,4.35717 31.02781,-5.94437 39,10c5.27372,10.54744 -29.56333,19.18175 -33,20c-2.36071,0.56207 -4.64575,1.41144 -7,2c-30.59407,7.64852 -82.94786,10.88152 -114,7c-8.59748,-1.07468 -36.06944,-5.93056 -25,-17" fill="none" stroke="black" stroke-linecap="round" stroke-width="5"/>
	<path d="M68,176c-2.83613,2.83613 -6.62626,4.25252 -8,7c-10.98244,21.96487 20.72994,17.45988 25,26c6.9082,13.81639 -19.8272,20.1152 1,34c8.60439,5.73626 27.68173,-2.33635 36,-4c15.30954,-3.06191 32.24697,-9.08232 47,-14c12.12752,-4.04251 26.47581,-0.86895 39,-4c4.56587,-1.14147 10.97738,-0.98869 15,-3c19.3871,-9.69355 -6.53723,-18.11969 -4,-27c2.2,-7.70001 19.18218,-22.45346 17,-29c-4.10588,-12.31763 -69.19672,-8.43872 -82,-6c-21.3423,4.0652 -44.39312,9.13104 -65,16c-6.49391,2.16464 -13.31129,9 -20,9" fill="none" stroke="black" stroke-linecap="round" stroke-width="5"/>
</svg>
