<?xml version="1.0" ?>
<svg baseProfile="full" height="300" version="1.1" viewBox="[0, 0, 300, 300]" width="300" xmlns="http://www.w3.org/2000/svg" xmlns:ev="http://www.w3.org/2001/xml-events" xmlns:xlink="http://www.w3.org/1999/xlink">
	<defs/>
	<path d="M76,39c0,4.21299 -3.92206,21.07794 -1,24c0.2357,0.2357 1,0 1,0c0,0 1.94591,-1 3,-1c25.35049,0 47.81487,-10.38047 74,-8c12.86716,1.16974 28.83373,9.38876 42,5c0.19015,-0.06338 5,-1 5,-1c0,0 -2.7488,-1.8744 -3,-2c-2.52105,-1.26053 -4,-27.31455 -4,-31c0,-0.66667 0.4714,-1.5286 0,-2c-3.4801,-3.4801 -8.33095,5.44365 -13,7c-11.37393,3.79131 -19.92432,5 -32,5c-5.69313,0 -75.43962,3.43962 -77,5" fill="none" stroke="black" stroke-linecap="round" stroke-width="5"/>
	<path d="M84,58c0,9.95646 14.30559,114.30559 19,119" fill="none" stroke="black" stroke-linecap="round" stroke-width="5"/>
	<path d="M112,61c6.64389,19.93168 1.29428,70.29428 18,87c3.80943,3.80943 1.41554,19.83108 4,25" fill="none" stroke="black" stroke-linecap="round" stroke-width="5"/>
	<path d="M155,55c0,24.34019 2.47073,71.88293 8,94c3.08609,12.34435 5,28.54603 5,41c0,2.02759 1,6 1,6c0,0 0.33333,-1 -1,-1" fill="none" stroke="black" stroke-linecap="round" stroke-width="5"/>
	<path d="M191,60c10.78208,43.12831 15,89.03356 15,133" fill="none" stroke="black" stroke-linecap="round" stroke-width="5"/>
	<path d="M130,165c0,16.85212 6,33.59094 6,49" fill="none" stroke="black" stroke-linecap="round" stroke-width="5"/>
	<path d="M101,173c0,12.64311 5.97132,21.62722 7,35c0.36035,4.68456 1.06309,15.06309 1,15" fill="none" stroke="black" stroke-linecap="round" stroke-width="5"/>
</svg>
