<?xml version="1.0" ?>
<svg baseProfile="full" height="300" version="1.1" viewBox="[0, 0, 300, 300]" width="300" xmlns="http://www.w3.org/2000/svg" xmlns:ev="http://www.w3.org/2001/xml-events" xmlns:xlink="http://www.w3.org/1999/xlink">
	<defs/>
	<path d="M42,21c0,0.66667 -0.4714,1.5286 0,2c4.91434,4.91434 0,28.47671 0,36c0,0.40541 0,5 0,5c0,0 1.71667,-5.71667 2,-6c0.52033,-0.52033 3.15447,0 4,0c12.70424,0 25.23798,2 38,2c31.18327,0 67.65645,3.78118 97,-6c7.28044,-2.42681 16.84187,1.38604 24,-1c9.65881,-3.2196 20.73115,-3 31,-3c0.33333,0 0.7643,0.2357 1,0c0.23096,-0.23096 -2.71667,-4.71667 -3,-5c-1.84589,-1.84589 -1.16709,-9.33418 -2,-11c-1.49338,-2.98675 3.39065,-11.80468 -1,-14c-0.98094,-0.49047 -1.45792,0.45792 -2,1c-7.94472,7.94472 -31.10864,8 -43,8c-35.36805,0 -79.15885,-12.28038 -113,-1c-7.57299,2.52433 -28.72128,-5.27872 -35,1" fill="none" stroke="black" stroke-linecap="round" stroke-width="5"/>
	<path d="M44,60c0,31.30826 1.82396,60.94374 7,92c1.85782,11.14694 0.52061,19.97406 1,31c0.18878,4.34203 0.49219,8.68363 1,13c0.13137,1.11662 0,8.27266 0,5" fill="none" stroke="black" stroke-linecap="round" stroke-width="5"/>
	<path d="M235,53c0,26.53 -0.75528,56.71307 3,83c1.65342,11.57391 2,25.27866 2,37c0,1.59775 2.04036,4 0,4" fill="none" stroke="black" stroke-linecap="round" stroke-width="5"/>
</svg>
