<?xml version="1.0" ?>
<svg baseProfile="full" height="300" version="1.1" viewBox="[0, 0, 300, 300]" width="300" xmlns="http://www.w3.org/2000/svg" xmlns:ev="http://www.w3.org/2001/xml-events" xmlns:xlink="http://www.w3.org/1999/xlink">
	<defs/>
	<path d="M40,46c7.14978,0 14.15229,-7.07614 20,-10c9.38963,-4.69481 31.87935,1.17587 41,3c20.88031,4.17606 56.66355,-3 79,-3c21.87701,0 42.32203,-2.44068 62,-9c5.15195,-1.71732 14.27437,-0.72563 17,2c0.88472,0.88472 -1,5.56634 -1,3" fill="none" stroke="black" stroke-linecap="round" stroke-width="5"/>
	<path d="M45,47c0,2.53753 0.01338,22.01338 2,24c0.16398,0.16398 5.81257,-2.94645 6,-3c7.38413,-2.10975 13.11929,-1.75229 20,1c39.57541,15.83016 91.6835,15.32913 133,5c14.96065,-3.74016 28.71637,-11.14327 43,-14c2.23429,-0.44686 11.84566,0.15434 13,-1c3.10981,-3.10981 -4,-20.83197 -4,-25c0,-1.12381 2,-9.93008 2,-5" fill="none" stroke="black" stroke-linecap="round" stroke-width="5"/>
	<path d="M49,184c0,5.41574 1.38017,50.38017 2,51c0.16972,0.16972 2.73853,0.08716 3,0c13.93987,-4.64662 34.20181,-2.32735 49,-3c17.28103,-0.7855 134.21915,3.78085 146,-8c0.50134,-0.50134 -1,-4.63249 -1,-6c0,-21.9439 -2,-47.67668 -2,-69c0,-0.33333 0.2357,-0.7643 0,-1c-0.02174,-0.02174 -3.96531,0.98844 -4,1c-14.79593,4.93198 -32.08819,5.77601 -48,7c-23.11788,1.7783 -45.83688,9.71316 -69,11c-24.2767,1.34871 -50.42551,-1 -74,-1c-1.79505,0 1.43235,3.29706 2,5c2.49144,7.47433 -3.79085,0.41831 -3,2c0.78864,1.57728 3.92047,7.15906 3,9c-0.76012,1.52023 -1,6.69967 -1,5" fill="none" stroke="black" stroke-linecap="round" stroke-width="5"/>
	<path d="M54,74c0,20.58247 1,40.52566 1,61c0,7.42352 1,13.59674 1,21c0,2.07694 0,10.29956 0,9" fill="none" stroke="black" stroke-linecap="round" stroke-width="5"/>
</svg>
