<?xml version="1.0" ?>
<svg baseProfile="full" height="300" version="1.1" viewBox="[0, 0, 300, 300]" width="300" xmlns="http://www.w3.org/2000/svg" xmlns:ev="http://www.w3.org/2001/xml-events" xmlns:xlink="http://www.w3.org/1999/xlink">
	<defs/>
	<path d="M120,128c0,10.00087 -0.36895,98.10684 -1,100c-1.25149,3.75447 -19.73424,-10.86712 -22,-12c-4.73214,-2.36607 -10.04998,-4.52499 -15,-7c-1.16715,-0.58358 -6.72772,-1.27228 -6,-2c13.96843,-13.96843 57.68827,-19.89609 76,-26c0.44721,-0.14907 0.57836,-1.21082 1,-1c6.83034,3.41517 16.13439,20.13439 22,26c1.46378,1.46378 3.5478,6 6,6c1.41421,0 3,4.41421 3,3c0,-8.38837 -6.33086,-17.65428 -8,-26c-2.98015,-14.90073 1.92805,-33.14389 -4,-45c-1.19665,-2.39329 1.07524,-5.92476 -1,-8c-7.07286,-7.07286 -45.30714,7 -55,7" fill="none" stroke="black" stroke-linecap="round" stroke-width="5"/>
	<path d="M115,142c-7.73765,0 -23.77496,-12.18331 -31,-17c-1.59246,-1.06164 -16.69247,-7.53835 -16,-8c4.75708,-3.17139 79.00919,-25.6636 84,-24c9.39801,3.13267 26.06061,43 15,43c-1.44731,0 -7,0.81122 -7,-1" fill="none" stroke="black" stroke-linecap="round" stroke-width="5"/>
</svg>
