<?xml version="1.0" ?>
<svg baseProfile="full" height="300" version="1.1" viewBox="[0, 0, 300, 300]" width="300" xmlns="http://www.w3.org/2000/svg" xmlns:ev="http://www.w3.org/2001/xml-events" xmlns:xlink="http://www.w3.org/1999/xlink">
	<defs/>
	<path d="M108,79c-3.32727,3.32727 -3.46774,55.53226 1,60c4.54938,4.54938 12.20417,4 20,4c5.58399,0 13.174,-0.174 17,-4" fill="none" stroke="black" stroke-linecap="round" stroke-width="5"/>
	<path d="M111,113c10.55576,0 21.94823,2 33,2c0.41176,0 2.73529,-0.26471 3,0c0.2357,0.2357 -0.2357,0.7643 0,1c0.94228,0.94228 1,1.8703 1,4c0,5.02119 8.18715,52.81285 4,57c-3.29983,3.29983 -9.33333,0 -14,0c-2.6533,0 -31.7473,2.5054 -34,-2c-1.12388,-2.24777 -5.3043,-20 -2,-20" fill="none" stroke="black" stroke-linecap="round" stroke-width="5"/>
	<path d="M104,159c0,-1.37437 2.62563,-1 4,-1c3.29835,0 41.37553,-6.37553 42,-7" fill="none" stroke="black" stroke-linecap="round" stroke-width="5"/>
	<path d="M104,84c-2.69723,-10.78892 -2.00293,-16.99805 7,-23c4.69025,-3.12684 18.86832,4.28944 24,6c4.43847,1.47949 10.69176,-2.30824 14,1c0.28432,0.28432 0.11178,3.55286 0,4c-2.73346,10.93383 -2,20.09737 -2,29" fill="none" stroke="black" stroke-linecap="round" stroke-width="5"/>
	<path d="M133,80c-1.66667,0 -3.33333,0 -5,0c-23.37585,0 22.32875,-4.65749 19,2c-4.05972,8.11943 -14.38132,10.95253 -22,14c-2.23178,0.89271 -8.19653,3.02376 -6,4c10.19092,4.5293 22.38293,1.34573 33,4c8.03816,2.00954 -21.79339,25.92562 -27,32c-0.68599,0.80033 -1,1.94591 -1,3c0,6.57192 24.44359,5 41,5c2.66667,0 9.19257,-2.38514 8,0c-1.37437,2.74874 -6.06272,1.09622 -9,2c-9.77307,3.0071 -19.5061,6.20244 -29,10c-1.11589,0.44636 -3,0.79815 -3,2c0,2.43019 16.46815,3 13,3" fill="none" stroke="black" stroke-linecap="round" stroke-width="5"/>
	<path d="M174,201c-2.28663,6.85988 -3.40264,48.29868 4,52c6.9576,3.4788 56.86717,-3.60151 58,-7c0.25473,-0.76419 -4.68582,-23.84291 -5,-24c-0.94281,-0.4714 -2,0.66667 -3,1c-18.05726,6.01909 -42.00678,-11 -58,-11" fill="none" stroke="black" stroke-linecap="round" stroke-width="5"/>
</svg>
