<?xml version="1.0" ?>
<svg baseProfile="full" height="300" version="1.1" viewBox="[0, 0, 300, 300]" width="300" xmlns="http://www.w3.org/2000/svg" xmlns:ev="http://www.w3.org/2001/xml-events" xmlns:xlink="http://www.w3.org/1999/xlink">
	<defs/>
	<path d="M78,129c0,12.48993 3.34765,25.06444 6,37c2.87363,12.93134 -4.17799,29.46602 0,42c0.36149,1.08448 3.96102,14.03898 3,15c-4.15693,4.15693 -18.59112,-11.59112 -21,-14c-1.4119,-1.4119 -16.9387,-8.76533 -16,-9c27.5516,-6.8879 54.82529,-17.20632 82,-24c1.26863,-0.31716 6.89725,-5.10275 8,-4c5.73824,5.73824 2.42377,30.27132 5,38c0.2357,0.70711 0.25464,2 1,2c2.4267,0 2,-4.5733 2,-7c0,-11.48081 2.13256,-84.91163 -4,-89c-2.23607,-1.49071 -4.65077,2.69487 -7,4c-10.35681,5.75378 -55.0938,20.4531 -68,14c-0.24977,-0.12489 -16.28052,-21.56105 -17,-23c-1.9623,-3.9246 -4.96127,-7.96127 -8,-11c-0.43395,-0.43395 -4.1731,-1.8269 -3,-3c7.88276,-7.88276 66.57362,-23.80879 78,-20c7.767,2.589 9.10408,34 19,34" fill="none" stroke="black" stroke-linecap="round" stroke-width="5"/>
</svg>
