<?xml version="1.0" ?>
<svg baseProfile="full" height="300" version="1.1" viewBox="[0, 0, 300, 300]" width="300" xmlns="http://www.w3.org/2000/svg" xmlns:ev="http://www.w3.org/2001/xml-events" xmlns:xlink="http://www.w3.org/1999/xlink">
	<defs/>
	<path d="M113,172c-2.18577,0 -1,6.4576 -1,8c0,16.08153 3.08852,36.35408 7,52c0.32338,1.29352 1.19257,3.40372 0,4c-2.00677,1.00338 -1.85714,-0.2381 -3,-1c-8.91524,-5.9435 -30.08809,-16.08809 -36,-22c-1.20185,-1.20185 3.31072,-0.8123 5,-1c3,-0.33333 6.13644,-0.04548 9,-1c7.19956,-2.39985 13.57743,-3.07218 21,-4c14.75243,-1.84405 30.22077,-7.80519 43,-11c0.87168,-0.21792 3.8256,-3.1744 5,-2c3.75534,3.75534 13,21.8974 13,27c0,0.80543 -0.52992,4 1,4c2.02759,0 -0.60236,-4.01179 -1,-6c-0.72037,-3.60185 0,-8.34788 0,-12c0,-15.06994 -4,-30.08813 -4,-45c0,-2.33333 0,-7 0,-7c0,0 -19.64096,15.20723 -21,16c-14.55923,8.49288 -30.89053,7 -47,7" fill="none" stroke="black" stroke-linecap="round" stroke-width="5"/>
	<path d="M104,178c-8.98195,0 -15.25559,-4.90224 -23,-8c-5.77888,-2.31155 -11.43706,-7.29137 -17,-11c-0.84769,-0.56513 -7,-3 -7,-3c0,0 5.40728,-0.29289 8,-1c9.99274,-2.72529 20.15369,-4.72778 30,-7c35.88333,-8.28077 45.12947,-33.41875 69,0c2.26614,3.1726 8,4.18851 8,8" fill="none" stroke="black" stroke-linecap="round" stroke-width="5"/>
</svg>
