<?xml version="1.0" ?>
<svg baseProfile="full" height="300" version="1.1" viewBox="[0, 0, 300, 300]" width="300" xmlns="http://www.w3.org/2000/svg" xmlns:ev="http://www.w3.org/2001/xml-events" xmlns:xlink="http://www.w3.org/1999/xlink">
	<defs/>
	<path d="M91,48c13.36527,0 26.0672,-1.82429 39,-3c23.80237,-2.16385 38.45445,-11.18219 45,15c0.93736,3.74943 4.4544,12.5456 1,16c-2.49831,2.49831 -26.21852,1.57984 -30,2c-38.99451,4.33272 -57,15.66171 -57,-33" fill="none" stroke="black" stroke-linecap="round" stroke-width="5"/>
	<path d="M96,80c0,8 0,16 0,24" fill="none" stroke="black" stroke-linecap="round" stroke-width="5"/>
	<path d="M100,100c13.33333,0 26.66667,0 40,0c3.23629,0 43.59691,-0.40309 44,0c5.71832,5.71832 2.74191,14.22574 5,21c1.02138,3.06413 5.81342,9.37316 4,13c-3.36702,6.73404 -30.49456,12.37364 -37,14c-7.17212,1.79303 -13.53708,4.76854 -20,8c-28.96325,14.48162 -40,-42.65196 -40,-60" fill="none" stroke="black" stroke-linecap="round" stroke-width="5"/>
	<path d="M181,93c0,-5.85982 -5.93439,-21.93439 -10,-26" fill="none" stroke="black" stroke-linecap="round" stroke-width="5"/>
	<path d="M178,77c11.96842,0 22.12922,7 33,7c1.41126,0 3,-0.671 3,1" fill="none" stroke="black" stroke-linecap="round" stroke-width="5"/>
</svg>
