<?xml version="1.0" ?>
<svg baseProfile="full" height="300" version="1.1" viewBox="[0, 0, 300, 300]" width="300" xmlns="http://www.w3.org/2000/svg" xmlns:ev="http://www.w3.org/2001/xml-events" xmlns:xlink="http://www.w3.org/1999/xlink">
	<defs/>
	<path d="M70,54c0,21.17115 5.39205,42.13644 8,63c1.47484,11.79873 1.07282,23.43693 3,35c0.0548,0.3288 -0.33333,1 0,1" fill="none" stroke="black" stroke-linecap="round" stroke-width="5"/>
	<path d="M97,62c2.78332,13.9166 -0.48736,27.97628 1,42c0.69032,6.50876 9.49946,66.52932 13,79c2.62642,9.35662 4.12816,20.12816 11,27c2.3214,2.3214 2.17895,-6.26842 4,-9" fill="none" stroke="black" stroke-linecap="round" stroke-width="5"/>
	<path d="M123,74c0,23.97302 3.98414,46.94788 11,70c1.02237,3.35922 6,13.00409 6,18" fill="none" stroke="black" stroke-linecap="round" stroke-width="5"/>
	<path d="M156,76c0,27.07198 0.63646,52.1954 5,79c1.77528,10.90531 9,24.35184 9,35" fill="none" stroke="black" stroke-linecap="round" stroke-width="5"/>
	<path d="M65,164c27.42568,13.71284 64.74566,16.36919 95,19c1.90208,0.1654 18.5322,-1.4678 21,1c4.24918,4.24918 -1,11.99075 -1,18c0,3.1851 0.77865,17.4427 -1,21c-1.01997,2.03993 -5.22127,1 -7,1c-31.9291,0 -63.36393,-9.48488 -95,-13c-1.70627,-0.18959 -23,-3 -23,-3c0,0 2.75033,-4.68792 3,-5c6.25195,-7.81493 9.7275,-17.09125 15,-25c0.62404,-0.93607 2.15098,-2 0,-2" fill="none" stroke="black" stroke-linecap="round" stroke-width="5"/>
	<path d="M65,213c-2.3468,0 -7.10124,1.69628 -6,5c0.7139,2.1417 17.99066,3.00934 16,5c-2.73062,2.73062 -9.25606,2.51212 -11,6c-2.89489,5.78979 -2.14706,17.44118 -4,23c-0.2357,0.70711 -1,1.25464 -1,2c0,2.68742 5.32362,0.75669 8,1c5.68232,0.51657 11.37189,2.93802 17,2" fill="none" stroke="black" stroke-linecap="round" stroke-width="5"/>
	<path d="M116,219c0,3.60987 -12.586,5.75801 -14,10c-0.25878,0.77633 14.56082,1.37388 17,3c1.05542,0.70362 -11.87454,3.87454 -12,4c-0.2357,0.2357 -0.2357,0.7643 0,1c3.56372,3.56372 2.03696,20 10,20" fill="none" stroke="black" stroke-linecap="round" stroke-width="5"/>
</svg>
