<?xml version="1.0" ?>
<svg baseProfile="full" height="300" version="1.1" viewBox="[0, 0, 300, 300]" width="300" xmlns="http://www.w3.org/2000/svg" xmlns:ev="http://www.w3.org/2001/xml-events" xmlns:xlink="http://www.w3.org/1999/xlink">
	<defs/>
	<path d="M107,59c0,35.03271 1.66125,69.28999 6,104c0.12403,0.99228 -0.11684,-2.00685 0,-3c0.58938,-5.0097 1.28664,-10.00645 2,-15c0.28674,-2.00721 0.66667,-4 1,-6" fill="none" stroke="black" stroke-linecap="round" stroke-width="5"/>
	<path d="M127,62c0,28.20808 5.5204,55.88755 7,84c0.45686,8.68026 1.25767,17.33949 2,26c0.34632,4.04036 -0.53325,15.16656 2,12c8.29822,-10.37277 10.47393,-29.29278 18,-41" fill="none" stroke="black" stroke-linecap="round" stroke-width="5"/>
	<path d="M149,72c5.48701,27.43504 4.2697,60.02273 8,88c1.52516,11.43873 2.67672,22.92241 6,34c0.65381,2.17937 2.84942,14.15058 3,14c2.91548,-2.91548 1.74986,-8.07099 3,-12c3.64405,-11.45274 8.05167,-22.64856 12,-34" fill="none" stroke="black" stroke-linecap="round" stroke-width="5"/>
	<path d="M163,78c0,2 -0.19901,4.00993 0,6c0.26741,2.67408 0.66667,5.33333 1,8c0.80109,6.40869 11.35162,74.35162 18,81c1.66667,1.66667 3.33333,-3.33333 5,-5" fill="none" stroke="black" stroke-linecap="round" stroke-width="5"/>
	<path d="M93,170c30.41084,0 60.54067,-0.66216 91,0c10.23894,0.22259 31.27131,-3.48579 41,3c2.71991,1.81327 -1.84625,22.38622 -2,25c-0.00524,0.08901 -0.62499,24.62499 -2,26c-2.59962,2.59962 -31.4806,1.77096 -34,2c-19.61043,1.78277 -38.64557,-4.23508 -58,-7c-5.00038,-0.71434 -15.65229,4.34771 -20,0c-6.61141,-6.61141 0.23031,-39.38484 7,-36" fill="none" stroke="black" stroke-linecap="round" stroke-width="5"/>
	<path d="M131,224c0,4.66691 0,33.23156 0,18" fill="none" stroke="black" stroke-linecap="round" stroke-width="5"/>
	<path d="M162,227c1.07443,4.29773 1.27719,8.66315 2,13c0.22594,1.35567 1,5.37437 1,4" fill="none" stroke="black" stroke-linecap="round" stroke-width="5"/>
</svg>
