<?xml version="1.0" ?>
<svg baseProfile="full" height="300" version="1.1" viewBox="[0, 0, 300, 300]" width="300" xmlns="http://www.w3.org/2000/svg" xmlns:ev="http://www.w3.org/2001/xml-events" xmlns:xlink="http://www.w3.org/1999/xlink">
	<defs/>
	<path d="M102,54c0,6.59603 -7.72781,68.27219 -2,74c5.86569,5.86569 92.66365,4.67269 100,-10c2.84872,-5.69743 6.27556,-55.72444 1,-61c-3.05804,-3.05804 -14.96672,-4.49584 -19,-5c-17.57971,-2.19746 -36.92286,-0.58457 -54,-4c-4.81951,-0.9639 -10.85595,1 -16,1c-1.18272,0 -7.08395,0 -5,0" fill="none" stroke="black" stroke-linecap="round" stroke-width="5"/>
	<path d="M97,129c0,15.32059 2.18835,26.18835 12,36c1.66667,1.66667 5,5 5,5c0,0 16.66,-1 25,-1c16.04654,0 32.04284,1 48,1c6.16709,0 15.10419,-1.96527 21,0c0.26556,0.08852 0,3.41355 0,4c0,5.28371 3.78376,31.60812 -3,35c-9.29159,4.64579 -29.1472,-2.34315 -39,-3c-17.75906,-1.18394 -56.93252,2.06748 -69,-10c-17.42538,-17.42538 6,-25.85906 6,-35" fill="none" stroke="black" stroke-linecap="round" stroke-width="5"/>
	<path d="M197,164c0,-12.42172 0,-24.64326 0,-37c0,-2.05688 1.08288,-6 -2,-6" fill="none" stroke="black" stroke-linecap="round" stroke-width="5"/>
	<path d="M94,193c0,15.45297 -5.33999,33.22992 -7,49c-0.94783,9.00437 -2,17.92177 -2,27c0,0.33333 0,1.33333 0,1c0,-7.14834 1.82053,-12.64107 5,-19" fill="none" stroke="black" stroke-linecap="round" stroke-width="5"/>
	<path d="M202,211c9.40594,9.40594 7.045,33.60216 10,45c1.32269,5.10179 3.08974,10.0879 5,15c0.65061,1.673 2.87176,6.56916 2,5c-6.57285,-11.83113 -9.67656,-17.82361 -20,-27" fill="none" stroke="black" stroke-linecap="round" stroke-width="5"/>
	<path d="M95,233c32,0 64,0 96,0c14.42076,0 51.02599,1.78067 17,-2" fill="none" stroke="black" stroke-linecap="round" stroke-width="5"/>
</svg>
