<?xml version="1.0" ?>
<svg baseProfile="full" height="300" version="1.1" viewBox="[0, 0, 300, 300]" width="300" xmlns="http://www.w3.org/2000/svg" xmlns:ev="http://www.w3.org/2001/xml-events" xmlns:xlink="http://www.w3.org/1999/xlink">
	<defs/>
	<path d="M38,73c0,18.86949 0.84765,38.17835 2,57c0.73147,11.94738 0.90718,27.62871 4,40c0.33333,1.33333 0.38536,2.77073 1,4c0.59628,1.19257 0,-2.66667 0,-4" fill="none" stroke="black" stroke-linecap="round" stroke-width="5"/>
	<path d="M69,80c0,15.64259 2,31.65368 2,47" fill="none" stroke="black" stroke-linecap="round" stroke-width="5"/>
	<path d="M104,70c0,30.68977 2.69138,61.04914 0,92c-0.67543,7.76741 -1,7.91548 -1,0" fill="none" stroke="black" stroke-linecap="round" stroke-width="5"/>
	<path d="M127,69c8.9026,26.70779 9.9917,59.88383 12,88c0.11469,1.60563 1.11024,8 -1,8" fill="none" stroke="black" stroke-linecap="round" stroke-width="5"/>
	<path d="M37,153c11.06941,11.06941 69.8863,8.22861 83,9c10.0049,0.58852 19.99732,1.37483 30,2c5.16465,0.32279 9.97978,2.74494 15,4c0.7231,0.18078 2.52705,0.47295 2,1c-24.68426,24.68426 -82.94652,18.86478 -117,14c-8.35298,-1.19328 -18.0963,-1.02407 -26,-3c-5.30384,-1.32596 10,-18.46707 10,-13" fill="none" stroke="black" stroke-linecap="round" stroke-width="5"/>
	<path d="M46,190c0,-2.49435 -7.40521,0.21563 -8,2c-1.20584,3.61753 20.53094,5.28342 20,9c-1.43964,10.07747 -35.97484,7.12581 -33,22c0.79788,3.98941 6.90552,3.71655 8,7c1.03928,3.11784 -4.16474,5.67052 -3,8c1.40269,2.80539 5.02481,2.07443 6,5c0.84885,2.54656 -5.67002,9.61713 -5,10c4.36456,2.49403 9.95722,3.43582 13,8c2.51491,3.77237 -17.05518,1.97241 -13,4c14.22238,7.11119 23.52739,9.7637 4,0" fill="none" stroke="black" stroke-linecap="round" stroke-width="5"/>
	<path d="M109,193c-7.58949,7.58949 -17.02497,18.06243 -21,28c-0.93607,2.34019 18.45587,9.56983 22,14c0.19874,0.24842 -7.44122,14.02904 -7,18c0.47646,4.28818 3,14.83772 3,18c0,3.92852 -5,6.60801 -5,10c0,2.92007 6.35418,-2.58326 5,-8" fill="none" stroke="black" stroke-linecap="round" stroke-width="5"/>
	<path d="M145,183c1.27393,0 -11.04114,14.47943 -6,17c6.42744,3.21372 17.49029,0.32686 23,4c3.85412,2.56941 -3.34862,7.00917 -5,8c-7.91356,4.74814 2.08815,2.44075 3,7c3.05169,15.25843 -2.82411,21.23617 -10,32c-4.64542,6.96813 24.88516,22.44258 2,11" fill="none" stroke="black" stroke-linecap="round" stroke-width="5"/>
</svg>
