<?xml version="1.0" ?>
<svg baseProfile="full" height="300" version="1.1" viewBox="[0, 0, 300, 300]" width="300" xmlns="http://www.w3.org/2000/svg" xmlns:ev="http://www.w3.org/2001/xml-events" xmlns:xlink="http://www.w3.org/1999/xlink">
	<defs/>
	<path d="M75,62c0,24.80413 -4.68483,50.30487 -7,75c-0.37907,4.04343 -4.46969,36.40908 -2,29" fill="none" stroke="black" stroke-linecap="round" stroke-width="5"/>
	<path d="M98,68c0,19.97011 9.79356,49.41288 1,67" fill="none" stroke="black" stroke-linecap="round" stroke-width="5"/>
	<path d="M127,67c0,32.82565 0,66.0368 0,99c0,19.47902 1.52731,-9.58194 4,-17" fill="none" stroke="black" stroke-linecap="round" stroke-width="5"/>
	<path d="M152,70c0,5.31192 -0.68083,95.76584 4,63" fill="none" stroke="black" stroke-linecap="round" stroke-width="5"/>
	<path d="M34,165c37.50579,0 75.60897,7.00872 113,10c4.00108,0.32009 7.99232,0.77735 12,1c11.90244,0.66125 24.15189,0.68354 36,2c1.78408,0.19823 5.80277,0.39445 5,2c-2.80015,5.60031 -6.37691,21.37691 -10,25c-6.93305,6.93305 -60.08734,-1.17092 -69,-2c-9.12082,-0.84845 -47.73019,-0.36509 -59,-6c-10.80543,-5.40272 -11.99784,-13.98487 -14,-28c-0.24037,-1.68259 -1,-5 -1,-5c0,0 -18.20578,-0.20578 -15,3" fill="none" stroke="black" stroke-linecap="round" stroke-width="5"/>
	<path d="M62,196c0,2.53927 -20.63037,18.18482 -19,19c3.55792,1.77896 11.22606,-2.77394 14,0c1.91024,1.91024 -10,7 -10,7c0,0 15.67447,-0.33138 17,0c1.4462,0.36155 -2.62982,1.41278 -4,2c-2.18756,0.93752 -12.65816,4.68368 -11,8c1.31402,2.62803 3.02477,3.01239 5,4c2.63765,1.31883 -6.66173,11.32345 -7,12c-0.29814,0.59628 1.33333,0 2,0c8.97903,0 -1,5.83644 -1,9c0,0.77479 14.92651,2.94489 7,-3c-0.84327,-0.63246 -2,-0.66667 -3,-1" fill="none" stroke="black" stroke-linecap="round" stroke-width="5"/>
	<path d="M141,208c-4.20171,2.10085 -11.88617,5.77233 -14,10c-0.59628,1.19257 2.67328,-0.13267 4,0c3.38248,0.33825 7.5963,-0.4037 10,2c4.61898,4.61898 -9.80096,13.35072 -12,15c-0.84327,0.63246 2,0.66667 3,1c2.35232,0.78411 -1,5.66446 -1,8c0,4.07575 3,3.50385 3,6c0,1.71753 -6.60362,6.60362 -7,7c-1.50923,1.50923 4.67495,7.02485 4,5c-1.23137,-3.6941 -2.18225,-3 -5,-3" fill="none" stroke="black" stroke-linecap="round" stroke-width="5"/>
</svg>
