<?xml version="1.0" ?>
<svg baseProfile="full" height="300" version="1.1" viewBox="[0, 0, 300, 300]" width="300" xmlns="http://www.w3.org/2000/svg" xmlns:ev="http://www.w3.org/2001/xml-events" xmlns:xlink="http://www.w3.org/1999/xlink">
	<defs/>
	<path d="M93,72c0,25.87839 -3,51.87526 -3,78" fill="none" stroke="black" stroke-linecap="round" stroke-width="5"/>
	<path d="M117,77c0,16.35482 -1,32.66786 -1,49c0,6 0,12 0,18c0,2 0,8 0,6" fill="none" stroke="black" stroke-linecap="round" stroke-width="5"/>
	<path d="M142,81c0,26.81819 -5.26533,58.67337 0,85c0.85235,4.26174 4.5892,-7.3838 7,-11" fill="none" stroke="black" stroke-linecap="round" stroke-width="5"/>
	<path d="M167,84c0,18.33333 0,36.66667 0,55c0,7.91468 1,15.20923 1,23c0,1.20733 0,7.98885 0,6" fill="none" stroke="black" stroke-linecap="round" stroke-width="5"/>
	<path d="M74,70c10.41706,0 102.57371,22.42629 114,11c2.64793,-2.64793 0.95795,-30.04205 -2,-33c-3.66686,-3.66686 -95.11543,-11.94229 -107,-6c-5.79022,2.89511 -2,15.88753 -2,21" fill="none" stroke="black" stroke-linecap="round" stroke-width="5"/>
	<path d="M70,147c5.491,5.491 27.26549,-1.17268 34,-1c15.20026,0.38975 74.9846,3.3282 92,9c1.43225,0.47742 0,21.91609 0,23c0,4 0,8 0,12c0,2.88752 0.7028,26.8243 0,27c-1.29352,0.32338 -2.66667,0 -4,0c-1.33333,0 -2.66667,0 -4,0c-3.66667,0 -7.3384,0.19272 -11,0c-2.6837,-0.14125 -5.32268,-0.76719 -8,-1c-24.18579,-2.10311 -48.07631,-8 -72,-8c-2.66667,0 -6.11438,1.88562 -8,0c-5.06774,-5.06774 -17.74839,-9.37419 -25,-13c-1.78885,-0.89443 -0.28284,-4.0201 0,-6c1.46324,-10.24267 5,-31.67021 5,-38" fill="none" stroke="black" stroke-linecap="round" stroke-width="5"/>
	<path d="M78,205c1.72272,0 -2.71922,34.43844 -1,31" fill="none" stroke="black" stroke-linecap="round" stroke-width="5"/>
	<path d="M186,221c0,9.35694 1,18.56441 1,28c0,5.67646 -1,22.67646 -1,17" fill="none" stroke="black" stroke-linecap="round" stroke-width="5"/>
</svg>
