<?xml version="1.0" ?>
<svg baseProfile="full" height="300" version="1.1" viewBox="[0, 0, 300, 300]" width="300" xmlns="http://www.w3.org/2000/svg" xmlns:ev="http://www.w3.org/2001/xml-events" xmlns:xlink="http://www.w3.org/1999/xlink">
	<defs/>
	<path d="M95,55c0,25.67398 -0.02598,51.35055 1,77c0.22688,5.67193 1,17 1,17c0,0 2.04481,-8.56722 3,-10" fill="none" stroke="black" stroke-linecap="round" stroke-width="5"/>
	<path d="M121,56c0,19.41181 0.54212,38.07562 2,58c0.077,1.05234 1,30.65567 1,25" fill="none" stroke="black" stroke-linecap="round" stroke-width="5"/>
	<path d="M143,63c0,10.63797 -2.98678,21.14546 -2,32c1.4087,15.49569 3.36614,31.4783 5,47c0.24674,2.34407 1,7 1,7c0,0 0.56708,-2.56708 1,-3" fill="none" stroke="black" stroke-linecap="round" stroke-width="5"/>
	<path d="M164,68c0,19.07592 0.99606,37.92523 2,57c0.21096,4.00832 0.79956,7.99114 1,12c0.14981,2.99626 -0.94868,11.84605 0,9c0.66667,-2 1.05719,-4.11438 2,-6" fill="none" stroke="black" stroke-linecap="round" stroke-width="5"/>
	<path d="M62,151c17.26797,0 34.48494,-5.46924 52,-6c0.52306,-0.01585 71.79817,2.79817 72,3c4.0442,4.0442 -0.68226,28.54191 0,34c0.25149,2.01193 2.43372,4.56628 1,6c-0.77877,0.77877 -19.06782,-2.79298 -21,-3c-17.41855,-1.86627 -87.97164,-2.48582 -99,-8c-4.73353,-2.36677 14.01697,-34.01697 10,-30" fill="none" stroke="black" stroke-linecap="round" stroke-width="5"/>
</svg>
