<?xml version="1.0" ?>
<svg baseProfile="full" height="300" version="1.1" viewBox="[0, 0, 300, 300]" width="300" xmlns="http://www.w3.org/2000/svg" xmlns:ev="http://www.w3.org/2001/xml-events" xmlns:xlink="http://www.w3.org/1999/xlink">
	<defs/>
	<path d="M68,135c0,-12.13516 8.6053,-2.6053 13,-7c0.51423,-0.51423 3,-34.81015 3,-39c0,-0.33739 -0.13417,-3.96646 0,-4c16.23694,-4.05924 38.14277,-3 55,-3c2.61087,0 25.84882,-4.15118 29,-1c1.56513,1.56513 -5.17911,9.35821 -6,11c-2.92094,5.84188 -4.39753,13.59011 -6,20c-0.11967,0.4787 -2.8646,4.5677 -2,5c4.02863,2.01431 15,-2.84583 15,-6c0,-0.2 0,-3 0,-3c0,0 0,5.50658 0,6c0,12.49438 6.09595,26.28785 10,38c4.72443,14.1733 -7.99847,47.00153 2,57c2.6331,2.6331 5,29.74204 5,26" fill="none" stroke="black" stroke-linecap="round" stroke-width="5"/>
	<path d="M69,130c-3,0 -9,-3 -9,0c0,10.1118 5,25.03692 5,38c0,38.64927 10.40831,75.22145 -22,103c-3.27194,2.80452 -9.44271,8 -14,8" fill="none" stroke="black" stroke-linecap="round" stroke-width="5"/>
	<path d="M61,238c9.73491,4.86745 28,20.36787 28,33" fill="none" stroke="black" stroke-linecap="round" stroke-width="5"/>
</svg>
