<?xml version="1.0" ?>
<svg baseProfile="full" height="300" version="1.1" viewBox="[0, 0, 300, 300]" width="300" xmlns="http://www.w3.org/2000/svg" xmlns:ev="http://www.w3.org/2001/xml-events" xmlns:xlink="http://www.w3.org/1999/xlink">
	<defs/>
	<path d="M75,39c49.66667,0 99.33333,0 149,0" fill="none" stroke="black" stroke-linecap="round" stroke-width="5"/>
	<path d="M95,39c0,1.66667 0,3.33333 0,5c0,4.33333 0,8.66667 0,13c0,0.97137 0,27 0,27c0,0 -1.19257,-3.40372 0,-4c16.69935,-8.34968 46.48027,-3.20777 65,-5c4.27768,-0.41397 65.03022,-8.96978 67,-7c6.06868,6.06868 1,31.88926 1,40c0,7.67708 0.38465,21.23069 -3,28c-0.76927,1.53854 -2.64004,1 -4,1c-17.07363,0 -33.08134,2.79152 -50,4c-6.10137,0.43581 -83.96236,2.07528 -88,-6c-7.67805,-15.35611 10,-55.49441 10,-72" fill="none" stroke="black" stroke-linecap="round" stroke-width="5"/>
	<path d="M80,136c0,17.50625 3.0795,34.51041 4,52c1.02693,19.51166 -10.50745,77.49255 2,90c0.91142,0.91142 10.39128,0 11,0c19.75107,0 19,-48.24364 19,-63c0,-1 0,-2 0,-3c0,-1 0,-2 0,-3c0,-1.66667 0,-3.33333 0,-5c0,-2 0,-4 0,-6c0,-1.02779 0,-11 0,-11c0,0 14.76611,0.53223 15,1c9.58395,19.16789 7.01924,44.05772 13,62c3.03669,9.11008 20.1973,-2.26306 23,-6c3.73466,-4.97955 6,-14.78084 6,-21c0,-9.11549 1,-18.47413 1,-27" fill="none" stroke="black" stroke-linecap="round" stroke-width="5"/>
</svg>
