<?xml version="1.0" ?>
<svg baseProfile="full" height="300" version="1.1" viewBox="[0, 0, 300, 300]" width="300" xmlns="http://www.w3.org/2000/svg" xmlns:ev="http://www.w3.org/2001/xml-events" xmlns:xlink="http://www.w3.org/1999/xlink">
	<defs/>
	<path d="M76,81c0,17 0,34 0,51c0,19.47106 -6.2449,95.26529 1,117c0.62884,1.88651 -1.32464,7.67536 0,9c1.31399,1.31399 7.66754,-2.73351 9,-3c12.17071,-2.43414 11.00219,-5.0306 12,-19c0.42551,-5.95709 -1.47419,-51.52581 0,-53c0.58288,-0.58288 6.02034,-0.60813 7,-1c24.06226,-9.6249 13.46737,58.23368 25,64c8.70953,4.35477 26.06436,-14.12871 30,-22c1.64532,-3.29064 1.1839,-18.59195 4,-20c11.8312,-5.9156 12.15808,8 18,8" fill="none" stroke="black" stroke-linecap="round" stroke-width="5"/>
</svg>
