<?xml version="1.0" ?>
<svg baseProfile="full" height="300" version="1.1" viewBox="[0, 0, 300, 300]" width="300" xmlns="http://www.w3.org/2000/svg" xmlns:ev="http://www.w3.org/2001/xml-events" xmlns:xlink="http://www.w3.org/1999/xlink">
	<defs/>
	<path d="M80,70c45.97009,0 89.88565,-15 136,-15c19.46054,0 50.60871,-7.17388 58,15c1.09618,3.28854 3.78499,9.43002 2,13c-1.36298,2.72596 -42.85658,7 -47,7c-44.47448,0 -89.73202,1.9512 -134,-1c-11.56298,-0.77087 -38.52508,-16.05937 -15,-19c4.7195,-0.58994 9.28916,-3 14,-3" fill="none" stroke="black" stroke-linecap="round" stroke-width="5"/>
	<path d="M90,91c0,25.33333 0,50.66667 0,76c0,5.84532 -3.35028,31.82486 1,34c3.01515,1.50758 4.66407,-8.99221 5,-10c4.60644,-13.81932 11.78841,-26.96136 16,-41c2.9295,-9.76499 2.90925,-20.72776 6,-30c1.97818,-5.93454 2,-24.31884 2,-24" fill="none" stroke="black" stroke-linecap="round" stroke-width="5"/>
	<path d="M218,90c0,27.22031 4.15068,53.05478 8,80c1.7075,11.9525 4,23.92615 4,36c0,3.19889 -2.01452,17.98548 0,20c0.2357,0.2357 0.79177,0.26029 1,0c25.48348,-31.85435 27,-61.00651 27,-100c0,-6.20405 -3,-52.86529 -3,-45" fill="none" stroke="black" stroke-linecap="round" stroke-width="5"/>
</svg>
