<?xml version="1.0" ?>
<svg baseProfile="full" height="300" version="1.1" viewBox="[0, 0, 300, 300]" width="300" xmlns="http://www.w3.org/2000/svg" xmlns:ev="http://www.w3.org/2001/xml-events" xmlns:xlink="http://www.w3.org/1999/xlink">
	<defs/>
	<path d="M150,233c0,16.66667 0,33.33333 0,50c0,5.33333 0,10.66667 0,16c0,1.87174 -1,8.31506 -1,7" fill="none" stroke="black" stroke-linecap="round" stroke-width="5"/>
	<path d="M149,236c0,-4.59913 -2.95475,-24.04525 0,-27c1.64992,-1.64992 4.66667,0 7,0c12.19791,0 23.86679,-3 36,-3c2,0 5.36754,-1.89737 6,0c2.46831,7.40493 5.88753,58.88753 10,63c0.59608,0.59608 2.9864,-2.4932 4,-3c2.70292,-1.35146 6.40445,-2.05334 9,-4c13.62781,-10.22086 -8.35878,-95.43512 -12,-110c-2.27701,-9.10803 -2,-18.57165 -2,-28c0,-0.31169 0,-4 0,-4c0,0 -14.01999,13.03998 -15,15c-1.5899,3.1798 14.64621,47.26172 16,52c2.02707,7.09475 4.51829,14.05122 7,21c1.17049,3.27736 5.4608,12.4608 3,10" fill="none" stroke="black" stroke-linecap="round" stroke-width="5"/>
</svg>
