<?xml version="1.0" ?>
<svg baseProfile="full" height="300" version="1.1" viewBox="[0, 0, 300, 300]" width="300" xmlns="http://www.w3.org/2000/svg" xmlns:ev="http://www.w3.org/2001/xml-events" xmlns:xlink="http://www.w3.org/1999/xlink">
	<defs/>
	<path d="M72,136c0,-15.37691 -1.74111,-33.64722 4,-48c5.88265,-14.70662 36.18606,-36.70349 51,-33c35.38802,8.84701 51.42869,41.28607 62,73c3.7229,11.16869 7.17618,21.70471 10,33c0.101,0.40402 1,7 1,7c0,0 -0.29025,-5.29025 -1,-6" fill="none" stroke="black" stroke-linecap="round" stroke-width="5"/>
	<path d="M69,131c0,3.71897 4.72495,50.72495 5,51c0.84984,0.84984 1.84439,-1.66983 3,-2c10.82958,-3.09416 22.07479,-5.2687 33,-8c30.47337,-7.61834 63.45699,-5 95,-5" fill="none" stroke="black" stroke-linecap="round" stroke-width="5"/>
</svg>
