<?xml version="1.0" ?>
<svg baseProfile="full" height="300" version="1.1" viewBox="[0, 0, 300, 300]" width="300" xmlns="http://www.w3.org/2000/svg" xmlns:ev="http://www.w3.org/2001/xml-events" xmlns:xlink="http://www.w3.org/1999/xlink">
	<defs/>
	<path d="M54,92c15.2191,0 19.205,-11.241 33,-14c11.2808,-2.25616 23.32962,-3.44321 34,-7c8.86069,-2.95356 9.35785,5.35785 14,10c4.07404,4.07404 20.83939,2 26,2c5.48997,0 43.85049,-3.70098 38,8c-0.27059,0.54118 -2.43529,2.81176 -3,3c-3.82866,1.27622 -54.61891,-0.80945 -59,-3c-7.34917,-3.67459 -10.46201,-10.48734 -18,-13c-10.74249,-3.58083 -66,30.8397 -66,7" fill="none" stroke="black" stroke-linecap="round" stroke-width="5"/>
	<path d="M84,89c0,9.33333 0,18.66667 0,28c0,6.33333 0,12.66667 0,19c0,2.66667 0,5.33333 0,8c0,1.33333 -0.94281,4.94281 0,4c1.72474,-1.72474 2.17378,-3.05793 5,-4c2.77082,-0.92361 6.84068,0.15932 9,-2c1.16883,-1.16883 -0.57162,-7.14323 -1,-8c-7.90636,-15.81272 -6,-32.56006 -6,-50" fill="none" stroke="black" stroke-linecap="round" stroke-width="5"/>
</svg>
