<?xml version="1.0" ?>
<svg baseProfile="full" height="300" version="1.1" viewBox="[0, 0, 300, 300]" width="300" xmlns="http://www.w3.org/2000/svg" xmlns:ev="http://www.w3.org/2001/xml-events" xmlns:xlink="http://www.w3.org/1999/xlink">
	<defs/>
	<path d="M212,84c-4.66667,0 -9.33333,0 -14,0c-20.66667,0 -41.33333,0 -62,0c-0.48716,0 -10,0 -10,0c0,0 12.06075,29.93925 8,34c-0.7357,0.7357 -1.80474,-0.80474 -2,-1c-4.89375,-4.89375 -25,-3 -25,-3c0,0 7.7033,30.07148 8,32c2.04037,13.26239 4.70905,32.45477 2,46c-1.91061,9.55307 -5.83884,10.12809 -4,23c0.07032,0.49224 3,25 3,25c0,0 19.87449,-0.8355 23,-1c19.5263,-1.0277 38.4201,-2.93276 57,-8c3.74811,-1.02221 5.82338,-1.41169 9,-3c0.59628,-0.29814 -0.66667,-2 0,-2c0.71049,0 21.32134,1.67866 22,1c0.49587,-0.49587 0,-4.29752 0,-5c0,-17.71082 0.78539,-54.64382 -5,-72c-0.37558,-1.12673 -5,-24 -5,-24c0,0 19.36883,6.63117 24,2c0.94281,-0.94281 0,-2.66667 0,-4c0,-11.33194 -7,-22.76532 -7,-35c0,-0.66667 0.4714,-1.5286 0,-2c-2.74773,-2.74773 -12.01646,-0.67215 -16,-2c-4.83735,-1.61245 -11.0254,-3.4873 -16,-1" fill="none" stroke="black" stroke-linecap="round" stroke-width="5"/>
	<path d="M123,236c-12.12475,0 -33.99139,48 -47,48" fill="none" stroke="black" stroke-linecap="round" stroke-width="5"/>
	<path d="M112,243c11.7676,0 32.79317,53.24161 36,65c0.27735,1.01695 -0.05409,3 1,3" fill="none" stroke="black" stroke-linecap="round" stroke-width="5"/>
	<path d="M228,222c0,37.0132 -2,74.13985 -2,111" fill="none" stroke="black" stroke-linecap="round" stroke-width="5"/>
	<path d="M228,223c27.42341,0 73.29495,15.29495 93,35" fill="none" stroke="black" stroke-linecap="round" stroke-width="5"/>
</svg>
