<?xml version="1.0" ?>
<svg baseProfile="full" height="300" version="1.1" viewBox="[0, 0, 300, 300]" width="300" xmlns="http://www.w3.org/2000/svg" xmlns:ev="http://www.w3.org/2001/xml-events" xmlns:xlink="http://www.w3.org/1999/xlink">
	<defs/>
	<path d="M164,45c-5.69095,0 -56.63946,-1.36054 -58,0c-3.9046,3.9046 5.17841,14.82159 2,18c-3.7856,3.7856 -21.51804,-5.48196 -26,-1c-0.1,0.1 -0.1,2.9 0,3c4.68498,4.68498 5.487,23.26951 1,30" fill="none" stroke="black" stroke-linecap="round" stroke-width="5"/>
	<path d="M161,45c0,-2.94715 20.04327,-3.18269 23,-2c1.3357,0.53428 -7.43725,21.56275 -6,23c0.68968,0.68968 1.86983,-0.73965 2,-1c1.55106,-3.10213 21,-3.75858 21,0c0,1.66667 -4,1.33333 -4,3" fill="none" stroke="black" stroke-linecap="round" stroke-width="5"/>
</svg>
