<?xml version="1.0" ?>
<svg baseProfile="full" height="300" version="1.1" viewBox="[0, 0, 300, 300]" width="300" xmlns="http://www.w3.org/2000/svg" xmlns:ev="http://www.w3.org/2001/xml-events" xmlns:xlink="http://www.w3.org/1999/xlink">
	<defs/>
	<path d="M101,40c-2.74874,0 -1.67883,5.27009 -2,8c-2.18214,18.54817 -5.70432,36.63459 -8,55c-2.41963,19.35707 -14.95656,88.01448 12,97c22.95507,7.65169 19.58438,-31.92192 22,-44c2.95703,-14.78517 8.95431,-29.93147 17,-42c3.10452,-4.65678 14.31397,-23.34302 23,-19c16.28715,8.14358 11.28607,93.42787 2,112c-3.92137,7.84274 1.45494,26.84835 13,23c41.53174,-13.84391 3.47954,-150.15985 39,-162c3.25119,-1.08373 4.61588,3.61588 6,5c10.68199,10.68199 -4.88659,42.11341 5,52c5.36339,5.36339 29.17529,-18.35058 32,-24c0.9506,-1.90119 9.2122,-14.96951 10,-13c9.35045,23.37613 -19.2482,106.91727 5,115c10.38042,3.46014 15.59482,-17.67669 17,-24c3.1187,-14.03413 10.70456,-74.29544 0,-85c-39.59975,-39.59975 -110.67417,7.77715 -156,4c-11.53461,-0.96122 -45.5261,-46.36952 -44,-54c2.41244,-12.06218 3.68654,-32.24872 11,-42c7.96194,-10.61592 95.9946,-13.78533 113,-15c11.13679,-0.79548 65.21726,-1.30457 72,10c2.03369,3.38948 8.82185,95.53446 4,110" fill="none" stroke="black" stroke-linecap="round" stroke-width="5"/>
</svg>
