<?xml version="1.0" ?>
<svg baseProfile="full" height="300" version="1.1" viewBox="[0, 0, 300, 300]" width="300" xmlns="http://www.w3.org/2000/svg" xmlns:ev="http://www.w3.org/2001/xml-events" xmlns:xlink="http://www.w3.org/1999/xlink">
	<defs/>
	<path d="M65,25c53.12687,0 105.87167,-10 159,-10c15.69687,0 43.23934,-6.38033 58,1c0.58804,0.29402 0.95715,3.40016 1,4c1.05486,14.76811 2.57132,30.42795 5,45c1.28881,7.73288 13.69641,31.30359 7,38c-1.90029,1.90029 -5.31258,1 -8,1c-15.65287,0 -31.15632,-0.56585 -47,0c-44.55774,1.59135 -88.53522,0.77905 -133,-2c-11.27712,-0.70482 -24.3699,1.54337 -35,-2c-2.81724,-0.93908 -2,-5.06947 -2,-7c0,-9.62782 1.46248,-76.23124 7,-79" fill="none" stroke="black" stroke-linecap="round" stroke-width="5"/>
	<path d="M87,100c0,16.46958 -9.20703,74.58593 -3,87c0.61785,1.2357 0.96548,1 2,1" fill="none" stroke="black" stroke-linecap="round" stroke-width="5"/>
	<path d="M164,102c-11.66781,3.88927 -9.69578,34.05495 -12,45c-3.38973,16.10123 -5,32.56724 -5,49c0,2.18247 -0.56068,4 2,4" fill="none" stroke="black" stroke-linecap="round" stroke-width="5"/>
	<path d="M236,116c0,27.72542 -3,55.23697 -3,83c0,3.96731 -1.43347,7.21674 3,5" fill="none" stroke="black" stroke-linecap="round" stroke-width="5"/>
	<path d="M298,109c-1.27274,12.72739 -2.0507,94.0507 -4,96" fill="none" stroke="black" stroke-linecap="round" stroke-width="5"/>
	<path d="M57,198c50.20225,0 99.16157,13.36387 149,18c29.43686,2.73831 60.96935,-3.83844 90,1c10.51906,1.75318 16.78538,30.28301 18,40c0.60578,4.84625 1.61535,14.80767 6,17c0.29814,0.14907 1,0.33333 1,0c0,-2.848 -5.32347,-2.02672 -8,-3c-24.02585,-8.73667 -45.55437,-14.89587 -71,-19c-34.14642,-5.50749 -67.85363,-13.60847 -102,-19c-13.50032,-2.13163 -27.33567,-5.02398 -41,-6c-5.564,-0.39743 -22.18628,1.81372 -27,-3c-3.04317,-3.04317 -4.50855,-13.52564 -6,-18c-2.6365,-7.90951 -9,-19.04128 -9,-27" fill="none" stroke="black" stroke-linecap="round" stroke-width="5"/>
	<path d="M72,225c0,9.66667 0,19.33333 0,29c0,2.71923 -1.6184,32 1,32" fill="none" stroke="black" stroke-linecap="round" stroke-width="5"/>
	<path d="M165,241c0,22.33333 0,44.66667 0,67c0,4.28019 0.85788,5 -1,5" fill="none" stroke="black" stroke-linecap="round" stroke-width="5"/>
	<path d="M244,258c0,19.94227 -1.54951,36.45049 13,51" fill="none" stroke="black" stroke-linecap="round" stroke-width="5"/>
	<path d="M286,264c0,22.59414 4.74971,39.99884 10,61" fill="none" stroke="black" stroke-linecap="round" stroke-width="5"/>
</svg>
