<?xml version="1.0" ?>
<svg baseProfile="full" height="300" version="1.1" viewBox="[0, 0, 300, 300]" width="300" xmlns="http://www.w3.org/2000/svg" xmlns:ev="http://www.w3.org/2001/xml-events" xmlns:xlink="http://www.w3.org/1999/xlink">
	<defs/>
	<path d="M16,65c15.74824,-15.74824 94.8312,-7.85914 119,-6c4.73242,0.36403 35,4.09247 35,10c0,3.87608 -2.04191,28.04191 -4,30c-6.56285,6.56285 -81.35135,-1 -96,-1c-18.10438,0 -36.57596,7 -55,7c-1,0 -2.55279,0.89443 -3,0c-3.63564,-7.27128 5.02213,-38.02213 12,-45" fill="none" stroke="black" stroke-linecap="round" stroke-width="5"/>
	<path d="M32,117c0,6.65589 -3.22703,52 5,52" fill="none" stroke="black" stroke-linecap="round" stroke-width="5"/>
	<path d="M69,119c0,2.69844 -7.64428,76.40713 7,52" fill="none" stroke="black" stroke-linecap="round" stroke-width="5"/>
	<path d="M109,118c0,9.0749 -3.83099,73.83099 12,58" fill="none" stroke="black" stroke-linecap="round" stroke-width="5"/>
	<path d="M133,110c3.4801,0 2.37746,6.57603 3,10c3.17424,17.4583 -3.10333,43.94833 15,53" fill="none" stroke="black" stroke-linecap="round" stroke-width="5"/>
	<path d="M167,108c5.80495,17.41486 4.25455,86.62728 19,94" fill="none" stroke="black" stroke-linecap="round" stroke-width="5"/>
	<path d="M7,182c34.17194,17.08597 151.47881,12 196,12c12.44799,0 12.2437,25.66388 15,36c2.29342,8.60034 6.71598,20.71598 12,26c0.52705,0.52705 2.66667,0.66667 2,1c-9.60463,4.80231 -34.09311,1 -45,1c-7.17181,0 -126.46904,-1.46904 -132,-7c-3.90605,-3.90605 -48.51125,-76.53376 -50,-81c-0.29814,-0.89443 -2,-1.05719 -2,-2c0,-2.848 5.20731,-2.44146 8,-3" fill="none" stroke="black" stroke-linecap="round" stroke-width="5"/>
	<path d="M36,217c-6.77875,13.55749 -11.6503,70.57844 8,79" fill="none" stroke="black" stroke-linecap="round" stroke-width="5"/>
	<path d="M94,266c0,10.82822 -0.09114,32 14,32" fill="none" stroke="black" stroke-linecap="round" stroke-width="5"/>
	<path d="M179,265c8.04467,6.70389 7.91831,11.75493 11,21" fill="none" stroke="black" stroke-linecap="round" stroke-width="5"/>
	<path d="M226,262c13.67933,5.47173 13.22747,24.22747 23,34" fill="none" stroke="black" stroke-linecap="round" stroke-width="5"/>
</svg>
