<?xml version="1.0" ?>
<svg baseProfile="full" height="300" version="1.1" viewBox="[0, 0, 300, 300]" width="300" xmlns="http://www.w3.org/2000/svg" xmlns:ev="http://www.w3.org/2001/xml-events" xmlns:xlink="http://www.w3.org/1999/xlink">
	<defs/>
	<path d="M112,218c-11.0235,0 -9.10357,-30.59762 -25,-20c-24.98804,16.65869 -3.09103,57.1593 -15,78c-1.78885,3.1305 -2.39445,9 -6,9c-9.09026,0 -11,-22.4582 -11,-28c0,-14.26602 12.03655,-84.28049 -7,-87c-27.99783,-3.99969 -26.56469,44.21156 -28,60c-0.48839,5.37233 -11.41111,27.94166 -18,23c-13.32823,-9.99617 -2.64521,-47.45062 -2,-61c2.40565,-50.51874 8.18327,-152.45475 75,-162c15.38722,-2.19817 32.43001,-0.914 47,2c11.60168,2.32034 36.15746,-0.84254 45,8c16.97995,16.97995 16.9012,70.59278 13,94c-3.25937,19.55622 -5.18975,40.0872 -7,60c-0.64043,7.04472 1,14.65118 1,21c0,3.39935 4.4037,12.4037 2,10c-4.18522,-4.18522 -0.76859,-14.76859 -5,-19c-11.84614,-11.84614 -63.04879,-10 -80,-10" fill="none" stroke="black" stroke-linecap="round" stroke-width="5"/>
	<path d="M43,168c0,-2.49279 41.70229,-4.25152 49,-5c29.50427,-3.02608 51.30567,-6.66939 80,-15" fill="none" stroke="black" stroke-linecap="round" stroke-width="5"/>
	<path d="M191,212c25.58735,51.17471 -8.28216,115.62757 -23,31c-2.53067,-14.55136 -2,-29.30815 -2,-44" fill="none" stroke="black" stroke-linecap="round" stroke-width="5"/>
	<path d="M134,207c1.35621,8.13725 2,15.75721 2,24c0,3.69034 -0.05687,9.52843 -3,11c-10.13986,5.06993 -19,-41.4328 -19,-49" fill="none" stroke="black" stroke-linecap="round" stroke-width="5"/>
</svg>
