<?xml version="1.0" ?>
<svg baseProfile="full" height="300" version="1.1" viewBox="[0, 0, 300, 300]" width="300" xmlns="http://www.w3.org/2000/svg" xmlns:ev="http://www.w3.org/2001/xml-events" xmlns:xlink="http://www.w3.org/1999/xlink">
	<defs/>
	<path d="M49,62c0,9.44529 25.82426,18.82426 32,25c14.77728,14.77728 32.36073,41.08218 39,61c5.68079,17.04237 12.60148,41.59408 8,60c-0.32809,1.31235 -0.88408,4 -2,4" fill="none" stroke="black" stroke-linecap="round" stroke-width="5"/>
	<path d="M179,54c12.81401,12.81401 32.59909,15.65636 47,28c11.31287,9.69675 17.48584,22.08017 26,34c24.8056,34.72784 32,61.93717 32,103" fill="none" stroke="black" stroke-linecap="round" stroke-width="5"/>
	<path d="M174,53c-7.62646,0 -16.86809,-7.09645 -25,-8c-18.80228,-2.08914 -36.52487,-1.84751 -55,0c-11.11571,1.11157 -32.13767,22 -36,22" fill="none" stroke="black" stroke-linecap="round" stroke-width="5"/>
	<path d="M66,69c0,17.84706 15.04696,36.62914 21,53c4.14284,11.3928 7,22.66063 7,35c0,4.21637 -6.98142,9.01858 -4,12c13.91112,13.91112 45.77318,12 63,12c12.69944,0 21.29099,0.1224 33,-3c11.7362,-3.12965 44.06653,-2.06653 54,-12c0.5081,-0.5081 0.14756,-5.48353 0,-6c-5.18583,-18.15042 -27.82491,-33.56228 -36,-54c-0.90125,-2.25314 -1.33333,-4.66667 -2,-7c-4.22174,-14.77608 -9.90909,-31.90909 -20,-42c-1.54891,-1.54891 -2,0.95459 -2,3" fill="none" stroke="black" stroke-linecap="round" stroke-width="5"/>
	<path d="M144,64c0,12.37121 33.27596,53.32141 40,65c6.01926,10.45451 8.14384,13.71783 11,24c0.82252,2.96107 1.56539,5.95771 2,9c0.28284,1.9799 0,8 0,6c0,-29.7427 -57.45231,-86.49054 -77,-109c-19.35995,-22.29327 -20.51964,-21.97381 -22,-20c-19.1367,25.5156 16.65508,73.65074 30,92c5.84895,8.04231 13.22,14.908 19,23c0.19375,0.27124 0.14907,1.29814 0,1c-4.89702,-9.79403 -11.93728,-16.70383 -18,-26c-6.84022,-10.48834 -11,-30.6736 -11,-5c0,21.05611 2.307,41.92099 9,62c1.16428,3.49285 0.53403,-7.65302 -1,-11c-2.42949,-5.30071 -6.10704,-9.93732 -9,-15c-12.33161,-21.58032 -17.73627,-31.9231 -29,-54c-3.72616,-7.30328 -7.23963,-14.71427 -11,-22c-1.78288,-3.45434 -7.22927,-13.68782 -6,-10c4.07639,12.22916 19.54146,24.74983 28,32c14.22917,12.19643 29.5621,23.05139 44,35c3.99484,3.30608 7.33333,7.33333 11,11c0.2357,0.2357 0.89459,0.31623 1,0c6.10881,-18.32644 -2.25874,-51.70192 -7,-68c-2.29964,-7.90502 -5.72661,-15.44602 -9,-23c-1.25034,-2.8854 -3.59367,-10.81267 -5,-8c-8.2489,16.49781 35.93179,86.93179 48,99c0.2357,0.2357 0,-0.66667 0,-1c0,-4.28192 0.14724,-8.86993 -1,-13c-1.8124,-6.52464 -9.52661,-18.24349 -12,-23c-1.85818,-3.57343 -3.38563,-7.31001 -5,-11c-0.845,-1.93143 -2,-8.10819 -2,-6c0,12.51521 26.87785,34.78213 34,43c4.33333,5 6.72306,17.09231 13,15c5.32729,-1.77576 -1.99433,-20.22196 -7,-32c-3.26992,-7.69393 -6.33136,-15.48801 -10,-23c-3.33887,-6.83673 -7.05137,-13.49637 -11,-20c-2.08311,-3.431 -6.50929,-12.72678 -8,-9c-5.38188,13.45471 5.21692,35.25971 10,47c3.78938,9.3012 7.94758,15.43447 14,23c0.20823,0.26029 0.1238,1.30949 0,1c-3.83466,-9.58666 -33.35435,-60 -41,-60c-2.74874,0 -1.00373,5.43816 -2,8c-5.94105,15.27699 -11.44555,29.41925 -13,46c-0.43559,4.64629 0,9.33333 0,14c0,2.33333 0,9.33333 0,7c0,-16.43492 -20.04416,-36.55326 -27,-51c-3.2496,-6.74916 -2.70325,-26.29675 -8,-21c-5.21329,5.21329 4.92065,54.1587 0,64c-0.42164,0.84327 -1.47702,-1.21554 -2,-2c-6.29697,-9.44546 -13.34509,-18.1039 -19,-28c-0.8269,-1.44707 -2.25464,-5.49071 -3,-4c-2.85529,5.71058 6.89883,19.03112 9,23c2.09246,3.95242 2.83772,15.16228 6,12c10.43128,-10.43128 -4.20227,-53 1,-53" fill="none" stroke="black" stroke-linecap="round" stroke-width="5"/>
	<path d="M234,163c-2.81913,2.81913 -0.28274,9.41369 -1,13c-2.57771,12.88853 -11.94979,17.94979 -20,26" fill="none" stroke="black" stroke-linecap="round" stroke-width="5"/>
</svg>
