<?xml version="1.0" ?>
<svg baseProfile="full" height="300" version="1.1" viewBox="[0, 0, 300, 300]" width="300" xmlns="http://www.w3.org/2000/svg" xmlns:ev="http://www.w3.org/2001/xml-events" xmlns:xlink="http://www.w3.org/1999/xlink">
	<defs/>
	<path d="M102,148c14.98481,0 34.92144,-4.36858 49,-10c2.96817,-1.18727 16.7755,-15.2245 21,-11c6.39866,6.39866 7.592,27.71467 12,38c3.19556,7.4563 6.63501,16.22625 13,21c0.75425,0.56569 2,1.05719 2,2c0,2.02759 -3.97942,0.83162 -6,1c-10.00695,0.83391 -18.62658,-1.01718 -28,3c-3.45374,1.48017 -57.51615,20.48385 -64,14c-4.03457,-4.03457 3.23775,-11.43012 2,-17c-6.06946,-27.31257 -27.87112,-38 10,-38" fill="none" stroke="black" stroke-linecap="round" stroke-width="5"/>
	<path d="M105,207c0,11.99514 1,24.19988 1,36c0,1.57991 -0.70575,3 1,3" fill="none" stroke="black" stroke-linecap="round" stroke-width="5"/>
	<path d="M190,189c0,12.26117 -0.24955,30.4991 -6,42" fill="none" stroke="black" stroke-linecap="round" stroke-width="5"/>
	<path d="M87,159c0,9.92394 -3.28723,25.71277 4,33" fill="none" stroke="black" stroke-linecap="round" stroke-width="5"/>
	<path d="M164,129c4.60854,9.21707 3,21.4728 3,32" fill="none" stroke="black" stroke-linecap="round" stroke-width="5"/>
	<path d="M154,128c0,-5.49896 -4.48917,-12.46031 -6,-18c-3.71032,-13.60449 -3,-31.81319 -3,-46c0,-10.76013 -2.34543,-19.69086 -7,-29c0,0 0,-2.66667 0,0" fill="none" stroke="black" stroke-linecap="round" stroke-width="5"/>
	<path d="M125,141c0,-22.38541 -2,-44.53295 -2,-67c0,-4.92858 -3,-41.55902 -3,-26" fill="none" stroke="black" stroke-linecap="round" stroke-width="5"/>
	<path d="M116,139c-9.24893,-13.87339 -13,-43.99205 -13,-60c0,-1.57892 0,-29 0,-29c0,0 -2,9.16362 -2,11" fill="none" stroke="black" stroke-linecap="round" stroke-width="5"/>
	<path d="M99,141c0,-15.20027 -8.23778,-28.70355 -12,-43c-4.08953,-15.5402 0,-29.55476 0,-45" fill="none" stroke="black" stroke-linecap="round" stroke-width="5"/>
	<path d="M67,64c-1.19355,0 6.80396,-0.40108 9,-1c5.59041,-1.52466 10.89649,-3.29883 16,-5c15.09961,-5.0332 32.53274,-16.88318 49,-21c0.93692,-0.23423 30.95009,3.90018 27,-4c-18.60393,-37.20787 -121.63665,6.36335 -95,33" fill="none" stroke="black" stroke-linecap="round" stroke-width="5"/>
	<path d="M101,228c0,5.72753 -15.5835,13.4165 -8,21c8.16352,8.16352 28.24587,-7.75413 18,-18" fill="none" stroke="black" stroke-linecap="round" stroke-width="5"/>
</svg>
