<?xml version="1.0" ?>
<svg baseProfile="full" height="300" version="1.1" viewBox="[0, 0, 300, 300]" width="300" xmlns="http://www.w3.org/2000/svg" xmlns:ev="http://www.w3.org/2001/xml-events" xmlns:xlink="http://www.w3.org/1999/xlink">
	<defs/>
	<path d="M132,82c0,25.02431 9,50.37556 9,75" fill="none" stroke="black" stroke-linecap="round" stroke-width="5"/>
	<path d="M147,80c0,25.4976 3,51.6837 3,76" fill="none" stroke="black" stroke-linecap="round" stroke-width="5"/>
	<path d="M157,77c0,27.15873 2,55.36088 2,83" fill="none" stroke="black" stroke-linecap="round" stroke-width="5"/>
	<path d="M170,80c0,26.33333 0,52.66667 0,79" fill="none" stroke="black" stroke-linecap="round" stroke-width="5"/>
	<path d="M178,152c-17.56386,0 -36.33348,4 -53,4" fill="none" stroke="black" stroke-linecap="round" stroke-width="5"/>
	<path d="M126,156c0,26.12698 -2,52.60386 -2,79" fill="none" stroke="black" stroke-linecap="round" stroke-width="5"/>
	<path d="M178,150c0,24.30492 -3,51.09545 -3,75" fill="none" stroke="black" stroke-linecap="round" stroke-width="5"/>
	<path d="M182,83c-17.35513,0 -67.13839,-0.86161 -80,12" fill="none" stroke="black" stroke-linecap="round" stroke-width="5"/>
</svg>
