<?xml version="1.0" ?>
<svg baseProfile="full" height="300" version="1.1" viewBox="[0, 0, 300, 300]" width="300" xmlns="http://www.w3.org/2000/svg" xmlns:ev="http://www.w3.org/2001/xml-events" xmlns:xlink="http://www.w3.org/1999/xlink">
	<defs/>
	<path d="M52,99c9.76533,0 18.24865,-17.56216 28,-20c18.49428,-4.62357 41.24405,-10 60,-10" fill="none" stroke="black" stroke-linecap="round" stroke-width="5"/>
	<path d="M119,77c0,27.76954 -3.65162,65.69675 9,91c1.23418,2.46837 3.77509,12 7,12" fill="none" stroke="black" stroke-linecap="round" stroke-width="5"/>
	<path d="M82,79c17.96892,17.96892 -3.14312,54.42753 2,75c1.2102,4.8408 23.8452,53.53561 16,30" fill="none" stroke="black" stroke-linecap="round" stroke-width="5"/>
	<path d="M64,79c0,5.66878 2.35701,8.07103 4,13c5.62446,16.87339 -2.40319,44.75857 -1,63c1.12272,14.5954 12,25.73207 12,40" fill="none" stroke="black" stroke-linecap="round" stroke-width="5"/>
	<path d="M101,75c0,19.97779 -0.65779,45.88213 3,66c2.15498,11.85241 10,20.76324 10,33" fill="none" stroke="black" stroke-linecap="round" stroke-width="5"/>
	<path d="M69,195c8.65232,0 14.13086,-9.96931 20,-15c5.53585,-4.74502 49.13735,-17.86265 53,-14c2.8229,2.8229 1.80174,18.60348 4,23c1.96073,3.92145 13,-2.38432 13,2c0,1.4714 -2.60948,1 -3,1c-10.23928,0 -25.07639,2.5191 -35,5c-6.35258,1.58814 -11.98789,6.59516 -18,9c-7.317,2.9268 -18.22721,1.0568 -26,3c-1.4462,0.36155 -4,3.49071 -4,2c0,-8.37878 3,-18.64987 3,-25" fill="none" stroke="black" stroke-linecap="round" stroke-width="5"/>
	<path d="M74,210c4.23433,8.46866 5.69274,22 6,22" fill="none" stroke="black" stroke-linecap="round" stroke-width="5"/>
	<path d="M143,191c2.89321,5.78642 4,28.5473 4,25" fill="none" stroke="black" stroke-linecap="round" stroke-width="5"/>
	<path d="M142,169c8.76079,0 8,4.66667 8,13" fill="none" stroke="black" stroke-linecap="round" stroke-width="5"/>
	<path d="M78,187c0,2.95379 3.01168,12 5,12" fill="none" stroke="black" stroke-linecap="round" stroke-width="5"/>
</svg>
