<?xml version="1.0" ?>
<svg baseProfile="full" height="300" version="1.1" viewBox="[0, 0, 300, 300]" width="300" xmlns="http://www.w3.org/2000/svg" xmlns:ev="http://www.w3.org/2001/xml-events" xmlns:xlink="http://www.w3.org/1999/xlink">
	<defs/>
	<path d="M95,58c0,27.91832 11,55.5292 11,83" fill="none" stroke="black" stroke-linecap="round" stroke-width="5"/>
	<path d="M129,56c0,33.60229 -3,67.98591 -3,102" fill="none" stroke="black" stroke-linecap="round" stroke-width="5"/>
	<path d="M153,64c3.15725,31.57248 7,63.24394 7,95" fill="none" stroke="black" stroke-linecap="round" stroke-width="5"/>
	<path d="M194,68c0,32.70691 4,65.42171 4,98" fill="none" stroke="black" stroke-linecap="round" stroke-width="5"/>
	<path d="M72,46c0,8.18527 20.66255,10.64417 26,11c6.82933,0.45529 97.1087,8.5942 98,8c10.74519,-7.16346 3.40199,-13 -5,-13c-10.30343,0 -19.99835,-1.46128 -30,-3c-10.05024,-1.54619 -20.85666,0.84528 -31,0c-11.03434,-0.91953 -32.23884,3.88058 -42,-1c-3.29357,-1.64679 -8.08213,-4 -12,-4c-1.05409,0 -2.25464,0.25464 -3,1" fill="none" stroke="black" stroke-linecap="round" stroke-width="5"/>
	<path d="M71,36c0,1.1843 0.21134,12.40378 2,13c17.51301,5.83767 41.53171,-2.30854 60,0c16.7174,2.08967 32.57904,5.17545 49,7c3.54915,0.39435 31.94619,6.16143 34,0c10.11332,-30.33996 -64.899,-6.72475 -86,-12c-17.09025,-4.27256 -34.82592,-6 -53,-6" fill="none" stroke="black" stroke-linecap="round" stroke-width="5"/>
	<path d="M99,142c0,3.10822 -3.73693,20.26307 -1,23c16.80906,16.80906 42.32704,29.32704 60,47c3.98094,3.98094 23.4475,28.27625 30,25c8.35424,-4.17712 6.19792,-20.66609 29,-27c11.25613,-3.1267 58.09563,-6.09563 63,-11c0.16438,-0.16438 -2.76963,-5.46248 -3,-6c-2.5531,-5.95723 -4.85215,-11.49554 -6,-18c-0.32708,-1.85346 0.11891,-22.96036 -3,-24c-15.72078,-5.24026 -36.59209,0.49163 -53,-1c-38.64555,-3.51323 -78.07009,-2 -117,-2" fill="none" stroke="black" stroke-linecap="round" stroke-width="5"/>
</svg>
