<?xml version="1.0" ?>
<svg baseProfile="full" height="300" version="1.1" viewBox="[0, 0, 300, 300]" width="300" xmlns="http://www.w3.org/2000/svg" xmlns:ev="http://www.w3.org/2001/xml-events" xmlns:xlink="http://www.w3.org/1999/xlink">
	<defs/>
	<path d="M76,14c0,12.66028 11.41319,26.34725 8,40c-0.37418,1.49673 -8.46944,22.51019 -7,23c11.20461,3.73487 42.12535,-18.71253 55,-20c23.78037,-2.37804 52.05814,-1.42283 73,10c4.66245,2.54315 21.8161,21.45593 27,18c9.52169,-6.3478 8,-18.89547 8,-29c0,-3.20124 -2.37808,-39.37808 -3,-40c-0.75745,-0.75745 -4.12967,1 -5,1c-25.38762,0 -49.33934,1.8491 -75,-2c-16.88954,-2.53343 -33.67544,-5.92495 -51,-4c-8.28079,0.92009 -15.86462,5 -24,5" fill="none" stroke="black" stroke-linecap="round" stroke-width="5"/>
	<path d="M88,76c0,28.88017 3.39431,57.09754 5,86c0.04055,0.72993 0.27629,12 2,12" fill="none" stroke="black" stroke-linecap="round" stroke-width="5"/>
	<path d="M136,61c3.28471,39.41657 16,80.79325 16,120" fill="none" stroke="black" stroke-linecap="round" stroke-width="5"/>
	<path d="M174,54c0,13.06792 7.66536,29.45131 10,42c6.16141,33.11758 4,67.48554 4,101" fill="none" stroke="black" stroke-linecap="round" stroke-width="5"/>
	<path d="M227,85c7.53488,3.76744 10,107.04802 10,122" fill="none" stroke="black" stroke-linecap="round" stroke-width="5"/>
	<path d="M84,183c0,-5.29558 33.60543,-5 39,-5c30.63971,0 62.01289,13.12661 93,17c4.73945,0.59243 28.49998,-0.50002 31,2c5.58261,5.58261 10.33123,27.66247 14,35c5.4221,10.84421 13.81481,19.69135 20,30c2.14799,3.57998 4.73137,6.59706 7,10c0.9245,1.38675 4.64992,4.2357 3,4c-18.72212,-2.67459 -39.08554,-3.45496 -58,-2c-3.15201,0.24246 -77.61303,11.38697 -81,8c-6.85436,-6.85436 -5.35794,-25.89484 -9,-35c-6.45668,-16.1417 -20.53914,-24.75479 -30,-38c-3.28507,-4.59909 -4.03768,-12.03768 -8,-16" fill="none" stroke="black" stroke-linecap="round" stroke-width="5"/>
	<path d="M94,187c0,-3.5133 -20.55609,5.78045 -22,13c-3.43284,17.1642 25.1895,16.43149 19,35c-0.2357,0.70711 -0.58655,1.37983 -1,2c-3.83092,5.74638 -18.72281,9.83156 -16,18c0.56615,1.69846 0.96275,4 3,4" fill="none" stroke="black" stroke-linecap="round" stroke-width="5"/>
</svg>
