<?xml version="1.0" ?>
<svg baseProfile="full" height="300" version="1.1" viewBox="[0, 0, 300, 300]" width="300" xmlns="http://www.w3.org/2000/svg" xmlns:ev="http://www.w3.org/2001/xml-events" xmlns:xlink="http://www.w3.org/1999/xlink">
	<defs/>
	<path d="M108,262c0,-6.89854 -9.46233,-19.90959 -12,-26c-15.09203,-36.22088 -46.09291,-108.88851 -16,-145c15.19392,-18.2327 46.47742,-11.36799 67,-9c68.41678,7.89424 92.63132,41.23614 114,100c4.2701,11.74279 12,27.5015 12,40" fill="none" stroke="black" stroke-linecap="round" stroke-width="5"/>
	<path d="M69,157c35.93611,-8.98403 72.44106,-16.0524 109,-24c22.81775,-4.96038 47.52059,-15 71,-15" fill="none" stroke="black" stroke-linecap="round" stroke-width="5"/>
	<path d="M93,222c-8.50267,8.50267 -34,47.94402 -34,57" fill="none" stroke="black" stroke-linecap="round" stroke-width="5"/>
	<path d="M270,189c5.52419,0 17.69988,14.57051 23,18c3.55119,2.29783 32,15.17647 32,19" fill="none" stroke="black" stroke-linecap="round" stroke-width="5"/>
</svg>
