<?xml version="1.0" ?>
<svg baseProfile="full" height="300" version="1.1" viewBox="[0, 0, 300, 300]" width="300" xmlns="http://www.w3.org/2000/svg" xmlns:ev="http://www.w3.org/2001/xml-events" xmlns:xlink="http://www.w3.org/1999/xlink">
	<defs/>
	<path d="M52,53c0,12.35176 5.22538,69.45076 9,77c1.20185,2.4037 5.31512,0.88327 8,1c28.06667,1.22029 55.18066,-2.14673 83,-5c26.35681,-2.70326 53.49439,-1 80,-1c3.73547,0 6.79753,1.60741 8,-2c3.8986,-11.6958 -0.37578,-32.63046 -2,-44c-1.75427,-12.27986 -4,-23.64519 -4,-36c0,-0.4788 0.13375,-8.98089 0,-9c-62.63776,-8.94825 -125.51835,19 -188,19" fill="none" stroke="black" stroke-linecap="round" stroke-width="5"/>
	<path d="M54,158c8.12748,8.12748 11.01794,18.51345 21,26c23.54752,17.66064 97.07961,19 127,19c15.77676,0 53,-4.84783 53,-28" fill="none" stroke="black" stroke-linecap="round" stroke-width="5"/>
	<path d="M59,167c0,14.62491 2.04527,36.06036 11,48c10.91218,14.54958 103.57685,19 121,19c12.87644,0 59.55685,2.66473 68,-10c11.77591,-17.66386 -1,-34.3351 -1,-51" fill="none" stroke="black" stroke-linecap="round" stroke-width="5"/>
</svg>
