<?xml version="1.0" ?>
<svg baseProfile="full" height="300" version="1.1" viewBox="[0, 0, 300, 300]" width="300" xmlns="http://www.w3.org/2000/svg" xmlns:ev="http://www.w3.org/2001/xml-events" xmlns:xlink="http://www.w3.org/1999/xlink">
	<defs/>
	<path d="M73,129c7.00499,-14.00998 16.51126,-30.00751 30,-39c28.62724,-19.08483 78.00952,-10.96192 87,25c1.55658,6.22631 22.5606,63.4394 16,70c-1.79448,1.79448 -17.31717,-10.0651 -19,-11c-11.6367,-6.46484 -22.89122,-8.28262 -37,-7c-16.94536,1.54049 -35.99043,5.66348 -52,11c-4.19156,1.39719 -11.13564,6.27128 -13,10c-1.20185,2.4037 -4,9.68742 -4,7c0,-16.99963 2.88793,-35.10346 5,-52c1.24211,-9.93685 -4,-20.65609 -4,-28" fill="none" stroke="black" stroke-linecap="round" stroke-width="5"/>
	<path d="M71,216c12.48579,0 24.46297,-4.1642 37,-5c11.64558,-0.77637 23.32857,-1 35,-1c27.97489,0 55.97557,-1 84,-1c1.57324,0 5.24638,-0.88405 6,1c2.77609,6.94023 2.76072,17.56431 4,25c0.71277,4.27664 6.82324,14.76514 4,19c-10.22776,15.34164 -40.07567,10 -56,10c-48.32875,0 -111,12.42893 -111,-51" fill="none" stroke="black" stroke-linecap="round" stroke-width="5"/>
	<path d="M86,249c0,3.94395 -5.82272,26.05909 0,28c9.42774,3.14258 11.24429,-10.58524 16,-9c34.17425,11.39142 80.66222,5 117,5c8.69214,0 32.33943,3.66057 39,-3c8.70863,-8.70863 -23.21696,-26.10848 -27,-28" fill="none" stroke="black" stroke-linecap="round" stroke-width="5"/>
	<path d="M76,158c3.21583,0 7.95201,20.59404 9,24c1.01311,3.2926 10.51272,43.74364 10,44c-1.82801,0.91401 -7.57376,-1.42624 -9,0c-13.41952,13.41952 -10.5463,-4.64355 -12,-17c-0.79489,-6.75653 -1,-13.20537 -1,-20c0,-10.26782 5,-19.97976 5,-30" fill="none" stroke="black" stroke-linecap="round" stroke-width="5"/>
	<path d="M202,166c0,10.21373 3.335,19.02495 4,29c0.07086,1.06296 -1.55036,15.44964 0,17c2.53859,2.53859 6.62604,-2.7731 10,-4c4.35494,-1.58362 13.94107,-2.94107 17,-6c1.14521,-1.14521 0,-12.12875 0,-13c0,-1.96032 1.91294,-21.69569 -2,-23c-12.31266,-4.10422 -22.73982,3 -33,3" fill="none" stroke="black" stroke-linecap="round" stroke-width="5"/>
	<path d="M88,260c58.38806,0 116.84608,1 175,1" fill="none" stroke="black" stroke-linecap="round" stroke-width="5"/>
</svg>
