<?xml version="1.0" ?>
<svg baseProfile="full" height="300" version="1.1" viewBox="[0, 0, 300, 300]" width="300" xmlns="http://www.w3.org/2000/svg" xmlns:ev="http://www.w3.org/2001/xml-events" xmlns:xlink="http://www.w3.org/1999/xlink">
	<defs/>
	<path d="M77,55c-4.30612,12.91836 -2,29.62035 -2,43c0,4.31939 -2.32591,19.34819 0,24c0.75761,1.51523 19.78924,0 28,0c25.66667,0 51.33333,0 77,0c13.66667,0 27.33333,0 41,0c20.46456,0 37.96331,0.14677 38,0c2.39481,-9.57925 -2.69838,-27.17714 -5,-36c-0.71687,-2.74799 -8.71702,-36.71463 -11,-37c-13.57854,-1.69732 -31.52712,1.22044 -44,2c-33.40493,2.08781 -69.92611,-2.72484 -103,2c-8.5781,1.22544 -17.23867,4 -26,4" fill="none" stroke="black" stroke-linecap="round" stroke-width="5"/>
	<path d="M76,145c0,27.63116 32.66365,26.06637 52,28c36.66715,3.66672 108.39351,7.21298 128,-32" fill="none" stroke="black" stroke-linecap="round" stroke-width="5"/>
	<path d="M75,156c0,13.04838 -4.91701,31.16597 1,43c6.96489,13.92978 60.59226,10.60041 72,10c65.93087,-3.47005 115,24.18726 115,-65" fill="none" stroke="black" stroke-linecap="round" stroke-width="5"/>
</svg>
