<?xml version="1.0" ?>
<svg baseProfile="full" height="300" version="1.1" viewBox="[0, 0, 300, 300]" width="300" xmlns="http://www.w3.org/2000/svg" xmlns:ev="http://www.w3.org/2001/xml-events" xmlns:xlink="http://www.w3.org/1999/xlink">
	<defs/>
	<path d="M75,95c0,-43.40399 107.9756,-37.75915 134,-28c8.22555,3.08458 33,10.64501 33,23" fill="none" stroke="black" stroke-linecap="round" stroke-width="5"/>
	<path d="M76,88c0,12.21743 -13.29514,75.70486 -5,84c4.76767,4.76767 18.72644,-3.72644 22,-7c2.88499,-2.88499 1.11162,-12.11162 5,-16c6.31581,-6.31581 13.49484,-9.45361 22,-11c32.08925,-5.83441 72.74843,-1.68867 99,18c6.29738,4.72304 6.90316,16.90316 12,22" fill="none" stroke="black" stroke-linecap="round" stroke-width="5"/>
	<path d="M237,84c0,16.23095 -6.03448,31.58621 -7,48c-0.80868,13.74752 1,27.65482 1,41" fill="none" stroke="black" stroke-linecap="round" stroke-width="5"/>
	<path d="M65,187c62.66667,0 125.33333,0 188,0" fill="none" stroke="black" stroke-linecap="round" stroke-width="5"/>
	<path d="M69,186c0,6.96329 -10.52665,35.47335 -5,41c5.30036,5.30036 56.28932,2 65,2c2.48779,0 102.72708,2.18195 106,0c14.81629,-9.87752 16,-28.90556 16,-46" fill="none" stroke="black" stroke-linecap="round" stroke-width="5"/>
	<path d="M66,226c0,13.97643 -4,27.35155 -4,41c0,1.33333 1.19257,3.40372 0,4c-5.06239,2.53119 -12.92071,-2.92071 -11,-1c15.87988,15.87988 33.16452,-12.38817 41,-15c27.09078,-9.03026 66.54479,-6 95,-6c4.2281,0 26.99848,-3.00152 30,0c7.06157,7.06157 -5.95191,23.50801 9,26c34.78109,5.79685 29,-31.88541 29,-55c0,-2.08674 0.31506,-9 -2,-9" fill="none" stroke="black" stroke-linecap="round" stroke-width="5"/>
	<path d="M65,165c0,11.69782 -9.10956,26.43823 -12,38c-0.33333,1.33333 -2.30384,3.56539 -1,4c20.12045,6.70682 24,-20.99202 24,-35" fill="none" stroke="black" stroke-linecap="round" stroke-width="5"/>
	<path d="M229,164c0,6.66667 0,13.33333 0,20c0,7.49041 -2.60712,11.06746 7,10c0.56423,-0.06269 19.43412,1.26351 20,-1c1.53606,-6.14423 0,-14.53598 0,-21c0,-1.2023 0.81468,-11.59266 0,-12c-4.32465,-2.16232 -15.90941,0 -21,0" fill="none" stroke="black" stroke-linecap="round" stroke-width="5"/>
	<path d="M69,236c0,2.40685 28.519,1 30,1c5.33333,0 10.66667,0 16,0c46.33333,0 92.66667,0 139,0" fill="none" stroke="black" stroke-linecap="round" stroke-width="5"/>
</svg>
