<?xml version="1.0" ?>
<svg baseProfile="full" height="300" version="1.1" viewBox="[0, 0, 300, 300]" width="300" xmlns="http://www.w3.org/2000/svg" xmlns:ev="http://www.w3.org/2001/xml-events" xmlns:xlink="http://www.w3.org/1999/xlink">
	<defs/>
	<path d="M82,101c1.84046,0 8.98181,-8.65454 11,-10c4.96458,-3.30972 16.20625,-6.03437 22,-7c30.58231,-5.09705 83.70391,-2.51024 113,4c7.53848,1.67522 16.24201,9 24,9" fill="none" stroke="black" stroke-linecap="round" stroke-width="5"/>
	<path d="M107,87c0,23.67403 2,47.33281 2,71" fill="none" stroke="black" stroke-linecap="round" stroke-width="5"/>
	<path d="M123,89c0,19.78827 3,39.27619 3,59" fill="none" stroke="black" stroke-linecap="round" stroke-width="5"/>
	<path d="M155,94c0,18.48032 -1,37.36318 -1,56" fill="none" stroke="black" stroke-linecap="round" stroke-width="5"/>
	<path d="M185,81c0,14.41766 -3.20424,30.63394 -5,45c-1.23009,9.84072 -1,12.89933 -1,22c0,2.73333 0,5.73333 0,3" fill="none" stroke="black" stroke-linecap="round" stroke-width="5"/>
	<path d="M204,84c0,19.34898 -2,38.65082 -2,58" fill="none" stroke="black" stroke-linecap="round" stroke-width="5"/>
	<path d="M222,85c-2.59814,12.99072 -3,32.02299 -3,45" fill="none" stroke="black" stroke-linecap="round" stroke-width="5"/>
	<path d="M137,81c0,15 0,30 0,45c0,1.46596 -0.94879,5 1,5" fill="none" stroke="black" stroke-linecap="round" stroke-width="5"/>
	<path d="M68,150c47.06658,0 93.86613,-4 141,-4c15.38732,0 30.68508,0.45856 46,-1c7.03922,-0.6704 14.06625,-1.61325 21,-3c2.31125,-0.46225 6.61251,-3.32495 7,-1c1.87844,11.27062 -0.98423,23.82657 -2,35c-0.2813,3.09425 1.99429,16.00571 -1,19c-3.27944,3.27944 -13.59275,2 -17,2c-6.66667,0 -13.33333,0 -20,0c-18,0 -36,0 -54,0c-20.699,0 -43.50686,2.41552 -64,-1c-7.94772,-1.32462 -21.15731,4.42134 -28,1c-11.74141,-5.87071 -10,-36.29359 -10,-47" fill="none" stroke="black" stroke-linecap="round" stroke-width="5"/>
	<path d="M94,197c0,3.66099 -2.84107,62.15893 -2,63c2.01384,2.01384 5.19075,-2.53179 8,-3c13.86738,-2.31123 8,-22.81576 8,-36c0,-2 0,-4 0,-6c0,-1.66667 0,-3.33333 0,-5c0,-1.33333 0,-2.66667 0,-4" fill="none" stroke="black" stroke-linecap="round" stroke-width="5"/>
	<path d="M140,198c0,17.22375 -1.57511,33.90132 -3,51c-0.40392,4.84704 0,10.11349 0,15c0,2.33333 -1.64992,8.64992 0,7c4.57174,-4.57174 9.15121,-11.30242 12,-17c1.05552,-2.11105 5.44021,0.11958 6,-1c3.77147,-7.54293 0,-49.87774 0,-62" fill="none" stroke="black" stroke-linecap="round" stroke-width="5"/>
</svg>
