<?xml version="1.0" ?>
<svg baseProfile="full" height="300" version="1.1" viewBox="[0, 0, 300, 300]" width="300" xmlns="http://www.w3.org/2000/svg" xmlns:ev="http://www.w3.org/2001/xml-events" xmlns:xlink="http://www.w3.org/1999/xlink">
	<defs/>
	<path d="M76,45c0,26.8895 -3.07724,55.08137 -5,82c-0.42814,5.99398 -0.76905,11.99519 -1,18c-0.21779,5.66248 -5.37587,15.20804 0,17c24.19123,8.06374 62.4165,-5.05448 87,-6c17.60761,-0.67722 35.36265,0 53,0c3,0 7.65836,2.68328 9,0c3.53424,-7.06848 0.21516,-30.11482 0,-37c-0.51733,-16.55455 -1.00935,-34.0374 -5,-50c-0.06027,-0.24108 0.1848,-4.9076 0,-5c-8.51325,-4.25662 -116.45486,-5 -139,-5" fill="none" stroke="black" stroke-linecap="round" stroke-width="5"/>
	<path d="M68,184c7.30639,7.30639 12.15845,12.52657 22,17c26.87315,12.21507 110.01273,12.97454 125,-17" fill="none" stroke="black" stroke-linecap="round" stroke-width="5"/>
	<path d="M71,189c0,2.33991 -1.04667,45.95333 0,47c6.94486,6.94486 37.21167,4.24233 46,6c36.06137,7.21227 66.71124,7.64438 100,-9c16.04977,-8.02488 14.53965,-47 1,-47" fill="none" stroke="black" stroke-linecap="round" stroke-width="5"/>
	<path d="M66,147c0,37.08215 -1.72778,78.08887 7,113c1.91153,7.64613 9,14.69385 9,23" fill="none" stroke="black" stroke-linecap="round" stroke-width="5"/>
</svg>
