<?xml version="1.0" ?>
<svg baseProfile="full" height="300" version="1.1" viewBox="[0, 0, 300, 300]" width="300" xmlns="http://www.w3.org/2000/svg" xmlns:ev="http://www.w3.org/2001/xml-events" xmlns:xlink="http://www.w3.org/1999/xlink">
	<defs/>
	<path d="M46,117c0,-18.34516 32.08001,-26.6538 45,-32c29.76781,-12.31772 104.15394,-17.42303 131,-4c9.66526,4.83263 17.48799,13.48799 25,21" fill="none" stroke="black" stroke-linecap="round" stroke-width="5"/>
	<path d="M121,77c0,19.02281 -0.45821,38.04329 1,57c0.08085,1.05099 -0.05409,3 1,3" fill="none" stroke="black" stroke-linecap="round" stroke-width="5"/>
	<path d="M151,78c0,21.08886 4,41.38007 4,62" fill="none" stroke="black" stroke-linecap="round" stroke-width="5"/>
	<path d="M162,132c-6.15151,0 -11.91727,-6.47932 -18,-8c-26.53757,-6.63439 -64.04321,-8.95679 -84,11c-7.45983,7.45983 -15.62302,12.92327 -12,25c4.87678,16.25594 41.35077,15.98579 52,17c32.90651,3.13395 66.11721,4.06825 98,-6c65.12669,-20.56632 22.74271,-43 -22,-43c-15,0 -30,0 -45,0" fill="none" stroke="black" stroke-linecap="round" stroke-width="5"/>
	<path d="M68,163c0,14.80523 -0.90092,28.30644 -3,43c-0.48232,3.37626 -5,22.69802 -5,19" fill="none" stroke="black" stroke-linecap="round" stroke-width="5"/>
	<path d="M86,172c0,19.58432 9.777,39.7195 15,58c0.43405,1.51918 -1.03677,4 1,4" fill="none" stroke="black" stroke-linecap="round" stroke-width="5"/>
	<path d="M202,168c2.70957,21.6766 20,43.88016 20,65" fill="none" stroke="black" stroke-linecap="round" stroke-width="5"/>
	<path d="M196,174c0,15.41775 -3,30.96137 -3,46" fill="none" stroke="black" stroke-linecap="round" stroke-width="5"/>
	<path d="M47,111c0,-48.42571 85.46671,-40 116,-40c16.93919,0 37.51553,-3.12112 54,1c9.90135,2.47534 20.24062,21 27,21" fill="none" stroke="black" stroke-linecap="round" stroke-width="5"/>
</svg>
