<?xml version="1.0" ?>
<svg baseProfile="full" height="300" version="1.1" viewBox="[0, 0, 300, 300]" width="300" xmlns="http://www.w3.org/2000/svg" xmlns:ev="http://www.w3.org/2001/xml-events" xmlns:xlink="http://www.w3.org/1999/xlink">
	<defs/>
	<path d="M61,106c0,-6.79045 7.00865,-13.01081 11,-18c20.1646,-25.20575 46.64469,-34 78,-34c11.57223,0 25.96746,-2.24329 37,2c39.01085,15.00417 57.79947,66.00265 50,105c-6.51316,32.56578 -39.23415,-6.89635 -49,-13c-8.66513,-5.41571 -19.80436,-9.07312 -30,-10c-38.56944,-3.50631 -53.07487,46.38503 -80,41c-23.40822,-4.68164 -13,-67.17516 -13,-86" fill="none" stroke="black" stroke-linecap="round" stroke-width="5"/>
	<path d="M71,191c24.33333,0 48.66667,0 73,0c18,0 36,0 54,0c11.1894,0 48.57834,-4.21083 57,0c1.51881,0.75941 -0.64083,9.56331 -1,11c-4.44218,17.76872 -4.36839,22.78946 -26,30c-16.81527,5.60509 -123.88728,12.55636 -143,3c-9.31657,-4.65829 -14,-31.89393 -14,-41" fill="none" stroke="black" stroke-linecap="round" stroke-width="5"/>
</svg>
