<?xml version="1.0" ?>
<svg baseProfile="full" height="300" version="1.1" viewBox="[0, 0, 300, 300]" width="300" xmlns="http://www.w3.org/2000/svg" xmlns:ev="http://www.w3.org/2001/xml-events" xmlns:xlink="http://www.w3.org/1999/xlink">
	<defs/>
	<path d="M65,63c0,14.041 1.92422,30.26524 -2,44c-3.86008,13.51029 -11.69132,27.1479 -14,41c-2.7125,16.27503 -2.74461,31.67992 -4,48c-0.95452,12.40878 -7.41285,43.58715 2,53c3.89092,3.89092 4.31019,-1.97223 6,-4c6.67015,-8.00418 9.77567,-17.16351 15,-25c4.35484,-6.53225 -1.19154,-44.59577 20,-34c20.92301,10.46151 12.79427,65.76559 16,85c0.43346,2.60079 7.33533,26.10978 12,23c26.53631,-17.69088 4.96837,-83.96837 10,-89c3.37568,-3.37568 23.31992,0 29,0c7.48886,0 27.71954,-3.64023 35,0c0.41974,0.20987 0,5.57614 0,6c0,13.58071 -9.46661,21.33307 -12,34c-2.23455,11.17275 4.10261,48.17304 23,34c4.13824,-3.10368 6.10774,-12.26936 8,-17c14.76508,-36.91269 -4.31666,-79.31666 -29,-104c-7.05671,-7.05671 -33.90131,1.1727 -42,-13c-16.54817,-28.9593 12.8883,-109.95532 -52,-84c-6.70713,2.68285 -12.90413,4.90413 -18,10" fill="none" stroke="black" stroke-linecap="round" stroke-width="5"/>
	<path d="M155,205c1.0672,0 3,6.76285 3,8c0,9.92442 1.46624,52.86494 4,63c0.49426,1.97704 4,5.35007 4,7c0,2.07959 -5.83089,-2.83089 -6,-3c-5.91361,-5.91361 -7,-6.41246 -7,-16c0,-17.18181 -6,-36.38973 -6,-54" fill="none" stroke="black" stroke-linecap="round" stroke-width="5"/>
</svg>
