<?xml version="1.0" ?>
<svg baseProfile="full" height="300" version="1.1" viewBox="[0, 0, 300, 300]" width="300" xmlns="http://www.w3.org/2000/svg" xmlns:ev="http://www.w3.org/2001/xml-events" xmlns:xlink="http://www.w3.org/1999/xlink">
	<defs/>
	<path d="M54,134c5.23903,-10.47806 31.34577,-12.36703 41,-15c22.85448,-6.23304 114.69249,-19.30751 134,0c0.2357,0.2357 0.31623,0.89459 0,1c-5.14091,1.71364 -12.43302,3.38145 -18,4c-12.16585,1.35176 -23.92178,2.79218 -36,4c-14.00714,1.40071 -105.25829,16.87085 -111,14c-3.06135,-1.53067 -7.53158,-6.06316 -9,-9" fill="none" stroke="black" stroke-linecap="round" stroke-width="5"/>
	<path d="M208,188c0,-9.78392 -39.01721,-12.46613 -44,-13c-34.61867,-3.70914 -84,-3.73271 -84,41c0,4.40078 -1.56445,11.93242 0,16c4.41186,11.47083 12.8887,23.77764 23,31c30.11482,21.51059 169.2993,-17.7007 100,-87" fill="none" stroke="black" stroke-linecap="round" stroke-width="5"/>
</svg>
