<?xml version="1.0" ?>
<svg baseProfile="full" height="300" version="1.1" viewBox="[0, 0, 300, 300]" width="300" xmlns="http://www.w3.org/2000/svg" xmlns:ev="http://www.w3.org/2001/xml-events" xmlns:xlink="http://www.w3.org/1999/xlink">
	<defs/>
	<path d="M55,266c0,4.59435 -4.5415,20 2,20c0.68898,0 20,2 20,2c0,0 -4.89413,-13.55293 -2,-15c2.4141,-1.20705 28.91876,-5.08124 30,-4c2.20233,2.20233 -1.47206,10.05588 0,13c2.3276,4.65519 12.68642,6.12428 17,9c0.30935,0.20624 10.4793,6.08282 11,4c2.00324,-8.01296 -6.91403,-31.36199 4,-35c15.699,-5.233 34.28556,1.23815 50,-4c0.63246,-0.21082 1.5286,-0.4714 2,0c3.13928,3.13928 1,14.35217 1,19c0,1.66667 -1.66667,5 0,5c11.47724,0 14.81196,-16.90598 17,-18c6.5035,-3.25175 18.10124,-2 25,-2c5.28121,0 10.94253,-1.05747 15,3c2.58204,2.58204 2.69488,11.69488 5,14c0.92702,0.92702 23.38838,-7.77675 24,-9c2.49352,-4.98704 -4.45664,-39.72832 -7,-41c-4.64171,-2.32085 -29.89555,3.68279 -32,0c-10.11119,-17.69459 -30,-90.28657 -30,-113" fill="none" stroke="black" stroke-linecap="round" stroke-width="5"/>
	<path d="M58,266c-1.66667,0 3.35008,0.2357 5,0c3.7028,-0.52897 12.48287,-4.48287 15,-7c7.63315,-7.63315 5,-17.3314 5,-29c0,-17.3219 -5.24823,-106.50354 2,-121" fill="none" stroke="black" stroke-linecap="round" stroke-width="5"/>
	<path d="M137,251c-22.62972,-22.62972 -14,-109.51264 -14,-144" fill="none" stroke="black" stroke-linecap="round" stroke-width="5"/>
	<path d="M175,248c0,-44.3135 -6,-88.05432 -6,-132" fill="none" stroke="black" stroke-linecap="round" stroke-width="5"/>
</svg>
