<?xml version="1.0" ?>
<svg baseProfile="full" height="300" version="1.1" viewBox="[0, 0, 300, 300]" width="300" xmlns="http://www.w3.org/2000/svg" xmlns:ev="http://www.w3.org/2001/xml-events" xmlns:xlink="http://www.w3.org/1999/xlink">
	<defs/>
	<path d="M75,246c3.14167,12.56667 0.35713,30.39284 5,42c0.68284,1.70711 2.70139,1 4,1c2.8769,0 10.87336,-22.06332 29,-13c2.84488,1.42244 3.83425,9.66851 5,12c0.58621,1.17241 20.45895,5.54105 22,4c4.21063,-4.21063 -18.85087,-18.35819 -9,-20c12.41712,-2.06952 27.3913,0 40,0c0.35074,0 4.61743,-0.38257 5,0c6.95029,6.95029 -2.1603,13.45993 12,17c3.16193,0.79048 3.57397,-8.14794 5,-11c1.44745,-2.89491 7.46736,-1.46736 9,-3c2.31154,-2.31154 4.69206,13.30794 6,12c4.97282,-4.97282 -23.5921,-71.18419 -28,-80c-2.77675,-5.55349 -6.4358,-15.4358 -10,-19c-1.30502,-1.30502 1.85928,-5 -1,-5" fill="none" stroke="black" stroke-linecap="round" stroke-width="5"/>
	<path d="M78,245c0,-16.11343 1,-32.55031 1,-48" fill="none" stroke="black" stroke-linecap="round" stroke-width="5"/>
	<path d="M53,185c16.72306,0 34.17074,4.80488 51,2c24.84796,-4.14133 42.52843,-7 68,-7c11.19193,0 23.32623,1.55792 34,-2c2.60768,-0.86923 7.13077,-4.60768 8,-2c8.55727,25.67181 -30.29217,-23.32304 -37,-25c-34.84293,-8.71073 -85.78883,7.26294 -118,18c-0.26849,0.0895 2.8952,16.8952 4,18" fill="none" stroke="black" stroke-linecap="round" stroke-width="5"/>
	<path d="M95,194c-8.45429,8.45429 0.68112,63.72447 4,77c0.44219,1.76877 -1.08129,4 1,4" fill="none" stroke="black" stroke-linecap="round" stroke-width="5"/>
</svg>
