<?xml version="1.0" ?>
<svg baseProfile="full" height="300" version="1.1" viewBox="[0, 0, 300, 300]" width="300" xmlns="http://www.w3.org/2000/svg" xmlns:ev="http://www.w3.org/2001/xml-events" xmlns:xlink="http://www.w3.org/1999/xlink">
	<defs/>
	<path d="M75,159c7.91264,-7.91264 -4.63956,-68.99649 19,-95c18.95423,-20.84966 53.74565,-20.19076 74,-5c1.5069,1.13018 6.38385,3.15155 7,5c0.56765,1.70294 0.7307,3.7307 2,5c1.69967,1.69967 3.17855,3.74102 4,6c0.58085,1.59734 0.58777,3.35107 1,5c0.95234,3.80936 2.90507,7.44147 4,11c4.99025,16.2183 12,31.83921 12,49c0,4.02612 1.67891,22.10703 -1,23c-17.30859,5.76953 -45.02705,-2.22823 -62,-6c-17.27622,-3.83916 -39.78392,0 -58,0" fill="none" stroke="black" stroke-linecap="round" stroke-width="5"/>
</svg>
