<?xml version="1.0" ?>
<svg baseProfile="full" height="300" version="1.1" viewBox="[0, 0, 300, 300]" width="300" xmlns="http://www.w3.org/2000/svg" xmlns:ev="http://www.w3.org/2001/xml-events" xmlns:xlink="http://www.w3.org/1999/xlink">
	<defs/>
	<path d="M108,113c0,34.43944 -9.87686,65.32274 -16,99c-0.9013,4.95714 -11.92144,30.07856 -7,35c2.04978,2.04978 41.48501,8.36091 45,9c42.22322,7.67695 88.92971,2 132,2" fill="none" stroke="black" stroke-linecap="round" stroke-width="5"/>
	<path d="M102,155c0,-14.08653 7.80344,-34.00861 13,-47c2.09293,-5.23231 2.74961,-11.37325 4,-17c0.43985,-1.9793 1,-8.02759 1,-6c0,71.50542 22.99291,40 75,40c8.48349,0 33.9143,2.0857 40,-4c3.84557,-3.84557 1,-21.95612 1,-27c0,-3 0,-6 0,-9c0,-2 0,-8 0,-6c0,30.59604 10.2654,83.79619 20,113c4.18701,12.56103 0.40727,29.96366 -2,42c-1.69031,8.45157 2,17.90808 2,24" fill="none" stroke="black" stroke-linecap="round" stroke-width="5"/>
</svg>
