<?xml version="1.0" ?>
<svg baseProfile="full" height="300" version="1.1" viewBox="[0, 0, 300, 300]" width="300" xmlns="http://www.w3.org/2000/svg" xmlns:ev="http://www.w3.org/2001/xml-events" xmlns:xlink="http://www.w3.org/1999/xlink">
	<defs/>
	<path d="M42,48c0,17.19828 -5.39829,35.08888 -8,52c-4.71601,30.65408 -4.93325,60.06807 -3,91c0.90612,14.4979 -6.87642,46.08238 8,56c3.93591,2.62394 6.83527,-2.28229 8,-5c7.00562,-16.34644 5.69608,-37.78432 10,-55c0.1869,-0.74762 1.51111,-7 2,-7c2.53859,0 2.05719,4.64298 3,7c4.81317,12.03292 12.75402,79.41533 32,73c10.38797,-3.46266 8,-58.01935 8,-69c0,-1.05319 -1.37852,-5.81074 -1,-6c0.90852,-0.45426 84.56263,-11.71868 86,-11c0.89443,0.44721 -0.1644,2.01361 0,3c1.77001,10.62007 -11.07889,76.38592 6,65c5.21649,-3.47766 11.49931,-5.49931 16,-10c8.55235,-8.55235 -0.59651,-41.66085 -5,-49c-3.9974,-6.66233 -5.35592,-35.35592 -9,-39c-1.9284,-1.9284 -17.0196,-1.40784 -21,-3c-19.25989,-7.70396 -21.36063,-35.36063 -34,-48c-7.42123,-7.42123 -5.17886,-42.17886 -12,-49" fill="none" stroke="black" stroke-linecap="round" stroke-width="5"/>
</svg>
