<?xml version="1.0" ?>
<svg baseProfile="full" height="300" version="1.1" viewBox="[0, 0, 300, 300]" width="300" xmlns="http://www.w3.org/2000/svg" xmlns:ev="http://www.w3.org/2001/xml-events" xmlns:xlink="http://www.w3.org/1999/xlink">
	<defs/>
	<path d="M90,155c0.15358,0 50.5075,-21.37687 57,-23c1.94029,-0.48507 4.00901,0.18962 6,0c7.66143,-0.72966 98.1618,-7.78315 80,24c-5.2355,9.16212 -30.57568,9.0089 -39,10c-20.26932,2.38463 -54.77505,10.74165 -75,4c-10.17857,-3.39286 -32.35422,-9 -43,-9" fill="none" stroke="black" stroke-linecap="round" stroke-width="5"/>
	<path d="M76,79c20.77548,-12.46529 41.25448,-9.20908 64,-13c13.74208,-2.29035 27.05087,-2 41,-2c12.76093,0 25.44777,-1 38,-1c4.2724,0 8.84966,-1.2255 11,2c8.51,12.765 -21.38665,15.11047 -28,17c-25.44474,7.26993 -58.38545,2 -85,2c-9.1587,0 -31.11744,3.88256 -37,-2" fill="none" stroke="black" stroke-linecap="round" stroke-width="5"/>
</svg>
