<?xml version="1.0" ?>
<svg baseProfile="full" height="300" version="1.1" viewBox="[0, 0, 300, 300]" width="300" xmlns="http://www.w3.org/2000/svg" xmlns:ev="http://www.w3.org/2001/xml-events" xmlns:xlink="http://www.w3.org/1999/xlink">
	<defs/>
	<path d="M83,80c0,45.48296 -7.95434,89.49774 -12,134c-0.98187,10.8006 -10.34591,41.32705 3,48c2.39471,1.19736 7.13966,-1.99627 8,-3c12.04069,-14.04747 17.05091,-38.10183 25,-54c3.23175,-6.4635 28.51395,-8 37,-8c0.26606,0 2.91743,-0.16514 3,0c6.31845,12.6369 -21.83836,67.16164 -13,76c5.55332,5.55332 21.97349,4 29,4c5.21999,0 16.75345,0.83104 21,-2c5.03991,-3.35994 1,-44.16216 1,-53c0,-3.16228 -6,-8 -3,-9c10.52822,-3.50941 23.76189,0.4127 34,-3c4.39732,-1.46577 17.46968,-10.39774 22,-7c4.94723,3.71042 3.42434,12.8191 4,18c0.92788,8.35092 4.1283,18.48681 2,27c-2.08396,8.33583 -8.90783,14.17051 -10,24c-0.30769,2.76922 -1.84973,16.15027 1,19c0.86723,0.86723 1.41876,5.72083 4,4c26.04129,-17.36086 20.10158,-50.71108 24,-78c0.48925,-3.42473 3.67562,-24.66219 1,-26c-7.38601,-3.69301 -20.12412,2.62529 -28,0c-11.6794,-3.89313 -19.16954,-24.0934 -22,-34c-2.11309,-7.3958 -0.47648,-16.38241 -2,-24c-3.21171,-16.05855 -10.7773,-31.10492 -12,-47c-0.21723,-2.82398 -1.73386,-26 -4,-26" fill="none" stroke="black" stroke-linecap="round" stroke-width="5"/>
	<path d="M86,105c0,5.29406 22.60213,5 26,5c27.76015,0 56.90019,1 84,1" fill="none" stroke="black" stroke-linecap="round" stroke-width="5"/>
</svg>
