<?xml version="1.0" ?>
<svg baseProfile="full" height="300" version="1.1" viewBox="[0, 0, 300, 300]" width="300" xmlns="http://www.w3.org/2000/svg" xmlns:ev="http://www.w3.org/2001/xml-events" xmlns:xlink="http://www.w3.org/1999/xlink">
	<defs/>
	<path d="M75,127c3.29514,0 2.3868,-23.32081 3,-27c3.305,-19.83002 11.12054,-31.78014 32,-37c16.43968,-4.10992 46.19371,51.38743 53,65" fill="none" stroke="black" stroke-linecap="round" stroke-width="5"/>
	<path d="M48,157c0,16.41466 84.21288,66.78712 102,49c17.78396,-17.78396 10.71829,-40.43658 21,-61" fill="none" stroke="black" stroke-linecap="round" stroke-width="5"/>
	<path d="M49,157c-1.69967,0 -1,3.30033 -1,5c0,10.06339 1.08259,20.90847 2,31c2.56215,28.18363 29.11959,49.838 55,56c25.66537,6.1108 52.85189,4 79,4c1,0 2.55279,0.89443 3,0c6.08587,-12.17175 1.80854,-27.23417 5,-40c7.42186,-29.68742 6.6075,-52.19625 -19,-65" fill="none" stroke="black" stroke-linecap="round" stroke-width="5"/>
</svg>
