<?xml version="1.0" ?>
<svg baseProfile="full" height="300" version="1.1" viewBox="[0, 0, 300, 300]" width="300" xmlns="http://www.w3.org/2000/svg" xmlns:ev="http://www.w3.org/2001/xml-events" xmlns:xlink="http://www.w3.org/1999/xlink">
	<defs/>
	<path d="M81,86c0,22.85644 4.93532,51.79106 0,74c-3.41522,15.3685 -6,31.51459 -6,48c0,13.99369 -3.83215,35.08392 10,42c3.87212,1.93606 10.62509,3.5417 15,5c35.34615,11.78205 -0.87693,-53.29231 24,-45c5.49907,1.83302 13.46147,-0.53853 18,4c15.7723,15.7723 -0.75197,56.25066 33,45c17.12159,-5.7072 -13.08395,-48.96402 1,-55c6.76141,-2.89775 17.82408,-2.28241 25,-3c5.71691,-0.57169 22.65457,-5.67272 28,-3c9.60441,4.8022 -10.00123,57.99508 -6,74c5.27984,21.11936 33.10349,-0.15524 39,-9c12.66657,-18.99986 6.28079,-51.31525 3,-71c-1.36192,-8.17154 -3.26403,-14.52807 -7,-22c-1.13529,-2.27058 9.53859,-3 7,-3c-21.63101,0 -47.12802,-3.88004 -58,-22c-8.00595,-13.34325 -4.95643,-71.95643 -12,-79c-6.35715,-6.35715 -97.66546,4.66546 -107,14" fill="none" stroke="black" stroke-linecap="round" stroke-width="5"/>
	<path d="M203,199c14.07751,0 -0.74891,27.25109 0,28c1.53185,1.53185 4.13622,-1.35217 5,-2c10.51116,-7.88337 13,-15.77553 13,-29c0,-1 0,-2 0,-3" fill="none" stroke="black" stroke-linecap="round" stroke-width="5"/>
</svg>
