<?xml version="1.0" ?>
<svg baseProfile="full" height="300" version="1.1" viewBox="[0, 0, 300, 300]" width="300" xmlns="http://www.w3.org/2000/svg" xmlns:ev="http://www.w3.org/2001/xml-events" xmlns:xlink="http://www.w3.org/1999/xlink">
	<defs/>
	<path d="M90,164c-17.49754,-17.49754 -2.70802,-49.16325 9,-63c7.85675,-9.28525 81.81583,-51.88813 95,-42c6.54697,4.91023 12.45259,12.45259 18,18c14.72743,14.72743 27.6876,89.72496 7,98c-23.25387,9.30155 -53.4437,6 -78,6c-16.00839,0 -44.57289,5.42711 -57,-7" fill="none" stroke="black" stroke-linecap="round" stroke-width="5"/>
	<path d="M69,214c0,9.05253 7.02049,16.59338 13,23c29.81695,31.94674 83.81695,24.36371 124,22c16.45899,-0.96818 41.7756,-5.65361 45,-25c3.35948,-20.15687 -30.1708,-19 -45,-19c-23.74748,0 -50.44062,-3.36563 -74,0c-21.75183,3.1074 -42.00943,6 -64,6" fill="none" stroke="black" stroke-linecap="round" stroke-width="5"/>
</svg>
