<?xml version="1.0" ?>
<svg baseProfile="full" height="300" version="1.1" viewBox="[0, 0, 300, 300]" width="300" xmlns="http://www.w3.org/2000/svg" xmlns:ev="http://www.w3.org/2001/xml-events" xmlns:xlink="http://www.w3.org/1999/xlink">
	<defs/>
	<path d="M70,116c0,-15.86858 0.24385,-34.29305 -2,-50c-0.0554,-0.38779 -2.35578,-4.60737 0,-5c10.71911,-1.78652 120.70241,-9.04156 125,6c0.46694,1.63428 0.8123,3.31072 1,5c1.37347,12.36123 6,22.16872 6,35c0,0.33333 0.31623,0.89459 0,1c-9.3208,3.10693 -119.90089,12.09911 -129,3" fill="none" stroke="black" stroke-linecap="round" stroke-width="5"/>
	<path d="M84,229c20.9456,0 39.83414,-3.2189 60,-7c13.15682,-2.4669 25.89582,-2.37916 39,-5c3.02117,-0.60423 22.29957,-7.55065 24,-5c3.89216,5.83824 1,21.07674 1,28c0,2.43837 1.77712,15.6305 0,18c-1.22081,1.62774 -46.70448,7.06619 -51,8c-9.94773,2.16255 -54.24668,10.37666 -65,5c-3.09878,-1.54939 -5.08577,-14.12866 -7,-17c-6.98847,-10.4827 -11,-20.20078 -11,-34" fill="none" stroke="black" stroke-linecap="round" stroke-width="5"/>
</svg>
