<?xml version="1.0" ?>
<svg baseProfile="full" height="300" version="1.1" viewBox="[0, 0, 300, 300]" width="300" xmlns="http://www.w3.org/2000/svg" xmlns:ev="http://www.w3.org/2001/xml-events" xmlns:xlink="http://www.w3.org/1999/xlink">
	<defs/>
	<path d="M54,32c6.59887,0 14.21394,-7.61426 20,-8c20.71828,-1.38122 122.55044,-7.30264 117,26" fill="none" stroke="black" stroke-linecap="round" stroke-width="5"/>
	<path d="M191,51c0.33333,1 0.66667,2 1,3" fill="none" stroke="black" stroke-linecap="round" stroke-width="5"/>
	<path d="M53,31c2.61855,0 1.64296,24.16074 5,25c11.96118,2.9903 27.84753,-1.53901 39,-6c10.12612,-4.05045 34.79731,-0.02027 45,1c9.77253,0.97725 41.89281,18.03573 48,16c4.58678,-1.52893 -5,-16.08671 -5,-17" fill="none" stroke="black" stroke-linecap="round" stroke-width="5"/>
	<path d="M69,57c-2.6909,0 2.23289,7.16446 3,11c1.17148,5.85738 1.31392,10.62785 4,16c4.70938,9.41875 0,37.32913 0,48" fill="none" stroke="black" stroke-linecap="round" stroke-width="5"/>
	<path d="M100,49c7.60331,7.60331 15,77.54394 15,91" fill="none" stroke="black" stroke-linecap="round" stroke-width="5"/>
	<path d="M144,54c0,27.33333 0,54.66667 0,82" fill="none" stroke="black" stroke-linecap="round" stroke-width="5"/>
	<path d="M178,66c0,36.7312 -13,73.20938 -13,110" fill="none" stroke="black" stroke-linecap="round" stroke-width="5"/>
	<path d="M72,126c12.80661,0 24.03768,-3.58219 36,-7c20.38079,-5.82308 46.74272,-3.77144 68,-2c3.43698,0.28642 3.34026,17.04159 4,21c3.9988,23.9928 18,52.97392 18,77" fill="none" stroke="black" stroke-linecap="round" stroke-width="5"/>
	<path d="M70,126c0,-2.21862 4.5085,5.33902 14,21c10.71179,17.67445 11.72139,37.8877 23,54c9.86117,14.08739 74.57683,2 91,2" fill="none" stroke="black" stroke-linecap="round" stroke-width="5"/>
	<path d="M69,128c0,5.66401 7.05184,19.80101 8,24c3.7367,16.54826 -4.65957,50.34043 8,63" fill="none" stroke="black" stroke-linecap="round" stroke-width="5"/>
	<path d="M104,208c3.80512,11.41536 10,34.75841 10,47" fill="none" stroke="black" stroke-linecap="round" stroke-width="5"/>
	<path d="M192,207c0,20.87618 -7,41.66486 -7,62" fill="none" stroke="black" stroke-linecap="round" stroke-width="5"/>
</svg>
