<?xml version="1.0" ?>
<svg baseProfile="full" height="300" version="1.1" viewBox="[0, 0, 300, 300]" width="300" xmlns="http://www.w3.org/2000/svg" xmlns:ev="http://www.w3.org/2001/xml-events" xmlns:xlink="http://www.w3.org/1999/xlink">
	<defs/>
	<path d="M27,86c0,-0.73682 5.03703,-3.88888 6,-5c3.27465,-3.77845 5.82146,-8.14035 9,-12c22.05369,-26.77948 37.03099,-7.26102 47,16c1.79272,4.18301 7.09883,9.5186 10,13c0.30179,0.36214 1.36811,0.70552 1,1c-15.68111,12.54489 -69.2542,-4.6271 -86,-13" fill="none" stroke="black" stroke-linecap="round" stroke-width="5"/>
	<path d="M24,83c0,6.60566 5.66636,45.88879 9,47c5.9185,1.97283 20.77397,1.12899 26,2c2.71203,0.452 25.86915,4.19628 28,1c8.0588,-12.0882 10.85462,-29.85462 22,-41" fill="none" stroke="black" stroke-linecap="round" stroke-width="5"/>
	<path d="M76,56c0,-1.05409 1.9565,-0.85093 3,-1c11.63478,-1.66211 23.36522,-4.33789 35,-6c31.9529,-4.5647 103.87161,-17.06419 130,-4" fill="none" stroke="black" stroke-linecap="round" stroke-width="5"/>
	<path d="M100,101c0,-9.74775 25.00633,-12.40127 33,-14c46.36423,-9.27285 88.7582,-7 137,-7" fill="none" stroke="black" stroke-linecap="round" stroke-width="5"/>
</svg>
