<?xml version="1.0" ?>
<svg baseProfile="full" height="300" version="1.1" viewBox="[0, 0, 300, 300]" width="300" xmlns="http://www.w3.org/2000/svg" xmlns:ev="http://www.w3.org/2001/xml-events" xmlns:xlink="http://www.w3.org/1999/xlink">
	<defs/>
	<path d="M26,94c5.24594,19.67227 2.5395,39.67118 7,59c2.47602,10.72941 6.6033,20.21487 9,31c2.88367,12.97653 -2.28843,28.1347 2,41c0.32062,0.96186 7.78151,3.39076 9,4c2.02717,1.01359 7.9216,0 10,0c27.12574,0 5.72748,-39.72634 3,-52c-1.99497,-8.97735 0.5174,-22.31316 1,-31c0.17034,-3.06611 -1.28779,-4.34244 2,-5c46.07936,-9.21587 26.32243,61.32243 44,79c2.46505,2.46505 12.65663,1 15,1c3.66667,0 9.8405,3.47851 11,0c6.13944,-18.41831 -6.15259,-39.54223 0,-58c0.14907,-0.44721 0.60777,-0.73851 1,-1c5.61591,-3.74394 10.59688,-8.86563 17,-11c4.3861,-1.46203 19.41459,1.93113 20,2c14.89863,1.75278 33.34501,-1.71984 47,-3c0.33188,-0.03111 0.66667,0 1,0c1.97977,0 7.24891,-2.75546 8,1c1.60193,8.00965 7.41006,70.58994 5,73c-1.06486,1.06486 -7.21708,1 -9,1c-19.40509,0 -13.2667,-22.33301 -12,-35c0.19901,-1.99007 0,-4 0,-6c0,-1.33333 0,-2.66667 0,-4c0,-2.33333 0,-4.66667 0,-7c0,-1.94365 -1.62563,-3.62563 -3,-5c-1,-1 -1.78732,-2.27239 -3,-3c-3.00774,-1.80464 -6.29572,1.10635 -8,3c-19.33077,21.47864 -7.90194,58.79957 -25,55c-8.32253,-1.84945 -7.97272,-57.02728 -2,-63" fill="none" stroke="black" stroke-linecap="round" stroke-width="5"/>
	<path d="M30,94c0,-18.5859 1.44843,-32.79373 6,-51" fill="none" stroke="black" stroke-linecap="round" stroke-width="5"/>
</svg>
