<?xml version="1.0" ?>
<svg baseProfile="full" height="300" version="1.1" viewBox="[0, 0, 300, 300]" width="300" xmlns="http://www.w3.org/2000/svg" xmlns:ev="http://www.w3.org/2001/xml-events" xmlns:xlink="http://www.w3.org/1999/xlink">
	<defs/>
	<path d="M63,73c0,-1.15011 2.66995,-1.61998 4,-2c18.06582,-5.16166 36.35699,-4 55,-4c12.48519,0 32.08925,4.97025 44,1c27.13765,-9.04588 68.41432,-5.48591 62,33c-2.46134,14.76803 -37.59065,9 -46,9c-23.63444,0 -43.92942,-10.69294 -67,-13c-24.93863,-2.49386 -65,6.4697 -65,-28" fill="none" stroke="black" stroke-linecap="round" stroke-width="5"/>
	<path d="M74,100c0,19.83394 2,40.08397 2,60c0,9.47853 -2,18.86286 -2,28c0,0.33333 0,1.33333 0,1c0,-7.21706 3.06597,-19.06597 8,-24" fill="none" stroke="black" stroke-linecap="round" stroke-width="5"/>
	<path d="M105,99c0,30.2866 -2,61.01232 -2,91" fill="none" stroke="black" stroke-linecap="round" stroke-width="5"/>
	<path d="M123,93c0,15.16384 5,31.18387 5,47c0,10.66667 0,21.33333 0,32c0,0.66667 -0.64676,2.16169 0,2c1.4462,-0.36155 2.66667,-1.33333 4,-2" fill="none" stroke="black" stroke-linecap="round" stroke-width="5"/>
	<path d="M170,112c0,26.68024 -3,53.6935 -3,80" fill="none" stroke="black" stroke-linecap="round" stroke-width="5"/>
	<path d="M203,108c0,24.57183 4.11494,54.57469 9,79c0.5864,2.93199 1.27647,8 4,8" fill="none" stroke="black" stroke-linecap="round" stroke-width="5"/>
</svg>
