<?xml version="1.0" ?>
<svg baseProfile="full" height="300" version="1.1" viewBox="[0, 0, 300, 300]" width="300" xmlns="http://www.w3.org/2000/svg" xmlns:ev="http://www.w3.org/2001/xml-events" xmlns:xlink="http://www.w3.org/1999/xlink">
	<defs/>
	<path d="M79,60c15.60638,-7.80319 34.9216,-6 52,-6c10.33333,0 20.66667,0 31,0c12.23431,0 23.08454,4 36,4c0.66667,0 1.5286,-0.4714 2,0c1.59217,1.59217 -1.77815,16.96302 -2,17c-12.30843,2.0514 -24.19581,-2.47053 -36,-5c-16.16148,-3.46317 -93,8.29781 -93,-16" fill="none" stroke="black" stroke-linecap="round" stroke-width="5"/>
	<path d="M97,69c-5.03886,10.07772 -7,22.76217 -7,34" fill="none" stroke="black" stroke-linecap="round" stroke-width="5"/>
	<path d="M112,72c-3.96995,3.96995 -19.15721,25.10481 -7,17" fill="none" stroke="black" stroke-linecap="round" stroke-width="5"/>
	<path d="M128,74c9.52308,0 6,38.6603 6,33" fill="none" stroke="black" stroke-linecap="round" stroke-width="5"/>
	<path d="M138,64c0.74536,0.74536 1.94591,1 3,1" fill="none" stroke="black" stroke-linecap="round" stroke-width="5"/>
	<path d="M145,68c7.30397,7.30397 10.3369,53.6631 16,48" fill="none" stroke="black" stroke-linecap="round" stroke-width="5"/>
	<path d="M165,66c8.36313,16.72625 5,38.84996 5,57c0,2.4267 1.23261,-4.69783 2,-7" fill="none" stroke="black" stroke-linecap="round" stroke-width="5"/>
	<path d="M181,73c5.90231,5.90231 8,57.79023 8,32" fill="none" stroke="black" stroke-linecap="round" stroke-width="5"/>
	<path d="M193,76c7.2531,14.50619 13,36.85771 13,53c0,0.4714 -0.5286,1 -1,1" fill="none" stroke="black" stroke-linecap="round" stroke-width="5"/>
	<path d="M106,67c0,17.33333 0,34.66667 0,52" fill="none" stroke="black" stroke-linecap="round" stroke-width="5"/>
</svg>
