<?xml version="1.0" ?>
<svg baseProfile="full" height="300" version="1.1" viewBox="[0, 0, 300, 300]" width="300" xmlns="http://www.w3.org/2000/svg" xmlns:ev="http://www.w3.org/2001/xml-events" xmlns:xlink="http://www.w3.org/1999/xlink">
	<defs/>
	<path d="M92,74c22.90688,0 48.08586,-8.58283 71,-4c13.21511,2.64302 25.60267,9 39,9" fill="none" stroke="black" stroke-linecap="round" stroke-width="5"/>
	<path d="M94,75c-1.18975,-1.18975 -6.08636,10.82728 -4,15c0.53566,1.07132 25.62299,1 27,1c25.06361,0 49.16349,-3 74,-3c0.93729,0 6.78929,0.42142 7,0c0.8808,-1.76159 0,-5.91631 0,-8" fill="none" stroke="black" stroke-linecap="round" stroke-width="5"/>
	<path d="M96,98c3.08814,0 1.59612,2.98062 2,5c2.64485,13.22423 2,27.11513 2,41c0,1.66667 0,6.66667 0,5c0,-2.33333 0,-4.66667 0,-7" fill="none" stroke="black" stroke-linecap="round" stroke-width="5"/>
	<path d="M115,94c0,12.65135 5,25.29322 5,38c0,5 0,10 0,15c0,2.35702 1,9.35702 1,7c0,-1.20185 0.92503,-2.46252 2,-3" fill="none" stroke="black" stroke-linecap="round" stroke-width="5"/>
	<path d="M133,93c1.92913,0 2.63421,4.35397 3,6c4.8189,21.68505 11,44.86561 11,67" fill="none" stroke="black" stroke-linecap="round" stroke-width="5"/>
	<path d="M162,91c0,20.68301 7,42.7603 7,62c0,8.81732 2,5.33756 2,-3" fill="none" stroke="black" stroke-linecap="round" stroke-width="5"/>
	<path d="M186,92c0,22.16242 3,44.11194 3,66" fill="none" stroke="black" stroke-linecap="round" stroke-width="5"/>
	<path d="M94,148c9.83691,0 17.17833,65.17833 25,73c2.88758,2.88758 25.27583,-2 30,-2c12.17368,0 46.39835,6.60165 54,-1c6.61518,-6.61518 -9.06886,-63.03443 -11,-64c-11.84801,-5.924 -29.81247,-6.06944 -43,-9c-21.13591,-4.69687 -35.74344,7 -54,7" fill="none" stroke="black" stroke-linecap="round" stroke-width="5"/>
</svg>
