<?xml version="1.0" ?>
<svg baseProfile="full" height="300" version="1.1" viewBox="[0, 0, 300, 300]" width="300" xmlns="http://www.w3.org/2000/svg" xmlns:ev="http://www.w3.org/2001/xml-events" xmlns:xlink="http://www.w3.org/1999/xlink">
	<defs/>
	<path d="M68,75c0,3.27634 -0.04562,5.86314 1,9c5.09129,15.27386 4,31.11746 4,47c0,0.78696 -0.38257,4.61743 0,5c1.17851,1.17851 1.82149,-2.82149 3,-4c5.70892,-5.70892 14.51871,-5 22,-5c25.14484,0 49.25847,-4 74,-4c13.24659,0 55.63436,6.63436 64,15c1.59299,1.59299 4.62226,-0.48902 5,-2c2.59745,-10.3898 1,-22.38049 1,-33c0,-48.90396 -27.05906,-25 -68,-25c-35.78006,0 -75.71142,1 -109,1" fill="none" stroke="black" stroke-linecap="round" stroke-width="5"/>
	<path d="M94,125c4.10439,16.41757 10.98939,31.81966 12,49c0.16055,2.72936 1,24.48649 1,17" fill="none" stroke="black" stroke-linecap="round" stroke-width="5"/>
	<path d="M126,122c0,9.29107 -4.84262,68.84262 7,57" fill="none" stroke="black" stroke-linecap="round" stroke-width="5"/>
	<path d="M164,131c0,-1.20185 1.38165,-1.96942 2,-3c0.70711,-1.17851 1,-5.37437 1,-4c0,22.65915 0.73428,45.45432 -1,68c-0.17896,2.32646 0,9.33333 0,7c0,-2 0,-4 0,-6" fill="none" stroke="black" stroke-linecap="round" stroke-width="5"/>
	<path d="M202,130c0,23.40398 3,46.79641 3,70" fill="none" stroke="black" stroke-linecap="round" stroke-width="5"/>
</svg>
