<?xml version="1.0" ?>
<svg baseProfile="full" height="300" version="1.1" viewBox="[0, 0, 300, 300]" width="300" xmlns="http://www.w3.org/2000/svg" xmlns:ev="http://www.w3.org/2001/xml-events" xmlns:xlink="http://www.w3.org/1999/xlink">
	<defs/>
	<path d="M92,46c-6.64145,33.20727 -12.79786,65.39358 -23,96c-5.34213,16.0264 -2.77042,34.31126 -8,50c-2.99909,8.99726 -13.8376,38.1624 -6,46c7.57176,7.57176 18.41949,-16.83899 20,-20c11.81108,-23.62216 9.10254,-57.55127 34,-70c1.95375,-0.97688 11.47541,-6.52459 14,-4c31.02273,31.02273 -15.99339,93.00661 5,114c2.58429,2.58429 7.75283,3.75283 10,6c0.70711,0.70711 5.88924,0 7,0c16.95847,0 12.64648,-20.29297 18,-31c3.97799,-7.95598 -1.25614,-26.02455 -3,-33c-1.17997,-4.71988 -4.14222,-35.42889 -1,-37c4.99649,-2.49825 15.23977,1 21,1c11.52712,0 20.02788,-3 30,-3c1.03192,0 2.63056,0.89168 3,2c4.39046,13.17139 -6.27663,46.44674 -1,57c3.38412,6.76824 4.534,37.466 21,21c25.21573,-25.21573 7.52204,-55.95592 -4,-79c-5.97342,-11.94684 1.16184,-25.83816 -12,-39c-7.59088,-7.59088 -22.08886,-5.69629 -32,-9c-19.60041,-6.53347 -47.53147,-3 -68,-3c-1.74825,0 -7,-0.78914 -7,1" fill="none" stroke="black" stroke-linecap="round" stroke-width="5"/>
	<path d="M178,167c-5.46307,21.85228 -1,23.11035 -1,37c0,27.74783 26.89565,-2.79131 31,-11c0.33333,-0.66667 0.47295,-1.47295 1,-2c3.28692,-3.28692 -2,-19.78082 -2,-24" fill="none" stroke="black" stroke-linecap="round" stroke-width="5"/>
	<path d="M99,46c12.48028,0.65686 104.65298,-13.34702 113,-5c7.46901,7.46901 10.18537,16.55612 14,28c1.96894,5.90682 6.4384,23.1232 3,30c-2.82304,5.64607 -2.52139,9.52139 -7,14c-3.9621,3.9621 -54.29165,4 -62,4c-4.05874,0 -12.5002,-1.7499 -16,0c-9.6196,4.8098 -47.23724,8 -59,8c-1.66428,0 -6,0.77613 -6,-1" fill="none" stroke="black" stroke-linecap="round" stroke-width="5"/>
</svg>
