<?xml version="1.0" ?>
<svg baseProfile="full" height="300" version="1.1" viewBox="[0, 0, 300, 300]" width="300" xmlns="http://www.w3.org/2000/svg" xmlns:ev="http://www.w3.org/2001/xml-events" xmlns:xlink="http://www.w3.org/1999/xlink">
	<defs/>
	<path d="M83,110c0,19.1869 5,36.44009 5,56c0,0.41176 -0.26471,2.73529 0,3c3.49997,3.49997 4,-3.28332 4,-4c0,-14.88038 -3.7183,-22.14085 10,-29c12.57864,-6.28932 5.49723,17.74862 12,21c0.35808,0.17904 2.09158,1.90842 3,1c6.29864,-6.29864 -3.23596,-19.52808 0,-26c2.78245,-5.56491 22.18396,-7 28,-7" fill="none" stroke="black" stroke-linecap="round" stroke-width="5"/>
	<path d="M149,124c1.33333,0 2.66667,0 4,0" fill="none" stroke="black" stroke-linecap="round" stroke-width="5"/>
	<path d="M151,131c3.80817,13.96329 1.75653,35.51307 7,46c5.10084,10.20168 20.37129,-15.74259 22,-19c5.16103,-10.32206 -7.61321,-35.91981 -13,-44c-0.67764,-1.01645 -13.54085,3.86479 -17,3c-13.30166,-3.32541 -30.35822,-9 -44,-9c-0.02191,0 -9,25.38538 -9,27c0,1 0,2 0,3c0,0.66667 -0.4714,1.5286 0,2c4.4078,4.4078 48.20868,2.39566 53,0c3.80989,-1.90494 20,-18.4073 20,-23" fill="none" stroke="black" stroke-linecap="round" stroke-width="5"/>
	<path d="M111,113c-2.28528,-11.42638 -4.96721,-21.93441 -10,-32c-3.50401,-7.00802 2.3011,-20.6989 -3,-26c-2.16667,-2.16667 1.16667,-9.83333 -1,-12c-2.40493,-2.40493 1.58217,-11.83566 0,-15c-1.1029,-2.20579 -3.5603,-0.71985 -5,0c-8.31796,4.15898 -37.61926,9.85778 -41,20c-0.21082,0.63246 0,1.33333 0,2c0,1.59036 6.97427,43.94854 8,46c1.71012,3.42024 2.43535,29.67056 4,29c10.95478,-4.6949 28.25589,-23.25589 36,-31c3.13033,-3.13033 18.21706,-9.78294 16,-12" fill="none" stroke="black" stroke-linecap="round" stroke-width="5"/>
	<path d="M70,114c3.03244,4.76527 23,27.33555 23,34" fill="none" stroke="black" stroke-linecap="round" stroke-width="5"/>
	<path d="M75,138c-1.63673,8.18364 -1.57015,24.1403 -5,31c-3.48845,6.97689 5.45733,20.27133 12,17c18.37926,-9.18963 36,-32.98379 36,-51" fill="none" stroke="black" stroke-linecap="round" stroke-width="5"/>
	<path d="M70,153c0,-17.80161 11,-39.26001 11,-41" fill="none" stroke="black" stroke-linecap="round" stroke-width="5"/>
</svg>
