<?xml version="1.0" ?>
<svg baseProfile="full" height="300" version="1.1" viewBox="[0, 0, 300, 300]" width="300" xmlns="http://www.w3.org/2000/svg" xmlns:ev="http://www.w3.org/2001/xml-events" xmlns:xlink="http://www.w3.org/1999/xlink">
	<defs/>
	<path d="M114,85c-0.53194,2.65971 -14.03345,66.96655 -10,71c1.15017,1.15017 97.11685,4.88315 101,1c6.57099,-6.57099 7.2802,-27.15941 4,-37c-2.31143,-6.9343 0.72914,-19.27086 -4,-24c-22.9055,-22.9055 -58.35794,-5 -88,-5" fill="none" stroke="black" stroke-linecap="round" stroke-width="5"/>
	<path d="M115,194c-1.87006,12.15538 -10.10285,35.7943 -4,48c4.23637,8.47275 84.1993,3.90035 94,-1c2.18453,-1.09226 3.98308,-5.98308 5,-7c5.45719,-5.45719 -13.54481,-35.54481 -16,-38c-3.09128,-3.09128 -12.86711,-4.62237 -17,-6c-15.29981,-5.09994 -70.72148,14.27852 -74,11" fill="none" stroke="black" stroke-linecap="round" stroke-width="5"/>
	<path d="M110,91c-18.57661,40.24932 -38.2103,79.42061 -58,119c-3.47684,6.95369 -18.69003,33.30997 -11,41c3.16426,3.16426 5.04654,0.90692 7,-3c6.05921,-12.11842 32.23743,-66.38128 41,-62c0.42164,0.21082 0.78918,0.57836 1,1c4.3167,8.6334 -1.38135,24.2373 3,33c4.18474,8.36948 10.03483,16.89551 7,26c-0.21082,0.63246 0.16169,1.35324 0,2c-2.90922,11.63688 -9.99824,24.99647 -15,35c-0.59862,1.19723 -2.5484,3.98064 0,5c9.75175,3.9007 33.63622,-10.90867 37,-21c0.54806,-1.64418 4.5139,-18.75695 5,-19c0.96753,-0.48377 46.1842,3 53,3c5.83473,0 18.78009,0.60995 24,-2c0.50074,-0.25037 8,-1.24798 8,-1c0,16.29747 -15.46703,57.73352 26,37c40.64015,-20.32008 -26,-49.06294 -26,-60" fill="none" stroke="black" stroke-linecap="round" stroke-width="5"/>
	<path d="M177,250c-1.98856,9.9428 -5.92009,18.76028 -9,28c-6.20568,18.61703 18.35177,6.64823 25,0c9.16525,-9.16525 8.32044,-28.64088 15,-42" fill="none" stroke="black" stroke-linecap="round" stroke-width="5"/>
</svg>
