<?xml version="1.0" ?>
<svg baseProfile="full" height="300" version="1.1" viewBox="[0, 0, 300, 300]" width="300" xmlns="http://www.w3.org/2000/svg" xmlns:ev="http://www.w3.org/2001/xml-events" xmlns:xlink="http://www.w3.org/1999/xlink">
	<defs/>
	<path d="M59,69c17.62162,-3.91592 44.08,-14.30667 63,-8c20.91901,6.973 70.25796,46.48407 58,71c-7.5688,15.13759 -36.53531,13.51177 -50,18c-14.28188,4.76063 -63.27594,13.27594 -71,21c-0.82843,0.82843 -4.56408,-0.56408 -5,-1c-19.32924,-19.32924 -10.79827,-118 11,-118" fill="none" stroke="black" stroke-linecap="round" stroke-width="5"/>
	<path d="M69,173c-0.80719,8.07194 -2,14.94638 -2,23c0,31.70622 57.07263,-1.92737 68,9c13.99986,13.99986 -18.86774,34.69838 -12,45c9.98526,14.97789 76.26071,-8.13036 88,-14c26.76239,-13.38119 -2.44198,-105 -22,-105" fill="none" stroke="black" stroke-linecap="round" stroke-width="5"/>
	<path d="M143,214c-6.2583,0 -19.2626,-0.78555 -27,1c-31.08062,7.17245 -25.64904,60.32452 1,47c3.67333,-1.83666 14,-4.59709 14,-9" fill="none" stroke="black" stroke-linecap="round" stroke-width="5"/>
	<path d="M118,258c6.04187,8.30757 12.07123,14.5717 5,24c-10.5042,14.00559 -45.24701,0.37649 -58,-6c-6.88684,-3.44342 -9.87983,-11.93991 -16,-15c-7.10573,-3.55286 -12.80778,-24.09611 -5,-28c11.74024,-5.87012 26.82157,-13.91078 41,-21c6.79478,-3.39739 21.13016,-14 27,-14" fill="none" stroke="black" stroke-linecap="round" stroke-width="5"/>
	<path d="M211,238c4.35904,12.20532 4.33521,24.00564 8,35c6.86627,20.5988 36.64969,-14.94908 39,-22c5.84484,-17.53453 -18.08437,-69.16874 -26,-85c-1.80686,-3.61371 -7,-4.50909 -7,-6" fill="none" stroke="black" stroke-linecap="round" stroke-width="5"/>
</svg>
