<?xml version="1.0" ?>
<svg baseProfile="full" height="300" version="1.1" viewBox="[0, 0, 300, 300]" width="300" xmlns="http://www.w3.org/2000/svg" xmlns:ev="http://www.w3.org/2001/xml-events" xmlns:xlink="http://www.w3.org/1999/xlink">
	<defs/>
	<path d="M105,68c-2.76561,35.95297 -10.02062,72.10308 -17,107c-1.57509,7.87543 -3.61209,32.19396 4,36c9.51048,4.75524 15.32493,-21.29974 17,-28c7.69223,-30.76891 12.35639,-62.8218 52,-43c9.39917,4.69959 -12,68.78121 -12,86c0,4.33487 0.75427,10.12287 7,7c17.68434,-8.84217 24,-42.45099 24,-60c0,-2.09484 -1.0787,-8.96065 1,-10c3.1791,-1.58955 56.94533,21.10933 64,7c4.13002,-8.26004 5,-23.43405 5,-33c0,-38.35184 -33.47605,-37.88099 -65,-30c-10.30583,2.57646 -37.40383,-4.59617 -45,3" fill="none" stroke="black" stroke-linecap="round" stroke-width="5"/>
	<path d="M224,157c-4.56074,22.80368 -19.36983,77.63017 -2,95c0.97354,0.97354 4.36044,-0.36044 5,-1c13.89053,-13.89053 5.97859,-51.95718 14,-68c0.77567,-1.55133 1.00467,-6 3,-6" fill="none" stroke="black" stroke-linecap="round" stroke-width="5"/>
	<path d="M137,111c16.42726,-3.28545 38.37149,2.31425 53,-5c7.65568,-3.82784 -2.79318,-33.37955 -5,-40c-1.9732,-5.9196 2.53657,-21.46343 -2,-26c-8.65472,-8.65472 -60.60918,10.60918 -64,14c-4.37969,4.37969 -6.46644,12.46644 -11,17c-1.25282,1.25282 -5,6.62387 -5,5" fill="none" stroke="black" stroke-linecap="round" stroke-width="5"/>
</svg>
