<?xml version="1.0" ?>
<svg baseProfile="full" height="300" version="1.1" viewBox="[0, 0, 300, 300]" width="300" xmlns="http://www.w3.org/2000/svg" xmlns:ev="http://www.w3.org/2001/xml-events" xmlns:xlink="http://www.w3.org/1999/xlink">
	<defs/>
	<path d="M97,63c-3.65784,7.31568 -8.40554,16.21661 -11,24c-2.15585,6.46756 0.04324,46.02162 4,48c12.00752,6.00376 101.21929,-26.21929 108,-33c2.48683,-2.48683 -11.3569,-21.67845 -16,-24c-1.34768,-0.67384 -8.30834,-2.61669 -9,-4c-2.4103,-4.8206 -8.52999,-2.52999 -12,-6c-16.41555,-16.41555 -45.88661,1.4433 -59,8" fill="none" stroke="black" stroke-linecap="round" stroke-width="5"/>
	<path d="M93,137c-10.99923,-12.09915 -10.99564,-18.99128 -17,-31c-3.77435,-7.54869 -2.48228,-21.03544 1,-28c17.49534,-34.99068 66.37545,-28.31228 97,-13c6.91083,3.45541 30.23702,31.76298 22,40" fill="none" stroke="black" stroke-linecap="round" stroke-width="5"/>
	<path d="M112,130c0.81623,10.61102 -0.8602,30.4194 2,39c6.62503,19.8751 26.95802,31.91605 36,50c2.7768,5.55359 12.86191,18.86191 18,24c2.23816,2.23816 8.02467,11.02467 7,10" fill="none" stroke="black" stroke-linecap="round" stroke-width="5"/>
</svg>
