<?xml version="1.0" ?>
<svg baseProfile="full" height="300" version="1.1" viewBox="[0, 0, 300, 300]" width="300" xmlns="http://www.w3.org/2000/svg" xmlns:ev="http://www.w3.org/2001/xml-events" xmlns:xlink="http://www.w3.org/1999/xlink">
	<defs/>
	<path d="M111,65c-4.23014,23.26578 -9.75697,52.27092 -17,74c-5.94337,17.83011 -2.06771,39.20314 -8,57c-3.46452,10.39355 -7.96497,40.03503 0,48c3.12296,3.12296 5.08607,-0.08607 7,-2c11.08413,-11.08413 19.38164,-96.30918 44,-84c30.30584,15.15292 -3.31658,69.68342 17,90c11.04733,11.04733 24.93704,-16.87408 28,-23c5.96665,-11.93329 0,-34.74324 0,-49c0,-0.40728 -0.2495,-3.87525 0,-4c2.79267,-1.39634 20.86546,-1.56727 24,0c5.58288,2.79144 15.10703,-4.89297 20,0c12.632,12.632 3.0938,43.0938 14,54c3.41019,3.41019 14.86425,7.40724 18,-2c3.27353,-9.8206 12.64604,-23.70792 7,-35c-4.99455,-9.98911 -18.74905,-17.74905 -26,-25c-5.0797,-5.0797 3.05416,-22 -8,-22c-18.69168,0 -38.46323,38 -57,38c-3.11943,0 -50.59088,-23.63648 -49,-30c1.53813,-6.15254 7.02485,-7.04971 9,-11c13.92383,-27.84766 54.62322,-11.68839 74,-2c12.14837,6.07419 34,-2.00867 34,16" fill="none" stroke="black" stroke-linecap="round" stroke-width="5"/>
	<path d="M180,129c3.89986,-8.5797 34.95024,-72.04976 26,-81c-12.89127,-12.89127 -74.71799,6.71799 -83,15c-3.20585,3.20585 -4.33298,10.33298 -8,14" fill="none" stroke="black" stroke-linecap="round" stroke-width="5"/>
	<path d="M208,169c-4.80966,16.03218 -5,28.67551 -5,44c0,3.54619 4.97922,11.02078 9,7c13.58033,-13.58033 3.71707,-38.0756 15,-55" fill="none" stroke="black" stroke-linecap="round" stroke-width="5"/>
</svg>
