<?xml version="1.0" ?>
<svg baseProfile="full" height="300" version="1.1" viewBox="[0, 0, 300, 300]" width="300" xmlns="http://www.w3.org/2000/svg" xmlns:ev="http://www.w3.org/2001/xml-events" xmlns:xlink="http://www.w3.org/1999/xlink">
	<defs/>
	<path d="M78,151c6.66419,5.33135 13.98725,11.32483 21,16c11.03129,7.35419 24.6808,13 38,13c4.05988,0 6.35123,0.70245 4,-4" fill="none" stroke="black" stroke-linecap="round" stroke-width="5"/>
	<path d="M149,135c3.60555,0 6.31299,3.59584 9,6c7.3491,6.57551 65,56.0087 65,26" fill="none" stroke="black" stroke-linecap="round" stroke-width="5"/>
	<path d="M70,132c2.43394,7.30183 8.72706,13.04499 12,20c2.85633,6.06971 5.81964,12.09362 9,18c1.50232,2.79003 10.87037,25.95767 6,19c-12.481,-17.83001 -36.65991,-79.8958 2,-86c17.65731,-2.788 36.16648,0.09806 54,-2c2.66901,-0.314 6.50929,-3.23607 8,-1c1.98973,2.9846 0.66714,14.50354 1,17c0.6679,5.00923 19.00718,65.99043 16,70c-1.6,2.13333 -5.38512,0.52298 -8,0c-24.15498,-4.831 -48.694,-10.09368 -73,-14c-2.61539,-0.42033 -59.21099,-1.263 -51,-4" fill="none" stroke="black" stroke-linecap="round" stroke-width="5"/>
</svg>
