<?xml version="1.0" ?>
<svg baseProfile="full" height="300" version="1.1" viewBox="[0, 0, 300, 300]" width="300" xmlns="http://www.w3.org/2000/svg" xmlns:ev="http://www.w3.org/2001/xml-events" xmlns:xlink="http://www.w3.org/1999/xlink">
	<defs/>
	<path d="M63,115c6.65422,6.65422 11.03593,4.51797 18,8c16.83321,8.41661 62.64274,57.53507 66,76c4.58479,25.21636 8.2507,61.24789 0,86c-3.62681,10.88042 -5.946,-0.81102 -8,-8" fill="none" stroke="black" stroke-linecap="round" stroke-width="5"/>
	<path d="M145,84c0,8.76296 26.09671,13.63078 33,19c9.37428,7.29111 12.16681,18.03144 19,27c16.75041,21.98492 19.81283,31.07397 28,57c9.76818,30.93257 12,58.89071 12,91c0,6.38301 -0.1897,6.3505 -4,0" fill="none" stroke="black" stroke-linecap="round" stroke-width="5"/>
	<path d="M89,123c15.94395,-4.90583 29.54273,-12.34615 44,-20c6.71882,-3.55702 11.82131,-9.12852 19,-12c0.47651,-0.1906 6.41158,-3 3,-3" fill="none" stroke="black" stroke-linecap="round" stroke-width="5"/>
	<path d="M120,163c0,32.61408 34.14629,4.45531 50,-4c4.47262,-2.3854 9.31383,-2.23537 13,-5c4.43358,-3.32518 3.20211,-7.78335 9,-12c0.21036,-0.15299 10.59102,-3.63591 10,-6c-1.14903,-4.59611 -7.2604,-6.09142 -11,-9" fill="none" stroke="black" stroke-linecap="round" stroke-width="5"/>
	<path d="M138,121c7.06547,0 31.78418,4.21582 36,0c0.97183,-0.97183 -2.63038,-0.88586 -4,-1c-5.31491,-0.44291 -10.66667,0 -16,0c-2,0 -8,0 -6,0c24.37964,0 15.0363,-5 -2,-5c-10.24796,0 -29.26239,-4.3688 -38,0c-0.42164,0.21082 -1.46225,0.90755 -1,1c9.72368,1.94474 20.11909,1 30,1c0.33333,0 1.33333,0 1,0c-2.5057,0 -31.12375,2.75251 -28,9c4.19788,8.39577 18.61325,3 28,3c6.66667,0 13.33333,0 20,0c2.66667,0 10.66667,0 8,0c-12.17399,0 -41.24415,-3.75585 -50,5c-0.97183,0.97183 2.62563,1 4,1c7.95001,0 27.31601,-3.68399 33,2c0.33333,0.33333 1.39223,0.73851 1,1c-6.9144,4.6096 -22.31291,-1.68709 -28,4c-1.33333,1.33333 2.25943,3.27476 4,4c4.18823,1.7451 22.54554,1.72768 23,4c1.76597,8.82983 -15.56313,12.74747 -15,15c2.01922,8.07689 18.69796,7.18123 24,4c42.65177,-25.59106 23.45008,-33.53568 -13,-48c-14.2151,-5.64091 -28.1632,-12.2908 -43,-16c-0.64676,-0.16169 1.33333,0 2,0c8.24686,0 24.51578,-4.14472 30,-11c5.00716,-6.25895 -13.37247,-3 -17,-3" fill="none" stroke="black" stroke-linecap="round" stroke-width="5"/>
	<path d="M142,179c-1.03415,0 9.33732,1 12,1c11.72629,0 24.50239,0.6533 36,-2c7.06719,-1.63089 62.83333,-11.58334 64,-11c0.42164,0.21082 0.94794,0.53148 1,1c1.34658,12.11923 6.95949,22.51388 8,35c0.43768,5.2522 0,10.73482 0,16c0,1.33333 0.59628,5.19257 0,4c-5.19501,-10.39002 -34.85215,-15.37043 -48,-18c-25.91776,-5.18355 -36.77219,15 -65,15" fill="none" stroke="black" stroke-linecap="round" stroke-width="5"/>
	<path d="M160,93c32.33859,32.33859 78.56974,43.42671 110,78c6.11673,6.7284 8.08992,18.14387 13,26c9.29699,14.87518 4,47.85632 4,64c0,3.66327 -1,32.48963 -1,21" fill="none" stroke="black" stroke-linecap="round" stroke-width="5"/>
</svg>
