<?xml version="1.0" ?>
<svg baseProfile="full" height="300" version="1.1" viewBox="[0, 0, 300, 300]" width="300" xmlns="http://www.w3.org/2000/svg" xmlns:ev="http://www.w3.org/2001/xml-events" xmlns:xlink="http://www.w3.org/1999/xlink">
	<defs/>
	<path d="M57,16c0,33.95117 1,67.99759 1,102" fill="none" stroke="black" stroke-linecap="round" stroke-width="5"/>
	<path d="M122,34c0,29.22327 -1.53103,57.8932 1,87c0.32285,3.71277 -1.72678,11 2,11" fill="none" stroke="black" stroke-linecap="round" stroke-width="5"/>
	<path d="M169,33c0,27.09559 -1.46207,63.07586 11,88" fill="none" stroke="black" stroke-linecap="round" stroke-width="5"/>
	<path d="M236,37c0,29.94802 2.44954,57.41285 6,87c0.56166,4.68047 -2.71405,14 2,14" fill="none" stroke="black" stroke-linecap="round" stroke-width="5"/>
	<path d="M256,45c-28.45892,0 -58.80861,4.20357 -87,1c-25.70677,-2.92122 -47.84431,-17.19616 -74,-19c-16.39741,-1.13086 -32.70445,0.64204 -49,2c-3.86242,0.32187 -24.26045,-2.47911 -22,-7c10.09868,-20.19737 33.12977,-12 53,-12c12.86444,0 26.11164,4.51288 39,6c23.10423,2.66587 46.04102,-1.91325 69,0c13.92582,1.16049 27.05731,6.50614 41,8c12.66045,1.35648 41.82801,-1.17199 51,8c1.21333,1.21333 -5.42945,4.68303 -6,5c-11.91626,6.62014 -13.30555,6 -22,6" fill="none" stroke="black" stroke-linecap="round" stroke-width="5"/>
	<path d="M240,129c-46.54058,0 -92.49376,-3.96653 -139,-5c-15.98053,-0.35512 -32.01359,0 -48,0c-8.00856,0 -11.87076,-2.62359 -19,-5c-0.63246,-0.21082 -1.86926,-0.65372 -2,0c-2.53902,12.69509 1.20537,28.14177 5,40c2.78706,8.70956 7.3364,21.2523 15,27c3.13364,2.35023 12.71355,-2.7809 16,-3c14.22949,-0.94863 29.87797,-0.57641 44,0c43.42835,1.77259 92.5892,12.75193 136,5c20.8801,-3.72859 28.66474,-16.5867 17,-37c-3.24204,-5.67357 -27,-35.85959 -27,-30" fill="none" stroke="black" stroke-linecap="round" stroke-width="5"/>
	<path d="M32,146c0,30.43532 -7.38254,61.02696 -5,92c0.336,4.36804 7,22.73929 7,27" fill="none" stroke="black" stroke-linecap="round" stroke-width="5"/>
	<path d="M72,183c3.55128,3.55128 4,63.56804 4,74c0,0.4714 0.5286,1 1,1" fill="none" stroke="black" stroke-linecap="round" stroke-width="5"/>
</svg>
