<?xml version="1.0" ?>
<svg baseProfile="full" height="300" version="1.1" viewBox="[0, 0, 300, 300]" width="300" xmlns="http://www.w3.org/2000/svg" xmlns:ev="http://www.w3.org/2001/xml-events" xmlns:xlink="http://www.w3.org/1999/xlink">
	<defs/>
	<path d="M92,217c0,13.68405 2,28.21422 2,42" fill="none" stroke="black" stroke-linecap="round" stroke-width="5"/>
	<path d="M89,240c0,-15.21959 -36,-30.31033 -36,-43" fill="none" stroke="black" stroke-linecap="round" stroke-width="5"/>
	<path d="M55,175c0,10.21468 5.43457,31.13086 1,40c-1.70063,3.40127 -6,9.0699 -6,12" fill="none" stroke="black" stroke-linecap="round" stroke-width="5"/>
	<path d="M60,168c35.14317,0 69.71086,-12.03949 105,-14c3.84986,-0.21388 33.1626,-3.6748 34,-2c2.66549,5.33097 1,20.89022 1,27c0,48.9658 -38.47575,36.53965 -80,40c-6.06664,0.50555 -18.86824,5.06588 -25,2c-7.29448,-3.64724 -30.09332,-16.1633 -34,-23c-7.22983,-12.6522 -3.57746,-29 -6,-29" fill="none" stroke="black" stroke-linecap="round" stroke-width="5"/>
	<path d="M73,158c0,-4 0,-8 0,-12c0,-12.06137 -1,-24.03643 -1,-36c0,-1.57991 0.70575,-3 -1,-3" fill="none" stroke="black" stroke-linecap="round" stroke-width="5"/>
	<path d="M95,149c0,-20.18856 -5,-39.63361 -5,-60" fill="none" stroke="black" stroke-linecap="round" stroke-width="5"/>
	<path d="M114,140c0,-19.3307 3,-40.005 3,-60" fill="none" stroke="black" stroke-linecap="round" stroke-width="5"/>
	<path d="M149,139c0,-19.20578 -0.6294,-37.70446 5,-56c0.60212,-1.95688 -1.99146,-6 1,-6" fill="none" stroke="black" stroke-linecap="round" stroke-width="5"/>
	<path d="M173,136c5.0111,0 1.41615,-10.00621 1,-15c-1.65773,-19.89275 -8,-37.78427 -8,-58" fill="none" stroke="black" stroke-linecap="round" stroke-width="5"/>
	<path d="M204,70c-38.51072,-19.25536 -77.24073,5.44009 -116,10c-7.31704,0.86083 -18.56641,4.59398 -25,8c-3.84106,2.0335 -8.5892,10.6162 -11,7c-5.81176,-8.71764 -12.4656,-29.60319 -9,-40c2.04155,-6.12465 39.1801,-4.75119 42,-5c6.01356,-0.53061 11.97391,-1.63843 18,-2c29.03633,-1.74218 59.97621,2.22487 89,-1c4.41198,-0.49022 13.38991,-3.97575 18,-2c10.5614,4.52632 25.19051,8.61898 18,23c-1.05443,2.10886 -10.71892,-3 -13,-3" fill="none" stroke="black" stroke-linecap="round" stroke-width="5"/>
	<path d="M194,204c0,11.63676 2,22.44227 2,34" fill="none" stroke="black" stroke-linecap="round" stroke-width="5"/>
	<path d="M205,177c-1.91111,0 -1,1.53333 -1,3c0,13.83357 3,26.0725 3,39" fill="none" stroke="black" stroke-linecap="round" stroke-width="5"/>
	<path d="M205,202c-2.96565,2.96565 -8.02424,15 -11,15" fill="none" stroke="black" stroke-linecap="round" stroke-width="5"/>
</svg>
