<?xml version="1.0" ?>
<svg baseProfile="full" height="300" version="1.1" viewBox="[0, 0, 300, 300]" width="300" xmlns="http://www.w3.org/2000/svg" xmlns:ev="http://www.w3.org/2001/xml-events" xmlns:xlink="http://www.w3.org/1999/xlink">
	<defs/>
	<path d="M47,73c0,20.02336 1.25017,41.50035 10,59" fill="none" stroke="black" stroke-linecap="round" stroke-width="5"/>
	<path d="M86,67c0,9.44382 1.54256,64 9,64" fill="none" stroke="black" stroke-linecap="round" stroke-width="5"/>
	<path d="M135,83c1.20185,0 1.61994,1.85982 2,3c4.13741,12.41224 6.67166,25.35229 10,38c1.61607,6.14108 5,15.14542 5,21" fill="none" stroke="black" stroke-linecap="round" stroke-width="5"/>
	<path d="M197,77c-2.83832,2.83832 4.45234,65.45234 9,70" fill="none" stroke="black" stroke-linecap="round" stroke-width="5"/>
	<path d="M238,70c0,5.26768 0.73098,9.61963 1,15c1.03272,20.65434 -3.02128,45.91486 2,66c0.21062,0.84249 2.0635,6 3,6" fill="none" stroke="black" stroke-linecap="round" stroke-width="5"/>
	<path d="M260,62c-11.3194,7.54626 -30.38053,10.75654 -43,13c-4.20509,0.74757 -46.77848,5.68416 -50,6c-25.89986,2.5392 -52.31253,-0.85416 -78,2c-3.79671,0.42186 -12.03193,4.26747 -16,2c-3.70631,-2.11789 -6.12415,-6.21115 -10,-8c-5.02533,-2.31938 -28.6712,-3.01359 -31,-10c-2.42157,-7.2647 15.42534,-22.77182 20,-28c2.98182,-3.40779 4.21265,-10.21265 7,-13c3.43054,-3.43054 26.4725,4.26773 36,6c34.26223,6.2295 70.13677,9 105,9c15.39322,0 41.17537,4.41232 54,-2c2.45855,-1.22927 5.80101,-3.64924 8,-2c10.23882,7.67912 6.15091,28 -6,28" fill="none" stroke="black" stroke-linecap="round" stroke-width="5"/>
	<path d="M31,134c44.1079,0 85.26066,5.91403 129,11c14.25834,1.65795 55.15655,1.77103 66,9c8.63797,5.75865 0.2847,28.8541 3,37c2.38704,7.16112 29.72253,18.70329 22,29c-7.69075,10.25433 -31.30223,13.13504 -41,15c-30.39378,5.84496 -76.1664,17.72473 -107,7c-7.34309,-2.55412 -12.92226,-8.78285 -20,-12c-10.52589,-4.78449 -25.36078,-4.57385 -35,-11c-1.85394,-1.23596 -1.22936,-2.68807 -2,-5c-1.23378,-3.70135 -2.8109,-7.28405 -4,-11c-1.26453,-3.95165 -35.73851,-87.36926 -9,-74" fill="none" stroke="black" stroke-linecap="round" stroke-width="5"/>
	<path d="M33,183c0,19.64066 -21,35.21469 -21,56c0,1.80336 -1.12695,6 1,6" fill="none" stroke="black" stroke-linecap="round" stroke-width="5"/>
	<path d="M14,219c0.74536,0 1.55279,0.40372 2,1c4.25087,5.66783 29,31.58535 29,26" fill="none" stroke="black" stroke-linecap="round" stroke-width="5"/>
</svg>
