<?xml version="1.0" ?>
<svg baseProfile="full" height="300" version="1.1" viewBox="[0, 0, 300, 300]" width="300" xmlns="http://www.w3.org/2000/svg" xmlns:ev="http://www.w3.org/2001/xml-events" xmlns:xlink="http://www.w3.org/1999/xlink">
	<defs/>
	<path d="M41,30c3.28779,0 1.96549,12.34436 2,13c1.33761,25.41454 -3.14043,56.43829 3,81" fill="none" stroke="black" stroke-linecap="round" stroke-width="5"/>
	<path d="M84,28c2.45165,0 0.89162,5.75358 1,7c2.01852,23.21295 8,47.93162 8,71" fill="none" stroke="black" stroke-linecap="round" stroke-width="5"/>
	<path d="M153,30c0,29.90417 -2.93922,69.14183 9,97" fill="none" stroke="black" stroke-linecap="round" stroke-width="5"/>
	<path d="M214,32c0,22.01023 -2.00808,69.98385 8,90" fill="none" stroke="black" stroke-linecap="round" stroke-width="5"/>
	<path d="M257,37c0,22.98825 -0.54401,46.10393 2,69c1.06969,9.62718 8,21.22112 8,30" fill="none" stroke="black" stroke-linecap="round" stroke-width="5"/>
	<path d="M278,149c-19.16685,-9.58343 -36.34443,-13.42505 -58,-15c-21.57938,-1.56941 -40.42062,-1.09726 -62,0c-12.42803,0.63193 -135.32382,-1.45079 -148,7c-1.66006,1.10671 -0.0737,23.48407 0,24c8.4734,59.31377 65.73613,32.67033 110,31c24.2528,-0.9152 47.93328,6.11241 72,8c18.08876,1.41873 67.81402,9.77897 81,-10c13.84522,-20.76783 -9,-36.32285 -9,-55" fill="none" stroke="black" stroke-linecap="round" stroke-width="5"/>
	<path d="M41,204c-10.09737,20.19474 -36,34.29722 -36,59" fill="none" stroke="black" stroke-linecap="round" stroke-width="5"/>
	<path d="M32,229c2.38751,2.38751 26,24.72947 26,15" fill="none" stroke="black" stroke-linecap="round" stroke-width="5"/>
	<path d="M97,198c-9.44954,18.89907 -51,84.84553 -51,101" fill="none" stroke="black" stroke-linecap="round" stroke-width="5"/>
	<path d="M251,207c-0.66667,0 -1.33333,0 -2,0" fill="none" stroke="black" stroke-linecap="round" stroke-width="5"/>
	<path d="M247,208c0,22.94989 -3.27507,47.07452 0,70c0.50754,3.55275 0.54164,5.91673 3,1" fill="none" stroke="black" stroke-linecap="round" stroke-width="5"/>
	<path d="M219,205c-0.33333,0 -0.7643,-0.2357 -1,0c-4.06244,4.06244 -19.90763,57.67672 -22,65c-0.28958,1.01354 -1,1.94591 -1,3" fill="none" stroke="black" stroke-linecap="round" stroke-width="5"/>
	<path d="M243,251c-13.28719,-2.21453 -21.16961,-19 -34,-19" fill="none" stroke="black" stroke-linecap="round" stroke-width="5"/>
</svg>
