<?xml version="1.0" ?>
<svg baseProfile="full" height="300" version="1.1" viewBox="[0, 0, 300, 300]" width="300" xmlns="http://www.w3.org/2000/svg" xmlns:ev="http://www.w3.org/2001/xml-events" xmlns:xlink="http://www.w3.org/1999/xlink">
	<defs/>
	<path d="M214,53c0,2.23333 9.43265,4.58204 11,5c16.67293,4.44612 26.88976,5.88584 32,-12c0.35207,-1.23225 3.31466,-7.68534 2,-9c-10.23506,-10.23506 -32.35374,-17.45125 -46,-22c-5.77891,-1.9263 -18.67309,8.32691 -21,6c-3.39492,-3.39492 -3.64389,-10.32194 -9,-13c-7.3334,-3.6667 -68.75261,3 -80,3c-7.52127,0 -49.73982,-3.26018 -55,2c-3.87,3.87 0.88582,15.11418 -3,19c-6.76889,6.76889 -37.56811,-20.07974 -46,1c-7.96009,19.90023 26.35138,29.54954 40,25c46.74989,-15.5833 103.07707,-7.61537 156,-1c11.05742,1.38218 20.48305,7 32,7" fill="none" stroke="black" stroke-linecap="round" stroke-width="5"/>
	<path d="M166,54c0,23.2994 11.1073,93.8927 -6,111" fill="none" stroke="black" stroke-linecap="round" stroke-width="5"/>
	<path d="M141,61c0,11.53442 2.56102,91.43898 -4,98" fill="none" stroke="black" stroke-linecap="round" stroke-width="5"/>
	<path d="M131,67c-2.72743,4.09115 -23,79.53891 -23,86" fill="none" stroke="black" stroke-linecap="round" stroke-width="5"/>
	<path d="M89,62c0,34.42175 -2,69.90664 -2,104" fill="none" stroke="black" stroke-linecap="round" stroke-width="5"/>
	<path d="M70,65c-1.79505,0 -1.66919,3.23569 -2,5c-2.78169,14.83568 -3.61303,29.90833 -4,45c-0.17088,6.66448 0,13.33333 0,20c0,0.73143 1,30.68425 1,24" fill="none" stroke="black" stroke-linecap="round" stroke-width="5"/>
	<path d="M48,72c-8.8022,17.60441 -13.32375,99.14676 -2,115c3.95468,5.53655 12.97146,3.64082 18,4" fill="none" stroke="black" stroke-linecap="round" stroke-width="5"/>
	<path d="M191,59c0,27.34891 -6.80063,53.87445 -9,81c-0.65156,8.03589 3,32.06226 3,24" fill="none" stroke="black" stroke-linecap="round" stroke-width="5"/>
	<path d="M46,157c4.06885,0 -6.41749,5.07096 -10,7c-11.2262,6.04488 -18.52292,8.86246 -16,24c4.14389,24.86332 32.45893,4.45893 43,15c14.69526,14.69526 -50.12906,45.77956 -4,65c2.49293,1.03872 14.08099,3.76012 16,4c17.35351,2.16919 40.22893,4.04928 57,1c15.84265,-2.88048 72.7488,-28.7488 83,-39c4.56279,-4.56279 -15.06573,-22.17371 -23,-19c-0.9787,0.39148 -3.4714,1.94281 -3,1c7.19395,-14.3879 24.77737,-5.62895 31,-16c6.61247,-11.02079 4.96449,-22.44261 -3,-32c-24.41895,-29.30274 -31.30543,-13 -57,-13" fill="none" stroke="black" stroke-linecap="round" stroke-width="5"/>
	<path d="M44,207c-6.58037,0 -46.18351,41.55052 -50,53" fill="none" stroke="black" stroke-linecap="round" stroke-width="5"/>
	<path d="M44,238c-0.94281,0 -1.57836,1.15673 -2,2c-7.39196,14.78392 -12.90503,30.54004 -23,44" fill="none" stroke="black" stroke-linecap="round" stroke-width="5"/>
	<path d="M10,221c0,3.86383 -0.49482,8.36971 1,12c2.76292,6.70994 25.08418,38.83163 31,27" fill="none" stroke="black" stroke-linecap="round" stroke-width="5"/>
</svg>
