<?xml version="1.0" ?>
<svg baseProfile="full" height="300" version="1.1" viewBox="[0, 0, 300, 300]" width="300" xmlns="http://www.w3.org/2000/svg" xmlns:ev="http://www.w3.org/2001/xml-events" xmlns:xlink="http://www.w3.org/1999/xlink">
	<defs/>
	<path d="M72,52c0,-4.13163 -6.4682,-12.5318 -1,-18c7.96411,-7.96411 17.02297,-4.14942 27,-7c40.79033,-11.65438 49.6292,-12 93,-12c17.40068,0 47.13638,-9.31811 52,15c0.93505,4.67524 0.07378,15.92622 -3,19c-4.63436,4.63436 -27.24872,-7.52073 -33,-8c-33.79974,-2.81664 -63.00035,2.92313 -96,8c-13.66333,2.10205 -27.09536,3 -41,3c-1.33333,0 -2,-0.56667 -2,1" fill="none" stroke="black" stroke-linecap="round" stroke-width="5"/>
	<path d="M89,49c10.99491,10.99491 15.36697,41.11921 17,55c0.88477,7.52056 3,16.34767 3,24c0,3 -2.12132,11.12132 0,9c2.02759,-2.02759 3.33333,-4.66667 5,-7" fill="none" stroke="black" stroke-linecap="round" stroke-width="5"/>
	<path d="M118,37c11.57861,15.43814 21.5378,40.27247 27,59c2.73479,9.37644 4.93157,18.38411 6,28c0.44326,3.98931 1,16.01386 1,12" fill="none" stroke="black" stroke-linecap="round" stroke-width="5"/>
	<path d="M154,40c2.74837,19.2386 9,37.41512 9,57c0,5.33333 0,10.66667 0,16c0,0.88622 0,9.68267 0,7" fill="none" stroke="black" stroke-linecap="round" stroke-width="5"/>
	<path d="M194,43c-2.53012,5.06023 -1.30168,91.39665 3,100" fill="none" stroke="black" stroke-linecap="round" stroke-width="5"/>
	<path d="M223,42c0,18.1022 2,35.88815 2,54c0,5.83185 0,23.24401 0,22" fill="none" stroke="black" stroke-linecap="round" stroke-width="5"/>
	<path d="M225,114c0,5.43893 -20.23015,5 -37,5c-28.97732,0 -53.38095,10 -82,10c-10.3492,0 -20.09837,6.58548 -30,8c-1.9799,0.28284 -6.54944,-1.92305 -6,0c0.17725,0.62038 19.79397,43.48313 21,44c5.94494,2.54783 14.79402,0.85567 21,1c32.13184,0.74725 56.10979,-1.82196 87,-8c18.33512,-3.66702 40.6318,1.29456 56,-11c2.70324,-2.16259 4.30727,-8.31271 4,-12c-2.31942,-27.83308 -38.48696,-38 -63,-38" fill="none" stroke="black" stroke-linecap="round" stroke-width="5"/>
	<path d="M68,145c8.78278,8.78278 6,35.1619 6,48c0,2.95059 0,23.69656 0,17" fill="none" stroke="black" stroke-linecap="round" stroke-width="5"/>
</svg>
