<?xml version="1.0" ?>
<svg baseProfile="full" height="300" version="1.1" viewBox="[0, 0, 300, 300]" width="300" xmlns="http://www.w3.org/2000/svg" xmlns:ev="http://www.w3.org/2001/xml-events" xmlns:xlink="http://www.w3.org/1999/xlink">
	<defs/>
	<path d="M111,15c-5.20916,-0.52092 -27.66302,-4.67395 -31,2c-4.82538,9.65077 0.50435,28.01889 11,32c6.24117,2.36734 21.99645,8.4735 32,9c15.61245,0.82171 97.65814,3.42732 106,-7c10.86858,-13.58573 -30.20465,-25.1614 -33,-26c-32.12034,-9.6361 -73.77497,-0.38749 -103,-15" fill="none" stroke="black" stroke-linecap="round" stroke-width="5"/>
	<path d="M92,68c2.56337,25.63367 5,51.20385 5,77" fill="none" stroke="black" stroke-linecap="round" stroke-width="5"/>
	<path d="M124,61c0,15.28341 4.23822,30.0075 7,45c1.35031,7.33023 2.97463,14.61731 4,22c0.64362,4.63407 0.68879,9.33181 1,14c0.06652,0.99779 0,4 0,3c0,-1 0,-2 0,-3" fill="none" stroke="black" stroke-linecap="round" stroke-width="5"/>
	<path d="M164,53c5.94785,5.94785 13,62.26821 13,72" fill="none" stroke="black" stroke-linecap="round" stroke-width="5"/>
	<path d="M199,62c0,12.04152 4,23.62972 4,36" fill="none" stroke="black" stroke-linecap="round" stroke-width="5"/>
	<path d="M221,51c0,10.43013 4.76161,12.32626 7,21c5.05273,19.57932 8,43.73183 8,64" fill="none" stroke="black" stroke-linecap="round" stroke-width="5"/>
	<path d="M212,127c-41.63774,0 -82.62819,5.82852 -124,11c-14.59521,1.8244 -28.30608,4 -43,4c-1.33333,0 -4,-1.33333 -4,0c0,4.32336 11.66855,16.82074 14,20c5.0679,6.91078 5.30499,12.6525 12,16c29.0017,14.50085 87.15634,-1.68404 117,-5c19.35523,-2.15058 38.64477,-4.84942 58,-7c6.98867,-0.77652 13.99476,-1.39085 21,-2c1.32832,-0.11551 3.84421,1.3242 4,0c4.1729,-35.46965 -17.48847,-44 -49,-44c-16.60483,0 -34.69759,6 -47,6" fill="none" stroke="black" stroke-linecap="round" stroke-width="5"/>
	<path d="M79,110c-34.92958,11.64319 25.41718,44.59305 36,54c5.04921,4.48818 11.22816,8.96505 15,15c1.66667,2.66667 3.59367,10.81267 5,8c24.4939,-48.98779 -50.60229,-68.60229 -78,-96" fill="none" stroke="black" stroke-linecap="round" stroke-width="5"/>
	<path d="M233,100c-3.98082,0 -15.97938,31.05155 -14,36c3.16366,7.90916 25.73163,6.64017 33,13c6.07132,5.3124 14.78426,10.74112 20,17c1.06697,1.28037 4,4.66667 4,3c0,-10.10085 -6.23253,-11.34879 -12,-20c-4.96371,-7.44557 4.31643,-13.68357 -5,-23c-8.20631,-8.20631 -17.5839,-17.79195 -28,-23c-0.84327,-0.42164 -2,-1.05719 -2,-2" fill="none" stroke="black" stroke-linecap="round" stroke-width="5"/>
</svg>
