<?xml version="1.0" ?>
<svg baseProfile="full" height="300" version="1.1" viewBox="[0, 0, 300, 300]" width="300" xmlns="http://www.w3.org/2000/svg" xmlns:ev="http://www.w3.org/2001/xml-events" xmlns:xlink="http://www.w3.org/1999/xlink">
	<defs/>
	<path d="M95,23c4.69753,9.39507 11.64913,46.64913 16,51c5.5929,5.5929 29.36865,-3.59216 35,-5c21.76557,-5.44139 50.61218,2.38782 67,-14c7.6412,-7.6412 -19.8081,-43.40405 -27,-47c-5.83919,-2.91959 -70.84636,7.09896 -81,10c-5.1932,1.48377 -12.34123,9 -16,9" fill="none" stroke="black" stroke-linecap="round" stroke-width="5"/>
	<path d="M126,69c0,19.54526 6,37.75769 6,57c0,10.33333 0,20.66667 0,31c0,0.74536 -2,1.74536 -2,1c0,-4.95276 17.12637,0.74726 19,-3c8.15404,-16.30807 -5.01492,-34.0746 -8,-49c-2.27992,-11.39958 -1,-27.62616 -1,-38" fill="none" stroke="black" stroke-linecap="round" stroke-width="5"/>
	<path d="M161,66c0,10.23507 0.03499,80.03499 1,81c0.42235,0.42235 17.85767,-3.00367 18,-4c3.2865,-23.00552 -8,-61.32155 -8,-88" fill="none" stroke="black" stroke-linecap="round" stroke-width="5"/>
	<path d="M191,60c0.33333,1.33333 0.80563,2.63944 1,4c0.42426,2.96985 0,6 0,9c0,3.39935 1.22142,6.69102 2,10c1.54699,6.57472 2.40792,61.96292 13,61c27.99899,-2.54536 -3,-76.79129 -3,-91" fill="none" stroke="black" stroke-linecap="round" stroke-width="5"/>
	<path d="M117,70c0,17.17359 4.28043,57.43914 -3,72c-5.6239,11.2478 -20.36211,-2.81053 -22,-11c-2.15713,-10.78563 10.85809,-18.57428 14,-28c5.16031,-15.48093 -2,-36.02377 -2,-50" fill="none" stroke="black" stroke-linecap="round" stroke-width="5"/>
	<path d="M89,131c0,4.95536 3.79815,9.1926 5,14c2.18973,8.75891 0.10556,27.21112 4,35c3.25666,6.51333 7.9259,11.70359 10,20c1.33333,5.33333 -1.33333,11.66667 0,17c0.32338,1.29352 2.67836,0.17622 4,0c16.65674,-2.2209 30.09386,-10 47,-10c14.68738,0 86.78816,-7.04673 89,-17c10.15452,-45.69535 -25.97083,-46.11422 -59,-50c-28.43321,-3.34508 -60.20809,-8.39848 -89,-3c-5.98039,1.12132 -11.30079,7 -17,7" fill="none" stroke="black" stroke-linecap="round" stroke-width="5"/>
	<path d="M86,143c0,21.20686 0.96541,43.79081 2,65c0.3767,7.72243 3,30.73161 3,23" fill="none" stroke="black" stroke-linecap="round" stroke-width="5"/>
	<path d="M133,202c0,4.57553 3,59.32997 3,48" fill="none" stroke="black" stroke-linecap="round" stroke-width="5"/>
</svg>
