<?xml version="1.0" ?>
<svg baseProfile="full" height="300" version="1.1" viewBox="[0, 0, 300, 300]" width="300" xmlns="http://www.w3.org/2000/svg" xmlns:ev="http://www.w3.org/2001/xml-events" xmlns:xlink="http://www.w3.org/1999/xlink">
	<defs/>
	<path d="M82,17c2.23884,4.47767 6.82619,13.91309 11,16c5.58382,2.79191 20.26475,0.37418 27,0c4.04891,-0.22494 93.69141,-4.69141 95,-6c1.9444,-1.9444 -11.07534,-19.03767 -13,-20c-0.59628,-0.29814 -1.33333,0 -2,0c-20.26094,0 -97.28978,-6.92755 -109,-4c-8.43102,2.10776 -17,10.24732 -17,19" fill="none" stroke="black" stroke-linecap="round" stroke-width="5"/>
	<path d="M105,34c4.37772,26.26635 8,48.86322 8,76c0,9.25351 -1,17.84758 -1,27c0,3.66667 0,7.33333 0,11c0,1.33333 0,5.33333 0,4c0,-3.01846 -0.04548,-6.13644 -1,-9" fill="none" stroke="black" stroke-linecap="round" stroke-width="5"/>
	<path d="M135,19c7.56616,32.7867 15,60.74672 15,94c0,10 0,20 0,30c0,3.33333 0,6.66667 0,10c0,1 0,4 0,3c0,-1.66667 0,-3.33333 0,-5" fill="none" stroke="black" stroke-linecap="round" stroke-width="5"/>
	<path d="M172,34c0,8.9312 -0.37466,18.20217 1,27c4.3209,27.65375 6,51.79438 6,80c0,18.44362 0,17.21921 0,0" fill="none" stroke="black" stroke-linecap="round" stroke-width="5"/>
	<path d="M198,26c2.59776,0 1.99863,8.97812 2,9c1.00105,16.01675 0.54299,31.97292 2,48c2.60339,28.63733 16,52.7018 16,81" fill="none" stroke="black" stroke-linecap="round" stroke-width="5"/>
	<path d="M194,159c-15.78327,-7.89163 -117.42781,-13.71124 -109,20c6.71348,26.85391 72.75562,33.83258 94,31c16.84819,-2.24642 27.31302,-11.48476 40,-21c5.96727,-4.47546 11.36455,-2.20976 15,-10c11.47644,-24.59236 -23.66198,-34 -41,-34c-2.11019,0 -22.04592,1.90815 -22,2c2.17051,4.34102 4,9.14659 4,14" fill="none" stroke="black" stroke-linecap="round" stroke-width="5"/>
</svg>
