<?xml version="1.0" ?>
<svg baseProfile="full" height="300" version="1.1" viewBox="[0, 0, 300, 300]" width="300" xmlns="http://www.w3.org/2000/svg" xmlns:ev="http://www.w3.org/2001/xml-events" xmlns:xlink="http://www.w3.org/1999/xlink">
	<defs/>
	<path d="M98,105c0,11.73256 -5.29173,36.70827 4,46c1.62887,1.62887 13.76122,-5.92653 14,-6c11.35771,-3.49468 26.26744,-1 38,-1c8.78185,0 61.18389,5.71275 63,-7c1.72501,-12.07507 -5.69886,-25.24715 -10,-36c-14.92228,-37.30569 -27.31668,-26.82272 -67,-16c-4.29778,1.17212 -42,13.61855 -42,16" fill="none" stroke="black" stroke-linecap="round" stroke-width="5"/>
	<path d="M87,98c8.76375,0 33.61038,-22.44415 45,-27c22.12569,-8.85027 76.97306,-17.04041 93,7c11.80612,17.70918 18.05185,69.57033 20,91c0.96462,10.61085 7.00998,33.98005 2,44c-0.40453,0.80906 -3.60091,3.93273 -5,3c-13.13181,-8.75454 -4.84245,-39.42122 -20,-47c-2.49021,-1.2451 -1.88181,10.05444 -2,11c-0.81518,6.52145 -5.37255,20.37255 -10,25c-13.36492,13.36492 -17,0.94805 -17,-13c0,-5.33333 0,-10.66667 0,-16" fill="none" stroke="black" stroke-linecap="round" stroke-width="5"/>
	<path d="M183,176c-1.33333,0 -2.66667,0 -4,0" fill="none" stroke="black" stroke-linecap="round" stroke-width="5"/>
	<path d="M97,129c0,17.08774 -5.04187,76.97208 10,87c2.42139,1.61426 4.28398,-1.74696 5,-3c5.15169,-9.01546 7,-18.76035 7,-29c0,-1.24952 0.64331,-10.71338 1,-10c4.48412,8.96823 -5.6678,60.55593 26,50c11.87164,-3.95721 9.44504,-47.55496 4,-53" fill="none" stroke="black" stroke-linecap="round" stroke-width="5"/>
</svg>
