<?xml version="1.0" ?>
<svg baseProfile="full" height="300" version="1.1" viewBox="[0, 0, 300, 300]" width="300" xmlns="http://www.w3.org/2000/svg" xmlns:ev="http://www.w3.org/2001/xml-events" xmlns:xlink="http://www.w3.org/1999/xlink">
	<defs/>
	<path d="M82,84c0,13.78514 3.381,83.6905 8,86c8.35031,4.17515 52.33485,1 63,1c14.69031,0 39.22619,3.58036 52,-6c6.61848,-4.96386 -4.71042,-82.55211 -7,-94c-0.72149,-3.60743 -2.3316,-6.26632 -6,-7c-22.49943,-4.49989 -75.7645,15 -103,15" fill="none" stroke="black" stroke-linecap="round" stroke-width="5"/>
	<path d="M71,80c8.0809,-8.0809 19.24518,-15.41506 30,-19c12.41876,-4.13959 79.67119,-11.32881 89,-2" fill="none" stroke="black" stroke-linecap="round" stroke-width="5"/>
	<path d="M70,84c0,54.63749 0.64676,103.11663 16,156c1.42443,4.90637 6.08204,36.04102 14,40c15.93551,7.96776 15.78015,-55.41837 15,-64c-0.52364,-5.76008 -1,-11.14377 -1,-17c0,-1 -0.44721,-3.89443 0,-3c2.50923,5.01847 0.5113,11.62431 1,17c1.98803,21.86832 9.61738,65.30869 31,76c13.26117,6.63059 9,-34.70118 9,-40c0,-3.08624 1.15918,-25 -1,-25" fill="none" stroke="black" stroke-linecap="round" stroke-width="5"/>
</svg>
