<?xml version="1.0" ?>
<svg baseProfile="full" height="300" version="1.1" viewBox="[0, 0, 300, 300]" width="300" xmlns="http://www.w3.org/2000/svg" xmlns:ev="http://www.w3.org/2001/xml-events" xmlns:xlink="http://www.w3.org/1999/xlink">
	<defs/>
	<path d="M90,64c28.13106,0 56.08668,-3 84,-3c1.83178,0 24.09138,-1.81725 25,0c4.45001,8.90002 0,31.06044 0,41c0,4.80201 7.35212,29.64788 4,33c-0.40017,0.40017 -4.4637,0.10726 -5,0c-13.70628,-2.74126 -30.11301,-1.63376 -44,0c-6.44105,0.75777 -67.99828,10.00172 -71,7c-1.17735,-1.17735 0.79476,-8.28165 1,-9c6.55367,-22.93784 6,-54.36317 6,-78" fill="none" stroke="black" stroke-linecap="round" stroke-width="5"/>
	<path d="M85,93c0,-0.18107 0.28612,11.85269 0,15c-1.21511,13.36624 -4,25.5307 -4,39" fill="none" stroke="black" stroke-linecap="round" stroke-width="5"/>
	<path d="M199,100c0,6.12972 1.13504,9.40513 3,15c2.04877,6.14632 2,14.3516 2,21c0,4.62297 1.14952,-0.29903 2,-2c0.33333,-0.66667 0.85382,-1.26912 1,-2c0.19612,-0.98058 -0.31623,-2.05132 0,-3c0.9668,-2.90039 7.6504,-38 -4,-38c-2.33333,0 0,4.66667 0,7c0,16.42791 1,32.7629 1,49" fill="none" stroke="black" stroke-linecap="round" stroke-width="5"/>
	<path d="M109,152c18.31652,0 24.25699,44.62849 41,53c2.44006,1.22003 67.97911,-9.97911 70,-12c4.35271,-4.35271 -2.6123,-11.83689 -4,-16c-1.61028,-4.83084 -3.405,-13.405 -7,-17c-7.43773,-7.43773 -82.74956,6 -95,6" fill="none" stroke="black" stroke-linecap="round" stroke-width="5"/>
	<path d="M141,206c0,10.29817 7.89839,21.49195 10,32c0.29235,1.46176 2,4 2,4c0,0 1.27689,-4.27689 2,-5c8.75237,-8.75237 15.67478,-8.27913 32,-11c10.59744,-1.76624 23.45763,-6 34,-6c0.66667,0 1.5286,-0.4714 2,0c1.13058,1.13058 0.2109,10 -1,10" fill="none" stroke="black" stroke-linecap="round" stroke-width="5"/>
</svg>
