<?xml version="1.0" ?>
<svg baseProfile="full" height="300" version="1.1" viewBox="[0, 0, 300, 300]" width="300" xmlns="http://www.w3.org/2000/svg" xmlns:ev="http://www.w3.org/2001/xml-events" xmlns:xlink="http://www.w3.org/1999/xlink">
	<defs/>
	<path d="M77,79c8.5812,0 78.88055,-11.11945 80,-10c1.72862,1.72862 3.11176,8.33527 4,11c0.21478,0.64435 0.32863,5.83569 0,6c-1.14112,0.57056 -72.04672,7 -77,7c-1.20185,0 -2.46252,-0.92503 -3,-2c-0.69104,-1.38208 -2,-2.32671 -2,-4" fill="none" stroke="black" stroke-linecap="round" stroke-width="5"/>
	<path d="M79,87c0,8.66667 0,17.33333 0,26" fill="none" stroke="black" stroke-linecap="round" stroke-width="5"/>
	<path d="M108,90c0,4.13804 -2.18787,29 2,29" fill="none" stroke="black" stroke-linecap="round" stroke-width="5"/>
	<path d="M139,86c0,3.86206 -2.22229,37 2,37" fill="none" stroke="black" stroke-linecap="round" stroke-width="5"/>
	<path d="M157,90c0,10.65957 3,21.06082 3,31" fill="none" stroke="black" stroke-linecap="round" stroke-width="5"/>
</svg>
