<?xml version="1.0" ?>
<svg baseProfile="full" height="300" version="1.1" viewBox="[0, 0, 300, 300]" width="300" xmlns="http://www.w3.org/2000/svg" xmlns:ev="http://www.w3.org/2001/xml-events" xmlns:xlink="http://www.w3.org/1999/xlink">
	<defs/>
	<path d="M74,103c0,-12.21825 -0.27124,-9.84821 28,19c8.54372,8.71808 13.9819,20.0127 21,30c2.33937,3.3291 2.97204,9.42458 7,10c1.03585,0.14798 39.53948,-33.80923 45,-42c7.43076,-11.14613 -1.98072,-44.98072 -10,-53c-2.4267,-2.4267 -5.96307,3.40162 -9,5c-6.36737,3.35125 -13.81325,8.20331 -21,10c-17.84563,4.46141 -34.79991,4.9333 -53,11" fill="none" stroke="black" stroke-linecap="round" stroke-width="5"/>
	<path d="M69,48c3.16287,9.4886 8.26079,19.60843 11,29c1.22761,4.20894 2,17.38432 2,13" fill="none" stroke="black" stroke-linecap="round" stroke-width="5"/>
	<path d="M93,39c6.84294,-6.84294 16.53542,35.60626 18,40" fill="none" stroke="black" stroke-linecap="round" stroke-width="5"/>
	<path d="M115,32c7.3739,4.91593 21,27.47571 21,38" fill="none" stroke="black" stroke-linecap="round" stroke-width="5"/>
	<path d="M143,10c15.00566,0 19,42.55408 19,56" fill="none" stroke="black" stroke-linecap="round" stroke-width="5"/>
	<path d="M61,38c0,-11.64283 22.42114,-6.78117 34,-8c27.15959,-2.8589 32.53454,-1.76727 55,-13" fill="none" stroke="black" stroke-linecap="round" stroke-width="5"/>
	<path d="M61,91c-0.46658,9.79819 -1.89803,19.69409 -5,29c-0.84327,2.52982 -2.58705,7.35324 0,8c21.51633,5.37908 31.42443,-26.57557 20,-38" fill="none" stroke="black" stroke-linecap="round" stroke-width="5"/>
	<path d="M56,121c0,11.91367 -1.37983,15.62017 6,23c11.14005,11.14005 15.17723,-10.82277 8,-18" fill="none" stroke="black" stroke-linecap="round" stroke-width="5"/>
	<path d="M49,150c0,4.20352 3.35097,8.10583 4,12c1.00453,6.02717 12.63753,12.36247 19,6c1.66709,-1.66709 1.93971,-26 -4,-26" fill="none" stroke="black" stroke-linecap="round" stroke-width="5"/>
	<path d="M128,163c0,-4.6428 -4.08947,8.44736 -5,13c-1.50356,7.51779 0,15.33333 0,23c0,1.16179 -0.65372,8.33962 5,3c25.53352,-24.11499 3.92097,-52.80242 0,-43" fill="none" stroke="black" stroke-linecap="round" stroke-width="5"/>
	<path d="M124,200c0,46.97293 36.89564,30.89564 9,3" fill="none" stroke="black" stroke-linecap="round" stroke-width="5"/>
	<path d="M121,227c11.2605,5.63025 26.3456,54.0029 35,9c1.32081,-6.86819 -0.90075,-12.70224 -3,-19" fill="none" stroke="black" stroke-linecap="round" stroke-width="5"/>
</svg>
