<?xml version="1.0" ?>
<svg baseProfile="full" height="300" version="1.1" viewBox="[0, 0, 300, 300]" width="300" xmlns="http://www.w3.org/2000/svg" xmlns:ev="http://www.w3.org/2001/xml-events" xmlns:xlink="http://www.w3.org/1999/xlink">
	<defs/>
	<path d="M89,73c0,6.98292 5.25534,20.00712 9,25c3.85073,5.1343 5.07433,20.00929 13,21c10.08725,1.26091 23.0722,-8.42888 32,-12c5.60993,-2.24397 17.85924,0.28151 21,-6c3.19861,-6.39721 -3.95496,-20.99403 -5,-25c-8.64259,-33.12994 -20.37107,-27.31447 -49,-13c-4.16954,2.08477 -10.78219,0.58664 -14,3c-4.94555,3.70917 -4.82979,15 -12,15" fill="none" stroke="black" stroke-linecap="round" stroke-width="5"/>
	<path d="M78,27c0,15.45273 12,24.9615 12,40" fill="none" stroke="black" stroke-linecap="round" stroke-width="5"/>
	<path d="M98,28c2.28665,9.14659 3.41189,18.59027 4,28" fill="none" stroke="black" stroke-linecap="round" stroke-width="5"/>
	<path d="M105,24c14.10136,0 20,22.01805 20,33" fill="none" stroke="black" stroke-linecap="round" stroke-width="5"/>
	<path d="M133,17c11.74352,2.3487 13,33.11703 13,45" fill="none" stroke="black" stroke-linecap="round" stroke-width="5"/>
	<path d="M68,22c-8.99739,0 0.55736,7.21789 8,6c15.74195,-2.57595 31.3219,-6.06036 47,-9c3.82704,-0.71757 21.24445,0.77776 22,-3c6.84604,-34.23022 -83.95951,1.47975 -91,5c-5.36656,2.68328 12,0 18,0c19.08598,0 41.32496,2.89168 59,-3c2.37794,-0.79265 0.45755,-5.61871 0,-6c-4.52873,-3.77395 -43.9136,-3 -23,-3c4.33333,0 8.66667,0 13,0" fill="none" stroke="black" stroke-linecap="round" stroke-width="5"/>
	<path d="M82,80c-0.66667,2.66667 -0.97914,5.44786 -2,8c-0.66667,1.66667 -2,3.20495 -2,5c0,18.64534 8.18452,-13.18452 10,-15" fill="none" stroke="black" stroke-linecap="round" stroke-width="5"/>
	<path d="M78,93c0,3.94462 -12.04622,15.97689 -6,19c13.54711,6.77356 14.67132,-21 10,-21" fill="none" stroke="black" stroke-linecap="round" stroke-width="5"/>
	<path d="M74,108c-1.08116,2.16231 -3.75575,39.55221 2,29c4.24359,-7.77992 5,-21.12995 5,-30" fill="none" stroke="black" stroke-linecap="round" stroke-width="5"/>
	<path d="M110,117c-2.40195,1.20097 -7.39598,12.30201 -4,14c14.04574,7.02287 9.38004,-18.38004 9,-18" fill="none" stroke="black" stroke-linecap="round" stroke-width="5"/>
	<path d="M104,134c0,38.00446 11,11.3598 11,-5" fill="none" stroke="black" stroke-linecap="round" stroke-width="5"/>
</svg>
