<?xml version="1.0" ?>
<svg baseProfile="full" height="300" version="1.1" viewBox="[0, 0, 300, 300]" width="300" xmlns="http://www.w3.org/2000/svg" xmlns:ev="http://www.w3.org/2001/xml-events" xmlns:xlink="http://www.w3.org/1999/xlink">
	<defs/>
	<path d="M112,63c0,16.71712 -23.56156,24.31532 -17,44c5.5588,16.6764 24.58127,15.87116 38,20c5.6801,1.74772 21.80655,11.79563 29,7c19.63676,-13.09117 6.98876,-66.33708 -13,-73c-4.1283,-1.3761 -37,-6.53629 -37,-1" fill="none" stroke="black" stroke-linecap="round" stroke-width="5"/>
	<path d="M92,96c0,21.17383 4,43.91348 4,66" fill="none" stroke="black" stroke-linecap="round" stroke-width="5"/>
	<path d="M124,111c2.35702,0 1,4.64298 1,7c0,19.12182 -9,36.5561 -9,56" fill="none" stroke="black" stroke-linecap="round" stroke-width="5"/>
	<path d="M158,131c10.25145,2.56286 13,67.57166 13,39" fill="none" stroke="black" stroke-linecap="round" stroke-width="5"/>
	<path d="M139,48c17.52243,8.76121 10.96562,56.93124 19,73" fill="none" stroke="black" stroke-linecap="round" stroke-width="5"/>
	<path d="M92,43c0,10.6773 4.17065,17.68259 7,29c1.03471,4.13883 4,17.24462 4,16" fill="none" stroke="black" stroke-linecap="round" stroke-width="5"/>
	<path d="M109,41c2.823,7.05751 4.75038,14.50225 6,22" fill="none" stroke="black" stroke-linecap="round" stroke-width="5"/>
	<path d="M115,28c0,7.05514 4.41312,32.82624 8,40" fill="none" stroke="black" stroke-linecap="round" stroke-width="5"/>
	<path d="M124,18c8.28807,0 12,24.86394 12,33" fill="none" stroke="black" stroke-linecap="round" stroke-width="5"/>
</svg>
