<?xml version="1.0" ?>
<svg baseProfile="full" height="300" version="1.1" viewBox="[0, 0, 300, 300]" width="300" xmlns="http://www.w3.org/2000/svg" xmlns:ev="http://www.w3.org/2001/xml-events" xmlns:xlink="http://www.w3.org/1999/xlink">
	<defs/>
	<path d="M108,93c8.11697,8.11697 14.48237,19.06827 20,29c1.38311,2.4896 0.19075,8.46821 3,8c4.49922,-0.74987 48.63174,-28.21814 57,-33c9.10023,-5.20013 -8.80863,-26.61726 -12,-33c-1.07,-2.14001 -4.34471,-14.41882 -6,-13c-7.08578,6.07352 -10.91599,13.61066 -19,19c-12.76754,8.51169 -27.04373,10.52187 -40,17" fill="none" stroke="black" stroke-linecap="round" stroke-width="5"/>
	<path d="M103,44c3.22981,-3.22981 1.44637,-2.06861 5,8c6.44855,18.27089 8,37.57723 8,57" fill="none" stroke="black" stroke-linecap="round" stroke-width="5"/>
	<path d="M116,36c5.6022,-5.6022 7.3598,26.87841 8,32" fill="none" stroke="black" stroke-linecap="round" stroke-width="5"/>
	<path d="M129,22c0,14.20288 4.38233,26.79357 5,41c0.20477,4.7096 2,18.71405 2,14" fill="none" stroke="black" stroke-linecap="round" stroke-width="5"/>
	<path d="M143,23c0,3.56159 6,58.12431 6,43" fill="none" stroke="black" stroke-linecap="round" stroke-width="5"/>
	<path d="M148,20c0,7.292 11,58.04861 11,46" fill="none" stroke="black" stroke-linecap="round" stroke-width="5"/>
	<path d="M160,28c0,7.78328 5,14.8401 5,23" fill="none" stroke="black" stroke-linecap="round" stroke-width="5"/>
	<path d="M163,10c0,7.24835 -2.42046,40.28977 5,44" fill="none" stroke="black" stroke-linecap="round" stroke-width="5"/>
	<path d="M162,16c0,6.92277 6.69168,52.69168 10,56" fill="none" stroke="black" stroke-linecap="round" stroke-width="5"/>
	<path d="M96,51c14.55313,-2.91063 83.79817,-21.30275 64,-51c-1.34839,-2.02259 -7.04006,-1.31998 -8,-1c-10.14259,3.38086 -69.96103,16.71863 -57,34c2.86356,3.81809 1.29233,12.21539 6,13c17.12531,2.85422 25.19462,-7.37021 42,-16c4.11942,-2.11538 8.07308,-4.54567 12,-7c1.16546,-0.72841 3.73046,-2.34768 4,-1c1.84683,9.23417 -19.60497,14 -26,14c-0.33333,0 -1.27735,0.1849 -1,0c8.96551,-5.977 19.40131,-10.20066 29,-15c0.42164,-0.21082 1.46225,-0.90755 1,-1c-10.20284,-2.04057 -24.46114,3.81554 -34,0c-1.9574,-0.78296 4.01874,-1.27954 6,-2c13.22922,-4.81062 18.43219,-11.21609 30,-17c2,-1 -3.84082,2.41868 -6,3c-7.33981,1.9761 -14.66019,4.0239 -22,6c-9.99359,2.69058 -19.95956,5.48989 -30,8c-4,1 -15.82821,1.46872 -12,3c7.75737,3.10295 27.91777,-5.24013 32,-5c0.33602,0.01977 -11.38781,11.79086 -13,13c-1.55492,1.16619 -6.94365,3 -5,3c2.53859,0 4.61425,-2.13245 7,-3c1.68698,-0.61345 6.60555,-2.80277 5,-2c-0.70171,0.35085 -6.67788,3.9423 -8,5c-1.30145,1.04116 -4.17851,5.17851 -3,4c7.04309,-7.04309 9.18018,-9.54505 19,-12c0.64676,-0.16169 2,-0.66667 2,0c0,15.81862 -21.61683,18.61683 -9,6" fill="none" stroke="black" stroke-linecap="round" stroke-width="5"/>
	<path d="M109,98c0,14.13257 -2.41267,17.96289 -8,31c-1.46805,3.42545 -8.33333,8.33333 -5,10c12.38574,6.19287 18.95953,-34.12142 16,-43c-0.21082,-0.63246 0,-1.33333 0,-2" fill="none" stroke="black" stroke-linecap="round" stroke-width="5"/>
	<path d="M130,127c0,13.99307 -3.44442,36.65431 13,33" fill="none" stroke="black" stroke-linecap="round" stroke-width="5"/>
	<path d="M191,94c0,11.62094 4.30681,25.92044 8,37" fill="none" stroke="black" stroke-linecap="round" stroke-width="5"/>
</svg>
