<?xml version="1.0" ?>
<svg baseProfile="full" height="300" version="1.1" viewBox="[0, 0, 300, 300]" width="300" xmlns="http://www.w3.org/2000/svg" xmlns:ev="http://www.w3.org/2001/xml-events" xmlns:xlink="http://www.w3.org/1999/xlink">
	<defs/>
	<path d="M85,119c9.97463,8.31219 18.86114,20.05251 27,30c0.07306,0.0893 6.77954,11.27558 7,11c8.8388,-11.04851 33.26267,-19.6129 39,-33c2.56005,-5.97346 -2.41503,-12.24509 -4,-17c-0.34045,-1.02136 -2.56038,-18.85649 -5,-19c-21.65779,-1.27399 -80,3.65472 -80,33" fill="none" stroke="black" stroke-linecap="round" stroke-width="5"/>
	<path d="M60,49c8.40768,21.01919 18.95805,38.8462 25,61" fill="none" stroke="black" stroke-linecap="round" stroke-width="5"/>
	<path d="M85,50c0,9.30537 10,18.11827 10,27" fill="none" stroke="black" stroke-linecap="round" stroke-width="5"/>
	<path d="M99,11c4.93464,12.83006 19,55.83861 19,68" fill="none" stroke="black" stroke-linecap="round" stroke-width="5"/>
	<path d="M114,33c15.12622,0 19.52211,47.8495 22,59" fill="none" stroke="black" stroke-linecap="round" stroke-width="5"/>
	<path d="M136,33c5.26916,14.75364 9,33.285 9,49" fill="none" stroke="black" stroke-linecap="round" stroke-width="5"/>
	<path d="M132,32c2.83814,14.1907 12.88475,42 -6,42" fill="none" stroke="black" stroke-linecap="round" stroke-width="5"/>
	<path d="M99,58c0,11 0,22 0,33" fill="none" stroke="black" stroke-linecap="round" stroke-width="5"/>
	<path d="M73,40c4.71617,16.50658 11,33.67328 11,51" fill="none" stroke="black" stroke-linecap="round" stroke-width="5"/>
	<path d="M48,46c34.29535,10.55241 71.68487,4.72103 106,12c15.64794,3.31926 30,-1.55189 30,4" fill="none" stroke="black" stroke-linecap="round" stroke-width="5"/>
	<path d="M76,128c0,18.23687 3,35.94538 3,54" fill="none" stroke="black" stroke-linecap="round" stroke-width="5"/>
	<path d="M118,153c9.60014,12.00018 7.70753,33.78669 10,48c1.3215,8.19328 2.2565,7.99133 6,3" fill="none" stroke="black" stroke-linecap="round" stroke-width="5"/>
	<path d="M162,136c16.32826,0 20.8593,52.8593 9,41" fill="none" stroke="black" stroke-linecap="round" stroke-width="5"/>
	<path d="M133,100c1.24452,8.71166 -0.58626,19.70687 8,24" fill="none" stroke="black" stroke-linecap="round" stroke-width="5"/>
</svg>
