<?xml version="1.0" ?>
<svg baseProfile="full" height="300" version="1.1" viewBox="[0, 0, 300, 300]" width="300" xmlns="http://www.w3.org/2000/svg" xmlns:ev="http://www.w3.org/2001/xml-events" xmlns:xlink="http://www.w3.org/1999/xlink">
	<defs/>
	<path d="M109,57c1.32424,9.26965 5,20.55271 5,30" fill="none" stroke="black" stroke-linecap="round" stroke-width="5"/>
	<path d="M120,24c9.81835,13.74568 10.38539,28.31236 13,44" fill="none" stroke="black" stroke-linecap="round" stroke-width="5"/>
	<path d="M140,16c9.47768,14.74306 15,30.18158 15,48" fill="none" stroke="black" stroke-linecap="round" stroke-width="5"/>
	<path d="M170,24c5.99987,-5.99987 14,30.11298 14,34" fill="none" stroke="black" stroke-linecap="round" stroke-width="5"/>
	<path d="M115,87c17.69567,-10.11181 35.25938,-10.26529 55,-14c37.09613,-7.01819 51,-18.23645 51,24c0,7.05091 1.74128,18.03488 0,25c-2.8042,11.21679 -33.3026,10 -43,10c-45.15084,0 -52.17427,-18.21992 -58,-59" fill="none" stroke="black" stroke-linecap="round" stroke-width="5"/>
	<path d="M80,31c12.53341,0 22.20591,5.88311 34,8c20.63184,3.70315 43.09048,6.09089 64,7c6.06129,0.26353 11.02714,2 17,2c1.33333,0 3.67662,1.29352 4,0c0.95626,-3.82505 -20.86723,-45.50782 -23,-46c-11.90934,-2.74831 -46.13822,6 -65,6c-14.25402,0 -24.8046,-6 -39,-6c-2.66667,0 -7.83366,-2.66147 -8,0c-1.73452,27.7523 0.21404,29 27,29c16.66667,0 33.33333,0 50,0c3.84875,0 18.2261,-0.33196 22,1c2.455,0.86647 4.04073,3.28564 6,5c1.80897,1.58285 8.10121,5.16734 6,4c-11.09564,-6.16424 -21.27498,-14.13841 -33,-19c-7.14345,-2.96192 -65.86363,-9.13637 -70,-5c-1.59445,1.59445 77.95624,0.96884 79,1c11.34787,0.33874 22.64708,2 34,2c0.33333,0 1.32998,-0.04714 1,0c-28.60827,4.0869 -59.06053,1 -88,1c-4.79124,0 13.08657,1.08657 10,-2c-6.04359,-6.04359 -18.87791,-2 -27,-2c-2.66667,0 -8.99038,2.47594 -8,0c4.42072,-11.05179 23.32611,-6 33,-6c0.07533,0 4.61144,0.94281 5,-1c3.04235,-15.21174 -52.02906,-11.08735 -17,6c22.78121,11.11278 59.16058,6 82,6c1.33333,0 -2.66884,-0.07607 -4,0c-10.33795,0.59074 -20.65496,1.55022 -31,2c-7.19176,0.31269 -14.71876,0 -22,0c-2.15449,0 -17.41857,0.93607 -16,2c15.20996,11.40747 98.90227,26.63982 81,13c-22.96006,-17.49338 -55.26245,-17.70498 -81,-28c-0.59235,-0.23694 -10,-3 -10,-3c0,0 6.6792,-0.28877 10,0c18.67047,1.62352 37.4585,2.27331 56,5c8.02405,1.18001 18.26512,9.73488 24,4c1.5291,-1.5291 -0.01879,-4.5047 -2,-5c-23.14578,-5.78645 -47.33359,-2 -71,-2c-9.33333,0 -18.66667,0 -28,0c-3.34996,0 -13.32409,-0.58449 -10,-1c36.35209,-4.54401 76.04608,4.69038 113,7" fill="none" stroke="black" stroke-linecap="round" stroke-width="5"/>
	<path d="M115,88c-2.38713,19.09701 -9.96191,38.96191 -23,52" fill="none" stroke="black" stroke-linecap="round" stroke-width="5"/>
	<path d="M128,124c1.96373,13.25516 4,26.60017 4,40c0,2.35702 -0.66667,5.33333 1,7" fill="none" stroke="black" stroke-linecap="round" stroke-width="5"/>
	<path d="M212,127c15.28496,0 9.42366,53.33974 12,25" fill="none" stroke="black" stroke-linecap="round" stroke-width="5"/>
	<path d="M203,69c0,13.98868 1,27.98165 1,42" fill="none" stroke="black" stroke-linecap="round" stroke-width="5"/>
</svg>
