<?xml version="1.0" ?>
<svg baseProfile="full" height="300" version="1.1" viewBox="[0, 0, 300, 300]" width="300" xmlns="http://www.w3.org/2000/svg" xmlns:ev="http://www.w3.org/2001/xml-events" xmlns:xlink="http://www.w3.org/1999/xlink">
	<defs/>
	<path d="M93,87c12.2683,9.54201 19.46349,22.50563 30,34c3.66667,4 7.74424,7.65898 11,12c0.82462,1.09949 -0.22927,4.61464 1,4c5.29634,-2.64817 13.48601,-22.13087 18,-26c13.34457,-11.43821 36.11769,-17.47077 41,-37c1.57659,-6.30635 -15.83701,-9.22468 -20,-12c-2.86534,-1.91023 -11.4751,-9.0821 -14,-8c-18.98654,8.13709 -37.9249,28 -60,28" fill="none" stroke="black" stroke-linecap="round" stroke-width="5"/>
	<path d="M81,42c9.27676,0 11.24603,28.49206 15,36" fill="none" stroke="black" stroke-linecap="round" stroke-width="5"/>
	<path d="M96,46c6.43244,5.14595 8.42559,12.85118 12,20" fill="none" stroke="black" stroke-linecap="round" stroke-width="5"/>
	<path d="M116,41c4.54529,7.95425 14,17.72833 14,27" fill="none" stroke="black" stroke-linecap="round" stroke-width="5"/>
	<path d="M135,39c7.65427,0 6.92184,8.84368 10,15" fill="none" stroke="black" stroke-linecap="round" stroke-width="5"/>
	<path d="M75,38c17.66667,0 35.33333,0 53,0c7.33333,0 14.66667,0 22,0c1.33333,0 4.7396,1.1094 4,0c-6.48924,-9.73386 -14.30419,-17.62586 -21,-27c-1.19726,-1.67617 1.35836,-5.42776 -1,-7c-8.70208,-5.80139 -34.83253,3.28979 -43,4c-5.52658,0.48057 -25.57025,3.281 -26,5c-10.04053,40.16212 51.50656,-5.69082 67,16c0.79884,1.11837 -2.62719,1.06537 -4,1c-12.44026,-0.59239 -24.2308,-5.92605 -36,-10c-2.8524,-0.98737 -12.0147,-0.84927 -9,-1c7.33175,-0.36659 14.68924,-0.33539 22,-1c3.71147,-0.33741 7.29875,-1.56456 11,-2c1.9863,-0.23368 8,0 6,0c-9.33333,0 -18.66667,0 -28,0c-3,0 -12,0 -9,0c11.31862,0 22.45962,-3.8755 33,-8c0.69411,-0.27161 2.74316,-0.94283 2,-1c-6.31468,-0.48574 -12.66667,0 -19,0c-3.8873,0 -13.86353,5.57072 -10,6c7.02782,0.78087 25.41726,-2.52158 21,3c-1.76032,2.2004 -17,9.03354 -17,11c0,6.82755 31.577,4 38,4c0.33333,0 3.33333,0 3,0c-12,0 -24,0 -36,0c-2.66667,0 -5.33333,0 -8,0c-1.66667,0 -6.64823,0.24723 -5,0c19.16485,-2.87473 38.73422,-1.90589 58,-4c5.14442,-0.55918 20.17472,-4 15,-4c-2.66667,0 -5.3653,0.41167 -8,0c-8.0738,-1.26153 -15.9262,-3.73847 -24,-5c-5.28035,-0.82505 -25.43987,2.56013 -30,-2c-10.99341,-10.99341 24.66241,-7 25,-7c0.66667,0 2.66667,0 2,0c-30.66667,0 -61.33333,0 -92,0c-0.80499,0 19.13076,-1.74334 37,0c22.53209,2.19825 41.55299,7.18433 62,14c0.31623,0.10541 -0.66675,-0.00757 -1,0c-19.66441,0.44692 -39.33051,1 -59,1c-2.08362,0 -8.62865,3.52206 -6,4c9.44526,1.71732 21.69238,-3.66152 30,-2c17.92508,3.58502 16.03782,12.09549 40,15c15.25426,1.849 30.73235,1.26504 46,3c3.77628,0.42912 13.68742,0.31258 11,3c-2.53859,2.53859 -6.88291,2.21881 -10,4" fill="none" stroke="black" stroke-linecap="round" stroke-width="5"/>
	<path d="M86,91c0,5.50286 2.50681,60.50681 5,63" fill="none" stroke="black" stroke-linecap="round" stroke-width="5"/>
	<path d="M132,139c3.23801,9.71403 -1.08042,20.14265 2,30c2.40477,7.69526 15.93774,3 24,3" fill="none" stroke="black" stroke-linecap="round" stroke-width="5"/>
	<path d="M205,79c-3.34996,0 -1.13946,6.65295 -1,10c0.15662,3.75888 -1.76075,27.11962 4,30" fill="none" stroke="black" stroke-linecap="round" stroke-width="5"/>
	<path d="M161,54c0,8.66667 0,17.33333 0,26" fill="none" stroke="black" stroke-linecap="round" stroke-width="5"/>
</svg>
