<?xml version="1.0" ?>
<svg baseProfile="full" height="300" version="1.1" viewBox="[0, 0, 300, 300]" width="300" xmlns="http://www.w3.org/2000/svg" xmlns:ev="http://www.w3.org/2001/xml-events" xmlns:xlink="http://www.w3.org/1999/xlink">
	<defs/>
	<path d="M86,100c13.02379,7.81427 22.25973,19.86868 34,29c2.37353,1.84608 8.96535,9.62046 10,11c0.63246,0.84327 0.41529,3.87706 1,3c2.56871,-3.85307 3.98631,-8.48402 7,-12c10.14058,-11.83068 27,-27.02023 27,-42c0,-2.98142 6.94086,-7.50986 4,-8c-12.97072,-2.16179 -21.52583,-5.20224 -34,-10c-3.9005,-1.50019 -5.82653,-8 -10,-8c-1,0 -2.12584,-0.48564 -3,0c-10.16507,5.64726 -37.07067,29 -47,29" fill="none" stroke="black" stroke-linecap="round" stroke-width="5"/>
	<path d="M76,93c11.42702,22.85404 8,57.16648 8,83" fill="none" stroke="black" stroke-linecap="round" stroke-width="5"/>
	<path d="M116,143c4.71659,0 0.27383,35.27383 4,39" fill="none" stroke="black" stroke-linecap="round" stroke-width="5"/>
	<path d="M166,83c16.46929,0 23,54.69962 23,70" fill="none" stroke="black" stroke-linecap="round" stroke-width="5"/>
	<path d="M78,62c1.85372,6.48803 2.97703,13.95406 6,20" fill="none" stroke="black" stroke-linecap="round" stroke-width="5"/>
	<path d="M85,60c13.2465,0 13.45032,11.35095 17,22" fill="none" stroke="black" stroke-linecap="round" stroke-width="5"/>
	<path d="M106,49c0,5.17194 0.23915,16.23915 4,20" fill="none" stroke="black" stroke-linecap="round" stroke-width="5"/>
	<path d="M114,47c6.63418,-6.63418 9,14.65761 9,17" fill="none" stroke="black" stroke-linecap="round" stroke-width="5"/>
	<path d="M66,67c21.19569,0 45.26276,-9.26276 60,-24c0.71264,-0.71264 4.95889,-2.08223 4,-4c-2.23934,-4.47868 -13.79648,-26 -19,-26c-5.52162,0 -12.37265,9.9151 -17,13c-10.55878,7.03918 -39.61725,-4.41554 -31,20c8.67661,24.58372 26.71617,8.53737 46,4c8.28414,-1.94921 12.86907,-5.14763 20,-8c0.85103,-0.34041 4.61126,-3.38874 3,-5c-1.30503,-1.30503 -31.26902,0.95431 -32,1c-2.42198,0.15137 -9.4267,2 -7,2c9.26675,0 13.20141,-7 23,-7c1.37437,0 4.89443,-2.0435 4,-1c-10.05139,11.72662 -23.79019,12.65849 -35,22c-1.28037,1.06697 -1.41886,4.52705 -3,4c-6.21694,-2.07231 21.02988,-21.02988 22,-22c0.84984,-0.84984 2.66667,-2 2,-3c-0.79968,-1.19951 -32.03399,4 -18,4c6.09372,0 39.27162,-10.15326 42,-11c2.13559,-0.66277 7.86052,-1.75965 6,-3c-11.0454,-7.3636 -35.55173,10.27587 -45,15c-6.13244,3.06622 -8.57656,3.85885 -15,6c-2,0.66667 -7.88562,2.94281 -6,2c12.80434,-6.40217 26.86914,-6.74766 40,-12c2.9361,-1.17444 6.02811,-1.91931 9,-3c1.82663,-0.66423 6.94365,-3 5,-3c-16.6716,0 -41.01387,-10.98613 -55,3c-1.79505,1.79505 4.47586,2.72956 7,3c7.2916,0.78124 14.66667,0 22,0c9.02466,0 21.99402,5.50897 27,-2c0.91949,-1.37923 1.07342,-3.97553 4,-3c9.40906,3.13635 -8.75929,14.30046 -17,17c-15.53464,5.08893 -31.35063,9.27566 -47,14c-3.02734,0.91391 -9.76696,6.06786 -9,3c2.25927,-9.03706 23.59165,-18.31833 32,-20c3.2314,-0.64628 8.14533,-1.41407 11,-3c2.10121,-1.16734 8.38514,-4.29814 6,-4c-6.69051,0.83631 -12.57115,0.70398 -19,3c-2.53086,0.90388 -4.45049,3.15016 -7,4c-1.26491,0.42164 -4.94281,0.94281 -4,0c11.49868,-11.49868 30.7078,-18.7078 41,-29c3.4801,-3.4801 -8.56306,4.87027 -13,7c-6.24687,2.9985 -17.78173,8.55838 -24,13c-3.26622,2.33301 -12.87243,9.05612 -9,8c4.0678,-1.1094 8,-2.66667 12,-4c4,-1.33333 7.98211,-2.72158 12,-4c32.48672,-10.33668 -23.3322,5.08305 -31,7c-0.81603,0.20401 -5,0.99703 -5,2c0,5.58768 10.62101,-3.48716 16,-5c11.64338,-3.2747 26.9273,-5.88952 38,-11c6.87007,-3.1708 5.65867,-6 12,-6c0.20612,0 8.01758,-1.52636 7,0c-15.92562,23.88843 -51.57577,21.57577 -70,40" fill="none" stroke="black" stroke-linecap="round" stroke-width="5"/>
	<path d="M133,72c0,32.66667 0,65.33333 0,98" fill="none" stroke="black" stroke-linecap="round" stroke-width="5"/>
</svg>
