<?xml version="1.0" ?>
<svg baseProfile="full" height="300" version="1.1" viewBox="[0, 0, 300, 300]" width="300" xmlns="http://www.w3.org/2000/svg" xmlns:ev="http://www.w3.org/2001/xml-events" xmlns:xlink="http://www.w3.org/1999/xlink">
	<defs/>
	<path d="M93,97c0,-1 2.12584,-0.48564 3,0c15.0093,8.3385 26.61461,19.48291 40,30c1.31053,1.0297 2.47698,3.6769 4,3c2.6203,-1.16458 2.97241,-4.97241 5,-7c15.80915,-15.80915 42.98114,-23.26034 34,-52c-11.57679,-37.04573 -16.32968,-7.96232 -40,5c-19.81246,10.84968 -45.37523,7.83344 -66,17" fill="none" stroke="black" stroke-linecap="round" stroke-width="5"/>
	<path d="M86,49c12.9431,5.75249 23,35.80981 23,50" fill="none" stroke="black" stroke-linecap="round" stroke-width="5"/>
	<path d="M110,42c2.1278,-2.1278 9.45829,33.20804 10,37" fill="none" stroke="black" stroke-linecap="round" stroke-width="5"/>
	<path d="M123,29c4.48428,-4.48428 12.46171,36.23086 20,40" fill="none" stroke="black" stroke-linecap="round" stroke-width="5"/>
	<path d="M145,24c7.85863,5.6133 13.55326,31.7663 16,44" fill="none" stroke="black" stroke-linecap="round" stroke-width="5"/>
	<path d="M81,38c14.88993,-5.95597 48.20249,-39.79751 63,-25" fill="none" stroke="black" stroke-linecap="round" stroke-width="5"/>
	<path d="M92,98c0,9.58126 3.75255,56.29244 26,30c7.73584,-9.14236 1.62306,-40 -12,-40" fill="none" stroke="black" stroke-linecap="round" stroke-width="5"/>
	<path d="M89,126c0,44.45325 15,32.29297 15,0" fill="none" stroke="black" stroke-linecap="round" stroke-width="5"/>
	<path d="M133,119c10.06033,0 8.038,27.4525 10,25c9.54338,-11.92923 8,-21.4583 8,-36c0,-2.39018 0.92335,-5 -2,-5" fill="none" stroke="black" stroke-linecap="round" stroke-width="5"/>
	<path d="M139,137c0,6.98287 -0.47686,14.10799 1,21c7.6098,35.51241 30.79578,-11.20422 13,-29" fill="none" stroke="black" stroke-linecap="round" stroke-width="5"/>
	<path d="M155,59c0,1.58378 -5.23753,25.17679 -4,25c14.41517,-2.05931 10,-15.96605 10,-27" fill="none" stroke="black" stroke-linecap="round" stroke-width="5"/>
	<path d="M160,79c0,21.21295 15.60481,11.80641 3,-5" fill="none" stroke="black" stroke-linecap="round" stroke-width="5"/>
	<path d="M170,98c5.23859,5.23859 2.77402,14.54805 6,21c3.26298,6.52597 5.41134,-18.58866 -3,-27" fill="none" stroke="black" stroke-linecap="round" stroke-width="5"/>
</svg>
