<?xml version="1.0" ?>
<svg baseProfile="full" height="300" version="1.1" viewBox="[0, 0, 300, 300]" width="300" xmlns="http://www.w3.org/2000/svg" xmlns:ev="http://www.w3.org/2001/xml-events" xmlns:xlink="http://www.w3.org/1999/xlink">
	<defs/>
	<path d="M29,62c15.43898,15.43898 -24.83135,56 30,56" fill="none" stroke="black" stroke-linecap="round" stroke-width="5"/>
	<path d="M36,67c26.83254,0 55.46468,-2.79076 82,1c20.88562,2.98366 41.98465,10 63,10c4.27834,0 41.37313,2.62687 42,2c0.18934,-0.18934 1.10196,-2.69411 2,0c1.77603,5.3281 0,14.42133 0,20c0,4.41686 3.09058,25.90942 0,29c-3.44662,3.44662 -52.39809,-14 -62,-14c-1.1954,0 2.97104,6.88416 3,7c1.4657,5.86281 2.12657,12.88598 3,19c3.7916,26.54117 -3.54228,54.37316 5,80c6.31866,18.95598 -4.99439,-10.32024 -7,-15" fill="none" stroke="black" stroke-linecap="round" stroke-width="5"/>
	<path d="M62,126c0,27.17207 -0.14562,51.34471 6,79c4.09145,18.41151 0,1.02806 0,-8" fill="none" stroke="black" stroke-linecap="round" stroke-width="5"/>
	<path d="M86,131c5.81688,17.45063 5,34.79447 5,54c0,6.31837 1,11.76947 1,18c0,3.46809 1,4.52872 1,7c0,1 -0.70711,3.70711 0,3c1.78026,-1.78026 2.19365,-7.58094 3,-10" fill="none" stroke="black" stroke-linecap="round" stroke-width="5"/>
	<path d="M108,132c7.81437,15.62873 11.99077,83.99077 13,85c1.07524,1.07524 1.51224,-2 3,-2" fill="none" stroke="black" stroke-linecap="round" stroke-width="5"/>
	<path d="M133,130c12.05011,18.07517 12.96998,53.78987 16,75c1.94445,13.61114 -1,6.52257 -1,-3" fill="none" stroke="black" stroke-linecap="round" stroke-width="5"/>
	<path d="M152,143c3.62281,18.11403 13,37.50158 13,56" fill="none" stroke="black" stroke-linecap="round" stroke-width="5"/>
	<path d="M70,204c0,7.05178 8.03528,16.79603 10,24c4.73927,17.37731 13.36227,69.06038 37,73c38.24844,6.37474 80.16822,8.83178 108,-19c1.09472,-1.09472 -3.29025,-2.29025 -4,-3c-7.76229,-7.76229 -11.32652,-20.89793 -15,-31c-2.09629,-5.7648 -4.80111,-26.80111 -9,-31c-1.64992,-1.64992 -4.69841,-0.3836 -7,0c-19.2224,3.20373 -39.24356,9 -59,9" fill="none" stroke="black" stroke-linecap="round" stroke-width="5"/>
	<path d="M67,217c-14.71597,0 -9.87912,34.39559 -12,45c-0.25127,1.25635 -3.30051,15.69949 -3,16c3.32909,3.32909 13.14332,-1.21498 15,-4c3.34852,-5.02277 4.40185,-6.60739 6,-13c1.44348,-5.77392 2,-10.83001 2,-17" fill="none" stroke="black" stroke-linecap="round" stroke-width="5"/>
	<path d="M98,289c0,10.77503 0.09276,22.53622 -2,33c-0.16927,0.84633 -2.12866,4.87134 -1,6c7.43469,7.43469 24,-8.02446 24,-15" fill="none" stroke="black" stroke-linecap="round" stroke-width="5"/>
</svg>
