<?xml version="1.0" ?>
<svg baseProfile="full" height="300" version="1.1" viewBox="[0, 0, 300, 300]" width="300" xmlns="http://www.w3.org/2000/svg" xmlns:ev="http://www.w3.org/2001/xml-events" xmlns:xlink="http://www.w3.org/1999/xlink">
	<defs/>
	<path d="M101,264c-16.41812,0 -15.99778,-62.99333 -20,-75c-1.25791,-3.77373 0.39057,-20.60943 -2,-23c-5.87938,-5.87938 -26.09605,-111.8079 -20,-124c12.18998,-24.37997 18.39335,-41.89889 49,-47c4.9719,-0.82865 17.9504,-5.5248 23,-3c20.01238,10.00619 31.59056,41.18113 41,60c11.24368,22.48737 22.99547,43.98641 31,68c6.63171,19.89514 20.43053,37.29158 27,57c4.19024,12.57071 7.95592,51.04408 1,58" fill="none" stroke="black" stroke-linecap="round" stroke-width="5"/>
	<path d="M66,102c9.54546,0 62.36771,-18.18385 72,-23c5.04856,-2.52428 20.71246,-6 25,-6c2.01117,0 12.35742,-2 8,-2" fill="none" stroke="black" stroke-linecap="round" stroke-width="5"/>
</svg>
