<?xml version="1.0" ?>
<svg baseProfile="full" height="300" version="1.1" viewBox="[0, 0, 300, 300]" width="300" xmlns="http://www.w3.org/2000/svg" xmlns:ev="http://www.w3.org/2001/xml-events" xmlns:xlink="http://www.w3.org/1999/xlink">
	<defs/>
	<path d="M110,29c0,28.11678 14.22473,57.6742 23,84c6.11908,18.35723 1.24446,40.71123 4,60c5.22406,36.56839 20,75.24585 20,112" fill="none" stroke="black" stroke-linecap="round" stroke-width="5"/>
	<path d="M109,39c0,-12.72382 73.87358,-13.30114 88,-2c29.32401,23.45921 22.76373,63.67306 32,96c5.87121,20.54922 15.23929,41.71787 22,62c4.68554,14.05662 -1.59777,31.60893 2,46c2.43408,9.73633 6.56247,19.24988 9,29c2.20072,8.8029 2.88084,17.52334 5,26c0.67458,2.69833 4,10.06049 4,10" fill="none" stroke="black" stroke-linecap="round" stroke-width="5"/>
	<path d="M145,193c29.46747,29.46747 77.52576,24.88144 114,34c6.56962,1.6424 28.92518,9.07482 34,4c1.11853,-1.11853 2.79512,-10.59024 4,-13c7.04871,-14.09742 -28.77867,-26.98223 -36,-33c-24.83259,-20.69382 -84.05362,-82.67828 -95,-17c-1.03212,6.19271 -7,14.6511 -7,19" fill="none" stroke="black" stroke-linecap="round" stroke-width="5"/>
</svg>
