<?xml version="1.0" ?>
<svg baseProfile="full" height="300" version="1.1" viewBox="[0, 0, 300, 300]" width="300" xmlns="http://www.w3.org/2000/svg" xmlns:ev="http://www.w3.org/2001/xml-events" xmlns:xlink="http://www.w3.org/1999/xlink">
	<defs/>
	<path d="M67,140c0,3.45496 -2.17524,18.82476 0,21c11.4982,11.4982 80.30356,-10.86904 94,-20c4.83237,-3.22158 34.98862,-7.03413 34,-10c-1.40084,-4.20253 -6.40978,-22.40978 -9,-25c-0.52705,-0.52705 -0.33333,-1.66667 -1,-2c-8.55831,-4.27915 -82.27861,8.6393 -95,15c-7.05023,3.52512 -15.94261,18 -21,18" fill="none" stroke="black" stroke-linecap="round" stroke-width="5"/>
	<path d="M49,184c0,-23.40506 10.15905,-57.52285 2,-82c-4.61843,-13.85528 -13,-37.66374 -13,-52c0,-1.69967 -2.20185,-3.79815 -1,-5c0.40471,-0.40471 36.88117,0 39,0c31.68554,0 59.84606,-10.46151 90,-18c18.4346,-4.60865 32.15277,77.45831 38,95c3.07391,9.22174 6.07529,17.15059 10,25c0.87058,1.74115 9.16069,17 6,17" fill="none" stroke="black" stroke-linecap="round" stroke-width="5"/>
	<path d="M58,184c28.07971,0 64.1489,-3.78068 93,-6c27.4304,-2.11003 88.46663,-4.53337 107,14c2.83553,2.83553 4.33358,16.00146 5,20c0.89741,5.38444 6.59184,26.40816 3,30c-3.39007,3.39007 -41.03269,-4 -49,-4c-11.52213,0 -22.53441,-2.85344 -34,-4c-44.47015,-4.44701 -73.08394,-0.08394 -106,-33c-5.17087,-5.17087 -22,-14.62843 -22,-22" fill="none" stroke="black" stroke-linecap="round" stroke-width="5"/>
</svg>
