<?xml version="1.0" ?>
<svg baseProfile="full" height="300" version="1.1" viewBox="[0, 0, 300, 300]" width="300" xmlns="http://www.w3.org/2000/svg" xmlns:ev="http://www.w3.org/2001/xml-events" xmlns:xlink="http://www.w3.org/1999/xlink">
	<defs/>
	<path d="M88,164c-17.32622,0 -62.4958,44.0084 -53,63c6.77799,13.55597 57.5432,37.45432 73,39c28.75928,2.87593 65.3517,-5.3517 85,-25c7.00753,-7.00753 12.14507,-19.72537 14,-29c6.73282,-33.66409 -17.24387,-37 -45,-37" fill="none" stroke="black" stroke-linecap="round" stroke-width="5"/>
	<path d="M80,160c-2.204,0 0.06911,-1.96545 -2,-3c-0.93078,-0.46539 -1.74914,-4.24395 -2,-6c-2.97998,-20.85988 0,-44.75699 0,-66c0,-1.59184 0.85788,-7 -1,-7" fill="none" stroke="black" stroke-linecap="round" stroke-width="5"/>
	<path d="M87,81c0,14.91583 10,31.86623 10,48c0,7.02645 2,25.62214 2,25" fill="none" stroke="black" stroke-linecap="round" stroke-width="5"/>
</svg>
