<?xml version="1.0" ?>
<svg baseProfile="full" height="300" version="1.1" viewBox="[0, 0, 300, 300]" width="300" xmlns="http://www.w3.org/2000/svg" xmlns:ev="http://www.w3.org/2001/xml-events" xmlns:xlink="http://www.w3.org/1999/xlink">
	<defs/>
	<path d="M79,123c0,6.11891 -11.30964,9.30964 -14,12c-11.61172,11.61172 -13.6935,45.57274 -9,62c4.54417,15.9046 10.80796,25.90398 25,33c3.80225,1.90112 10.4728,0.4728 14,4c1.37437,1.37437 6.94365,3 5,3c-5.11285,0 -9.15625,-23.78127 -10,-28c-3.04989,-15.24944 -11.93986,-29.24057 -8,-45c2.9591,-11.8364 6.46353,-21.39059 10,-32c0.16984,-0.50953 1.45343,-2.54657 1,-3c-2.40276,-2.40276 -9.8101,-3 -13,-3" fill="none" stroke="black" stroke-linecap="round" stroke-width="5"/>
	<path d="M176,122c11.82822,0 45.23842,11.23842 52,18c2.26985,2.26985 3.47455,7.50848 8,6c6.37409,-2.1247 3.45993,-9.08014 2,-12c-10.19399,-20.38799 -32.21605,-16.60803 -51,-26c-10.61142,-5.30571 -14.29654,13 -22,13" fill="none" stroke="black" stroke-linecap="round" stroke-width="5"/>
	<path d="M109,182c0,7.19849 -3.01788,28.98212 2,34c2.53859,2.53859 6.51708,-3.12927 10,-4c14.38308,-3.59577 30.69189,-7.34594 44,-14c7.17807,-3.58904 7.5529,-9.88822 16,-12c2.48164,-0.62041 12.50483,-0.50483 14,-2c0.96813,-0.96813 -7.31669,-9.86114 -8,-11c-3.43707,-5.72845 -0.06246,-18.06246 -4,-22c-10.5157,-10.5157 -73.43282,21 -81,21" fill="none" stroke="black" stroke-linecap="round" stroke-width="5"/>
</svg>
