<?xml version="1.0" ?>
<svg baseProfile="full" height="300" version="1.1" viewBox="[0, 0, 300, 300]" width="300" xmlns="http://www.w3.org/2000/svg" xmlns:ev="http://www.w3.org/2001/xml-events" xmlns:xlink="http://www.w3.org/1999/xlink">
	<defs/>
	<path d="M39,115c15.33333,0 30.66667,0 46,0c12.33333,0 24.66667,0 37,0c24.97519,0 55.35696,4.92861 80,0c19.57535,-3.91507 71.51201,-20.46397 62,-49c-6.95854,-20.87561 -59.0382,-0.0382 -68,-9c-6.79366,-6.79366 -5.06245,-23.06245 -13,-31c-8.85113,-8.85113 -91.31735,-1.3653 -95,6c-2.80587,5.61173 -7.76327,12.57965 -9,20c-0.43872,2.63233 1.81256,13.18744 0,15c-9.54126,9.54126 -55.19545,-8.21818 -63,23c-6.12518,24.50073 27.62475,31 45,31" fill="none" stroke="black" stroke-linecap="round" stroke-width="5"/>
</svg>
