<?xml version="1.0" ?>
<svg baseProfile="full" height="300" version="1.1" viewBox="[0, 0, 300, 300]" width="300" xmlns="http://www.w3.org/2000/svg" xmlns:ev="http://www.w3.org/2001/xml-events" xmlns:xlink="http://www.w3.org/1999/xlink">
	<defs/>
	<path d="M47,55c0,-2.6659 30.05847,-11.22339 32,-12c47.57545,-19.03018 77.76115,-15.13707 129,-12c15.77238,0.96566 31.33479,-1 47,-1c2.76718,0 29.25646,4.24096 28,6c-6.25585,8.75819 -16.59644,9.39763 -25,15c-12.88898,8.59265 -22.78179,20.83634 -35,30c-28.87328,21.65496 -73.67955,25 -108,25c-32.12203,0 -51.95066,-5.43497 -79,-20c-3.34905,-1.80333 -20.3983,-7.40397 -18,-13c8.29161,-19.34708 28.61705,-23.46279 44,-35" fill="none" stroke="black" stroke-linecap="round" stroke-width="5"/>
	<path d="M125,48c9.39207,0 54.58193,-18.16387 41,9c-3.1584,6.31679 -52.75162,8.49676 -55,4c-6.8032,-13.60641 16,-13.41473 16,-22" fill="none" stroke="black" stroke-linecap="round" stroke-width="5"/>
</svg>
