<?xml version="1.0" ?>
<svg baseProfile="full" height="300" version="1.1" viewBox="[0, 0, 300, 300]" width="300" xmlns="http://www.w3.org/2000/svg" xmlns:ev="http://www.w3.org/2001/xml-events" xmlns:xlink="http://www.w3.org/1999/xlink">
	<defs/>
	<path d="M42,72c0,-17.05755 40.0191,-30.20764 52,-35c37.43091,-14.97236 80.97672,-10 121,-10c7.39341,0 30.82929,-7.17071 36,-2c6.9872,6.9872 4.5791,29.31641 7,39c2.16391,8.65566 13.0672,32.86561 8,43c-0.76534,1.53067 -28.29216,-4.92922 -29,-5c-17.7879,-1.77879 -36.01748,-1 -54,-1c-24.1926,0 -51.78791,2.19698 -75,8c-8.05649,2.01412 -17.18859,5.87544 -25,9c-4.60093,1.84037 -5.56779,13.2161 -10,11c-0.92775,-0.46387 -37,-60.0787 -37,-63" fill="none" stroke="black" stroke-linecap="round" stroke-width="5"/>
	<path d="M101,198c19.99198,0 38.05951,-8.26488 57,-13c21.31284,-5.32821 45.03875,-4.62742 67,-6c9.07481,-0.56718 20.81957,-4.29511 30,-2c10.20557,2.55139 14.70995,43.55987 19,55c0.08855,0.23614 2.51675,5.48325 2,6c-7.57585,7.57585 -57.03591,4 -69,4c-20.05622,0 -41.0536,-1.81331 -61,0c-43.03506,3.91228 -44,-5.11346 -44,-46" fill="none" stroke="black" stroke-linecap="round" stroke-width="5"/>
	<path d="M101,205c0,15.9579 -8,29.82361 -8,44c0,0.64044 -0.39034,5.80483 0,6c6.21104,3.10552 9,3.35443 9,-4c0,-8.33333 0,-16.66667 0,-25" fill="none" stroke="black" stroke-linecap="round" stroke-width="5"/>
	<path d="M117,237c0,6.33937 -6.53172,45.68782 11,34c3.13481,-2.08987 1,-18.52987 1,-23" fill="none" stroke="black" stroke-linecap="round" stroke-width="5"/>
	<path d="M273,235c0,27.94589 -18,48.05286 -18,10" fill="none" stroke="black" stroke-linecap="round" stroke-width="5"/>
	<path d="M90,116c1.44878,1.44878 3,3.89446 3,6" fill="none" stroke="black" stroke-linecap="round" stroke-width="5"/>
</svg>
