<?xml version="1.0" ?>
<svg baseProfile="full" height="300" version="1.1" viewBox="[0, 0, 300, 300]" width="300" xmlns="http://www.w3.org/2000/svg" xmlns:ev="http://www.w3.org/2001/xml-events" xmlns:xlink="http://www.w3.org/1999/xlink">
	<defs/>
	<path d="M55,106c16.33333,0 32.66667,0 49,0c13,0 26,0 39,0c23.50863,0 126.586,-5.06999 118,-48c-6.63688,-33.1844 -50.85931,-3.92966 -63,-10c-5.13122,-2.56561 -11.6246,-23.3123 -23,-29c-24.80075,-12.40037 -48.01137,17.33712 -68,24c-8.23583,2.74528 -22.68437,-2.31563 -29,4c-4.89138,4.89138 -0.02158,26.51079 -3,28c-8.54748,4.27374 -48.58166,-3.04585 -57,18c-9.99527,24.98817 42.91354,23.08646 53,13" fill="none" stroke="black" stroke-linecap="round" stroke-width="5"/>
</svg>
