<?xml version="1.0" ?>
<svg baseProfile="full" height="300" version="1.1" viewBox="[0, 0, 300, 300]" width="300" xmlns="http://www.w3.org/2000/svg" xmlns:ev="http://www.w3.org/2001/xml-events" xmlns:xlink="http://www.w3.org/1999/xlink">
	<defs/>
	<path d="M51,69c27.99345,-27.99345 93.26181,-34.85515 131,-38c11.03916,-0.91993 24.38699,-6.90325 36,-4c2.04524,0.51131 3.9205,1.65342 6,2c15.71475,2.61912 38,5.11172 38,24c0,1.04587 1.08181,15.45909 0,16c-12.6123,6.30615 -54.26999,0.07471 -70,1c-19.47926,1.14584 -39.36649,5.78883 -58,12c-17.00873,5.66958 -35.48867,6.49622 -52,12c-6.73487,2.24496 -13.05457,5.03638 -19,9c-1.86052,1.24035 -5.29289,5.12132 -6,3c-3.24035,-9.72105 -9,-27.01499 -9,-37" fill="none" stroke="black" stroke-linecap="round" stroke-width="5"/>
	<path d="M95,200c0,-1.05409 1.97738,-0.74435 3,-1c18.33871,-4.58468 35.01361,-12.15204 54,-15c42.41926,-6.36289 97.76695,-30.02437 120,20c2.22644,5.00949 14.68815,31.31185 10,36c-7.08754,7.08754 -35.56146,3 -43,3c-31.74001,0 -65.43958,-3.32215 -97,0c-3.00294,0.3161 -31.43879,6.34181 -35,1c-8.49836,-12.74754 -8.97931,-31.97931 -20,-43" fill="none" stroke="black" stroke-linecap="round" stroke-width="5"/>
	<path d="M80,92c0,14.26278 11.36446,33.50454 14,48c2.10058,11.5532 2.62798,23.33782 4,35c0.51883,4.41009 -1.40779,37.13593 8,34" fill="none" stroke="black" stroke-linecap="round" stroke-width="5"/>
	<path d="M138,85c0,31.20813 -1,62.68839 -1,94" fill="none" stroke="black" stroke-linecap="round" stroke-width="5"/>
	<path d="M178,75c7.37473,22.12418 21,72.92075 21,96" fill="none" stroke="black" stroke-linecap="round" stroke-width="5"/>
	<path d="M225,80c4.12062,28.84433 8.36746,57.93967 12,87" fill="none" stroke="black" stroke-linecap="round" stroke-width="5"/>
	<path d="M92,202c3.31331,0 -1.54191,9.93112 -2,11c-1.46773,3.4247 -2.85369,78.14631 -2,79c0.94281,0.94281 2.66667,0 4,0c0.41498,0 7.43588,0.56412 8,0c3.50544,-3.50544 -1.01576,-60.04727 -4,-69" fill="none" stroke="black" stroke-linecap="round" stroke-width="5"/>
	<path d="M121,243c0,18.1977 -6.62903,46.1129 -1,63c7.45223,22.35669 23.34655,3.26727 26,-10c3.70186,-18.5093 -9,-35.08039 -9,-54" fill="none" stroke="black" stroke-linecap="round" stroke-width="5"/>
	<path d="M282,238c0,23.42618 5.38757,54.8373 -2,77c-2.44942,7.34826 -27.02156,-5.50809 -31,-7c-0.98698,-0.37012 -2.5286,-0.05719 -3,-1c-0.29814,-0.59628 -0.09428,-1.34003 0,-2c0.94566,-6.61962 11.74285,-64.48569 14,-69" fill="none" stroke="black" stroke-linecap="round" stroke-width="5"/>
	<path d="M221,246c-4.3663,8.7326 11.75444,58.24556 4,66c-2.67074,2.67074 -23.19126,-12.28689 -25,-15c-4.57652,-6.86477 6,-48.40159 6,-59" fill="none" stroke="black" stroke-linecap="round" stroke-width="5"/>
	<path d="M104,96c0,-4.95536 4.22144,9.10619 5,14c1.58505,9.9632 2.78604,19.98481 4,30c5.10812,42.14203 8,86.49306 8,129" fill="none" stroke="black" stroke-linecap="round" stroke-width="5"/>
</svg>
