<?xml version="1.0" ?>
<svg baseProfile="full" height="300" version="1.1" viewBox="[0, 0, 300, 300]" width="300" xmlns="http://www.w3.org/2000/svg" xmlns:ev="http://www.w3.org/2001/xml-events" xmlns:xlink="http://www.w3.org/1999/xlink">
	<defs/>
	<path d="M62,125c14.32549,-7.16274 35.45262,-10.98777 51,-15c9.34561,-2.41177 26.81786,-6.21458 36,-8c17.03583,-3.31252 35.67401,-8.42491 53,-10c26.3191,-2.39265 59,4.94281 59,-31c0,-2.78087 1.60471,-11.59293 0,-14c-12.5695,-18.85425 -68.36364,-3.36364 -73,-8c-5.01563,-5.01563 -8.04721,-17.52361 -15,-21c-17.61797,-8.80899 -88.35618,2.71236 -96,18c-6.52618,13.05235 1.94214,32.08678 -2,38c-7.96623,11.94935 -35.71071,-6.73573 -41,25c-0.80215,4.81292 -3.78917,10.63248 -2,16c2.60795,7.82386 28.93188,6 36,6" fill="none" stroke="black" stroke-linecap="round" stroke-width="5"/>
</svg>
