<?xml version="1.0" ?>
<svg baseProfile="full" height="300" version="1.1" viewBox="[0, 0, 300, 300]" width="300" xmlns="http://www.w3.org/2000/svg" xmlns:ev="http://www.w3.org/2001/xml-events" xmlns:xlink="http://www.w3.org/1999/xlink">
	<defs/>
	<path d="M55,202c32.93145,-16.46572 70.79253,-15.87696 106,-22c11.93636,-2.07589 37.43666,-13.30381 49,-10c6.86289,1.96083 11.06654,8.1607 17,12c8.02882,5.19512 39,18.45241 39,30" fill="none" stroke="black" stroke-linecap="round" stroke-width="5"/>
	<path d="M59,196c5.19551,5.19551 49.54873,62 50,62c3.19266,0 7.88609,-5.96203 11,-7c29.03429,-9.6781 58.86293,-20.71633 88,-31c16.26509,-5.74062 74.26368,-8.26368 84,-18" fill="none" stroke="black" stroke-linecap="round" stroke-width="5"/>
	<path d="M62,195c2.13437,0 3.84793,2.87105 4,5c1.91242,26.77382 7.49723,57.49169 16,83" fill="none" stroke="black" stroke-linecap="round" stroke-width="5"/>
	<path d="M109,254c4.93393,-4.93393 4,3.07379 4,6c0,20 0,40 0,60c0,6.33333 0,12.66667 0,19c0,3.66667 -3.00385,13.1027 0,11c3.4971,-2.44797 6.66667,-5.33333 10,-8" fill="none" stroke="black" stroke-linecap="round" stroke-width="5"/>
	<path d="M262,200c0,30.52708 4,60.33001 4,91c0,9.66667 -0.60299,19.35216 0,29c0.10602,1.69636 -0.20185,3.79815 1,5c0.94281,0.94281 0,-2.66667 0,-4" fill="none" stroke="black" stroke-linecap="round" stroke-width="5"/>
	<path d="M71,52c38.45896,0 78.56709,-9.31842 116,-1c2.89778,0.64395 29.80127,0.60254 32,5c7.05136,14.10271 -6.11943,24.51493 -18,26c-39.378,4.92225 -88.0954,9 -128,9c-10.48257,0 -40.95502,5.86505 -35,-12c5.57477,-16.72431 43.58603,-16.79302 56,-23" fill="none" stroke="black" stroke-linecap="round" stroke-width="5"/>
	<path d="M69,87c0,13.70272 8.52713,103.05427 12,110" fill="none" stroke="black" stroke-linecap="round" stroke-width="5"/>
	<path d="M202,75c0,30.66667 0,61.33333 0,92" fill="none" stroke="black" stroke-linecap="round" stroke-width="5"/>
	<path d="M84,222c0,14.71583 -1.07262,30.6611 2,45c0.32146,1.50013 4.75316,22 3,22" fill="none" stroke="black" stroke-linecap="round" stroke-width="5"/>
	<path d="M117,251c11.10298,5.55149 7,38.76629 7,51" fill="none" stroke="black" stroke-linecap="round" stroke-width="5"/>
	<path d="M257,217c-2.6005,-2.6005 -3,21.15411 -3,23c0,21.33333 0,42.66667 0,64c0,2.13823 -3.05125,24.05125 2,19" fill="none" stroke="black" stroke-linecap="round" stroke-width="5"/>
</svg>
