<?xml version="1.0" ?>
<svg baseProfile="full" height="300" version="1.1" viewBox="[0, 0, 300, 300]" width="300" xmlns="http://www.w3.org/2000/svg" xmlns:ev="http://www.w3.org/2001/xml-events" xmlns:xlink="http://www.w3.org/1999/xlink">
	<defs/>
	<path d="M38,105c18.43455,1.84345 37.54794,1.72988 56,0c10.74896,-1.00771 21.31242,-3.4732 32,-5c9.75321,-1.39332 119.01331,-17.01331 128,-26c1.18427,-1.18427 0.34117,-13.29413 0,-15c-2.46982,-12.34911 -6.52296,-10.87682 -16,-19c-32.80179,-28.11582 -32.65753,7.33562 -50,3c-8.79681,-2.1992 -11.99902,-25.49951 -19,-29c-30.91438,-15.45719 -65.42565,3.08513 -95,9c-15.25848,3.0517 -2.28739,34.28739 -11,43c-2.60928,2.60928 -14.52533,-1.38987 -18,0c-6.58404,2.63362 -13.93324,6.35994 -20,10c-16.24748,9.74849 -8.03074,21.79078 6,26c5.43821,1.63146 11.35074,1 17,1" fill="none" stroke="black" stroke-linecap="round" stroke-width="5"/>
</svg>
