<?xml version="1.0" ?>
<svg baseProfile="full" height="300" version="1.1" viewBox="[0, 0, 300, 300]" width="300" xmlns="http://www.w3.org/2000/svg" xmlns:ev="http://www.w3.org/2001/xml-events" xmlns:xlink="http://www.w3.org/1999/xlink">
	<defs/>
	<path d="M71,200c28.70904,0 58.08605,-7.41721 86,-13c9.70502,-1.941 64.14039,-10.90641 73,-5c4.69715,3.13144 15,46.13294 15,54c0,1.33794 0.89283,6.36906 -1,7c-22.64715,7.54905 -91.73683,4 -121,4c-8.67931,0 -29.42585,4.04943 -37,-1c-15.75904,-10.50603 -18,-30.7443 -18,-48" fill="none" stroke="black" stroke-linecap="round" stroke-width="5"/>
	<path d="M63,201c0,5.27987 -5.66621,38.33379 -5,39c7.68524,7.68524 15,-4.67289 15,-11" fill="none" stroke="black" stroke-linecap="round" stroke-width="5"/>
	<path d="M84,245c0,7.96207 -7.70358,23.59285 -4,31c0.57235,1.14471 7.13826,-0.42551 8,-1c11.43085,-7.62057 16,-9.65098 16,-25" fill="none" stroke="black" stroke-linecap="round" stroke-width="5"/>
	<path d="M244,244c6.92875,0 11.1715,30.13017 -8,28c-5.19434,-0.57715 -10,-0.76069 -10,-7c0,-5.33333 0,-10.66667 0,-16" fill="none" stroke="black" stroke-linecap="round" stroke-width="5"/>
	<path d="M57,84c0,94.92354 19.49807,61.15019 101,53c9.67304,-0.9673 66.08063,-4.44085 71,-11c4.01985,-5.35979 1,-20.93367 1,-27c0,-31.56204 -4.52516,-35.53032 -35,-29c-16.03081,3.43517 -32.96831,3.99604 -49,6c-14.64125,1.83016 -31.76855,-0.55786 -46,3c-8.83024,2.20756 -22.17861,7 -30,7" fill="none" stroke="black" stroke-linecap="round" stroke-width="5"/>
	<path d="M104,144c0,9.42002 -2.27356,22.45289 2,31c1.75411,3.50822 4.21065,11 9,11c0.93251,0 6.36703,1 3,1" fill="none" stroke="black" stroke-linecap="round" stroke-width="5"/>
	<path d="M110,145c0,14.50995 10,27.79557 10,41" fill="none" stroke="black" stroke-linecap="round" stroke-width="5"/>
	<path d="M206,131c-3.11445,18.68668 -1,39.03656 -1,58c0,8.04093 -1,3.69227 -1,-1" fill="none" stroke="black" stroke-linecap="round" stroke-width="5"/>
	<path d="M190,132c2.39803,16.78624 11,46.76508 11,61" fill="none" stroke="black" stroke-linecap="round" stroke-width="5"/>
	<path d="M138,146c0,16.57386 9,33.28691 9,49" fill="none" stroke="black" stroke-linecap="round" stroke-width="5"/>
	<path d="M151,140c0,9.36821 -1.28858,19.84568 1,29c1.39769,5.59075 7,14.5913 7,20" fill="none" stroke="black" stroke-linecap="round" stroke-width="5"/>
	<path d="M165,142c0,4.09027 0,65.01256 0,48" fill="none" stroke="black" stroke-linecap="round" stroke-width="5"/>
</svg>
