<?xml version="1.0" ?>
<svg baseProfile="full" height="300" version="1.1" viewBox="[0, 0, 300, 300]" width="300" xmlns="http://www.w3.org/2000/svg" xmlns:ev="http://www.w3.org/2001/xml-events" xmlns:xlink="http://www.w3.org/1999/xlink">
	<defs/>
	<path d="M60,124c55.75271,0 114.83272,-19.50909 167,-34c15.24341,-4.23428 53.84499,-13.31001 41,-39c-5.98416,-11.96832 -34.11642,-12.9709 -46,-10c-1.81965,0.45491 -7.38115,6.53962 -9,6c-15.42435,-5.14145 -31.43635,-21.82546 -51,-14c-12.44068,4.97627 -27.42168,15.21084 -39,21c-12.92087,6.46044 -37.07151,2.07151 -47,12c-3.75076,3.75076 3.84417,22.31166 1,28c-1.938,3.876 -22.06243,0.42497 -26,2c-4.2161,1.68644 -25.61619,12.38381 -17,21c6.34713,6.34713 31.42681,2 40,2" fill="none" stroke="black" stroke-linecap="round" stroke-width="5"/>
</svg>
