<?xml version="1.0" ?>
<svg baseProfile="full" height="300" version="1.1" viewBox="[0, 0, 300, 300]" width="300" xmlns="http://www.w3.org/2000/svg" xmlns:ev="http://www.w3.org/2001/xml-events" xmlns:xlink="http://www.w3.org/1999/xlink">
	<defs/>
	<path d="M43,80c0,-16.14813 59.41881,-26.65705 71,-31c36.44199,-13.66574 76.39836,-12.48548 115,-18c11.10022,-1.58575 23.83612,-3 35,-3c2.02759,0 5.09324,-2.81353 6,-1c6.10392,12.20784 11.70812,65.16752 8,80c-0.38569,1.54277 -2.96775,10.5871 -4,11c-11.27468,4.50987 -79.33541,-7.09063 -102,-4c-28.43723,3.8778 -54.52602,11.218 -81,15c-6.15266,0.87895 -14.59585,8.59585 -19,13c-2.35702,2.35702 -6.50929,8.98142 -8,6c-6.94153,-13.88307 -26,-68.62537 -26,-82" fill="none" stroke="black" stroke-linecap="round" stroke-width="5"/>
	<path d="M97,205c3.67256,-3.67256 35.83927,-9.85178 43,-12c10.98305,-3.29492 113.86675,-27.56663 127,-21c8.94228,4.47114 17,54.46927 17,66c0,0.64368 0.36782,3.81609 0,4c-40.12695,20.06347 -92.94383,1.82397 -136,9c-16.63247,2.77208 -40.20584,12.79833 -57,8c-8.79778,-2.51365 -3.6356,-52.3644 2,-58" fill="none" stroke="black" stroke-linecap="round" stroke-width="5"/>
	<path d="M91,251c0,4.48778 -2.78515,28.40495 2,30c19.97338,6.65779 26.99743,-20 16,-20" fill="none" stroke="black" stroke-linecap="round" stroke-width="5"/>
	<path d="M85,208c-33.21808,0 1,72.66072 1,35c0,-3.3687 -0.46266,-6.92532 -2,-10c-3.13252,-6.26504 -3,-11.85661 -3,-19" fill="none" stroke="black" stroke-linecap="round" stroke-width="5"/>
	<path d="M271,244c0,8.09016 -4,14.78403 -4,23c0,4.58764 -1.12512,9.74975 1,14c1.88449,3.76897 5.58181,9 10,9c19.97138,0 8.87013,-32.32466 5,-42c-0.67679,-1.69198 1.40603,-6 -1,-6" fill="none" stroke="black" stroke-linecap="round" stroke-width="5"/>
	<path d="M247,250c0,4.34815 -0.94943,7.79773 -2,12c-2.86489,11.45957 24.17532,3.17532 13,-8" fill="none" stroke="black" stroke-linecap="round" stroke-width="5"/>
</svg>
