<?xml version="1.0" ?>
<svg baseProfile="full" height="300" version="1.1" viewBox="[0, 0, 300, 300]" width="300" xmlns="http://www.w3.org/2000/svg" xmlns:ev="http://www.w3.org/2001/xml-events" xmlns:xlink="http://www.w3.org/1999/xlink">
	<defs/>
	<path d="M53,108c18.12629,0 36.23871,-9.77067 54,-13c12.13796,-2.2069 133.9555,-12.8665 140,-31c1.5667,-4.70009 1.82448,-13.0531 1,-18c-4.91396,-29.48376 -59.46301,-6.48767 -73,-11c-6.34628,-2.11543 -12.69178,-19.23059 -21,-22c-24.78593,-8.26198 -55.09771,-2.96743 -79,5c-22.56089,7.5203 -3.74387,32.80177 -13,49c-5.22506,9.14385 -24.27556,11.76533 -33,17c-4.1781,2.50686 -10.95471,18 -2,18c4.57787,0 9.84165,1 15,1c6.33333,0 12.66667,0 19,0" fill="none" stroke="black" stroke-linecap="round" stroke-width="5"/>
</svg>
