<?xml version="1.0" ?>
<svg baseProfile="full" height="300" version="1.1" viewBox="[0, 0, 300, 300]" width="300" xmlns="http://www.w3.org/2000/svg" xmlns:ev="http://www.w3.org/2001/xml-events" xmlns:xlink="http://www.w3.org/1999/xlink">
	<defs/>
	<path d="M33,228c0,-11.31836 -8.22648,-23.90591 -11,-35c-7.52208,-30.0883 -12.95699,-132.04301 10,-155c13.62672,-13.62672 39.5742,-15.45677 58,-13c64.42167,8.58956 84.49758,47.23428 94,109c2.56474,16.6708 -0.00676,35.97295 4,52c1.26963,5.07853 0.69773,10.79093 2,16c0.27109,1.08435 1,7.99235 1,6" fill="none" stroke="black" stroke-linecap="round" stroke-width="5"/>
	<path d="M167,89c-36.44899,0 -80.18523,-10.16295 -116,-3c-11.1035,2.2207 -22.30145,1.24509 -33,6c-4.19804,1.86579 -14.36981,14 -14,14" fill="none" stroke="black" stroke-linecap="round" stroke-width="5"/>
	<path d="M161,146c5.10655,0 55.58742,26.72327 30,45c-11.5132,8.22371 -25.07302,1.22993 -38,4c-23.28601,4.98986 -43.11086,8 -67,8c-30.731,0 -37.81015,1.15821 -62,-19c-5.90267,-4.91889 -19,-14.95443 -19,-24c0,-6.25023 35.00591,-7.94303 37,-8c26.26224,-0.75035 52.16363,-1 78,-1c11.29157,0 28.14682,2.42659 37,-2c2.51957,-1.25979 15.02823,-1 10,-1" fill="none" stroke="black" stroke-linecap="round" stroke-width="5"/>
	<path d="M15,93c0,43.21092 40.01113,78.69636 54,116c3.00588,8.01568 20.15312,37 18,37" fill="none" stroke="black" stroke-linecap="round" stroke-width="5"/>
	<path d="M160,192c0,8.83937 -6,17.99281 -6,28" fill="none" stroke="black" stroke-linecap="round" stroke-width="5"/>
</svg>
