<?xml version="1.0" ?>
<svg baseProfile="full" height="300" version="1.1" viewBox="[0, 0, 300, 300]" width="300" xmlns="http://www.w3.org/2000/svg" xmlns:ev="http://www.w3.org/2001/xml-events" xmlns:xlink="http://www.w3.org/1999/xlink">
	<defs/>
	<path d="M209,133c22.55829,11.27915 54.33838,59.99622 25,82c-13.44066,10.08049 -35.88694,10 -52,10c-41.2315,0 -94.38959,-3.29864 -109,-52c-4.34202,-14.47339 -1.92335,-55.31907 15,-60c25.38849,-7.02235 52.65823,-2 79,-2c13.10842,0 25.97605,6.70573 38,11c1.23515,0.44113 17.31404,5 14,5" fill="none" stroke="black" stroke-linecap="round" stroke-width="5"/>
	<path d="M198,112c0,-26.13823 2,-52.96768 2,-79" fill="none" stroke="black" stroke-linecap="round" stroke-width="5"/>
	<path d="M226,32c0,1.76146 -0.66079,0.75651 -2,1c-12.71958,2.31265 -25.03772,4 -38,4c-40.59369,0 -79.77809,-2.36292 -120,3c-0.74733,0.09964 -23.46186,5.17938 -30,3c-1.19133,-0.39711 -1.04991,-11.50091 -1,-12c3.94836,-39.48363 113.72413,-9.26724 150,-7c12.01167,0.75073 23.92452,1 36,1c3.72222,0 21.92341,1 21,1" fill="none" stroke="black" stroke-linecap="round" stroke-width="5"/>
</svg>
