<?xml version="1.0" ?>
<svg baseProfile="full" height="300" version="1.1" viewBox="[0, 0, 300, 300]" width="300" xmlns="http://www.w3.org/2000/svg" xmlns:ev="http://www.w3.org/2001/xml-events" xmlns:xlink="http://www.w3.org/1999/xlink">
	<defs/>
	<path d="M233,163c0,-15.40058 -0.56463,-77.56463 -8,-85c-23.34458,-23.34458 -130.56758,-33.64863 -155,3c-15.1312,22.6968 -2.37577,62.09085 4,86c1.65585,6.20943 2.20699,17.41397 5,23c0.28188,0.56376 0,5 0,5c0,0 11.50607,0 13,0" fill="none" stroke="black" stroke-linecap="round" stroke-width="5"/>
	<path d="M227,133c0,1.36065 34.71247,28.13995 39,35c1.34545,2.15272 2.10864,4.62304 3,7c0.42888,1.14368 0.71271,3.85085 1,5c0.29291,1.17165 0,3.79028 0,5c0,20.54162 -7,40.18289 -7,62c0,0.61024 0.38964,3.61036 0,4c-0.55103,0.55103 -5.0614,2.76535 -6,3c-1.37989,0.34497 -6.75515,0.62242 -8,0c-2.99629,-1.49815 1,-6.65004 1,-10c0,-16.68244 5.26799,-39.19602 0,-55c-4.35729,-13.07188 -0.36267,-21.10691 -13,-28c-1.56615,-0.85427 -9,-6.36858 -9,-4" fill="none" stroke="black" stroke-linecap="round" stroke-width="5"/>
	<path d="M222,161c0,4.64335 4.07324,28.73014 9,33c4.98729,4.32232 17.9598,8.72027 14,14c-23.90505,31.87341 -82.12275,14.18772 -114,11c-7.57072,-0.75707 -7.16631,-13.42796 -11,-20c-4.86091,-8.33298 -10.30304,-15.22728 -18,-21c-0.52934,-0.397 -4,-2 -4,-2c0,0 9.87381,-3.29294 15,-4c24.42392,-3.36882 49.37684,-2 74,-2c7.39729,0 14.58269,-1 22,-1c1.49009,0 14.834,0 10,0" fill="none" stroke="black" stroke-linecap="round" stroke-width="5"/>
</svg>
