<?xml version="1.0" ?>
<svg baseProfile="full" height="300" version="1.1" viewBox="[0, 0, 300, 300]" width="300" xmlns="http://www.w3.org/2000/svg" xmlns:ev="http://www.w3.org/2001/xml-events" xmlns:xlink="http://www.w3.org/1999/xlink">
	<defs/>
	<path d="M236,246c0,-0.81883 -5.18833,-7.56499 -6,-10c-3.45558,-10.36673 0.73717,-28.94252 0,-40c-1.2068,-18.10207 -28.78542,-85.59514 -45,-91c-7.28064,-2.42688 -21.32544,1.46509 -29,3c-10.68046,2.13609 -32.54967,1.32451 -39,11c-18.95948,28.43923 1,95.97235 1,132" fill="none" stroke="black" stroke-linecap="round" stroke-width="5"/>
	<path d="M207,131c-25.06623,0 -59.15938,-4.42031 -80,6c-9.47692,4.73846 -18.76684,15.92228 -28,19" fill="none" stroke="black" stroke-linecap="round" stroke-width="5"/>
	<path d="M224,173c0,11.60004 7.66176,31.00736 1,41c-28.78231,43.17346 -92.86681,-2.86681 -118,-28c-2.25997,-2.25997 24.70808,-7.96927 25,-8c23.91887,-2.51778 43.78828,-7.45882 68,-4c5.4314,0.77591 28.35963,-0.35963 26,2" fill="none" stroke="black" stroke-linecap="round" stroke-width="5"/>
	<path d="M117,196c0,-4.71756 14.20273,13.00681 15,15c7.30752,18.26881 20.5989,26.09615 26,45c0.28899,1.01148 1.15196,2 2,2" fill="none" stroke="black" stroke-linecap="round" stroke-width="5"/>
	<path d="M211,224c0,8.88768 -4.06519,13.86962 0,22" fill="none" stroke="black" stroke-linecap="round" stroke-width="5"/>
	<path d="M111,226c0,-1.79867 34,-1.79601 34,0" fill="none" stroke="black" stroke-linecap="round" stroke-width="5"/>
</svg>
