<?xml version="1.0" ?>
<svg baseProfile="full" height="300" version="1.1" viewBox="[0, 0, 300, 300]" width="300" xmlns="http://www.w3.org/2000/svg" xmlns:ev="http://www.w3.org/2001/xml-events" xmlns:xlink="http://www.w3.org/1999/xlink">
	<defs/>
	<path d="M228,134c-10.17301,0 -15.23388,-6.55847 -25,-9c-22.48125,-5.62031 -53.22486,-4 -77,-4c-8.79746,0 -33.22369,3.77631 -39,-2c-18.05152,-18.05152 -23.83982,-65.53032 -11,-88c20.07356,-35.12872 79.41285,-8.86832 107,-4c14.87853,2.62562 36.35599,-0.64401 48,11c3.60642,3.60642 -2.22835,92.14176 -4,101" fill="none" stroke="black" stroke-linecap="round" stroke-width="5"/>
	<path d="M225,122c0,4.82163 20.09606,19.09606 24,23c3.33964,3.33964 8.24445,8.4889 10,12c0.31945,0.63891 -1.64825,7.40698 -1,10c4.70791,18.83165 1,42.44521 1,62c0,0.35074 0.38257,4.61743 0,5c-0.65507,0.65507 -4.9027,2.63423 -6,3c-8.42184,2.80728 -3.24977,-22.99908 -5,-30c-6.98738,-27.94951 -2.63801,-59.42534 -29,-77" fill="none" stroke="black" stroke-linecap="round" stroke-width="5"/>
	<path d="M87,118c1.53939,0 1.39427,3.48568 2,5c5.98155,14.95389 3.69794,29.54691 14,45c11.00884,16.51326 44.43988,16 65,16c9.80644,0 49.15237,-13.15237 53,-17c4.05069,-4.05069 1,-24.86071 1,-31c0,-2.26432 -1,-13.68967 -1,-11" fill="none" stroke="black" stroke-linecap="round" stroke-width="5"/>
	<path d="M240,188c-24.02591,0 -66.96758,-11.58442 -96,-15c-2.28725,-0.26909 -35,-7.84409 -35,4c0,2.61203 5.5129,17.89112 8,21c2.57568,3.2196 7.91833,-2.4169 12,-3c7.98123,-1.14018 16.00664,-1.94824 24,-3c5.80209,-0.76343 74.19708,-2.80292 79,2c4.20515,4.20515 3,35.26524 3,39c0,3 2.12132,6.87868 0,9c-2.39283,2.39283 -23.71459,-16.71459 -25,-18c-6.93364,-6.93364 -85.18546,-5 -98,-5c-1.08373,0 -6.29319,-0.70681 -7,0c-7.31057,7.31057 -0.28236,20.74113 1,31c0.33333,2.66667 4.37658,-3.41702 7,-4c7.01821,-1.5596 18,-4.87269 18,-14c0,-13.02983 0.26725,-26.04426 -2,-39c-0.80033,-4.5733 -3.31724,-8.67289 -5,-13c-5.59659,-14.39122 -17.72333,-26.03164 -22,-41c-3.95634,-13.8472 -1.74716,-28.34262 -7,-42c-3.55238,-9.23618 -15.43945,-23 -25,-23" fill="none" stroke="black" stroke-linecap="round" stroke-width="5"/>
</svg>
