<?xml version="1.0" ?>
<svg baseProfile="full" height="300" version="1.1" viewBox="[0, 0, 300, 300]" width="300" xmlns="http://www.w3.org/2000/svg" xmlns:ev="http://www.w3.org/2001/xml-events" xmlns:xlink="http://www.w3.org/1999/xlink">
	<defs/>
	<path d="M213,184c0,-20.72652 -2.73819,-40.64369 -5,-61c-5.38165,-48.43485 -25.28457,-43.87657 -72,-46c-20.79702,-0.94532 -42.91322,0.85537 -55,21c-8.96889,14.94815 -5.78651,41.28094 -3,58c1.08422,6.50531 2,14.59411 2,21c0,3.07318 -0.17307,11.17307 2,9c3.71062,-3.71062 4.67628,-10.34147 9,-14c23.66087,-20.02074 60.38877,-8.34103 87,-1c11.08728,3.05856 23.09697,12 35,12c1.33333,0 1.33333,0 0,0" fill="none" stroke="black" stroke-linecap="round" stroke-width="5"/>
	<path d="M210,184c0,16.45848 1.39103,24.23462 16,33c3.19437,1.91662 9.3571,3 13,3c0.04978,0 8.36395,-0.36395 7,1c-33.28315,33.28315 -41.05629,32.66041 -92,27c-11.24259,-1.24918 -21.0618,-14.0927 -27,-23c-1.07814,-1.61722 -1.05635,-5 -3,-5c-9.05848,0 -26.1433,-8.91464 -35,-16c-14.38243,-11.50594 -15,-37.78411 -15,-32" fill="none" stroke="black" stroke-linecap="round" stroke-width="5"/>
</svg>
