<?xml version="1.0" ?>
<svg baseProfile="full" height="300" version="1.1" viewBox="[0, 0, 300, 300]" width="300" xmlns="http://www.w3.org/2000/svg" xmlns:ev="http://www.w3.org/2001/xml-events" xmlns:xlink="http://www.w3.org/1999/xlink">
	<defs/>
	<path d="M223,54c0,4.27159 -24.93099,2 -28,2c-32.7088,0 -65.73429,2 -98,2c-2.4171,0 -32,-2 -32,-2c0,0 1.72604,9.35624 2,11c4.09732,24.5839 5.84674,53.99621 2,79c-3.61836,23.51933 -10.83394,43.22384 -19,65c-0.3135,0.83601 -4.0283,8.9717 -4,9c3.30824,3.30824 9.32144,-1 14,-1c8.73641,0 13.33865,-50.35461 17,-65c0.15615,-0.62459 2,-10 2,-10c0,0 31.28503,3.38084 35,4c22.46028,3.74338 93.2248,6.8876 111,-2c1.14304,-0.57152 4.12393,-2.12393 5,-3c1.49071,-1.49071 -1.58655,-3.93275 -2,-6c-4.51279,-22.56395 -3.54111,-46.70554 -8,-69c-0.32646,-1.63231 -0.45101,-8 -2,-8" fill="none" stroke="black" stroke-linecap="round" stroke-width="5"/>
	<path d="M218,56c0,8.46523 20.64661,43.26312 24,55c8.87872,31.07552 9.00106,64.00844 13,96c1.2529,10.02321 6,21.27585 6,31c0,0.33333 0.33333,-1 0,-1c-12.44295,0 -20.03137,-3.15687 -23,-18c-1.88655,-9.43273 6.05311,-111.05311 -12,-93" fill="none" stroke="black" stroke-linecap="round" stroke-width="5"/>
	<path d="M216,145c8.1578,0 22.89641,40.41436 21,48c-2.54063,10.16251 -32.63204,8.614 -40,8c-24.18816,-2.01568 -48.48918,-1.29784 -72,-6c-11.25227,-2.25045 -41.02056,-56 -54,-56" fill="none" stroke="black" stroke-linecap="round" stroke-width="5"/>
	<path d="M70,60c7.49717,18.74293 9.12019,24.8074 18,41c17.98093,32.78875 34,66.01425 34,103c0,3.95129 1.58335,27.20832 0,28c-21.30911,10.65456 -11.57438,-21.06335 -14,-34c-7.16433,-38.20974 -8.0887,-73.09855 -35,-103c-1.87569,-2.0841 -6.93534,-8 -9,-8" fill="none" stroke="black" stroke-linecap="round" stroke-width="5"/>
	<path d="M120,178c4.61956,0 6.84109,-3.16822 11,-4c9.15802,-1.8316 18.80585,2.34328 28,3c7.69316,0.54951 15.30406,1.35867 23,2c2.10262,0.17522 29.90677,-0.4406 30,-1c1.2816,-7.6896 1.842,-20.2632 -5,-23c-14.90012,-5.96005 -77.24124,-9.18969 -98,-4" fill="none" stroke="black" stroke-linecap="round" stroke-width="5"/>
</svg>
