<?xml version="1.0" ?>
<svg baseProfile="full" height="300" version="1.1" viewBox="[0, 0, 300, 300]" width="300" xmlns="http://www.w3.org/2000/svg" xmlns:ev="http://www.w3.org/2001/xml-events" xmlns:xlink="http://www.w3.org/1999/xlink">
	<defs/>
	<path d="M205,154c0,2.17897 -7.58271,1 -8,1c-18.33333,0 -36.66667,0 -55,0c-14.62715,0 -28.52752,-1.96625 -43,-3c-3.67243,-0.26232 -11,-1 -11,-1c0,0 -5.8301,-29.15051 -7,-35c-3.94184,-19.70921 1.2969,-81.14845 23,-92c53.44437,-26.72219 124.2522,8.01756 132,70c0.98026,7.84206 2.37377,54.62623 1,56c-20.4218,20.4218 -37.70068,-1 -49,-1" fill="none" stroke="black" stroke-linecap="round" stroke-width="5"/>
	<path d="M232,96c9.22256,0 14.22635,22.21998 17,29c7.39885,18.08607 24.16642,41.16497 27,61c1.41118,9.87828 0.59158,20.14107 2,30c0.70886,4.96202 6.84447,24.15553 4,27c-2.6453,2.6453 -6.65681,2.8856 -10,4c-3.89462,1.29821 -8.74372,-1.37186 -12,-3c-0.95447,-0.47724 -9,-3 -9,-3c0,0 5.15884,-23.98195 5,-27c-0.4169,-7.92103 -15.95563,-78 -23,-78" fill="none" stroke="black" stroke-linecap="round" stroke-width="5"/>
</svg>
