<?xml version="1.0" ?>
<svg baseProfile="full" height="300" version="1.1" viewBox="[0, 0, 300, 300]" width="300" xmlns="http://www.w3.org/2000/svg" xmlns:ev="http://www.w3.org/2001/xml-events" xmlns:xlink="http://www.w3.org/1999/xlink">
	<defs/>
	<path d="M205,173c-14.56669,14.56669 -49.44705,2.92384 -67,2c-22.58621,-1.18875 -44.6222,-4.93131 -67,-9c-1.96774,-0.35777 0.22086,-4.01223 0,-6c-1.20716,-10.86444 -1,-21.97907 -1,-33c0,-14.15849 1.15757,-28.23636 9,-40c23.46985,-35.20477 64.24335,-30.86094 99,-11c6.35063,3.62893 15.57948,5.73759 20,12c3.95821,5.60747 10.17594,11.1385 10,18c-0.63279,24.67882 -3,98.68693 -3,74" fill="none" stroke="black" stroke-linecap="round" stroke-width="5"/>
	<path d="M207,193c-18.97126,18.97126 -89.78203,13.92999 -113,5c-15.20163,-5.84678 -35.73871,-23 -52,-23c-0.74536,0 1.43906,0.50918 2,1c6.72413,5.88361 8.22257,10.44515 12,18c5.89062,11.78124 23.97193,28.99064 36,33c6.36696,2.12232 15.42333,-0.40929 22,1c24.19599,5.18486 47.14566,5.53798 72,7c0.96716,0.05689 27,2.67961 27,0c0,-5.6351 2.54189,-22.37434 0,-30c-1.58083,-4.7425 -9,-6.77837 -9,-11" fill="none" stroke="black" stroke-linecap="round" stroke-width="5"/>
</svg>
