<?xml version="1.0" ?>
<svg baseProfile="full" height="300" version="1.1" viewBox="[0, 0, 300, 300]" width="300" xmlns="http://www.w3.org/2000/svg" xmlns:ev="http://www.w3.org/2001/xml-events" xmlns:xlink="http://www.w3.org/1999/xlink">
	<defs/>
	<path d="M36,216c27.32141,-13.66071 20.07796,-72.61019 15,-98c-1.98632,-9.93161 -7.56893,-19.13786 -12,-28c-0.14962,-0.29923 -2.53838,-3.46162 -2,-4c4.65765,-4.65765 40.85806,-7 49,-7c34.97647,0 70.47793,-1 105,-1c2.02759,0 0.32518,4.088 1,6c2.38972,6.77088 5.54621,13.25208 8,20c7.22376,19.86533 14.53047,54.81719 11,76c-2.00824,12.04943 -79.78052,-2.16187 -89,-3c-2.34734,-0.21339 -4.64704,-0.86159 -7,-1c-3.32758,-0.19574 -6.67405,0.22173 -10,0c-14.98812,-0.99921 -31.26484,-0.54414 -46,-3c-1.53314,-0.25552 -5,1.10996 -5,-1" fill="none" stroke="black" stroke-linecap="round" stroke-width="5"/>
	<path d="M41,83c0,3.07696 43.66519,81.33037 51,96c5.40279,10.80558 3,30.35624 3,43c0,5.33333 0,10.66667 0,16c0,0.82052 0,7.32624 0,5" fill="none" stroke="black" stroke-linecap="round" stroke-width="5"/>
	<path d="M205,173c12.34642,0 23.88955,23.72386 28,34c0.37574,0.93934 4,5 4,5c0,0 -4.21753,2.21753 -5,3c-11.2093,11.2093 -34.92502,10 -49,10c-10.14225,0 -62.02748,-1.01374 -68,-4c-15.12271,-7.56136 -47.39128,-23.39128 -60,-36c-3.80058,-3.80058 2,-10.62516 2,-16" fill="none" stroke="black" stroke-linecap="round" stroke-width="5"/>
</svg>
