<?xml version="1.0" ?>
<svg baseProfile="full" height="300" version="1.1" viewBox="[0, 0, 300, 300]" width="300" xmlns="http://www.w3.org/2000/svg" xmlns:ev="http://www.w3.org/2001/xml-events" xmlns:xlink="http://www.w3.org/1999/xlink">
	<defs/>
	<path d="M245,233c0,-43.66076 13.41169,-131.36141 -20,-160c-19.09792,-16.36964 -127.35916,1 -157,1c-0.74536,0 1.85382,0.26912 2,1c2.63903,13.19516 4,30.52038 4,44c0,25.37773 7.89984,113.55008 -19,127c-2.87506,1.43753 17.21666,-4 25,-4c1.22068,0 2.30598,0.38804 3,-1c4.42672,-8.85343 9.76653,-19.13225 11,-29c0.47343,-3.78746 -1.50396,-18.62599 1,-18c5.88421,1.47105 9.48156,8.63496 15,11c33.42694,14.32583 73.17617,17.60794 108,6c6.86795,-2.28932 18.13428,-3.26857 21,-9" fill="none" stroke="black" stroke-linecap="round" stroke-width="5"/>
	<path d="M203,76c15.09205,15.09205 38.22587,55.35523 42,78c2.703,16.21798 0.31321,32.87928 3,49c2.16172,12.97031 1,26.8539 1,40c0,2.28706 0.77263,18.22737 1,18c2.96969,-2.96969 18.87528,-7.75056 21,-12c2.84485,-5.68971 0,-20.80354 0,-27c0,-28.63594 -2.34005,-117 -44,-117" fill="none" stroke="black" stroke-linecap="round" stroke-width="5"/>
	<path d="M217,209c0,5.98518 5.42553,28.57447 4,30c-1.0535,1.0535 -4.14257,-0.71419 -5,-1c-13.01713,-4.33904 -13,-6.87922 -13,-21" fill="none" stroke="black" stroke-linecap="round" stroke-width="5"/>
	<path d="M68,79c0,9.91691 21.63851,25.6174 27,35c19.11694,33.45465 34.69834,72.19006 41,110c1.19238,7.15431 9.62381,36.37619 6,40c-11.72499,11.72499 -18.74631,-21.94092 -19,-26c-2.23138,-35.70203 -24.28236,-74.30047 -39,-106c-2.26872,-4.88648 -7.28592,-28 -15,-28" fill="none" stroke="black" stroke-linecap="round" stroke-width="5"/>
</svg>
