<?xml version="1.0" ?>
<svg baseProfile="full" height="300" version="1.1" viewBox="[0, 0, 300, 300]" width="300" xmlns="http://www.w3.org/2000/svg" xmlns:ev="http://www.w3.org/2001/xml-events" xmlns:xlink="http://www.w3.org/1999/xlink">
	<defs/>
	<path d="M229,158c-5.70907,0 -12.96482,-8.12275 -18,-11c-15.39946,-8.79969 -44.65928,-10 -62,-10c-14.07087,0 -24.26785,1.05519 -37,8c-4.15908,2.26859 -7.65004,12.34996 -11,9c-2.13437,-2.13437 1,-5.98154 1,-9c0,-22.33333 0,-44.66667 0,-67c0,-1.66667 -0.74536,-3.50929 0,-5c1.60675,-3.2135 3.45609,-9.45609 6,-12c12.10627,-12.10627 107.2695,-2.09576 116,11c11.43138,17.14707 17.16661,42.16693 13,63c-1.27765,6.38827 -1.14207,15.28414 -4,21c-0.51681,1.03362 -1,10.61952 -1,8" fill="none" stroke="black" stroke-linecap="round" stroke-width="5"/>
	<path d="M230,152c0,-3.9382 17.22209,12.22209 21,16c9.58414,9.58414 19.0804,20.0804 28,29c3.2059,3.2059 -4,8.46618 -4,13c0,5.74557 1.2378,25 -1,25" fill="none" stroke="black" stroke-linecap="round" stroke-width="5"/>
	<path d="M101,155c0,0.33333 -0.2357,0.7643 0,1c9.02379,9.02379 28.63082,10.63082 39,21c0.0905,0.0905 8.95559,73.08883 5,81c-0.22865,0.4573 -6.28363,0 -7,0c-4.66188,0 -15.82333,-1.82333 -19,-5c-0.55078,-0.55078 -6.50178,-27.49822 -5,-29c6.04392,-6.04392 15.73062,-7.81866 24,-9c1.9799,-0.28284 4,0 6,0c1,0 2,0 3,0c2.33333,0 4.66667,0 7,0c1.66667,0 3.3416,-0.16584 5,0c2.67408,0.26741 5.32362,0.75669 8,1c0.99589,0.09054 2,0 3,0c1.33333,0 2.68217,-0.20274 4,0c14.88425,2.28989 26.54206,4 42,4c3,0 6.87868,-2.12132 9,0c10.30117,10.30117 17.20972,23.47315 30,32c1.49358,0.99572 1.19723,-3.39445 2,-5c1.81401,-3.62802 16.91926,-26 12,-26" fill="none" stroke="black" stroke-linecap="round" stroke-width="5"/>
	<path d="M225,162c4.38281,0 10.97208,13.96278 14,18c1.35954,1.81272 13,6.70154 13,8c0,9.46856 -17.71279,16 -25,16c-23.85148,0 -51.12812,-7.46518 -74,-14c-10.8615,-3.10329 -11.47976,-9.68537 -18,-19c-1.00702,-1.4386 -1,-2.81752 -1,-1" fill="none" stroke="black" stroke-linecap="round" stroke-width="5"/>
</svg>
