<?xml version="1.0" ?>
<svg baseProfile="full" height="300" version="1.1" viewBox="[0, 0, 300, 300]" width="300" xmlns="http://www.w3.org/2000/svg" xmlns:ev="http://www.w3.org/2001/xml-events" xmlns:xlink="http://www.w3.org/1999/xlink">
	<defs/>
	<path d="M77,220c1.66667,0 2.1731,2.55293 3,4c8.63832,15.11707 18.28905,33.71679 32,44c8.32907,6.2468 32.73297,1 42,1c3.01846,0 -5.98154,-1 -9,-1c-5.31409,0 -12.23695,-1.61848 -17,-4" fill="none" stroke="black" stroke-linecap="round" stroke-width="5"/>
	<path d="M105,45c0,36.46789 -3.38589,40.84233 8,75c0.26428,0.79283 0.81178,8.90589 1,9c7.66425,3.83212 15.46536,0.48845 23,3c10.74283,3.58094 23.55877,4.86031 35,2c26.18424,-6.54606 23.92172,-12.33069 22,-45c-0.15781,-2.68278 -0.50474,-5.35861 -1,-8c-2.78958,-14.87774 -7,-25.145 -7,-40c0,-0.33333 0.2357,-0.7643 0,-1c-1.41421,-1.41421 -4.00308,0.11094 -6,0c-25.75276,-1.43071 -49.3488,-11 -75,-11c-1.01694,0 -6,2.65445 -6,3" fill="none" stroke="black" stroke-linecap="round" stroke-width="5"/>
</svg>
