<?xml version="1.0" ?>
<svg baseProfile="full" height="300" version="1.1" viewBox="[0, 0, 300, 300]" width="300" xmlns="http://www.w3.org/2000/svg" xmlns:ev="http://www.w3.org/2001/xml-events" xmlns:xlink="http://www.w3.org/1999/xlink">
	<defs/>
	<path d="M80,40c0,-1.94279 -0.77396,8.0205 -1,9c-0.94738,4.1053 -3.62429,10.49149 -4,15c-1.08531,13.02372 -4.10401,49.89599 6,60c1.34427,1.34427 53.89377,-3.78388 58,-4c3.84712,-0.20248 45.10608,-5.31824 46,-8c3.67812,-11.03435 1.97947,-29.38807 -2,-40c-1.94201,-5.1787 -8.14014,-33.57007 -13,-36c-8.41013,-4.20506 -73.4825,1.4825 -80,8c-3.01927,3.01927 -17.06681,-2 -19,-2" fill="none" stroke="black" stroke-linecap="round" stroke-width="5"/>
	<path d="M77,72c-5.36628,0 -9.92773,4 -15,4c-2.66667,0 -8,-2.66667 -8,0c0,12.15865 4.59092,33.9773 9,45c14.6283,36.57074 26.26809,40.12511 71,61c6.457,3.01326 15.83067,18 21,18" fill="none" stroke="black" stroke-linecap="round" stroke-width="5"/>
</svg>
