<?xml version="1.0" ?>
<svg baseProfile="full" height="300" version="1.1" viewBox="[0, 0, 300, 300]" width="300" xmlns="http://www.w3.org/2000/svg" xmlns:ev="http://www.w3.org/2001/xml-events" xmlns:xlink="http://www.w3.org/1999/xlink">
	<defs/>
	<path d="M81,48c0,16.33258 -3.95971,74.04029 7,85c2.36878,2.36878 6.65582,-0.80328 10,-1c9.60407,-0.56495 19.54082,0.3648 29,-2c8.59656,-2.14914 14.24502,-9.249 23,-11c1.98821,-0.39764 4.04386,-0.46651 6,-1c4.76253,-1.29887 38.06819,0.93181 43,-4c9.72364,-9.72364 1.56899,-35.72406 -1,-46c-1.6538,-6.61518 -0.89975,-16.7995 -4,-23c-1.93405,-3.86811 -27.10588,-3.85529 -30,-4c-35.2149,-1.76074 -59.13759,12 -88,12" fill="none" stroke="black" stroke-linecap="round" stroke-width="5"/>
	<path d="M81,76c-2.89876,0.96625 -16.30666,3.30666 -18,5c-0.49587,0.49587 0,4.29752 0,5c0,18.57352 11.90053,81.80106 19,96c0.14907,0.29814 -0.26029,0.79177 0,1c16.52764,13.22211 34.1724,21.1724 49,36c4.27302,4.27302 33,29.64402 33,31" fill="none" stroke="black" stroke-linecap="round" stroke-width="5"/>
</svg>
