<?xml version="1.0" ?>
<svg baseProfile="full" height="300" version="1.1" viewBox="[0, 0, 300, 300]" width="300" xmlns="http://www.w3.org/2000/svg" xmlns:ev="http://www.w3.org/2001/xml-events" xmlns:xlink="http://www.w3.org/1999/xlink">
	<defs/>
	<path d="M83,87c0,16.01811 -20.24028,72.91991 1,80c23.82462,7.94154 61.05629,-16 84,-16c3.34996,0 9.18752,2.24994 10,-1c3.72006,-14.88025 5.20504,-57.79496 -7,-70c-2.37742,-2.37742 -76.03894,-2 -93,-2" fill="none" stroke="black" stroke-linecap="round" stroke-width="5"/>
	<path d="M112,199c0,35.39097 62.52947,78.23527 93,63c4.08843,-2.04422 13.54135,-3.31203 16,-7c3.96205,-5.94308 2.07128,-23.18936 3,-30c0.4593,-3.36817 1.44115,-6.64691 2,-10c0.07796,-0.46775 4.45508,-26.79213 3,-27c-2.30988,-0.32998 -4.67069,0.13702 -7,0c-3.34418,-0.19672 -6.67212,-0.61601 -10,-1c-9.09666,-1.04961 -91.51831,-14.44508 -96,-1c-1.80657,5.41972 2,9.26681 2,14" fill="none" stroke="black" stroke-linecap="round" stroke-width="5"/>
	<path d="M41,239c0,12.80456 19.56685,59.43315 33,46c10.20621,-10.20621 0,-41.79243 0,-54" fill="none" stroke="black" stroke-linecap="round" stroke-width="5"/>
</svg>
