<?xml version="1.0" ?>
<svg baseProfile="full" height="300" version="1.1" viewBox="[0, 0, 300, 300]" width="300" xmlns="http://www.w3.org/2000/svg" xmlns:ev="http://www.w3.org/2001/xml-events" xmlns:xlink="http://www.w3.org/1999/xlink">
	<defs/>
	<path d="M86,51c26.63048,0 52.98196,14.50301 80,10c9.06282,-1.51047 19.24459,-1.26394 28,-4c5.33333,-1.66667 10.57915,-3.64479 16,-5c1.74146,-0.43536 4.43235,-3.70294 5,-2c4.65697,13.97092 -1,37.02599 -1,52c0,6.78681 0.05283,14.10566 3,20c0.37269,0.74537 1.23729,6.96045 1,7c-17.29859,2.8831 -36.25962,-3.27991 -53,-7c-15.87472,-3.52772 -53.28809,7.71191 -65,-4c-15.6106,-15.6106 -2,-55.33165 -2,-74" fill="none" stroke="black" stroke-linecap="round" stroke-width="5"/>
	<path d="M94,68c-1.93378,0 -17.74565,4.74565 -19,6c-3.85367,3.85367 5.67934,22.03802 7,26c3.87215,11.61644 23.56548,76.41484 27,78c22.95169,10.59309 48.36433,9 73,9c1.55522,0 8,0.85365 8,2" fill="none" stroke="black" stroke-linecap="round" stroke-width="5"/>
	<path d="M218,64c5.20738,0 11,3.16446 11,8" fill="none" stroke="black" stroke-linecap="round" stroke-width="5"/>
</svg>
