<?xml version="1.0" ?>
<svg baseProfile="full" height="300" version="1.1" viewBox="[0, 0, 300, 300]" width="300" xmlns="http://www.w3.org/2000/svg" xmlns:ev="http://www.w3.org/2001/xml-events" xmlns:xlink="http://www.w3.org/1999/xlink">
	<defs/>
	<path d="M81,69c4.61021,32.2715 0.93294,64.53646 -3,96c-0.41345,3.30759 -2.35702,7.64298 0,10c1.17851,1.17851 3.3831,0.40423 5,0c17.33536,-4.33384 34.51457,-8.05168 52,-12c10.58566,-2.39031 72.10181,-10.10181 77,-15c10.22872,-10.22872 4.7345,-34.40701 7,-48c0.81816,-4.90897 12.2014,-37.7986 7,-43c-0.2357,-0.2357 -0.6712,-0.0548 -1,0c-11.80933,1.96822 -23.31396,5.20215 -35,7c-24.08941,3.70606 -48.44974,10.11244 -72,16c-11.68294,2.92073 -27.54634,-2 -37,-2" fill="none" stroke="black" stroke-linecap="round" stroke-width="5"/>
	<path d="M82,102c-3.43305,0 -14.47994,-1.52006 -17,1c-2.16578,2.16578 7.36581,25.09743 9,30c9.18045,27.54134 -11.80351,62.80738 13,85c21.05731,18.84075 43.62744,35.4183 67,51c11.80233,7.86822 24.99276,14.19421 36,23c2.54223,2.03379 7.57393,10 11,10c3.16228,0 2.23304,-5.93214 3,-9" fill="none" stroke="black" stroke-linecap="round" stroke-width="5"/>
</svg>
