<?xml version="1.0" ?>
<svg baseProfile="full" height="300" version="1.1" viewBox="[0, 0, 300, 300]" width="300" xmlns="http://www.w3.org/2000/svg" xmlns:ev="http://www.w3.org/2001/xml-events" xmlns:xlink="http://www.w3.org/1999/xlink">
	<defs/>
	<path d="M69,91c0,-2.29343 21.7066,-3.4511 25,-4c14.46433,-2.41072 23.0417,-10.51042 37,-14c13.48189,-3.37047 29.90336,-1 44,-1" fill="none" stroke="black" stroke-linecap="round" stroke-width="5"/>
	<path d="M70,88c-13.91738,0 4.14821,25.07411 10,28c1.30275,0.65138 38.4713,-6.74522 46,-8c15.21955,-2.53659 31.49668,-13.74834 44,-20c4.46489,-2.23244 18.56042,-2.12085 21,-7c7.29759,-14.59518 -22.38517,-4.30741 -25,-3" fill="none" stroke="black" stroke-linecap="round" stroke-width="5"/>
	<path d="M172,153c-5.97186,0 -9.67318,3.33659 -15,6c-8.13553,4.06777 -18.10166,5.48133 -25,11c-23.28623,18.62898 12.28434,43.63454 28,48c7.01053,1.94737 16.28506,7.92873 24,6c6.34406,-1.58602 12.69108,-8.03662 16,-13c21.32277,-31.98416 -35.27134,-72.72866 -47,-61" fill="none" stroke="black" stroke-linecap="round" stroke-width="5"/>
</svg>
