<?xml version="1.0" ?>
<svg baseProfile="full" height="300" version="1.1" viewBox="[0, 0, 300, 300]" width="300" xmlns="http://www.w3.org/2000/svg" xmlns:ev="http://www.w3.org/2001/xml-events" xmlns:xlink="http://www.w3.org/1999/xlink">
	<defs/>
	<path d="M74,74c27.35788,0 59.19341,3.36132 86,-2c3.30727,-0.66145 22.52881,-5.47119 25,-3c7.10405,7.10405 -2.46071,29.23576 -1,38c1.48402,8.90415 5,21.77553 5,30c0,0.41176 0.26471,2.73529 0,3c-6.98957,6.98957 -17.9137,5.06507 -27,3c-24.55328,-5.58029 -54.71329,-10 -80,-10c-1.01161,0 -10.05011,0.94989 -11,0c-1.32361,-1.32361 6.4666,-19.33301 7,-22c2.70264,-13.5132 -5,-25.62441 -5,-36" fill="none" stroke="black" stroke-linecap="round" stroke-width="5"/>
	<path d="M74,91c0,-0.48877 -15.20293,-2.79707 -17,-1c-1.63221,1.63221 4.3501,9.7002 5,11c1.80567,3.61134 0,11.76307 0,16c0,4.26935 -0.39899,38.60101 0,39c1.7137,1.7137 4.89201,2.40245 9,4c21.64185,8.41627 33.26632,15.69974 51,29c5.91746,4.4381 31.52564,36.21154 35,31" fill="none" stroke="black" stroke-linecap="round" stroke-width="5"/>
</svg>
