<?xml version="1.0" ?>
<svg baseProfile="full" height="300" version="1.1" viewBox="[0, 0, 300, 300]" width="300" xmlns="http://www.w3.org/2000/svg" xmlns:ev="http://www.w3.org/2001/xml-events" xmlns:xlink="http://www.w3.org/1999/xlink">
	<defs/>
	<path d="M59,70c0,-0.13797 34.1073,-9.83507 39,-11c22.11298,-5.265 121.32205,-30.46324 136,-6c2.12455,3.54092 -1.26936,7.63468 -4,9c-8.66697,4.33349 -70.17819,5.01048 -87,6c-29.49279,1.73487 -60.31545,16 -91,16c-1.36611,0 -4.63485,2.7303 -6,0c-6.26594,-12.53188 19,-12.94438 19,-18" fill="none" stroke="black" stroke-linecap="round" stroke-width="5"/>
	<path d="M182,116c0,-0.4714 -0.53053,-1.04268 -1,-1c-14.38969,1.30815 -28.63612,4.16631 -43,6c-13.13483,1.67679 -48.88266,1.83573 -59,16c-18.37472,25.72461 2.32979,55.77482 23,73c8.34644,6.95536 18.7862,13.91448 29,18c8.61628,3.44651 24.52899,-20.53459 33,-24c12.01119,-4.91367 25.04236,-7.51589 37,-12c5.10481,-1.9143 7.67172,-10.19625 11,-14c20.95646,-23.95024 0.92797,-55.62881 -25,-66c-12.24819,-4.89928 -22.44482,8.04181 -33,12c-6.54964,2.45611 -7.48997,-4 -12,-4" fill="none" stroke="black" stroke-linecap="round" stroke-width="5"/>
</svg>
