<?xml version="1.0" ?>
<svg baseProfile="full" height="300" version="1.1" viewBox="[0, 0, 300, 300]" width="300" xmlns="http://www.w3.org/2000/svg" xmlns:ev="http://www.w3.org/2001/xml-events" xmlns:xlink="http://www.w3.org/1999/xlink">
	<defs/>
	<path d="M46,105c7.15696,-19.08523 7.06923,-41.3503 26,-53c12.40543,-7.63411 30.32668,-3.49358 44,-4c30.42923,-1.12701 55.38885,0.46295 84,10c3.91866,1.30622 25.25631,1.51263 27,5c2.90128,5.80255 -0.72704,40.26778 -1,46c-0.57618,12.0998 -1,23.8795 -1,36c0,0.84663 0.69113,7.30887 0,8c-1,1 -2,-2 -3,-3c-7.73667,-7.73667 -22.31924,-13.72908 -32,-18c-8.21164,-3.62278 -16.36394,-7.55583 -25,-10c-14.73559,-4.17045 -124.68082,-24.95755 -131,-6" fill="none" stroke="black" stroke-linecap="round" stroke-width="5"/>
	<path d="M83,137c1.13335,19.26691 -7.94563,95.10873 -2,107c0.21082,0.42164 0.57836,0.78918 1,1c0.76908,0.38454 73.85975,-1 82,-1c1.68379,0 59.80529,-1.80529 62,-4c0.92646,-0.92646 -13.03094,-39.92994 -14,-44c-3.36219,-14.12119 -4,-25.53335 -4,-40c0,-3.33333 0,-10 0,-10c0,0 -3.57512,5.43349 -4,6c-3.59805,4.7974 -83.52946,11.41387 -89,12c-23.15763,2.48117 -41.82389,-12 -63,-12" fill="none" stroke="black" stroke-linecap="round" stroke-width="5"/>
	<path d="M32,100c21.75033,40.78186 32.80626,86.65911 45,131c8.3787,30.46801 20.68594,59.5151 29,90" fill="none" stroke="black" stroke-linecap="round" stroke-width="5"/>
	<path d="M222,115c18.62494,68.29146 49.9121,129.39782 78,194" fill="none" stroke="black" stroke-linecap="round" stroke-width="5"/>
	<path d="M127,164c-67.3031,50.47733 -150.652,71.768 -220,118" fill="none" stroke="black" stroke-linecap="round" stroke-width="5"/>
	<path d="M183,154c25.74871,25.74871 63.23798,34.68928 94,53c44.69524,26.60431 78.45571,55.8559 129,74" fill="none" stroke="black" stroke-linecap="round" stroke-width="5"/>
</svg>
