<?xml version="1.0" ?>
<svg baseProfile="full" height="300" version="1.1" viewBox="[0, 0, 300, 300]" width="300" xmlns="http://www.w3.org/2000/svg" xmlns:ev="http://www.w3.org/2001/xml-events" xmlns:xlink="http://www.w3.org/1999/xlink">
	<defs/>
	<path d="M44,43c45.73339,11.43335 107.61352,12.2565 155,10c16.07902,-0.76567 31.94333,-5 48,-5c0.33333,0 0.85093,-0.29814 1,0c3.31238,6.62475 -6.43165,13.72658 -8,20c-4.96669,19.86678 -0.40636,42.01591 -8,61c-0.11977,0.29941 -1.79599,3.20401 -1,4c1.84916,1.84916 17.31603,6.72495 25,15c44.05573,47.44464 54.78673,89.85308 39,153" fill="none" stroke="black" stroke-linecap="round" stroke-width="5"/>
	<path d="M231,127c-5.07642,25.38212 -17,40.92554 -17,66c0,8.00694 0.3859,16.01664 1,24c0.18757,2.43838 1.309,12.61799 1,12c-9.7814,-19.5628 -86.13725,-31.5098 -107,-37c-10.20218,-2.68478 -20.83995,-4.09713 -31,-7c-1.63428,-0.46694 -4.46252,0.61245 -5,-1c-4.14832,-12.44495 7.4324,-38.16331 7,-52c-0.34105,-10.91357 -4.595,-21.34926 -7,-32c-2.06133,-9.12874 -8.74022,-28.3096 -4,-37c6.65824,-12.20677 18.5557,-19.5557 28,-29" fill="none" stroke="black" stroke-linecap="round" stroke-width="5"/>
	<path d="M80,52c0,15.54589 2.38717,32.72213 0,48c-4.32928,27.70736 -16.06545,53.89222 -23,81c-10.42508,40.75259 -18.0985,73.0985 -48,103" fill="none" stroke="black" stroke-linecap="round" stroke-width="5"/>
	<path d="M79,164c7.98938,37.94953 4.23136,75.85088 9,114" fill="none" stroke="black" stroke-linecap="round" stroke-width="5"/>
	<path d="M80,204c15.33608,-1.97885 30.69864,-3.76855 46,-6c11.00909,-1.60549 21.96037,-3.62005 33,-5c13.30273,-1.66284 25.70727,-2.55386 39,-2c1.64979,0.06874 19.13855,6.47691 16,7c-20.97063,3.49511 -92.33395,-11.17289 -117,-13c-9.2094,-0.68218 -17.88105,-1 -27,-1c-0.33333,0 -1,0 -1,0c0,0 2.67406,0.63838 4,1c9.15661,2.49726 10.09726,2.66961 21,3c37.21282,1.12766 73.87973,-5.22666 111,-6c1.64054,-0.03418 18.63024,1.02894 23,2c0.68934,0.15319 3.2119,3 3,3c-34.05937,0 -71.25058,-5.46594 -105,-7c-9.99523,-0.45433 -20.02901,-0.16908 -30,-1c-7.66902,-0.63908 -28.44161,-3.44161 -23,2" fill="none" stroke="black" stroke-linecap="round" stroke-width="5"/>
</svg>
