<?xml version="1.0" ?>
<svg baseProfile="full" height="300" version="1.1" viewBox="[0, 0, 300, 300]" width="300" xmlns="http://www.w3.org/2000/svg" xmlns:ev="http://www.w3.org/2001/xml-events" xmlns:xlink="http://www.w3.org/1999/xlink">
	<defs/>
	<path d="M58,144c0,-26.47648 -8.39466,-59.81601 0,-85c3.11214,-9.33642 25.71671,-14.69909 34,-17c14.44041,-4.01123 128.88839,-8.22322 138,10c10.74226,21.48452 3.47421,55.86246 8,80c1.3993,7.46295 2,14.46837 2,22c0,6.94055 8.50676,40.49324 7,42c-1.33333,1.33333 -2.66667,-2.66667 -4,-4c-8.56856,-8.56856 -24.43281,-12.226 -35,-16c-23.69921,-8.464 -49.4462,-14.3877 -74,-20c-16.37862,-3.74368 -31.74032,-7.93508 -48,-12c-4.80071,-1.20018 -14.46059,-4 -20,-4c-1.6386,0 -9.20529,0 -7,0" fill="none" stroke="black" stroke-linecap="round" stroke-width="5"/>
	<path d="M240,181c-7.7912,-16.55631 -15.48761,-29.85137 -17,-48c-2.00796,-24.09556 10.3251,-8.70247 36,-1c7.18804,2.15641 30.23726,8.23726 36,14c3.26502,3.26502 -4.70456,18.37507 -5,20c-0.89641,4.93027 -0.84822,9.9912 -1,15c-0.99988,32.99592 -4,66.1717 -4,99" fill="none" stroke="black" stroke-linecap="round" stroke-width="5"/>
	<path d="M121,121c-20.62141,6.34505 -39.32014,12.0291 -61,14c-1.38273,0.1257 -12.10454,-0.89546 -13,0c-0.14103,0.14103 -0.10256,2.79487 0,3c5.15028,10.30055 9.96047,25.04535 11,37c3.10418,35.69805 5.05409,72.72956 -2,108" fill="none" stroke="black" stroke-linecap="round" stroke-width="5"/>
	<path d="M122,139c-3.7485,37.48499 -9.80589,73.83533 -16,111c-1.63896,9.83378 -8.34246,31.65754 0,40" fill="none" stroke="black" stroke-linecap="round" stroke-width="5"/>
	<path d="M193,166c-1.44118,34.58827 -4.87129,68.58424 -8,103" fill="none" stroke="black" stroke-linecap="round" stroke-width="5"/>
</svg>
