<?xml version="1.0" ?>
<svg baseProfile="full" height="300" version="1.1" viewBox="[0, 0, 300, 300]" width="300" xmlns="http://www.w3.org/2000/svg" xmlns:ev="http://www.w3.org/2001/xml-events" xmlns:xlink="http://www.w3.org/1999/xlink">
	<defs/>
	<path d="M57,35c39.73108,17.38235 82.4605,12 125,12c0.57722,0 34.34579,-1.65421 39,3c9.46591,9.46591 3.29022,70.16089 8,89c1.20419,4.81677 -4,4 -4,4c0,0 9.25011,-3.58787 14,-5c20.95902,-6.23106 61.49463,-23.50537 80,-5c7.39532,7.39532 -11.1319,7.69785 -12,9c-4.97099,7.45648 -7.65761,23.86467 -10,33c-13.60634,53.06471 4,62.08993 4,106" fill="none" stroke="black" stroke-linecap="round" stroke-width="5"/>
	<path d="M73,21c0,30.40633 3,60.65762 3,91c0,11.33333 0,22.66667 0,34c0,2.66667 0,5.33333 0,8c0,1.33333 -0.94281,4.94281 0,4c16.93291,-16.93291 44.80008,-19 69,-19c2.18247,0 4,-0.56068 4,2" fill="none" stroke="black" stroke-linecap="round" stroke-width="5"/>
	<path d="M146,140c-11.33322,15.86651 -26.55572,27.91551 -40,42c-23.64937,24.77553 -45.06522,50.67827 -67,77c-10.56532,12.67838 -28.6518,24.9554 -34,41" fill="none" stroke="black" stroke-linecap="round" stroke-width="5"/>
	<path d="M129,175c-0.67984,6.79838 -9.27684,57.36158 -2,61c7.13801,3.56901 47.34283,-17.07308 50,-18c13.93584,-4.86134 22.7458,-7.15101 38,-9c9.21771,-1.1173 10.49994,-0.60002 17,2c0.03453,0.01381 4.86057,1.4183 5,1c6.63253,-19.89758 8,-48.94391 8,-70c0,-3.83694 -1.52122,-6 3,-6" fill="none" stroke="black" stroke-linecap="round" stroke-width="5"/>
</svg>
