<?xml version="1.0" ?>
<svg baseProfile="full" height="300" version="1.1" viewBox="[0, 0, 300, 300]" width="300" xmlns="http://www.w3.org/2000/svg" xmlns:ev="http://www.w3.org/2001/xml-events" xmlns:xlink="http://www.w3.org/1999/xlink">
	<defs/>
	<path d="M75,159c-7.49474,-8.99369 -12.7838,-17.19501 -18,-28c-7.20923,-14.9334 -13.83974,-30.20518 -13,-47c0.75354,-15.07077 -4.20301,-22.49526 15,-25c10.92762,-1.42534 21.99617,-1.39979 33,-2c33.59803,-1.83262 66.62343,-5.75207 100,-10c6.82288,-0.86837 66.12254,-12.75492 69,-7c3.08724,6.17447 -10.49626,48.42146 -11,59c-0.35466,7.44795 -0.58608,64.58608 -4,68c-0.90698,0.90698 -2.52523,-0.68348 -3,-1c-8.57216,-5.71477 -21.42251,-1.6179 -31,-1c-53.19888,3.43219 -101.84584,-3.30764 -154,-12" fill="none" stroke="black" stroke-linecap="round" stroke-width="5"/>
	<path d="M38,115c13.11127,1.45681 72.50189,-3.74716 83,12c1.82675,2.74013 -20.17326,111.00817 -21,119c-0.92863,8.97675 -2,17.97534 -2,27c0,1.34887 -0.93025,8 1,8" fill="none" stroke="black" stroke-linecap="round" stroke-width="5"/>
	<path d="M224,104c18.3291,1.22194 62.4356,-3.82513 76,12c1.37024,1.59862 -9.5887,51.00225 -10,53c-4.13343,20.07668 -6.10274,40.71918 -9,61c-0.80691,5.6484 -1.29229,11.33831 -2,17c-0.24334,1.94669 -1,10.91864 -1,10" fill="none" stroke="black" stroke-linecap="round" stroke-width="5"/>
	<path d="M123,150c0,22.66107 4,45.71222 4,68c0,0.40728 -0.2495,3.87525 0,4c5.81174,2.90587 53.9721,-3.66853 64,-3c9.89128,0.65942 26.81217,0.60406 37,4c6.87799,2.29266 13.63164,4 21,4c0.74526,0 3.70173,2.59653 4,2c3.76981,-7.53961 -5.36013,-52.40201 -6,-62c-0.39973,-5.99594 -0.45595,-12.01543 -1,-18c-0.09054,-0.99589 0,-4 0,-3" fill="none" stroke="black" stroke-linecap="round" stroke-width="5"/>
	<path d="M258,159c-23.68952,27.07373 -53.75939,54.79696 -61,91" fill="none" stroke="black" stroke-linecap="round" stroke-width="5"/>
	<path d="M144,179c0,26.52965 6,52.25139 6,79" fill="none" stroke="black" stroke-linecap="round" stroke-width="5"/>
</svg>
