<?xml version="1.0" ?>
<svg baseProfile="full" height="300" version="1.1" viewBox="[0, 0, 300, 300]" width="300" xmlns="http://www.w3.org/2000/svg" xmlns:ev="http://www.w3.org/2001/xml-events" xmlns:xlink="http://www.w3.org/1999/xlink">
	<defs/>
	<path d="M55,42c1.94681,19.46813 17.89028,108.89028 30,121c1.17555,1.17555 9.71284,-0.94933 10,-1c23.39859,-4.12916 47.14493,-8 71,-8c4.01386,0 7.99306,0.7643 12,1c20.51446,1.20673 40.56441,-1 61,-1c3,0 9,3 9,0c0,-5.73867 -2.71424,-96.71424 -4,-98c-9.21954,-9.21954 -25.97259,-2.46463 -39,-3c-39.60167,-1.62747 -80.33616,-2.01702 -120,-1c-3.59821,0.09226 -30,1.68311 -30,4" fill="none" stroke="black" stroke-linecap="round" stroke-width="5"/>
	<path d="M57,41c-4.28846,18.86921 -8.19775,33.77596 -10,53c-0.99612,10.62528 -0.51542,21.33913 -1,32c-0.86727,19.07985 -13.67996,130.32004 2,146" fill="none" stroke="black" stroke-linecap="round" stroke-width="5"/>
	<path d="M269,41c-12.49031,43.71609 -8.40567,92.30948 -17,137c-2.82075,14.66788 -6,25.68403 -6,40c0,3.66667 0,11 0,11c0,0 0.86429,-25.21804 1,-28c1.49014,-30.54794 3.71556,-60.61894 7,-91c1.18447,-10.95634 2,-21.97982 2,-33c0,-3.33333 0,-6.66667 0,-10c0,-2.35702 -0.66667,-8.66667 1,-7c7.72839,7.72839 2.32906,43.91232 2,50c-1.78508,33.02402 2.23999,66.14675 0,99c-0.76181,11.17328 -4,20.96269 -4,32" fill="none" stroke="black" stroke-linecap="round" stroke-width="5"/>
	<path d="M101,50c-17.10742,45.6198 -28.26837,92.30388 -39,140c-1.26697,5.631 -5.3955,49.3955 -7,51c-1.18471,1.18471 -2.94446,-3.55569 -3,-4c-1.07497,-8.59974 -0.45551,-17.34531 0,-26c1.31247,-24.93693 1.74414,-50.18549 4,-75c0.88893,-9.77819 1,-19.23146 1,-29c0,-1.24757 -2.03147,-12.03147 0,-10" fill="none" stroke="black" stroke-linecap="round" stroke-width="5"/>
	<path d="M61,192c15.9665,15.9665 44.60881,36.8044 65,47c0.29814,0.14907 0.66667,0 1,0c8.86079,0 50.08463,-11.94511 57,-13c6.63384,-1.01194 35.69139,-5.06285 46,-6c2.03514,-0.18501 10.01167,1.42024 12,0c11.34546,-8.1039 22.68576,-19.8992 33,-29" fill="none" stroke="black" stroke-linecap="round" stroke-width="5"/>
	<path d="M50,195c32.49106,0 59.62806,17 93,17c62.98789,0 119.26874,-10.46167 181,6" fill="none" stroke="black" stroke-linecap="round" stroke-width="5"/>
</svg>
