<?xml version="1.0" ?>
<svg baseProfile="full" height="300" version="1.1" viewBox="[0, 0, 300, 300]" width="300" xmlns="http://www.w3.org/2000/svg" xmlns:ev="http://www.w3.org/2001/xml-events" xmlns:xlink="http://www.w3.org/1999/xlink">
	<defs/>
	<path d="M48,106c0,-34.61447 6.97152,-77.26348 56,-70c12.68514,1.87928 25.20302,5.17439 38,6c15.90856,1.02636 31.18183,2.10182 47,4c25.82536,3.09904 32.37654,0.57099 37,26c1.81197,9.96586 5.06943,23.65284 3,34c-0.56179,2.80895 -0.39074,15.39074 -2,17c-0.94281,0.94281 -2.69842,0.28924 -4,0c-18.45392,-4.10087 -36.05313,-10.2137 -55,-13c-45.50091,-6.69131 -89.41576,-8 -135,-8" fill="none" stroke="black" stroke-linecap="round" stroke-width="5"/>
	<path d="M73,107c-15.6812,47.0436 25.10848,130.5187 29,185" fill="none" stroke="black" stroke-linecap="round" stroke-width="5"/>
	<path d="M210,80c27.54673,64.2757 43.13689,133.34222 69,198" fill="none" stroke="black" stroke-linecap="round" stroke-width="5"/>
	<path d="M78,162c36.12862,12.75128 75.08124,12 113,12c15.57395,0 27.98447,-7.63495 43,-9c1.58854,-0.14441 3.18048,-0.63903 4,1c4.56079,9.12159 -2.57254,27.02333 -3,36c-0.24722,5.19158 4.73386,35.26614 0,40c-1.06781,1.06781 -25.0527,-6.56657 -28,-7c-15.39812,-2.26443 -94.79414,-7.89707 -103,-12c-8.82685,-4.41343 -16.55072,-30.24396 -19,-38c-1.40886,-4.46139 -5.18463,-16.09231 -1,-14" fill="none" stroke="black" stroke-linecap="round" stroke-width="5"/>
	<path d="M127,161c-32.22583,36.25406 -78.12543,65.18054 -118,93c-8.54216,5.95965 -15.2397,7.2397 -22,14" fill="none" stroke="black" stroke-linecap="round" stroke-width="5"/>
</svg>
