<?xml version="1.0" ?>
<svg baseProfile="full" height="300" version="1.1" viewBox="[0, 0, 300, 300]" width="300" xmlns="http://www.w3.org/2000/svg" xmlns:ev="http://www.w3.org/2001/xml-events" xmlns:xlink="http://www.w3.org/1999/xlink">
	<defs/>
	<path d="M49,26c5.52817,33.16901 6.89177,66.79654 12,100c1.13025,7.34666 -1.12541,30.87459 4,36c2.13666,2.13666 3.94377,-0.11876 6,-1c28.03402,-12.01458 64.22673,-14.56953 94,-17c2.89569,-0.23638 79.931,1.069 80,1c1.20185,-1.20185 -0.46252,-3.38755 -1,-5c-5.36974,-16.10921 -10.32695,-30.10398 -14,-47c-1.51374,-6.96321 -2.45419,-14.04383 -4,-21c-4.8488,-21.81959 -9.28323,-35.16772 -7,-58c0.06174,-0.61738 0.44447,-4.55553 0,-5c-1.04245,-1.04245 -4.07749,4.26199 -5,5c-6.50096,5.20077 -12.50968,6.87742 -21,9c-24.01893,6.00473 -49.75389,0.88168 -74,0c-22.87055,-0.83166 -44.2859,-1.10716 -67,-3c-5.36415,-0.44701 -31.27384,3 -22,3" fill="none" stroke="black" stroke-linecap="round" stroke-width="5"/>
	<path d="M54,19c-5.51342,60.64767 -12,120.55044 -12,182c0,13.24557 -3.94445,54.05555 4,62" fill="none" stroke="black" stroke-linecap="round" stroke-width="5"/>
	<path d="M235,48c0,33.42914 -3.44,66.75553 2,100c6.27438,38.34346 20.25949,76.12446 29,114" fill="none" stroke="black" stroke-linecap="round" stroke-width="5"/>
	<path d="M55,184c4.20006,12.60019 9.86232,29.86232 19,39c6.29585,6.29585 26.59285,6.25714 34,8c18.33606,4.31437 29.39462,14.88161 49,9c11.81319,-3.54396 23.16324,-8.53558 35,-12c5.67285,-1.66035 36.97924,-5.46886 42,-13c9.6078,-14.41169 7,-37.90141 7,-54" fill="none" stroke="black" stroke-linecap="round" stroke-width="5"/>
	<path d="M71,204c26.77447,0 53.09862,5.7829 80,3c51.47551,-5.32505 113.0745,-26.65425 165,-18" fill="none" stroke="black" stroke-linecap="round" stroke-width="5"/>
</svg>
