<?xml version="1.0" ?>
<svg baseProfile="full" height="300" version="1.1" viewBox="[0, 0, 300, 300]" width="300" xmlns="http://www.w3.org/2000/svg" xmlns:ev="http://www.w3.org/2001/xml-events" xmlns:xlink="http://www.w3.org/1999/xlink">
	<defs/>
	<path d="M50,39c-3.34301,28.41559 -4.00084,57.49199 -1,86c0.12304,1.16885 2.70097,26.67524 4,27c18.95304,4.73826 69.35721,-6.34962 95,-5c14.86074,0.78214 83.04175,7.95825 93,-2c0.2357,-0.2357 0,-0.66667 0,-1c0,-11.52696 -5.37361,-101.6868 -18,-108c-3.64548,-1.82274 -9.01283,2.43101 -12,3c-15.19012,2.89336 -30.63567,4.25405 -46,6c-47.967,5.4508 -98.7504,0 -147,0" fill="none" stroke="black" stroke-linecap="round" stroke-width="5"/>
	<path d="M35,161c62.90524,-25.1621 73.08182,-6.71138 68,53c-2.02848,23.83469 -3,47.61982 -3,71" fill="none" stroke="black" stroke-linecap="round" stroke-width="5"/>
	<path d="M180,135c12.64956,0 92,-4.21523 92,20c0,29.71631 -20.79125,68.95623 -27,100c-0.19258,0.96288 -4.17634,23 -1,23" fill="none" stroke="black" stroke-linecap="round" stroke-width="5"/>
	<path d="M96,208c17.08043,-6.40516 97.53965,-30.23017 116,-21c4.34102,2.17051 2.60538,9.35128 4,14c0.74774,2.49246 12.74876,50.25124 10,53c-0.94281,0.94281 -2.66667,0 -4,0c-14.39464,0 -30.38853,-6.60843 -45,-8c-3.63539,-0.34623 -19.82964,-4.58518 -25,-2c-6.28386,3.14193 -6.90454,12.39698 -15,7c-0.62017,-0.41345 -1.55279,-0.40372 -2,-1c-7.37571,-9.83428 -14.78814,-20.69734 -22,-31c-0.80618,-1.15169 -6.93281,-15.93281 -4,-13" fill="none" stroke="black" stroke-linecap="round" stroke-width="5"/>
</svg>
