<?xml version="1.0" ?>
<svg baseProfile="full" height="300" version="1.1" viewBox="[0, 0, 300, 300]" width="300" xmlns="http://www.w3.org/2000/svg" xmlns:ev="http://www.w3.org/2001/xml-events" xmlns:xlink="http://www.w3.org/1999/xlink">
	<defs/>
	<path d="M42,69c16.40601,-4.68743 32.07789,-12.02921 48,-18c33.87872,-12.70452 94.95032,-11.21987 128,2c13.55968,5.42387 24.27932,15.63966 37,22" fill="none" stroke="black" stroke-linecap="round" stroke-width="5"/>
	<path d="M53,67c-14.27139,128.44252 137.33143,56.55619 202,35c16.77215,-5.59072 38.3359,-20 56,-20" fill="none" stroke="black" stroke-linecap="round" stroke-width="5"/>
	<path d="M229,60c11.15323,13.0121 21.15428,22.02665 28,38" fill="none" stroke="black" stroke-linecap="round" stroke-width="5"/>
	<path d="M82,111c-12.23993,65.27964 -29,129.03799 -29,196" fill="none" stroke="black" stroke-linecap="round" stroke-width="5"/>
	<path d="M267,94c0,33.60725 -4.60201,67.35787 -3,101c1.49938,31.48706 5.50109,63.49022 2,95" fill="none" stroke="black" stroke-linecap="round" stroke-width="5"/>
	<path d="M123,181c-2.36336,14.18017 -14.17408,49.23888 -5,63c8.5431,12.81464 40.78483,1.39289 51,1c5.91141,-0.22736 59.52147,3.2178 65,-5c2.08146,-3.1222 -4.32546,-20.27821 -5,-25c-1.61486,-11.30404 -5.03975,-23.56278 -4,-35c0.27823,-3.06056 4.74874,-7.62563 2,-9c-2.1706,-1.0853 -6.59763,2.82117 -7,3c-17.20173,7.64521 -41.85385,5.44462 -60,7c-4.80071,0.41149 -60,5.63894 -60,11" fill="none" stroke="black" stroke-linecap="round" stroke-width="5"/>
	<path d="M130,196c-20.04771,8.59188 -36.64256,23.11535 -56,33c-16.77038,8.5636 -35.63899,14.55957 -53,22c-21.29055,9.12452 -50.70566,7.70566 -68,25" fill="none" stroke="black" stroke-linecap="round" stroke-width="5"/>
	<path d="M215,190c44.07184,34.79356 103.63676,84.09081 164,69" fill="none" stroke="black" stroke-linecap="round" stroke-width="5"/>
</svg>
