<?xml version="1.0" ?>
<svg baseProfile="full" height="300" version="1.1" viewBox="[0, 0, 300, 300]" width="300" xmlns="http://www.w3.org/2000/svg" xmlns:ev="http://www.w3.org/2001/xml-events" xmlns:xlink="http://www.w3.org/1999/xlink">
	<defs/>
	<path d="M53,113c0,-7.27994 -5.14312,-38.28503 -3,-44c7.48789,-19.96771 37.76884,-20.25628 58,-27c14.99201,-4.99734 74.14914,-17.46781 88,1c6.53814,8.71751 7.4188,30.24928 9,40c1.29411,7.98032 8.09519,36.80963 3,47c-2.19743,4.39487 -30.38431,1 -42,1c-28.61163,0 -57.69769,-0.28295 -86,-5c-20.30594,-3.38432 -42.42731,-13 -63,-13" fill="none" stroke="black" stroke-linecap="round" stroke-width="5"/>
	<path d="M108,100c-30.58518,42.81926 -67.47131,80.66895 -98,124c-11.4854,16.30186 -25.746,31.865 -33,50" fill="none" stroke="black" stroke-linecap="round" stroke-width="5"/>
	<path d="M15,134c35.53904,50.77006 60.21568,116.0112 112,153" fill="none" stroke="black" stroke-linecap="round" stroke-width="5"/>
	<path d="M226,111c0,57.97631 20.60968,109.21936 46,160" fill="none" stroke="black" stroke-linecap="round" stroke-width="5"/>
	<path d="M79,138c0,10.66667 -0.42633,21.34186 0,32c0.20524,5.13092 4.04982,54.83177 12,57c22.37569,6.10246 51.95554,-4.65484 74,-7c8.7353,-0.92929 25.66249,-3.55834 34,2c0.41186,0.27457 3.69215,0.30785 4,0c2.13475,-2.13475 0.77592,-20.25496 1,-23c1.06083,-12.99518 2.39887,-25.97546 3,-39c0.49202,-10.66053 0.75445,-21.47333 -1,-32c-0.3533,-2.11977 -2.27953,-7 -1,-7" fill="none" stroke="black" stroke-linecap="round" stroke-width="5"/>
</svg>
