<?xml version="1.0" ?>
<svg baseProfile="full" height="300" version="1.1" viewBox="[0, 0, 300, 300]" width="300" xmlns="http://www.w3.org/2000/svg" xmlns:ev="http://www.w3.org/2001/xml-events" xmlns:xlink="http://www.w3.org/1999/xlink">
	<defs/>
	<path d="M64,36c-3.09831,21.68819 -17.44108,116.55892 -1,133c5.27848,5.27848 53.88989,-4.35119 62,-5c20.05646,-1.60452 39.93055,-1.05629 60,0c28.9194,1.52207 47.84803,14.36773 52,-23c1.34375,-12.09371 0.54673,-109.55808 -8,-112c-14.46745,-4.13356 -30.36402,-1.39557 -45,-1c-32.06947,0.86674 -64.02671,0.13155 -96,-2c-4.60995,-0.30733 -40,-5.66554 -40,8" fill="none" stroke="black" stroke-linecap="round" stroke-width="5"/>
	<path d="M49,35c-1.54676,29.3885 -6.63766,57.85973 -10,87c-3.10609,26.91944 0.70879,54.06584 0,81c-0.44176,16.78698 -13.46599,61.06802 -6,76" fill="none" stroke="black" stroke-linecap="round" stroke-width="5"/>
	<path d="M275,52c-10.67475,35.58249 -20,73.58638 -20,111c0,46.97675 13.8538,95.16964 8,142" fill="none" stroke="black" stroke-linecap="round" stroke-width="5"/>
	<path d="M71,195c0,10.65161 -3.20653,32.58694 2,43c3.65636,7.31273 29.34794,9.93567 36,11c18.69615,2.99138 35.99736,6.1178 55,5c8.73743,-0.51397 52.04948,-1.04948 55,-4c3.40441,-3.40441 -4.3807,-23.67763 -5,-26c-1.87581,-7.0343 -3.76499,-14.07146 -6,-21c-0.91733,-2.84374 -10.02308,-24.02308 -8,-22" fill="none" stroke="black" stroke-linecap="round" stroke-width="5"/>
	<path d="M66,229c48.38867,0 139.74324,-23.1027 180,-7" fill="none" stroke="black" stroke-linecap="round" stroke-width="5"/>
</svg>
