<?xml version="1.0" ?>
<svg baseProfile="full" height="300" version="1.1" viewBox="[0, 0, 300, 300]" width="300" xmlns="http://www.w3.org/2000/svg" xmlns:ev="http://www.w3.org/2001/xml-events" xmlns:xlink="http://www.w3.org/1999/xlink">
	<defs/>
	<path d="M49,118c2.50418,-22.53763 -1.5923,-44.49275 -1,-67c0.22816,-8.67007 1.78522,-17.36254 1,-26c-0.21339,-2.34734 -3.35702,-7 -1,-7c4.88328,0 17.67207,3.81183 22,4c44.99949,1.9565 89.99564,3.33317 135,5c10.72934,0.39738 53.66282,-5.33718 61,2c0.91975,0.91975 -0.7226,4.44521 -1,5c-8.9948,17.9896 -13.25924,38.99935 -14,59c-0.25151,6.79076 -0.7591,62.7591 -4,66c-3.94158,3.94158 -8.90859,-6.38172 -12,-7c-11.67152,-2.3343 -24.10338,-5.16975 -36,-7c-25.40684,-3.90874 -51.44499,-4.16055 -77,-7c-19.11692,-2.1241 -37.63888,-7 -57,-7" fill="none" stroke="black" stroke-linecap="round" stroke-width="5"/>
	<path d="M74,166c0,22.16274 -5.71424,44.14836 19,47c24.59504,2.83789 49.2903,2.04963 74,3c13.10805,0.50416 74.8149,-2.8149 83,-11c2.848,-2.848 -3.33333,-7.33333 -5,-11c-2.5695,-5.6529 -5.02805,-21.02805 -9,-25c-5.95833,-5.95833 -98.42296,2.51116 -106,3c-12.97729,0.83724 -25.99573,1 -39,1c-0.64593,0 -27.75329,-4.50657 -26,-1" fill="none" stroke="black" stroke-linecap="round" stroke-width="5"/>
	<path d="M69,174c-2.48006,42.16095 -14,82.558 -14,125" fill="none" stroke="black" stroke-linecap="round" stroke-width="5"/>
	<path d="M59,120c-5.80983,26.14425 -22.25901,48.27287 -32,73c-13.38374,33.97411 -25.95078,70.82772 -36,106" fill="none" stroke="black" stroke-linecap="round" stroke-width="5"/>
	<path d="M229,170c0,49.15263 14.3939,99.9695 24,148" fill="none" stroke="black" stroke-linecap="round" stroke-width="5"/>
	<path d="M257,159c12.49198,17.48878 57,74.40157 57,97" fill="none" stroke="black" stroke-linecap="round" stroke-width="5"/>
</svg>
