<?xml version="1.0" ?>
<svg baseProfile="full" height="300" version="1.1" viewBox="[0, 0, 300, 300]" width="300" xmlns="http://www.w3.org/2000/svg" xmlns:ev="http://www.w3.org/2001/xml-events" xmlns:xlink="http://www.w3.org/1999/xlink">
	<defs/>
	<path d="M80,27c-0.75817,13.64709 -11.27955,142.4409 -8,149c0.14907,0.29814 0.70186,-0.14907 1,0c24.09523,12.04761 85.63905,-8 116,-8c9.4992,0 85.94631,0.05369 90,-4c0.74536,-0.74536 -0.76298,-1.9729 -1,-3c-5.0928,-22.06881 -8.34499,-44.00829 -14,-66c-3.16225,-12.29763 -6.8542,-25.39615 -8,-38c-0.0743,-0.81733 1.35337,-24.82331 1,-25c-5.46701,-2.73351 -42.84775,11.87123 -51,13c-50.58249,7.00373 -100.70009,-1 -151,-1" fill="none" stroke="black" stroke-linecap="round" stroke-width="5"/>
	<path d="M52,38c5.31532,37.20722 3.61289,74.54803 5,112c0.5069,13.68617 2,27.30164 2,41c0,5.33333 0,10.66667 0,16c0,2 -0.39223,7.96116 0,6c5.5105,-27.55249 11.24409,-54.09899 15,-82c3.49784,-25.98392 -4.96547,-63.06907 7,-87c2.83235,-5.66471 0.13765,12.66816 0,19c-0.21022,9.67013 -0.57986,19.33672 -1,29c-1.29754,29.84331 -6.99447,58.6819 -12,88c-1.47857,8.66017 -2,14.09898 -2,22c0,1.33333 0.42164,5.26491 0,4c-6.71043,-20.1313 2.2904,-45.77641 3,-66c0.30413,-8.66774 -0.23769,-17.36049 -1,-26c-0.44817,-5.07929 -1.76331,-10.05322 -3,-15c-0.25565,-1.02262 -1,-4.05409 -1,-3c0,14.7396 -17.68772,129.31228 -9,138" fill="none" stroke="black" stroke-linecap="round" stroke-width="5"/>
	<path d="M277,60c3.06256,30.62563 2.84526,61.54411 -2,92c-2.17831,13.69223 -4.96819,27.28526 -7,41c-0.73923,4.98979 -1.52176,9.97847 -2,15c-0.31603,3.31832 0,13.33333 0,10c0,-35.65412 13,-71.52876 13,-108c0,-5.66667 0,-11.33333 0,-17c0,-10.30215 3,-19.91344 3,-30c0,-2 0,-6 0,-6c0,0 -1.41144,4.64575 -2,7c-2.27662,9.10649 -2.22047,18.64567 -3,28c-2.72347,32.6816 -8,68.42409 -8,101" fill="none" stroke="black" stroke-linecap="round" stroke-width="5"/>
	<path d="M82,170c-0.47949,3.3564 -3.09731,13.90269 0,17c13.41059,13.41059 90.41113,43.29443 101,38c25.6555,-12.82775 51.28071,-19.09357 78,-28c10.18906,-3.39635 33.5416,-38.2292 40,-35" fill="none" stroke="black" stroke-linecap="round" stroke-width="5"/>
	<path d="M246,211c-41.85571,2.61598 -83.25084,4.28094 -125,10c-15.09423,2.0677 -29.90451,5.94152 -45,8c-6.4979,0.88608 -12.54348,1 -19,1c-0.33333,0 -1.33333,0 -1,0c46.70879,0 91.59464,0.23356 138,-6c12.66212,-1.70088 25.2817,-3.78873 38,-5c3.6652,-0.34907 7.32637,-0.75509 11,-1c2.66076,-0.17738 10.66667,0 8,0c-29.14122,0 -58.80761,2.57797 -88,1c-13.04915,-0.70536 -26.05605,-2.20223 -39,-4c-11.07404,-1.53806 -22.05295,-3.72797 -33,-6c-6.72845,-1.39647 -13.33333,-3.33333 -20,-5c-0.77582,-0.19395 -9,-3 -9,-3c0,0 0.66667,0 1,0c14.36817,0 28.68314,1.78671 43,3c40.63811,3.44391 76.8753,-0.86672 117,-8c8.30904,-1.47716 16.6347,-2.88463 25,-4c0.50152,-0.06687 9,0.0436 9,0c0,-6.14636 -11.88671,-3.3632 -18,-4c-28.28504,-2.94636 -56.64239,-1.68104 -85,-3c-6.37778,-0.29664 -23.88215,-1.54119 -32,-1c-0.8639,0.05759 -10.50379,1.49621 -9,3c14.64618,14.64618 137.6549,17.66453 167,23" fill="none" stroke="black" stroke-linecap="round" stroke-width="5"/>
</svg>
