<?xml version="1.0" ?>
<svg baseProfile="full" height="300" version="1.1" viewBox="[0, 0, 300, 300]" width="300" xmlns="http://www.w3.org/2000/svg" xmlns:ev="http://www.w3.org/2001/xml-events" xmlns:xlink="http://www.w3.org/1999/xlink">
	<defs/>
	<path d="M32,23c2.57679,0 -0.18828,19.81172 1,21c6.01761,6.01761 69.02958,12.71349 79,14c23.30421,3.007 45.61868,5 69,5c12.37469,0 23.7804,-0.88913 36,-2c13.13677,-1.19425 37.1226,3.9387 49,-2c1.7991,-0.89955 -3.4608,-6.4608 -4,-7c-5.62478,-5.62478 -7.85672,-20.28567 -15,-21c-35.99429,-3.59943 -72.94223,-3.39422 -109,-7c-15.77509,-1.57751 -32.31963,2.24005 -48,0c-8.61456,-1.23065 -52.27864,-8.72136 -59,-2" fill="none" stroke="black" stroke-linecap="round" stroke-width="5"/>
	<path d="M33,46c2.34608,0 7.42596,17.73347 10,27c10.09014,36.32452 26,93.62999 26,132" fill="none" stroke="black" stroke-linecap="round" stroke-width="5"/>
	<path d="M67,51c0,26.47064 -0.50018,53.74868 3,80c1.41481,10.61104 9,22.82892 9,33" fill="none" stroke="black" stroke-linecap="round" stroke-width="5"/>
	<path d="M87,59c1.41421,0 2.5841,1.64832 3,3c8.24144,26.78469 4.41386,56.6279 10,84c3.66825,17.9744 10.53283,35.50507 16,53c3.45365,11.05168 3,4.55491 3,-2" fill="none" stroke="black" stroke-linecap="round" stroke-width="5"/>
	<path d="M117,60c11.99757,0 20.95158,87.97728 24,102c0.80019,3.68085 11,53.84302 11,42" fill="none" stroke="black" stroke-linecap="round" stroke-width="5"/>
	<path d="M148,62c10.68775,0 8.55964,26.73213 10,42c1.8185,19.27609 3.26352,38.84467 6,58c1.54734,10.83135 11,20.31252 11,31" fill="none" stroke="black" stroke-linecap="round" stroke-width="5"/>
	<path d="M178,69c10.31698,20.63397 8.98371,45.91042 13,68c4.39248,24.15864 11.66025,47.50853 15,72c0.23207,1.70185 13.32887,67.46655 9,35c-0.39893,-2.99198 -0.66667,-6 -1,-9" fill="none" stroke="black" stroke-linecap="round" stroke-width="5"/>
	<path d="M197,69c0,-0.74536 1.29289,-1.2357 2,-1c6.89643,2.29881 12.03524,20.78981 14,25c2.64843,5.67521 5.85974,11.11429 8,17c8.5015,23.37914 14.15113,49.36722 18,74c2.2964,14.69694 1.22478,33.44955 8,47" fill="none" stroke="black" stroke-linecap="round" stroke-width="5"/>
	<path d="M250,63c5.05721,0 7.614,35.00853 8,38c3.46555,26.85803 2.49184,65.98367 15,91" fill="none" stroke="black" stroke-linecap="round" stroke-width="5"/>
</svg>
