<?xml version="1.0" ?>
<svg baseProfile="full" height="300" version="1.1" viewBox="[0, 0, 300, 300]" width="300" xmlns="http://www.w3.org/2000/svg" xmlns:ev="http://www.w3.org/2001/xml-events" xmlns:xlink="http://www.w3.org/1999/xlink">
	<defs/>
	<path d="M26,27c20.78937,20.78937 46.55893,133.10267 35,162c-4.48416,11.2104 -30,57.65327 -30,65" fill="none" stroke="black" stroke-linecap="round" stroke-width="5"/>
	<path d="M62,185c50.53939,0 101.21104,-3 152,-3c9.97616,0 28.30836,-3.34582 37,1c0.31567,0.15783 4.9714,0.08579 5,0c4.63674,-13.91021 -2,-67.80367 -2,-87c0,-9.51816 6.36427,-64.63573 1,-70c-5.74147,-5.74147 -39.85429,-1 -46,-1c-46.56346,0 -93.85949,2.19459 -140,-2c-4.60065,-0.41824 -42,-3.44914 -42,5" fill="none" stroke="black" stroke-linecap="round" stroke-width="5"/>
	<path d="M58,41c0,-4.47846 0.03317,-0.04022 -1,9c-1.88785,16.5187 -2.92041,21.96539 -4,36c-0.05113,0.6647 -0.66667,2 0,2c5.94883,0 14.36407,-21.52306 19,-25c0.53333,-0.4 1.64667,-0.56533 2,0c8.71486,13.94378 0.03132,39.03132 11,50c0.4714,0.4714 1.5286,0.4714 2,0c11.14442,-11.14442 17.69109,-25.58812 27,-38c2.69072,-3.58763 9.12051,-13.39745 10,-9c3.66622,18.33108 -16.74481,49.31743 -15,72c0.31207,4.05687 6.93175,-4.32766 10,-7c7.66134,-6.67278 14.81113,-13.9863 23,-20c9.53586,-7.0029 49.75595,-36.25198 67,-42c0.70711,-0.2357 -0.77117,1.29064 -1,2c-3.10732,9.6327 -6.09161,19.30538 -9,29c-1.09209,3.6403 -2.20367,7.28378 -3,11c-0.20953,0.9778 -0.83205,3.5547 0,3c6.49852,-4.33235 9.95503,-12.03776 15,-18c0.609,-0.71973 2.20452,-2.92036 2,-2c-0.82288,3.70297 -11.27288,25.15141 -7,28c3.16228,2.10819 5.15427,-5.67769 7,-9c2.02836,-3.65105 4.04579,-7.30872 6,-11c1.74371,-3.29368 3.33333,-6.66667 5,-10" fill="none" stroke="black" stroke-linecap="round" stroke-width="5"/>
	<path d="M247,24c3.50542,3.50542 8.25294,2.42157 11,7c13.96777,23.27962 7.06179,47.80327 9,73c3.10915,40.41891 28.97892,134.04216 10,172" fill="none" stroke="black" stroke-linecap="round" stroke-width="5"/>
	<path d="M48,224c45.55046,15.18349 125.75083,2.7372 175,4c16.73764,0.42917 23.5535,7.06919 39,9c20.43215,2.55402 39.07113,-1.46444 58,8" fill="none" stroke="black" stroke-linecap="round" stroke-width="5"/>
	<path d="M186,213c0,-2.4267 -4.5733,-2 -7,-2c-33.54431,0 -49.23469,0.23329 -85,-1c-12.344,-0.42566 -24.66699,-1.32729 -37,-2c-6.00033,-0.32729 -11.99695,-0.72713 -18,-1c-1.37295,-0.06241 -5.14354,-0.23764 -4,-1c1.75412,-1.16941 6,-4.10819 6,-2c0,21.21134 77.17476,13.86947 94,12c11.89435,-1.32159 23.28916,-5.53456 35,-8c11.7946,-2.48307 21.87799,-0.14633 33,-2c4.06405,-0.67734 20.9822,-16.0178 23,-14c5.9998,5.9998 0.75967,27.58656 11,31c22.49517,7.49839 40,-54.86218 40,-13" fill="none" stroke="black" stroke-linecap="round" stroke-width="5"/>
</svg>
