<?xml version="1.0" ?>
<svg baseProfile="full" height="300" version="1.1" viewBox="[0, 0, 300, 300]" width="300" xmlns="http://www.w3.org/2000/svg" xmlns:ev="http://www.w3.org/2001/xml-events" xmlns:xlink="http://www.w3.org/1999/xlink">
	<defs/>
	<path d="M31,16c9.61194,9.61194 8.4047,30.41646 12,43c0.46694,1.63428 -0.66667,4.66667 1,5c12.87523,2.57505 30.54895,-2.58511 43,-4c51.20038,-5.81823 77.15055,-4.26275 126,2c7.3621,0.94386 48.62747,9.37253 59,-1c0.97183,-0.97183 -0.56539,-2.69616 -1,-4c-5.0512,-15.15361 -4.96774,-42.96774 -16,-54c-3.61088,-3.61088 -42.47934,-0.01765 -43,0c-36.94058,1.25222 -72.26362,-0.58706 -109,-2c-18.41329,-0.7082 -36.90837,-0.61833 -55,3c-3.52409,0.70482 -30.18291,8 -21,8" fill="none" stroke="black" stroke-linecap="round" stroke-width="5"/>
	<path d="M46,60c12.90632,38.71895 21,85.69068 21,127" fill="none" stroke="black" stroke-linecap="round" stroke-width="5"/>
	<path d="M81,62c0,38.67017 5.81842,80.5295 10,119c1.22513,11.27115 1.62269,25 3,25" fill="none" stroke="black" stroke-linecap="round" stroke-width="5"/>
	<path d="M100,52c0,34.99373 15.26962,72.61774 21,107c1.88323,11.29937 2.95083,22.72955 5,34c0.69793,3.83863 3.05373,14.78508 4,11c1.05409,-4.21637 0.46093,-8.68743 1,-13" fill="none" stroke="black" stroke-linecap="round" stroke-width="5"/>
	<path d="M129,47c0,43.15809 22,101.68034 22,144" fill="none" stroke="black" stroke-linecap="round" stroke-width="5"/>
	<path d="M166,51c8.64979,25.94937 5.66042,57.87765 10,85c2.66614,16.66339 12,41.53457 12,59" fill="none" stroke="black" stroke-linecap="round" stroke-width="5"/>
	<path d="M188,67c0,-4.50584 7.28158,26.33027 8,31c3.69284,24.00348 5.28016,48.3035 11,72c5.89577,24.42532 5,7.97025 5,-2" fill="none" stroke="black" stroke-linecap="round" stroke-width="5"/>
	<path d="M227,70c22.43194,22.43194 17.11842,75.34449 28,107c2.81333,8.18422 15,26.70551 15,35" fill="none" stroke="black" stroke-linecap="round" stroke-width="5"/>
	<path d="M56,194c1.4816,0 49.40684,17.94509 56,19c32.38618,5.18179 68.24024,4.55999 101,3c28.51763,-1.35798 57.34245,-6.20443 86,-4c0.95326,0.07333 13.47212,2.05577 13,3c-8.74412,17.48824 -14.14322,32.71612 -18,52c-0.13533,0.67666 -1.15315,2.57658 -2,3c-2.54733,1.27366 -5.34183,-1.97763 -8,-3c-11.46266,-4.40872 -23.23713,-7.5147 -35,-11c-29.07758,-8.61558 -56.9309,-8.91118 -87,-8c-23.66892,0.71724 -47.30087,1 -71,1c-10,0 -20,0 -30,0c-3.33333,0 -10.4714,3.29983 -10,0c2.21027,-15.47189 15.11972,-33.76056 8,-48" fill="none" stroke="black" stroke-linecap="round" stroke-width="5"/>
	<path d="M72,218c0,0.88086 2.13823,3.93994 4,4c23.02664,0.74279 46.01674,-2.40394 69,-4c10.64623,-0.73932 21.33182,-0.71926 32,-1c1.99931,-0.05261 6.22086,-1.98777 6,0c-1.07509,9.67584 -11.91835,15.39794 -18,23c-3.12348,3.90434 -13.85071,10.78732 -9,12c16.25587,4.06397 36.44969,-5.95003 54,-4c4.60249,0.51139 7.82238,5.00201 12,7c14.53859,6.95324 39.5598,11.19074 53,13c25.14174,3.38447 28.3801,-6.14029 35,-26c1.63255,-4.89764 -22.17349,-2.86334 -26,-3c-8.00184,-0.28578 -15.9948,-0.83322 -24,-1c-33.73398,-0.70279 -65.12192,7 -98,7c-1.41421,0 -3,1.58579 -3,3" fill="none" stroke="black" stroke-linecap="round" stroke-width="5"/>
</svg>
