<?xml version="1.0" ?>
<svg baseProfile="full" height="300" version="1.1" viewBox="[0, 0, 300, 300]" width="300" xmlns="http://www.w3.org/2000/svg" xmlns:ev="http://www.w3.org/2001/xml-events" xmlns:xlink="http://www.w3.org/1999/xlink">
	<defs/>
	<path d="M37,66c4.66685,0 49.97512,-15.42146 59,-18c29.18795,-8.33941 67.54939,-4 98,-4c11.067,0 50,9.69708 50,26" fill="none" stroke="black" stroke-linecap="round" stroke-width="5"/>
	<path d="M38,68c6.59341,0 6.23356,4.23356 10,8c27.19401,27.19401 3.95235,80.95235 12,89c2.29828,2.29828 76.01963,-4.19607 87,-2c24.60999,4.922 48.95788,10.65731 73,16c10.14876,2.25528 17.90632,9 28,9c1.66667,0 5,1.66667 5,0c0,-14.44377 -9.70996,-93.41992 -17,-108c-2.96428,-5.92856 6,-11.19921 6,-15" fill="none" stroke="black" stroke-linecap="round" stroke-width="5"/>
	<path d="M238,60c2.5582,0 18.05625,42.72375 20,47c31.29878,68.85732 -11,103.24688 -11,164" fill="none" stroke="black" stroke-linecap="round" stroke-width="5"/>
	<path d="M37,65c24.85494,0 33.90787,17.32011 42,38c10.30219,26.32782 35.08502,137.91498 7,166" fill="none" stroke="black" stroke-linecap="round" stroke-width="5"/>
</svg>
