<?xml version="1.0" ?>
<svg baseProfile="full" height="300" version="1.1" viewBox="[0, 0, 300, 300]" width="300" xmlns="http://www.w3.org/2000/svg" xmlns:ev="http://www.w3.org/2001/xml-events" xmlns:xlink="http://www.w3.org/1999/xlink">
	<defs/>
	<path d="M48,37c0,28.47842 11.92122,62.39392 6,92c-1.03371,5.16855 -13.26932,22.73068 -7,29c8.25617,8.25617 130.65265,4 144,4c29,0 58,0 87,0c0.59069,0 13,0.24062 13,-1c0,-1.61308 -29.39157,-50.16452 -31,-54c-6.40474,-15.27285 -8.31006,-31.36686 -13,-47c-1.78942,-5.96472 -3,-9.93652 -3,-16c0,-0.31418 0.04224,-3.99675 0,-4c-37.19847,-2.86142 -78.61614,-0.19905 -116,2c-24.639,1.44935 -47.59935,-8 -73,-8c-1.24727,0 -8,-0.76405 -8,1" fill="none" stroke="black" stroke-linecap="round" stroke-width="5"/>
	<path d="M53,81c-3.868,0 -26.83465,0.50395 -28,4c-8.57077,25.71231 -10,100.60837 -10,133" fill="none" stroke="black" stroke-linecap="round" stroke-width="5"/>
	<path d="M257,85c11.72694,0 28.41924,1 42,1c1.66667,0 3.82149,-1.17851 5,0c0.01913,0.01913 -9.15037,52.05256 -10,58c-2.70846,18.9592 -3.52603,37.92457 -2,57c0.57018,7.12725 5,18.95038 5,26" fill="none" stroke="black" stroke-linecap="round" stroke-width="5"/>
	<path d="M18,215c63.67585,0 127.73601,-15 191,-15c15.64766,0 98,13.87212 98,24" fill="none" stroke="black" stroke-linecap="round" stroke-width="5"/>
</svg>
