<?xml version="1.0" ?>
<svg baseProfile="full" height="300" version="1.1" viewBox="[0, 0, 300, 300]" width="300" xmlns="http://www.w3.org/2000/svg" xmlns:ev="http://www.w3.org/2001/xml-events" xmlns:xlink="http://www.w3.org/1999/xlink">
	<defs/>
	<path d="M41,45c0,11.48763 5.00832,22.59564 6,34c5.7483,66.1055 -13.28488,80.08939 58,89c5.87553,0.73444 47.98749,3.80893 52,4c27.58351,1.3135 55.62596,0.22427 83,4c7.93275,1.09417 15.32818,2.08204 23,4c2.35425,0.58856 7,2 7,2c0,0 -6.82866,-29.71493 -7,-31c-2.48149,-18.61121 -5.19711,-80.19711 -19,-94c-3.74819,-3.74819 -26.95606,-1.09224 -30,-1c-38.72306,1.17343 -77.23085,3 -116,3c-10,0 -20,0 -30,0c-6.08893,0 -43.22566,-3 -32,-3" fill="none" stroke="black" stroke-linecap="round" stroke-width="5"/>
	<path d="M50,100c-10.18407,1.45487 -29.10762,-0.44619 -38,4c-0.30836,0.15418 2.61805,18.66802 4,30c3.50317,28.72602 7,58.98356 7,88" fill="none" stroke="black" stroke-linecap="round" stroke-width="5"/>
</svg>
