<?xml version="1.0" ?>
<svg baseProfile="full" height="300" version="1.1" viewBox="[0, 0, 300, 300]" width="300" xmlns="http://www.w3.org/2000/svg" xmlns:ev="http://www.w3.org/2001/xml-events" xmlns:xlink="http://www.w3.org/1999/xlink">
	<defs/>
	<path d="M29,252c4.77657,-4.77657 5.14854,-13.82845 7,-20c5.21488,-17.38293 9.04303,-35.61272 7,-54c-4.65552,-41.89964 -34.19229,-112.71156 -8,-152c18.14696,-27.22044 91.39618,-9.21698 118,-7c16.57105,1.38092 71.46081,-3.40439 84,6c31.86304,23.89728 45.63985,113.16089 39,153c-3.20798,19.24791 -6,38.13108 -6,58" fill="none" stroke="black" stroke-linecap="round" stroke-width="5"/>
	<path d="M28,63c0,-0.4714 0.5286,-1 1,-1c15.92424,0 32.12803,2.024 48,1c29.27237,-1.88854 61.1214,-14.97572 91,-9c31.36571,6.27314 59.06323,24 92,24" fill="none" stroke="black" stroke-linecap="round" stroke-width="5"/>
	<path d="M30,49c10.37964,-3.45988 63.46367,-30.53633 70,-24c1.05572,1.05572 -4.14537,10.97577 -4,11c25.78028,4.29671 57.35132,-12.54956 83,-4c2.32509,0.77503 0.46943,12 1,12c4.57992,0 9.40289,-3.23382 14,-4c1.31519,-0.2192 2.80743,-0.59628 4,0c1.54857,0.77428 2.2956,3.59119 3,5c4.22961,8.45922 21.39282,-2.86906 30,0c5.7959,1.93197 25.7276,16.2724 23,19" fill="none" stroke="black" stroke-linecap="round" stroke-width="5"/>
	<path d="M44,208c19.14038,0 35.36916,7.89486 54,11c17.06241,2.84374 73.36243,-5.12081 91,-11c5.74668,-1.91556 13.72734,3.4182 19,5c17.94905,5.38472 37.19644,4 56,4" fill="none" stroke="black" stroke-linecap="round" stroke-width="5"/>
	<path d="M40,145c0,-5.49459 52.62566,-2.44075 61,-2c55.64343,2.9286 113.62998,9 168,9" fill="none" stroke="black" stroke-linecap="round" stroke-width="5"/>
	<path d="M131,182c-26.13786,0 -51.13237,4.41409 -78,3c-11.72638,-0.61718 -23.32096,-2.7798 -35,-4c-10.65544,-1.11326 -21.33575,-1.97459 -32,-3c-14.74707,-1.41799 -42.86838,0.36739 -16,-11c34.41762,-14.5613 71.42269,-23.34858 109,-21c15.72083,0.98255 1.55594,31.11189 4,36c1.32284,2.64567 7.0973,1.02099 8,1c12.00138,-0.2791 24.03784,0.00886 36,-1c5.64319,-0.47593 108.49229,-15.50771 112,-12c1.43372,1.43372 -4.07646,0.35882 -6,1c-3.11448,1.03816 -5.92608,2.84728 -9,4c-3.98719,1.4952 -35,7.98675 -35,11c0,3.90157 7.2856,-2.80608 11,-4c15.9274,-5.11952 23.82455,-6.38634 41,-9c9.27992,-1.41216 18.61325,-3 28,-3c0.33333,0 1.2357,-0.2357 1,0c-1.2822,1.2822 -20.66494,18.77835 -20,19c8.75698,2.91899 16.20939,-8 24,-8c0.33333,0 1.28122,-0.17896 1,0c-13.33416,8.48537 -24.20141,18.69193 -37,28c-4.63801,3.3731 -9.08238,7.04943 -14,10c-0.28583,0.1715 -0.9452,0.3288 -1,0c-2.11837,-12.71024 0.66095,-50.39405 -23,-43c-21.56613,6.73942 -42.90423,33.43831 -69,23c-9.49716,-3.79887 -11.18392,-25.12362 -12,-29c-1.03917,-4.93605 -1.21329,-10.01748 -2,-15c-0.31623,-2.00278 0.62207,-7.21655 -1,-6c-17.20021,12.90016 -29.39201,32.88321 -46,47c-2.96189,2.5176 -6.52309,7.73845 -10,6c-2.74874,-1.37437 -1.15573,-6.04506 -2,-9c-1.9534,-6.83691 -9.66634,-15.33462 -8,-22c1.10789,-4.43157 11,-19.37634 11,-22" fill="none" stroke="black" stroke-linecap="round" stroke-width="5"/>
</svg>
