<?xml version="1.0" ?>
<svg baseProfile="full" height="300" version="1.1" viewBox="[0, 0, 300, 300]" width="300" xmlns="http://www.w3.org/2000/svg" xmlns:ev="http://www.w3.org/2001/xml-events" xmlns:xlink="http://www.w3.org/1999/xlink">
	<defs/>
	<path d="M41,39c0,12.68746 -8.68117,84.54589 1,91c26.36572,17.57715 127.63329,10.83095 158,13c22.08577,1.57756 45.10788,1.26349 67,4c7.79173,0.97397 15.1998,4.43996 23,6c0.65372,0.13074 2,0.66667 2,0c0,-12.50774 -22.58481,-69.07512 -27,-86c-0.17663,-0.67708 -3.79316,-30.79316 -4,-31c-1.99488,-1.99488 -61.90744,5.73164 -66,6c-50.98382,3.3432 -107.40327,-2 -156,-2" fill="none" stroke="black" stroke-linecap="round" stroke-width="5"/>
	<path d="M37,76c-5.80613,0 -26.23597,-3.76403 -30,0c-1.20185,1.20185 0.83088,3.30876 1,5c1.65585,16.55853 3,33.30498 3,50c0,18.28638 -0.41889,36.09444 -4,54c-1.34283,6.71417 -7,16.75926 -7,22" fill="none" stroke="black" stroke-linecap="round" stroke-width="5"/>
	<path d="M0,197c20.11786,0 39.69531,15.09933 60,18c36.35338,5.19334 79.96371,1.17967 116,-2c24.69933,-2.17935 50.53536,-4.61977 74,-13c7.02,-2.50714 15.77783,-6.85189 22,-11c2.16617,-1.44412 4.55588,-7.16617 6,-5c5.51111,8.26667 6.88569,22.25742 6,32c-0.60838,6.69223 -1.10783,27.10783 -6,32c-15.7674,15.7674 -82.93405,10.4044 -104,9c-45.7975,-3.05317 -91.17114,-7.59588 -136,-14c-8.55869,-1.22267 -32.10193,-1.30579 -36,-13c-3.23615,-9.70844 3,-22.57867 3,-31" fill="none" stroke="black" stroke-linecap="round" stroke-width="5"/>
</svg>
