<?xml version="1.0" ?>
<svg baseProfile="full" height="300" version="1.1" viewBox="[0, 0, 300, 300]" width="300" xmlns="http://www.w3.org/2000/svg" xmlns:ev="http://www.w3.org/2001/xml-events" xmlns:xlink="http://www.w3.org/1999/xlink">
	<defs/>
	<path d="M71,59c1,0 2.03848,-0.27472 3,0c1.45783,0.41652 11.6928,4.8656 12,5c3.0077,1.31587 6.06364,2.53182 9,4c5.90884,2.95442 63.70637,37.58725 59,47c-3.45322,6.90643 -22.69533,-6.34767 -26,-8c-5.97114,-2.98557 -10.03562,-9.44384 -16,-12c-9.02999,-3.87 -51.8194,-17.3612 -43,-35c1.0912,-2.1824 4.29331,-0.29331 6,-2" fill="none" stroke="black" stroke-linecap="round" stroke-width="5"/>
	<path d="M86,86c0,8.12499 -2.47316,21.05368 1,28c9.29381,18.58762 25.79736,8.26579 40,13c8.22338,2.74113 19.36348,8 28,8c1.66667,0 -3.82149,-1.17851 -5,0c-2.15677,2.15677 3.30627,18.30627 5,20c2.69941,2.69941 18.48415,-1.61295 21,-2c18.37159,-2.8264 51.27555,0.37776 46,-26c-6.52359,-32.61794 -43.72271,-20.44541 -58,-49c-4.49543,-8.99086 -6.20797,2.06932 -12,4c-10.79271,3.59757 -25.89685,-4 -37,-4" fill="none" stroke="black" stroke-linecap="round" stroke-width="5"/>
	<path d="M86,60c0,-9.43676 -2.33858,-22.32284 2,-31c6.10917,-12.21835 26.40335,-26.75799 41,-18c4.53103,2.71862 8.21172,7.60586 13,10c5.02831,2.51416 16.41828,0.62742 20,6c6.53446,9.80168 16.4014,41.5986 6,52" fill="none" stroke="black" stroke-linecap="round" stroke-width="5"/>
</svg>
