<?xml version="1.0" ?>
<svg baseProfile="full" height="300" version="1.1" viewBox="[0, 0, 300, 300]" width="300" xmlns="http://www.w3.org/2000/svg" xmlns:ev="http://www.w3.org/2001/xml-events" xmlns:xlink="http://www.w3.org/1999/xlink">
	<defs/>
	<path d="M116,143c0,-29.9125 -4.27295,-79 37,-79c10.81343,0 25.40409,4.40409 33,12c7.96112,7.96112 8.25155,41.88043 12,55c0.82924,2.90232 1,9 1,9c0,0 0.23218,-4.67825 0,-7c-0.25804,-2.58036 -11.70806,-56.70806 -14,-59c-5.00177,-5.00177 -23.16618,-5 -31,-5c-5.35228,0 -35.63092,-3.73816 -38,1c-3.58997,7.17994 1,54.49284 1,67" fill="none" stroke="black" stroke-linecap="round" stroke-width="5"/>
	<path d="M127,86c0,29.56769 1.19128,43 35,43c4.14567,0 15.27873,1.72127 18,-1c0.70711,-0.70711 0,-2 0,-3c0,-5.30831 -2.59706,-32.79853 -7,-35c-10.78322,-5.39161 -35.41393,10.58607 -44,2c-0.96695,-0.96695 -3,-0.21767 -3,-2" fill="none" stroke="black" stroke-linecap="round" stroke-width="5"/>
	<path d="M117,145c26.68079,0 51.91548,2 77,2c0.33333,0 0.7643,-0.2357 1,0c3.93572,3.93572 -8.96661,-2.98887 -6,-2c6.39163,2.13054 35.89919,31.10081 31,36c-1.93065,1.93065 -17.9237,0 -20,0c-10.50099,0 -35.84734,5.07633 -46,0c-8.89619,-4.44809 -32.08421,-46.91579 -46,-33c-0.26471,0.26471 0,2.58824 0,3c0,13.88473 -6.15847,38.68306 0,51c0.42164,0.84327 1.05719,2 2,2c0.76757,0 1.89484,-3.73711 2,-4c2.8753,-7.18825 6.52962,-34.23519 21,-27c0.02555,0.01277 16.40675,38.81349 19,44c0.2897,0.5794 3.68392,6.31608 5,5c1.44246,-1.44246 2,-43.20521 2,-50" fill="none" stroke="black" stroke-linecap="round" stroke-width="5"/>
	<path d="M204,178c0,9.55182 -2.94199,22.52901 4,26c12.35681,6.1784 10,-22.59729 10,-30" fill="none" stroke="black" stroke-linecap="round" stroke-width="5"/>
</svg>
