<?xml version="1.0" ?>
<svg baseProfile="full" height="300" version="1.1" viewBox="[0, 0, 300, 300]" width="300" xmlns="http://www.w3.org/2000/svg" xmlns:ev="http://www.w3.org/2001/xml-events" xmlns:xlink="http://www.w3.org/1999/xlink">
	<defs/>
	<path d="M136,168c0,-17.4165 0.46943,-41.5917 -5,-58c-0.22645,-0.67934 -1,-7 -1,-7l8,4c0,0 -4,-26.67248 -4,-29c0,-1.66667 -1.66667,-5 0,-5c19.50904,0 38.37237,1.40691 60,-4c4.20717,-1.05179 29,-7.20235 29,-7c0,6.50496 4.13921,23.27843 7,29c1.48484,2.96969 11.0568,0.0568 13,2c5.58622,5.58622 5.31744,32.58718 7,41c0.24767,1.23836 7,29 7,29c0,0 -14.66602,-1.31887 -22,-1c-28.63116,1.24483 -59.00491,11 -87,11c-2.93693,0 -6,1.32653 -6,-2" fill="none" stroke="black" stroke-linecap="round" stroke-width="5"/>
</svg>
