<?xml version="1.0" ?>
<svg baseProfile="full" height="300" version="1.1" viewBox="[0, 0, 300, 300]" width="300" xmlns="http://www.w3.org/2000/svg" xmlns:ev="http://www.w3.org/2001/xml-events" xmlns:xlink="http://www.w3.org/1999/xlink">
	<defs/>
	<path d="M231,48c-27.07321,0 -53.93909,2.38498 -81,3c-15.64905,0.35566 -31.34582,0 -47,0c-3.40705,0 -11.9142,-1.0858 -14,1c-1.27517,1.27517 0,13.42327 0,14c0,5.0606 -2.38599,17.22801 0,22c4.13887,8.27775 34.61782,7.14136 39,7c20.72769,-0.66864 40.42185,-7.41707 61,-9c24.71463,-1.90113 52.15734,11.78668 46,-19c-1.37647,-6.88234 0.30927,-17.69073 -5,-23" fill="none" stroke="black" stroke-linecap="round" stroke-width="5"/>
	<path d="M110,95c0,14.66667 0,29.33333 0,44c0,6.48158 -1.31727,5.34136 -6,3c-0.29814,-0.14907 -1.33333,0 -1,0c37.85317,0 75.25598,-7.35896 113,-9c11.66041,-0.50697 23.32857,-1 35,-1c2.10819,0 0.83059,4.24588 2,6c3.33333,5 6.55392,10.07703 10,15c0.772,1.10285 19,20.43733 19,24c0,0.66208 1.57187,1.71407 1,2c-8.69227,4.34613 -19.41397,1.40233 -29,3c-10.24902,1.70817 -76.41272,21.47844 -86,16c-16.92741,-9.67281 -32.14056,-25.42663 -47,-38c-1.26842,-1.07328 -16.57451,-17.27647 -17,-16c-0.52705,1.58114 0,3.33333 0,5c0,3 0,6 0,9c0,3.01846 -0.3452,6.05342 -1,9c-0.10379,0.46705 -5.24507,41.75493 -3,44c1.03275,1.03275 7.63432,0 9,0c1.47112,0 9.01667,0.98333 10,0c6.40993,-6.40993 -0.36837,-40.26326 6,-53" fill="none" stroke="black" stroke-linecap="round" stroke-width="5"/>
	<path d="M125,181c4.77285,4.77285 8.20771,10.20771 13,15" fill="none" stroke="black" stroke-linecap="round" stroke-width="5"/>
	<path d="M151,187c0,27.97454 -12.21785,51 20,51c2.22527,0 12.11669,2.88331 14,1c0.71604,-0.71604 -5,-34.96141 -5,-42" fill="none" stroke="black" stroke-linecap="round" stroke-width="5"/>
</svg>
