<?xml version="1.0" ?>
<svg baseProfile="full" height="300" version="1.1" viewBox="[0, 0, 300, 300]" width="300" xmlns="http://www.w3.org/2000/svg" xmlns:ev="http://www.w3.org/2001/xml-events" xmlns:xlink="http://www.w3.org/1999/xlink">
	<defs/>
	<path d="M229,173c0,-22.40222 2.02705,-45.70241 0,-68c-2.80445,-30.84894 -58.93462,-30.71025 -78,-18c-2.40666,1.60444 -28.87554,-1.37338 -34,14c-3.75073,11.25219 -1.52574,29.55694 0,41c0.38849,2.91371 6.90878,34.95439 9,36c20.57239,10.2862 87.66589,-15.33411 101,-2" fill="none" stroke="black" stroke-linecap="round" stroke-width="5"/>
	<path d="M129,181c0,9.31983 -1.42853,72.28574 2,74c10.2783,5.13915 20.60278,-37.00694 23,-43c1.13893,-2.84731 6.88779,-7.22195 10,-8c0.89857,-0.22464 7.43309,-1 5,-1c-1.05409,0 -3,-2.05409 -3,-1c0,7.36787 5.16972,14.52752 6,22c2.05411,18.48696 -6.35774,43.27155 20,38c11.96977,-2.39395 -5.65684,-47 34,-47" fill="none" stroke="black" stroke-linecap="round" stroke-width="5"/>
	<path d="M147,195c16.9761,0 38.75725,0.37862 54,8c6.16362,3.08181 22.83232,23.12576 31,17c11.6842,-8.76315 23.73676,-14 39,-14c1.03452,0 1.38215,0.2357 2,-1c2.49271,-4.98541 -27.02518,-20.21511 -30,-22c-5.995,-3.597 -17.76744,-16 -25,-16" fill="none" stroke="black" stroke-linecap="round" stroke-width="5"/>
</svg>
