<?xml version="1.0" ?>
<svg baseProfile="full" height="300" version="1.1" viewBox="[0, 0, 300, 300]" width="300" xmlns="http://www.w3.org/2000/svg" xmlns:ev="http://www.w3.org/2001/xml-events" xmlns:xlink="http://www.w3.org/1999/xlink">
	<defs/>
	<path d="M97,65c0,6.5555 -7.37767,20.37767 -12,25c-0.81433,0.81433 -5.46709,10 -5,10c38.63649,0 86.04605,-2 119,-2c8.09724,0 36.78506,3.21494 43,-3c0.76935,-0.76935 -0.82184,-3.73277 -1,-4c-4.59427,-6.89141 -14.56118,-33.78059 -23,-38c-9.41744,-4.70872 -87.24237,4.74653 -101,11c-4.03812,1.83551 -23,-0.92485 -23,3" fill="none" stroke="black" stroke-linecap="round" stroke-width="5"/>
	<path d="M114,146c27.39857,0 53.15775,53.57887 78,66c2.10283,1.05141 3.7186,-1.03895 5,-2c9.45013,-7.0876 23.85761,-10.65728 35,-14c4.28998,-1.28699 22.89768,-0.79535 25,-5c1.55225,-3.10449 -12.71452,-23.95269 -15,-27c-7.06107,-9.41476 -11.76393,-19.76393 -20,-28c-4.82665,-4.82665 -54.10632,-2 -62,-2c-8.06369,0 -28.29076,-3.85462 -36,0c-16.85142,8.42571 -12.19124,11.74305 -15,30c-1.22177,7.94151 -9,20.30592 -9,27c0,1.33333 2.66667,0 4,0c4.05518,0 8.04867,1.08816 12,2c1.09479,0.25264 16.15661,4.68677 17,3c5.32716,-10.65431 -2.44045,-27.55955 8,-38" fill="none" stroke="black" stroke-linecap="round" stroke-width="5"/>
	<path d="M135,178c10.93287,10.93287 22.09746,29.09746 31,38c3.71923,3.71923 5,-11 5,-11c0,0 -1.79923,4.59847 -2,5c-5.65416,11.30833 0.27661,27.44677 -5,38c-0.29814,0.59628 -0.4714,1.5286 0,2c0.94281,0.94281 2.66667,0 4,0c21.54428,0 42.89833,15 63,15c2.33333,0 0.56592,-4.73633 0,-7c-3.43724,-13.74895 -17.98276,-23.96551 -24,-36c-1.13099,-2.26197 -4,-18.04771 -4,-16" fill="none" stroke="black" stroke-linecap="round" stroke-width="5"/>
</svg>
