<?xml version="1.0" ?>
<svg baseProfile="full" height="300" version="1.1" viewBox="[0, 0, 300, 300]" width="300" xmlns="http://www.w3.org/2000/svg" xmlns:ev="http://www.w3.org/2001/xml-events" xmlns:xlink="http://www.w3.org/1999/xlink">
	<defs/>
	<path d="M98,65c15.52055,15.52055 -1.88763,91.79455 4,96c19.11105,13.65075 98.43082,4.37128 119,3c12.70844,-0.84723 25.33793,-2.62369 38,-4c3.33034,-0.36199 8.50185,1.99629 10,-1c0.249,-0.49801 -10.67111,-10.78519 -12,-13c-5.76501,-9.60834 -9.30933,-20.42009 -13,-31c-6.02467,-17.27072 -17.14229,-68.05174 -39,-76c-31.48113,-11.44768 -45.29892,27.14526 -72,32c-8.92089,1.62198 -19.78376,0 -29,0" fill="none" stroke="black" stroke-linecap="round" stroke-width="5"/>
	<path d="M109,168c-2.91964,0 4.033,37.19802 5,43c1.36282,8.17695 6.72845,59 24,59c16.709,0 15.20188,-58.72611 12,-71c-1.9187,-7.35502 -0.62516,-27.37484 -6,-22c-1.68074,1.68074 1.4653,5.19795 2,6" fill="none" stroke="black" stroke-linecap="round" stroke-width="5"/>
	<path d="M207,164c0,24.23116 13.32939,100.70587 33,113c1.78774,1.11734 4.61175,-0.41343 6,-2c7.8565,-8.97886 19.42172,-37.15231 18,-49c-3.07185,-25.59874 -27,-46.10596 -27,-72c0,-2.69732 -0.91024,-4 2,-4" fill="none" stroke="black" stroke-linecap="round" stroke-width="5"/>
</svg>
