<?xml version="1.0" ?>
<svg baseProfile="full" height="300" version="1.1" viewBox="[0, 0, 300, 300]" width="300" xmlns="http://www.w3.org/2000/svg" xmlns:ev="http://www.w3.org/2001/xml-events" xmlns:xlink="http://www.w3.org/1999/xlink">
	<defs/>
	<path d="M86,31c40.37092,0 83.91419,3.01073 124,-2c4.04447,-0.50556 25.75957,-9.98724 28,-7c3.95669,5.27559 -8.46614,68.32276 -9,79c-0.83609,16.72173 0,34.06838 0,51c0,2.33333 2.33333,7 0,7c-5.10077,0 -33.93297,-15.9753 -34,-16c-36.99736,-13.63061 -78.8697,-13.43485 -114,-31c-1.88562,-0.94281 1.05719,-4.11438 2,-6c3.84995,-7.6999 13,-18.28836 13,-27c0,-1 0.27472,-2.03848 0,-3c-3.37993,-11.82975 -9,-23.44441 -9,-36c0,-2.49486 0.59048,-4.20476 3,-3" fill="none" stroke="black" stroke-linecap="round" stroke-width="5"/>
	<path d="M80,109c0,5.50227 5.2591,10.77729 7,16c3.537,10.611 7,34.50679 7,45c0,0.81295 -0.62209,6.37791 0,7c7.3128,7.3128 21.84174,6 31,6c14.44313,0 30.45055,3 44,3c3.39935,0 6.67611,-1.28774 10,-2c15.41666,-3.30357 29.19631,-8.85046 44,-7c1.25119,0.1564 4.95209,0.39721 6,-1c5.96116,-7.94821 -1.53966,-20.53966 -7,-26" fill="none" stroke="black" stroke-linecap="round" stroke-width="5"/>
	<path d="M104,183c0,14.43018 22.47962,29.11431 32,38c20.37165,19.01354 44.79721,42.59907 70,51c6.95354,2.31785 47.76879,-14.65318 52,-21c5.65215,-8.47823 5.88617,-30.94044 4,-41c-3.68975,-19.67869 -22.86895,-33.73789 -31,-50" fill="none" stroke="black" stroke-linecap="round" stroke-width="5"/>
	<path d="M234,266c4.57371,13.72114 6.04477,27.61791 17,32c24.38591,9.75436 5.55948,-35.32155 2,-46" fill="none" stroke="black" stroke-linecap="round" stroke-width="5"/>
	<path d="M176,254c0,6.46647 9.16939,73.07651 24,36c3.64409,-9.11023 -3,-24.10774 -3,-30" fill="none" stroke="black" stroke-linecap="round" stroke-width="5"/>
	<path d="M139,222c0,22.54678 -15.35096,31.94713 -7,57c5.33832,16.01496 27,-8.50155 27,-19c0,-9.15508 1,-17.96694 1,-27" fill="none" stroke="black" stroke-linecap="round" stroke-width="5"/>
</svg>
