<?xml version="1.0" ?>
<svg baseProfile="full" height="300" version="1.1" viewBox="[0, 0, 300, 300]" width="300" xmlns="http://www.w3.org/2000/svg" xmlns:ev="http://www.w3.org/2001/xml-events" xmlns:xlink="http://www.w3.org/1999/xlink">
	<defs/>
	<path d="M111,54c0,15.01087 1.30246,28.80377 -1,44c-6.10937,40.32182 1.83052,30 45,30c2.20635,0 23.65547,4.56302 26,3c6.37488,-4.24992 -6.32711,-37.51032 -7,-40c-0.62258,-2.30353 -7.04874,-34.02437 -13,-37c-5.06078,-2.53039 -17.85173,2 -24,2c-4.8727,0 -10.72367,-6.13817 -15,-4" fill="none" stroke="black" stroke-linecap="round" stroke-width="5"/>
	<path d="M104,121c0,7.71136 -6.13278,73.56639 21,60c10.26959,-5.1348 6,-31.81837 6,-40c0,-3.59482 -1.5703,-17.1406 0,-14" fill="none" stroke="black" stroke-linecap="round" stroke-width="5"/>
	<path d="M162,128c0,3.53018 -2.76712,6.47945 -2,13c3.62945,30.8503 25.95265,84.18941 41,24c5.53579,-22.14315 -8,-31.05995 -8,-48" fill="none" stroke="black" stroke-linecap="round" stroke-width="5"/>
</svg>
