<?xml version="1.0" ?>
<svg baseProfile="full" height="300" version="1.1" viewBox="[0, 0, 300, 300]" width="300" xmlns="http://www.w3.org/2000/svg" xmlns:ev="http://www.w3.org/2001/xml-events" xmlns:xlink="http://www.w3.org/1999/xlink">
	<defs/>
	<path d="M85,39c9.85564,9.85564 7.07176,41.00461 8,54c0.6809,9.53266 0,19.43335 0,29c0,0.66667 0.21082,2.63246 0,2c-2.04668,-6.14003 -2.64389,-12.6715 -4,-19" fill="none" stroke="black" stroke-linecap="round" stroke-width="5"/>
	<path d="M90,39c-0.66667,0 1.34003,-0.09428 2,0c10.03605,1.43372 19.92079,3.91036 30,5c25.24732,2.72944 52.66157,5 78,5c5.27064,0 12.59996,0.90001 18,0c0.89856,-0.14976 9.94077,-2.08884 10,-2c5.30284,7.95426 -3.5607,32.36421 -5,41c-1.72003,10.32019 0,22.37148 0,33c0,1.33333 1.26491,3.57836 0,4c-9.84064,3.28021 -22.87435,-4.17487 -32,-6c-19.7415,-3.9483 -42.70179,0 -63,0c-9.66667,0 -19.33333,0 -29,0c-1.66667,0 -4.67314,-1.6343 -5,0c-0.65372,3.2686 -0.65372,6.7314 0,10c1.4364,7.18198 1.63293,11.81647 8,15c9.1055,4.55275 28.52651,3 38,3c9.53466,0 87.17133,5.91434 93,3c1.49071,-0.74536 0.2357,-3.35008 0,-5c-1.11745,-7.82216 -5.27451,-26 -14,-26" fill="none" stroke="black" stroke-linecap="round" stroke-width="5"/>
	<path d="M97,146c0,12.99106 13.78901,27.13077 20,38c2.81915,4.93351 12.95747,35.23937 16,36c29.494,7.3735 60.38862,2.1019 91,-3c10.24438,-1.7074 35.6284,1.3716 42,-5c11.94116,-11.94116 -14.80074,-26.6513 -23,-41c-3.33298,-5.83272 -8.14013,-12.49047 -10,-19c-0.24258,-0.84904 -4,-8.18321 -4,-6" fill="none" stroke="black" stroke-linecap="round" stroke-width="5"/>
	<path d="M264,208c-2,0 -0.70225,4.12734 0,6c0.49922,1.33126 12.54309,62.45691 7,68c-2.12722,2.12722 -12.62304,-0.62304 -14,-2c-16.99192,-16.99192 -14,-47.53334 -14,-70" fill="none" stroke="black" stroke-linecap="round" stroke-width="5"/>
</svg>
