<?xml version="1.0" ?>
<svg baseProfile="full" height="300" version="1.1" viewBox="[0, 0, 300, 300]" width="300" xmlns="http://www.w3.org/2000/svg" xmlns:ev="http://www.w3.org/2001/xml-events" xmlns:xlink="http://www.w3.org/1999/xlink">
	<defs/>
	<path d="M87,48c0,23.42134 -15.81242,58.18758 3,77c10.22114,10.22114 53.86029,2.97206 69,6c1.46176,0.29235 2.58579,1.5286 4,2c0.98698,0.32899 29.34229,4.97314 30,3c2.58761,-7.76282 -12.34857,-39.0457 -14,-44c-1.99732,-5.99195 -3.78821,-28.74586 -9,-35c-17.88507,-21.46209 -62.51659,-16 -88,-16" fill="none" stroke="black" stroke-linecap="round" stroke-width="5"/>
	<path d="M90,124c0,12.00751 -10.56532,39.57957 -2,51c5.80024,7.73366 63.06499,39.48409 73,44c6.53673,2.97124 48.68334,25.31666 57,17c5.9203,-5.9203 2.27325,-16.40987 6,-22c13.47792,-20.21688 2.47439,-61.60467 -16,-77c-3.30265,-2.75221 -26,-22.32021 -26,-26" fill="none" stroke="black" stroke-linecap="round" stroke-width="5"/>
	<path d="M241,224c-1.46695,0 -2.81026,4.48207 -3,6c-1.97574,15.80588 3.49484,50 -20,50c-3.21157,0 -11.96896,1.51552 -15,0c-24.181,-12.0905 -18.24889,-37.56111 -29,-51c-9.95494,-12.44368 -38.45659,-14.73619 -55,-20c-10.61979,-3.37902 -26.16864,-3 -36,-3c-0.42553,0 -4.84043,-0.31915 -5,0c-3.99726,7.99451 2.45679,65.45679 7,70c0.83836,0.83836 0.78257,3 3,3" fill="none" stroke="black" stroke-linecap="round" stroke-width="5"/>
	<path d="M181,116c16.7677,0 32.53862,38.71816 41,50c1.89737,2.52982 -1.17637,-6.41652 -3,-9c-5.58785,-7.91611 -13.62516,-13.93774 -19,-22c-3.59011,-5.38516 -6.42349,-20.57651 -11,-16c-3.94258,3.94258 6.17689,19.95666 11,29c7.02421,13.1704 11.93588,24.06412 14,22c5.86558,-5.86558 -30,-32.1219 -30,-42" fill="none" stroke="black" stroke-linecap="round" stroke-width="5"/>
</svg>
