<?xml version="1.0" ?>
<svg baseProfile="full" height="300" version="1.1" viewBox="[0, 0, 300, 300]" width="300" xmlns="http://www.w3.org/2000/svg" xmlns:ev="http://www.w3.org/2001/xml-events" xmlns:xlink="http://www.w3.org/1999/xlink">
	<defs/>
	<path d="M90,88c0,-52.208 6.59339,-54.81842 61,-60c15.50701,-1.47686 43.27989,-2.08017 52,11c6.0079,9.01186 7.89444,59.21111 4,67c-0.65275,1.30551 0.83054,8.79237 0,9c-17.74366,4.43592 -105.59037,-6.59037 -114,-15c-1.68097,-1.68097 0,-12.36061 0,-15" fill="none" stroke="black" stroke-linecap="round" stroke-width="5"/>
	<path d="M94,104c0,2.78799 2.00616,24.00616 4,26c8.87292,8.87292 112,20.71432 112,-14" fill="none" stroke="black" stroke-linecap="round" stroke-width="5"/>
	<path d="M100,129c0,10.35228 1.48239,17.96477 6,27c4.03467,8.06934 17.66249,10.66249 23,16c7.88788,7.88788 16.065,26.30429 29,30c13.33927,3.81122 72.87251,-0.29801 85,-10c20.25541,-16.20433 -25.49777,-65.24888 -39,-72" fill="none" stroke="black" stroke-linecap="round" stroke-width="5"/>
	<path d="M162,204c-2.16455,0 -1,5.27307 -1,7c0,12.62407 16.96865,52.01568 9,56c-5.4707,2.73535 -58.77922,-21.77922 -63,-26c-0.869,-0.869 -2.49024,-2.03904 -2,-4c3.09016,-12.36064 37,-26.94954 37,-33" fill="none" stroke="black" stroke-linecap="round" stroke-width="5"/>
	<path d="M249,192c0,5.35992 1.34831,65.43446 -4,69c-3.33859,2.22573 -14.04821,-0.6881 -17,-2c-35.34361,-15.70827 -10.74369,-35.74369 -28,-53c-1,-1 2,-2 0,-3c-24.29712,-12.14856 -39.96125,5 -62,5" fill="none" stroke="black" stroke-linecap="round" stroke-width="5"/>
	<path d="M211,88c6.65844,0 13.40513,-1.90085 20,-3c2.0795,-0.34658 5.65342,-4.0795 6,-2c2.59092,15.54555 12,53.00515 12,69c0,1.1302 1.90143,5.09857 1,6c-0.28289,0.28289 -5.11451,0.55726 -6,1" fill="none" stroke="black" stroke-linecap="round" stroke-width="5"/>
</svg>
