<?xml version="1.0" ?>
<svg baseProfile="full" height="300" version="1.1" viewBox="[0, 0, 300, 300]" width="300" xmlns="http://www.w3.org/2000/svg" xmlns:ev="http://www.w3.org/2001/xml-events" xmlns:xlink="http://www.w3.org/1999/xlink">
	<defs/>
	<path d="M91,32c12.49042,12.49042 7.60079,99.35653 2,124c-1.55192,6.82845 -9.96603,30.06793 -8,34c1.46818,2.93636 5.88552,-2.96184 9,-4c13.23606,-4.41202 27.26952,-10.40234 41,-13c28.8514,-5.45837 62.80405,-0.20101 90,-7c1.91837,-0.47959 7.66536,1.33464 9,0c6.10123,-6.10123 -14.6133,-69.10553 -17,-77c-5.63068,-18.62454 -6.36132,-50.04198 -17,-66c-4.44691,-6.67037 -36.39773,-2 -43,-2c-38.76106,0 -48.79997,-12.60002 -90,8" fill="none" stroke="black" stroke-linecap="round" stroke-width="5"/>
	<path d="M100,185c-1.69355,0 0,27.71788 0,30c0,16.16169 -16.44341,64.98383 15,56c27.666,-7.90457 13,-48.69683 13,-68c0,-5.17967 -1.31824,-31.63648 1,-27" fill="none" stroke="black" stroke-linecap="round" stroke-width="5"/>
	<path d="M186,170c0,14.34106 1.89282,30.01771 5,44c2.54791,11.4656 4.7106,22.55302 7,34c4.81375,24.06875 23.14472,63.42114 36,12c5.53889,-22.15555 -2.87839,-42.81103 -4,-63c-0.59649,-10.73677 2.44671,-23.55329 -6,-32" fill="none" stroke="black" stroke-linecap="round" stroke-width="5"/>
</svg>
