<?xml version="1.0" ?>
<svg baseProfile="full" height="300" version="1.1" viewBox="[0, 0, 300, 300]" width="300" xmlns="http://www.w3.org/2000/svg" xmlns:ev="http://www.w3.org/2001/xml-events" xmlns:xlink="http://www.w3.org/1999/xlink">
	<defs/>
	<path d="M99,64c6.61189,13.22379 8.80673,51.18493 11,68c0.00043,0.0033 -1.11735,12 1,12" fill="none" stroke="black" stroke-linecap="round" stroke-width="5"/>
	<path d="M64,46c23.07678,0 45.4787,5 69,5c16.33333,0 32.68165,0.69936 49,0c7.68854,-0.32951 23,-9.6956 23,-2" fill="none" stroke="black" stroke-linecap="round" stroke-width="5"/>
	<path d="M163,51c0,18.88183 7.23038,36.41903 9,55c2.47336,25.97023 -8.9517,58.66905 -2,83" fill="none" stroke="black" stroke-linecap="round" stroke-width="5"/>
	<path d="M183,183c0,-9.3584 -24.96299,-18.97532 -31,-23c-29.22931,-19.48621 -69.59715,-24.5687 -65,26c4.2252,46.47718 92.44361,90.59398 121,43c12.39337,-20.65562 -10.17601,-33.98001 -21,-43c-3.07999,-2.56665 -6.90042,-11 -11,-11" fill="none" stroke="black" stroke-linecap="round" stroke-width="5"/>
</svg>
