<?xml version="1.0" ?>
<svg baseProfile="full" height="300" version="1.1" viewBox="[0, 0, 300, 300]" width="300" xmlns="http://www.w3.org/2000/svg" xmlns:ev="http://www.w3.org/2001/xml-events" xmlns:xlink="http://www.w3.org/1999/xlink">
	<defs/>
	<path d="M111,254c-9.40804,-9.40804 -25.56706,-9.13412 -32,-22c-0.21346,-0.42692 -4.36027,-4.54658 -3,-5c27.64212,-9.21404 52.59132,-17.51826 80,-23c0.40042,-0.08008 6.61409,-1.38591 7,-1c10.58847,10.58847 12.12634,27.50179 20,38c0.0611,0.08147 3,5 3,5c0,0 -0.89249,-9.13992 -1,-10c-2.54331,-20.34652 -8,-38.60214 -8,-60" fill="none" stroke="black" stroke-linecap="round" stroke-width="5"/>
	<path d="M112,251c-11.77964,-11.77964 -6.6048,-26.512 -12,-40c-1.47711,-3.69277 -2.92602,-7.70408 -4,-12c-0.43536,-1.74146 -3.78408,-4.80177 -2,-5c26.23075,-2.91453 61.6691,8.16545 86,-4" fill="none" stroke="black" stroke-linecap="round" stroke-width="5"/>
</svg>
