<?xml version="1.0" ?>
<svg baseProfile="full" height="300" version="1.1" viewBox="[0, 0, 300, 300]" width="300" xmlns="http://www.w3.org/2000/svg" xmlns:ev="http://www.w3.org/2001/xml-events" xmlns:xlink="http://www.w3.org/1999/xlink">
	<defs/>
	<path d="M177,187c2.4267,0 2.34319,-4.59769 2,-7c-2.57493,-18.02452 -13.14282,-72.28565 -21,-88c-1.22412,-2.44825 -7.14021,-2 -9,-2c-10.15234,0 -62.8513,2.90087 -69,7c-4.96095,3.3073 -0.43753,29.96863 1,35c2.68039,9.38136 4.97222,25.45833 10,33c7.28125,10.92187 -3.68939,65.31061 10,79c1.50923,1.50923 2.71938,-3.2925 4,-5c5.22178,-6.96237 12,-14.77263 12,-26c0,-0.33333 0,-0.66667 0,-1c0,-3.33333 0,-6.66667 0,-10c0,-1.33333 0,-5.33333 0,-4c0,9.7392 23.0728,10.21839 25,16c4.12853,12.38559 -2.22125,28.11501 1,41c2.05467,8.21866 20.11216,2.71961 22,-2c2.37501,-5.93753 0.55222,-34.44778 -3,-38c-0.66667,-0.66667 -2.91466,-1.77134 -2,-2c4.48671,-1.12168 9.56436,-2.0286 14,-4c3.1855,-1.41578 7.39939,-11 10,-11c0.4714,0 0.93333,0.53333 1,1c0.90691,6.34839 4.72133,50.3672 17,43c16.69881,-10.01929 3.7337,-42.8442 -7,-50" fill="none" stroke="black" stroke-linecap="round" stroke-width="5"/>
	<path d="M97,162c25.84152,0 43.27886,-13 70,-13" fill="none" stroke="black" stroke-linecap="round" stroke-width="5"/>
</svg>
