<?xml version="1.0" ?>
<svg baseProfile="full" height="300" version="1.1" viewBox="[0, 0, 300, 300]" width="300" xmlns="http://www.w3.org/2000/svg" xmlns:ev="http://www.w3.org/2001/xml-events" xmlns:xlink="http://www.w3.org/1999/xlink">
	<defs/>
	<path d="M93,205c6.54424,0 2.21105,-20.08284 3,-26c4.63475,-34.76063 5,-67.78236 5,-103c0,-3.72519 -0.47044,-4.50328 4,-5c19.45978,-2.1622 58.0471,-10.65097 78,-4c15.84629,5.2821 19.77891,91.66327 14,109c-2.53761,7.61282 -12.81478,32.59261 -2,38c4.33325,2.16662 13.33254,0 18,0c37.25362,0 10,-25.23108 10,-39" fill="none" stroke="black" stroke-linecap="round" stroke-width="5"/>
	<path d="M122,181c28.55133,-3.56892 82.93036,-29.68988 112,-20c19.23586,6.41195 -12.89127,64.21745 -6,78c2.40854,4.81709 22.94422,3.05578 26,0c15.1732,-15.1732 5,-31.57674 5,-49" fill="none" stroke="black" stroke-linecap="round" stroke-width="5"/>
</svg>
