<?xml version="1.0" ?>
<svg baseProfile="full" height="300" version="1.1" viewBox="[0, 0, 300, 300]" width="300" xmlns="http://www.w3.org/2000/svg" xmlns:ev="http://www.w3.org/2001/xml-events" xmlns:xlink="http://www.w3.org/1999/xlink">
	<defs/>
	<path d="M94,62c0,4.42864 -3.17365,22.23952 0,27c7.14713,10.72069 79.69611,14.60777 85,4c0.8889,-1.77779 0.06219,-19.68906 0,-20c-0.78439,-3.92195 -5.20381,-22.20381 -9,-26c-4.82093,-4.82093 -54.15673,13 -67,13" fill="none" stroke="black" stroke-linecap="round" stroke-width="5"/>
	<path d="M95,83c0,28.00429 6,56.92267 6,84" fill="none" stroke="black" stroke-linecap="round" stroke-width="5"/>
	<path d="M121,98c0,20 0,40 0,60" fill="none" stroke="black" stroke-linecap="round" stroke-width="5"/>
	<path d="M132,108c0,15.41306 2,30.78073 2,46" fill="none" stroke="black" stroke-linecap="round" stroke-width="5"/>
	<path d="M152,107c0,16 0,32 0,48" fill="none" stroke="black" stroke-linecap="round" stroke-width="5"/>
	<path d="M167,111c2.11045,14.77318 5,30.10201 5,45" fill="none" stroke="black" stroke-linecap="round" stroke-width="5"/>
</svg>
