<?xml version="1.0" ?>
<svg baseProfile="full" height="300" version="1.1" viewBox="[0, 0, 300, 300]" width="300" xmlns="http://www.w3.org/2000/svg" xmlns:ev="http://www.w3.org/2001/xml-events" xmlns:xlink="http://www.w3.org/1999/xlink">
	<defs/>
	<path d="M183,146c-6.79177,0 -8.86611,-4.93306 -15,-8c-18.80554,-9.40277 -75.44957,-2.55043 -90,12c-14.84598,14.84598 22,10.94825 22,32c0,0.84711 0.49587,4.50413 0,5c-6.91382,6.91382 -18.30535,7.30535 -25,14c-15.27813,15.27813 3.64009,44.11207 16,54c11.52688,9.22151 52.85818,12.71394 67,8c11.37246,-3.79082 56.87924,-25.51696 60,-38c3.39961,-13.59844 -35.32398,-36.71837 -43,-49c-12.61111,-20.17778 18,-3.90056 18,-24c0,-3.92246 -4.36312,-3.18156 -8,-5c-3.15401,-1.57701 -5.83251,-5 -10,-5" fill="none" stroke="black" stroke-linecap="round" stroke-width="5"/>
</svg>
