<?xml version="1.0" ?>
<svg baseProfile="full" height="300" version="1.1" viewBox="[0, 0, 300, 300]" width="300" xmlns="http://www.w3.org/2000/svg" xmlns:ev="http://www.w3.org/2001/xml-events" xmlns:xlink="http://www.w3.org/1999/xlink">
	<defs/>
	<path d="M173,152c-10.61525,-10.61525 -84.52397,-10.97123 -97,4c-2.43759,2.92511 -9.8212,23.1788 -7,26c4.50841,4.50841 28.99004,0.76744 18,20c-3.74087,6.54652 -39.44002,38.04799 -27,48c14.97504,11.98003 32.92812,21 52,21c25.96586,0 56.37171,6.62829 76,-13c2.08618,-2.08618 2,-8.32729 2,-11c0,-35.29009 -19.13111,-29.26222 -28,-47c-4.29427,-8.58854 16.20132,-5.60397 19,-14c3.42069,-10.26207 -3.58054,-39 -14,-39" fill="none" stroke="black" stroke-linecap="round" stroke-width="5"/>
</svg>
