<?xml version="1.0" ?>
<svg baseProfile="full" height="300" version="1.1" viewBox="[0, 0, 300, 300]" width="300" xmlns="http://www.w3.org/2000/svg" xmlns:ev="http://www.w3.org/2001/xml-events" xmlns:xlink="http://www.w3.org/1999/xlink">
	<defs/>
	<path d="M181,72c-27.17074,0 -60.5328,-13.7008 -79,14c-2.21421,3.32132 -4,8.9977 -4,13c0,1.26707 -1.50047,17.24976 0,18c6.6039,3.30195 26.45417,0.3625 29,8c6.71649,20.14948 -25.97514,30.80114 -28,47c-0.49614,3.96911 -3.12348,9.50122 0,12c14.26209,11.40967 68.93357,18.5589 87,13c7.13037,-2.19396 15.71993,-5.71993 21,-11c3.4273,-3.4273 7.91628,-10.83257 10,-15c20.3826,-40.7652 -27.37786,-31.13357 -34,-51c-7.24557,-21.73672 20.81145,-50 -1,-50" fill="none" stroke="black" stroke-linecap="round" stroke-width="5"/>
</svg>
