<?xml version="1.0" ?>
<svg baseProfile="full" height="300" version="1.1" viewBox="[0, 0, 300, 300]" width="300" xmlns="http://www.w3.org/2000/svg" xmlns:ev="http://www.w3.org/2001/xml-events" xmlns:xlink="http://www.w3.org/1999/xlink">
	<defs/>
	<path d="M228,82c0,-0.74536 -1.25464,-1 -2,-1c-15.58771,0 -27.9959,4.46962 -43,8c-2.36219,0.55581 -4.79081,0.99582 -7,2c-5.15874,2.34488 -9.73863,5.89545 -15,8c-6.80883,2.72353 -14.66667,0 -22,0c-17.71682,0 -28.04792,0.16339 -44,7c-23.65265,10.13685 -18,19.48774 -18,45c0,8.72117 -0.30615,17.73462 3,26c4.71523,11.78808 25.09565,-0.61003 32,-3c41.58249,-14.39394 90.24277,-19.24277 122,-51c0.2357,-0.2357 0,-0.66667 0,-1c0,-5.03272 -11.94202,-36 -18,-36" fill="none" stroke="black" stroke-linecap="round" stroke-width="5"/>
	<path d="M86,176c0,12.9657 5,26.20868 5,38" fill="none" stroke="black" stroke-linecap="round" stroke-width="5"/>
	<path d="M133,154c1.20185,0 1.7643,1.82149 2,3c2.57228,12.86142 10,27.95361 10,41" fill="none" stroke="black" stroke-linecap="round" stroke-width="5"/>
	<path d="M176,126c7.61944,7.61944 8,41.5637 8,50" fill="none" stroke="black" stroke-linecap="round" stroke-width="5"/>
	<path d="M202,138c9.6696,0 6.25728,26.51456 10,34" fill="none" stroke="black" stroke-linecap="round" stroke-width="5"/>
	<path d="M225,130c1.35348,0 8,38.59733 8,47" fill="none" stroke="black" stroke-linecap="round" stroke-width="5"/>
	<path d="M252,168c-11.75788,5.87894 -27.29702,4.32569 -40,7c-28.61141,6.02345 -59.08105,16.38609 -86,26c-3.84487,1.37317 -41.88342,11.65027 -43,15c-2.6465,7.93949 4.76887,21.42216 7,27c1.23706,3.09266 4.85651,14.85651 8,18c3.65984,3.65984 72.02854,1 79,1c17.91492,0 37.40752,-5.88894 54,-13c39.9059,-17.10253 25,-36.00582 25,-72" fill="none" stroke="black" stroke-linecap="round" stroke-width="5"/>
</svg>
