<?xml version="1.0" ?>
<svg baseProfile="full" height="300" version="1.1" viewBox="[0, 0, 300, 300]" width="300" xmlns="http://www.w3.org/2000/svg" xmlns:ev="http://www.w3.org/2001/xml-events" xmlns:xlink="http://www.w3.org/1999/xlink">
	<defs/>
	<path d="M178,70c-25.36103,0 -60.87797,-8.12203 -80,11c-4.40508,4.40508 -6.75753,23.70569 -3,28c1.39896,1.59882 12.20013,2.60007 15,4c2.64591,1.32295 1.28786,16.84857 1,18c-0.99815,3.99261 -49.49496,42.35353 -30,56c9.48185,6.63729 24.03926,15.421 35,18c25.64128,6.03324 105.94252,6.22992 113,-22c9.72275,-38.89101 -19.64772,-34.64772 -37,-52c-11.03685,-11.03685 19.16184,-26.57342 11,-38c-6.22411,-8.71376 -15.90044,-14.45022 -25,-19c-1.2357,-0.61785 -1,-0.96548 -1,-2" fill="none" stroke="black" stroke-linecap="round" stroke-width="5"/>
</svg>
