<?xml version="1.0" ?>
<svg baseProfile="full" height="300" version="1.1" viewBox="[0, 0, 300, 300]" width="300" xmlns="http://www.w3.org/2000/svg" xmlns:ev="http://www.w3.org/2001/xml-events" xmlns:xlink="http://www.w3.org/1999/xlink">
	<defs/>
	<path d="M97,186c0,7.40636 -2.56507,46.43493 1,50c5.48462,5.48462 56.80261,-17.17598 67,-21c13.71372,-5.14264 28.82442,-3.72977 42,-9c1.57811,-0.63124 4.23988,0.52023 5,-1c3.03733,-6.07466 -0.78709,-16.46773 -3,-22c-1.35448,-3.38621 -0.96469,-10.96469 -3,-13c-4.6897,-4.6897 -68.85998,1.04888 -80,6c-7.43228,3.30324 -20.42358,20 -28,20" fill="none" stroke="black" stroke-linecap="round" stroke-width="5"/>
	<path d="M92,193c0,17.02926 -18,37.82171 -18,55" fill="none" stroke="black" stroke-linecap="round" stroke-width="5"/>
	<path d="M102,234c0,10.48419 -9,20.38042 -9,31" fill="none" stroke="black" stroke-linecap="round" stroke-width="5"/>
	<path d="M202,171c0,7.53238 19.84077,22.84077 24,27" fill="none" stroke="black" stroke-linecap="round" stroke-width="5"/>
	<path d="M208,203c0,10.73159 10,19.08537 10,29" fill="none" stroke="black" stroke-linecap="round" stroke-width="5"/>
	<path d="M108,71c7.84573,0 4.06522,15.21015 5,23c3.49316,29.10963 13.77424,55.32273 23,83c5.52451,16.57352 4,21.66596 4,2" fill="none" stroke="black" stroke-linecap="round" stroke-width="5"/>
	<path d="M141,108c1.20185,0 1.7643,1.82149 2,3c2.37585,11.87925 5.49536,23.31785 9,35c0.51581,1.71935 1.52769,3.2682 2,5c0.53349,1.95614 0.50824,4.03295 1,6c1.01729,4.06916 2.30977,7.85862 3,12c0.17329,1.03975 1,4.05409 1,3" fill="none" stroke="black" stroke-linecap="round" stroke-width="5"/>
	<path d="M165,109c3.44971,3.44971 12,49.01839 12,57" fill="none" stroke="black" stroke-linecap="round" stroke-width="5"/>
	<path d="M182,112c5.55394,5.55394 3.84746,21.4661 6,29c2.40172,8.40602 9,19.43138 9,28" fill="none" stroke="black" stroke-linecap="round" stroke-width="5"/>
	<path d="M201,110c-32,0 -64,0 -96,0" fill="none" stroke="black" stroke-linecap="round" stroke-width="5"/>
	<path d="M110,69c4.94135,-4.94135 29.53909,-1 36,-1c16.08586,0 30.38375,-1.30813 43,5c9.12465,4.56232 2.55568,14.66705 5,22c1.2554,3.76619 4,9.31678 4,13" fill="none" stroke="black" stroke-linecap="round" stroke-width="5"/>
</svg>
