<?xml version="1.0" ?>
<svg baseProfile="full" height="300" version="1.1" viewBox="[0, 0, 300, 300]" width="300" xmlns="http://www.w3.org/2000/svg" xmlns:ev="http://www.w3.org/2001/xml-events" xmlns:xlink="http://www.w3.org/1999/xlink">
	<defs/>
	<path d="M115,270c-4.07142,4.07142 12.88617,7.3415 14,4c0.21082,-0.63246 0,-1.33333 0,-2c0,-11.29104 -1,-21.72655 -1,-33c0,-0.40728 0.2495,-3.87525 0,-4c-3.7353,-1.86765 -6.86463,-0.24309 -11,-3c-1.48116,-0.98744 -3,0.66819 -3,2c0,12.71545 -1,25.5117 -1,38" fill="none" stroke="black" stroke-linecap="round" stroke-width="5"/>
	<path d="M113,257c-3.45663,0 -47.11476,-4.88524 -34,-18c6.11979,-6.11979 23.52172,8 30,8" fill="none" stroke="black" stroke-linecap="round" stroke-width="5"/>
</svg>
