<?xml version="1.0" ?>
<svg baseProfile="full" height="300" version="1.1" viewBox="[0, 0, 300, 300]" width="300" xmlns="http://www.w3.org/2000/svg" xmlns:ev="http://www.w3.org/2001/xml-events" xmlns:xlink="http://www.w3.org/1999/xlink">
	<defs/>
	<path d="M84,275c5.28939,5.28939 9,-1.29892 9,-6c0,-0.63138 -1.57583,-11.84833 -4,-7c-1.26441,2.52883 10.0494,3.54344 9,-8c-0.79387,-8.73255 -5,-8.16553 -5,-17" fill="none" stroke="black" stroke-linecap="round" stroke-width="5"/>
	<path d="M65,262c9.81559,0 12,2.10089 12,-9c0,-1.57991 -1,-3 -1,-3c0,0 3.17992,-1.89959 4,-6c0.18112,-0.90561 4.36893,-9 1,-9" fill="none" stroke="black" stroke-linecap="round" stroke-width="5"/>
	<path d="M114,272c13.4653,0 23,-7.74349 23,-20c0,-1.75281 -4,-1.75281 -4,0c0,3.28953 -4,-1.8835 -4,-1c0,1.81095 3.98543,2 5,2c7.69882,0 0,-15.79721 0,-20" fill="none" stroke="black" stroke-linecap="round" stroke-width="5"/>
</svg>
