<?xml version="1.0" ?>
<svg baseProfile="full" height="300" version="1.1" viewBox="[0, 0, 300, 300]" width="300" xmlns="http://www.w3.org/2000/svg" xmlns:ev="http://www.w3.org/2001/xml-events" xmlns:xlink="http://www.w3.org/1999/xlink">
	<defs/>
	<path d="M75,278c11.9383,0 18.18967,-13.81033 13,-19c-5.45742,-5.45742 3.02167,19.96207 11,6c1.56721,-2.74261 2.55394,-15 -3,-15c-1.33333,0 -4,0 -4,0c0,0 11.61013,-3.23108 13,-5c3.81739,-4.85849 7.74,-23 -2,-23" fill="none" stroke="black" stroke-linecap="round" stroke-width="5"/>
	<path d="M43,263c0,4.31119 19.32753,-1.65854 21,-4c4.49239,-6.28935 -3,-13 -3,-13c0,0 2.95738,-4.08525 1,-8c-0.95452,-1.90904 -5,-4 -5,-4c0,0 17.25714,3.54282 16,-4c-1.07948,-6.47687 -17,-28.98635 -17,-27" fill="none" stroke="black" stroke-linecap="round" stroke-width="5"/>
	<path d="M132,276c0,1.98836 1.76156,0.82563 3,0c4.57236,-3.04824 6.90296,-11.29113 5,-17c-2.89498,-8.68494 -6.45491,18.90983 -1,8c2.59761,-5.19522 6.46625,-27.03858 3,-31c-2.75035,-3.14325 -7.73858,-3.39086 -11,-6" fill="none" stroke="black" stroke-linecap="round" stroke-width="5"/>
</svg>
