<?xml version="1.0" ?>
<svg baseProfile="full" height="300" version="1.1" viewBox="[0, 0, 300, 300]" width="300" xmlns="http://www.w3.org/2000/svg" xmlns:ev="http://www.w3.org/2001/xml-events" xmlns:xlink="http://www.w3.org/1999/xlink">
	<defs/>
	<path d="M73,97c0,24.91169 -6.73446,60.79663 1,84c2.79199,8.37598 2.21468,20.51975 4,29c0.5762,2.73693 0.87358,5.74716 2,8c0.59628,1.19257 0.42164,5.26491 0,4c-3.97475,-11.92426 -12.5467,-24.0934 -18,-35c-1.13833,-2.27666 -13.91328,-12.17343 -13,-14c5.53591,-11.07183 97.33516,-1 113,-1c7.46705,0 22.03245,4.48378 29,1c1.07497,-0.53748 2.66983,-3.15561 3,-2c2.71688,9.50909 -0.01179,56.25295 21,51c8.73197,-2.18299 4.93962,-26.3623 4,-32c-2.81715,-16.90292 -12.41706,-37.25119 -18,-54c-1.93783,-5.81349 2.31283,-25.68717 -2,-30c-0.70901,-0.70901 -6.64535,0 -8,0" fill="none" stroke="black" stroke-linecap="round" stroke-width="5"/>
	<path d="M199,139c-42.8107,0 -86.34146,-1 -129,-1" fill="none" stroke="black" stroke-linecap="round" stroke-width="5"/>
	<path d="M70,117c16.81725,8.40862 46.07528,2.64017 64,2c10.84743,-0.38741 21.25617,-0.46517 32,-2c5.08168,-0.72595 32.83341,-1.83341 37,-6c5.81958,-5.81958 -11.02328,-24.00776 -17,-26c-17.14999,-5.71666 -115,-19.46433 -115,12" fill="none" stroke="black" stroke-linecap="round" stroke-width="5"/>
</svg>
