<?xml version="1.0" ?>
<svg baseProfile="full" height="300" version="1.1" viewBox="[0, 0, 300, 300]" width="300" xmlns="http://www.w3.org/2000/svg" xmlns:ev="http://www.w3.org/2001/xml-events" xmlns:xlink="http://www.w3.org/1999/xlink">
	<defs/>
	<path d="M67,63c0,12.99181 3.75641,86.48719 0,94c-2.44051,4.88101 -5.01814,15.94558 -3,22c0.73885,2.21655 6.04721,7.52361 9,9c26.26601,13.133 -5.25236,-56.62618 18,-45c25.7926,12.8963 2.31996,37.63992 13,59c1.64809,3.29618 12.47076,13.05848 16,6c0.29814,-0.59628 0,-1.33333 0,-2c0,-4.29176 -2.22759,-54.84138 -3,-56c-0.32179,-0.48269 -1.88611,-3.94306 -2,-4c-1.19257,-0.59628 -2.66667,0 -4,0c-16.19206,0 -24.51253,-3.25626 -38,-10c-0.62982,-0.31491 -1.73323,-2.26677 -1,-3c6.1176,-6.1176 67.07225,-19.96387 77,-15c5.07152,2.53576 7.77905,10.7054 11,15c1.23607,1.64809 5.87586,6.68621 5,8c-3.09419,4.64129 -39.38899,11 -47,11" fill="none" stroke="black" stroke-linecap="round" stroke-width="5"/>
	<path d="M159,142c0,9.33333 0,18.66667 0,28c0,8.51662 1,16.65632 1,25c0,4.98018 12.018,12.955 14,8c2.28389,-5.70971 -5.586,-57.586 -10,-62" fill="none" stroke="black" stroke-linecap="round" stroke-width="5"/>
</svg>
