<?xml version="1.0" ?>
<svg baseProfile="full" height="300" version="1.1" viewBox="[0, 0, 300, 300]" width="300" xmlns="http://www.w3.org/2000/svg" xmlns:ev="http://www.w3.org/2001/xml-events" xmlns:xlink="http://www.w3.org/1999/xlink">
	<defs/>
	<path d="M77,96c4.42725,0 5.65932,19.13226 5,31c-1.45362,26.1652 -13.49436,54.50564 8,76c1.98469,1.98469 10.08983,10 14,10c22.04499,0 -13.77311,-50.22689 0,-64c1.3747,-1.3747 5.71042,0.71042 6,1c13.68357,13.68357 4.54939,44.54939 19,59c0.77096,0.77096 4.00116,3.99884 6,2c9.90238,-9.90238 4.5005,-22.99901 -2,-36c-2.35074,-4.70148 3.90179,-24.5491 -1,-27c-9.86571,-4.93286 -20.32971,-6.66485 -31,-12c-6.6586,-3.3293 -4.22523,-8 -13,-8c-0.78737,0 -7,0.71095 -7,-1c0,-1.05409 1.94591,-1 3,-1c5.47615,0 12.70029,-2.88012 18,-5c27.76642,-11.10657 50.67756,2.67756 68,20c0.2357,0.2357 0.2357,0.7643 0,1c-5.6861,5.6861 -41.346,6 -37,6" fill="none" stroke="black" stroke-linecap="round" stroke-width="5"/>
	<path d="M165,143c0,17.80805 -0.60954,36.17139 6,56c0.42932,1.28797 3.78392,11.21608 7,8c11.57138,-11.57138 -2.79371,-36.58741 -8,-47c-1.70905,-3.41811 -3,-9.96483 -3,-14c0,-0.85951 0,-8.16731 0,-5" fill="none" stroke="black" stroke-linecap="round" stroke-width="5"/>
</svg>
