<?xml version="1.0" ?>
<svg baseProfile="full" height="300" version="1.1" viewBox="[0, 0, 300, 300]" width="300" xmlns="http://www.w3.org/2000/svg" xmlns:ev="http://www.w3.org/2001/xml-events" xmlns:xlink="http://www.w3.org/1999/xlink">
	<defs/>
	<path d="M68,83c0,6.97708 27.28513,36.27697 29,62c0.31771,4.76559 -2.50271,19.99459 0,25c1.74483,3.48967 7.48967,12.74483 4,11c-2.14994,-1.07497 -4,-5.33333 -6,-4c-0.017,0.01133 3.02164,31.97836 0,35c-0.999,0.999 -1.78996,-2.57992 -2,-3c-4.9984,-9.9968 1,-24.61527 1,-35c0,-16.12971 1.22231,-48.55538 -6,-63c-3.3262,-6.65239 -12.65547,-8.65547 -17,-13c-1.69862,-1.69862 -4.66559,-9 -7,-9" fill="none" stroke="black" stroke-linecap="round" stroke-width="5"/>
	<path d="M127,68c0,9.34165 5.90737,23.72212 9,33c5.17852,15.53555 5,36.65278 5,53c0,3.80058 6.72678,10.25464 3,11c-3.2686,0.65372 -6.68321,-0.33168 -10,0c-1.32672,0.13267 0,2.66667 0,4c0,0.66667 0,1.33333 0,2c0,10.18449 1,19.84218 1,30c0,0.31169 0,4 0,4c0,0 -1,-25.25487 -1,-27c0,-26.85962 -6,-56.96867 -6,-83c0,-0.5613 -0.60388,-8.69806 0,-9c7.51202,-3.75601 27.91654,3.52613 28,2c4.40195,-80.49286 -64.35245,-137.46101 3,-132c61.06858,4.95151 109.35199,55.2965 164,83c1.99443,1.01106 -4.75505,-7.38557 -3,-6c7.95709,6.28192 14.15367,14.58027 22,21c0.77396,0.63324 -0.98058,-3.19612 0,-3c3.65441,0.73088 6.95886,2.84586 10,5c5.01558,3.5527 9.26677,8.07899 14,12c51.60084,42.74626 123.52996,68.84321 155,128c28.17141,52.95608 28,146.41614 28,220" fill="none" stroke="black" stroke-linecap="round" stroke-width="5"/>
</svg>
