<?xml version="1.0" ?>
<svg baseProfile="full" height="300" version="1.1" viewBox="[0, 0, 300, 300]" width="300" xmlns="http://www.w3.org/2000/svg" xmlns:ev="http://www.w3.org/2001/xml-events" xmlns:xlink="http://www.w3.org/1999/xlink">
	<defs/>
	<path d="M102,110c-3.88258,0 -4.23259,17.62812 -5,23c-1.71663,12.0164 3.40198,83.59802 3,84c-0.32768,0.32768 -16.0897,-15.0897 -18,-17c-2.03315,-2.03315 -21.53198,-14.23401 -16,-17c8.29974,-4.14987 59.53768,-2 74,-2c0.07795,0 7.81262,-0.37475 8,0c4.25568,8.51136 12.3384,31.1692 20,35c0.69299,0.3465 4.88548,2.11452 6,1c7.62619,-7.62619 -4.03343,-25.13373 -6,-33c-2.33595,-9.34379 -2.72991,-28.54018 1,-36c0.14676,-0.29352 1,-5 1,-5c0,0 -19.24648,8.37441 -23,9c-13.74475,2.29079 -28.74207,1.39065 -44,-2c-4.24494,-0.94332 -5.63089,-5 -11,-5" fill="none" stroke="black" stroke-linecap="round" stroke-width="5"/>
</svg>
