<?xml version="1.0" ?>
<svg baseProfile="full" height="300" version="1.1" viewBox="[0, 0, 300, 300]" width="300" xmlns="http://www.w3.org/2000/svg" xmlns:ev="http://www.w3.org/2001/xml-events" xmlns:xlink="http://www.w3.org/1999/xlink">
	<defs/>
	<path d="M62,111c10.1063,20.21261 16.65802,44.63206 22,66c2.32136,9.28545 -3.36469,22.27061 1,31c1.98387,3.96774 10.4926,7.87315 15,9c35.21295,8.80324 -1.70998,-50.14501 10,-56c42.42915,-21.21457 10.84986,63.71671 46,52c5.27401,-1.758 -6.44361,-48.55639 2,-57c2.41556,-2.41556 19.16224,2 23,2c10.44076,0 22.29279,-2 31,-2c0.61024,0 3.61036,-0.38964 4,0c4.24879,4.24879 -8.60333,64.80166 21,50c0.84327,-0.42164 1.24575,-1.43431 2,-2c2.78419,-2.08814 5.85046,-3.74769 5,-8c-3.22716,-16.1358 -13,-25.82148 -13,-44c0,-0.61024 0.38964,-3.61036 0,-4c-0.93284,-0.93284 -15.95959,5.95959 -18,8" fill="none" stroke="black" stroke-linecap="round" stroke-width="5"/>
	<path d="M162,153c3.26485,0 -3.90464,0 -4,0c-2.33333,0 -4.66667,0 -7,0c-17.82835,0 -35.91386,-9 -51,-9c-0.97062,0 -5.80901,0.61803 -5,-1c1.06768,-2.13535 15.95442,-16.97721 16,-17c6.87161,-3.4358 92.4703,-10.26485 95,-9c8.6004,4.3002 24,21.72886 24,32" fill="none" stroke="black" stroke-linecap="round" stroke-width="5"/>
</svg>
