<?xml version="1.0" ?>
<svg baseProfile="full" height="300" version="1.1" viewBox="[0, 0, 300, 300]" width="300" xmlns="http://www.w3.org/2000/svg" xmlns:ev="http://www.w3.org/2001/xml-events" xmlns:xlink="http://www.w3.org/1999/xlink">
	<defs/>
	<path d="M96,79c0,29.82476 2.80819,58.65731 7,88c0.98225,6.87573 2.88339,20.76678 6,27c1.68611,3.37222 4,13.78956 4,11" fill="none" stroke="black" stroke-linecap="round" stroke-width="5"/>
	<path d="M96,83c0,-11.39591 29.98746,-12.5786 38,-8c24.27058,13.8689 29.12463,46.93619 36,71c3.64412,12.75444 6.86242,23.17453 9,36c0.68328,4.09971 1.00167,8.00667 2,12c0.08509,0.34037 0,6.70948 0,4" fill="none" stroke="black" stroke-linecap="round" stroke-width="5"/>
	<path d="M104,155c0,8.84612 44.58775,11.20612 51,8c2.4993,-1.24965 20.08614,-0.91386 18,-3" fill="none" stroke="black" stroke-linecap="round" stroke-width="5"/>
	<path d="M98,137c10.33203,0 20.04603,-6 30,-6c2.44705,0 15.47883,3.71069 16,3c3.55365,-4.84589 5.55351,-10.95774 10,-15c1.25766,-1.14332 -0.58197,4.37851 1,5c15.61695,6.13523 34.24843,11.09937 49,17c4.03528,1.61411 4.5892,7.3838 7,11c1.49071,2.23607 -3.15016,-4.45049 -4,-7c-0.52705,-1.58114 5,4.33333 4,3c-2.9685,-3.95801 -4.88817,-4.88817 -8,-8" fill="none" stroke="black" stroke-linecap="round" stroke-width="5"/>
</svg>
