<?xml version="1.0" ?>
<svg baseProfile="full" height="300" version="1.1" viewBox="[0, 0, 300, 300]" width="300" xmlns="http://www.w3.org/2000/svg" xmlns:ev="http://www.w3.org/2001/xml-events" xmlns:xlink="http://www.w3.org/1999/xlink">
	<defs/>
	<path d="M101,97c7.56224,0 108.26722,2.86639 112,1c3.72947,-1.86473 4,-13.31467 4,-16c0,-37.47499 -61.31582,-93.01051 -98,-71c-4.37662,2.62597 -8.05734,9.17454 -11,13c-28.63545,37.22608 -4,46.69661 -4,78" fill="none" stroke="black" stroke-linecap="round" stroke-width="5"/>
	<path d="M106,131c0,-0.74536 -1,-1.25464 -1,-2c0,-0.33333 0.67314,-0.06537 1,0c5.07424,1.01485 10.01693,2.60474 15,4c16.99261,4.75793 33.44165,8.80521 51,11c12.08947,1.51118 42,-4.06912 42,-21c0,-0.66667 -0.66667,-2 0,-2c6.53091,0 6.91408,25.85198 7,28c0.67211,16.80274 1.86157,54.75896 -15,66c-6.20534,4.13689 -34.634,-17.5268 -42,-19c-11.57889,-2.31578 -42.55797,4.96136 -50,0c-10.32598,-6.88398 -13,-45.91176 -13,-59" fill="none" stroke="black" stroke-linecap="round" stroke-width="5"/>
	<path d="M87,70c0,2.33349 13.21915,4.60957 16,6c12.70376,6.35188 21.91144,12.60516 28,26c12.56872,27.65119 1,55.74676 1,84" fill="none" stroke="black" stroke-linecap="round" stroke-width="5"/>
	<path d="M180,83c62.33569,0 41,67.42261 41,107" fill="none" stroke="black" stroke-linecap="round" stroke-width="5"/>
	<path d="M106,181c6.11743,6.11743 14.98547,57.85466 16,68c0.00169,0.01689 -1.19467,11 1,11" fill="none" stroke="black" stroke-linecap="round" stroke-width="5"/>
</svg>
