<?xml version="1.0" ?>
<svg baseProfile="full" height="300" version="1.1" viewBox="[0, 0, 300, 300]" width="300" xmlns="http://www.w3.org/2000/svg" xmlns:ev="http://www.w3.org/2001/xml-events" xmlns:xlink="http://www.w3.org/1999/xlink">
	<defs/>
	<path d="M72,44c0,61.00474 44.09154,43.87277 91,47c13.31256,0.8875 53.81888,4.08672 57,-15c1.45538,-8.73228 -1.62831,-16.41369 -5,-24c-2.01042,-4.52344 -4.01704,-17.50852 -9,-20c-17.11578,-8.55789 -69.77059,1 -90,1c-19.9661,0 -53,-13.26819 -53,14" fill="none" stroke="black" stroke-linecap="round" stroke-width="5"/>
	<path d="M103,80c0,31.24256 -2.64717,63.41131 5,94c2.92014,11.68058 22,-4.44454 22,-13c0,-24.73358 -16,-49.01935 -16,-73" fill="none" stroke="black" stroke-linecap="round" stroke-width="5"/>
	<path d="M145,91c0,23.09173 -4.63878,55.72244 6,77c2.06625,4.1325 11.90291,-15.67637 12,-16c4.33295,-14.44318 11.53331,-43.46669 -1,-56" fill="none" stroke="black" stroke-linecap="round" stroke-width="5"/>
	<path d="M181,96c7.40392,14.80783 0.96388,38.71107 3,55c0.72159,5.77269 1.3611,11.26386 3,17c0.37757,1.32149 0.02817,4.97183 1,4c11.09146,-11.09146 21.6492,-78 -4,-78" fill="none" stroke="black" stroke-linecap="round" stroke-width="5"/>
	<path d="M205,81c0,9.04166 14.71257,83.35628 18,85c2.99629,1.49815 1,-6.65004 1,-10c0,-6.33333 -0.31627,-12.67457 0,-19c1.311,-26.21995 4.21289,-45.78711 -14,-64" fill="none" stroke="black" stroke-linecap="round" stroke-width="5"/>
	<path d="M101,177c13.43913,13.43913 -5.51533,38.7103 18,57c3.99772,3.10934 15.00948,4.19953 19,4c4.79029,-0.23951 81.50879,-14.44112 84,-18c6.64598,-9.49425 5.32556,-23.20903 6,-34c1.35639,-21.70218 4.27071,-41 -24,-41c-33.00571,0 -63.06278,22 -95,22" fill="none" stroke="black" stroke-linecap="round" stroke-width="5"/>
	<path d="M109,182c-8.31302,16.62603 -19,36.09791 -19,54c0,0.66667 0.4714,1.5286 0,2c-4.29277,4.29277 -18.65389,3.96167 -21,11c-1.52473,4.5742 1.29874,10.79241 2,15c3.53665,21.21988 24.66749,-0.66749 29,-5" fill="none" stroke="black" stroke-linecap="round" stroke-width="5"/>
</svg>
