<?xml version="1.0" ?>
<svg baseProfile="full" height="300" version="1.1" viewBox="[0, 0, 300, 300]" width="300" xmlns="http://www.w3.org/2000/svg" xmlns:ev="http://www.w3.org/2001/xml-events" xmlns:xlink="http://www.w3.org/1999/xlink">
	<defs/>
	<path d="M96,34c0,10.66069 -12.50636,51.49364 -4,60c0.20196,0.20196 83.51293,5.50185 101,8c3.0188,0.43126 6.63795,-0.93538 8,-4c4.826,-10.8585 -1.15404,-29.84723 -3,-40c-4.69027,-25.79649 -4.29369,-31.43619 -31,-37c-14.89802,-3.10375 -31.9261,-5.74071 -47,-3c-9.90241,1.80044 -19.87514,14 -29,14" fill="none" stroke="black" stroke-linecap="round" stroke-width="5"/>
	<path d="M103,183c6.22715,24.90862 3,51.58486 3,77" fill="none" stroke="black" stroke-linecap="round" stroke-width="5"/>
	<path d="M167,167c12.1653,24.33061 15,66.76097 15,94" fill="none" stroke="black" stroke-linecap="round" stroke-width="5"/>
	<path d="M101,216c16.82056,8.41028 56.91152,-8 78,-8" fill="none" stroke="black" stroke-linecap="round" stroke-width="5"/>
	<path d="M97,124c-4.53338,0 -0.09394,22.02723 0,24c0.39229,8.23819 -4.27724,37.86138 6,43c7.1469,3.57345 30.80514,-5.77077 39,-7c16.31703,-2.44755 38.09547,0.42839 52,-10c24.42357,-18.31768 -32.08022,-46.29717 -44,-48c-15.83785,-2.26255 -29.82909,1 -45,1" fill="none" stroke="black" stroke-linecap="round" stroke-width="5"/>
</svg>
