<?xml version="1.0" ?>
<svg baseProfile="full" height="300" version="1.1" viewBox="[0, 0, 300, 300]" width="300" xmlns="http://www.w3.org/2000/svg" xmlns:ev="http://www.w3.org/2001/xml-events" xmlns:xlink="http://www.w3.org/1999/xlink">
	<defs/>
	<path d="M75,30c0,18.57987 -2.85376,51.71936 8,68c5.88436,8.82655 35.36551,5 44,5c16.48478,0 67.48324,-4.24162 83,-12c9.94877,-4.97439 3.84135,-23.6346 2,-31c-1.19934,-4.79736 -1.78579,-25.39289 -7,-28c-12.73872,-6.36936 -33.06169,-7.48377 -47,-8c-12.2449,-0.45351 -24.7473,-3.16692 -37,-2c-10.77905,1.02658 -22.72771,9 -33,9" fill="none" stroke="black" stroke-linecap="round" stroke-width="5"/>
	<path d="M105,101c0,31.83144 -4.21793,64.45518 8,95c0.75383,1.88457 1.74152,2.74152 3,4c0.74536,0.74536 2.5286,-0.05719 3,-1c7.09776,-14.19552 7.11868,-30.63957 5,-46c-2.18665,-15.85321 -8,-30.85709 -8,-47" fill="none" stroke="black" stroke-linecap="round" stroke-width="5"/>
	<path d="M144,102c0,23.25373 1.68482,46.84819 4,70c0.18091,1.80915 4.44308,26.18564 8,25c14.12428,-4.70809 -10,-76.84016 -10,-89" fill="none" stroke="black" stroke-linecap="round" stroke-width="5"/>
	<path d="M170,99c5.84174,11.68348 6.03376,31.21945 8,44c2.21411,14.39171 1.50201,33.25503 7,47c0.27641,0.69102 2.55579,2.11105 3,2c18.5784,-4.6446 4.97608,-56.04783 -1,-68c-0.8398,-1.67961 -16.77022,-26 -16,-26" fill="none" stroke="black" stroke-linecap="round" stroke-width="5"/>
	<path d="M193,91c6.38586,25.54343 8.24809,53.62022 18,78c3.91991,9.79976 9.75044,16.43539 13,1c2.14646,-10.19567 0.40254,-15.53394 0,-26c-0.24375,-6.33741 0.10216,-12.7544 -1,-19c-2.402,-13.61131 -6.56178,-23.51071 -17,-33c-1.41881,-1.28983 -11,-6.28219 -11,-9" fill="none" stroke="black" stroke-linecap="round" stroke-width="5"/>
	<path d="M102,196c0,21.26382 17.51313,55.29737 44,50c25.43608,-5.08722 43.72758,-24.6567 67,-35c14.02414,-6.23295 34.70642,0.83486 47,-9c8.3983,-6.71864 -3.80771,-31.20514 -11,-36" fill="none" stroke="black" stroke-linecap="round" stroke-width="5"/>
</svg>
