<?xml version="1.0" ?>
<svg baseProfile="full" height="300" version="1.1" viewBox="[0, 0, 300, 300]" width="300" xmlns="http://www.w3.org/2000/svg" xmlns:ev="http://www.w3.org/2001/xml-events" xmlns:xlink="http://www.w3.org/1999/xlink">
	<defs/>
	<path d="M95,137c0,-26.09079 -2.82381,-51.63811 -2,-78c0.22274,-7.12759 -1.21065,-25.39468 0,-26c1.23703,-0.61852 3.09007,0.39338 4,1c17.2066,11.47107 43.67808,6.70488 63,5c6.72072,-0.593 57.52584,-9.94833 62,-1c6.50719,13.01437 -2.60081,70.79022 -1,90c0.16431,1.9717 4.50308,19.99824 1,22c-13.72442,7.84253 -86.00423,-5.75106 -103,-10c-0.91504,-0.22876 -28.947,-12.841 -25,-1c8.78447,26.3534 58.33909,82.66954 85,96c9.44948,4.72474 34.98623,-15.84829 43,-21c9.57129,-6.15297 19.04416,-9.26104 30,-12c1.29352,-0.32338 3.40372,1.19257 4,0c3.03411,-6.06821 -27.77697,-43.77697 -36,-52" fill="none" stroke="black" stroke-linecap="round" stroke-width="5"/>
	<path d="M90,48c59.39,0 68.87724,90.90164 81,131c5.18356,17.14563 14,36.61922 14,55" fill="none" stroke="black" stroke-linecap="round" stroke-width="5"/>
	<path d="M168,48c10.37545,0 19.93412,5.14328 29,10c39.12387,20.95922 43.17968,50.93858 52,90c3.45105,15.2832 12,34.19228 12,50" fill="none" stroke="black" stroke-linecap="round" stroke-width="5"/>
</svg>
