<?xml version="1.0" ?>
<svg baseProfile="full" height="300" version="1.1" viewBox="[0, 0, 300, 300]" width="300" xmlns="http://www.w3.org/2000/svg" xmlns:ev="http://www.w3.org/2001/xml-events" xmlns:xlink="http://www.w3.org/1999/xlink">
	<defs/>
	<path d="M101,166c3.14501,22.01509 5.35492,43.79137 7,66c0.01968,0.26572 0.35653,24 2,24" fill="none" stroke="black" stroke-linecap="round" stroke-width="5"/>
	<path d="M185,164c4.88598,34.20187 18,67.30862 18,102" fill="none" stroke="black" stroke-linecap="round" stroke-width="5"/>
	<path d="M103,216c9.29149,9.29149 95.49708,-11 118,-11" fill="none" stroke="black" stroke-linecap="round" stroke-width="5"/>
	<path d="M94,44c0,19.253 -8.69554,43.21782 -4,62c1.56525,6.26101 50.47669,-1.89228 61,-3c4.99929,-0.52624 42.73269,0.26731 43,0c6.37559,-6.37559 -5.87312,-34.23874 -7,-41c-1.11212,-6.67269 -0.51219,-24.51219 -5,-29c-9.29569,-9.29569 -36.23735,-5.53752 -47,-4c-43.4778,6.21111 -41.08421,15.45258 -45,52c-2.87978,26.87792 -0.68206,57.48371 5,84c0.92821,4.33164 5,11.76864 5,16" fill="none" stroke="black" stroke-linecap="round" stroke-width="5"/>
	<path d="M168,46c22.41021,22.41021 18,62.92413 18,92c0,2.37118 0.21491,34 3,34" fill="none" stroke="black" stroke-linecap="round" stroke-width="5"/>
	<path d="M83,155c16.58531,0 93.75247,-23.41584 101,-21c7.07107,2.35702 3.53506,14.56096 4,22c0.24413,3.90602 1.9617,14.0766 0,18c-8.83471,17.66941 -65.25352,24.78874 -83,10c-4.53642,-3.78035 -18.72825,-25.27175 -12,-32" fill="none" stroke="black" stroke-linecap="round" stroke-width="5"/>
	<path d="M73,151c21.68634,-10.84317 90.27925,-21 117,-21c0.66667,0 1.5286,-0.4714 2,0c2.88393,2.88393 -0.66273,26.36681 0,32c0.38233,3.24978 6.53514,23.19729 4,27c-5.10903,7.66354 -84.11181,20.88819 -89,16c-2.54951,-2.54951 -3.67102,-6.24757 -6,-9c-2.34334,-2.7694 -26.17903,-42.82097 -23,-46c2.96474,-2.96474 56.57145,-14.26667 64,-16c19.13863,-4.46568 37.46179,-7 57,-7" fill="none" stroke="black" stroke-linecap="round" stroke-width="5"/>
</svg>
