<?xml version="1.0" ?>
<svg baseProfile="full" height="300" version="1.1" viewBox="[0, 0, 300, 300]" width="300" xmlns="http://www.w3.org/2000/svg" xmlns:ev="http://www.w3.org/2001/xml-events" xmlns:xlink="http://www.w3.org/1999/xlink">
	<defs/>
	<path d="M104,58c-5.33163,21.32654 -19.63928,73.72143 -9,95c5.2827,10.5654 82.24246,18.59469 95,17c1.65084,-0.20635 6.99379,1.01242 8,-1c0.88323,-1.76645 2.62831,-5.26546 3,-7c0.63246,-2.95146 0.68401,-5.99812 1,-9c0.49509,-4.70338 1.03726,-93.65425 -9,-97c-27.81223,-9.27074 -54.91105,7 -82,7" fill="none" stroke="black" stroke-linecap="round" stroke-width="5"/>
	<path d="M90,106c0,26.12081 -4.77091,48.62548 -9,74c-0.79293,4.75756 -2.05072,9.25358 -3,14c-0.32686,1.6343 1.66667,5 0,5c-1.22119,0 -1.79631,-7.98156 -2,-9c-4.24015,-21.20073 3.61141,-41.7928 9,-62c1.59809,-5.99285 3.03818,-12.11455 5,-18c0.84984,-2.54951 -0.90029,-9.90029 1,-8c4.23251,4.23251 -4.65162,42.98842 -6,50c-1.35174,7.02906 -3,13.81332 -3,21c0,0.33333 0.2357,1.2357 0,1c-6.36763,-6.36763 1.80617,-31.83701 3,-39c0.89207,-5.35244 1.93582,-10.6791 3,-16c0.33333,-1.66667 1,-6.69967 1,-5c0,10 0,20 0,30c0,7.08607 -1,13.91537 -1,21" fill="none" stroke="black" stroke-linecap="round" stroke-width="5"/>
	<path d="M204,98c-6.66462,26.6585 -3,58.58267 -3,86c0,6.36832 -0.8608,-12.7344 -2,-19c-3.6634,-20.14872 -5.29926,-39.59111 -7,-60c-0.3045,-3.654 0,-11 0,-11c0,0 4.0426,10.49495 5,16c3.86327,22.21379 0.55757,45.62419 4,68c0.55984,3.63897 4.68179,11 1,11c-1.48926,0 -0.82071,-1.40237 -1,-2c-7.68917,-25.63055 -12.94575,-52.2947 -15,-79c-0.33333,-4.33333 -3.34613,-13 1,-13c2.98142,0 2.66667,5.33333 4,8c11.01611,22.03222 2.61652,51.23304 13,72" fill="none" stroke="black" stroke-linecap="round" stroke-width="5"/>
	<path d="M75,182c21.56173,10.78087 90.16761,62.72065 111,28c3.98688,-6.64479 13,-13.75547 13,-22" fill="none" stroke="black" stroke-linecap="round" stroke-width="5"/>
	<path d="M71,182c0,71.54013 20.69513,59.25534 78,70c0.52639,0.0987 49.85945,8.42488 52,5c9.6118,-15.37888 12,-41.96927 12,-60" fill="none" stroke="black" stroke-linecap="round" stroke-width="5"/>
	<path d="M73,220c0,17.8295 3.30322,44.90966 9,62" fill="none" stroke="black" stroke-linecap="round" stroke-width="5"/>
	<path d="M153,244c9.76831,9.76831 14,26.61028 14,42" fill="none" stroke="black" stroke-linecap="round" stroke-width="5"/>
	<path d="M77,259c19.82757,0 41.14468,-0.13505 61,3c10.8225,1.70882 24.86159,12 35,12" fill="none" stroke="black" stroke-linecap="round" stroke-width="5"/>
</svg>
