<?xml version="1.0" ?>
<svg baseProfile="full" height="300" version="1.1" viewBox="[0, 0, 300, 300]" width="300" xmlns="http://www.w3.org/2000/svg" xmlns:ev="http://www.w3.org/2001/xml-events" xmlns:xlink="http://www.w3.org/1999/xlink">
	<defs/>
	<path d="M93,104c21.58955,0 43.30261,-4 65,-4c2.96656,0 47.45444,0.54556 48,0c4.78693,-4.78693 5.63047,-24.60885 7,-31c1.96921,-9.18963 5.99737,-22.60315 -1,-31c-4.55582,-5.46699 -14.9763,-6.49013 -21,-9c-38.55029,-16.06262 -72.95103,-19.25644 -96,23c-10.31015,18.90193 2,34.146 2,52" fill="none" stroke="black" stroke-linecap="round" stroke-width="5"/>
	<path d="M72,92c19.69765,0 47.47765,22.80605 55,40c3.19136,7.29455 1.88817,24.88817 7,30" fill="none" stroke="black" stroke-linecap="round" stroke-width="5"/>
	<path d="M169,88c38.57582,0 81,14.77863 81,60" fill="none" stroke="black" stroke-linecap="round" stroke-width="5"/>
	<path d="M125,152c19.23456,19.23456 61.76234,21.56636 84,6c8.70127,-6.09089 13.83737,-17.53633 15,-28c0.33129,-2.98165 0,-6 0,-9c0,-1.66667 0,-6.66667 0,-5c0,20.24561 16.53686,72.92628 8,90c-4.0873,8.1746 -33.33789,10.60627 -42,11c-43.29724,1.96806 -77,-0.23979 -77,-52" fill="none" stroke="black" stroke-linecap="round" stroke-width="5"/>
	<path d="M134,209c0,14.27153 -4.55781,31.65314 -2,47c1.3886,8.33158 2.3542,16.0626 5,24c0.10541,0.31623 0.14907,1.29814 0,1c-6.56778,-13.13556 -4,-32.78195 -4,-47c0,-8.76028 -1,-17.29018 -1,-26c0,-0.33333 0,-1.33333 0,-1c0,12.1704 7.44499,26.67981 8,40c0.32388,7.77319 -1,15.27029 -1,23c0,0.33333 -0.2357,1.2357 0,1c7.16723,-7.16723 1.79352,-49.89068 1,-61c-0.14249,-1.99492 0,-8 0,-6c0,3 0.27161,6.01232 0,9c-0.39694,4.36631 -1.33333,8.66667 -2,13c-0.66667,4.33333 -1.35748,8.66302 -2,13c-1.25495,8.47094 -5,19.3028 -5,28" fill="none" stroke="black" stroke-linecap="round" stroke-width="5"/>
</svg>
