<?xml version="1.0" ?>
<svg baseProfile="full" height="300" version="1.1" viewBox="[0, 0, 300, 300]" width="300" xmlns="http://www.w3.org/2000/svg" xmlns:ev="http://www.w3.org/2001/xml-events" xmlns:xlink="http://www.w3.org/1999/xlink">
	<defs/>
	<path d="M77,174c33.36407,0 65.79306,-5.30755 99,-8c9.3737,-0.76003 26.65969,-2.68062 27,-2c2.03549,4.07098 3.82267,11.29068 5,16c2.59209,10.36835 4.67117,21.36939 6,32c0.12403,0.99228 0.85749,2.4855 0,3c-20.6888,12.41328 -120.82381,24.52858 -133,-12c-2.57693,-7.73078 -1,-18.49382 -1,-27" fill="none" stroke="black" stroke-linecap="round" stroke-width="5"/>
	<path d="M88,172c28.70843,-19.13895 16,-75.75603 16,-105" fill="none" stroke="black" stroke-linecap="round" stroke-width="5"/>
	<path d="M139,164c0,-29.56039 13,-56.77096 13,-86" fill="none" stroke="black" stroke-linecap="round" stroke-width="5"/>
	<path d="M172,182c8.69281,-34.77124 2,-69.01185 2,-104" fill="none" stroke="black" stroke-linecap="round" stroke-width="5"/>
</svg>
