<?xml version="1.0" ?>
<svg baseProfile="full" height="300" version="1.1" viewBox="[0, 0, 300, 300]" width="300" xmlns="http://www.w3.org/2000/svg" xmlns:ev="http://www.w3.org/2001/xml-events" xmlns:xlink="http://www.w3.org/1999/xlink">
	<defs/>
	<path d="M93,61c0,23.66667 0,47.33333 0,71" fill="none" stroke="black" stroke-linecap="round" stroke-width="5"/>
	<path d="M130,79c0,18.66667 0,37.33333 0,56" fill="none" stroke="black" stroke-linecap="round" stroke-width="5"/>
	<path d="M175,57c6.86125,6.86125 -3,51.3875 -3,62" fill="none" stroke="black" stroke-linecap="round" stroke-width="5"/>
	<path d="M221,69c0,14.79069 9.39196,38.21608 2,53" fill="none" stroke="black" stroke-linecap="round" stroke-width="5"/>
	<path d="M86,137c15.16275,-5.05425 138.8582,-21.71393 165,-13c2.80446,0.93482 2,6.62868 2,8c0,23.15145 -2,45.82677 -2,69c0,3.33333 3.13264,8.86086 0,10c-37.58777,13.66828 -84.60274,10.24788 -124,14c-10.74746,1.02357 -21.28728,3.66091 -32,5c-2.97683,0.3721 -8.27239,2.91043 -9,0c-7.20164,-28.80657 12,-60.14213 12,-89" fill="none" stroke="black" stroke-linecap="round" stroke-width="5"/>
	<path d="M85,54c37.09263,0 75.37755,-3 113,-3c4.17899,0 31.76519,2.46963 33,0c4.41368,-8.82736 2,-19.64882 2,-29" fill="none" stroke="black" stroke-linecap="round" stroke-width="5"/>
</svg>
