<?xml version="1.0" ?>
<svg baseProfile="full" height="300" version="1.1" viewBox="[0, 0, 300, 300]" width="300" xmlns="http://www.w3.org/2000/svg" xmlns:ev="http://www.w3.org/2001/xml-events" xmlns:xlink="http://www.w3.org/1999/xlink">
	<defs/>
	<path d="M96,134c10.02701,-10.02701 112.09406,-13.81188 122,6c6.15268,12.30536 -1.7316,20.4329 -12,23c-0.16206,0.04052 -6,1 -6,1c0,0 18.30512,-0.46325 19,0c2.63736,1.75824 6.73443,55.26557 4,58c-30.44956,30.44956 -96.2684,29.24387 -136,16c-21.30771,-7.10257 -24.983,-42.017 -10,-57c3.19559,-3.19559 10.48117,-2.48117 13,-5c1.51743,-1.51743 -1.67456,-3.54439 -2,-4c-4.10015,-5.74022 -22.93903,-37 -5,-37c4.33333,0 8.66667,0 13,0" fill="none" stroke="black" stroke-linecap="round" stroke-width="5"/>
	<path d="M90,130c0,-20.48819 7.13367,-53.73266 -2,-72" fill="none" stroke="black" stroke-linecap="round" stroke-width="5"/>
</svg>
