<?xml version="1.0" ?>
<svg baseProfile="full" height="300" version="1.1" viewBox="[0, 0, 300, 300]" width="300" xmlns="http://www.w3.org/2000/svg" xmlns:ev="http://www.w3.org/2001/xml-events" xmlns:xlink="http://www.w3.org/1999/xlink">
	<defs/>
	<path d="M87,97c0,17.32874 1,34.618 1,52" fill="none" stroke="black" stroke-linecap="round" stroke-width="5"/>
	<path d="M124,98c0,22.33333 0,44.66667 0,67" fill="none" stroke="black" stroke-linecap="round" stroke-width="5"/>
	<path d="M164,94c0,21.56251 1.55141,43.69154 -2,65" fill="none" stroke="black" stroke-linecap="round" stroke-width="5"/>
	<path d="M199,95c0.74536,0 0.7643,1.29289 1,2c3.61664,10.84993 1,27.23573 1,39" fill="none" stroke="black" stroke-linecap="round" stroke-width="5"/>
	<path d="M225,95c1.20185,0 2,1.79815 2,3c0,13.11967 -0.45405,32.81893 7,44" fill="none" stroke="black" stroke-linecap="round" stroke-width="5"/>
	<path d="M240,91c5.13741,5.13741 2,24.05461 2,31" fill="none" stroke="black" stroke-linecap="round" stroke-width="5"/>
	<path d="M91,146c-7.05168,0 -22.64098,3.07705 -19,14c1.56702,4.70106 15.84037,0.39907 14,5c-1.5305,3.82626 -7.53565,9.04278 -10,12c-2.73935,3.28722 3,63.05935 3,71c0,1.34426 -0.59016,4.81967 0,6c28.45753,56.91506 182.84768,39.1351 207,-14c3.58732,-7.89211 10.85827,-46.56955 7,-53c-2.49513,-4.15855 -23,-8.33148 -23,-11c0,-9.07936 16.94813,-19.81483 8,-31c-2.79352,-3.4919 -43.31907,-4.43191 -49,-5c-17.66527,-1.76653 -34.61705,1 -52,1c-30.59833,0 -61.3263,-2 -92,-2" fill="none" stroke="black" stroke-linecap="round" stroke-width="5"/>
</svg>
