<?xml version="1.0" ?>
<svg baseProfile="full" height="300" version="1.1" viewBox="[0, 0, 300, 300]" width="300" xmlns="http://www.w3.org/2000/svg" xmlns:ev="http://www.w3.org/2001/xml-events" xmlns:xlink="http://www.w3.org/1999/xlink">
	<defs/>
	<path d="M100,125c14.50131,0 26.72917,-9.62153 41,-12c21.27491,-3.54582 56.71546,3.7352 76,12c8.13298,3.48556 14,13.1186 14,22c0,1.66667 1.58114,4.47295 0,5c-1.6063,0.53543 -6.74196,0.74196 -8,2c-1,1 2,2 3,3c3.41907,3.41907 10.99917,3.99583 12,9c2.41292,12.06462 13.49213,61.25393 -2,69c-30.88125,15.44063 -120.65192,13.34808 -144,-10c-5.26094,-5.26094 -11.9118,-34.63229 -7,-42c2.48069,-3.72104 15.16228,-2.83772 12,-6c-11.60128,-11.60128 -16.61716,-39.47855 -5,-54c3.60918,-4.51147 10.80224,-2.80224 15,-7" fill="none" stroke="black" stroke-linecap="round" stroke-width="5"/>
	<path d="M104,123c0,-9.72839 4.08086,-20.40428 6,-30c4.6084,-23.04201 -2,-48.92815 -2,-72" fill="none" stroke="black" stroke-linecap="round" stroke-width="5"/>
	<path d="M124,117c0,-25.54385 6,-51.70741 6,-78" fill="none" stroke="black" stroke-linecap="round" stroke-width="5"/>
</svg>
