<?xml version="1.0" ?>
<svg baseProfile="full" height="300" version="1.1" viewBox="[0, 0, 300, 300]" width="300" xmlns="http://www.w3.org/2000/svg" xmlns:ev="http://www.w3.org/2001/xml-events" xmlns:xlink="http://www.w3.org/1999/xlink">
	<defs/>
	<path d="M131,115c0,4.98828 -10.41365,7.68941 -13,12c-11.68771,19.47952 -14.43198,33.82721 11,44c6.15292,2.46117 11.33877,4 18,4c6.25902,0 14.52197,0.65202 20,-3c4.94629,-3.29753 4.60326,-9.84235 5,-15c0.14436,-1.87666 3.18735,-16.08353 1,-19c-6.69951,-8.93269 -31.58424,-18.85394 -43,-16c-4.44627,1.11157 -5.89278,6 -10,6" fill="none" stroke="black" stroke-linecap="round" stroke-width="5"/>
	<path d="M109,144c0,-18.66667 0,-37.33333 0,-56c0,-2.70777 -2.76245,-26.80939 -2,-27c12.5635,-3.14087 34.91404,10.32166 47,14c4.95394,1.50772 29.12039,0.12039 33,4c0.26471,0.26471 0,2.58824 0,3c0,10.47115 -6.00733,26.04032 -8,37c-7.24138,39.8276 -19,83.26519 -19,124" fill="none" stroke="black" stroke-linecap="round" stroke-width="5"/>
</svg>
