<?xml version="1.0" ?>
<svg baseProfile="full" height="300" version="1.1" viewBox="[0, 0, 300, 300]" width="300" xmlns="http://www.w3.org/2000/svg" xmlns:ev="http://www.w3.org/2001/xml-events" xmlns:xlink="http://www.w3.org/1999/xlink">
	<defs/>
	<path d="M102,30c-8.71123,-4.35562 21.55024,-5.68639 25,-6c15.43214,-1.40292 31.80158,1.03968 47,-2c4.32801,-0.8656 13.39606,-6.30197 18,-4c9.32204,4.66102 5.20016,38.53296 2,46c-4.36393,10.18249 -55.36654,2.08459 -68,5c-7.91548,1.82665 -16.29073,1.79735 -24,4c-1.99831,0.57095 -7.16701,1.77088 -9,2c-1.32304,0.16538 -4.94281,0.94281 -4,0c3.74245,-3.74245 11.30937,-43.34532 6,-46c-1.52023,-0.76012 -1,3.30033 -1,5" fill="none" stroke="black" stroke-linecap="round" stroke-width="5"/>
	<path d="M99,77c0,18.02357 -1,35.96853 -1,54c0,7.66667 0,15.33333 0,23c0,1.99212 0,5.79987 0,2" fill="none" stroke="black" stroke-linecap="round" stroke-width="5"/>
	<path d="M121,68c-2.02343,30.35146 -1.83358,60.67014 -4,91c-0.99142,13.87984 0,5.46522 0,0" fill="none" stroke="black" stroke-linecap="round" stroke-width="5"/>
	<path d="M146,66c-1.3713,1.3713 -3,60.45013 -3,67c0,5.72341 -3.68583,34.37166 0,27" fill="none" stroke="black" stroke-linecap="round" stroke-width="5"/>
	<path d="M192,61c-3.6344,36.34397 -6,73.60416 -6,110c0,1.05409 1,-1.94591 1,-3c0,-4.00569 -1.25312,-3.25062 -5,-4c-9.0882,-1.81764 -16.22655,-4.36797 -25,-7c-20.09356,-6.02807 -37.72977,-6 -58,-6" fill="none" stroke="black" stroke-linecap="round" stroke-width="5"/>
	<path d="M91,165c-1.90427,0 10,57.67719 10,57" fill="none" stroke="black" stroke-linecap="round" stroke-width="5"/>
	<path d="M188,161c1.11767,6.70601 15.30193,48.69807 11,53c-10.09305,10.09305 -81.55221,10 -101,10" fill="none" stroke="black" stroke-linecap="round" stroke-width="5"/>
	<path d="M199,203c0,7.60115 0.37936,15.41286 0,23c-0.52103,10.42062 4.28295,33.79263 1,42c-0.35015,0.87538 -1.05719,2 -2,2" fill="none" stroke="black" stroke-linecap="round" stroke-width="5"/>
	<path d="M183,220c0,7.33333 0,14.66667 0,22c0,0.74536 1,2.74536 1,2" fill="none" stroke="black" stroke-linecap="round" stroke-width="5"/>
	<path d="M103,219c-5,0 0.31189,10.00974 0,15c-0.47877,7.66027 0,57.03968 0,35" fill="none" stroke="black" stroke-linecap="round" stroke-width="5"/>
	<path d="M92,168c0,-3.07318 -1.83848,5.93107 -2,9c-0.67046,12.73875 -2,25.21856 -2,38c0,5.33333 0,21.33333 0,16" fill="none" stroke="black" stroke-linecap="round" stroke-width="5"/>
	<path d="M167,66c-2.0445,0 -1,22.44621 -1,24c0,17.45974 -2.07133,35.64194 -4,53c-0.59231,5.33077 1,28.2345 1,19" fill="none" stroke="black" stroke-linecap="round" stroke-width="5"/>
</svg>
