<?xml version="1.0" ?>
<svg baseProfile="full" height="300" version="1.1" viewBox="[0, 0, 300, 300]" width="300" xmlns="http://www.w3.org/2000/svg" xmlns:ev="http://www.w3.org/2001/xml-events" xmlns:xlink="http://www.w3.org/1999/xlink">
	<defs/>
	<path d="M92,117c-2.54717,1.27359 -7.0321,-30.67062 -9,-35c-2.0054,-4.41188 -19.30628,-37.69372 -15,-42c17.88356,-17.88356 83.20844,-32.34894 110,-29c5.95713,0.74464 7.49298,6.16433 13,8c2.78099,0.927 9.86196,1.55653 12,4c11.27104,12.88119 13.00461,32.07381 14,48c0.4184,6.69437 9.52875,15.94251 6,23c-7.84829,15.69657 -42.04514,26.19596 -57,29c-11.05856,2.07348 -20.67396,7.29212 -32,8c-2.32111,0.14507 -20,-1.27774 -20,1" fill="none" stroke="black" stroke-linecap="round" stroke-width="5"/>
	<path d="M69,40c-1.52029,0 6.07286,3.42325 8,5c5.45763,4.46533 8.4465,6.29766 14,10c14.68255,9.78837 30.17848,17.72208 40,33c9.22853,14.35549 15.78156,30.10321 19,47c1.14225,5.99682 4,29.77703 4,29" fill="none" stroke="black" stroke-linecap="round" stroke-width="5"/>
	<path d="M189,20c-2.89365,0 -0.77854,-0.1238 4,2c4.94061,2.19583 14.10714,2.04081 17,7c8.15575,13.98128 14.84387,19.75465 22,31c5.57598,8.76226 6.8919,23.14055 11,33c7.36366,17.67279 1.89402,44.04614 4,63c1.90704,17.16337 8.0202,32.81565 13,49c1.68548,5.47781 2.41845,14.20923 8,17" fill="none" stroke="black" stroke-linecap="round" stroke-width="5"/>
	<path d="M220,103c-3.15323,0 -1.70479,-0.29814 2,6c4.26492,7.25036 34.05484,44.94516 30,49c-7.78264,7.78264 -22.24806,7.98449 -32,12c-62.73493,25.83203 -86.73073,34.53854 -119,-30" fill="none" stroke="black" stroke-linecap="round" stroke-width="5"/>
	<path d="M153,161c-1.00945,0 3.39422,30.75952 4,35c3.14918,22.04424 -5,40.61203 -5,62" fill="none" stroke="black" stroke-linecap="round" stroke-width="5"/>
	<path d="M93,134c0,12.52251 7.07794,27.69882 9,40c3.10746,19.88773 -1,39.32103 -1,59" fill="none" stroke="black" stroke-linecap="round" stroke-width="5"/>
</svg>
