<?xml version="1.0" ?>
<svg baseProfile="full" height="300" version="1.1" viewBox="[0, 0, 300, 300]" width="300" xmlns="http://www.w3.org/2000/svg" xmlns:ev="http://www.w3.org/2001/xml-events" xmlns:xlink="http://www.w3.org/1999/xlink">
	<defs/>
	<path d="M65,34c1.83762,1.22508 9.58078,5.38241 12,4c6.5946,-3.76834 10.89902,-11.42427 17,-16c9.58043,-7.18532 34.14759,-13.0246 46,-15c16.47965,-2.74661 43.12412,-12.62529 60,-7c9.51125,3.17042 9.27486,19.81989 17,26c6.03554,4.82843 21.68995,-2.62009 25,4c6.51063,13.02126 -29.4688,17.21876 -36,19c-20.44616,5.57623 -111.62414,21.89598 -129,19c-9.73868,-1.62311 -15.12769,-17.36154 -13,-28c0.65775,-3.28875 11,-16.25945 11,-10" fill="none" stroke="black" stroke-linecap="round" stroke-width="5"/>
	<path d="M87,70c-1.41421,-1.41421 0,-4 0,-6c0,-3.01846 -1.76818,6.08092 -1,9c1.2611,4.7922 3.59224,9.24881 5,14c4.07215,13.7435 6.30054,28.12703 10,42c2.14719,8.05196 7,32.33333 7,24" fill="none" stroke="black" stroke-linecap="round" stroke-width="5"/>
	<path d="M117,67c0,1 -0.5547,-3.83205 0,-3c1.34609,2.01914 1.23261,4.69783 2,7c0.90062,2.70185 2.01543,5.3276 3,8c2.96269,8.04158 5.14726,16.47256 6,25c0.16678,1.66775 6,77.06435 6,51" fill="none" stroke="black" stroke-linecap="round" stroke-width="5"/>
	<path d="M159,57c0,25.34304 1.31333,50.69998 3,76c0.08922,1.33831 2,36.29388 2,24" fill="none" stroke="black" stroke-linecap="round" stroke-width="5"/>
	<path d="M228,45c-5.03059,0 -0.15697,33.1745 0,36c0.13521,2.43373 -2,83.06388 -2,56" fill="none" stroke="black" stroke-linecap="round" stroke-width="5"/>
	<path d="M107,157c-15.26489,-3.81622 -33,12.48494 -33,28c0,6.92612 18.14122,3.42366 21,12c3.8702,11.6106 -1.45319,27.21872 13,33c32.17029,12.86811 55.47993,2.88002 87,-5c6.70895,-1.67724 14.588,0.664 21,-3c10.66467,-6.0941 42.83088,-46.86765 25,-54c-1.85695,-0.74278 -4.58579,1.41421 -6,0c-6.67286,-6.67286 19.81474,-17.18526 14,-23c-6.15365,-6.15365 -67.95469,9.80994 -80,12c-17.83235,3.24225 -39.35776,11 -57,11c-2.05688,0 -6,-1.08288 -6,2" fill="none" stroke="black" stroke-linecap="round" stroke-width="5"/>
</svg>
