<?xml version="1.0" ?>
<svg baseProfile="full" height="300" version="1.1" viewBox="[0, 0, 300, 300]" width="300" xmlns="http://www.w3.org/2000/svg" xmlns:ev="http://www.w3.org/2001/xml-events" xmlns:xlink="http://www.w3.org/1999/xlink">
	<defs/>
	<path d="M104,184c0,-1.19302 -4.1606,-4.48179 -5,-7c-4.7406,-14.22179 -2.24507,-34.75493 9,-46c8.05271,-8.05271 17.42711,-8.87269 27,-11c45.77039,-10.1712 78,4.62236 78,56c0,0.49678 -10.59824,1.91072 -11,2c-12.03563,2.67458 -23.11456,5.75852 -35,9c-16.23623,4.42806 -40.59605,14 -57,14c-1.03492,0 -4.42787,0.57213 -5,0c-4.1536,-4.1536 -1.8058,-16 -7,-16" fill="none" stroke="black" stroke-linecap="round" stroke-width="5"/>
	<path d="M74,28c1.24971,3.74914 2.70546,28.54109 5,29c32.61884,6.52377 68.90298,-11.27425 102,-3c2.73317,0.68329 33.29615,1.70385 37,-2c3.14269,-3.14269 -0.47461,-13.0677 1,-17c9.19745,-24.52653 -26.17305,-21.44823 -45,-20c-12.63158,0.97166 -25.41761,0.74176 -38,2c-19.63635,1.96363 -40.41164,7 -60,7" fill="none" stroke="black" stroke-linecap="round" stroke-width="5"/>
	<path d="M92,63c0,-5.36404 1.90048,14.05453 2,15c1.49072,14.16187 2,28.76343 2,43c0,2.15465 0,31.06471 0,22" fill="none" stroke="black" stroke-linecap="round" stroke-width="5"/>
	<path d="M129,52c-4.35135,0 1.709,12.05998 2,14c1.96404,13.09362 1,26.81397 1,40c0,2.49773 3,23.47386 3,19" fill="none" stroke="black" stroke-linecap="round" stroke-width="5"/>
	<path d="M171,54c-0.94281,0.94281 -0.16538,2.67696 0,4c1.64584,13.16673 -0.53407,27.95404 -1,41c-0.09876,2.76522 2,25.7075 2,21" fill="none" stroke="black" stroke-linecap="round" stroke-width="5"/>
	<path d="M226,58c0,-6.61482 0.77539,10.79688 -1,25c-1.56559,12.52471 -5.39958,24.39126 -6,37c-0.25368,5.3273 0,16 0,16c0,0 0,-2.66667 0,-4" fill="none" stroke="black" stroke-linecap="round" stroke-width="5"/>
	<path d="M92,144c1.82731,0 1,3.56766 1,5c0,18.56413 -2.10798,37.56807 2,54c2.17666,8.70664 36.32299,-4.6646 43,-6" fill="none" stroke="black" stroke-linecap="round" stroke-width="5"/>
	<path d="M222,135c-9.27496,9.27496 5.18211,30.81789 -4,40c-15.84289,15.84289 -30.53434,6.01057 -50,12c-5.49531,1.69086 -13.90752,10 -19,10" fill="none" stroke="black" stroke-linecap="round" stroke-width="5"/>
	<path d="M205,171c0.33333,-0.33333 0.66667,-0.66667 1,-1" fill="none" stroke="black" stroke-linecap="round" stroke-width="5"/>
	<path d="M206,170c8.95971,-2.98657 0.17586,47.1207 -1,53c-0.78198,3.90992 -2.11295,22.88705 -3,22" fill="none" stroke="black" stroke-linecap="round" stroke-width="5"/>
	<path d="M194,183c0,7.61361 -2.21987,16.6808 -1,24c0.0548,0.3288 1,0.33333 1,0" fill="none" stroke="black" stroke-linecap="round" stroke-width="5"/>
	<path d="M115,196c0,18.82624 6.99297,46.02108 1,64c-0.38747,1.16241 -2.2728,-3.2728 -3,-4" fill="none" stroke="black" stroke-linecap="round" stroke-width="5"/>
</svg>
