<?xml version="1.0" ?>
<svg baseProfile="full" height="300" version="1.1" viewBox="[0, 0, 300, 300]" width="300" xmlns="http://www.w3.org/2000/svg" xmlns:ev="http://www.w3.org/2001/xml-events" xmlns:xlink="http://www.w3.org/1999/xlink">
	<defs/>
	<path d="M94,107c-4.23402,-8.46804 -2.07147,-15.71473 -3,-25c-6.15689,-61.56891 62.68211,-99.16842 102,-43c4.84957,6.92796 18.77556,48.22444 13,54c-0.88578,0.88578 -12.5821,-1.31509 -14,-1c-17.02433,3.78318 -35.77205,8.21446 -53,13c-4.56183,1.26717 -34.45719,15.37157 -32,8" fill="none" stroke="black" stroke-linecap="round" stroke-width="5"/>
	<path d="M69,72c-5.46949,-10.93898 46.06863,-23.06495 53,-17c17.73636,15.51931 34.07899,39.82118 42,62c0.60928,1.70598 8.0211,24 11,24c2.33333,0 0,-4.66667 0,-7" fill="none" stroke="black" stroke-linecap="round" stroke-width="5"/>
	<path d="M195,43c4.9817,-1.66057 5.49719,0.54143 11,1c33.47691,2.78974 28.08204,10.16408 42,38c2.92786,5.85571 11,34.16159 11,34" fill="none" stroke="black" stroke-linecap="round" stroke-width="5"/>
	<path d="M222,99c0,30.56303 -74.53,60.6175 -101,54c-4.63877,-1.15969 -10.93285,-4.93285 -14,-8c-0.30822,-0.30822 -4,-5.59791 -4,-5c0,9.4118 8.3586,25.31487 11,35c1.01472,3.72063 10.19383,23.19383 13,26c3.31824,3.31824 23.00113,-4 27,-4c12.88254,0 92.21067,-29.63201 97,-44c4.54192,-13.62576 -22,-64.63888 -22,-42" fill="none" stroke="black" stroke-linecap="round" stroke-width="5"/>
</svg>
