<?xml version="1.0" ?>
<svg baseProfile="full" height="300" version="1.1" viewBox="[0, 0, 300, 300]" width="300" xmlns="http://www.w3.org/2000/svg" xmlns:ev="http://www.w3.org/2001/xml-events" xmlns:xlink="http://www.w3.org/1999/xlink">
	<defs/>
	<path d="M69,48c0,4.96261 6,62.97934 6,50" fill="none" stroke="black" stroke-linecap="round" stroke-width="5"/>
	<path d="M66,46c25.64435,-15.38661 70.23493,-22.25215 100,-18c6.86853,0.98122 11.49232,8.78718 17,12c6.87977,4.0132 25.8916,3.45798 28,14c6.59009,32.95044 -15.40327,35.56721 -42,40c-14.00832,2.33472 -27.40081,7.05185 -41,11c-8.89195,2.58153 -15.91995,4.27001 -25,2c-0.00538,-0.00134 -9,-4.34786 -9,-1" fill="none" stroke="black" stroke-linecap="round" stroke-width="5"/>
	<path d="M68,84c5.78196,-2.89098 -10.00839,-1.94965 -12,10c-1.89454,11.36723 -1.1534,49.54951 16,52c17.89226,2.55604 -2.7254,-43.38863 -4,-47c-0.59743,-1.69272 -1.29289,-3.35008 -2,-5c-0.41523,-0.96886 -1,-1.94591 -1,-3" fill="none" stroke="black" stroke-linecap="round" stroke-width="5"/>
	<path d="M212,53c0,1.64618 6.02005,1.80401 7,2c11.71428,2.34286 30.23163,9.07907 35,21c0.48974,1.22434 2.21826,7.78174 1,9c-10.56821,10.56821 -53.20354,-15.86431 -41,-24" fill="none" stroke="black" stroke-linecap="round" stroke-width="5"/>
	<path d="M202,83c-6.58404,-13.16809 2,64.57494 2,36" fill="none" stroke="black" stroke-linecap="round" stroke-width="5"/>
	<path d="M209,118c-17.40253,0 -52.66598,23.11093 -71,28c-5.59802,1.4928 -18.80022,-0.19978 -23,4" fill="none" stroke="black" stroke-linecap="round" stroke-width="5"/>
	<path d="M93,146c0,28.10722 44.4377,43.35463 55,68c0.55709,1.29987 1.58579,3 3,3" fill="none" stroke="black" stroke-linecap="round" stroke-width="5"/>
	<path d="M207,120c0,-1.92629 16.52911,11.35274 19,13c7.6735,5.11567 38.3329,40.00065 31,51c-12.6006,18.90089 -46.18845,12.03141 -64,15c-6.63755,1.10626 -14.53173,8 -21,8" fill="none" stroke="black" stroke-linecap="round" stroke-width="5"/>
	<path d="M76,143c1,-2 1.84955,-4.08259 3,-6c1.88648,-3.14414 -0.2439,7.34145 0,11c0.57799,8.66983 1.78016,15.15618 3,24c2.35866,17.10032 6.01155,33.70215 7,51c0.4948,8.65895 -0.22656,17.41409 1,26c0.38873,2.72111 2,10.74874 2,8" fill="none" stroke="black" stroke-linecap="round" stroke-width="5"/>
</svg>
