<?xml version="1.0" ?>
<svg baseProfile="full" height="300" version="1.1" viewBox="[0, 0, 300, 300]" width="300" xmlns="http://www.w3.org/2000/svg" xmlns:ev="http://www.w3.org/2001/xml-events" xmlns:xlink="http://www.w3.org/1999/xlink">
	<defs/>
	<path d="M70,35c0,1.48149 0.84846,0.84846 2,2c3.40347,3.40347 26.25568,-18.65114 38,-21c8.92139,-1.78428 96.08962,-9.91038 98,-8c2.72809,2.72809 7.70347,17.08139 10,18c2.74279,1.09712 19.49435,0.97739 20,3c3.4906,13.96239 -17.17689,18 -27,18c-19.50167,0 -41.88318,0.31776 -62,3c-20.56367,2.74182 -44.59206,15.35198 -66,10c-9.23408,-2.30852 -24.23929,-24 -6,-24" fill="none" stroke="black" stroke-linecap="round" stroke-width="5"/>
	<path d="M100,141c0,-0.74536 -1.25464,-1 -2,-1c-5.67903,0 -23.19246,14.61508 -20,21c1.98992,3.97985 17,5.64339 17,10c0,23.16748 -9.02593,44.99259 19,53c21.88286,6.25225 91.41076,-2.9405 111,-16c6.86732,-4.57821 15.4995,-19.999 19,-27c7.35782,-14.71564 -9.51963,-12.40186 -7,-25c1.39964,-6.99821 9.35751,-5.53626 13,-11c6.82388,-10.23582 -25.02127,-16 -31,-16c-18.55983,0 -105.32959,4.21973 -117,12" fill="none" stroke="black" stroke-linecap="round" stroke-width="5"/>
	<path d="M98,59c0.94281,0 1.77134,1.08534 2,2c4.57901,18.31604 2.07855,38.30275 5,57c1.2129,7.76255 8.45745,24.45745 8,24" fill="none" stroke="black" stroke-linecap="round" stroke-width="5"/>
	<path d="M134,54c-4.89514,-4.89514 -2.34395,-2.81536 -1,16c0.444,6.21606 12,80.17764 12,53" fill="none" stroke="black" stroke-linecap="round" stroke-width="5"/>
	<path d="M152,57c0,-4.08092 7.21296,76.57408 15,61" fill="none" stroke="black" stroke-linecap="round" stroke-width="5"/>
	<path d="M182,53c9.51513,-9.51513 0.24018,-0.71158 1,35c0.09089,4.27199 2.95109,45.19563 8,25" fill="none" stroke="black" stroke-linecap="round" stroke-width="5"/>
	<path d="M206,52c1.21668,21.29185 1,40.20254 1,61c0,13.49068 7,1.31557 7,-4" fill="none" stroke="black" stroke-linecap="round" stroke-width="5"/>
	<path d="M227,50c0,-21.99594 1.25709,49.08685 1,55c-0.04481,1.03052 -1,15.16669 -1,13" fill="none" stroke="black" stroke-linecap="round" stroke-width="5"/>
</svg>
