<?xml version="1.0" ?>
<svg baseProfile="full" height="300" version="1.1" viewBox="[0, 0, 300, 300]" width="300" xmlns="http://www.w3.org/2000/svg" xmlns:ev="http://www.w3.org/2001/xml-events" xmlns:xlink="http://www.w3.org/1999/xlink">
	<defs/>
	<path d="M69,34c-5.98945,5.98945 5.17473,37.15989 6,45c0.03354,0.31859 2,19.90771 2,14" fill="none" stroke="black" stroke-linecap="round" stroke-width="5"/>
	<path d="M66,35c0,3.37115 25.01356,-1.3624 29,-1c29.46552,2.67868 55.50543,-1.66787 84,-8c3.069,-0.682 20.15095,-1.39618 21,2c2.76264,11.05055 0,25.68269 0,37c0,6.52635 0.72395,12.61975 2,19c0.06537,0.32686 0.29814,1.14907 0,1c-11.31258,-5.65629 -51.75074,8.29179 -68,11c-7.89834,1.31639 -27.00634,4.79746 -34,2c-1.38866,-0.55546 -22,-6.33459 -22,-2" fill="none" stroke="black" stroke-linecap="round" stroke-width="5"/>
	<path d="M90,93c5.35636,10.71272 6.47317,25.29433 8,37c0.13861,1.06267 5,28.13271 5,19" fill="none" stroke="black" stroke-linecap="round" stroke-width="5"/>
	<path d="M122,95c0,13.08445 1.28799,25.11794 4,38c0.2674,1.27016 5,18.89275 5,17" fill="none" stroke="black" stroke-linecap="round" stroke-width="5"/>
	<path d="M155,88c-8.08348,8.08348 4.12403,35.18346 6,43c0.45481,1.89503 3,21.50344 3,17" fill="none" stroke="black" stroke-linecap="round" stroke-width="5"/>
	<path d="M197,79c-4.1022,12.30661 1.03623,30.56281 3,43c0.55992,3.54618 4,13.59011 4,10" fill="none" stroke="black" stroke-linecap="round" stroke-width="5"/>
	<path d="M100,130c0,-9.06822 -26.99382,8.99382 -28,10c-1.86143,1.86143 -2.20747,7.71785 -2,10c0.52832,5.81148 23.03783,82.01892 29,85c1.17433,0.58717 2.28227,-0.28227 3,-1c7.73511,-7.73511 18.42809,-11.21405 28,-16c11.39388,-5.69694 103.96197,-47.92395 106,-52c0.62384,-1.24768 -6.40466,-13.61864 -7,-16c-1.89457,-7.57827 0.20263,-17.79737 -6,-24c-3.97857,-3.97857 -63.2372,-10.55256 -71,-9c-11.11023,2.22205 -29.10628,6.32971 -38,13c-3.27523,2.45642 -21,14.73392 -21,14" fill="none" stroke="black" stroke-linecap="round" stroke-width="5"/>
	<path d="M116,218c0,9.77411 0.39544,73.39544 3,76c1.41421,1.41421 0,-4 0,-6" fill="none" stroke="black" stroke-linecap="round" stroke-width="5"/>
	<path d="M234,164c0,18.36505 -1,36.74085 -1,55c0,5.04522 1,31.79188 1,27" fill="none" stroke="black" stroke-linecap="round" stroke-width="5"/>
	<path d="M202,184c0,9.70288 1,19.20314 1,29c0,0.9613 1,13.26478 1,11" fill="none" stroke="black" stroke-linecap="round" stroke-width="5"/>
	<path d="M72,148c0,19.82055 0,40.05956 0,60c0,3.33732 -2,30.79173 -2,20" fill="none" stroke="black" stroke-linecap="round" stroke-width="5"/>
	<path d="M72,151c3.94895,-15.79578 35.95252,-25.1905 50,-28c19.30793,-3.86159 82.56258,-15.43742 97,-1c7.31437,7.31437 6.89715,24.74289 11,35c1.9095,4.77374 2.25548,11.88322 5,16c1.34609,2.01914 4.4267,7 2,7c-16.67381,0 -26.69972,17.93994 -42,21c-17.90603,3.58121 -36.1121,17.55605 -53,26" fill="none" stroke="black" stroke-linecap="round" stroke-width="5"/>
</svg>
