<?xml version="1.0" ?>
<svg baseProfile="full" height="300" version="1.1" viewBox="[0, 0, 300, 300]" width="300" xmlns="http://www.w3.org/2000/svg" xmlns:ev="http://www.w3.org/2001/xml-events" xmlns:xlink="http://www.w3.org/1999/xlink">
	<defs/>
	<path d="M79,40c0.53748,1.07497 1.79815,2 3,2c18.73229,0 15.23146,-18.11573 27,-24c7.53588,-3.76794 19.70234,-3.92559 28,-6c11.30525,-2.82631 63.89446,-14.40369 72,-9c11.15329,7.43553 -4.19704,19.80296 4,28c6.34645,6.34645 21.15791,-1.84209 25,2c2.04011,2.04011 -0.51634,9.51634 -2,11c-12.3108,12.3108 -33.235,10 -49,10c-2.66667,0 -5.33333,0 -8,0c-12.65659,0 -93.53404,13.23298 -98,11c-0.60817,-0.30409 -7.63131,-7.63131 -8,-8c-2.43302,-2.43302 6,-12.68306 6,-17" fill="none" stroke="black" stroke-linecap="round" stroke-width="5"/>
	<path d="M99,183c26.46712,-13.23356 -6.30303,-24.52273 5,-33c29.31301,-21.98476 73.3005,-25.3133 108,-23c2.78771,0.18585 14.7092,-1.2908 18,2c8.70716,8.70716 -6.06689,33.93311 -5,35c11.88728,11.88728 18,23.38039 18,43c0,33.16406 -101.34921,31.92063 -120,17c-6.84334,-5.47467 -34.02101,-29.97899 -23,-41" fill="none" stroke="black" stroke-linecap="round" stroke-width="5"/>
</svg>
