<?xml version="1.0" ?>
<svg baseProfile="full" height="300" version="1.1" viewBox="[0, 0, 300, 300]" width="300" xmlns="http://www.w3.org/2000/svg" xmlns:ev="http://www.w3.org/2001/xml-events" xmlns:xlink="http://www.w3.org/1999/xlink">
	<defs/>
	<path d="M56,55c14.48665,-5.79466 26.91042,-13.35705 42,-18c27.87145,-8.57583 52.40678,-3 80,-3c8.22994,0 23.23104,-3.38448 30,0c5.79575,2.89787 17.02457,70.97543 12,76c-4.9235,4.9235 -26.49724,2.24972 -34,3c-29.53387,2.95339 -60.15783,11 -90,11c-0.82015,0 -31.93326,8.13347 -34,4c-0.33571,-0.67141 -7.32378,-51.08598 -7,-54c0.49683,-4.47148 -2.57823,-23.42177 -3,-23" fill="none" stroke="black" stroke-linecap="round" stroke-width="5"/>
	<path d="M229,83c-1.21126,0 14.02437,8.84281 17,10c19.50689,7.58601 25.19461,6.29192 37,24c1.53854,2.30781 4.46813,8 3,8" fill="none" stroke="black" stroke-linecap="round" stroke-width="5"/>
	<path d="M59,99c-3.07318,3.07318 14.6162,4.5892 11,7c-18.32182,12.21455 -17.94093,12.41346 -14,40c0.41474,2.90321 7,24 7,24c0,0 -3.99793,-10.9731 -4,-11c-0.64844,-8.42977 -1.95063,-56.88886 2,-64c7.40227,-13.32408 0,2.29785 0,5" fill="none" stroke="black" stroke-linecap="round" stroke-width="5"/>
	<path d="M70,129c0,-13.47706 4,54.43734 4,37" fill="none" stroke="black" stroke-linecap="round" stroke-width="5"/>
	<path d="M220,106c-5.06284,0 -5.50461,15.54153 -6,20c-0.3754,3.37856 -0.4037,12.4037 2,10c1.00651,-1.00651 7.7902,-18.7902 2,-13" fill="none" stroke="black" stroke-linecap="round" stroke-width="5"/>
</svg>
