<?xml version="1.0" ?>
<svg baseProfile="full" height="300" version="1.1" viewBox="[0, 0, 300, 300]" width="300" xmlns="http://www.w3.org/2000/svg" xmlns:ev="http://www.w3.org/2001/xml-events" xmlns:xlink="http://www.w3.org/1999/xlink">
	<defs/>
	<path d="M67,93c0,-15.94673 -6.88648,-38.4847 4,-53c6.35085,-8.4678 18.94424,-13 29,-13c37.25679,0 50.74276,28.59964 60,61c1.04655,3.66293 6.12537,14.62389 5,18c-0.11697,0.35091 -7.287,0 -8,0c-25.21493,0 -57.1691,29.41545 -84,16c-2.76347,-1.38174 -6.4914,-38 -11,-38" fill="none" stroke="black" stroke-linecap="round" stroke-width="5"/>
	<path d="M162,94c0,-11.48856 37.38323,-4.52096 45,5c14.94691,18.68364 19,51.84223 19,75c0,13.19548 -3,27.33619 -3,41c0,4.14724 -0.80953,8.95235 0,13c0.18027,0.90133 3,7.4173 3,5" fill="none" stroke="black" stroke-linecap="round" stroke-width="5"/>
	<path d="M69,118c0,1.75405 19.44659,0.81553 23,2c19.24792,6.41597 36.14247,30.71236 40,50c3.59063,17.95314 3,39.58279 3,58c0,5.12896 -1,38.2516 -1,23" fill="none" stroke="black" stroke-linecap="round" stroke-width="5"/>
	<path d="M71,133c4.05217,-6.07825 2.57594,12.54742 3,17c1.69993,17.84922 0.69124,35.35326 4,53c1.43232,7.63903 2,14.19223 2,22c0,0.66667 0,2.66667 0,2c0,-2.33333 0,-4.66667 0,-7" fill="none" stroke="black" stroke-linecap="round" stroke-width="5"/>
	<path d="M76,146c0,-3.19388 1.28137,-2 5,-2c13.78936,0 26.38945,7.43509 41,5c28.61702,-4.7695 48.17201,-30.17201 65,-47c0.52261,-0.52261 4.43308,1.71654 5,2c5.86075,2.93038 40.96704,40.06593 36,50c-12.60885,25.21769 -81.03099,63.9845 -109,50c-18.8272,-9.4136 -21.53623,-20.53623 -34,-33c-5.40748,-5.40748 -13,-15.56589 -13,-24" fill="none" stroke="black" stroke-linecap="round" stroke-width="5"/>
	<path d="M76,120c-0.81424,0.81424 0,6.07334 0,9c0,23.03094 39,22.05096 39,10" fill="none" stroke="black" stroke-linecap="round" stroke-width="5"/>
	<path d="M115,145c7.97639,0 20,26.97311 20,33" fill="none" stroke="black" stroke-linecap="round" stroke-width="5"/>
</svg>
