<?xml version="1.0" ?>
<svg baseProfile="full" height="300" version="1.1" viewBox="[0, 0, 300, 300]" width="300" xmlns="http://www.w3.org/2000/svg" xmlns:ev="http://www.w3.org/2001/xml-events" xmlns:xlink="http://www.w3.org/1999/xlink">
	<defs/>
	<path d="M77,31c8.16094,38.76445 13,67.25669 13,53" fill="none" stroke="black" stroke-linecap="round" stroke-width="5"/>
	<path d="M74,33c0,-6.51581 85.60211,-32.29049 89,-17c3.50012,15.75053 16.40514,44.32477 7,60c-0.93615,1.56026 -5.29104,1.06445 -6,1c-26.68424,-2.42584 -42.1861,11.29338 -59,10c-6.70096,-0.51546 -1.58143,-5.20928 0,-6" fill="none" stroke="black" stroke-linecap="round" stroke-width="5"/>
	<path d="M75,32c0,-0.94184 -1,15.40364 -1,18c0,11.79693 2,23.28704 2,35c0,16.4796 7.18857,111.12571 22,121c3.12783,2.08522 4.52102,-1.12615 5,-4c2.86048,-17.16289 -2.51258,-53.24371 17,-63c20.54401,-10.272 12.93131,62.96566 27,70c13.49483,6.74741 5.7091,-48.7091 16,-59" fill="none" stroke="black" stroke-linecap="round" stroke-width="5"/>
	<path d="M105,104c-7.83906,0 -5.34763,0.17382 17,-11c17.70548,-8.85274 37.61729,-14.51075 56,-22c7.45075,-3.03549 30.68078,-12 28,-12" fill="none" stroke="black" stroke-linecap="round" stroke-width="5"/>
	<path d="M195,67c0,18.58542 30.90052,39.39794 28,51c-2.3745,9.49801 -11.87447,11.84344 -19,16c-8.70536,5.07813 -16.60899,12.70112 -27,14c-1.0149,0.12686 -3.4509,0.6473 -4,-1c-5.64794,-16.94383 -43.44861,-16.49874 -55,-27c-4.23534,-3.85031 -6.4999,-9.99979 -9,-15" fill="none" stroke="black" stroke-linecap="round" stroke-width="5"/>
</svg>
