<?xml version="1.0" ?>
<svg baseProfile="full" height="300" version="1.1" viewBox="[0, 0, 300, 300]" width="300" xmlns="http://www.w3.org/2000/svg" xmlns:ev="http://www.w3.org/2001/xml-events" xmlns:xlink="http://www.w3.org/1999/xlink">
	<defs/>
	<path d="M75,19c0,-1.33333 0,-1.33333 0,0c0,7.37434 12,52.12261 12,32" fill="none" stroke="black" stroke-linecap="round" stroke-width="5"/>
	<path d="M79,19c-1.90577,-3.81155 1.12801,-2.61707 4,-3c15.55556,-2.07408 30.42686,-6.92358 46,-9c5.6557,-0.75409 11.3606,-1.1324 17,-2c1.35839,-0.20898 2.64433,-0.77406 4,-1c16.00956,-2.66826 34.63535,-1 51,-1c1.33333,0 3.40372,-1.19257 4,0c4.14183,8.28366 4.94064,22.46574 6,32c0.15985,1.43864 0.64903,6.35097 -1,8c-5.22113,5.22113 -78.49326,8.96102 -92,10c-10.83602,0.83354 -22.1719,5.19532 -33,7c-0.3288,0.0548 0.66667,0 1,0" fill="none" stroke="black" stroke-linecap="round" stroke-width="5"/>
	<path d="M93,61c0,-3.34955 -6.20903,-5.34838 -3,0c19.29881,32.16468 14.46216,46.31079 21,79c0.35204,1.7602 1.64796,-3.2398 2,-5" fill="none" stroke="black" stroke-linecap="round" stroke-width="5"/>
	<path d="M125,50c0,18.95819 12.34061,40.08732 14,60c0.30809,3.69711 5,28.08759 5,24" fill="none" stroke="black" stroke-linecap="round" stroke-width="5"/>
	<path d="M166,45c0,19.58667 1,39.33415 1,59c0,9.18982 1.41872,13.22363 4,22c1.14423,3.8904 2,16.05518 2,12c0,-2 0,-4 0,-6" fill="none" stroke="black" stroke-linecap="round" stroke-width="5"/>
	<path d="M203,37c0,25.2396 -0.1427,49.92639 -2,75c-0.06561,0.88568 0.60967,37.82902 -3,27" fill="none" stroke="black" stroke-linecap="round" stroke-width="5"/>
	<path d="M204,141c-3.50925,0 -3.83309,-5.30552 -8,-6c-22.03316,-3.67219 -55.77333,-9.55667 -78,-4c-35.47887,8.86972 -20.68017,42.63966 -10,64c3.12685,6.2537 2.21587,15.3238 6,21c0.58824,0.88235 2.11765,2.41176 3,3c8.33395,5.55597 17.43295,-6.55227 26,-9c12.80407,-3.65831 77.35023,-10.70045 83,-22c0.1008,-0.20161 -4.29853,-5.31319 -4,-8c1.299,-11.69102 0.83772,-37.38743 -13,-42c-1.63948,-0.54649 -4,0.14296 -4,2" fill="none" stroke="black" stroke-linecap="round" stroke-width="5"/>
	<path d="M119,219c0,-2.0067 -0.43397,2.86793 -1,4c-1.14719,2.29438 -5.36176,9.27648 -4,12c2.28965,4.57929 11.39857,-0.43771 13,-3c0.09142,-0.14627 3.86986,-7.06507 2,-8c-1.33333,-0.66667 -4,-0.50929 -4,-2" fill="none" stroke="black" stroke-linecap="round" stroke-width="5"/>
	<path d="M119,235c0,10.88905 -6.76805,36.23195 0,43c3.06413,3.06413 -2.70701,16.38376 0,13c2.50744,-3.1343 8,-9 8,-9c0,0 -1.55299,-33.08288 -2,-38c-0.38253,-4.20779 -3.89937,-0.59958 -6,-2c-1.68705,-1.1247 0.50824,-4.03295 1,-6" fill="none" stroke="black" stroke-linecap="round" stroke-width="5"/>
	<path d="M97,147c-28.01188,37.34917 11.23492,35.35238 3,23" fill="none" stroke="black" stroke-linecap="round" stroke-width="5"/>
	<path d="M88,174c-1.66667,0 -3.66667,-1 -5,0c-4.00888,3.00666 2.08706,10.10823 1,15c-0.53139,2.39128 -6.15479,15.05651 -3,19c4.71321,5.89151 6.22563,1.69917 9,-2c0.28284,-0.37712 1,-1.4714 1,-1c0,4.58641 -8.4816,10.55521 -7,15c0.20742,0.62227 4.45961,-0.54039 5,0c1.18569,1.18569 -7,23.11559 -7,26c0,0.4714 0.55279,0.85093 1,1c14.29757,4.76586 12.48274,-39.82742 13,-45c0.52504,-5.25035 1.01779,-19.03559 0,-17" fill="none" stroke="black" stroke-linecap="round" stroke-width="5"/>
</svg>
