<?xml version="1.0" ?>
<svg baseProfile="full" height="300" version="1.1" viewBox="[0, 0, 300, 300]" width="300" xmlns="http://www.w3.org/2000/svg" xmlns:ev="http://www.w3.org/2001/xml-events" xmlns:xlink="http://www.w3.org/1999/xlink">
	<defs/>
	<path d="M46,114c4.50593,0 48.2487,26.2487 56,34c3.25539,3.25539 3.29319,15.6466 8,18c1.76159,0.8808 6.05474,0 8,0c2.29208,0 4.75434,0.49133 6,-2c12.65864,-25.31728 -45.14982,-73.85018 -67,-52c-1.01385,1.01385 1,5.35035 1,7" fill="none" stroke="black" stroke-linecap="round" stroke-width="5"/>
	<path d="M63,106c0,-9.56388 -3.3667,-22.5332 -1,-32c5.99301,-23.97202 66.58385,-20 87,-20c12.12191,0 42.98929,-6.01606 51,6c4.92762,7.39143 3.14035,19.4035 4,28c0.80135,8.01347 11.21368,29.89316 -1,36c-9.28038,4.64019 -26.78248,1 -37,1c-17.17499,0 -35.24088,-3 -53,-3" fill="none" stroke="black" stroke-linecap="round" stroke-width="5"/>
	<path d="M212,105c28.7048,0 41.63926,15.85235 56,35c0.71709,0.95612 5.81287,10.09357 4,11c-5.35545,2.67773 -21.73669,0.26331 -26,-4c-6.15035,-6.15035 -9.76836,-16.51224 -18,-22c-6.20718,-4.13812 -17.18156,-8.18156 -22,-13" fill="none" stroke="black" stroke-linecap="round" stroke-width="5"/>
	<path d="M117,166c0,16.64065 8.25271,54 -14,54c-38.03933,0 -41,-64.57547 -41,-94" fill="none" stroke="black" stroke-linecap="round" stroke-width="5"/>
</svg>
