<?xml version="1.0" ?>
<svg baseProfile="full" height="300" version="1.1" viewBox="[0, 0, 300, 300]" width="300" xmlns="http://www.w3.org/2000/svg" xmlns:ev="http://www.w3.org/2001/xml-events" xmlns:xlink="http://www.w3.org/1999/xlink">
	<defs/>
	<path d="M95,30c32.36111,0 65.85696,2.92209 98,0c4.31256,-0.39205 31.07341,-7.92659 34,-5c0.75318,0.75318 4.2468,46.72761 5,52c1.70549,11.93844 7,24.50303 7,36c0,0.33333 0.2357,0.7643 0,1c-4.2027,4.2027 -35.25365,0.18985 -40,0c-13.39698,-0.53588 -114.21718,3.39141 -123,-1c-1.44046,-0.72023 1.96853,-11.68534 2,-12c2.29824,-22.98235 -5.50456,-48.47722 -1,-71c0.71915,-3.59577 30.02463,0 22,0" fill="none" stroke="black" stroke-linecap="round" stroke-width="5"/>
	<path d="M72,39c-4.28856,2.14428 -11.57085,0.57085 -15,4c-6.65445,6.65445 -2,59.86854 -2,71c0,8.2951 1.42334,20.27002 4,28c0.25158,0.75473 1,14.0039 1,8" fill="none" stroke="black" stroke-linecap="round" stroke-width="5"/>
	<path d="M63,70c0,2.79679 0,12.01737 0,11" fill="none" stroke="black" stroke-linecap="round" stroke-width="5"/>
	<path d="M69,120c0,2.47352 1,3.77652 1,5" fill="none" stroke="black" stroke-linecap="round" stroke-width="5"/>
	<path d="M231,43c40.69267,0 29,77.34931 29,106" fill="none" stroke="black" stroke-linecap="round" stroke-width="5"/>
</svg>
