<?xml version="1.0" ?>
<svg baseProfile="full" height="300" version="1.1" viewBox="[0, 0, 300, 300]" width="300" xmlns="http://www.w3.org/2000/svg" xmlns:ev="http://www.w3.org/2001/xml-events" xmlns:xlink="http://www.w3.org/1999/xlink">
	<defs/>
	<path d="M93,138c0,-11.25677 -16.44971,-72.55029 -8,-81c11.56003,-11.56003 43.32739,-6 61,-6c9.16206,0 23.39718,2.86761 32,0c1.2094,-0.40313 7.54341,-2.45659 9,-1c3.4713,3.4713 7.41553,16.73973 8,22c2.4475,22.02754 4,49.53886 4,70c0,0.33333 0.1849,0.72265 0,1c-0.52298,0.78446 -1.21554,1.47702 -2,2c-11.88715,7.92476 -39.86247,2 -54,2c-18.70004,0 -45.61178,5.16466 -52,-14" fill="none" stroke="black" stroke-linecap="round" stroke-width="5"/>
	<path d="M85,86c0,-24.89138 95.01991,-21.98009 100,-17c2.93264,2.93264 4.77463,6.77463 8,10" fill="none" stroke="black" stroke-linecap="round" stroke-width="5"/>
	<path d="M95,133c0,18.31133 -14.99042,108.00319 6,115c1.97835,0.65945 4.30512,-4.61023 5,-6c0.86923,-1.73845 2.46604,-3.13113 3,-5c0.45787,-1.60254 0,-3.33333 0,-5c0,-13.8166 -1.22279,-41.55443 5,-54c0.59135,-1.1827 3.36459,-5.63541 6,-3c5.14154,5.14154 17.91162,3.91162 23,9c5.82358,5.82358 5,31.99205 5,40c0,1.66667 0,3.33333 0,5c0,8.52361 0.95769,30.97884 9,35c0.98043,0.49021 5.74002,2.25998 7,1c16.61917,-16.61917 -10.82018,-74.35965 -8,-80c1.0465,-2.09299 6.96121,-1 9,-1" fill="none" stroke="black" stroke-linecap="round" stroke-width="5"/>
</svg>
