<?xml version="1.0" ?>
<svg baseProfile="full" height="300" version="1.1" viewBox="[0, 0, 300, 300]" width="300" xmlns="http://www.w3.org/2000/svg" xmlns:ev="http://www.w3.org/2001/xml-events" xmlns:xlink="http://www.w3.org/1999/xlink">
	<defs/>
	<path d="M77,89c0,-4.11896 48.49216,-17.5837 54,-19c16.52709,-4.24982 29.99177,-6 47,-6c36.75206,0 34.09549,8.80106 42,42c1.24888,5.24529 14.81038,33.18962 11,37c-5.09728,5.09728 -35.13781,-1.90199 -37,-2c-13.36984,-0.70368 -106.9337,6.53315 -120,0c-1.19257,-0.59628 0,-2.66667 0,-4c0,-5.74994 0.09596,-41 0,-41" fill="none" stroke="black" stroke-linecap="round" stroke-width="5"/>
	<path d="M67,119c-19.12941,0 -45.71877,-1.01568 -38,26c0.67329,2.35653 11.31105,14.68895 15,11c6.08055,-6.08055 -5.16645,-14.41677 6,-20c5.45606,-2.72803 25.43423,-5 23,-5" fill="none" stroke="black" stroke-linecap="round" stroke-width="5"/>
	<path d="M220,105c9.4953,0 19.80017,-1.29996 29,1c10.20245,2.55061 40.15159,26.69683 33,41c-2.67847,5.35695 -22.21721,6.34836 -24,1c-4.45981,-13.37944 -9.06016,-34 -29,-34" fill="none" stroke="black" stroke-linecap="round" stroke-width="5"/>
</svg>
