<?xml version="1.0" ?>
<svg baseProfile="full" height="300" version="1.1" viewBox="[0, 0, 300, 300]" width="300" xmlns="http://www.w3.org/2000/svg" xmlns:ev="http://www.w3.org/2001/xml-events" xmlns:xlink="http://www.w3.org/1999/xlink">
	<defs/>
	<path d="M76,64c0,-10.45764 55.0642,-13 65,-13c11.8361,0 34.55212,-6.22394 45,-1c14.19321,7.0966 11.03136,53.71776 10,63c-0.30299,2.72691 3.05798,29.94202 1,32c-3.12336,3.12336 -46.04724,-3.22747 -53,-4c-8.48362,-0.94262 -39.19088,-5.80912 -46,1c-2.85842,2.85842 -11.07266,9 -16,9c-0.33333,0 0,-0.66667 0,-1c0,-10.03138 -4.46581,-20.28559 -7,-30c-6.22304,-23.85497 -13,-47.26777 -13,-72" fill="none" stroke="black" stroke-linecap="round" stroke-width="5"/>
	<path d="M80,131c9.03691,0 23.71877,9.10097 30,12c10.23625,4.72442 12.56066,10.41421 19,19c19.75442,26.33923 -51,10.97028 -51,-19" fill="none" stroke="black" stroke-linecap="round" stroke-width="5"/>
	<path d="M198,122c1.85008,0 2.83831,-0.08085 5,1c5.53042,2.76521 51.74555,27.25445 43,36c-11.20172,11.20172 -42.42767,-24 -49,-24" fill="none" stroke="black" stroke-linecap="round" stroke-width="5"/>
	<path d="M78,147c0,13.10246 -4.26526,37.20422 0,50c3.22677,9.68031 47.95446,28.09108 54,16c4.86482,-9.72965 -1,-29.04291 -1,-40" fill="none" stroke="black" stroke-linecap="round" stroke-width="5"/>
</svg>
