<?xml version="1.0" ?>
<svg baseProfile="full" height="300" version="1.1" viewBox="[0, 0, 300, 300]" width="300" xmlns="http://www.w3.org/2000/svg" xmlns:ev="http://www.w3.org/2001/xml-events" xmlns:xlink="http://www.w3.org/1999/xlink">
	<defs/>
	<path d="M98,51c8.16434,-8.16434 31.89682,-5.04455 42,-7c22.92748,-4.43758 51.81707,-12.83659 76,-8c1.34768,0.26954 0.73046,2.65232 1,4c3.95009,19.75044 6,37.69392 6,58c0,11.02044 6.95131,22.57303 0,33c-5.62078,8.43117 -46.11651,-6.35979 -57,-7c-21.41087,-1.25946 -45.37801,-1.892 -66,4c-0.45648,0.13042 -6,4 -6,4c0,0 0,-10.75179 0,-11c0,-12.89413 -19.3068,-64 8,-64" fill="none" stroke="black" stroke-linecap="round" stroke-width="5"/>
	<path d="M89,102c5.1088,5.1088 23.59421,44.2319 32,56c0.55291,0.77408 3.18274,4.81726 5,3c8.78649,-8.78649 -19.88924,-58 -29,-58" fill="none" stroke="black" stroke-linecap="round" stroke-width="5"/>
	<path d="M121,155c0,10.87539 8.27659,29.44682 3,40c-4.712,9.42399 -30.44569,-4.67416 -32,-14c-3.62404,-21.74425 3,-45.83521 3,-68" fill="none" stroke="black" stroke-linecap="round" stroke-width="5"/>
	<path d="M94,152c30.55568,0 60.9087,-2 91,-2c2.59269,0 26.3341,-2.6659 28,-1c9.94054,9.94054 34.87941,21.75882 40,32c0.37027,0.74054 3.83787,2.16213 2,4c-5.57335,5.57335 -67.26626,5 -75,5c-17.13896,0 -32.7038,5 -50,5" fill="none" stroke="black" stroke-linecap="round" stroke-width="5"/>
	<path d="M227,105c4.06578,0 11.29846,8.97384 14,11c31.34438,23.50828 13.30139,40.62195 -5,15c-5.17787,-7.24902 -10.43733,-15.43733 -16,-21" fill="none" stroke="black" stroke-linecap="round" stroke-width="5"/>
	<path d="M258,142c0,17.52787 4,33.91584 4,51" fill="none" stroke="black" stroke-linecap="round" stroke-width="5"/>
	<path d="M143,198c0,7.08547 5.75008,13.12543 7,20c0.35958,1.9777 9.79608,78.20392 5,83c-10.58432,10.58432 -42.11255,-33.16883 -48,-42c-0.652,-0.97801 -3.89482,-5.10518 -3,-6c1.89443,-1.89443 6.33793,-1 8,-1c13.78298,0 89.20045,-4.59974 99,1c8.00779,4.57588 36.78827,44.21173 45,36c12.0853,-12.0853 -4,-79.9931 -4,-101" fill="none" stroke="black" stroke-linecap="round" stroke-width="5"/>
</svg>
