<?xml version="1.0" ?>
<svg baseProfile="full" height="300" version="1.1" viewBox="[0, 0, 300, 300]" width="300" xmlns="http://www.w3.org/2000/svg" xmlns:ev="http://www.w3.org/2001/xml-events" xmlns:xlink="http://www.w3.org/1999/xlink">
	<defs/>
	<path d="M86,61c0,-10.2992 44.4794,-11.83281 51,-12c65.49587,-1.67938 73.58629,-19.53428 97,39c1.98469,4.96172 14.59843,30.40157 8,37c-0.94281,0.94281 -2.68217,0.20274 -4,0c-24.57389,-3.7806 -48.11198,-5 -73,-5c-15.42867,0 -30.65107,0.90365 -46,2c-5.1485,0.36775 -10.89839,1.2712 -16,2c-1.92412,0.27487 -4.5286,4.88562 -5,3c-5.02159,-20.08638 -19.59395,-37.34553 -22,-59c-0.14174,-1.27563 -0.74965,-9 1,-9" fill="none" stroke="black" stroke-linecap="round" stroke-width="5"/>
	<path d="M81,95c-53.29481,0 8.37477,64.62523 21,52c6.11764,-6.11764 -12.83938,-17.11917 -15,-20c-3.21167,-4.28222 -7.09732,-9.58391 -8,-15c-1.04605,-6.27631 5,-10.27471 5,-13" fill="none" stroke="black" stroke-linecap="round" stroke-width="5"/>
	<path d="M236,84c0,-1.3165 2.55971,-1.5199 4,-2c14.31062,-4.77021 50.90654,27.18693 46,37c-0.91363,1.82726 -4.50757,1 -6,1c-20.25844,0 -19.58311,-27 -40,-27" fill="none" stroke="black" stroke-linecap="round" stroke-width="5"/>
</svg>
