<?xml version="1.0" ?>
<svg baseProfile="full" height="300" version="1.1" viewBox="[0, 0, 300, 300]" width="300" xmlns="http://www.w3.org/2000/svg" xmlns:ev="http://www.w3.org/2001/xml-events" xmlns:xlink="http://www.w3.org/1999/xlink">
	<defs/>
	<path d="M116,44c0,13.0601 -5.26105,28.21686 -1,41c2.52012,7.56035 10.19273,14.77093 12,22c1.29119,5.16474 1.70846,13.41692 4,18c2.61154,5.22308 32.8474,1 37,1c9.40152,0 19.97842,0.02158 27,-7c5.75821,-5.75821 0.01588,-20.94442 -2,-28c-4.0308,-14.1078 -7.54102,-42.32461 -22,-51c-14.36889,-8.62133 -39.56858,4 -54,4c-1.67568,0 -4,-0.24145 -4,2" fill="none" stroke="black" stroke-linecap="round" stroke-width="5"/>
	<path d="M187,66c0,-7.56519 -5.72644,-16.35864 -7,-24c-0.99956,-5.99735 1.88317,-14.11683 -2,-18c-6.60774,-6.60774 -27.37572,-4 -37,-4c-7.40327,0 -22.04161,-0.95839 -27,4c-10.42853,10.42853 9,112.60782 9,129c0,13.71226 0.32709,29.63544 3,43c1.09515,5.47574 1.36549,49.36549 2,50c6.12577,6.12577 14.81599,-7.26396 16,-12c1.55306,-6.21225 -3.54285,-43.45715 -2,-45c3.8233,-3.8233 13.53112,2.76556 16,4c32.98846,16.49423 13.44759,37.79035 21,68c0.18078,0.7231 0.81922,1.2769 1,2c0.40385,1.61542 1.75394,6.25131 4,7c4.57978,1.52659 3.89123,-3.22809 5,-6c7.5293,-18.82324 -11.19878,-46.60244 -2,-65c4.33961,-8.67923 33.89042,-0.26575 21,-8" fill="none" stroke="black" stroke-linecap="round" stroke-width="5"/>
	<path d="M134,167c10.60249,0 26.32296,20.21531 35,26c15.86032,10.57355 75.33753,-1.5063 85,-16c6.34342,-9.51513 -18.25446,-13.92985 -22,-15c-2.64298,-0.75514 -5.32165,-1.38192 -8,-2c-2.99448,-0.69103 -6.00552,-1.30897 -9,-2c-1.33917,-0.30904 -2.62868,-0.90858 -4,-1c-6.99606,-0.4664 -74,-12.29287 -74,8" fill="none" stroke="black" stroke-linecap="round" stroke-width="5"/>
</svg>
