<?xml version="1.0" ?>
<svg baseProfile="full" height="300" version="1.1" viewBox="[0, 0, 300, 300]" width="300" xmlns="http://www.w3.org/2000/svg" xmlns:ev="http://www.w3.org/2001/xml-events" xmlns:xlink="http://www.w3.org/1999/xlink">
	<defs/>
	<path d="M93,68c0,5.42134 6.23208,99.23208 8,101c1.73748,1.73748 48.33581,-0.87313 51,-1c15.02818,-0.71563 58.37191,5.62809 69,-5c1.41421,-1.41421 0.52623,-4.07047 0,-6c-4.72705,-17.3325 -10.12854,-33.90926 -12,-52c-0.91211,-8.81709 1.33357,-37.66643 -5,-44c-12.02095,-12.02095 -78.50651,4 -98,4" fill="none" stroke="black" stroke-linecap="round" stroke-width="5"/>
	<path d="M93,150c12.53751,0 35.69947,23.69947 45,33c1.00872,1.00872 3.9328,2.0672 5,1c1.20694,-1.20694 3.6373,-10.82378 4,-13c0.25057,-1.50344 5.07375,-9.92625 4,-11c-12.98447,-12.98447 -30.22072,-16 -47,-16" fill="none" stroke="black" stroke-linecap="round" stroke-width="5"/>
	<path d="M213,138c16.80401,0 52,-0.04044 52,26c0,0.32675 1.63824,9.36176 1,10c-0.21525,0.21525 -14.66633,-2.75751 -16,-3c-8.6407,-1.57104 -13.68277,-1.34138 -21,-5c-5.12749,-2.56374 -8.36058,-21.36058 -14,-27" fill="none" stroke="black" stroke-linecap="round" stroke-width="5"/>
	<path d="M96,153c-6.34831,6.34831 -2.76865,63.69279 6,71c7.14647,5.95539 18.65001,6.21667 27,9c5.43287,1.81096 11.37055,3.62945 16,-1c2.20423,-2.20423 -1,-46.74143 -1,-57" fill="none" stroke="black" stroke-linecap="round" stroke-width="5"/>
</svg>
