<?xml version="1.0" ?>
<svg baseProfile="full" height="300" version="1.1" viewBox="[0, 0, 300, 300]" width="300" xmlns="http://www.w3.org/2000/svg" xmlns:ev="http://www.w3.org/2001/xml-events" xmlns:xlink="http://www.w3.org/1999/xlink">
	<defs/>
	<path d="M118,131c-17.2861,-34.5722 11.72292,-80.19647 52,-74c17.83244,2.74345 29.09465,28.73148 40,41c3.42478,3.85287 24.83192,42.16808 20,47c-3.25228,3.25228 -24.09804,-1.69453 -27,-2c-9.36022,-0.98529 -82.16791,0.91604 -84,0c-0.6564,-0.3282 0,-8.92182 0,-10" fill="none" stroke="black" stroke-linecap="round" stroke-width="5"/>
	<path d="M105,122c15.4481,-15.4481 59.71043,34.57914 55,44c-1.0435,2.087 -4.67473,0.19377 -7,0c-4.77299,-0.39775 -11.41523,-0.85381 -16,-2c-2.66667,-0.66667 -0.6651,-5.59717 -2,-8c-4.41963,-7.95533 -9.64335,-17.48251 -17,-23c-3.93675,-2.95256 -13.55461,-1.55461 -16,-4c-4.795,-4.795 8.67795,-10 11,-10" fill="none" stroke="black" stroke-linecap="round" stroke-width="5"/>
	<path d="M217,106c26.91966,0 53.3268,15.3072 60,42c0.77582,3.10326 -1.36055,11.63945 1,14c1.58114,1.58114 -1.60314,-4.25392 -3,-6c-2.58916,-3.23645 -4.88867,-7.40723 -8,-10c-11.3637,-9.46975 -22.84205,-22.84205 -32,-32" fill="none" stroke="black" stroke-linecap="round" stroke-width="5"/>
</svg>
