<?xml version="1.0" ?>
<svg baseProfile="full" height="300" version="1.1" viewBox="[0, 0, 300, 300]" width="300" xmlns="http://www.w3.org/2000/svg" xmlns:ev="http://www.w3.org/2001/xml-events" xmlns:xlink="http://www.w3.org/1999/xlink">
	<defs/>
	<path d="M50,85c-3.29689,0 0.19098,-28.7639 1,-32c0.94005,-3.76021 -3.37437,-18.31282 0,-20c10.77768,-5.38884 35.16918,-2 48,-2c23.01824,0 131.20934,-4.93022 146,0c7.3398,2.4466 9.38156,11.76311 13,19c3.89282,7.78563 -4,19.04667 -4,24c0,3.23058 8.26894,14.73106 4,19c-19.74986,19.74986 -131.78858,5 -163,5c-15.28529,0 -35.98582,3.00709 -50,-4c-2.84571,-1.42285 -0.5852,-30.5852 4,-26" fill="none" stroke="black" stroke-linecap="round" stroke-width="5"/>
	<path d="M96,168c0,16.5622 16.07356,26.02102 30,30" fill="none" stroke="black" stroke-linecap="round" stroke-width="5"/>
	<path d="M150,181c-23.2666,-7.75553 -35.60701,-9.13352 -57,1c-8.1951,3.88189 -21.72698,5.09047 -27,13c-12.08322,18.12483 25.45336,68.96269 38,79c19.742,15.7936 44.41035,17.20679 69,18c28.30497,0.91306 34.36331,-3.03212 53,-23c9.64706,-10.33614 21.27373,-18.82119 26,-33c11.17845,-33.53535 -52.03451,-43.67817 -71,-50c-21.99995,-7.33332 -43.40663,-24 -67,-24" fill="none" stroke="black" stroke-linecap="round" stroke-width="5"/>
	<path d="M63,89c-4.93808,9.87615 -3.58541,82.41459 6,92c3.38501,3.38501 17.58783,1.36969 22,2c0.24574,0.03511 10.10485,1.62912 10,1c-1.73156,-10.38934 -11.61496,-24.18338 -15,-34c-6.89094,-19.98373 -12,-47.59062 -12,-69" fill="none" stroke="black" stroke-linecap="round" stroke-width="5"/>
	<path d="M110,103c5.90868,0 4.2189,18.05988 4,22c-1.03487,18.62772 -16.44059,80.2401 21,74c22.03625,-3.67271 9.27453,-52.93717 6,-68c-2.21095,-10.17038 -9.63129,-25.36871 -1,-34c2.67442,-2.67442 2,0.83006 2,3" fill="none" stroke="black" stroke-linecap="round" stroke-width="5"/>
	<path d="M176,106c0,23.37608 -7.9695,37.939 -19,60" fill="none" stroke="black" stroke-linecap="round" stroke-width="5"/>
</svg>
