<?xml version="1.0" ?>
<svg baseProfile="full" height="300" version="1.1" viewBox="[0, 0, 300, 300]" width="300" xmlns="http://www.w3.org/2000/svg" xmlns:ev="http://www.w3.org/2001/xml-events" xmlns:xlink="http://www.w3.org/1999/xlink">
	<defs/>
	<path d="M47,143c0,-33.62005 10.0315,-93.0315 34,-117c8.45659,-8.45659 92.9695,-1.20305 105,0c19.09307,1.90931 58.62555,-4.92423 70,11c7.09339,9.93075 4.18944,17.13666 6,28c0.17077,1.02461 5.3092,6.3092 6,7c9.5329,9.5329 -7.57916,79.57916 -17,89c-1.73995,1.73995 -1.58945,10 -5,10" fill="none" stroke="black" stroke-linecap="round" stroke-width="5"/>
	<path d="M246,171c0,12.32982 8.15932,53.57966 19,59c2.68745,1.34373 25,1.9692 25,0" fill="none" stroke="black" stroke-linecap="round" stroke-width="5"/>
	<path d="M59,143c0,5.13121 3.45096,11.19615 2,17c-2.68327,10.73309 -14.30208,25.39583 -8,38c5.39932,10.79864 37.66395,22.28997 50,30c5.80253,3.62658 10.12812,20 17,20" fill="none" stroke="black" stroke-linecap="round" stroke-width="5"/>
	<path d="M114,244c0,3.72284 -7.14087,14.2113 -9,17c-3.60054,5.40082 -1.32309,11.32309 -6,16c-19.9234,19.9234 -63.49346,1.00872 -77,-17c-6.47929,-8.63905 -26.94341,-31.05659 -15,-43c2.15821,-2.15821 40.61404,-2.83892 47,-4c27.34638,-4.97207 56.88599,0.37977 84,-6c7.44601,-1.752 14.51805,-6.50361 22,-8c7.61882,-1.52376 16.47075,1.88231 24,0c8.42244,-2.10561 38.47497,-9.52503 47,-1c3.52291,3.52291 -17.7936,56.04128 32,66c17.56983,3.51397 43.99753,7.59211 36,-18c-9.12788,-29.2092 -14.0921,-42.01727 -46,-48" fill="none" stroke="black" stroke-linecap="round" stroke-width="5"/>
	<path d="M25,161c17.34795,0 26.39089,-12.54861 47,-7c25.51245,6.86874 59.96975,24.5637 77,45c6.14307,7.37168 9.17086,21.24768 13,30c2.11808,4.84132 9.22282,17.55436 6,24c-6.71665,13.43331 -36.78224,-3.20118 -44,-7c-5.00585,-2.63466 -8,-8 -12,-12c-4.40832,-4.40832 -24.47474,-7.56565 -31,-11c-14.25722,-7.5038 -63.61285,-50.64526 -52,-70" fill="none" stroke="black" stroke-linecap="round" stroke-width="5"/>
</svg>
