<?xml version="1.0" ?>
<svg baseProfile="full" height="300" version="1.1" viewBox="[0, 0, 300, 300]" width="300" xmlns="http://www.w3.org/2000/svg" xmlns:ev="http://www.w3.org/2001/xml-events" xmlns:xlink="http://www.w3.org/1999/xlink">
	<defs/>
	<path d="M42,49c7.32757,0 17.22403,-12.53734 26,-14c43.91484,-7.31914 88.39074,12.91296 131,19c5.59553,0.79936 48.42206,5.84412 52,13c0.54441,1.08882 0.54441,7.91118 0,9c-12.11578,24.23155 -8,66.71276 -8,95c0,0.41176 0.26471,2.73529 0,3c-2.24617,2.24617 -10.43833,17.24667 -9,23c5.41617,21.66468 42.35326,28.41169 60,24c1.83948,-0.45987 8,-2.81836 8,-5" fill="none" stroke="black" stroke-linecap="round" stroke-width="5"/>
	<path d="M55,47c3.93918,0 3,2.71199 3,6c0,18.47031 -2.96754,33.93508 -11,50c-0.33333,0.66667 -0.81922,1.2769 -1,2c-0.16169,0.64676 0.21082,1.36754 0,2c-6.13593,18.4078 -12.63659,35.22808 -18,54c-2.59984,9.09943 -8.43879,18.09699 -12,27c-7.33487,18.33717 13.36361,49.27272 32,53c10.12483,2.02497 19.20863,1 29,1" fill="none" stroke="black" stroke-linecap="round" stroke-width="5"/>
	<path d="M31,153c52.72922,0 104.37951,1.49197 157,5c18.90878,1.26059 32.51635,2.00654 50,9c0.9787,0.39148 3,-0.05409 3,1c0,2.4267 0.28406,5.28406 2,7" fill="none" stroke="black" stroke-linecap="round" stroke-width="5"/>
	<path d="M28,171c16.14544,16.14544 36.43501,6 56,6c34.38762,0 119.69744,44.30256 145,19" fill="none" stroke="black" stroke-linecap="round" stroke-width="5"/>
</svg>
