<?xml version="1.0" ?>
<svg baseProfile="full" height="300" version="1.1" viewBox="[0, 0, 300, 300]" width="300" xmlns="http://www.w3.org/2000/svg" xmlns:ev="http://www.w3.org/2001/xml-events" xmlns:xlink="http://www.w3.org/1999/xlink">
	<defs/>
	<path d="M29,192c7.94577,-15.89154 12.94923,-33.7566 22,-49c17.64376,-29.71581 40.59571,-57.14889 63,-83c6.08524,-7.02143 8.63201,-18.05821 13,-26c20.20372,-36.73403 47.598,-38.3608 81,-25c9.2296,3.69184 25.16794,8.45993 32,17c20.6879,25.85988 15.3129,57.02258 22,86c4.80501,20.82173 14,44.77256 14,66c0,5.28341 6.5471,40.4529 3,44c-4.46877,4.46877 -29.68193,-1.36183 -35,-2c-58.83766,-7.06052 -86.14154,-17.95868 -144,-40c-20.75446,-7.90646 -34.62114,-14.34471 -56,-9c-4.863,1.21575 -25.54479,7 -23,7" fill="none" stroke="black" stroke-linecap="round" stroke-width="5"/>
</svg>
