<?xml version="1.0" ?>
<svg baseProfile="full" height="300" version="1.1" viewBox="[0, 0, 300, 300]" width="300" xmlns="http://www.w3.org/2000/svg" xmlns:ev="http://www.w3.org/2001/xml-events" xmlns:xlink="http://www.w3.org/1999/xlink">
	<defs/>
	<path d="M65,29c26.19905,0 52.88101,-1.63244 79,0c22.39028,1.39939 43.35258,8 66,8c22.34143,0 29.02642,7.51321 44,15c3.22398,1.61199 11.8232,15 10,15" fill="none" stroke="black" stroke-linecap="round" stroke-width="5"/>
	<path d="M61,29c-8.72305,5.81537 -12,11.3623 -12,21" fill="none" stroke="black" stroke-linecap="round" stroke-width="5"/>
	<path d="M78,122c0,-13.43791 5.1852,-20.37039 11,-32c5.17869,-10.35738 10.50352,-27.75176 21,-33c18.1576,-9.0788 35.96263,2.71162 54,4c12.56557,0.89754 71.80218,0.80218 81,10c0.92554,0.92554 -2.48251,29.05829 -1,34c2.16332,7.21106 7.38435,13.65478 5,22c-1.33935,4.68772 -8.37261,30.37261 -11,33c-3.72519,3.72519 -38.23867,-4.87311 -45,-6c-36.54235,-6.09039 -67.4042,-5.7021 -100,-22c-9.32693,-4.66347 -17.68725,-16.84362 -28,-22" fill="none" stroke="black" stroke-linecap="round" stroke-width="5"/>
</svg>
