<?xml version="1.0" ?>
<svg baseProfile="full" height="300" version="1.1" viewBox="[0, 0, 300, 300]" width="300" xmlns="http://www.w3.org/2000/svg" xmlns:ev="http://www.w3.org/2001/xml-events" xmlns:xlink="http://www.w3.org/1999/xlink">
	<defs/>
	<path d="M49,34c15.29602,0 31.63515,-4.48771 48,-3c43.8446,3.98587 88.95628,9 133,9c17.00779,0 33.44459,3.16051 50,5c2.0482,0.22758 4,-0.05952 4,2" fill="none" stroke="black" stroke-linecap="round" stroke-width="5"/>
	<path d="M72,94c18.16403,-27.24605 18.38153,-33.15261 48,-45c24.37556,-9.75022 55.00068,10 79,10c7.75558,0 59.74038,-2.14904 63,6c5.89088,14.7272 7.52939,82.47061 -4,94c-5.11131,5.11131 -64.40318,-6.01612 -73,-8c-20.25754,-4.67482 -41.43418,-10.7534 -61,-18c-9,-3.33333 -17.63109,-7.91802 -27,-10c-4.86824,-1.08183 -23.03501,1.96499 -27,-2c-1.20185,-1.20185 0.3097,-3.44682 1,-5c2.9264,-6.58441 31.64021,-52 4,-52" fill="none" stroke="black" stroke-linecap="round" stroke-width="5"/>
	<path d="M42,38c0,10.57785 -0.80412,25.41236 -4,35c-3.89722,11.69167 8.81942,23.54174 5,35c-2.5437,7.63109 0.57284,16.13578 -1,24c-3.81602,19.08012 -8.96603,39.89808 -15,58c-5.55279,16.65837 -10.86902,55.13098 2,68c5.14255,5.14255 22.39571,-15.0588 24,-18c7.94686,-14.56925 22.67015,-84.77662 49,-76c5.21135,1.73712 6.68184,5.36369 9,10c1.71745,3.43489 9.09156,3.18311 11,7c4.40709,8.81418 -7.88318,27.68848 -11,36c-0.97855,2.60947 -13.19018,34 -12,34" fill="none" stroke="black" stroke-linecap="round" stroke-width="5"/>
</svg>
