<?xml version="1.0" ?>
<svg baseProfile="full" height="300" version="1.1" viewBox="[0, 0, 300, 300]" width="300" xmlns="http://www.w3.org/2000/svg" xmlns:ev="http://www.w3.org/2001/xml-events" xmlns:xlink="http://www.w3.org/1999/xlink">
	<defs/>
	<path d="M40,48c3.26068,-6.52137 3.47131,-14.64754 10,-19c28.37131,-18.91421 127.79448,3.44862 158,11c18.67625,4.66906 37.93398,-4.06602 53,11c18.08103,18.08103 -7.03002,47.12009 -11,63c-1.47656,5.90624 5.41423,13.17154 3,18c-5.77655,11.55309 -11.95983,25.91966 -17,36c-16.18339,32.36679 -51.77964,-5.77964 -68,-22c-3.93249,-3.93249 -16.15291,-4 -23,-4c-22.64648,0 -99.39573,40.20854 -108,23c-4.80541,-9.61083 3.22715,-20.97783 1,-31c-2.60365,-11.71642 -10.68203,-19.5438 -9,-33c1.88914,-15.11312 9.5405,-26.10825 5,-42c-1.23564,-4.32475 7.51174,-30 2,-30" fill="none" stroke="black" stroke-linecap="round" stroke-width="5"/>
</svg>
