<?xml version="1.0" ?>
<svg baseProfile="full" height="300" version="1.1" viewBox="[0, 0, 300, 300]" width="300" xmlns="http://www.w3.org/2000/svg" xmlns:ev="http://www.w3.org/2001/xml-events" xmlns:xlink="http://www.w3.org/1999/xlink">
	<defs/>
	<path d="M61,30c9.9659,0 20.072,-4.63062 30,-6c41.57643,-5.73468 85.18218,2.03644 125,10c0.98058,0.19612 2.01361,-0.1644 3,0c11.81214,1.96869 21.75608,9.75122 33,12c1.41383,0.28277 3,0.82378 3,2" fill="none" stroke="black" stroke-linecap="round" stroke-width="5"/>
	<path d="M61,28c-5.79366,0 -19,6.36075 -19,12" fill="none" stroke="black" stroke-linecap="round" stroke-width="5"/>
	<path d="M71,102c12.05135,-30.12838 46.24268,-70.83787 83,-69c15.98238,0.79912 29.93681,9.38203 44,16c4.77072,2.24505 27.84149,6.68298 30,11c0.29814,0.59628 0.29814,1.40372 0,2c-5.34261,10.68522 0,18.19653 0,29c0,16.19676 -4.26985,26.57826 -11,41c-7.35712,15.76526 -3.36526,21.88024 -26,18c-7.80932,-1.33874 -15.43444,-3.64627 -23,-6c-20.70513,-6.4416 -43.37774,-13.44044 -63,-23c-8.4256,-4.10478 -32.65431,-16.70263 -43,-23c-3.02675,-1.84237 -4.45662,-7 -8,-7" fill="none" stroke="black" stroke-linecap="round" stroke-width="5"/>
</svg>
