<?xml version="1.0" ?>
<svg baseProfile="full" height="300" version="1.1" viewBox="[0, 0, 300, 300]" width="300" xmlns="http://www.w3.org/2000/svg" xmlns:ev="http://www.w3.org/2001/xml-events" xmlns:xlink="http://www.w3.org/1999/xlink">
	<defs/>
	<path d="M37,104c0,-24.67133 25.8711,-61.94141 48,-72c21.82922,-9.92237 116.02477,-12.97523 135,6c3.4523,3.4523 38.41893,9.41893 46,17c2.0023,2.0023 0,17.37148 0,20c0,23.89559 6.24184,44.21977 -24,48c-54.25046,6.78131 -85.42345,-16.20521 -134,-27c-23.4968,-5.22151 -47.65803,-3 -71,-3" fill="none" stroke="black" stroke-linecap="round" stroke-width="5"/>
	<path d="M39,94c7.07284,14.14567 -2.5514,28.20559 -6,42c-6.87005,27.48021 -4.49481,53.95847 -8,82c-1.13486,9.07885 -5,10.98454 -5,21" fill="none" stroke="black" stroke-linecap="round" stroke-width="5"/>
	<path d="M261,106c-6.53664,3.26832 -9.05585,114 -27,114" fill="none" stroke="black" stroke-linecap="round" stroke-width="5"/>
	<path d="M30,258c5.86573,0 1.49522,-12.99044 3,-16c5.16269,-10.32537 12.17193,-20.80088 18,-31c7.64582,-13.38018 36.43091,-20.41541 50,-23c34.53645,-6.57837 89.63867,2 127,2c4,0 8.00779,-0.24951 12,0c0.15831,0.00989 26,4 26,4c0,0 -4.67367,6.91224 -5,8c-5.11815,17.06051 -12.0175,41.76312 -27,53c-18.26412,13.69809 -84.52454,-5.88622 -108,-13c-20.98756,-6.35987 -41.85913,-12.71478 -63,-18c-9.48257,-2.37064 -21.31566,-4 -31,-4c-1.33333,0 -1.33333,0 0,0" fill="none" stroke="black" stroke-linecap="round" stroke-width="5"/>
	<path d="M41,218c0,4.0765 -5.13451,4.77128 -8,7c-6.89786,5.365 -10.03015,14.03015 -16,20c-5.58211,5.58211 -14.65226,7.76098 -20,14c-3.17713,3.70665 -4.08042,10.08042 -7,13c-2.90027,2.90027 -2.99985,5 1,5" fill="none" stroke="black" stroke-linecap="round" stroke-width="5"/>
	<path d="M38,236c0,3.3983 -4.85871,2.14129 -3,4" fill="none" stroke="black" stroke-linecap="round" stroke-width="5"/>
</svg>
