<?xml version="1.0" ?>
<svg baseProfile="full" height="300" version="1.1" viewBox="[0, 0, 300, 300]" width="300" xmlns="http://www.w3.org/2000/svg" xmlns:ev="http://www.w3.org/2001/xml-events" xmlns:xlink="http://www.w3.org/1999/xlink">
	<defs/>
	<path d="M67,133c-3.22948,0 1,-24.30404 1,-27c0,-9.91586 -0.36315,-26.03159 3,-35c1.73063,-4.61502 21.47521,-49.31681 24,-51c6.43141,-4.2876 11.589,-8.9178 22,-11c8.77539,-1.75508 17.10152,3.63046 25,6c23.271,6.9813 61.509,8.58483 88,13c4.35791,0.72632 9.84702,-1.38433 14,0c33.94994,11.31665 17.48945,82.0211 7,103c-4.17833,8.35667 7.85689,24.42934 4,36c-2.2113,6.63389 -8,12.94824 -8,17" fill="none" stroke="black" stroke-linecap="round" stroke-width="5"/>
	<path d="M70,132c0,2.169 4.30209,5.39582 3,8c-0.21839,0.43678 -3.63894,8.18053 -2,9c2.79975,1.39988 7.95302,-0.76174 11,0c43.12743,10.78186 83.55704,-10.14765 126,4c10.28121,3.42707 43.53336,24 52,24" fill="none" stroke="black" stroke-linecap="round" stroke-width="5"/>
	<path d="M66,111c0,13.76161 4.61576,31.15271 0,45c-1.09621,3.28862 -3.96235,12.07531 -2,16c5.97729,11.95459 23.46516,12.46516 32,21c1.86546,1.86546 8.50418,-1.24791 11,0c7.08682,3.54341 -1.94277,49.88554 -6,58c-17.16931,34.33862 -42.38658,13.64537 -69,3c-6.04657,-2.41863 -29.05491,-17.94509 -20,-27c29.53676,-29.53676 116.00482,-22.1256 155,-27c8.28707,-1.03588 53.91914,-7.54043 59,-5c7.30055,3.65028 -0.96863,29.35882 -2,34c-5.9525,26.78625 32.51801,33.24099 51,24c6.06925,-3.03462 7,-15.99247 7,-23c0,-15.76375 1.82093,-40.35813 -5,-54c-3.84204,-7.68408 -21,-33.84464 -21,-39" fill="none" stroke="black" stroke-linecap="round" stroke-width="5"/>
	<path d="M52,140c51.54962,0 64.55797,0.86323 107,38c7.53219,6.59066 31.81699,32.36601 26,44c-3.83698,7.67396 -25.71598,7.42899 -32,9c-2.71194,0.67798 -16.43826,6.78087 -20,5c-18.19837,-9.09918 -34.28876,-32.93314 -45,-49c-7.1254,-10.68809 -21.55832,-16.44791 -30,-27c-2.06621,-2.58276 -18.3333,-30 -8,-30" fill="none" stroke="black" stroke-linecap="round" stroke-width="5"/>
	<path d="M262,147c6.77995,4.06797 14.52376,7.28564 19,14" fill="none" stroke="black" stroke-linecap="round" stroke-width="5"/>
</svg>
