<?xml version="1.0" ?>
<svg baseProfile="full" height="300" version="1.1" viewBox="[0, 0, 300, 300]" width="300" xmlns="http://www.w3.org/2000/svg" xmlns:ev="http://www.w3.org/2001/xml-events" xmlns:xlink="http://www.w3.org/1999/xlink">
	<defs/>
	<path d="M47,44c0,-6.74642 -3.01461,-20.19708 6,-22c16.89527,-3.37905 37.40695,0.62956 54,3c37.17804,5.31115 173.71934,-27.59668 159,46c-3.13927,15.69637 -46.99653,18 -60,18c-23.28753,0 -48.98871,4.60226 -72,0c-15.46016,-3.09203 -30.64782,-11.92956 -46,-15c-8.55062,-1.71012 -25.37928,0.81036 -33,-3c-11.24478,-5.62239 -8,-21.21317 -8,-31" fill="none" stroke="black" stroke-linecap="round" stroke-width="5"/>
	<path d="M50,42c9.75297,0 20.44444,5.57778 31,6c45.87501,1.835 92.22495,6 138,6c12.92176,0 30.94213,-3.01929 43,1c1.22189,0.4073 4,1.8301 4,3" fill="none" stroke="black" stroke-linecap="round" stroke-width="5"/>
	<path d="M266,58c0,0.66667 0,1.33333 0,2" fill="none" stroke="black" stroke-linecap="round" stroke-width="5"/>
	<path d="M64,66c0,25.13043 4.62863,53.7137 2,80c-0.16266,1.62662 -3.30766,21.46156 -1,23c4.41125,2.94083 13.02681,2.00536 18,3c40.87078,8.17416 34.77223,-15.0499 30,-58c-1.43137,-12.88229 2.16809,-24.32763 -1,-37" fill="none" stroke="black" stroke-linecap="round" stroke-width="5"/>
	<path d="M143,88c0,12.68214 -4.80239,26.5469 -7,39c-2.55936,14.50305 -1,30.28886 -1,45c0,0.13442 -0.54782,9.72609 0,10c11.37354,5.68677 27.44773,7 40,7" fill="none" stroke="black" stroke-linecap="round" stroke-width="5"/>
	<path d="M167,190c0,-17.46339 -10.88317,-33.13067 -12,-51c-0.64491,-10.3186 1.40415,-29.6166 4,-40c0.78501,-3.14005 6,-4.37582 6,-8" fill="none" stroke="black" stroke-linecap="round" stroke-width="5"/>
	<path d="M193,85c0,18.22441 8.30832,34.23741 10,52c3.01429,31.65003 -35.1198,86.88302 10,73c4.42207,-1.36064 17.48974,-2.48974 21,-6c2.88197,-2.88197 -8.12922,-22.27881 -9,-25c-9.59466,-29.98333 -18.08711,-61.68646 -21,-93c-0.4087,-4.39355 -4.60248,-43 8,-43" fill="none" stroke="black" stroke-linecap="round" stroke-width="5"/>
	<path d="M228,84c10.09877,16.83129 12.1064,35.40431 17,54c3.86933,14.70345 13.33015,28.02026 21,41c7.76149,13.13483 14.6537,21.75972 17,20c12.45047,-9.33785 12.25737,-85.12007 8,-96c-4.68169,-11.96431 -23,-35.2434 -23,-50" fill="none" stroke="black" stroke-linecap="round" stroke-width="5"/>
	<path d="M44,240c0,1.92167 3.63715,1.4514 4,0c1.45746,-5.82983 -0.07497,-12.08768 1,-18c0.69793,-3.83863 2.31665,-7.48026 4,-11c9.3094,-19.4651 24.7608,-35.48893 32,-56c1.26491,-3.58391 0.31258,-8.31258 3,-11c3.5879,-3.5879 53.3096,14.0156 58,16c31.7189,13.41953 61.28985,26.93734 96,30c25.34956,2.23673 52.4194,-4.19353 77,4c1.89737,0.63246 -4.10263,-0.63246 -6,0c-3.48574,1.16191 -6.61031,5.90902 -9,8c-11.12287,9.73251 -23.02374,18.37709 -35,27c-10.31347,7.4257 -34.71873,39.9746 -38,41c-23.75598,7.42374 -64.39132,-0.05 -85,-4c-54.64415,-10.47346 -102.10263,-27.1711 -156,-42c-78.92503,-21.71482 -159.33533,-38.52438 -238,-61" fill="none" stroke="black" stroke-linecap="round" stroke-width="5"/>
</svg>
