<?xml version="1.0" ?>
<svg baseProfile="full" height="300" version="1.1" viewBox="[0, 0, 300, 300]" width="300" xmlns="http://www.w3.org/2000/svg" xmlns:ev="http://www.w3.org/2001/xml-events" xmlns:xlink="http://www.w3.org/1999/xlink">
	<defs/>
	<path d="M62,207c18.65276,0 35.03864,40.80526 66,35c20.5856,-3.8598 41.47717,-10.06817 62,-13c18.21305,-2.60186 54.76825,-10.76825 68,-24c19.4613,-19.4613 -20.62244,-46.84044 -38,-50c-46.64859,-8.48156 -120.25638,7.25638 -154,41" fill="none" stroke="black" stroke-linecap="round" stroke-width="5"/>
	<path d="M68,194c0,-11.79911 -2.07718,-22.4631 -4,-34c-0.1096,-0.6576 -0.4714,-1.5286 0,-2c3.79218,-3.79218 40.7017,-3.17542 48,-5c20.35295,-5.08824 34.27327,-23.03416 58,-26c18.83641,-2.35455 34.51493,6 51,6c0.91101,0 6.72305,1.55391 7,1c3.12355,-6.2471 0.08926,-23.46442 -1,-30c-1.27654,-7.65922 -3.54832,-15.64496 -6,-23c-3.76722,-11.30167 -7.86339,-23.77232 -14,-34c-5.53118,-9.21864 -15.57509,-9.18577 -24,-14c-44.04921,-25.17098 -114.23377,27.16883 -123,71c-2.10646,10.53229 -6.04894,57 10,57" fill="none" stroke="black" stroke-linecap="round" stroke-width="5"/>
	<path d="M226,131c0,15.07223 3.40091,31.80183 10,45c0.67816,1.35632 -1.31801,3 1,3" fill="none" stroke="black" stroke-linecap="round" stroke-width="5"/>
	<path d="M69,197c0,-25.63194 39.42679,-17.77704 52,-7c11.78313,10.09983 13.31289,32.93866 18,47c1.0275,3.08249 5.13383,9.20075 7,12c1.16941,1.75412 8.10819,2 6,2c-29.33965,0 -47.90149,-34.90149 -65,-52c-4.69715,-4.69715 -12.93922,-7.93922 -18,-13" fill="none" stroke="black" stroke-linecap="round" stroke-width="5"/>
</svg>
