<?xml version="1.0" ?>
<svg baseProfile="full" height="300" version="1.1" viewBox="[0, 0, 300, 300]" width="300" xmlns="http://www.w3.org/2000/svg" xmlns:ev="http://www.w3.org/2001/xml-events" xmlns:xlink="http://www.w3.org/1999/xlink">
	<defs/>
	<path d="M58,153c1.04922,0.52461 24.66035,46.32071 29,55c5.13753,10.27506 32.24241,-1.37879 41,3c20.85683,10.42842 32.69036,29.0344 60,26c58.3991,-6.48879 18.66711,-83.66645 -6,-96c-23.95848,-11.97924 -105.23168,-4 -138,-4" fill="none" stroke="black" stroke-linecap="round" stroke-width="5"/>
	<path d="M88,203c0,9.14268 16.92375,44.53958 22,53c0.30629,0.51048 1.04503,2.68168 2,3c17.32606,5.77535 83.92034,-2.28023 100,-13c1.96965,-1.3131 0.25376,-46 -12,-46" fill="none" stroke="black" stroke-linecap="round" stroke-width="5"/>
	<path d="M113,255c0,46.5566 -34.95561,-5.91121 -43,-22c-1.20185,-2.4037 -6.54951,-6.15016 -4,-7c10.56974,-3.52325 48.93274,0.00841 65,-2c25.75881,-3.21985 53.38925,-10.53094 78,-16c4.80993,-1.06887 12.21005,-7 17,-7c3.57661,0 5.0239,16.74634 6,20c0.81351,2.7117 11.4437,18.11261 10,21c-1.8043,3.6086 -28,4.89713 -28,1" fill="none" stroke="black" stroke-linecap="round" stroke-width="5"/>
	<path d="M70,124c0,-10.37466 -6,-19.38284 -6,-30" fill="none" stroke="black" stroke-linecap="round" stroke-width="5"/>
	<path d="M180,138c0,-9.6387 -12.85051,-34.85051 -19,-41c-1.53429,-1.53429 -0.08759,-3 -2,-3" fill="none" stroke="black" stroke-linecap="round" stroke-width="5"/>
	<path d="M50,87c6.96332,0 17.10969,9.70323 24,12c12.76426,4.25475 33.22033,-0.53249 46,0c31.04098,1.29337 70.53096,22.4778 58,-36c-12.55747,-58.60151 -27.98353,-42.11958 -80,-36c-5.08999,0.59882 -47.37286,1.37286 -49,3c-10.9893,10.9893 10,45.14609 10,56" fill="none" stroke="black" stroke-linecap="round" stroke-width="5"/>
	<path d="M48,135c11.81556,11.81556 30.52154,14.33015 41,29c6.26536,8.77151 10.02339,24.04678 15,34c0.55439,1.10878 12.76838,21.23162 12,22c-3.99435,3.99435 -18.43115,-12.86229 -20,-16c-12.17677,-24.35355 -26.39721,-45.39721 -44,-63" fill="none" stroke="black" stroke-linecap="round" stroke-width="5"/>
	<path d="M189,139c0.74536,0 0.58655,1.37983 1,2c11.23967,16.8595 62,30.83323 62,52c0,1.72704 0.86018,5.06991 -1,6c-14.08701,7.0435 -58.41788,-56 -70,-56" fill="none" stroke="black" stroke-linecap="round" stroke-width="5"/>
</svg>
