<?xml version="1.0" ?>
<svg baseProfile="full" height="300" version="1.1" viewBox="[0, 0, 300, 300]" width="300" xmlns="http://www.w3.org/2000/svg" xmlns:ev="http://www.w3.org/2001/xml-events" xmlns:xlink="http://www.w3.org/1999/xlink">
	<defs/>
	<path d="M69,181c16.70205,0 29.75386,71.62564 44,74c23.17477,3.86246 44.52612,-12.20043 65,-20c24.95646,-9.50722 77.27544,-11.50421 52,-57c-32.2334,-58.02012 -71.29746,-47.17563 -128,-33c-5.29049,1.32262 -46.36958,9.36958 -50,13c-1.32227,1.32227 3.57763,2.57763 4,3c1.3341,1.3341 4,10 4,10c0,0 -1.01942,-7.40454 -2,-11c-5.03026,-18.44428 -10,-33.48417 -10,-53" fill="none" stroke="black" stroke-linecap="round" stroke-width="5"/>
	<path d="M176,136c0,-10.22979 -2.95494,-21.86481 -6,-31c-7.61941,-22.85824 -16.00647,-9.81701 -37,-6c-9.0992,1.6544 -76.55352,15.22324 -85,11c-15.79259,-7.8963 -2.08542,-50.17083 -9,-64c-0.11801,-0.23602 -1.93172,-5.53414 -1,-6c6.91763,-3.45882 39.24508,-3.84902 50,-6c11.67646,-2.33529 22.5777,-8.46171 34,-11c65.00978,-14.44662 44,45.4403 44,83" fill="none" stroke="black" stroke-linecap="round" stroke-width="5"/>
	<path d="M52,165c0,11.48194 -4.65506,72.31013 -8,79c-3.12857,6.25713 -7,17.48156 -7,25" fill="none" stroke="black" stroke-linecap="round" stroke-width="5"/>
	<path d="M117,249c6.76086,6.76086 6,34.44383 6,43" fill="none" stroke="black" stroke-linecap="round" stroke-width="5"/>
	<path d="M223,215c1,2 2.29289,3.87868 3,6c1.2294,3.68819 26.7065,66.11949 18,40" fill="none" stroke="black" stroke-linecap="round" stroke-width="5"/>
	<path d="M202,127c25.39617,25.39617 48.84004,52.84004 74,78" fill="none" stroke="black" stroke-linecap="round" stroke-width="5"/>
	<path d="M38,118c0,14.50996 -6.06793,26.85444 1,42c4.44776,9.53091 12.21821,11.82732 17,19c0.42551,0.63827 5.14234,5.71532 6,4c8.97873,-17.95745 -16,-53.39823 -16,-59" fill="none" stroke="black" stroke-linecap="round" stroke-width="5"/>
	<path d="M177,95c0,2.63948 -5.30991,5.38018 -5,6c2.67099,5.34199 15.20171,6.40129 20,10c7.95212,5.96409 18.83415,8.83415 26,16c1.37638,1.37638 9.91821,15.08179 13,12c3.24008,-3.24008 2,-10.892 2,-15c0,-28.20699 -9.45467,-36 -35,-36c-5.07772,0 -10.87252,-3.12748 -15,1" fill="none" stroke="black" stroke-linecap="round" stroke-width="5"/>
</svg>
