<?xml version="1.0" ?>
<svg baseProfile="full" height="300" version="1.1" viewBox="[0, 0, 300, 300]" width="300" xmlns="http://www.w3.org/2000/svg" xmlns:ev="http://www.w3.org/2001/xml-events" xmlns:xlink="http://www.w3.org/1999/xlink">
	<defs/>
	<path d="M155,149c-9.64742,0 -54.97892,-3.02635 -59,2c-8.46251,10.57814 -16.68873,22.11919 -24,34c-4.73882,7.70058 -14.90367,24.19266 -10,34c3.20263,6.40526 25.92709,10.19028 32,11c19.2777,2.57036 57.88743,1.12865 72,-15c18.85364,-21.54702 5.41788,-73 -25,-73" fill="none" stroke="black" stroke-linecap="round" stroke-width="5"/>
	<path d="M90,156c-3.60269,0 -17.83915,-45.8776 -20,-52c-4.45042,-12.60953 -14,-30.16434 -14,-44" fill="none" stroke="black" stroke-linecap="round" stroke-width="5"/>
	<path d="M153,145c-1.16471,-8.15298 -5.40484,-47.40484 -11,-53c-5.43723,-5.43723 -20.65281,-34.3368 -30,-32c-24.47232,6.11808 -61.12568,34.08977 -82,49c-9.77545,6.98246 -14.06371,17.06371 -22,25c-0.52705,0.52705 -1.66667,1.66667 -2,1c-3.07665,-6.15331 8.20103,-30.25386 10,-37c15.45566,-57.95872 30.27086,-48.74266 82,-67c14.27611,-5.03863 31.38017,-13.12397 47,-10c13.29421,2.65884 46.602,41.398 40,48c-1.42175,1.42175 -3.83749,-0.6125 -5,-1c-20.94643,-6.98214 -47.10249,-9 -69,-9" fill="none" stroke="black" stroke-linecap="round" stroke-width="5"/>
</svg>
