<?xml version="1.0" ?>
<svg baseProfile="full" height="300" version="1.1" viewBox="[0, 0, 300, 300]" width="300" xmlns="http://www.w3.org/2000/svg" xmlns:ev="http://www.w3.org/2001/xml-events" xmlns:xlink="http://www.w3.org/1999/xlink">
	<defs/>
	<path d="M64,193c40.43882,0 31.56059,45.78029 44,52c18.28747,9.14373 144.62498,-20.62498 160,-36c2.6113,-2.6113 -3.18003,-7.18003 -4,-8c-14.98001,-14.98001 -21.41941,-30.98209 -44,-36c-47.88452,-10.641 -107.99845,23 -158,23" fill="none" stroke="black" stroke-linecap="round" stroke-width="5"/>
	<path d="M62,188c-2.68235,-12.07059 -10,-26.7942 -10,-39" fill="none" stroke="black" stroke-linecap="round" stroke-width="5"/>
	<path d="M219,162c0,-6.24163 -2.8989,-13.22196 -5,-19c-0.74879,-2.05918 -2.2234,-10.2234 -4,-12c-1.23396,-1.23396 -1.99527,0.99685 -2,1c-7.86155,5.24103 -23.84988,9.77998 -33,11c-30.86185,4.11491 -62.04992,12.42083 -93,15c-33.71654,2.80971 -46.61667,-36.76667 -32,-66c4.93553,-9.87107 15.3397,-17.3397 23,-25c5.46314,-5.46314 8.83173,-14.88782 15,-19c12.81696,-8.54464 38.80493,-9.2866 54,-12c15.41447,-2.75258 41.80423,-12.9277 53,2c15.66127,20.8817 25.19973,53.80094 18,79c-1.03427,3.61994 -7.33682,25 -9,25" fill="none" stroke="black" stroke-linecap="round" stroke-width="5"/>
	<path d="M109,238c0,47.48722 19.52228,29.73886 53,13c17.64469,-8.82235 39.82859,-8.73144 58,-16c9.62985,-3.85194 20.2516,-4.45513 30,-8c2.59546,-0.9438 22.86943,-12 16,-12" fill="none" stroke="black" stroke-linecap="round" stroke-width="5"/>
	<path d="M122,271c-3.02988,3.02988 -3.38478,7.38478 -6,10c-1.49071,1.49071 -4.16958,-0.95405 -6,-2c-14.76976,-8.43986 -26.06582,-19.06582 -38,-31c-6.82742,-6.82742 -11.98235,-18.94704 -15,-28c-0.38006,-1.14018 -3.07497,-2.46252 -2,-3c5.99401,-2.997 29.24992,8.77271 36,10c18.77602,3.41382 37.75132,-7.72775 55,-14c10.13922,-3.68699 113.22144,-37.18571 118,-34c4.30501,2.87001 27,48.24507 27,52c0,1 -2,0 -3,0c-10.86805,0 -22.22556,-4 -34,-4" fill="none" stroke="black" stroke-linecap="round" stroke-width="5"/>
	<path d="M54,187c0,-7.39071 35.63164,-5.36836 44,3c11.76981,11.76981 38.90916,67.03028 51,63c8.42705,-2.80902 -5.05624,-24.84139 -7,-28c-11.34623,-18.43763 -33.03554,-47 -55,-47" fill="none" stroke="black" stroke-linecap="round" stroke-width="5"/>
</svg>
