<?xml version="1.0" ?>
<svg baseProfile="full" height="300" version="1.1" viewBox="[0, 0, 300, 300]" width="300" xmlns="http://www.w3.org/2000/svg" xmlns:ev="http://www.w3.org/2001/xml-events" xmlns:xlink="http://www.w3.org/1999/xlink">
	<defs/>
	<path d="M81,155c2.99669,17.98011 5.22512,63.11256 21,71c13.38372,6.69186 38.00097,-5.75024 51,-9c10.69749,-2.67437 22.72823,-2.57608 33,-6c6.46421,-2.15474 11.2053,-8.55133 17,-10c6.15671,-1.53918 13.21802,2.92733 19,1c10.31748,-3.43916 36.81371,-47.74517 34,-59c-5.30433,-21.21733 -86.47624,-18.0582 -105,-16c-8.34312,0.92701 -17.6818,6.08042 -26,8c-8.47585,1.95597 -35,6.36393 -35,16" fill="none" stroke="black" stroke-linecap="round" stroke-width="5"/>
	<path d="M99,229c13.78613,27.57226 39.51293,19.99696 65,14c24.05523,-5.66006 39.35181,-7.35181 54,-22c5.27295,-5.27295 19.40801,-6.40801 26,-13c6.21933,-6.21933 -1.05088,-31 -10,-31" fill="none" stroke="black" stroke-linecap="round" stroke-width="5"/>
	<path d="M122,250c0,6.19801 -2.85355,15.33639 -6,21c-12.67689,22.8184 -46.69151,-59.96274 -44,-64c1.31844,-1.97765 42.18207,-7.88315 43,-8c36.00982,-5.14426 69.10718,-20.70239 103,-32c10.76814,-3.58938 32.8174,-21.06087 45,-17c21.8138,7.27127 16.19563,51.39126 24,67c0.13412,0.26824 -6.14363,0 -9,0c-6.95462,0 -13.81853,-2 -21,-2c-5.86609,0 -19.67009,4.32991 -24,0" fill="none" stroke="black" stroke-linecap="round" stroke-width="5"/>
	<path d="M88,149c0,-21.9103 -8,-42.24127 -8,-64" fill="none" stroke="black" stroke-linecap="round" stroke-width="5"/>
	<path d="M208,120c0,-10.7104 0.73097,-30.26903 -8,-39c-1.33333,-1.33333 -2.11438,4 -4,4" fill="none" stroke="black" stroke-linecap="round" stroke-width="5"/>
	<path d="M206,77c-21.43296,0 -41.80422,3.35053 -63,6c-13.63274,1.70409 -28.61942,-1.43283 -42,1c-10.53053,1.91464 -21.15546,6.06218 -31,10c-0.46837,0.18735 -3.40301,2.19398 -4,1c-4.64752,-9.29504 -3.74923,-34.50154 1,-44" fill="none" stroke="black" stroke-linecap="round" stroke-width="5"/>
</svg>
