<?xml version="1.0" ?>
<svg baseProfile="full" height="300" version="1.1" viewBox="[0, 0, 300, 300]" width="300" xmlns="http://www.w3.org/2000/svg" xmlns:ev="http://www.w3.org/2001/xml-events" xmlns:xlink="http://www.w3.org/1999/xlink">
	<defs/>
	<path d="M76,169c5.70682,5.70682 8.47694,28.43083 11,36c2.9313,8.79391 21.81483,11.28148 29,12c7.95192,0.79519 16.27912,-0.81217 24,-2c4.00802,-0.61662 8.03738,-1.13856 12,-2c3.71384,-0.80736 7.42824,-1.70118 11,-3c23.66821,-8.60662 48.45832,-13.22916 70,-24c2.81371,-1.40686 7.397,-2.206 5,-7c-4.11482,-8.22964 -13.58508,-17.58508 -20,-24c-7.4666,-7.4666 -16.24455,-17.74818 -26,-21c-11.87117,-3.95706 -34.64633,12.99128 -44,17c-17.531,7.51329 -37.145,13.53625 -55,18c-7.93644,1.98411 -22.15241,10 -29,10" fill="none" stroke="black" stroke-linecap="round" stroke-width="5"/>
	<path d="M85,174c-10.10853,-10.10853 -18,-28.92475 -18,-44" fill="none" stroke="black" stroke-linecap="round" stroke-width="5"/>
	<path d="M188,131c0,-36.17527 -17.22471,-14.23127 -44,-12c-21.57791,1.79816 -41.77643,7.45209 -63,12c-14.46903,3.10051 -20.43547,6.73662 -25,-10c-2.46657,-9.04409 -6.72192,-18.05345 -8,-27c-1.96063,-13.72444 -4.66009,-28.23318 3,-41c7.06011,-11.76685 11.05506,-28.40675 19,-39c12.44873,-16.59831 35.60187,-4.3993 50,1c44.64244,16.74092 36.86457,34.77428 58,70c3.29142,5.48571 8,13.72077 8,20" fill="none" stroke="black" stroke-linecap="round" stroke-width="5"/>
	<path d="M56,132c5.75229,0 4,30.50489 4,36c0,1.33333 -1.19257,3.40372 0,4c6.19447,3.09723 8.8032,-47.04196 32,-29c21.3006,16.56714 14.03282,51.03282 31,68c1.45798,1.45798 0.14012,4 2,4" fill="none" stroke="black" stroke-linecap="round" stroke-width="5"/>
	<path d="M177,83c37.49593,0 59,54.34697 59,86" fill="none" stroke="black" stroke-linecap="round" stroke-width="5"/>
</svg>
