<?xml version="1.0" ?>
<svg baseProfile="full" height="300" version="1.1" viewBox="[0, 0, 300, 300]" width="300" xmlns="http://www.w3.org/2000/svg" xmlns:ev="http://www.w3.org/2001/xml-events" xmlns:xlink="http://www.w3.org/1999/xlink">
	<defs/>
	<path d="M70,138c4.02768,0 3.82729,7.14682 5,11c4.79884,15.76762 12.1109,72.1109 22,82c7.11815,7.11815 109.10795,-26.98579 112,-40c2.93732,-13.21794 -1.97189,-24.56346 -10,-35c-2.99455,-3.89292 -9.88933,-15.29644 -15,-17c-37.47763,-12.49254 -78.13858,3 -116,3" fill="none" stroke="black" stroke-linecap="round" stroke-width="5"/>
	<path d="M75,147c0,-8.96838 -16.6029,-54 -3,-54" fill="none" stroke="black" stroke-linecap="round" stroke-width="5"/>
	<path d="M166,134c11.0714,-11.0714 -8,-30.30998 -8,-41" fill="none" stroke="black" stroke-linecap="round" stroke-width="5"/>
	<path d="M158,93c-15.66005,5.22002 -33.56448,9.45917 -50,11c-39.95721,3.74599 -53.29947,9.50802 -56,-31c-1.16436,-17.4654 4,-32.6844 4,-50c0,-1.33333 -1.26491,-3.57836 0,-4c13.46777,-4.48926 28.20721,-7.71948 42,-12c11.34575,-3.5211 51.66137,-19.11818 63,-4c22.75726,30.34302 1,61.54051 1,88" fill="none" stroke="black" stroke-linecap="round" stroke-width="5"/>
	<path d="M101,230c2.46131,7.38392 2.5552,18.5552 7,23c5.8536,5.8536 66.33975,-18.03989 73,-21c8.05232,-3.57881 33,-13.77737 33,-24" fill="none" stroke="black" stroke-linecap="round" stroke-width="5"/>
	<path d="M204,191c4.43171,0 10.21746,20.78254 6,25" fill="none" stroke="black" stroke-linecap="round" stroke-width="5"/>
	<path d="M117,257c-20.03763,0 -34.34221,-36.67111 -51,-45c-3.00045,-1.50022 17.00915,-5.60091 21,-6c11.43046,-1.14305 22.63488,-2.25152 34,-4c29.83309,-4.58971 56.21832,-10.60916 83,-24c7.02887,-3.51443 13.19669,-10.59834 20,-14c4.20872,-2.10436 10.555,23.22002 11,25c0.44147,1.7659 8.63832,21.68084 8,22c-8.39481,4.1974 -19.84206,6 -29,6" fill="none" stroke="black" stroke-linecap="round" stroke-width="5"/>
	<path d="M50,115c0,24.46821 12.17764,55.33732 36,64c9.55016,3.47279 20.611,11.389 21,11c2.3047,-2.3047 -8.4473,-28.63581 -10,-32c-3.54444,-7.67961 -4.94239,-15.69629 -9,-23c-6.62325,-11.92184 -15.78274,-14.78274 -24,-23" fill="none" stroke="black" stroke-linecap="round" stroke-width="5"/>
</svg>
