<?xml version="1.0" ?>
<svg baseProfile="full" height="300" version="1.1" viewBox="[0, 0, 300, 300]" width="300" xmlns="http://www.w3.org/2000/svg" xmlns:ev="http://www.w3.org/2001/xml-events" xmlns:xlink="http://www.w3.org/1999/xlink">
	<defs/>
	<path d="M71,194c0,50.11441 1.45866,55.57241 45,48c19.1513,-3.33066 38.1639,-4.29097 57,-9c16.31636,-4.07909 59.86223,-0.72445 69,-19c9.57515,-19.1503 -14.64753,-52.96475 -35,-55c-26.85656,-2.68566 -51.79215,7.50562 -78,11c-14.28906,1.90521 -31.21357,1.55339 -45,5c-8.65306,2.16326 -19.74978,12 -27,12" fill="none" stroke="black" stroke-linecap="round" stroke-width="5"/>
	<path d="M72,187c0,-17.82547 -14,-34.9079 -14,-53" fill="none" stroke="black" stroke-linecap="round" stroke-width="5"/>
	<path d="M212,160c0,-10.65867 -4.78574,-23.35723 -8,-33c-9.05683,-27.1705 -24.71332,-3.10722 -50,-1c-22.09617,1.84135 -44.01254,0.25157 -66,3c-11.34765,1.41846 -21.22601,6.8452 -32,9c-1.34768,0.26954 -3.38536,2.22927 -4,1c-6.93977,-13.87953 -8,-31.15222 -8,-47c0,-8.45429 0.35455,-17.77273 2,-26c3.11887,-15.59435 18.39003,-31.34751 33,-35c20.69024,-5.17256 52.43422,-32.04386 75,-17c18.325,12.21667 21.1002,46.60054 28,65c1.09504,2.92011 11.33995,31 10,31" fill="none" stroke="black" stroke-linecap="round" stroke-width="5"/>
	<path d="M64,185c0,24.80174 -1.31303,50.62606 -12,72" fill="none" stroke="black" stroke-linecap="round" stroke-width="5"/>
	<path d="M88,239c0,9.91347 -11.5535,56.5535 4,41" fill="none" stroke="black" stroke-linecap="round" stroke-width="5"/>
	<path d="M224,223c3.8977,7.7954 7.0125,28.50625 14,32" fill="none" stroke="black" stroke-linecap="round" stroke-width="5"/>
	<path d="M222,160c8.08582,12.12873 21.60545,22.60545 32,33c1.73472,1.73472 12.85722,15.42861 8,13" fill="none" stroke="black" stroke-linecap="round" stroke-width="5"/>
	<path d="M37,144c0,-6.86799 27.17043,1.87246 31,4c21.03168,11.68427 33.69761,32.8603 42,55c0.48257,1.28686 0.66667,2.66667 1,4c1.79579,7.18315 9,13.71546 9,19c0,1.33333 1.33333,4 0,4c-8.29046,0 -64.15159,-84 -76,-84" fill="none" stroke="black" stroke-linecap="round" stroke-width="5"/>
</svg>
