<?xml version="1.0" ?>
<svg baseProfile="full" height="300" version="1.1" viewBox="[0, 0, 300, 300]" width="300" xmlns="http://www.w3.org/2000/svg" xmlns:ev="http://www.w3.org/2001/xml-events" xmlns:xlink="http://www.w3.org/1999/xlink">
	<defs/>
	<path d="M197,84c-26,-1.33333 -51.99752,-2.71593 -78,-4c-0.99878,-0.04932 -3.93005,-0.36743 -3,0c27.86709,11.00922 55.85071,21.73379 84,32c4.69735,1.71315 10.75562,-7.31835 9,-12c-2.40148,-6.40396 -10,-9.33333 -15,-14" fill="none" stroke="black" stroke-linecap="round" stroke-width="5"/>
	<path d="M145,93c21.47319,20.34303 29.97498,25.33611 60,22" fill="none" stroke="black" stroke-linecap="round" stroke-width="5"/>
	<path d="M205,117c0.66667,10.33333 1.33333,20.66667 2,31" fill="none" stroke="black" stroke-linecap="round" stroke-width="5"/>
	<path d="M191,121c2.56618,12.83088 3,25.94319 3,39" fill="none" stroke="black" stroke-linecap="round" stroke-width="5"/>
	<path d="M174,116c0,17.59642 0.52639,25.86019 3,44" fill="none" stroke="black" stroke-linecap="round" stroke-width="5"/>
	<path d="M156,102c0.50015,18.0054 1.00086,36.01539 2,54" fill="none" stroke="black" stroke-linecap="round" stroke-width="5"/>
	<path d="M178,92c-3.66667,0 -7.33333,0 -11,0" fill="none" stroke="black" stroke-linecap="round" stroke-width="5"/>
	<path d="M159,159c19,-3.66667 37.67134,-11.92041 57,-11c5.07144,0.2415 4.19255,9.25544 6,14c7.93313,20.82447 -7.98351,42.9967 -33,48c-28.61249,5.7225 -22.74126,-20.77973 -30,-48" fill="none" stroke="black" stroke-linecap="round" stroke-width="5"/>
	<path d="M170,204c-0.80761,13.32554 -2,26.65001 -2,40" fill="none" stroke="black" stroke-linecap="round" stroke-width="5"/>
	<path d="M229,188c1.66667,16 3.33333,32 5,48" fill="none" stroke="black" stroke-linecap="round" stroke-width="5"/>
	<path d="M156,168c0.98319,20.64696 3,41.33854 3,62" fill="none" stroke="black" stroke-linecap="round" stroke-width="5"/>
	<path d="M171,226c-4.66667,-5 -9.33333,-10 -14,-15" fill="none" stroke="black" stroke-linecap="round" stroke-width="5"/>
	<path d="M220,192c0,9.02466 1.30784,18.00192 2,27" fill="none" stroke="black" stroke-linecap="round" stroke-width="5"/>
	<path d="M233,211c-5.33333,-4.66667 -10.66667,-9.33333 -16,-14" fill="none" stroke="black" stroke-linecap="round" stroke-width="5"/>
</svg>
