<?xml version="1.0" ?>
<svg baseProfile="full" height="300" version="1.1" viewBox="[0, 0, 300, 300]" width="300" xmlns="http://www.w3.org/2000/svg" xmlns:ev="http://www.w3.org/2001/xml-events" xmlns:xlink="http://www.w3.org/1999/xlink">
	<defs/>
	<path d="M158,164c7.33333,15 6.47278,38.86133 22,45c11.92543,4.71471 30.5554,-31.39109 18,-34c-24.84213,-5.162 -49.65339,-11.84788 -75,-13c-6.39652,-0.29075 -17.86356,6.27287 -15,12c19.34545,38.69089 29.46735,34.23856 72,32" fill="none" stroke="black" stroke-linecap="round" stroke-width="5"/>
	<path d="M200,192c10.5935,21.187 11.49793,45.96007 17,69" fill="none" stroke="black" stroke-linecap="round" stroke-width="5"/>
	<path d="M175,207c0,6.66667 0,13.33333 0,20" fill="none" stroke="black" stroke-linecap="round" stroke-width="5"/>
	<path d="M96,253c5.36824,-42.94594 10.33477,-83.97896 17,-127" fill="none" stroke="black" stroke-linecap="round" stroke-width="5"/>
	<path d="M86,132c30.70128,-15.35064 57.83895,-14.24564 93,-11c10.35137,0.95551 11.3385,4 18,4" fill="none" stroke="black" stroke-linecap="round" stroke-width="5"/>
</svg>
