<?xml version="1.0" ?>
<svg baseProfile="full" height="300" version="1.1" viewBox="[0, 0, 300, 300]" width="300" xmlns="http://www.w3.org/2000/svg" xmlns:ev="http://www.w3.org/2001/xml-events" xmlns:xlink="http://www.w3.org/1999/xlink">
	<defs/>
	<path d="M88,159c0,-14.63952 0.12139,-31.60693 3,-46c1.62282,-8.11412 -2.6218,-18.75641 1,-26c5.66298,-11.32597 29.06087,-9 39,-9c6.52994,0 28.04418,-3.95582 33,1c13.13625,13.13625 10,46.62667 10,63c0,0.61962 0.72939,5.71177 -1,6c-27.19381,4.5323 -55.23344,3 -83,3" fill="none" stroke="black" stroke-linecap="round" stroke-width="5"/>
	<path d="M186,179c0,-9.20127 -9.47052,-64.3526 -12,-77c-1.0177,-5.08852 0.2584,-10.48321 -2,-15c-3.25853,-6.51706 -1,-22.19802 -1,-30c0,-0.66667 0.59628,-1.70186 0,-2c-13.83861,-6.9193 -61.4231,5.26923 -77,7c-0.777,0.08633 -3.56305,-0.7478 -4,1c-2.77397,11.0959 0,26.7587 0,38c0,16.84882 -7.73041,53.80877 -3,68c3.53534,10.60603 4,24.10246 4,36c0,13.79663 -0.78167,27.24889 4,40c0.71193,1.89849 -1.02759,6 1,6c23.71176,0 4.2011,-32.2011 11,-39c5.41112,-5.41112 21.01351,-11.99325 29,-8c14.86014,7.43007 -3.92644,66.98529 16,63c15.44976,-3.08995 16.12469,-21.49877 19,-33c0.73365,-2.9346 -1.4491,-19 1,-19" fill="none" stroke="black" stroke-linecap="round" stroke-width="5"/>
	<path d="M165,214c3.51661,0 43.35066,-3.62335 40,-12c-1.91139,-4.77847 -8.68556,-10.21207 -12,-14c-3.12448,-3.57083 -8.91892,-15.95946 -13,-18c-2.55925,-1.27963 -45.01121,8.7528 -50,10c-5.2954,1.32385 -10.65512,1.93102 -16,3c-3.65441,0.73088 -14.72678,2 -11,2c13.50861,0 62.3605,28 65,28" fill="none" stroke="black" stroke-linecap="round" stroke-width="5"/>
	<path d="M206,205c1.74878,0 2,3.30219 2,5c0,5.57385 3.10122,11.39271 2,18c-1.28303,7.69817 -9.81748,35.36504 -17,21c-1.5496,-3.09921 -3,-6.57863 -3,-10c0,-4 0,-8 0,-12c0,-5.25217 3,-11.41028 3,-17" fill="none" stroke="black" stroke-linecap="round" stroke-width="5"/>
	<path d="M184,213c0,28.58982 -25,33.427 -25,-6" fill="none" stroke="black" stroke-linecap="round" stroke-width="5"/>
</svg>
