<?xml version="1.0" ?>
<svg baseProfile="full" height="300" version="1.1" viewBox="[0, 0, 300, 300]" width="300" xmlns="http://www.w3.org/2000/svg" xmlns:ev="http://www.w3.org/2001/xml-events" xmlns:xlink="http://www.w3.org/1999/xlink">
	<defs/>
	<path d="M217,92c0,-2.59414 -2.19829,-13.19829 -4,-15c-4.87974,-4.87974 -26.9716,4.3428 -34,2c-31.16241,-10.38747 -62.27798,-10.72202 -87,14c-6.1178,6.1178 -25.4083,8.95848 -23,21c0.8269,4.13449 1.01858,14.98142 4,12c7.66128,-7.66128 7.83226,-14.41613 19,-20c13.45667,-6.72834 21.79527,3.53412 37,1c30.28135,-5.04689 58.59029,-14 90,-14" fill="none" stroke="black" stroke-linecap="round" stroke-width="5"/>
	<path d="M119,105c0,20.75832 10,50.79775 10,76c0,0.67029 0.66666,5.66666 1,6c1.94365,1.94365 5.33333,-1.33333 8,-2c10.9687,-2.74217 21.88017,-4.02179 33,-2c2.96977,0.53996 9,1 9,1c0,0 -4.07704,2.55778 -6,4c-9.05972,6.79479 -20.59503,11.19006 -26,22c-4.03428,8.06856 4,20.57408 4,34" fill="none" stroke="black" stroke-linecap="round" stroke-width="5"/>
	<path d="M118,181c0,15.29936 -3.9858,29.78698 -5,45c-0.26608,3.99114 0,8 0,12c0,3 0,12 0,9c0,-23.02777 15.32948,-44.65896 25,-64" fill="none" stroke="black" stroke-linecap="round" stroke-width="5"/>
	<path d="M152,257c4.63136,0 6.85954,-20.28931 10,-25c4.03083,-6.04624 43.19677,-30.40161 46,-29c3.32568,1.66284 1.76123,7.76123 4,10" fill="none" stroke="black" stroke-linecap="round" stroke-width="5"/>
</svg>
