<?xml version="1.0" ?>
<svg baseProfile="full" height="300" version="1.1" viewBox="[0, 0, 300, 300]" width="300" xmlns="http://www.w3.org/2000/svg" xmlns:ev="http://www.w3.org/2001/xml-events" xmlns:xlink="http://www.w3.org/1999/xlink">
	<defs/>
	<path d="M67,97c0.66667,0 1.33333,0 2,0" fill="none" stroke="black" stroke-linecap="round" stroke-width="5"/>
	<path d="M77,94c6.90718,0 19.81859,-7.04143 27,-9c16.46616,-4.49077 35.92567,-7 53,-7c12.37935,0 25.06522,0.38696 37,-2c1.55577,-0.31115 18,0.21372 18,0c0,-0.88681 -1.47137,-12.47137 -2,-13c-0.44434,-0.44434 -5.76198,0 -6,0c-23.73437,0 -47.85127,-9.30696 -71,-6c-12.88045,1.84006 -24.89507,7.89507 -34,17c-7.83321,7.83321 -15.98885,9.85077 -25,15c-2.8504,1.6288 -6.06364,2.53182 -9,4c-0.94281,0.4714 -4.05409,1 -3,1c5.05906,0 10.07598,-1 15,-1" fill="none" stroke="black" stroke-linecap="round" stroke-width="5"/>
	<path d="M86,106c6.04372,18.13117 9.61436,39.91489 12,59c0.21082,1.68655 -0.67655,4.72058 1,5c15.68927,2.61488 33.99649,-2 50,-2c3.54338,0 -5.03449,5.05173 -7,8c-4.2497,6.37455 -7.14639,12.31752 -8,20c-1.94045,17.46407 -1.18042,28.84407 6,45c0.85622,1.92648 2,6 2,6c0,0 0,-10.90598 0,-11c0,-10.03464 5.3535,-60 24,-60" fill="none" stroke="black" stroke-linecap="round" stroke-width="5"/>
	<path d="M179,134c-1.33333,0 -2.66667,0 -4,0" fill="none" stroke="black" stroke-linecap="round" stroke-width="5"/>
</svg>
