<?xml version="1.0" ?>
<svg baseProfile="full" height="300" version="1.1" viewBox="[0, 0, 300, 300]" width="300" xmlns="http://www.w3.org/2000/svg" xmlns:ev="http://www.w3.org/2001/xml-events" xmlns:xlink="http://www.w3.org/1999/xlink">
	<defs/>
	<path d="M89,74c0,23.44309 1.75051,48.49696 -2,71c-0.13743,0.82457 -2.35338,8.32331 -1,9c4.90106,2.45053 43.76447,18.76447 45,20c0.91156,0.91156 0,7.5802 0,9c0,23.11074 1,46.24577 1,69" fill="none" stroke="black" stroke-linecap="round" stroke-width="5"/>
	<path d="M134,218c19.58729,0 39.32149,1 59,1c1.5397,0 8.16727,-1.83273 9,-1c3.77766,3.77766 3,21.89195 3,26c0,3.30021 1.15293,7.61171 2,11c0.16169,0.64676 0,2.66667 0,2c0,-3.34996 -0.49061,-6.689 -1,-10c-3.37924,-21.96506 -8,-40.57593 -8,-63c0,-1.15602 0.72144,-5.27856 0,-6c-7.67904,-7.67904 -35.50539,-38.01079 -39,-45c-5.78311,-11.56623 -2,-34.76862 -2,-48" fill="none" stroke="black" stroke-linecap="round" stroke-width="5"/>
	<path d="M68,126c0,-7.20625 6.33701,-16.79371 8,-24c3.01149,-13.04979 3,-29.79439 3,-43c0,-1.33333 -0.94281,-3.05719 0,-4c3.11713,-3.11713 21.87992,2.2509 26,3c24.06091,4.37471 55.20669,-2.59777 78,5c2.23607,0.74536 -3.33333,3.33333 -5,5c-3.40212,3.40212 -4,11.40381 -4,16c0,9.73883 4.28787,39.71213 -2,46c-7.35611,7.35611 -84.79338,-12 -101,-12" fill="none" stroke="black" stroke-linecap="round" stroke-width="5"/>
	<path d="M90,146c5.4263,5.4263 58.71817,7.05637 69,5c3.54879,-0.70976 12.72857,-7.63571 16,-6c9.50448,4.75224 13.75975,25.5195 18,34c0.33333,0.66667 1.74536,2 1,2c-8.55621,0 -68.76366,3.11817 -75,0c-10.67087,-5.33544 -12.75174,-13.50349 -18,-24c-0.36949,-0.73899 -0.69315,-3.65343 -2,-3c-1.81762,0.90881 -0.60946,5.30473 -2,6c-2.86996,1.43498 -7.87042,-2.37653 -9,-2c-8.00377,2.66792 -12,55.3348 -12,63c0,1.33333 0,4 0,4c0,0 0.6512,-7.95361 1,-9" fill="none" stroke="black" stroke-linecap="round" stroke-width="5"/>
	<path d="M81,192c41.80077,0 82.2174,0 124,0c2.4267,0 -4.82949,-0.91475 -7,-2c-4.688,-2.344 -10.41724,-3.57056 -16,-4c-3.48248,-0.26788 -19.46455,2.53545 -22,0c-1.23529,-1.23529 0.42157,0 1,0c3.75643,0 7,-5.37064 7,-9" fill="none" stroke="black" stroke-linecap="round" stroke-width="5"/>
	<path d="M168,177c1.77865,0 2,1.43634 2,3c0,17.30472 2,35.80482 2,53" fill="none" stroke="black" stroke-linecap="round" stroke-width="5"/>
</svg>
