<?xml version="1.0" ?>
<svg baseProfile="full" height="300" version="1.1" viewBox="[0, 0, 300, 300]" width="300" xmlns="http://www.w3.org/2000/svg" xmlns:ev="http://www.w3.org/2001/xml-events" xmlns:xlink="http://www.w3.org/1999/xlink">
	<defs/>
	<path d="M87,115c0,-15.29697 -10.57082,-32.85837 -3,-48c7.12357,-14.24714 17.30953,-15.65477 30,-22c5.18709,-2.59355 24.68604,-4.10465 31,-2c22.65946,7.55315 34.79002,32.16008 40,53c1.31255,5.25021 3.22289,10.66866 5,16c0.66667,2 4,5.33333 2,6c-12.79956,4.26652 -86.43841,12.7808 -100,6c-0.9956,-0.4978 0,-13.33 0,-15" fill="none" stroke="black" stroke-linecap="round" stroke-width="5"/>
	<path d="M102,156c17.48054,0 42.39587,8.86804 60,3c10.01156,-3.33719 17.04038,-9.02692 26,-15c0.61037,-0.40692 3.04384,-2.95616 4,-2c0.97368,0.97368 26,35.62275 26,37c0,0.04153 -8.53915,-0.05121 -9,0c-9.67754,1.07528 -19.10148,4.0451 -28,8c-31.92976,14.19101 -75,14.43187 -75,-32" fill="none" stroke="black" stroke-linecap="round" stroke-width="5"/>
	<path d="M81,127c24.06705,0 40.38287,3.14862 49,29c2.39273,7.1782 3,15.85444 3,24c0,2.66667 0,5.33333 0,8c0,1.33333 0,5.33333 0,4c0,-4.24284 3.15294,-26.84706 0,-30c-8.63063,-8.63063 -21.4178,-4.27853 -30,-10c-3.00864,-2.00576 -2.41145,-8.41145 -5,-11c-3.20816,-3.20816 -10.91552,-6.91552 -15,-11" fill="none" stroke="black" stroke-linecap="round" stroke-width="5"/>
	<path d="M208,178c0,-1.33333 0,-2.66667 0,-4" fill="none" stroke="black" stroke-linecap="round" stroke-width="5"/>
	<path d="M208,166c0,-4 0,-8 0,-12" fill="none" stroke="black" stroke-linecap="round" stroke-width="5"/>
	<path d="M208,153c0,-11.5266 -9.88175,-26.88175 -17,-34c-2.33333,-2.33333 -9.33333,-4.66667 -7,-7c17.34875,-17.34875 40.95566,32.0665 35,41c-2.97663,4.46495 -10.04957,6.04957 -14,10" fill="none" stroke="black" stroke-linecap="round" stroke-width="5"/>
	<path d="M107,140c4.27377,4.27377 15,6.56587 15,15" fill="none" stroke="black" stroke-linecap="round" stroke-width="5"/>
	<path d="M122,156c3.57381,3.57381 1.36863,9.36863 7,15" fill="none" stroke="black" stroke-linecap="round" stroke-width="5"/>
	<path d="M108,143c-0.52705,-0.52705 -1.25464,-1 -2,-1" fill="none" stroke="black" stroke-linecap="round" stroke-width="5"/>
	<path d="M105,142c-1.11416,0 -7,-1.68921 -7,-3" fill="none" stroke="black" stroke-linecap="round" stroke-width="5"/>
	<path d="M107,180c0,14.8812 2.22033,29.18619 3,44c0.29783,5.65883 0,22.66667 0,17" fill="none" stroke="black" stroke-linecap="round" stroke-width="5"/>
	<path d="M135,200c6.93629,13.87258 -0.85313,34.29374 5,46c0.23914,0.47827 1,7 1,7c0,0 0.58152,-9.16304 1,-10c2.9881,-5.97619 8,-11.322 8,-19c0,-12.1838 -8,-28.30743 -8,-34" fill="none" stroke="black" stroke-linecap="round" stroke-width="5"/>
	<path d="M117,200c-2.70786,2.70786 -2,9.35292 -2,13" fill="none" stroke="black" stroke-linecap="round" stroke-width="5"/>
	<path d="M115,215c-0.4714,0.94281 -1,1.94591 -1,3" fill="none" stroke="black" stroke-linecap="round" stroke-width="5"/>
	<path d="M113,233c0,-3.99125 2.21302,-8.06511 3,-12" fill="none" stroke="black" stroke-linecap="round" stroke-width="5"/>
	<path d="M122,194c0,-0.66667 0,-1.33333 0,-2" fill="none" stroke="black" stroke-linecap="round" stroke-width="5"/>
	<path d="M122,189c0,-1 0,-2 0,-3" fill="none" stroke="black" stroke-linecap="round" stroke-width="5"/>
	<path d="M199,185c4.24645,12.73934 13,26.06009 13,40c0,8.81526 1,-9.1193 1,-10c0,-12.53721 2,-24.71891 2,-37" fill="none" stroke="black" stroke-linecap="round" stroke-width="5"/>
</svg>
