<?xml version="1.0" ?>
<svg baseProfile="full" height="300" version="1.1" viewBox="[0, 0, 300, 300]" width="300" xmlns="http://www.w3.org/2000/svg" xmlns:ev="http://www.w3.org/2001/xml-events" xmlns:xlink="http://www.w3.org/1999/xlink">
	<defs/>
	<path d="M100,87c27.41138,0 53.8023,-5.18682 81,-7c14.0998,-0.93999 29.26134,1.43467 43,-2c0.78247,-0.19562 3.27463,-1.17611 3,-2c-1.2196,-3.6588 -2.05268,-16.05268 -4,-18c-2.58653,-2.58653 -28.0259,3.00648 -32,4c-8.76063,2.19016 -19.53217,-3.58869 -28,-5c-19.33304,-3.22217 -33.23577,4.44715 -51,8c-1.03362,0.20672 -2.0213,0.60852 -3,1c-9.10873,3.64349 -26.16349,4.16349 -33,11c-1.06775,1.06775 -12.41006,15.86331 -9,17c13.94456,4.64819 25.96498,-6 38,-6" fill="none" stroke="black" stroke-linecap="round" stroke-width="5"/>
	<path d="M180,130c-16.54857,0 -68.88944,5.27639 -57,35c21.13435,52.83586 156.51481,-14.9142 60,-31c-8.298,-1.383 -16.64,-1 -25,-1" fill="none" stroke="black" stroke-linecap="round" stroke-width="5"/>
	<path d="M157,180c0,14.57288 -11.34661,37.80875 -17,51c-1.58658,3.70202 -5,11 -5,11c0,0 0,-6 0,-9c0,-6.1661 5.66462,-42.00307 3,-46c-1.34927,-2.02391 -4,-4.4671 -4,-7" fill="none" stroke="black" stroke-linecap="round" stroke-width="5"/>
	<path d="M80,89c0,6.2067 11.9135,16.82701 15,23c5.32179,10.64358 8,29.6614 8,41c0,0.85383 -0.62846,6.37154 0,7c1.93626,1.93626 29.34314,1.65686 24,7" fill="none" stroke="black" stroke-linecap="round" stroke-width="5"/>
</svg>
