<?xml version="1.0" ?>
<svg baseProfile="full" height="300" version="1.1" viewBox="[0, 0, 300, 300]" width="300" xmlns="http://www.w3.org/2000/svg" xmlns:ev="http://www.w3.org/2001/xml-events" xmlns:xlink="http://www.w3.org/1999/xlink">
	<defs/>
	<path d="M61,145c0,-18.77705 -2.7492,-95.46486 12,-106c8.61712,-6.15508 22.19,-4.59857 32,-6c63.63197,-9.09028 90.53096,51.40711 73,104c-1.38154,4.14463 -27.65712,-0.53142 -30,-1c-23.18742,-4.63748 -64.48591,-6.51409 -81,10" fill="none" stroke="black" stroke-linecap="round" stroke-width="5"/>
	<path d="M55,108c9.40122,0 19.97749,14.98392 27,20c5.88434,4.2031 11.80567,8.80567 17,14c5.9774,5.9774 11.07308,9.38205 18,14c1.96116,1.30744 0.47242,5.15947 -1,7c-0.75079,0.93849 -2.15016,1.15016 -3,2c-3.26467,3.26467 -6.48262,-6.39305 -13,-9c-9.53442,-3.81377 -39,-17.33895 -39,-31" fill="none" stroke="black" stroke-linecap="round" stroke-width="5"/>
	<path d="M168,111c13.6972,0 36.53987,17.53987 46,27c0.41947,0.41947 5.74467,6.25533 5,7c-0.80839,0.80839 -26.21513,12.59496 -28,12c-2.69737,-0.89912 -1.44371,-2.44371 -3,-4c-7.07522,-7.07522 -6.21185,-22.21185 -14,-30c-1.55017,-1.55017 -6.68238,-4.36477 -8,-7c-0.4119,-0.8238 -1,-1.98652 -1,-3" fill="none" stroke="black" stroke-linecap="round" stroke-width="5"/>
	<path d="M207,149c12.67423,12.67423 6,43.01102 6,60" fill="none" stroke="black" stroke-linecap="round" stroke-width="5"/>
</svg>
