<?xml version="1.0" ?>
<svg baseProfile="full" height="300" version="1.1" viewBox="[0, 0, 300, 300]" width="300" xmlns="http://www.w3.org/2000/svg" xmlns:ev="http://www.w3.org/2001/xml-events" xmlns:xlink="http://www.w3.org/1999/xlink">
	<defs/>
	<path d="M94,61c0,19.38623 -3.143,44.57099 3,63c1.25156,3.75468 4.20101,-0.40076 5,-1c14.55999,-10.91999 64.30739,-2.61477 74,-22c2.5155,-5.03099 0.68433,-22.947 -1,-28c-2.08443,-6.2533 0.69617,-19.53589 -6,-24c-13.41322,-8.94215 -66.78183,7.78183 -78,19" fill="none" stroke="black" stroke-linecap="round" stroke-width="5"/>
	<path d="M165,35c0,-1.50752 -5.10672,-2 -7,-2c-13.36582,0 -75.7292,12.91682 -79,26c-5.10111,20.40443 -0.72285,77.97001 5,98c1.94803,6.81809 6,18.25692 6,25c0,9.34602 2.068,21.204 5,30c0.08736,0.26209 2,5 2,5c0,0 0,-8.6501 0,-10c0,-8.03726 4.04148,-15.04148 9,-20c5.01289,-5.01289 2.28441,-24.13764 4,-31c0.245,-0.97999 1.0415,-4.52075 2,-5c2.85436,-1.42718 5.30358,2.72769 7,4c3.5463,2.65972 5.97379,47.93448 10,58c0.48919,1.22297 0.42581,5 2,5c6.67099,0 0.54767,-39.27383 16,-47c4.96868,-2.48434 17.71498,0 23,0c5.18461,0 21.45329,-4.24452 24,0c7.38487,12.30812 -4.51658,33.48342 6,44c2.84284,2.84284 7.96582,-0.93164 9,-3c4.63885,-9.27769 -2.56714,-46.56714 -9,-53" fill="none" stroke="black" stroke-linecap="round" stroke-width="5"/>
</svg>
