<?xml version="1.0" ?>
<svg baseProfile="full" height="300" version="1.1" viewBox="[0, 0, 300, 300]" width="300" xmlns="http://www.w3.org/2000/svg" xmlns:ev="http://www.w3.org/2001/xml-events" xmlns:xlink="http://www.w3.org/1999/xlink">
	<defs/>
	<path d="M90,52c0,41.66667 0,83.33333 0,125c0,10.06179 -7.21893,32.89053 3,38c3.13315,1.56658 7,-0.88533 7,-4c0,-19.05752 -1.88954,-38.22093 7,-56c0.06636,-0.13273 8.38435,-0.79478 9,-1c32.65822,-10.88607 0.55981,51.55981 15,66c0.6631,0.6631 4.94912,0 6,0c3.69573,0 5.06285,-45.18856 8,-54c1.55216,-4.65647 27.21666,-9.10833 33,-12c2.06789,-1.03394 1,6.70302 1,7c0,14.8467 -8.62484,33.50064 -5,48c3.00409,12.01634 13.31946,0.36108 16,-5c2.93373,-5.86746 2,-14.62933 2,-22c0,-30.71025 -17.90368,-21.14221 -41,-35c-20.30155,-12.18093 -44.51224,-35.46329 -57,2c-2.36346,7.09039 23.07739,6.9231 25,7c3.9968,0.15987 8,0 12,0c22.59297,0 38.16278,4.83722 54,-11c1.33964,-1.33964 5.86533,-4.404 5,-7c-1.22666,-3.67998 -13.27631,-5.27631 -15,-7c-14.44465,-14.44465 -73.70064,0.70064 -85,12" fill="none" stroke="black" stroke-linecap="round" stroke-width="5"/>
	<path d="M160,120c6.67981,-3.33991 2.32436,-57.02692 -1,-67c-2.55814,-7.67443 -55.62912,2.31456 -61,5c-4.127,2.0635 -9.30816,10.15469 -12,15c-0.74176,1.33517 -3.81246,25.69792 -2,26c27.69471,4.61579 56.23285,-5 83,-5" fill="none" stroke="black" stroke-linecap="round" stroke-width="5"/>
</svg>
