<?xml version="1.0" ?>
<svg baseProfile="full" height="300" version="1.1" viewBox="[0, 0, 300, 300]" width="300" xmlns="http://www.w3.org/2000/svg" xmlns:ev="http://www.w3.org/2001/xml-events" xmlns:xlink="http://www.w3.org/1999/xlink">
	<defs/>
	<path d="M101,84c-1.69998,0 -2,24.45211 -2,29c0,2.66667 0,5.33333 0,8c0,10.4334 -5.35631,36.52492 1,45c9.92927,13.23902 19.52193,11.79511 34,18c5.31501,2.27786 26.61276,13.38724 31,9" fill="none" stroke="black" stroke-linecap="round" stroke-width="5"/>
	<path d="M171,75c0,13.45815 -7.78413,62.60793 7,70c3.92937,1.96469 10.82447,-1.39184 15,0c11.55114,3.85038 20.63267,8 33,8" fill="none" stroke="black" stroke-linecap="round" stroke-width="5"/>
	<path d="M226,155c-15.0125,2.50208 -57.85801,29 -69,29" fill="none" stroke="black" stroke-linecap="round" stroke-width="5"/>
	<path d="M173,139c-22.37306,0 -41.17448,26 -65,26" fill="none" stroke="black" stroke-linecap="round" stroke-width="5"/>
	<path d="M166,116c-10.27741,0 -21.49432,11.92614 -31,16c-11.39511,4.88362 -29.75864,8 -41,8" fill="none" stroke="black" stroke-linecap="round" stroke-width="5"/>
	<path d="M99,87c17.97696,0 39.74909,-2.58303 56,-8c5.7948,-1.9316 13.13547,-7 20,-7" fill="none" stroke="black" stroke-linecap="round" stroke-width="5"/>
	<path d="M96,137c-3.5027,7.00541 -0.6716,19.61235 0,27c1.91452,21.05971 -5,41.23707 -5,61" fill="none" stroke="black" stroke-linecap="round" stroke-width="5"/>
	<path d="M155,187c8.13859,13.56432 6,37.95226 6,54" fill="none" stroke="black" stroke-linecap="round" stroke-width="5"/>
	<path d="M167,211c0,3.55977 59.43248,-19.32436 71,-28" fill="none" stroke="black" stroke-linecap="round" stroke-width="5"/>
	<path d="M221,155c0,4.46323 7.3839,13.34365 9,19c3.05891,10.70617 4.41402,21.24205 8,32c1.10646,3.31939 9.80641,20.61283 4,9" fill="none" stroke="black" stroke-linecap="round" stroke-width="5"/>
</svg>
