<?xml version="1.0" ?>
<svg baseProfile="full" height="300" version="1.1" viewBox="[0, 0, 300, 300]" width="300" xmlns="http://www.w3.org/2000/svg" xmlns:ev="http://www.w3.org/2001/xml-events" xmlns:xlink="http://www.w3.org/1999/xlink">
	<defs/>
	<path d="M214,49c12.23003,12.23003 6,114.43755 6,134" fill="none" stroke="black" stroke-linecap="round" stroke-width="5"/>
	<path d="M172,51c11.31059,45.24236 3,100.19304 3,147" fill="none" stroke="black" stroke-linecap="round" stroke-width="5"/>
	<path d="M128,68c14.65437,18.31797 10,114.73271 10,144" fill="none" stroke="black" stroke-linecap="round" stroke-width="5"/>
	<path d="M121,77c0,52.66936 -2,105.44747 -2,158" fill="none" stroke="black" stroke-linecap="round" stroke-width="5"/>
	<path d="M69,73c0,53.33333 0,106.66667 0,160" fill="none" stroke="black" stroke-linecap="round" stroke-width="5"/>
	<path d="M47,90c0,32.72991 2.60887,66.52017 -1,99c-1.63554,14.71989 -5,29.10209 -5,44" fill="none" stroke="black" stroke-linecap="round" stroke-width="5"/>
	<path d="M18,97c0,54.21442 -5,108.06732 -5,162" fill="none" stroke="black" stroke-linecap="round" stroke-width="5"/>
	<path d="M0,110c20.59241,0 63.80163,-23.89516 87,-30c15.16054,-3.98961 69.90511,-15.63686 83,-14c1.95182,0.24398 42.86933,16.56534 44,16c4.17219,-2.0861 13.68711,-3.68711 17,-7c4.73395,-4.73395 2,-23.47694 2,-29c0,-3 2.30466,-7.07945 0,-9c-15.74844,-13.1237 -44.82788,-9 -64,-9c-46.52316,0 -105.01384,-5.36289 -142,27c-6.71041,5.87161 -26.65748,12.62993 -29,22c-1.63514,6.54058 0,15.05846 0,22" fill="none" stroke="black" stroke-linecap="round" stroke-width="5"/>
</svg>
