<?xml version="1.0" ?>
<svg baseProfile="full" height="300" version="1.1" viewBox="[0, 0, 300, 300]" width="300" xmlns="http://www.w3.org/2000/svg" xmlns:ev="http://www.w3.org/2001/xml-events" xmlns:xlink="http://www.w3.org/1999/xlink">
	<defs/>
	<path d="M191,157c3.62598,0 3.7113,-1.66957 4,-6c1.26152,-18.92278 4.85771,-46.71146 1,-66c-1.47991,-7.39955 -8.61993,-12.51661 -14,-17c-32.26942,-26.89118 -77.5163,-36.4837 -108,-6c-8.69815,8.69815 -4,30.39682 -4,42c0,11.26526 -5.62479,40.75042 0,52c0.52519,1.05038 1.94838,1.35054 3,1c15.12512,-5.04171 37.79424,-1.04672 54,-2c9.69403,-0.57024 65.95428,-4.95428 69,-8" fill="none" stroke="black" stroke-linecap="round" stroke-width="5"/>
	<path d="M201,118c16.47234,16.47234 37.54201,24.35501 47,48c5.69963,14.24907 2,36.62803 2,52c0,5.71861 3.20472,38 -4,38" fill="none" stroke="black" stroke-linecap="round" stroke-width="5"/>
	<path d="M67,116c3.55544,0 14.99493,17.57615 16,19c5.38581,7.62989 10.43522,15.49964 16,23c6.55412,8.83381 20.70776,17.47716 24,29c5.85543,20.49399 17.67945,77.32055 1,94" fill="none" stroke="black" stroke-linecap="round" stroke-width="5"/>
</svg>
