<?xml version="1.0" ?>
<svg baseProfile="full" height="300" version="1.1" viewBox="[0, 0, 300, 300]" width="300" xmlns="http://www.w3.org/2000/svg" xmlns:ev="http://www.w3.org/2001/xml-events" xmlns:xlink="http://www.w3.org/1999/xlink">
	<defs/>
	<path d="M184,140c0.94281,0 1.15673,-1.57836 2,-2c1.07497,-0.53748 1.83003,-1.81023 2,-3c0.51235,-3.58645 -17.08964,-61.45285 -22,-68c-21.10397,-28.13862 -61.1693,-28.5538 -89,-10c-7.49577,4.99718 -31.0073,17.02919 -33,25c-2.37481,9.49925 5,17.87226 5,27c0,5.85758 6.36637,51.24425 12,55c4.22924,2.81949 22.85259,-0.74079 27,-1c9.43289,-0.58956 22.93993,-1.22497 32,-5c7.99908,-3.33295 14.53737,-10.17912 23,-13c7.82434,-2.60811 16.28008,-1.42669 24,-4c3.8079,-1.2693 9.00026,-7 13,-7" fill="none" stroke="black" stroke-linecap="round" stroke-width="5"/>
	<path d="M171,90c10.02958,0 42.74695,15.24898 48,17c54.39555,18.13185 68,49.35659 68,104c0,10.18207 1.39142,39.60858 -7,48" fill="none" stroke="black" stroke-linecap="round" stroke-width="5"/>
	<path d="M51,122c24.66755,19.38165 56.98673,29.36008 78,53c19.47988,21.91487 14,81.08472 14,110" fill="none" stroke="black" stroke-linecap="round" stroke-width="5"/>
	<path d="M183,152c0,5.41028 -14.84613,15.04976 -16,16c-20.75457,17.092 -29.48513,23.10608 -56,25c-4.45854,0.31847 -26,3.99984 -26,-3" fill="none" stroke="black" stroke-linecap="round" stroke-width="5"/>
</svg>
