<?xml version="1.0" ?>
<svg baseProfile="full" height="300" version="1.1" viewBox="[0, 0, 300, 300]" width="300" xmlns="http://www.w3.org/2000/svg" xmlns:ev="http://www.w3.org/2001/xml-events" xmlns:xlink="http://www.w3.org/1999/xlink">
	<defs/>
	<path d="M206,192c9.75977,0 -1.54852,-39.74261 -3,-47c-11.01107,-55.05537 -22.09188,-82 -82,-82c-16.84914,0 -36.36225,-0.95663 -47,15c-13.45936,20.18904 -2.14323,34.52257 4,55c0.4884,1.62799 0.85885,3.3062 1,5c1.69656,20.35873 6,45.04421 6,64c0,1.15204 -0.81029,6.59771 1,7c56.25068,12.50015 84.48857,-31 133,-31" fill="none" stroke="black" stroke-linecap="round" stroke-width="5"/>
	<path d="M200,132c0,-2.15368 7.0685,9.55137 21,20c14.85699,11.14274 30.54729,18.88693 43,33c30.54043,34.61249 10,87.19051 10,127" fill="none" stroke="black" stroke-linecap="round" stroke-width="5"/>
	<path d="M84,140c12.28879,6.14439 29.59842,6.91338 42,14c18.18785,10.39306 20.55745,38.22978 25,56c2.07838,8.31351 7,16.24729 7,25c0,1.33333 -0.12071,2.67214 0,4c1.36957,15.06524 3,29.83538 3,45c0,1.69514 0.24453,4 -2,4" fill="none" stroke="black" stroke-linecap="round" stroke-width="5"/>
</svg>
