<?xml version="1.0" ?>
<svg baseProfile="full" height="300" version="1.1" viewBox="[0, 0, 300, 300]" width="300" xmlns="http://www.w3.org/2000/svg" xmlns:ev="http://www.w3.org/2001/xml-events" xmlns:xlink="http://www.w3.org/1999/xlink">
	<defs/>
	<path d="M48,38c37.34343,-7.46869 98.33684,-18.83158 134,-1c6.24706,3.12353 38.96357,20.59108 34,33c-5.34624,13.36561 -34.04914,13.29273 -46,15c-26.1721,3.73887 -104.00811,-4.33874 -126,-19c-4.45088,-2.96725 -7,-8.37459 -7,-14c0,-20.13928 21.49604,-19 37,-19" fill="none" stroke="black" stroke-linecap="round" stroke-width="5"/>
	<path d="M119,41c0,-0.74536 -1.25464,-1 -2,-1c-9.50388,0 -12.11931,3.40343 -10,14c1.69511,8.47556 29.36904,13.26191 33,6c7.69354,-15.38708 -19.08166,-22 -28,-22" fill="none" stroke="black" stroke-linecap="round" stroke-width="5"/>
	<path d="M69,68c7.79808,0 13,66.9306 13,81" fill="none" stroke="black" stroke-linecap="round" stroke-width="5"/>
</svg>
