<?xml version="1.0" ?>
<svg baseProfile="full" height="300" version="1.1" viewBox="[0, 0, 300, 300]" width="300" xmlns="http://www.w3.org/2000/svg" xmlns:ev="http://www.w3.org/2001/xml-events" xmlns:xlink="http://www.w3.org/1999/xlink">
	<defs/>
	<path d="M45,51c0,-2.89767 0.7868,-2 4,-2c22.99184,0 45.12133,1.16971 68,3c20.84654,1.66772 63.86307,-5.37898 83,1c0.44721,0.14907 0.85093,0.55279 1,1c1.56631,4.69892 -0.58019,11.74056 -2,16c-0.46808,1.40424 -1.5906,12.5906 -2,13c-3.28302,3.28302 -61.47627,-7.72144 -70,-9c-16.20057,-2.43009 -36.5609,5.14637 -52,0c-5.74239,-1.91413 -20.84824,-2.54471 -23,-9c-1.29406,-3.88218 -1,-8.65642 -1,-13c0,-2 -1.41421,-7.41421 0,-6c7.62704,7.62704 1.70036,40.70036 5,44c9.26511,9.26511 94.54759,5 116,5c14.27335,0 24,1.00533 24,-17c0,-3.87723 1.4833,-5.49443 -3,-4" fill="none" stroke="black" stroke-linecap="round" stroke-width="5"/>
	<path d="M76,93c7.39164,0 7,64.44895 7,75" fill="none" stroke="black" stroke-linecap="round" stroke-width="5"/>
	<path d="M119,92c2.87677,-2.87677 2,0.6404 2,4c0,12.9901 1.7143,27.14271 0,40c-1.61726,12.12947 -8,25.09443 -8,37" fill="none" stroke="black" stroke-linecap="round" stroke-width="5"/>
</svg>
