<?xml version="1.0" ?>
<svg baseProfile="full" height="300" version="1.1" viewBox="[0, 0, 300, 300]" width="300" xmlns="http://www.w3.org/2000/svg" xmlns:ev="http://www.w3.org/2001/xml-events" xmlns:xlink="http://www.w3.org/1999/xlink">
	<defs/>
	<path d="M79,207c0,-2.2308 3.3273,-1 5,-1c16.33333,0 32.66667,0 49,0c19.34269,0 38.27602,-7 57,-7c2.34502,0 3.78513,-2.21487 6,0c6.23683,6.23683 4,55.39497 4,64c0,3.79255 3.78763,34.21237 0,38c-1.64794,1.64794 -5.10408,-2.32806 -6,-3c-11.4158,-8.56185 -25.0202,-12.85168 -38,-19c-9.12334,-4.32158 -53.96359,-17.96359 -55,-19c-5.17707,-5.17707 8.88698,-28.42178 11,-33" fill="none" stroke="black" stroke-linecap="round" stroke-width="5"/>
	<path d="M109,193c-35.84223,9.77515 22.72302,13.72302 29,20" fill="none" stroke="black" stroke-linecap="round" stroke-width="5"/>
	<path d="M127,244c4.16077,1.38692 77.8172,15.42891 51,5c-3.63628,-1.41411 -7.33333,-2.66667 -11,-4" fill="none" stroke="black" stroke-linecap="round" stroke-width="5"/>
	<path d="M31,212c42.62734,0 93.06317,7.15839 132,9c15.31621,0.72442 30.66667,0 46,0c6,0 23.05618,-3.23034 18,0c-34.70233,22.17094 -75.46547,46.86637 -116,57c-2.78183,0.69546 7.78183,-6.30454 5,-7c-9.83963,-2.45991 -20.06742,-3.01348 -30,-5" fill="none" stroke="black" stroke-linecap="round" stroke-width="5"/>
	<path d="M57,97c29.52045,0 59.34524,1 89,1c5.55964,0 33.62127,-2.6978 33,6c-0.49153,6.88138 -2.1189,32.1189 -8,38c-1.4583,1.4583 -9.81047,1 -11,1c-14.53832,0 -75.63921,5.18039 -88,-1c-1.87602,-0.93801 -7,-42.61707 -7,-48" fill="none" stroke="black" stroke-linecap="round" stroke-width="5"/>
	<path d="M82,143c5.3232,0 3,34.09179 3,43" fill="none" stroke="black" stroke-linecap="round" stroke-width="5"/>
	<path d="M83,163c7.66667,0 15.33333,0 23,0" fill="none" stroke="black" stroke-linecap="round" stroke-width="5"/>
	<path d="M102,139c4.08021,12.24062 4,34.16413 4,47" fill="none" stroke="black" stroke-linecap="round" stroke-width="5"/>
	<path d="M149,147c0,-1.69361 5.78993,39 0,39" fill="none" stroke="black" stroke-linecap="round" stroke-width="5"/>
	<path d="M164,138c6.34307,0 13.31152,49 -1,49" fill="none" stroke="black" stroke-linecap="round" stroke-width="5"/>
</svg>
